<svg width="162" height="629" viewBox="0 0 162 629" fill="none" xmlns="http://www.w3.org/2000/svg">
<path d="M117.019 540.542L160.3 540.542L160.3 559.778C160.3 595.197 142.667 612.906 107.401 612.906L73.509 612.906L73.509 628.936L31.144 628.936L31.144 612.906L-7.00694e-07 612.906L-2.92289e-06 562.068L31.144 562.068L31.144 541L73.509 541L73.509 562.068L108.317 562.068C111.37 562.068 113.584 561.381 114.958 560.007C116.332 558.48 117.019 556.038 117.019 552.679L117.019 540.542Z" fill="#E0E1DB"/>
<path d="M94.577 396.147C97.783 396.147 101.142 396.528 104.653 397.292L104.653 478.587C111.065 478.129 115.492 476.678 117.935 474.236C120.225 471.793 121.37 468.587 121.37 464.618C121.37 459.122 118.851 455.152 113.813 452.71L113.813 398.895C122.973 400.727 131.217 404.62 138.545 410.574C145.72 416.375 151.445 423.779 155.72 432.787C159.842 441.641 161.903 451.412 161.903 462.099C161.903 474.923 159.231 486.373 153.888 496.449C148.545 506.372 140.911 514.158 130.988 519.807C120.912 525.303 109.157 528.051 95.722 528.051C82.2873 528.051 70.6083 525.303 60.685 519.807C50.609 514.158 42.8993 506.372 37.556 496.449C32.2127 486.373 29.541 474.923 29.541 462.099C29.541 449.275 32.2127 437.901 37.556 427.978C42.7467 417.902 50.2273 410.116 59.998 404.62C69.7687 398.971 81.295 396.147 94.577 396.147ZM83.814 447.672C78.9287 447.672 75.341 449.046 73.051 451.794C70.6083 454.542 69.387 457.977 69.387 462.099C69.387 471.411 74.196 476.755 83.814 478.129L83.814 447.672Z" fill="#E0E1DB"/>
<path d="M29.541 333.581C29.541 325.185 31.2967 317.933 34.808 311.826C38.1667 305.72 42.823 301.063 48.777 297.857L31.144 297.857L31.144 247.248L160.3 247.248L160.3 297.857L142.667 297.857C148.621 301.063 153.354 305.72 156.865 311.826C160.224 317.933 161.903 325.185 161.903 333.581C161.903 343.657 159.308 352.741 154.117 360.832C148.774 368.924 141.14 375.336 131.217 380.068C121.141 384.648 109.309 386.938 95.722 386.938C82.1347 386.938 70.3793 384.648 60.456 380.068C50.38 375.336 42.7467 368.924 37.556 360.832C32.2127 352.741 29.541 343.657 29.541 333.581ZM73.967 316.635C73.967 322.131 75.8753 326.635 79.692 330.146C83.5087 333.658 88.852 335.413 95.722 335.413C102.592 335.413 107.935 333.658 111.752 330.146C115.569 326.635 117.477 322.131 117.477 316.635C117.477 311.139 115.569 306.636 111.752 303.124C107.935 299.613 102.592 297.857 95.722 297.857C88.852 297.857 83.5087 299.613 79.692 303.124C75.8753 306.636 73.967 311.139 73.967 316.635Z" fill="#E0E1DB"/>
<path d="M30.228 51.983C30.228 35.495 35.1896 22.7474 45.113 13.74C55.0363 4.58001 68.471 5.80422e-05 85.417 5.73015e-05L160.3 5.40282e-05L160.3 50.6091L91.829 50.6091C86.333 50.6091 82.0583 52.2884 79.005 55.647C75.799 58.853 74.196 63.2041 74.196 68.7001C74.196 74.3488 75.799 78.7761 79.005 81.9821C82.0583 85.188 86.333 86.7911 91.829 86.7911L160.3 86.7911L160.3 137.4L91.829 137.4C86.333 137.4 82.0583 139.079 79.005 142.438C75.799 145.644 74.196 149.995 74.196 155.491C74.196 161.14 75.799 165.567 79.005 168.773C82.0583 171.979 86.333 173.582 91.829 173.582L160.3 173.582L160.3 224.42L31.144 224.42L31.144 173.582L48.548 173.582C43.052 169.918 38.6246 164.956 35.266 158.697C31.9073 152.285 30.228 144.804 30.228 136.255C30.228 126.942 32.289 118.698 36.411 111.523C40.3803 104.348 46.029 98.6227 53.357 94.348C46.6396 89.6154 41.1436 83.5851 36.869 76.2571C32.4416 68.9291 30.228 60.8377 30.228 51.983Z" fill="#E0E1DB"/>
</svg>
