<svg width="734" height="570" viewBox="0 0 734 570" fill="none" xmlns="http://www.w3.org/2000/svg">
<rect width="79.7927" height="79.7927" rx="39.8964" transform="matrix(0.866025 0.5 0 1 262.465 230.881)" fill="#F9F7F4"/>
<path d="M282.48 278.084L280.791 273.984L280.014 273.535V276.66L278.92 276.028V268.205L281.309 269.585C282.083 270.032 282.668 270.588 283.065 271.253C283.468 271.921 283.67 272.614 283.67 273.33C283.67 273.943 283.519 274.359 283.219 274.577C282.924 274.798 282.496 274.802 281.933 274.588L283.708 278.793L282.48 278.084ZM280.014 272.638L281.223 273.336C282.105 273.846 282.547 273.65 282.547 272.749C282.547 272.32 282.438 271.925 282.221 271.563C282.01 271.197 281.677 270.883 281.223 270.621L280.014 269.923V272.638ZM289.568 278.83C289.568 279.037 289.555 279.21 289.53 279.351L285.461 277.002C285.48 277.641 285.63 278.193 285.912 278.658C286.193 279.124 286.542 279.476 286.958 279.716C287.323 279.927 287.63 279.997 287.879 279.927C288.135 279.86 288.292 279.667 288.349 279.345L289.52 280.021C289.45 280.409 289.303 280.704 289.079 280.908C288.855 281.111 288.564 281.205 288.205 281.19C287.847 281.168 287.447 281.029 287.006 280.775C286.494 280.479 286.04 280.091 285.643 279.611C285.253 279.135 284.946 278.595 284.722 277.993C284.498 277.391 284.386 276.769 284.386 276.126C284.386 275.491 284.498 275.002 284.722 274.658C284.946 274.315 285.253 274.13 285.643 274.104C286.04 274.082 286.494 274.218 287.006 274.514C287.524 274.813 287.975 275.199 288.359 275.672C288.749 276.141 289.047 276.653 289.251 277.207C289.462 277.757 289.568 278.298 289.568 278.83ZM288.464 278.16C288.477 277.768 288.416 277.401 288.282 277.057C288.154 276.71 287.975 276.407 287.745 276.148C287.521 275.886 287.275 275.677 287.006 275.522C286.577 275.275 286.219 275.219 285.931 275.356C285.643 275.493 285.486 275.849 285.461 276.425L288.464 278.16ZM292.745 277.828C293.225 278.105 293.634 278.478 293.973 278.947C294.312 279.416 294.549 279.914 294.683 280.443V276.93L295.787 277.567V285.767L294.683 285.13V283.711C294.549 284.084 294.312 284.31 293.973 284.387C293.634 284.465 293.225 284.365 292.745 284.088C292.284 283.822 291.872 283.458 291.507 282.997C291.149 282.539 290.867 282.014 290.663 281.423C290.458 280.832 290.356 280.215 290.356 279.573C290.356 278.937 290.458 278.442 290.663 278.088C290.867 277.733 291.149 277.534 291.507 277.49C291.872 277.449 292.284 277.562 292.745 277.828ZM293.081 279.129C292.595 278.849 292.204 278.804 291.91 278.997C291.622 279.185 291.478 279.593 291.478 280.221C291.478 280.849 291.622 281.427 291.91 281.955C292.204 282.48 292.595 282.882 293.081 283.163C293.388 283.34 293.663 283.418 293.906 283.396C294.149 283.366 294.341 283.24 294.482 283.019C294.623 282.797 294.693 282.483 294.693 282.077C294.693 281.678 294.623 281.287 294.482 280.902C294.341 280.511 294.149 280.164 293.906 279.861C293.663 279.551 293.388 279.307 293.081 279.129ZM301.975 283.234V289.339L300.871 288.702V287.372C300.737 287.746 300.503 287.962 300.171 288.021C299.838 288.072 299.451 287.971 299.009 287.716C298.395 287.361 297.903 286.848 297.532 286.176C297.161 285.504 296.975 284.743 296.975 283.893V280.347L298.069 280.979V284.392C298.069 284.946 298.191 285.444 298.434 285.888C298.677 286.323 299.009 286.663 299.432 286.907C299.867 287.158 300.215 287.197 300.478 287.023C300.74 286.85 300.871 286.453 300.871 285.832V282.597L301.975 283.234ZM305.636 285.27C306.32 285.665 306.887 286.203 307.334 286.882C307.782 287.555 308.061 288.28 308.169 289.06L307.008 288.389C306.944 287.968 306.787 287.579 306.538 287.22C306.295 286.858 305.988 286.57 305.617 286.356C305.195 286.112 304.843 286.083 304.561 286.267C304.28 286.445 304.139 286.866 304.139 287.531C304.139 288.195 304.28 288.783 304.561 289.292C304.843 289.802 305.195 290.179 305.617 290.423C305.988 290.637 306.295 290.703 306.538 290.622C306.787 290.545 306.944 290.332 307.008 289.985L308.169 290.655C308.061 291.309 307.782 291.717 307.334 291.88C306.887 292.042 306.32 291.926 305.636 291.531C305.124 291.235 304.67 290.847 304.273 290.367C303.883 289.891 303.576 289.351 303.352 288.749C303.128 288.147 303.016 287.525 303.016 286.882C303.016 286.247 303.128 285.758 303.352 285.414C303.576 285.071 303.883 284.886 304.273 284.86C304.67 284.838 305.124 284.975 305.636 285.27ZM314.14 293.016C314.14 293.223 314.127 293.397 314.101 293.537L310.032 291.188C310.052 291.827 310.202 292.379 310.483 292.845C310.765 293.31 311.114 293.663 311.529 293.903C311.894 294.113 312.201 294.183 312.451 294.113C312.706 294.047 312.863 293.853 312.921 293.532L314.092 294.207C314.021 294.595 313.874 294.891 313.65 295.094C313.426 295.297 313.135 295.391 312.777 295.376C312.419 295.354 312.019 295.216 311.577 294.961C311.066 294.665 310.611 294.278 310.215 293.797C309.824 293.321 309.517 292.782 309.293 292.18C309.07 291.578 308.958 290.955 308.958 290.313C308.958 289.677 309.07 289.188 309.293 288.844C309.517 288.501 309.824 288.316 310.215 288.29C310.611 288.268 311.066 288.405 311.577 288.7C312.096 289 312.547 289.385 312.93 289.858C313.321 290.327 313.618 290.839 313.823 291.393C314.034 291.943 314.14 292.484 314.14 293.016ZM313.036 292.346C313.049 291.954 312.988 291.587 312.854 291.243C312.726 290.896 312.547 290.593 312.316 290.335C312.092 290.073 311.846 289.864 311.577 289.709C311.149 289.461 310.79 289.406 310.503 289.542C310.215 289.679 310.058 290.036 310.032 290.612L313.036 292.346ZM288.975 288.934C289.807 289.414 290.498 290.056 291.048 290.862C291.598 291.667 291.97 292.542 292.161 293.488L291 292.817C290.84 292.252 290.584 291.732 290.233 291.255C289.887 290.775 289.462 290.389 288.956 290.097C288.553 289.864 288.192 289.77 287.872 289.815C287.558 289.863 287.309 290.047 287.123 290.369C286.944 290.686 286.855 291.129 286.855 291.698C286.855 292.26 286.944 292.806 287.123 293.338C287.309 293.866 287.558 294.336 287.872 294.745C288.192 295.159 288.553 295.482 288.956 295.715C289.462 296.007 289.887 296.116 290.233 296.042C290.584 295.964 290.84 295.739 291 295.366L292.161 296.036C291.97 296.76 291.598 297.207 291.048 297.377C290.498 297.54 289.807 297.381 288.975 296.901C288.336 296.531 287.77 296.038 287.277 295.421C286.784 294.797 286.404 294.108 286.135 293.355C285.866 292.594 285.732 291.826 285.732 291.05C285.732 290.274 285.866 289.665 286.135 289.222C286.404 288.771 286.784 288.518 287.277 288.463C287.77 288.407 288.336 288.564 288.975 288.934ZM295.671 294.517C296.183 294.812 296.644 295.204 297.053 295.691C297.462 296.179 297.782 296.726 298.013 297.331C298.243 297.937 298.358 298.558 298.358 299.193C298.358 299.836 298.243 300.327 298.013 300.667C297.782 301.007 297.462 301.184 297.053 301.199C296.644 301.213 296.183 301.073 295.671 300.778C295.159 300.482 294.699 300.091 294.289 299.603C293.886 299.119 293.566 298.572 293.33 297.963C293.099 297.35 292.984 296.726 292.984 296.09C292.984 295.455 293.099 294.968 293.33 294.628C293.566 294.292 293.886 294.114 294.289 294.096C294.699 294.081 295.159 294.221 295.671 294.517ZM295.671 295.614C295.39 295.451 295.131 295.376 294.894 295.387C294.657 295.398 294.465 295.516 294.318 295.741C294.177 295.963 294.107 296.295 294.107 296.739C294.107 297.189 294.177 297.607 294.318 297.991C294.465 298.379 294.657 298.715 294.894 298.999C295.131 299.283 295.39 299.507 295.671 299.669C295.953 299.832 296.212 299.908 296.448 299.897C296.685 299.886 296.874 299.769 297.015 299.548C297.162 299.33 297.235 298.995 297.235 298.545C297.235 298.102 297.162 297.686 297.015 297.298C296.874 296.907 296.685 296.569 296.448 296.284C296.212 296 295.953 295.776 295.671 295.614ZM301.147 297.678C301.767 298.037 302.263 298.507 302.634 299.091C303.012 299.671 303.242 300.291 303.325 300.953L302.289 300.354C302.244 299.996 302.119 299.658 301.914 299.34C301.716 299.019 301.451 298.762 301.118 298.57C300.843 298.411 300.629 298.365 300.475 298.432C300.328 298.495 300.254 298.655 300.254 298.914C300.254 299.106 300.309 299.292 300.417 299.473C300.526 299.654 300.661 299.824 300.82 299.983C300.987 300.146 301.22 300.354 301.521 300.609C301.918 300.942 302.238 301.233 302.481 301.484C302.73 301.739 302.941 302.039 303.114 302.382C303.293 302.722 303.383 303.099 303.383 303.512C303.383 304.022 303.213 304.338 302.874 304.46C302.541 304.585 302.09 304.484 301.521 304.155C300.862 303.774 300.328 303.289 299.918 302.698C299.515 302.111 299.272 301.475 299.189 300.792L300.254 301.407C300.286 301.758 300.414 302.101 300.638 302.437C300.862 302.774 301.156 303.047 301.521 303.257C301.783 303.409 301.988 303.449 302.135 303.379C302.289 303.305 302.365 303.147 302.365 302.903C302.365 302.689 302.308 302.485 302.193 302.293C302.078 302.101 301.934 301.922 301.761 301.756C301.588 301.582 301.351 301.372 301.051 301.124C300.667 300.799 300.353 300.515 300.11 300.271C299.874 300.031 299.669 299.747 299.496 299.418C299.33 299.086 299.247 298.72 299.247 298.321C299.247 297.804 299.413 297.482 299.746 297.357C300.085 297.228 300.552 297.335 301.147 297.678ZM307.138 306.223V307.32L306.466 306.932C305.903 306.607 305.475 306.205 305.18 305.725C304.892 305.241 304.748 304.633 304.748 303.902V300.91L303.99 300.472V299.398L304.748 299.835V298.317L305.852 298.954V300.472L307.128 301.209V302.284L305.852 301.547V304.561C305.852 304.908 305.906 305.18 306.015 305.376C306.13 305.575 306.329 305.756 306.61 305.919L307.138 306.223Z" fill="#757479"/>
<rect width="79.7927" height="79.7927" rx="39.8964" transform="matrix(0.866025 0.5 0 1 262.465 230.881)" stroke="#757479" stroke-width="0.923394" stroke-linecap="square"/>
<rect width="79.7927" height="79.7927" rx="39.8964" transform="matrix(0.866025 0.5 0 1 359.184 273.195)" fill="#F9F7F4"/>
<path d="M387.924 324.066C387.924 324.442 387.845 324.748 387.689 324.983C387.532 325.211 387.294 325.33 386.975 325.341C386.655 325.352 386.263 325.223 385.8 324.956C385.349 324.695 384.945 324.372 384.588 323.985C384.231 323.59 383.946 323.165 383.733 322.71C383.52 322.254 383.397 321.8 383.366 321.348L384.513 322.01C384.544 322.361 384.666 322.717 384.879 323.079C385.098 323.444 385.39 323.731 385.753 323.941C386.079 324.129 386.329 324.173 386.505 324.071C386.686 323.974 386.777 323.766 386.777 323.448C386.777 323.173 386.711 322.91 386.58 322.661C386.448 322.404 386.285 322.169 386.091 321.956C385.897 321.742 385.631 321.473 385.292 321.147C384.879 320.757 384.541 320.409 384.278 320.105C384.021 319.805 383.801 319.458 383.62 319.064C383.438 318.67 383.347 318.237 383.347 317.767C383.347 317.355 383.435 317.044 383.61 316.834C383.786 316.624 384.036 316.53 384.362 316.552C384.688 316.566 385.064 316.697 385.49 316.942C386.166 317.333 386.702 317.83 387.097 318.434C387.498 319.042 387.726 319.666 387.783 320.306L386.627 319.639C386.583 319.324 386.464 319.01 386.27 318.695C386.082 318.377 385.822 318.122 385.49 317.93C385.189 317.756 384.948 317.707 384.766 317.783C384.585 317.852 384.494 318.053 384.494 318.386C384.494 318.646 384.556 318.899 384.682 319.145C384.807 319.384 384.964 319.608 385.152 319.818C385.346 320.024 385.609 320.288 385.941 320.61C386.361 321.004 386.702 321.357 386.965 321.668C387.235 321.975 387.46 322.33 387.642 322.731C387.83 323.136 387.924 323.581 387.924 324.066ZM391.599 327.154V328.228L390.941 327.848C390.39 327.53 389.97 327.136 389.682 326.665C389.4 326.192 389.259 325.597 389.259 324.881V321.951L388.517 321.522V320.47L389.259 320.898V319.412L390.34 320.036V321.522L391.59 322.244V323.296L390.34 322.575V325.526C390.34 325.866 390.393 326.132 390.5 326.324C390.612 326.519 390.807 326.696 391.082 326.855L391.599 327.154ZM394.679 323.952C395.149 324.223 395.55 324.588 395.882 325.048C396.214 325.507 396.449 325.997 396.587 326.518V325.129L397.658 325.747V331.726L396.587 331.108V329.719C396.449 330.081 396.214 330.299 395.882 330.375C395.55 330.451 395.149 330.354 394.679 330.082C394.228 329.822 393.824 329.466 393.467 329.014C393.116 328.565 392.841 328.051 392.64 327.473C392.44 326.894 392.339 326.29 392.339 325.661C392.339 325.039 392.44 324.554 392.64 324.207C392.841 323.859 393.116 323.664 393.467 323.621C393.824 323.581 394.228 323.691 394.679 323.952ZM395.008 325.227C394.532 324.952 394.15 324.908 393.862 325.096C393.58 325.281 393.439 325.681 393.439 326.295C393.439 326.91 393.58 327.476 393.862 327.994C394.15 328.507 394.532 328.901 395.008 329.176C395.309 329.35 395.578 329.426 395.816 329.404C396.054 329.375 396.242 329.252 396.38 329.035C396.518 328.818 396.587 328.511 396.587 328.113C396.587 327.722 396.518 327.339 396.38 326.963C396.242 326.579 396.054 326.239 395.816 325.943C395.578 325.639 395.309 325.4 395.008 325.227ZM401.359 326.647C400.939 326.383 400.645 326.293 400.475 326.376C400.306 326.452 400.222 326.703 400.222 327.13V327.228L401.359 327.884V328.947L400.222 328.291V333.206L399.141 332.582V327.667L398.436 327.26V326.197L399.141 326.604V326.408C399.141 325.678 399.326 325.238 399.696 325.09C400.065 324.934 400.62 325.092 401.359 325.562V326.647ZM404.635 328.538C404.215 328.274 403.921 328.184 403.752 328.267C403.582 328.343 403.498 328.595 403.498 329.021V329.119L404.635 329.775V330.839L403.498 330.182V335.098L402.417 334.474V329.558L401.712 329.152V328.088L402.417 328.495V328.3C402.417 327.569 402.602 327.13 402.972 326.981C403.341 326.826 403.896 326.983 404.635 327.453V328.538ZM375.418 332.886L373.764 328.871L373.003 328.432V331.492L371.932 330.873V323.212L374.272 324.563C375.03 325.001 375.603 325.545 375.991 326.196C376.386 326.851 376.583 327.529 376.583 328.231C376.583 328.831 376.436 329.238 376.142 329.452C375.853 329.669 375.434 329.672 374.882 329.462L376.621 333.58L375.418 332.886ZM373.003 327.553L374.187 328.236C375.052 328.735 375.484 328.544 375.484 327.661C375.484 327.242 375.377 326.855 375.164 326.5C374.958 326.142 374.632 325.835 374.187 325.578L373.003 324.894V327.553ZM382.359 333.616C382.359 333.819 382.347 333.989 382.322 334.126L378.337 331.826C378.356 332.452 378.503 332.993 378.779 333.448C379.055 333.904 379.396 334.249 379.803 334.485C380.16 334.691 380.461 334.759 380.705 334.691C380.956 334.626 381.109 334.436 381.166 334.121L382.312 334.783C382.243 335.163 382.099 335.452 381.88 335.651C381.661 335.85 381.376 335.942 381.025 335.928C380.674 335.906 380.283 335.77 379.85 335.521C379.349 335.231 378.904 334.852 378.516 334.381C378.134 333.915 377.833 333.387 377.614 332.797C377.394 332.208 377.285 331.598 377.285 330.969C377.285 330.347 377.394 329.868 377.614 329.531C377.833 329.195 378.134 329.014 378.516 328.989C378.904 328.967 379.349 329.101 379.85 329.39C380.358 329.683 380.799 330.061 381.175 330.524C381.557 330.983 381.849 331.484 382.049 332.027C382.256 332.566 382.359 333.096 382.359 333.616ZM381.279 332.96C381.291 332.577 381.232 332.217 381.1 331.88C380.975 331.54 380.799 331.244 380.574 330.991C380.355 330.734 380.113 330.529 379.85 330.377C379.431 330.135 379.08 330.081 378.798 330.215C378.516 330.349 378.362 330.698 378.337 331.262L381.279 332.96ZM385.997 337.919V338.993L385.339 338.614C384.788 338.295 384.368 337.901 384.08 337.431C383.798 336.957 383.657 336.362 383.657 335.646V332.716L382.914 332.288V331.235L383.657 331.664V330.177L384.737 330.801V332.288L385.987 333.009V334.062L384.737 333.34V336.292C384.737 336.632 384.791 336.897 384.897 337.089C385.01 337.284 385.204 337.462 385.48 337.621L385.997 337.919ZM391.811 339.074C391.811 339.276 391.799 339.446 391.774 339.584L387.789 337.283C387.808 337.909 387.955 338.45 388.231 338.905C388.507 339.361 388.848 339.707 389.255 339.942C389.613 340.148 389.913 340.217 390.158 340.148C390.408 340.083 390.562 339.893 390.618 339.578L391.764 340.24C391.696 340.62 391.551 340.909 391.332 341.108C391.113 341.307 390.828 341.399 390.477 341.385C390.126 341.363 389.735 341.228 389.302 340.978C388.801 340.689 388.356 340.309 387.968 339.839C387.586 339.372 387.285 338.844 387.066 338.254C386.847 337.665 386.737 337.055 386.737 336.426C386.737 335.804 386.847 335.325 387.066 334.988C387.285 334.652 387.586 334.471 387.968 334.446C388.356 334.424 388.801 334.558 389.302 334.847C389.81 335.14 390.252 335.518 390.627 335.981C391.01 336.441 391.301 336.941 391.501 337.484C391.708 338.023 391.811 338.553 391.811 339.074ZM390.731 338.417C390.743 338.034 390.684 337.674 390.552 337.338C390.427 336.998 390.252 336.701 390.026 336.448C389.807 336.191 389.566 335.987 389.302 335.835C388.883 335.592 388.532 335.538 388.25 335.672C387.968 335.806 387.815 336.155 387.789 336.719L390.731 338.417ZM395.74 338.542C396.341 338.89 396.824 339.392 397.187 340.051C397.551 340.709 397.732 341.454 397.732 342.286V345.769L396.661 345.15V341.798C396.661 341.262 396.542 340.781 396.304 340.354C396.066 339.92 395.74 339.584 395.327 339.345C394.901 339.099 394.559 339.061 394.302 339.231C394.045 339.394 393.917 339.779 393.917 340.387V343.566L392.846 342.948V336.969L393.917 337.587V338.9C394.055 338.531 394.287 338.318 394.612 338.26C394.938 338.202 395.314 338.296 395.74 338.542ZM401.588 346.921V347.995L400.93 347.615C400.379 347.297 399.959 346.903 399.671 346.433C399.389 345.959 399.248 345.364 399.248 344.648V341.718L398.506 341.289V340.237L399.248 340.665V339.179L400.329 339.803V341.289L401.579 342.011V343.063L400.329 342.342V345.293C400.329 345.633 400.382 345.899 400.489 346.091C400.601 346.286 400.796 346.463 401.071 346.623L401.588 346.921ZM402.441 340.773C402.441 340.563 402.504 340.426 402.629 340.36C402.754 340.295 402.92 340.322 403.127 340.442C403.334 340.561 403.5 340.726 403.625 340.936C403.757 341.149 403.823 341.361 403.823 341.57C403.823 341.78 403.757 341.912 403.625 341.966C403.5 342.024 403.334 341.994 403.127 341.874C402.92 341.755 402.754 341.594 402.629 341.391C402.504 341.189 402.441 340.983 402.441 340.773ZM403.663 343.214V349.193L402.592 348.575V342.596L403.663 343.214ZM407.327 345.254C407.828 345.543 408.279 345.927 408.68 346.404C409.081 346.882 409.395 347.417 409.62 348.01C409.846 348.603 409.958 349.211 409.958 349.833C409.958 350.462 409.846 350.943 409.62 351.276C409.395 351.609 409.081 351.782 408.68 351.797C408.279 351.811 407.828 351.674 407.327 351.385C406.826 351.095 406.375 350.712 405.974 350.234C405.579 349.761 405.266 349.225 405.034 348.629C404.809 348.028 404.696 347.417 404.696 346.795C404.696 346.173 404.809 345.695 405.034 345.362C405.266 345.033 405.579 344.86 405.974 344.842C406.375 344.827 406.826 344.965 407.327 345.254ZM407.327 346.328C407.052 346.169 406.798 346.095 406.566 346.106C406.334 346.117 406.146 346.232 406.002 346.453C405.864 346.67 405.796 346.995 405.796 347.43C405.796 347.871 405.864 348.279 406.002 348.656C406.146 349.035 406.334 349.365 406.566 349.643C406.798 349.922 407.052 350.14 407.327 350.3C407.603 350.459 407.857 350.533 408.088 350.522C408.32 350.511 408.505 350.397 408.643 350.18C408.787 349.967 408.859 349.639 408.859 349.198C408.859 348.764 408.787 348.357 408.643 347.977C408.505 347.594 408.32 347.263 408.088 346.985C407.857 346.706 407.603 346.487 407.327 346.328ZM413.883 349.017C414.484 349.364 414.966 349.867 415.33 350.525C415.693 351.184 415.875 351.929 415.875 352.761V356.244L414.804 355.625V352.272C414.804 351.737 414.685 351.256 414.446 350.829C414.208 350.395 413.883 350.059 413.469 349.82C413.043 349.574 412.702 349.536 412.445 349.706C412.188 349.869 412.06 350.254 412.06 350.862V354.041L410.988 353.422V347.444L412.06 348.062V349.375C412.197 349.006 412.429 348.793 412.755 348.735C413.081 348.677 413.457 348.771 413.883 349.017Z" fill="#757479"/>
<rect width="79.7927" height="79.7927" rx="39.8964" transform="matrix(0.866025 0.5 0 1 359.184 273.195)" stroke="#757479" stroke-width="0.904234" stroke-linecap="square"/>
<rect width="79.7927" height="79.7927" rx="39.8964" transform="matrix(0.866025 0.5 0 1 173 220)" fill="#F9F7F4"/>
<path d="M199.124 270.464L201.42 271.789V272.756L198.052 270.811V263.142L199.124 263.761V270.464ZM207.076 272.741C207.076 272.944 207.064 273.114 207.039 273.252L203.05 270.949C203.069 271.575 203.216 272.116 203.492 272.573C203.768 273.029 204.11 273.375 204.517 273.61C204.875 273.816 205.176 273.885 205.421 273.816C205.671 273.751 205.825 273.561 205.881 273.246L207.029 273.909C206.96 274.289 206.816 274.579 206.596 274.778C206.377 274.977 206.092 275.069 205.74 275.055C205.389 275.033 204.997 274.897 204.564 274.647C204.063 274.358 203.617 273.978 203.229 273.507C202.846 273.04 202.545 272.511 202.325 271.921C202.106 271.331 201.996 270.72 201.996 270.09C201.996 269.468 202.106 268.988 202.325 268.651C202.545 268.314 202.846 268.133 203.229 268.108C203.617 268.086 204.063 268.22 204.564 268.51C205.072 268.803 205.515 269.182 205.891 269.645C206.273 270.105 206.565 270.606 206.766 271.15C206.973 271.689 207.076 272.22 207.076 272.741ZM205.994 272.084C206.007 271.7 205.947 271.34 205.816 271.003C205.69 270.663 205.515 270.366 205.289 270.112C205.069 269.855 204.828 269.65 204.564 269.498C204.144 269.256 203.793 269.201 203.511 269.335C203.229 269.469 203.075 269.819 203.05 270.384L205.994 272.084ZM209.815 271.541C210.423 271.892 210.909 272.354 211.273 272.926C211.643 273.495 211.869 274.103 211.95 274.751L210.934 274.164C210.89 273.813 210.768 273.482 210.567 273.17C210.373 272.855 210.112 272.604 209.786 272.415C209.517 272.26 209.307 272.215 209.156 272.28C209.012 272.341 208.94 272.499 208.94 272.752C208.94 272.941 208.993 273.123 209.1 273.301C209.206 273.478 209.338 273.645 209.495 273.801C209.658 273.96 209.887 274.164 210.181 274.414C210.57 274.74 210.884 275.026 211.122 275.272C211.367 275.522 211.574 275.816 211.743 276.152C211.919 276.485 212.007 276.855 212.007 277.26C212.007 277.76 211.84 278.07 211.508 278.189C211.182 278.312 210.74 278.213 210.181 277.89C209.535 277.517 209.012 277.041 208.61 276.462C208.215 275.886 207.977 275.263 207.895 274.594L208.94 275.196C208.971 275.54 209.096 275.877 209.316 276.207C209.535 276.536 209.824 276.804 210.181 277.011C210.439 277.159 210.639 277.199 210.784 277.13C210.934 277.058 211.009 276.902 211.009 276.663C211.009 276.453 210.953 276.254 210.84 276.065C210.727 275.877 210.586 275.702 210.417 275.539C210.247 275.368 210.015 275.162 209.72 274.919C209.344 274.601 209.037 274.322 208.799 274.083C208.566 273.848 208.366 273.569 208.196 273.247C208.033 272.921 207.952 272.562 207.952 272.171C207.952 271.664 208.115 271.349 208.441 271.226C208.773 271.099 209.231 271.204 209.815 271.541ZM214.785 274.411C215.393 274.762 215.879 275.223 216.243 275.796C216.613 276.364 216.839 276.972 216.92 277.621L215.904 277.034C215.86 276.683 215.738 276.351 215.537 276.04C215.343 275.725 215.083 275.473 214.757 275.285C214.487 275.129 214.277 275.084 214.126 275.149C213.982 275.211 213.91 275.368 213.91 275.622C213.91 275.81 213.963 275.993 214.07 276.17C214.176 276.348 214.308 276.514 214.465 276.67C214.628 276.829 214.857 277.034 215.152 277.284C215.541 277.61 215.854 277.896 216.092 278.142C216.337 278.392 216.544 278.685 216.713 279.022C216.889 279.355 216.977 279.724 216.977 280.13C216.977 280.63 216.811 280.939 216.478 281.059C216.152 281.182 215.71 281.082 215.152 280.76C214.506 280.387 213.982 279.911 213.581 279.332C213.185 278.756 212.947 278.133 212.866 277.463L213.91 278.066C213.941 278.41 214.067 278.747 214.286 279.076C214.506 279.406 214.794 279.674 215.152 279.88C215.409 280.029 215.609 280.068 215.754 280C215.904 279.927 215.98 279.771 215.98 279.532C215.98 279.322 215.923 279.123 215.81 278.935C215.697 278.747 215.556 278.571 215.387 278.408C215.218 278.238 214.985 278.032 214.691 277.789C214.314 277.47 214.007 277.192 213.769 276.953C213.537 276.717 213.336 276.438 213.167 276.116C213.004 275.79 212.922 275.432 212.922 275.041C212.922 274.534 213.085 274.219 213.411 274.096C213.744 273.969 214.201 274.074 214.785 274.411ZM196.496 283.251L193.692 281.632L193.184 283.001L192.036 282.338L194.482 276.201L195.715 276.912L198.151 285.869L197.004 285.206L196.496 283.251ZM196.195 282.121L195.094 277.901L193.993 280.85L196.195 282.121ZM201.027 281.467C201.497 281.739 201.898 282.105 202.231 282.565C202.563 283.024 202.795 283.513 202.927 284.031V280.587L204.009 281.212V289.251L202.927 288.626V287.236C202.795 287.601 202.563 287.822 202.231 287.898C201.898 287.974 201.497 287.877 201.027 287.605C200.575 287.344 200.171 286.988 199.813 286.535C199.462 286.086 199.186 285.572 198.985 284.992C198.785 284.413 198.684 283.808 198.684 283.178C198.684 282.555 198.785 282.07 198.985 281.723C199.186 281.375 199.462 281.179 199.813 281.136C200.171 281.096 200.575 281.207 201.027 281.467ZM201.356 282.744C200.879 282.469 200.497 282.425 200.208 282.613C199.926 282.798 199.785 283.198 199.785 283.814C199.785 284.429 199.926 284.996 200.208 285.514C200.497 286.028 200.879 286.423 201.356 286.698C201.657 286.872 201.927 286.948 202.165 286.926C202.403 286.897 202.591 286.774 202.729 286.557C202.867 286.339 202.936 286.032 202.936 285.633C202.936 285.242 202.867 284.858 202.729 284.482C202.591 284.098 202.403 283.758 202.165 283.461C201.927 283.157 201.657 282.918 201.356 282.744ZM211.778 287.653C212.392 288.008 212.882 288.515 213.245 289.174C213.615 289.836 213.8 290.584 213.8 291.417V294.904L212.728 294.285V290.928C212.728 290.407 212.615 289.939 212.389 289.527C212.163 289.107 211.853 288.783 211.458 288.554C211.038 288.312 210.702 288.274 210.451 288.44C210.207 288.603 210.084 288.982 210.084 289.575V292.758L209.012 292.139V288.783C209.012 288.261 208.899 287.794 208.673 287.381C208.447 286.961 208.137 286.637 207.742 286.409C207.322 286.166 206.986 286.128 206.735 286.295C206.491 286.458 206.368 286.836 206.368 287.43V290.613L205.296 289.994V284.008L206.368 284.627V285.877C206.5 285.518 206.72 285.312 207.027 285.257C207.334 285.203 207.695 285.295 208.109 285.534C208.542 285.784 208.915 286.123 209.228 286.55C209.548 286.981 209.78 287.47 209.924 288.017C210.075 287.655 210.316 287.443 210.649 287.381C210.981 287.32 211.358 287.41 211.778 287.653ZM214.902 287.816C214.902 287.606 214.965 287.469 215.09 287.403C215.216 287.338 215.382 287.365 215.589 287.485C215.796 287.604 215.962 287.769 216.087 287.979C216.219 288.193 216.285 288.405 216.285 288.615C216.285 288.825 216.219 288.957 216.087 289.011C215.962 289.069 215.796 289.038 215.589 288.919C215.382 288.799 215.216 288.638 215.09 288.435C214.965 288.233 214.902 288.026 214.902 287.816ZM216.125 290.26V296.246L215.053 295.627V289.641L216.125 290.26ZM220.32 292.585C220.923 292.932 221.405 293.436 221.769 294.095C222.133 294.754 222.315 295.5 222.315 296.333V299.82L221.242 299.2V295.844C221.242 295.308 221.123 294.826 220.885 294.399C220.647 293.964 220.32 293.628 219.906 293.389C219.48 293.143 219.138 293.104 218.881 293.275C218.624 293.438 218.495 293.823 218.495 294.432V297.614L217.423 296.995V291.01L218.495 291.629V292.943C218.633 292.574 218.865 292.36 219.192 292.302C219.518 292.245 219.894 292.339 220.32 292.585Z" fill="#757479"/>
<rect width="79.7927" height="79.7927" rx="39.8964" transform="matrix(0.866025 0.5 0 1 173 220)" stroke="#757479" stroke-width="0.905247" stroke-linecap="square"/>
<rect width="79.7927" height="79.7927" rx="39.8964" transform="matrix(0.866025 0.5 0 1 239.494 315.51)" fill="#F9F7F4"/>
<path d="M269.265 362V369.252L268.225 368.652V363.216L266.409 367.603L265.506 367.082L263.68 360.592V366.028L262.65 365.433V358.182L263.897 358.902L265.976 365.892L268.018 361.281L269.265 362ZM272.781 365.46C273.263 365.738 273.696 366.107 274.082 366.566C274.467 367.025 274.769 367.54 274.985 368.11C275.202 368.68 275.311 369.265 275.311 369.863C275.311 370.468 275.202 370.931 274.985 371.251C274.769 371.571 274.467 371.737 274.082 371.751C273.696 371.765 273.263 371.633 272.781 371.355C272.299 371.077 271.865 370.708 271.48 370.249C271.1 369.793 270.799 369.279 270.576 368.705C270.359 368.127 270.251 367.54 270.251 366.942C270.251 366.343 270.359 365.884 270.576 365.564C270.799 365.248 271.1 365.081 271.48 365.063C271.865 365.05 272.299 365.182 272.781 365.46ZM272.781 366.493C272.516 366.34 272.272 366.269 272.049 366.279C271.826 366.289 271.645 366.401 271.507 366.613C271.374 366.822 271.308 367.135 271.308 367.552C271.308 367.976 271.374 368.369 271.507 368.731C271.645 369.096 271.826 369.413 272.049 369.68C272.272 369.948 272.516 370.159 272.781 370.312C273.046 370.465 273.29 370.536 273.513 370.525C273.736 370.515 273.913 370.405 274.046 370.197C274.184 369.992 274.254 369.677 274.254 369.253C274.254 368.835 274.184 368.444 274.046 368.079C273.913 367.71 273.736 367.392 273.513 367.124C273.29 366.856 273.046 366.646 272.781 366.493ZM277.331 369.287C277.5 369.009 277.741 368.852 278.054 368.817C278.367 368.776 278.729 368.873 279.138 369.11V370.403L278.831 370.226C278.379 369.965 278.015 369.883 277.738 369.981C277.467 370.075 277.331 370.414 277.331 370.998V373.909L276.301 373.314V367.565L277.331 368.16V369.287ZM284.536 374.918C284.536 375.113 284.524 375.276 284.5 375.408L280.669 373.197C280.687 373.798 280.829 374.318 281.094 374.756C281.359 375.195 281.687 375.527 282.079 375.753C282.422 375.951 282.711 376.017 282.946 375.951C283.187 375.888 283.335 375.706 283.389 375.403L284.491 376.04C284.425 376.405 284.286 376.683 284.076 376.874C283.865 377.066 283.591 377.154 283.253 377.14C282.916 377.12 282.539 376.989 282.124 376.749C281.642 376.471 281.214 376.106 280.841 375.654C280.473 375.205 280.184 374.697 279.973 374.13C279.763 373.563 279.657 372.977 279.657 372.372C279.657 371.774 279.763 371.313 279.973 370.99C280.184 370.666 280.473 370.492 280.841 370.468C281.214 370.447 281.642 370.576 282.124 370.854C282.612 371.136 283.036 371.499 283.398 371.945C283.765 372.386 284.045 372.868 284.238 373.39C284.437 373.908 284.536 374.417 284.536 374.918ZM283.497 374.287C283.509 373.918 283.452 373.572 283.326 373.249C283.205 372.922 283.036 372.637 282.82 372.393C282.609 372.146 282.377 371.95 282.124 371.804C281.72 371.571 281.383 371.518 281.112 371.647C280.841 371.776 280.693 372.111 280.669 372.654L283.497 374.287ZM256.127 368.301L257.961 375.453L259.804 370.424L260.925 371.071L258.621 377.107L257.301 376.345L255.006 367.654L256.127 368.301ZM261.544 371.376C261.544 371.174 261.604 371.042 261.725 370.98C261.845 370.917 262.005 370.943 262.204 371.058C262.402 371.173 262.562 371.331 262.682 371.533C262.809 371.738 262.872 371.941 262.872 372.143C262.872 372.345 262.809 372.472 262.682 372.524C262.562 372.579 262.402 372.55 262.204 372.435C262.005 372.32 261.845 372.166 261.725 371.971C261.604 371.776 261.544 371.578 261.544 371.376ZM262.719 373.724V379.473L261.689 378.878V373.129L262.719 373.724ZM265.601 375.315C266.185 375.652 266.652 376.095 267.001 376.645C267.357 377.191 267.573 377.775 267.652 378.398L266.676 377.834C266.634 377.497 266.516 377.179 266.323 376.88C266.137 376.577 265.887 376.335 265.574 376.154C265.314 376.005 265.113 375.961 264.968 376.024C264.83 376.083 264.76 376.234 264.76 376.478C264.76 376.659 264.812 376.834 264.914 377.005C265.016 377.175 265.143 377.335 265.293 377.485C265.45 377.638 265.67 377.834 265.953 378.074C266.326 378.387 266.628 378.662 266.857 378.898C267.092 379.138 267.29 379.42 267.453 379.744C267.622 380.064 267.706 380.418 267.706 380.808C267.706 381.288 267.546 381.585 267.227 381.7C266.914 381.818 266.489 381.722 265.953 381.413C265.333 381.055 264.83 380.597 264.444 380.041C264.065 379.488 263.836 378.89 263.757 378.246L264.76 378.825C264.79 379.156 264.911 379.479 265.122 379.796C265.333 380.112 265.61 380.37 265.953 380.568C266.2 380.71 266.393 380.749 266.531 380.683C266.676 380.613 266.748 380.463 266.748 380.234C266.748 380.032 266.694 379.841 266.586 379.66C266.477 379.479 266.342 379.311 266.179 379.154C266.016 378.991 265.793 378.792 265.51 378.559C265.149 378.253 264.854 377.986 264.625 377.756C264.402 377.53 264.209 377.262 264.046 376.953C263.89 376.64 263.812 376.295 263.812 375.92C263.812 375.433 263.968 375.13 264.281 375.012C264.601 374.89 265.04 374.991 265.601 375.315ZM268.594 375.447C268.594 375.245 268.655 375.113 268.775 375.05C268.896 374.988 269.055 375.014 269.254 375.128C269.453 375.243 269.612 375.401 269.733 375.603C269.859 375.808 269.923 376.012 269.923 376.213C269.923 376.415 269.859 376.542 269.733 376.594C269.612 376.65 269.453 376.62 269.254 376.506C269.055 376.391 268.896 376.236 268.775 376.041C268.655 375.847 268.594 375.648 268.594 375.447ZM269.769 377.794V383.543L268.739 382.948V377.199L269.769 377.794ZM273.871 380.089C274.305 380.34 274.69 380.681 275.027 381.112C275.371 381.547 275.639 382.042 275.832 382.599C276.024 383.155 276.121 383.732 276.121 384.331C276.121 384.936 276.024 385.405 275.832 385.739C275.639 386.073 275.371 386.259 275.027 386.297C274.69 386.339 274.305 386.235 273.871 385.984C273.419 385.723 273.033 385.372 272.714 384.93C272.395 384.489 272.172 384.019 272.046 383.522V384.857L271.016 384.263V376.542L272.046 377.137V380.444C272.172 380.093 272.395 379.881 272.714 379.808C273.033 379.735 273.419 379.828 273.871 380.089ZM273.555 380.95C273.265 380.783 273.006 380.714 272.777 380.741C272.549 380.762 272.368 380.881 272.235 381.096C272.103 381.305 272.037 381.597 272.037 381.973C272.037 382.355 272.103 382.727 272.235 383.089C272.368 383.451 272.549 383.778 272.777 384.07C273.006 384.355 273.265 384.581 273.555 384.748C274.012 385.012 274.38 385.057 274.657 384.884C274.934 384.703 275.073 384.317 275.073 383.725C275.073 383.141 274.934 382.599 274.657 382.098C274.38 381.597 274.012 381.214 273.555 380.95ZM276.968 380.281C276.968 380.08 277.029 379.947 277.149 379.885C277.27 379.822 277.429 379.848 277.628 379.963C277.827 380.078 277.986 380.236 278.107 380.438C278.233 380.643 278.297 380.846 278.297 381.048C278.297 381.25 278.233 381.377 278.107 381.429C277.986 381.485 277.827 381.455 277.628 381.34C277.429 381.226 277.27 381.071 277.149 380.876C277.029 380.681 276.968 380.483 276.968 380.281ZM278.143 382.629V388.378L277.113 387.783V382.034L278.143 382.629ZM280.42 381.971V389.692L279.389 389.097V381.377L280.42 381.971ZM281.521 382.91C281.521 382.708 281.582 382.576 281.702 382.514C281.823 382.451 281.982 382.477 282.181 382.592C282.38 382.707 282.54 382.865 282.66 383.067C282.786 383.272 282.85 383.475 282.85 383.677C282.85 383.879 282.786 384.006 282.66 384.058C282.54 384.113 282.38 384.084 282.181 383.969C281.982 383.854 281.823 383.7 281.702 383.505C281.582 383.31 281.521 383.112 281.521 382.91ZM282.696 385.258V391.007L281.666 390.412V384.663L282.696 385.258ZM286.446 392.138V393.171L285.813 392.806C285.283 392.5 284.879 392.121 284.602 391.669C284.331 391.213 284.196 390.641 284.196 389.953V387.135L283.482 386.723V385.711L284.196 386.123V384.694L285.235 385.294V386.723L286.437 387.417V388.429L285.235 387.735V390.573C285.235 390.9 285.286 391.156 285.388 391.34C285.497 391.528 285.684 391.698 285.949 391.851L286.446 392.138ZM287.998 388.319L289.489 393.405L290.871 389.977L292.019 390.64L289.01 397.385L287.862 396.723L288.938 394.474L286.841 387.651L287.998 388.319Z" fill="#757479"/>
<rect width="79.7927" height="79.7927" rx="39.8964" transform="matrix(0.866025 0.5 0 1 239.494 315.51)" stroke="#757479" stroke-width="0.869466" stroke-linecap="square"/>
<rect width="79.7927" height="79.7927" rx="39.8964" transform="matrix(0.866025 0.5 0 1 72 251)" fill="#F9F7F4"/>
<mask id="mask0_884_75860" style="mask-type:alpha" maskUnits="userSpaceOnUse" x="89" y="281" width="36" height="60">
<rect width="39.7572" height="39.7572" transform="matrix(0.866025 0.5 0 1 89.5703 281.182)" fill="#D9D9D9"/>
</mask>
<g mask="url(#mask0_884_75860)">
<path d="M114.353 324.066C114.975 324.425 115.501 324.466 115.931 324.19C116.362 323.914 116.577 323.417 116.577 322.699C116.577 321.982 116.362 321.25 115.931 320.504C115.501 319.759 114.975 319.207 114.353 318.848C113.731 318.489 113.193 318.427 112.739 318.662C112.285 318.896 112.058 319.372 112.058 320.09C112.058 320.808 112.285 321.56 112.739 322.347C113.193 323.134 113.731 323.707 114.353 324.066ZM114.317 329.222C115.106 329.678 115.824 329.898 116.469 329.885C117.115 329.871 117.665 329.636 118.119 329.181C117.497 328.435 116.876 327.786 116.254 327.234C115.632 326.682 114.987 326.213 114.317 325.826C113.648 325.44 112.996 325.16 112.363 324.987C111.729 324.815 111.113 324.749 110.516 324.791C110.97 325.771 111.514 326.637 112.147 327.389C112.781 328.142 113.504 328.753 114.317 329.222ZM106.786 327.565C103.486 324.777 100.748 321.036 98.5723 316.342C96.3965 311.649 95.3086 307.079 95.3086 302.634V292.737L106.786 294.393L118.262 305.989V317.171C117.928 316.784 117.569 316.404 117.186 316.032C116.804 315.659 116.445 315.348 116.111 315.1V306.486L106.786 297.126L97.4605 295.718V303.877C97.4605 305.975 97.7534 308.077 98.3392 310.182C98.925 312.287 99.6722 314.272 100.581 316.135C101.489 317.999 102.494 319.69 103.593 321.208C104.693 322.727 105.757 323.976 106.786 324.956C106.929 325.371 107.144 325.868 107.431 326.447C107.718 327.027 107.957 327.483 108.148 327.814C107.933 327.828 107.706 327.8 107.467 327.731C107.228 327.662 107.001 327.607 106.786 327.565ZM114.425 331.976C112.56 330.899 110.97 329.215 109.655 326.924C108.34 324.632 107.682 322.437 107.682 320.339C107.682 318.185 108.34 316.722 109.655 315.949C110.97 315.176 112.56 315.328 114.425 316.404C116.266 317.467 117.85 319.148 119.177 321.447C120.504 323.745 121.168 325.971 121.168 328.125C121.168 330.223 120.504 331.655 119.177 332.421C117.85 333.187 116.266 333.039 114.425 331.976Z" fill="#757479"/>
</g>
<rect width="79.7927" height="79.7927" rx="39.8964" transform="matrix(0.866025 0.5 0 1 72 251)" stroke="#757479" stroke-width="0.869466" stroke-linecap="square"/>
<rect width="79.7927" height="79.7927" rx="39.8964" transform="matrix(0.866025 0.5 0 1 94 359)" fill="#F9F7F4"/>
<mask id="mask1_884_75860" style="mask-type:alpha" maskUnits="userSpaceOnUse" x="112" y="390" width="34" height="58">
<rect width="37.4478" height="37.4478" transform="matrix(0.866025 0.5 0 1 112.57 390.914)" fill="#D9D9D9"/>
</mask>
<g mask="url(#mask1_884_75860)">
<path d="M115.273 425.241V397.155L128.448 404.762V411.198L142.299 419.195V440.844L115.273 425.241ZM117.3 424.071L126.422 429.337V425.241L117.3 419.975V424.071ZM117.3 417.635L126.422 422.901V418.805L117.3 413.539V417.635ZM117.3 411.198L126.422 416.464V412.368L117.3 407.102V411.198ZM117.3 404.762L126.422 410.028V405.932L117.3 400.666V404.762ZM128.448 430.507L140.272 437.334V420.365L128.448 413.539V430.507ZM131.151 421.535V419.195L136.725 422.413V424.754L131.151 421.535ZM131.151 427.972V425.631L136.725 428.849V431.19L131.151 427.972Z" fill="#757479"/>
</g>
<rect width="79.7927" height="79.7927" rx="39.8964" transform="matrix(0.866025 0.5 0 1 94 359)" stroke="#757479" stroke-width="0.869466" stroke-linecap="square"/>
<rect width="79.7927" height="79.7927" rx="39.8964" transform="matrix(0.866025 0.5 0 1 204 403)" fill="#F9F7F4"/>
<mask id="mask2_884_75860" style="mask-type:alpha" maskUnits="userSpaceOnUse" x="221" y="432" width="36" height="62">
<rect width="40.1214" height="40.1214" transform="matrix(0.866025 0.5 0 1 221.41 432.909)" fill="#D9D9D9"/>
</mask>
<g mask="url(#mask2_884_75860)">
<path d="M226.478 464.379V468.433L251.09 482.643V478.589L226.478 464.379ZM232.016 449.062V444.883C232.016 444.214 232.233 443.754 232.667 443.503C233.102 443.253 233.608 443.294 234.188 443.629L243.345 448.916C243.924 449.25 244.43 449.793 244.865 450.546C245.299 451.298 245.516 452.008 245.516 452.677V456.856L251.09 460.074C251.669 460.409 252.176 460.952 252.61 461.704C253.045 462.457 253.262 463.167 253.262 463.836V483.896C253.262 484.565 253.045 485.025 252.61 485.276C252.176 485.526 251.669 485.485 251.09 485.15L226.478 470.941C225.899 470.606 225.392 470.063 224.958 469.311C224.524 468.558 224.307 467.848 224.307 467.179V447.119C224.307 446.45 224.524 445.99 224.958 445.739C225.392 445.489 225.899 445.53 226.478 445.865L232.016 449.062ZM226.478 459.865L251.09 474.075V462.582L245.516 459.364V462.498L243.345 461.245V458.11L234.188 452.823V455.958L232.016 454.704V451.57L226.478 448.372V459.865ZM234.188 450.316L243.345 455.603V451.423L234.188 446.136V450.316Z" fill="#757479"/>
</g>
<rect width="79.7927" height="79.7927" rx="39.8964" transform="matrix(0.866025 0.5 0 1 204 403)" stroke="#757479" stroke-width="0.869466" stroke-linecap="square"/>
<rect width="79.7927" height="79.7927" rx="39.8964" transform="matrix(0.866025 0.5 0 1 327.75 348.152)" fill="#F9F7F4"/>
<path d="M359.329 395.988V403.367L358.271 402.757V397.225L356.423 401.69L355.504 401.159L353.647 394.555V400.086L352.598 399.481V392.102L353.867 392.835L355.982 399.948L358.06 395.256L359.329 395.988ZM362.907 399.509C363.397 399.792 363.839 400.167 364.231 400.634C364.623 401.101 364.93 401.625 365.15 402.205C365.371 402.786 365.481 403.38 365.481 403.989C365.481 404.605 365.371 405.075 365.15 405.401C364.93 405.727 364.623 405.896 364.231 405.911C363.839 405.925 363.397 405.79 362.907 405.507C362.417 405.224 361.975 404.849 361.583 404.382C361.197 403.918 360.89 403.394 360.663 402.81C360.443 402.223 360.332 401.625 360.332 401.016C360.332 400.407 360.443 399.94 360.663 399.615C360.89 399.293 361.197 399.123 361.583 399.105C361.975 399.091 362.417 399.225 362.907 399.509ZM362.907 400.56C362.637 400.404 362.389 400.331 362.162 400.342C361.935 400.353 361.751 400.466 361.61 400.682C361.476 400.894 361.408 401.213 361.408 401.637C361.408 402.069 361.476 402.469 361.61 402.837C361.751 403.209 361.935 403.531 362.162 403.803C362.389 404.076 362.637 404.29 362.907 404.445C363.177 404.601 363.425 404.674 363.652 404.663C363.878 404.653 364.059 404.541 364.194 404.329C364.335 404.12 364.406 403.8 364.406 403.368C364.406 402.943 364.335 402.545 364.194 402.173C364.059 401.798 363.878 401.474 363.652 401.202C363.425 400.929 363.177 400.715 362.907 400.56ZM367.537 403.403C367.709 403.12 367.954 402.961 368.273 402.925C368.592 402.883 368.959 402.982 369.376 403.222V404.539L369.064 404.358C368.604 404.093 368.233 404.01 367.951 404.109C367.675 404.204 367.537 404.55 367.537 405.144V408.106L366.489 407.501V401.651L367.537 402.256V403.403ZM374.869 409.133C374.869 409.331 374.857 409.498 374.833 409.632L370.934 407.381C370.952 407.993 371.096 408.523 371.366 408.968C371.636 409.414 371.97 409.752 372.368 409.982C372.718 410.184 373.012 410.251 373.251 410.184C373.496 410.12 373.646 409.935 373.702 409.627L374.823 410.274C374.756 410.646 374.615 410.929 374.4 411.124C374.186 411.318 373.907 411.409 373.564 411.394C373.22 411.373 372.837 411.241 372.414 410.996C371.924 410.713 371.489 410.342 371.109 409.882C370.735 409.425 370.441 408.908 370.226 408.331C370.011 407.755 369.904 407.158 369.904 406.542C369.904 405.934 370.011 405.465 370.226 405.136C370.441 404.807 370.735 404.63 371.109 404.605C371.489 404.584 371.924 404.715 372.414 404.998C372.911 405.284 373.343 405.654 373.711 406.107C374.085 406.557 374.37 407.047 374.566 407.578C374.768 408.105 374.869 408.623 374.869 409.133ZM373.812 408.491C373.824 408.116 373.766 407.763 373.637 407.434C373.515 407.102 373.343 406.811 373.122 406.564C372.908 406.312 372.672 406.112 372.414 405.964C372.004 405.727 371.66 405.674 371.385 405.805C371.109 405.936 370.959 406.277 370.934 406.829L373.812 408.491ZM351.265 405.142C352.062 405.602 352.724 406.218 353.252 406.989C353.779 407.761 354.134 408.599 354.318 409.505L353.206 408.863C353.052 408.322 352.807 407.823 352.47 407.366C352.139 406.906 351.731 406.536 351.247 406.256C350.861 406.034 350.515 405.943 350.208 405.986C349.908 406.032 349.669 406.209 349.491 406.517C349.319 406.821 349.233 407.246 349.233 407.791C349.233 408.329 349.319 408.852 349.491 409.362C349.669 409.868 349.908 410.318 350.208 410.71C350.515 411.107 350.861 411.416 351.247 411.639C351.731 411.919 352.139 412.023 352.47 411.953C352.807 411.878 353.052 411.662 353.206 411.305L354.318 411.947C354.134 412.641 353.779 413.069 353.252 413.232C352.724 413.388 352.062 413.235 351.265 412.775C350.653 412.421 350.11 411.949 349.638 411.358C349.166 410.76 348.801 410.1 348.544 409.378C348.286 408.649 348.158 407.913 348.158 407.17C348.158 406.426 348.286 405.842 348.544 405.418C348.801 404.986 349.166 404.744 349.638 404.69C350.11 404.637 350.653 404.788 351.265 405.142ZM356.412 407.826V415.683L355.364 415.078V407.221L356.412 407.826ZM357.533 408.782C357.533 408.576 357.595 408.442 357.717 408.378C357.84 408.315 358.002 408.341 358.205 408.458C358.407 408.575 358.569 408.736 358.692 408.941C358.821 409.15 358.885 409.357 358.885 409.562C358.885 409.767 358.821 409.897 358.692 409.95C358.569 410.006 358.407 409.976 358.205 409.859C358.002 409.743 357.84 409.585 357.717 409.387C357.595 409.189 357.533 408.987 357.533 408.782ZM358.729 411.171V417.021L357.681 416.415V410.565L358.729 411.171ZM364.705 417.265C364.705 417.463 364.693 417.629 364.668 417.764L360.77 415.513C360.788 416.125 360.932 416.654 361.202 417.1C361.471 417.546 361.806 417.884 362.204 418.114C362.553 418.316 362.848 418.383 363.087 418.316C363.332 418.252 363.482 418.066 363.537 417.758L364.659 418.406C364.592 418.778 364.451 419.061 364.236 419.255C364.021 419.45 363.743 419.54 363.399 419.526C363.056 419.505 362.673 419.372 362.25 419.128C361.76 418.845 361.324 418.473 360.944 418.013C360.57 417.557 360.276 417.04 360.062 416.463C359.847 415.886 359.74 415.29 359.74 414.674C359.74 414.065 359.847 413.596 360.062 413.267C360.276 412.938 360.57 412.761 360.944 412.736C361.324 412.715 361.76 412.846 362.25 413.129C362.746 413.416 363.179 413.786 363.546 414.239C363.92 414.688 364.205 415.178 364.401 415.709C364.604 416.236 364.705 416.755 364.705 417.265ZM363.648 416.622C363.66 416.247 363.602 415.895 363.473 415.566C363.35 415.233 363.179 414.943 362.958 414.695C362.743 414.444 362.507 414.244 362.25 414.095C361.839 413.858 361.496 413.805 361.22 413.936C360.944 414.067 360.794 414.409 360.77 414.961L363.648 416.622ZM368.549 416.745C369.137 417.084 369.609 417.576 369.965 418.22C370.32 418.865 370.498 419.594 370.498 420.408V423.816L369.45 423.211V419.93C369.45 419.406 369.334 418.935 369.101 418.518C368.868 418.093 368.549 417.764 368.144 417.53C367.728 417.29 367.393 417.253 367.142 417.419C366.891 417.578 366.765 417.955 366.765 418.55V421.66L365.717 421.055V415.205L366.765 415.81V417.095C366.9 416.734 367.127 416.525 367.446 416.469C367.764 416.412 368.132 416.504 368.549 416.745ZM374.271 424.943V425.994L373.627 425.622C373.088 425.311 372.677 424.925 372.395 424.465C372.119 424.001 371.982 423.419 371.982 422.719V419.852L371.255 419.433V418.403L371.982 418.822V417.368L373.039 417.978V419.433L374.262 420.139V421.168L373.039 420.462V423.35C373.039 423.683 373.091 423.943 373.195 424.131C373.306 424.322 373.496 424.495 373.765 424.651L374.271 424.943ZM376.917 421.597C377.512 421.941 377.987 422.392 378.342 422.951C378.704 423.507 378.925 424.101 379.004 424.735L378.011 424.161C377.968 423.818 377.849 423.494 377.653 423.19C377.463 422.882 377.208 422.636 376.89 422.452C376.626 422.3 376.421 422.256 376.273 422.319C376.133 422.379 376.062 422.533 376.062 422.781C376.062 422.965 376.114 423.144 376.218 423.317C376.323 423.491 376.451 423.654 376.604 423.806C376.764 423.961 376.988 424.161 377.276 424.406C377.656 424.724 377.962 425.004 378.195 425.244C378.434 425.488 378.637 425.775 378.802 426.104C378.974 426.43 379.059 426.791 379.059 427.187C379.059 427.676 378.897 427.978 378.572 428.095C378.253 428.215 377.821 428.118 377.276 427.803C376.644 427.439 376.133 426.973 375.74 426.407C375.354 425.844 375.121 425.235 375.041 424.581L376.062 425.17C376.093 425.506 376.215 425.835 376.43 426.157C376.644 426.479 376.926 426.741 377.276 426.943C377.527 427.088 377.723 427.127 377.864 427.06C378.011 426.989 378.085 426.837 378.085 426.603C378.085 426.398 378.03 426.203 377.919 426.019C377.809 425.835 377.671 425.664 377.506 425.504C377.34 425.338 377.113 425.136 376.825 424.899C376.457 424.588 376.157 424.315 375.924 424.082C375.697 423.852 375.501 423.579 375.336 423.264C375.176 422.946 375.097 422.595 375.097 422.213C375.097 421.718 375.256 421.41 375.575 421.289C375.9 421.166 376.347 421.268 376.917 421.597Z" fill="#757479"/>
<rect width="79.7927" height="79.7927" rx="39.8964" transform="matrix(0.866025 0.5 0 1 327.75 348.152)" stroke="#757479" stroke-width="0.88476" stroke-linecap="square"/>
<ellipse opacity="0.5" cx="546.364" cy="216.734" rx="107.599" ry="187.997" transform="rotate(-30 546.364 216.734)" stroke="#587E85" stroke-width="2.41796" stroke-linejoin="bevel" stroke-dasharray="6.04 6.04"/>
<ellipse cx="556.96" cy="210.724" rx="83.4197" ry="145.682" transform="rotate(-30 556.96 210.724)" fill="#A662A7"/>
<ellipse cx="544.393" cy="217.978" rx="83.4197" ry="145.682" transform="rotate(-30 544.393 217.978)" fill="#902F57"/>
<ellipse cx="531.829" cy="225.232" rx="83.4197" ry="145.682" transform="rotate(-30 531.829 225.232)" fill="#D81D56"/>
<ellipse cx="519.266" cy="232.485" rx="83.4197" ry="145.682" transform="rotate(-30 519.266 232.485)" fill="#A9CF3D"/>
<path d="M577.392 199.21C597.4 233.864 607.431 269.82 607.538 299.893C607.646 330.015 597.823 353.902 578.539 365.035C559.256 376.168 533.658 372.732 507.625 357.578C481.634 342.449 455.511 315.784 435.503 281.129C415.496 246.475 405.465 210.519 405.358 180.446C405.25 150.324 415.073 126.437 434.357 115.304C453.64 104.171 479.238 107.607 505.271 122.761C531.262 137.89 557.385 164.555 577.392 199.21Z" fill="white" stroke="#587E85" stroke-width="3"/>
<path d="M505.704 201.494L482.452 166.565L480.555 165.386V222.251L493.761 230.451V201.191L505.704 219.435V201.494Z" fill="#A9CF3D"/>
<path d="M536.078 198.449L512.992 204.583V222.513L524.842 218.996V248.34L538.048 256.54V199.672L536.078 198.449Z" fill="#A9CF3D"/>
<path d="M491.036 246.91V259.848L488.789 258.55V249.523L485.915 256.891L483.957 255.761L481.084 245.112V254.102L478.82 252.795V239.857L481.565 241.442L484.968 253.138L488.307 245.334L491.036 246.91ZM492.829 247.667C492.829 247.247 492.957 246.981 493.214 246.87C493.471 246.746 493.808 246.805 494.225 247.046C494.643 247.287 494.98 247.617 495.237 248.037C495.493 248.445 495.622 248.859 495.622 249.279C495.622 249.687 495.493 249.953 495.237 250.076C494.98 250.188 494.643 250.123 494.225 249.882C493.808 249.641 493.471 249.316 493.214 248.909C492.957 248.488 492.829 248.075 492.829 247.667ZM495.349 252.069V262.338L493.086 261.031V250.762L495.349 252.069ZM499.66 256.523C499.992 256.059 500.43 255.8 500.976 255.744C501.522 255.676 502.132 255.837 502.806 256.226V259.025L502.148 258.645C500.489 257.687 499.66 258.098 499.66 259.878V264.827L497.397 263.52V253.251L499.66 254.558V256.523ZM507.542 258.979C508.291 259.412 508.933 259.986 509.469 260.703C510.004 261.42 510.384 262.189 510.608 263.011V260.879L512.856 262.176V272.445L510.608 271.148V268.998C510.384 269.56 510.004 269.897 509.469 270.008C508.933 270.107 508.291 269.94 507.542 269.507C506.793 269.075 506.119 268.475 505.52 267.709C504.92 266.943 504.45 266.066 504.107 265.077C503.775 264.083 503.609 263.048 503.609 261.973C503.609 260.897 503.775 260.06 504.107 259.461C504.45 258.855 504.92 258.516 505.52 258.441C506.119 258.367 506.793 258.547 507.542 258.979ZM508.249 261.667C507.542 261.259 506.975 261.197 506.547 261.481C506.119 261.766 505.905 262.371 505.905 263.298C505.905 264.225 506.119 265.077 506.547 265.856C506.975 266.622 507.542 267.209 508.249 267.617C508.933 268.012 509.495 268.071 509.934 267.793C510.384 267.509 510.608 266.915 510.608 266.013C510.608 265.099 510.384 264.246 509.934 263.455C509.495 262.658 508.933 262.062 508.249 261.667ZM520.316 276.753L518.294 272.286L516.592 274.603L514.104 273.166L517.042 269.505L514.04 262.86L516.576 264.325L518.551 268.708L520.252 266.447L522.74 267.883L519.755 271.368L522.853 278.217L520.316 276.753ZM523.758 265.524C523.758 265.104 523.886 264.838 524.143 264.727C524.4 264.603 524.737 264.662 525.154 264.903C525.572 265.144 525.909 265.474 526.166 265.894C526.423 266.302 526.551 266.716 526.551 267.136C526.551 267.544 526.423 267.81 526.166 267.933C525.909 268.045 525.572 267.98 525.154 267.739C524.737 267.498 524.4 267.173 524.143 266.766C523.886 266.345 523.758 265.931 523.758 265.524ZM526.278 269.926V280.195L524.015 278.888V268.619L526.278 269.926ZM531.392 272.748C532.473 273.372 533.339 274.188 533.992 275.195C534.645 276.202 535.052 277.277 535.212 278.42L533.093 277.197C533.008 276.653 532.815 276.147 532.515 275.677C532.216 275.208 531.825 274.834 531.343 274.556C530.958 274.333 530.659 274.265 530.445 274.352C530.231 274.438 530.124 274.661 530.124 275.019C530.124 275.303 530.209 275.581 530.38 275.853C530.552 276.125 530.766 276.385 531.022 276.632C531.279 276.879 531.648 277.209 532.13 277.623C532.804 278.186 533.35 278.686 533.767 279.125C534.195 279.557 534.559 280.07 534.859 280.663C535.169 281.25 535.324 281.896 535.324 282.6C535.324 283.478 535.025 284.015 534.426 284.213C533.837 284.417 533.04 284.228 532.034 283.647C530.878 282.98 529.952 282.149 529.257 281.154C528.561 280.147 528.138 279.044 527.989 277.846L530.156 279.097C530.209 279.634 530.402 280.147 530.733 280.635C531.065 281.111 531.499 281.503 532.034 281.812C532.419 282.035 532.713 282.1 532.917 282.007C533.12 281.902 533.222 281.676 533.222 281.33C533.222 281.034 533.131 280.74 532.949 280.45C532.777 280.166 532.558 279.897 532.291 279.644C532.034 279.397 531.665 279.066 531.183 278.652C530.519 278.096 529.979 277.611 529.562 277.197C529.155 276.777 528.802 276.283 528.502 275.714C528.213 275.152 528.069 274.525 528.069 273.833C528.069 272.943 528.363 272.39 528.952 272.174C529.54 271.958 530.354 272.149 531.392 272.748ZM474.845 267.643V272.5L472.581 271.193V258.107L476.707 260.488C478.044 261.261 479.05 262.212 479.724 263.343C480.409 264.48 480.752 265.685 480.752 266.957C480.752 268.205 480.399 268.996 479.692 269.33C478.997 269.67 478.002 269.466 476.707 268.718L474.845 267.643ZM476.466 266.485C477.793 267.251 478.456 266.967 478.456 265.632C478.456 264.977 478.301 264.387 477.991 263.862C477.68 263.337 477.172 262.87 476.466 262.462L474.845 261.526V265.549L476.466 266.485ZM484.485 264.349V278.066L482.222 276.759V263.042L484.485 264.349ZM490.016 270.86C490.765 271.293 491.408 271.868 491.943 272.584C492.478 273.301 492.858 274.07 493.082 274.892V272.76L495.33 274.058V284.327L493.082 283.029V280.879C492.858 281.441 492.478 281.778 491.943 281.889C491.408 281.988 490.765 281.821 490.016 281.389C489.267 280.956 488.593 280.357 487.994 279.591C487.394 278.825 486.924 277.947 486.581 276.959C486.249 275.964 486.083 274.929 486.083 273.854C486.083 272.779 486.249 271.942 486.581 271.342C486.924 270.737 487.394 270.397 487.994 270.323C488.593 270.249 489.267 270.428 490.016 270.86ZM490.723 273.548C490.016 273.14 489.449 273.079 489.021 273.363C488.593 273.647 488.379 274.252 488.379 275.179C488.379 276.106 488.593 276.959 489.021 277.737C489.449 278.503 490.016 279.09 490.723 279.498C491.408 279.893 491.969 279.952 492.408 279.674C492.858 279.39 493.082 278.797 493.082 277.895C493.082 276.98 492.858 276.128 492.408 275.337C491.969 274.54 491.408 273.944 490.723 273.548ZM502.132 286.011V288.254L500.945 287.568C499.949 286.994 499.184 286.274 498.649 285.409C498.125 284.55 497.862 283.472 497.862 282.174V277.726L496.626 277.012V274.806L497.862 275.52V272.981L500.126 274.287V276.827L502.116 277.976V280.182L500.126 279.033V283.518C500.126 284.013 500.211 284.408 500.383 284.705C500.554 285.001 500.843 285.267 501.249 285.502L502.132 286.011ZM508.159 279.686C507.496 279.253 507.03 279.096 506.763 279.213C506.495 279.33 506.362 279.729 506.362 280.409V280.427L508.159 281.465V283.671L506.362 282.633V290.696L504.098 289.389V281.326L502.958 280.668V278.462L504.098 279.12V278.879C504.098 277.656 504.398 276.89 504.997 276.581C505.607 276.266 506.506 276.451 507.694 277.137C507.897 277.254 508.052 277.35 508.159 277.424V279.686ZM513.624 284.49C514.49 284.991 515.266 285.649 515.951 286.464C516.647 287.286 517.193 288.213 517.589 289.245C517.985 290.264 518.183 291.311 518.183 292.386C518.183 293.461 517.985 294.28 517.589 294.842C517.193 295.405 516.647 295.701 515.951 295.732C515.266 295.757 514.49 295.519 513.624 295.018C512.757 294.518 511.976 293.857 511.28 293.035C510.595 292.207 510.055 291.283 509.659 290.264C509.263 289.245 509.065 288.197 509.065 287.122C509.065 286.047 509.263 285.228 509.659 284.666C510.055 284.092 510.595 283.792 511.28 283.767C511.976 283.749 512.757 283.99 513.624 284.49ZM513.624 286.751C512.992 286.387 512.457 286.337 512.018 286.603C511.58 286.856 511.36 287.471 511.36 288.447C511.36 289.424 511.58 290.298 512.018 291.07C512.457 291.83 512.992 292.392 513.624 292.757C514.255 293.122 514.79 293.177 515.229 292.924C515.668 292.658 515.887 292.037 515.887 291.061C515.887 290.085 515.668 289.217 515.229 288.457C514.79 287.684 514.255 287.116 513.624 286.751ZM522.046 291.447C522.377 290.984 522.816 290.724 523.362 290.669C523.908 290.601 524.518 290.761 525.192 291.15V293.949L524.534 293.569C522.875 292.612 522.046 293.023 522.046 294.802V299.751L519.782 298.444V288.175L522.046 289.482V291.447ZM537.761 298.408C538.842 299.032 539.693 299.912 540.314 301.049C540.945 302.18 541.261 303.455 541.261 304.876V310.845L539.014 309.547V303.876C539.014 303.085 538.837 302.377 538.484 301.753C538.141 301.123 537.665 300.632 537.055 300.28C536.424 299.915 535.921 299.853 535.546 300.094C535.172 300.335 534.984 300.894 534.984 301.772V307.221L532.737 305.924V300.252C532.737 299.461 532.56 298.754 532.207 298.129C531.865 297.499 531.389 297.008 530.779 296.656C530.147 296.291 529.644 296.23 529.27 296.471C528.895 296.712 528.708 297.271 528.708 298.148V303.598L526.444 302.291V292.022L528.708 293.329V295.275C528.943 294.744 529.313 294.444 529.815 294.376C530.329 294.302 530.923 294.459 531.597 294.849C532.314 295.263 532.935 295.819 533.459 296.517C533.994 297.221 534.396 298.021 534.663 298.917C534.942 298.374 535.354 298.055 535.899 297.963C536.456 297.864 537.077 298.012 537.761 298.408Z" fill="#2F3245"/>
<ellipse cx="187.452" cy="375.676" rx="112.676" ry="158.59" transform="rotate(-38.4147 187.452 375.676)" fill="url(#paint0_linear_884_75860)"/>
<defs>
<linearGradient id="paint0_linear_884_75860" x1="75.3349" y1="411.758" x2="396.909" y2="399.021" gradientUnits="userSpaceOnUse">
<stop stop-color="#F2F3EF" stop-opacity="0.93"/>
<stop offset="1" stop-color="#F2F3EF" stop-opacity="0"/>
</linearGradient>
</defs>
</svg>
