<svg width="461" height="533" viewBox="0 0 461 533" fill="none" xmlns="http://www.w3.org/2000/svg">
<path d="M231.168 0L460 133.65L459.999 398.614L231.168 532.264L0 398.614V133.65L231.168 0Z" fill="#711F3C"/>
<path d="M231.27 4.66714V2.97968L229.81 3.82568L5.34207 133.888L3.89268 134.728L5.34064 135.57L229.808 266.143L231.27 266.993V265.302V4.66714Z" fill="#D81D5B" stroke="#711F3C" stroke-width="1.94501"/>
<path d="M231.453 265.306V266.993L232.913 266.147L457.381 136.085L458.83 135.245L457.382 134.403L232.915 3.83027L231.453 2.98012V4.6709V265.306Z" fill="#902F57" stroke="#711F3C" stroke-width="1.94501"/>
<path d="M2.91323 396.292V397.978L4.37269 397.134L228.934 267.237L230.386 266.396L228.935 265.554L4.37412 135.147L2.91323 134.299V135.988V396.292Z" fill="#D81D5B" stroke="#711F3C" stroke-width="1.94501"/>
<path d="M457.865 396.597V398.285L456.405 397.439L231.937 267.376L230.488 266.537L231.936 265.694L456.403 135.122L457.865 134.272V135.963V396.597Z" fill="#A662A7" stroke="#711F3C" stroke-width="1.94501"/>
<path d="M231.27 267.251V265.563L229.81 266.409L5.34207 396.471L3.89268 397.311L5.34064 398.154L229.808 528.726L231.27 529.576V527.885V267.251Z" fill="#D81D5B" stroke="#711F3C" stroke-width="1.94501"/>
<path d="M231.453 527.889V529.577L232.913 528.731L457.381 398.668L458.83 397.828L457.382 396.986L232.915 266.414L231.453 265.564V267.254V527.889Z" fill="#D81D5B" stroke="#711F3C" stroke-width="1.94501"/>
<g clip-path="url(#clip0_116_12475)">
<path d="M158.921 102.563H158.01C156.257 102.563 154.823 101.129 154.823 99.3758C154.823 97.6229 156.257 96.1887 158.01 96.1887H158.921C160.674 96.1887 162.108 97.6229 162.108 99.3758C162.108 101.129 160.674 102.563 158.921 102.563Z" fill="white"/>
<path d="M147.084 102.563H146.173C144.42 102.563 142.986 101.129 142.986 99.3758C142.986 97.6229 144.42 96.1887 146.173 96.1887H147.084C148.837 96.1887 150.271 97.6229 150.271 99.3758C150.271 101.129 148.837 102.563 147.084 102.563Z" fill="white"/>
<g opacity="0.95">
<path d="M169.36 141.379H156.128C153.03 141.379 150.603 138.068 150.603 133.841V123.85H154.7V133.841C154.7 136.098 155.761 137.281 156.128 137.281H169.36C169.727 137.281 170.787 136.098 170.787 133.841V126.584H174.885V133.841C174.885 138.068 172.458 141.379 169.36 141.379Z" fill="white"/>
</g>
<g opacity="0.75">
<path d="M165.968 99.6825C164.062 97.8515 161.241 97.4984 157.927 97.4634V100.809C160.458 100.837 162.519 101.066 163.561 102.068C164.258 102.738 164.597 103.861 164.597 105.502C164.597 108.951 163.127 113.614 160.853 117.381C158.394 121.455 155.429 123.791 152.718 123.791C146.593 123.791 140.839 112.381 140.839 105.502C140.839 103.861 141.178 102.738 141.875 102.068C142.935 101.049 145.047 100.83 147.636 100.808V97.4618C144.267 97.4892 141.399 97.8281 139.469 99.6825C138.082 101.014 137.409 102.918 137.409 105.502C137.409 113.102 143.722 127.139 152.718 127.139C161.714 127.139 168.027 113.102 168.027 105.502C168.027 102.918 167.354 101.014 165.968 99.6825Z" fill="white"/>
</g>
<g opacity="0.75">
<path d="M172.922 130.221C169.784 130.221 167.231 127.668 167.231 124.53C167.231 121.391 169.784 118.838 172.922 118.838C176.06 118.838 178.613 121.391 178.613 124.53C178.613 127.668 176.06 130.221 172.922 130.221ZM172.922 122.936C172.043 122.936 171.328 123.651 171.328 124.53C171.328 125.408 172.043 126.123 172.922 126.123C173.8 126.123 174.515 125.408 174.515 124.53C174.515 123.651 173.8 122.936 172.922 122.936Z" fill="white"/>
</g>
</g>
<path d="M109.031 176.179V181.275H106.288V167.543H111.287C112.908 167.543 114.126 167.932 114.943 168.71C115.773 169.488 116.188 170.545 116.188 171.88C116.188 173.19 115.76 174.234 114.905 175.012C114.062 175.79 112.856 176.179 111.287 176.179H109.031ZM110.995 173.981C112.603 173.981 113.407 173.281 113.407 171.88C113.407 171.193 113.219 170.668 112.843 170.305C112.467 169.942 111.851 169.76 110.995 169.76H109.031V173.981H110.995ZM124.388 170.344C125.633 170.344 126.625 170.752 127.364 171.569C128.103 172.386 128.473 173.533 128.473 175.012V181.275H125.75V175.323C125.75 174.467 125.529 173.806 125.088 173.339C124.647 172.859 124.045 172.619 123.279 172.619C122.501 172.619 121.879 172.872 121.412 173.378C120.945 173.883 120.712 174.61 120.712 175.556V181.275H117.97V166.881H120.712V172.658C120.997 171.932 121.464 171.368 122.112 170.966C122.774 170.551 123.532 170.344 124.388 170.344ZM132.733 170.499L135.67 177.812L138.393 170.499H141.408L134.815 186.409H131.78L134.212 180.963L129.68 170.499H132.733ZM146.415 170.363C147.725 170.363 148.775 170.694 149.566 171.355C150.357 172.016 150.85 172.898 151.044 174H148.477C148.373 173.482 148.14 173.067 147.777 172.755C147.414 172.444 146.94 172.289 146.357 172.289C145.89 172.289 145.527 172.399 145.268 172.619C145.008 172.84 144.879 173.138 144.879 173.514C144.879 173.812 144.982 174.052 145.19 174.234C145.397 174.415 145.657 174.558 145.968 174.661C146.279 174.765 146.726 174.888 147.31 175.031C148.127 175.213 148.788 175.407 149.294 175.615C149.812 175.809 150.253 176.127 150.616 176.568C150.992 176.996 151.18 177.579 151.18 178.318C151.18 179.239 150.817 179.984 150.091 180.555C149.378 181.125 148.412 181.411 147.193 181.411C145.793 181.411 144.671 181.099 143.828 180.477C142.985 179.842 142.473 178.941 142.292 177.774H144.917C144.982 178.305 145.216 178.727 145.618 179.038C146.02 179.336 146.545 179.485 147.193 179.485C147.66 179.485 148.017 179.375 148.263 179.154C148.509 178.921 148.632 178.623 148.632 178.26C148.632 177.949 148.522 177.696 148.302 177.501C148.094 177.307 147.828 177.158 147.504 177.054C147.193 176.95 146.746 176.827 146.162 176.684C145.358 176.503 144.703 176.321 144.198 176.14C143.705 175.945 143.277 175.64 142.914 175.226C142.564 174.811 142.389 174.24 142.389 173.514C142.389 172.58 142.746 171.822 143.459 171.238C144.172 170.655 145.157 170.363 146.415 170.363ZM152.912 167.407C152.912 166.966 153.067 166.609 153.379 166.337C153.69 166.052 154.098 165.909 154.604 165.909C155.11 165.909 155.518 166.052 155.829 166.337C156.14 166.609 156.296 166.966 156.296 167.407C156.296 167.834 156.14 168.191 155.829 168.476C155.518 168.749 155.11 168.885 154.604 168.885C154.098 168.885 153.69 168.749 153.379 168.476C153.067 168.191 152.912 167.834 152.912 167.407ZM155.965 170.499V181.275H153.223V170.499H155.965ZM163.289 170.363C164.677 170.363 165.831 170.739 166.752 171.491C167.685 172.243 168.269 173.268 168.502 174.564H165.604C165.487 173.994 165.222 173.546 164.807 173.222C164.392 172.885 163.867 172.716 163.231 172.716C162.505 172.716 161.896 172.989 161.403 173.533C160.923 174.065 160.683 174.85 160.683 175.887C160.683 176.924 160.923 177.715 161.403 178.26C161.896 178.791 162.505 179.057 163.231 179.057C163.867 179.057 164.392 178.895 164.807 178.571C165.222 178.234 165.487 177.78 165.604 177.209H168.502C168.269 178.506 167.685 179.531 166.752 180.283C165.831 181.035 164.677 181.411 163.289 181.411C162.239 181.411 161.306 181.19 160.489 180.749C159.672 180.296 159.036 179.654 158.583 178.824C158.129 177.994 157.902 177.015 157.902 175.887C157.902 174.759 158.129 173.78 158.583 172.95C159.036 172.107 159.672 171.465 160.489 171.024C161.306 170.583 162.239 170.363 163.289 170.363ZM170.14 167.407C170.14 166.966 170.295 166.609 170.606 166.337C170.918 166.052 171.326 165.909 171.832 165.909C172.337 165.909 172.746 166.052 173.057 166.337C173.368 166.609 173.524 166.966 173.524 167.407C173.524 167.834 173.368 168.191 173.057 168.476C172.746 168.749 172.337 168.885 171.832 168.885C171.326 168.885 170.918 168.749 170.606 168.476C170.295 168.191 170.14 167.834 170.14 167.407ZM173.193 170.499V181.275H170.451V170.499H173.193ZM179.895 170.363C180.803 170.363 181.581 170.577 182.229 171.005C182.877 171.433 183.338 172.01 183.61 172.736V170.499H186.333V181.275H183.61V179.018C183.338 179.744 182.877 180.328 182.229 180.769C181.581 181.197 180.803 181.411 179.895 181.411C178.987 181.411 178.17 181.19 177.444 180.749C176.718 180.309 176.147 179.673 175.733 178.843C175.331 178 175.13 177.015 175.13 175.887C175.13 174.759 175.331 173.78 175.733 172.95C176.147 172.107 176.718 171.465 177.444 171.024C178.17 170.583 178.987 170.363 179.895 170.363ZM180.751 172.755C179.895 172.755 179.208 173.034 178.689 173.592C178.17 174.149 177.911 174.914 177.911 175.887C177.911 176.859 178.17 177.624 178.689 178.182C179.208 178.727 179.895 178.999 180.751 178.999C181.581 178.999 182.261 178.72 182.793 178.163C183.338 177.592 183.61 176.833 183.61 175.887C183.61 174.927 183.338 174.169 182.793 173.611C182.261 173.041 181.581 172.755 180.751 172.755ZM195.237 170.344C196.482 170.344 197.474 170.752 198.213 171.569C198.952 172.386 199.321 173.533 199.321 175.012V181.275H196.598V175.323C196.598 174.467 196.378 173.806 195.937 173.339C195.496 172.859 194.893 172.619 194.128 172.619C193.35 172.619 192.728 172.872 192.261 173.378C191.794 173.883 191.561 174.61 191.561 175.556V181.275H188.818V170.499H191.561V172.658C191.846 171.932 192.313 171.368 192.961 170.966C193.622 170.551 194.381 170.344 195.237 170.344ZM205.449 170.363C206.759 170.363 207.809 170.694 208.6 171.355C209.391 172.016 209.884 172.898 210.078 174H207.511C207.407 173.482 207.174 173.067 206.811 172.755C206.448 172.444 205.974 172.289 205.391 172.289C204.924 172.289 204.561 172.399 204.302 172.619C204.042 172.84 203.913 173.138 203.913 173.514C203.913 173.812 204.017 174.052 204.224 174.234C204.431 174.415 204.691 174.558 205.002 174.661C205.313 174.765 205.761 174.888 206.344 175.031C207.161 175.213 207.822 175.407 208.328 175.615C208.847 175.809 209.288 176.127 209.651 176.568C210.027 176.996 210.215 177.579 210.215 178.318C210.215 179.239 209.852 179.984 209.125 180.555C208.412 181.125 207.446 181.411 206.227 181.411C204.827 181.411 203.705 181.099 202.862 180.477C202.02 179.842 201.507 178.941 201.326 177.774H203.952C204.017 178.305 204.25 178.727 204.652 179.038C205.054 179.336 205.579 179.485 206.227 179.485C206.694 179.485 207.051 179.375 207.297 179.154C207.543 178.921 207.667 178.623 207.667 178.26C207.667 177.949 207.556 177.696 207.336 177.501C207.129 177.307 206.863 177.158 206.539 177.054C206.227 176.95 205.78 176.827 205.196 176.684C204.393 176.503 203.738 176.321 203.232 176.14C202.739 175.945 202.311 175.64 201.948 175.226C201.598 174.811 201.423 174.24 201.423 173.514C201.423 172.58 201.78 171.822 202.493 171.238C203.206 170.655 204.192 170.363 205.449 170.363Z" fill="white"/>
<g clip-path="url(#clip1_116_12475)">
<g opacity="0.75">
<path d="M164.012 375.942H159.915V386.413H164.012V375.942Z" fill="white"/>
</g>
<g opacity="0.75">
<path d="M167.203 379.146H156.731V383.243H167.203V379.146Z" fill="white"/>
</g>
<path d="M161.904 370.196C152.879 370.196 145.544 377.278 145.616 385.957C145.618 385.958 145.618 385.959 145.619 385.96H147.218H149.71H154.169V381.862H150.45C152.164 377.45 156.652 374.294 161.904 374.294C167.157 374.294 171.645 377.45 173.359 381.862H169.649V385.96H174.099H177.215H178.189C178.19 385.959 178.191 385.958 178.192 385.957C178.265 377.278 170.93 370.196 161.904 370.196Z" fill="white"/>
<g opacity="0.75">
<path d="M162.04 374.293C156.478 374.293 151.953 369.944 151.953 364.597C151.953 359.25 156.478 354.901 162.04 354.901C167.602 354.901 172.127 359.25 172.127 364.597C172.127 369.944 167.602 374.293 162.04 374.293ZM162.04 358.998C158.737 358.998 156.05 361.51 156.05 364.597C156.05 367.684 158.737 370.196 162.04 370.196C165.343 370.196 168.029 367.684 168.029 364.597C168.029 361.51 165.343 358.998 162.04 358.998Z" fill="white"/>
</g>
</g>
<path d="M116.936 428.062V433.158H114.194V419.426H119.192C120.813 419.426 122.032 419.815 122.849 420.593C123.679 421.371 124.094 422.428 124.094 423.764C124.094 425.073 123.666 426.117 122.81 426.895C121.967 427.673 120.761 428.062 119.192 428.062H116.936ZM118.901 425.864C120.509 425.864 121.313 425.164 121.313 423.764C121.313 423.077 121.125 422.551 120.749 422.188C120.372 421.825 119.757 421.644 118.901 421.644H116.936V425.864H118.901ZM136.009 427.362C136.009 427.634 135.976 427.946 135.912 428.296H128.015C128.054 429.255 128.313 429.962 128.793 430.416C129.273 430.87 129.869 431.097 130.582 431.097C131.218 431.097 131.743 430.941 132.158 430.63C132.586 430.319 132.858 429.897 132.975 429.365H135.873C135.73 430.118 135.425 430.792 134.959 431.388C134.492 431.985 133.889 432.452 133.15 432.789C132.424 433.126 131.613 433.294 130.718 433.294C129.668 433.294 128.734 433.074 127.918 432.633C127.101 432.179 126.465 431.537 126.011 430.708C125.558 429.878 125.331 428.899 125.331 427.771C125.331 426.642 125.558 425.663 126.011 424.834C126.465 423.991 127.101 423.349 127.918 422.908C128.734 422.467 129.668 422.247 130.718 422.247C131.782 422.247 132.709 422.467 133.5 422.908C134.304 423.349 134.92 423.958 135.348 424.736C135.788 425.501 136.009 426.377 136.009 427.362ZM133.247 427.09C133.286 426.208 133.052 425.54 132.547 425.086C132.054 424.633 131.445 424.406 130.718 424.406C129.979 424.406 129.357 424.633 128.851 425.086C128.345 425.54 128.067 426.208 128.015 427.09H133.247ZM140.698 424.445C141.1 423.757 141.632 423.219 142.293 422.83C142.954 422.428 143.693 422.227 144.51 422.227V425.164H143.713C141.703 425.164 140.698 426.098 140.698 427.965V433.158H137.956V422.383H140.698V424.445ZM149.743 422.247C151.053 422.247 152.103 422.577 152.894 423.239C153.685 423.9 154.178 424.782 154.372 425.884H151.805C151.701 425.365 151.468 424.95 151.105 424.639C150.742 424.328 150.268 424.172 149.685 424.172C149.218 424.172 148.855 424.283 148.596 424.503C148.336 424.723 148.207 425.022 148.207 425.398C148.207 425.696 148.31 425.936 148.518 426.117C148.725 426.299 148.985 426.441 149.296 426.545C149.607 426.649 150.054 426.772 150.638 426.915C151.455 427.096 152.116 427.291 152.622 427.498C153.14 427.693 153.581 428.01 153.944 428.451C154.32 428.879 154.508 429.463 154.508 430.202C154.508 431.122 154.145 431.868 153.419 432.439C152.706 433.009 151.74 433.294 150.521 433.294C149.121 433.294 147.999 432.983 147.156 432.361C146.313 431.725 145.801 430.824 145.62 429.657H148.246C148.31 430.189 148.544 430.61 148.946 430.921C149.348 431.22 149.873 431.369 150.521 431.369C150.988 431.369 151.345 431.259 151.591 431.038C151.837 430.805 151.961 430.507 151.961 430.143C151.961 429.832 151.85 429.579 151.63 429.385C151.422 429.19 151.157 429.041 150.832 428.938C150.521 428.834 150.074 428.711 149.49 428.568C148.686 428.386 148.032 428.205 147.526 428.023C147.033 427.829 146.605 427.524 146.242 427.109C145.892 426.694 145.717 426.124 145.717 425.398C145.717 424.464 146.074 423.705 146.787 423.122C147.5 422.538 148.485 422.247 149.743 422.247ZM161.53 422.247C162.581 422.247 163.521 422.467 164.351 422.908C165.193 423.349 165.855 423.991 166.334 424.834C166.814 425.663 167.054 426.642 167.054 427.771C167.054 428.899 166.814 429.878 166.334 430.708C165.855 431.537 165.193 432.179 164.351 432.633C163.521 433.074 162.581 433.294 161.53 433.294C160.48 433.294 159.533 433.074 158.691 432.633C157.861 432.179 157.206 431.537 156.726 430.708C156.246 429.878 156.006 428.899 156.006 427.771C156.006 426.642 156.246 425.663 156.726 424.834C157.206 423.991 157.861 423.349 158.691 422.908C159.533 422.467 160.48 422.247 161.53 422.247ZM161.53 424.62C160.765 424.62 160.117 424.892 159.585 425.437C159.054 425.968 158.788 426.746 158.788 427.771C158.788 428.795 159.054 429.579 159.585 430.124C160.117 430.656 160.765 430.921 161.53 430.921C162.295 430.921 162.944 430.656 163.475 430.124C164.007 429.579 164.273 428.795 164.273 427.771C164.273 426.746 164.007 425.968 163.475 425.437C162.944 424.892 162.295 424.62 161.53 424.62ZM175.411 422.227C176.656 422.227 177.648 422.636 178.387 423.453C179.126 424.27 179.495 425.417 179.495 426.895V433.158H176.772V427.207C176.772 426.351 176.552 425.689 176.111 425.223C175.67 424.743 175.067 424.503 174.302 424.503C173.524 424.503 172.902 424.756 172.435 425.262C171.968 425.767 171.735 426.493 171.735 427.44V433.158H168.992V422.383H171.735V424.542C172.02 423.816 172.487 423.252 173.135 422.85C173.797 422.435 174.555 422.227 175.411 422.227ZM188.327 422.227C189.572 422.227 190.564 422.636 191.303 423.453C192.042 424.27 192.412 425.417 192.412 426.895V433.158H189.688V427.207C189.688 426.351 189.468 425.689 189.027 425.223C188.586 424.743 187.983 424.503 187.218 424.503C186.44 424.503 185.818 424.756 185.351 425.262C184.884 425.767 184.651 426.493 184.651 427.44V433.158H181.908V422.383H184.651V424.542C184.936 423.816 185.403 423.252 186.051 422.85C186.713 422.435 187.471 422.227 188.327 422.227ZM204.958 427.362C204.958 427.634 204.926 427.946 204.861 428.296H196.964C197.003 429.255 197.262 429.962 197.742 430.416C198.222 430.87 198.818 431.097 199.531 431.097C200.167 431.097 200.692 430.941 201.107 430.63C201.535 430.319 201.807 429.897 201.924 429.365H204.822C204.679 430.118 204.375 430.792 203.908 431.388C203.441 431.985 202.838 432.452 202.099 432.789C201.373 433.126 200.562 433.294 199.668 433.294C198.617 433.294 197.684 433.074 196.867 432.633C196.05 432.179 195.415 431.537 194.961 430.708C194.507 429.878 194.28 428.899 194.28 427.771C194.28 426.642 194.507 425.663 194.961 424.834C195.415 423.991 196.05 423.349 196.867 422.908C197.684 422.467 198.617 422.247 199.668 422.247C200.731 422.247 201.658 422.467 202.449 422.908C203.253 423.349 203.869 423.958 204.297 424.736C204.738 425.501 204.958 426.377 204.958 427.362ZM202.196 427.09C202.235 426.208 202.002 425.54 201.496 425.086C201.003 424.633 200.394 424.406 199.668 424.406C198.929 424.406 198.306 424.633 197.8 425.086C197.295 425.54 197.016 426.208 196.964 427.09H202.196ZM209.647 418.765V433.158H206.905V418.765H209.647Z" fill="white"/>
<g clip-path="url(#clip2_116_12475)">
<g opacity="0.75">
<path d="M85.1023 224.45H81.0046V236.743H85.1023V224.45Z" fill="white"/>
</g>
<g opacity="0.75">
<path d="M89.1949 228.555H76.9019V232.653H89.1949V228.555Z" fill="white"/>
</g>
<path d="M74.9736 258.216C74.7647 258.216 74.5549 258.205 74.3447 258.183C72.1375 257.95 70.1797 256.537 68.9723 254.307C66.4941 249.727 64.0187 229.456 70.4073 222.93C73.0253 220.255 76.9001 218.638 80.7733 218.603L80.808 222.701C78.0028 222.726 75.1021 223.924 73.2376 225.827C71.2398 227.866 70.1962 232.837 70.3751 239.465C70.541 245.621 71.7015 250.879 72.4754 252.307C73.0478 253.364 73.8573 253.998 74.7555 254.093C75.4352 254.162 76.0723 253.913 76.5027 253.403C77.2832 252.477 77.2341 250.564 77.1872 248.713C77.1268 246.353 77.0643 243.911 78.5552 242.113C79.621 240.827 81.1224 240.089 82.6746 240.087H82.6816C84.1777 240.087 85.5762 240.776 86.6211 242.029C88.1894 243.911 88.2333 246.487 88.2719 248.76C88.304 250.648 88.3341 252.431 89.1387 253.328C89.5687 253.806 90.2766 254.084 90.9646 254.055C91.4141 254.036 92.0534 253.877 92.5468 253.228C94.2284 251.013 97.1752 234.648 92.2401 226.576C90.7153 224.082 87.3787 222.781 84.8709 222.785L84.8639 218.688H84.8839C88.5008 218.688 93.2221 220.454 95.636 224.406C101.216 233.544 98.6692 251.853 95.7102 255.754C94.5906 257.23 92.9637 258.086 91.1301 258.163C89.2543 258.242 87.4111 257.476 86.1881 256.112C84.3584 254.073 84.3115 251.297 84.2699 248.848C84.2417 247.182 84.2125 245.458 83.5724 244.689C83.2897 244.35 82.9978 244.184 82.6816 244.184H82.6803C82.3112 244.185 81.9116 244.402 81.611 244.765C81.1055 245.375 81.1494 247.101 81.188 248.624C81.2519 251.13 81.3244 253.97 79.5364 256.092C78.3942 257.448 76.7234 258.216 74.9736 258.216Z" fill="white"/>
</g>
<path d="M55.5534 294.008C55.5534 295.369 55.2682 296.569 54.6976 297.606C54.1271 298.643 53.2972 299.454 52.208 300.037C51.1318 300.608 49.8481 300.893 48.3569 300.893H43.4749V287.161H48.3569C49.8481 287.161 51.1318 287.447 52.208 288.017C53.2972 288.575 54.1271 289.372 54.6976 290.409C55.2682 291.434 55.5534 292.633 55.5534 294.008ZM48.1235 298.442C49.6017 298.442 50.7428 298.053 51.5467 297.275C52.3636 296.497 52.7721 295.408 52.7721 294.008C52.7721 292.594 52.3636 291.499 51.5467 290.721C50.7428 289.943 49.6017 289.554 48.1235 289.554H46.2174V298.442H48.1235ZM67.7402 295.097C67.7402 295.369 67.7078 295.68 67.6429 296.031H59.7462C59.7851 296.99 60.0444 297.697 60.5242 298.151C61.0039 298.604 61.6004 298.831 62.3136 298.831C62.949 298.831 63.4741 298.676 63.889 298.365C64.3169 298.053 64.5892 297.632 64.706 297.1H67.604C67.4614 297.852 67.1567 298.527 66.6899 299.123C66.2231 299.72 65.6201 300.186 64.881 300.524C64.1549 300.861 63.3444 301.029 62.4497 301.029C61.3994 301.029 60.4658 300.809 59.6489 300.368C58.832 299.914 58.1966 299.272 57.7428 298.442C57.289 297.612 57.062 296.633 57.062 295.505C57.062 294.377 57.289 293.398 57.7428 292.568C58.1966 291.726 58.832 291.084 59.6489 290.643C60.4658 290.202 61.3994 289.982 62.4497 289.982C63.513 289.982 64.4401 290.202 65.2311 290.643C66.035 291.084 66.651 291.693 67.0789 292.471C67.5197 293.236 67.7402 294.111 67.7402 295.097ZM64.9783 294.825C65.0172 293.943 64.7838 293.275 64.278 292.821C63.7853 292.367 63.1759 292.141 62.4497 292.141C61.7106 292.141 61.0882 292.367 60.5825 292.821C60.0768 293.275 59.798 293.943 59.7462 294.825H64.9783ZM76.1056 289.962C77.3504 289.962 78.3423 290.371 79.0814 291.187C79.8205 292.004 80.1901 293.152 80.1901 294.63V300.893H77.4671V294.941C77.4671 294.086 77.2466 293.424 76.8058 292.957C76.3649 292.478 75.7619 292.238 74.9969 292.238C74.2189 292.238 73.5965 292.491 73.1297 292.996C72.6629 293.502 72.4295 294.228 72.4295 295.175V300.893H69.687V290.118H72.4295V292.277C72.7148 291.551 73.1816 290.986 73.8299 290.584C74.4912 290.17 75.2498 289.962 76.1056 289.962ZM88.3604 298.54V300.893H86.9211C85.7151 300.893 84.788 300.601 84.1397 300.018C83.5043 299.434 83.1866 298.462 83.1866 297.1V292.432H81.689V290.118H83.1866V287.453H85.9291V290.118H88.3409V292.432H85.9291V297.139C85.9291 297.658 86.0328 298.021 86.2403 298.228C86.4478 298.436 86.7979 298.54 87.2906 298.54H88.3604ZM90.0226 287.025C90.0226 286.584 90.1782 286.228 90.4894 285.955C90.8006 285.67 91.2091 285.527 91.7148 285.527C92.2205 285.527 92.6289 285.67 92.9401 285.955C93.2513 286.228 93.4069 286.584 93.4069 287.025C93.4069 287.453 93.2513 287.81 92.9401 288.095C92.6289 288.367 92.2205 288.503 91.7148 288.503C91.2091 288.503 90.8006 288.367 90.4894 288.095C90.1782 287.81 90.0226 287.453 90.0226 287.025ZM93.0763 290.118V300.893H90.3338V290.118H93.0763ZM99.2722 289.982C100.582 289.982 101.632 290.312 102.423 290.973C103.214 291.635 103.707 292.517 103.901 293.619H101.334C101.23 293.1 100.997 292.685 100.634 292.374C100.271 292.063 99.7974 291.907 99.2139 291.907C98.747 291.907 98.384 292.017 98.1246 292.238C97.8653 292.458 97.7356 292.756 97.7356 293.132C97.7356 293.431 97.8394 293.671 98.0468 293.852C98.2543 294.034 98.5136 294.176 98.8249 294.28C99.1361 294.384 99.5834 294.507 100.167 294.65C100.984 294.831 101.645 295.026 102.151 295.233C102.669 295.428 103.11 295.745 103.473 296.186C103.849 296.614 104.037 297.198 104.037 297.937C104.037 298.857 103.674 299.603 102.948 300.173C102.235 300.744 101.269 301.029 100.05 301.029C98.6498 301.029 97.5282 300.718 96.6853 300.096C95.8425 299.46 95.3303 298.559 95.1488 297.392H97.7745C97.8394 297.924 98.0728 298.345 98.4747 298.656C98.8767 298.955 99.4019 299.104 100.05 299.104C100.517 299.104 100.874 298.993 101.12 298.773C101.366 298.54 101.49 298.241 101.49 297.878C101.49 297.567 101.379 297.314 101.159 297.12C100.951 296.925 100.686 296.776 100.361 296.672C100.05 296.569 99.6029 296.445 99.0194 296.303C98.2154 296.121 97.5606 295.94 97.0549 295.758C96.5621 295.564 96.1342 295.259 95.7712 294.844C95.4211 294.429 95.246 293.859 95.246 293.132C95.246 292.199 95.6026 291.44 96.3158 290.857C97.029 290.273 98.0144 289.982 99.2722 289.982ZM111.837 298.54V300.893H110.398C109.192 300.893 108.265 300.601 107.617 300.018C106.981 299.434 106.664 298.462 106.664 297.1V292.432H105.166V290.118H106.664V287.453H109.406V290.118H111.818V292.432H109.406V297.139C109.406 297.658 109.51 298.021 109.717 298.228C109.925 298.436 110.275 298.54 110.768 298.54H111.837ZM117.526 289.982C118.835 289.982 119.886 290.312 120.677 290.973C121.468 291.635 121.96 292.517 122.155 293.619H119.587C119.484 293.1 119.25 292.685 118.887 292.374C118.524 292.063 118.051 291.907 117.467 291.907C117.001 291.907 116.637 292.017 116.378 292.238C116.119 292.458 115.989 292.756 115.989 293.132C115.989 293.431 116.093 293.671 116.3 293.852C116.508 294.034 116.767 294.176 117.078 294.28C117.39 294.384 117.837 294.507 118.42 294.65C119.237 294.831 119.899 295.026 120.404 295.233C120.923 295.428 121.364 295.745 121.727 296.186C122.103 296.614 122.291 297.198 122.291 297.937C122.291 298.857 121.928 299.603 121.202 300.173C120.489 300.744 119.523 301.029 118.304 301.029C116.903 301.029 115.782 300.718 114.939 300.096C114.096 299.46 113.584 298.559 113.402 297.392H116.028C116.093 297.924 116.326 298.345 116.728 298.656C117.13 298.955 117.655 299.104 118.304 299.104C118.771 299.104 119.127 298.993 119.373 298.773C119.62 298.54 119.743 298.241 119.743 297.878C119.743 297.567 119.633 297.314 119.412 297.12C119.205 296.925 118.939 296.776 118.615 296.672C118.304 296.569 117.856 296.445 117.273 296.303C116.469 296.121 115.814 295.94 115.308 295.758C114.816 295.564 114.388 295.259 114.025 294.844C113.675 294.429 113.5 293.859 113.5 293.132C113.5 292.199 113.856 291.44 114.569 290.857C115.282 290.273 116.268 289.982 117.526 289.982Z" fill="white"/>
<g opacity="0.85">
<path d="M381.842 240.828C374.311 240.828 368.181 246.704 368.155 253.936H369.99H372.247H379.573L379.581 249.838H373.321C374.918 246.926 378.133 244.926 381.842 244.926C385.551 244.926 388.767 246.926 390.364 249.838H384.126L384.118 253.936H391.438H391.806H395.53C395.504 246.704 389.374 240.828 381.842 240.828Z" fill="white"/>
</g>
<g opacity="0.75">
<path d="M382.327 244.924C377.574 244.924 373.707 241.2 373.707 236.623C373.707 232.047 377.574 228.323 382.327 228.323C387.08 228.323 390.947 232.047 390.947 236.623C390.947 241.2 387.08 244.924 382.327 244.924ZM382.327 232.421C379.834 232.421 377.805 234.306 377.805 236.623C377.805 238.941 379.834 240.826 382.327 240.826C384.821 240.826 386.849 238.941 386.849 236.623C386.849 234.306 384.821 232.421 382.327 232.421Z" fill="white"/>
</g>
<path d="M361.819 238.167C352.793 238.167 345.458 245.249 345.531 253.928C345.532 253.929 345.533 253.929 345.534 253.93H347.132H349.624H359.547L359.555 249.833H350.364C352.078 245.421 356.566 242.264 361.819 242.264C367.071 242.264 371.559 245.421 373.273 249.833H364.1L364.092 253.93H374.013H377.129H378.104C378.105 253.929 378.105 253.929 378.107 253.928C378.179 245.249 370.844 238.167 361.819 238.167Z" fill="white"/>
<g opacity="0.75">
<path d="M361.95 242.264C356.388 242.264 351.863 237.914 351.863 232.568C351.863 227.221 356.388 222.871 361.95 222.871C367.512 222.871 372.037 227.221 372.037 232.568C372.037 237.914 367.512 242.264 361.95 242.264ZM361.95 226.969C358.647 226.969 355.96 229.48 355.96 232.568C355.96 235.655 358.647 238.166 361.95 238.166C365.252 238.166 367.939 235.655 367.939 232.568C367.939 229.48 365.252 226.969 361.95 226.969Z" fill="white"/>
</g>
<path d="M333.994 295.797V300.893H331.251V287.161H336.25C337.871 287.161 339.09 287.55 339.907 288.328C340.737 289.106 341.152 290.163 341.152 291.499C341.152 292.808 340.724 293.852 339.868 294.63C339.025 295.408 337.819 295.797 336.25 295.797H333.994ZM335.958 293.599C337.566 293.599 338.37 292.899 338.37 291.499C338.37 290.811 338.182 290.286 337.806 289.923C337.43 289.56 336.814 289.379 335.958 289.379H333.994V293.599H335.958ZM347.154 289.982C348.061 289.982 348.839 290.195 349.488 290.623C350.136 291.051 350.596 291.628 350.869 292.354V290.118H353.592V300.893H350.869V298.637C350.596 299.363 350.136 299.946 349.488 300.387C348.839 300.815 348.061 301.029 347.154 301.029C346.246 301.029 345.429 300.809 344.703 300.368C343.977 299.927 343.406 299.292 342.991 298.462C342.589 297.619 342.388 296.633 342.388 295.505C342.388 294.377 342.589 293.398 342.991 292.568C343.406 291.726 343.977 291.084 344.703 290.643C345.429 290.202 346.246 289.982 347.154 289.982ZM348.009 292.374C347.154 292.374 346.466 292.653 345.948 293.21C345.429 293.768 345.17 294.533 345.17 295.505C345.17 296.478 345.429 297.243 345.948 297.8C346.466 298.345 347.154 298.617 348.009 298.617C348.839 298.617 349.52 298.339 350.052 297.781C350.596 297.211 350.869 296.452 350.869 295.505C350.869 294.546 350.596 293.787 350.052 293.23C349.52 292.659 348.839 292.374 348.009 292.374ZM361.834 298.54V300.893H360.395C359.189 300.893 358.262 300.601 357.614 300.018C356.978 299.434 356.661 298.462 356.661 297.1V292.432H355.163V290.118H356.661V287.453H359.403V290.118H361.815V292.432H359.403V297.139C359.403 297.658 359.507 298.021 359.714 298.228C359.922 298.436 360.272 298.54 360.765 298.54H361.834ZM363.496 287.025C363.496 286.584 363.652 286.228 363.963 285.955C364.274 285.67 364.683 285.527 365.189 285.527C365.694 285.527 366.103 285.67 366.414 285.955C366.725 286.228 366.881 286.584 366.881 287.025C366.881 287.453 366.725 287.81 366.414 288.095C366.103 288.367 365.694 288.503 365.189 288.503C364.683 288.503 364.274 288.367 363.963 288.095C363.652 287.81 363.496 287.453 363.496 287.025ZM366.55 290.118V300.893H363.808V290.118H366.55ZM379.165 295.097C379.165 295.369 379.132 295.68 379.067 296.031H371.171C371.21 296.99 371.469 297.697 371.949 298.151C372.428 298.604 373.025 298.831 373.738 298.831C374.373 298.831 374.899 298.676 375.314 298.365C375.741 298.053 376.014 297.632 376.13 297.1H379.028C378.886 297.852 378.581 298.527 378.114 299.123C377.648 299.72 377.045 300.186 376.305 300.524C375.579 300.861 374.769 301.029 373.874 301.029C372.824 301.029 371.89 300.809 371.073 300.368C370.256 299.914 369.621 299.272 369.167 298.442C368.713 297.612 368.487 296.633 368.487 295.505C368.487 294.377 368.713 293.398 369.167 292.568C369.621 291.726 370.256 291.084 371.073 290.643C371.89 290.202 372.824 289.982 373.874 289.982C374.937 289.982 375.865 290.202 376.656 290.643C377.46 291.084 378.075 291.693 378.503 292.471C378.944 293.236 379.165 294.111 379.165 295.097ZM376.403 294.825C376.442 293.943 376.208 293.275 375.703 292.821C375.21 292.367 374.6 292.141 373.874 292.141C373.135 292.141 372.513 292.367 372.007 292.821C371.501 293.275 371.223 293.943 371.171 294.825H376.403ZM387.53 289.962C388.775 289.962 389.767 290.371 390.506 291.187C391.245 292.004 391.615 293.152 391.615 294.63V300.893H388.892V294.941C388.892 294.086 388.671 293.424 388.23 292.957C387.789 292.478 387.186 292.238 386.421 292.238C385.643 292.238 385.021 292.491 384.554 292.996C384.087 293.502 383.854 294.228 383.854 295.175V300.893H381.111V290.118H383.854V292.277C384.139 291.551 384.606 290.986 385.254 290.584C385.916 290.17 386.674 289.962 387.53 289.962ZM399.785 298.54V300.893H398.346C397.14 300.893 396.212 300.601 395.564 300.018C394.929 299.434 394.611 298.462 394.611 297.1V292.432H393.113V290.118H394.611V287.453H397.354V290.118H399.765V292.432H397.354V297.139C397.354 297.658 397.457 298.021 397.665 298.228C397.872 298.436 398.222 298.54 398.715 298.54H399.785ZM405.473 289.982C406.783 289.982 407.833 290.312 408.624 290.973C409.415 291.635 409.908 292.517 410.102 293.619H407.535C407.431 293.1 407.198 292.685 406.835 292.374C406.472 292.063 405.998 291.907 405.415 291.907C404.948 291.907 404.585 292.017 404.326 292.238C404.066 292.458 403.937 292.756 403.937 293.132C403.937 293.431 404.04 293.671 404.248 293.852C404.455 294.034 404.715 294.176 405.026 294.28C405.337 294.384 405.784 294.507 406.368 294.65C407.185 294.831 407.846 295.026 408.352 295.233C408.871 295.428 409.311 295.745 409.674 296.186C410.051 296.614 410.239 297.198 410.239 297.937C410.239 298.857 409.875 299.603 409.149 300.173C408.436 300.744 407.47 301.029 406.251 301.029C404.851 301.029 403.729 300.718 402.886 300.096C402.044 299.46 401.531 298.559 401.35 297.392H403.976C404.04 297.924 404.274 298.345 404.676 298.656C405.078 298.955 405.603 299.104 406.251 299.104C406.718 299.104 407.075 298.993 407.321 298.773C407.567 298.54 407.691 298.241 407.691 297.878C407.691 297.567 407.58 297.314 407.36 297.12C407.152 296.925 406.887 296.776 406.562 296.672C406.251 296.569 405.804 296.445 405.22 296.303C404.416 296.121 403.762 295.94 403.256 295.758C402.763 295.564 402.335 295.259 401.972 294.844C401.622 294.429 401.447 293.859 401.447 293.132C401.447 292.199 401.804 291.44 402.517 290.857C403.23 290.273 404.215 289.982 405.473 289.982Z" fill="white"/>
<g clip-path="url(#clip3_116_12475)">
<path d="M294.74 119.467L310.635 111.375V128.808L294.7 136.672L294.74 119.467ZM274.667 107.746L292.423 99.5503L308.691 107.757L292.698 115.899L274.667 107.746ZM292.293 95.1292L268.748 106.217L268.79 117.167L272.845 119.185L272.814 111.012L290.602 119.511L290.561 136.943L272.845 127.756L272.832 124.287L268.748 122.255L268.779 130.285L292.256 142.46L314.733 131.368V106.242L292.293 95.1292Z" fill="white"/>
<g opacity="0.75">
<path d="M306.985 135.226L300.156 138.485L300.07 131.787L306.985 128.344V135.226Z" fill="white"/>
</g>
<g opacity="0.75">
<path d="M276.032 102.72L283.778 99.0775L306.993 110.566L307 117.889L300.163 120.878V114.417L276.032 102.72Z" fill="white"/>
</g>
</g>
<path d="M253.474 167.543L257.15 178.415L260.845 167.543H263.782L258.92 181.275H255.399L250.537 167.543H253.474ZM275.395 175.478C275.395 175.751 275.363 176.062 275.298 176.412H267.401C267.44 177.372 267.7 178.078 268.179 178.532C268.659 178.986 269.256 179.213 269.969 179.213C270.604 179.213 271.129 179.057 271.544 178.746C271.972 178.435 272.245 178.013 272.361 177.482H275.259C275.117 178.234 274.812 178.908 274.345 179.505C273.878 180.101 273.275 180.568 272.536 180.905C271.81 181.242 271 181.411 270.105 181.411C269.055 181.411 268.121 181.19 267.304 180.749C266.487 180.296 265.852 179.654 265.398 178.824C264.944 177.994 264.717 177.015 264.717 175.887C264.717 174.759 264.944 173.78 265.398 172.95C265.852 172.107 266.487 171.465 267.304 171.024C268.121 170.583 269.055 170.363 270.105 170.363C271.168 170.363 272.095 170.583 272.886 171.024C273.69 171.465 274.306 172.075 274.734 172.853C275.175 173.618 275.395 174.493 275.395 175.478ZM272.634 175.206C272.672 174.324 272.439 173.657 271.933 173.203C271.441 172.749 270.831 172.522 270.105 172.522C269.366 172.522 268.744 172.749 268.238 173.203C267.732 173.657 267.453 174.324 267.401 175.206H272.634ZM283.761 170.344C285.006 170.344 285.998 170.752 286.737 171.569C287.476 172.386 287.845 173.533 287.845 175.012V181.275H285.122V175.323C285.122 174.467 284.902 173.806 284.461 173.339C284.02 172.859 283.417 172.619 282.652 172.619C281.874 172.619 281.252 172.872 280.785 173.378C280.318 173.883 280.085 174.61 280.085 175.556V181.275H277.342V170.499H280.085V172.658C280.37 171.932 280.837 171.368 281.485 170.966C282.146 170.551 282.905 170.344 283.761 170.344ZM294.479 170.363C295.387 170.363 296.158 170.577 296.794 171.005C297.442 171.433 297.909 172.01 298.194 172.736V166.881H300.917V181.275H298.194V179.018C297.909 179.744 297.442 180.328 296.794 180.769C296.158 181.197 295.387 181.411 294.479 181.411C293.571 181.411 292.755 181.19 292.028 180.749C291.302 180.309 290.732 179.673 290.317 178.843C289.915 178 289.714 177.015 289.714 175.887C289.714 174.759 289.915 173.78 290.317 172.95C290.732 172.107 291.302 171.465 292.028 171.024C292.755 170.583 293.571 170.363 294.479 170.363ZM295.335 172.755C294.479 172.755 293.792 173.034 293.273 173.592C292.755 174.149 292.495 174.914 292.495 175.887C292.495 176.859 292.755 177.624 293.273 178.182C293.792 178.727 294.479 178.999 295.335 178.999C296.165 178.999 296.846 178.72 297.377 178.163C297.922 177.592 298.194 176.833 298.194 175.887C298.194 174.927 297.922 174.169 297.377 173.611C296.846 173.041 296.165 172.755 295.335 172.755ZM308.382 170.363C309.432 170.363 310.372 170.583 311.202 171.024C312.045 171.465 312.706 172.107 313.186 172.95C313.666 173.78 313.906 174.759 313.906 175.887C313.906 177.015 313.666 177.994 313.186 178.824C312.706 179.654 312.045 180.296 311.202 180.749C310.372 181.19 309.432 181.411 308.382 181.411C307.331 181.411 306.385 181.19 305.542 180.749C304.712 180.296 304.057 179.654 303.578 178.824C303.098 177.994 302.858 177.015 302.858 175.887C302.858 174.759 303.098 173.78 303.578 172.95C304.057 172.107 304.712 171.465 305.542 171.024C306.385 170.583 307.331 170.363 308.382 170.363ZM308.382 172.736C307.617 172.736 306.968 173.008 306.437 173.553C305.905 174.084 305.639 174.862 305.639 175.887C305.639 176.911 305.905 177.696 306.437 178.24C306.968 178.772 307.617 179.038 308.382 179.038C309.147 179.038 309.795 178.772 310.327 178.24C310.858 177.696 311.124 176.911 311.124 175.887C311.124 174.862 310.858 174.084 310.327 173.553C309.795 173.008 309.147 172.736 308.382 172.736ZM318.586 172.561C318.988 171.874 319.52 171.336 320.181 170.947C320.842 170.545 321.582 170.344 322.398 170.344V173.281H321.601C319.591 173.281 318.586 174.214 318.586 176.081V181.275H315.844V170.499H318.586V172.561ZM327.631 170.363C328.941 170.363 329.991 170.694 330.782 171.355C331.573 172.016 332.066 172.898 332.26 174H329.693C329.589 173.482 329.356 173.067 328.993 172.755C328.63 172.444 328.156 172.289 327.573 172.289C327.106 172.289 326.743 172.399 326.484 172.619C326.224 172.84 326.095 173.138 326.095 173.514C326.095 173.812 326.198 174.052 326.406 174.234C326.613 174.415 326.873 174.558 327.184 174.661C327.495 174.765 327.942 174.888 328.526 175.031C329.343 175.213 330.004 175.407 330.51 175.615C331.029 175.809 331.469 176.127 331.832 176.568C332.209 176.996 332.397 177.579 332.397 178.318C332.397 179.239 332.033 179.984 331.307 180.555C330.594 181.125 329.628 181.411 328.409 181.411C327.009 181.411 325.887 181.099 325.044 180.477C324.202 179.842 323.689 178.941 323.508 177.774H326.134C326.198 178.305 326.432 178.727 326.834 179.038C327.236 179.336 327.761 179.485 328.409 179.485C328.876 179.485 329.233 179.375 329.479 179.154C329.725 178.921 329.849 178.623 329.849 178.26C329.849 177.949 329.738 177.696 329.518 177.501C329.31 177.307 329.045 177.158 328.72 177.054C328.409 176.95 327.962 176.827 327.378 176.684C326.574 176.503 325.92 176.321 325.414 176.14C324.921 175.945 324.493 175.64 324.13 175.226C323.78 174.811 323.605 174.24 323.605 173.514C323.605 172.58 323.962 171.822 324.675 171.238C325.388 170.655 326.373 170.363 327.631 170.363Z" fill="white"/>
<g clip-path="url(#clip4_116_12475)">
<path d="M317.618 392.069H297.929C293.441 392.069 289.79 388.418 289.79 383.93V367.883C289.79 363.395 293.441 359.743 297.929 359.743H317.618C322.107 359.743 325.758 363.395 325.758 367.883V373.858H321.66V367.883C321.66 365.654 319.847 363.841 317.618 363.841H297.929C295.7 363.841 293.887 365.654 293.887 367.883V383.93C293.887 386.159 295.7 387.972 297.929 387.972H317.618C319.847 387.972 321.66 386.159 321.66 383.93V377.955H325.758V383.93C325.758 388.418 322.107 392.069 317.618 392.069Z" fill="white"/>
<g opacity="0.75">
<path d="M313.257 382.048H301.837C298.453 382.048 295.709 379.305 295.709 375.921V375.884C295.709 372.499 298.453 369.755 301.838 369.755H313.257C316.641 369.755 319.385 372.499 319.385 375.883V375.92C319.385 379.305 316.641 382.048 313.257 382.048ZM299.807 375.857V375.946C299.807 377.053 300.705 377.951 301.812 377.951H313.283C314.39 377.951 315.287 377.053 315.287 375.946V375.857C315.287 374.75 314.39 373.853 313.283 373.853H301.812C300.705 373.853 299.807 374.75 299.807 375.857Z" fill="white"/>
</g>
<path d="M309.82 369.753H305.723V382.046H309.82V369.753Z" fill="white"/>
<path d="M318.475 358.831H296.621V349.269H318.475V358.831ZM300.719 354.733H314.377V353.367H300.719V354.733Z" fill="white"/>
<g opacity="0.75">
<path d="M313.922 363.848H301.629V354.742H313.922V363.848ZM305.727 359.75H309.824V358.839H305.727V359.75Z" fill="white"/>
</g>
</g>
<path d="M249.12 428.062V433.158H246.377V419.426H251.376C252.997 419.426 254.216 419.815 255.032 420.593C255.862 421.371 256.277 422.428 256.277 423.764C256.277 425.073 255.849 426.117 254.994 426.895C254.151 427.673 252.945 428.062 251.376 428.062H249.12ZM251.084 425.864C252.692 425.864 253.496 425.164 253.496 423.764C253.496 423.077 253.308 422.551 252.932 422.188C252.556 421.825 251.94 421.644 251.084 421.644H249.12V425.864H251.084ZM264.477 422.227C265.722 422.227 266.714 422.636 267.453 423.453C268.192 424.27 268.562 425.417 268.562 426.895V433.158H265.839V427.207C265.839 426.351 265.618 425.689 265.177 425.223C264.736 424.743 264.134 424.503 263.368 424.503C262.59 424.503 261.968 424.756 261.501 425.262C261.034 425.767 260.801 426.493 260.801 427.44V433.158H258.059V418.765H260.801V424.542C261.086 423.816 261.553 423.252 262.201 422.85C262.863 422.435 263.621 422.227 264.477 422.227ZM275.195 422.247C276.103 422.247 276.881 422.461 277.529 422.889C278.178 423.316 278.638 423.894 278.91 424.62V422.383H281.633V433.158H278.91V430.902C278.638 431.628 278.178 432.212 277.529 432.653C276.881 433.08 276.103 433.294 275.195 433.294C274.288 433.294 273.471 433.074 272.745 432.633C272.019 432.192 271.448 431.557 271.033 430.727C270.631 429.884 270.43 428.899 270.43 427.771C270.43 426.642 270.631 425.663 271.033 424.834C271.448 423.991 272.019 423.349 272.745 422.908C273.471 422.467 274.288 422.247 275.195 422.247ZM276.051 424.639C275.195 424.639 274.508 424.918 273.989 425.475C273.471 426.033 273.211 426.798 273.211 427.771C273.211 428.743 273.471 429.508 273.989 430.066C274.508 430.61 275.195 430.883 276.051 430.883C276.881 430.883 277.562 430.604 278.093 430.046C278.638 429.476 278.91 428.717 278.91 427.771C278.91 426.811 278.638 426.052 278.093 425.495C277.562 424.924 276.881 424.639 276.051 424.639ZM286.861 424.445C287.263 423.757 287.795 423.219 288.456 422.83C289.117 422.428 289.857 422.227 290.673 422.227V425.164H289.876C287.866 425.164 286.861 426.098 286.861 427.965V433.158H284.119V422.383H286.861V424.445ZM305.904 422.227C307.213 422.227 308.244 422.636 308.996 423.453C309.761 424.257 310.144 425.404 310.144 426.895V433.158H307.421V427.207C307.421 426.377 307.207 425.741 306.779 425.3C306.364 424.847 305.787 424.62 305.048 424.62C304.283 424.62 303.673 424.86 303.22 425.339C302.766 425.819 302.539 426.519 302.539 427.44V433.158H299.816V427.207C299.816 426.377 299.602 425.741 299.174 425.3C298.759 424.847 298.182 424.62 297.443 424.62C296.678 424.62 296.068 424.86 295.615 425.339C295.161 425.819 294.934 426.519 294.934 427.44V433.158H292.191V422.383H294.934V424.425C295.219 423.725 295.666 423.187 296.276 422.811C296.898 422.422 297.618 422.227 298.435 422.227C299.304 422.227 300.056 422.435 300.691 422.85C301.339 423.265 301.826 423.861 302.15 424.639C302.487 423.9 302.986 423.316 303.647 422.889C304.322 422.448 305.074 422.227 305.904 422.227ZM316.774 422.247C317.682 422.247 318.46 422.461 319.108 422.889C319.756 423.316 320.217 423.894 320.489 424.62V422.383H323.212V433.158H320.489V430.902C320.217 431.628 319.756 432.212 319.108 432.653C318.46 433.08 317.682 433.294 316.774 433.294C315.866 433.294 315.049 433.074 314.323 432.633C313.597 432.192 313.026 431.557 312.612 430.727C312.21 429.884 312.009 428.899 312.009 427.771C312.009 426.642 312.21 425.663 312.612 424.834C313.026 423.991 313.597 423.349 314.323 422.908C315.049 422.467 315.866 422.247 316.774 422.247ZM317.63 424.639C316.774 424.639 316.087 424.918 315.568 425.475C315.049 426.033 314.79 426.798 314.79 427.771C314.79 428.743 315.049 429.508 315.568 430.066C316.087 430.61 316.774 430.883 317.63 430.883C318.46 430.883 319.14 430.604 319.672 430.046C320.217 429.476 320.489 428.717 320.489 427.771C320.489 426.811 320.217 426.052 319.672 425.495C319.14 424.924 318.46 424.639 317.63 424.639ZM330.54 422.247C331.928 422.247 333.082 422.623 334.002 423.375C334.936 424.127 335.52 425.151 335.753 426.448H332.855C332.738 425.877 332.472 425.43 332.057 425.106C331.642 424.769 331.117 424.6 330.482 424.6C329.756 424.6 329.146 424.873 328.654 425.417C328.174 425.949 327.934 426.733 327.934 427.771C327.934 428.808 328.174 429.599 328.654 430.143C329.146 430.675 329.756 430.941 330.482 430.941C331.117 430.941 331.642 430.779 332.057 430.455C332.472 430.118 332.738 429.664 332.855 429.093H335.753C335.52 430.39 334.936 431.414 334.002 432.166C333.082 432.918 331.928 433.294 330.54 433.294C329.49 433.294 328.556 433.074 327.739 432.633C326.923 432.179 326.287 431.537 325.833 430.708C325.38 429.878 325.153 428.899 325.153 427.771C325.153 426.642 325.38 425.663 325.833 424.834C326.287 423.991 326.923 423.349 327.739 422.908C328.556 422.467 329.49 422.247 330.54 422.247ZM337.39 419.29C337.39 418.849 337.546 418.493 337.857 418.221C338.168 417.935 338.577 417.793 339.083 417.793C339.588 417.793 339.997 417.935 340.308 418.221C340.619 418.493 340.775 418.849 340.775 419.29C340.775 419.718 340.619 420.075 340.308 420.36C339.997 420.632 339.588 420.769 339.083 420.769C338.577 420.769 338.168 420.632 337.857 420.36C337.546 420.075 337.39 419.718 337.39 419.29ZM340.444 422.383V433.158H337.702V422.383H340.444ZM346.64 422.247C347.95 422.247 349 422.577 349.791 423.239C350.582 423.9 351.075 424.782 351.269 425.884H348.702C348.598 425.365 348.365 424.95 348.002 424.639C347.638 424.328 347.165 424.172 346.582 424.172C346.115 424.172 345.752 424.283 345.492 424.503C345.233 424.723 345.103 425.022 345.103 425.398C345.103 425.696 345.207 425.936 345.415 426.117C345.622 426.299 345.881 426.441 346.193 426.545C346.504 426.649 346.951 426.772 347.535 426.915C348.352 427.096 349.013 427.291 349.519 427.498C350.037 427.693 350.478 428.01 350.841 428.451C351.217 428.879 351.405 429.463 351.405 430.202C351.405 431.122 351.042 431.868 350.316 432.439C349.603 433.009 348.637 433.294 347.418 433.294C346.018 433.294 344.896 432.983 344.053 432.361C343.21 431.725 342.698 430.824 342.517 429.657H345.142C345.207 430.189 345.441 430.61 345.843 430.921C346.245 431.22 346.77 431.369 347.418 431.369C347.885 431.369 348.241 431.259 348.488 431.038C348.734 430.805 348.857 430.507 348.857 430.143C348.857 429.832 348.747 429.579 348.527 429.385C348.319 429.19 348.053 429.041 347.729 428.938C347.418 428.834 346.971 428.711 346.387 428.568C345.583 428.386 344.928 428.205 344.423 428.023C343.93 427.829 343.502 427.524 343.139 427.109C342.789 426.694 342.614 426.124 342.614 425.398C342.614 424.464 342.97 423.705 343.684 423.122C344.397 422.538 345.382 422.247 346.64 422.247ZM359.205 430.805V433.158H357.766C356.56 433.158 355.633 432.867 354.984 432.283C354.349 431.7 354.031 430.727 354.031 429.365V424.697H352.534V422.383H354.031V419.718H356.774V422.383H359.186V424.697H356.774V429.404C356.774 429.923 356.878 430.286 357.085 430.494C357.293 430.701 357.643 430.805 358.135 430.805H359.205ZM364.894 422.247C366.203 422.247 367.253 422.577 368.044 423.239C368.835 423.9 369.328 424.782 369.523 425.884H366.955C366.852 425.365 366.618 424.95 366.255 424.639C365.892 424.328 365.419 424.172 364.835 424.172C364.368 424.172 364.005 424.283 363.746 424.503C363.487 424.723 363.357 425.022 363.357 425.398C363.357 425.696 363.461 425.936 363.668 426.117C363.876 426.299 364.135 426.441 364.446 426.545C364.757 426.649 365.205 426.772 365.788 426.915C366.605 427.096 367.266 427.291 367.772 427.498C368.291 427.693 368.732 428.01 369.095 428.451C369.471 428.879 369.659 429.463 369.659 430.202C369.659 431.122 369.296 431.868 368.57 432.439C367.856 433.009 366.89 433.294 365.672 433.294C364.271 433.294 363.149 432.983 362.307 432.361C361.464 431.725 360.952 430.824 360.77 429.657H363.396C363.461 430.189 363.694 430.61 364.096 430.921C364.498 431.22 365.023 431.369 365.672 431.369C366.138 431.369 366.495 431.259 366.741 431.038C366.988 430.805 367.111 430.507 367.111 430.143C367.111 429.832 367.001 429.579 366.78 429.385C366.573 429.19 366.307 429.041 365.983 428.938C365.672 428.834 365.224 428.711 364.641 428.568C363.837 428.386 363.182 428.205 362.676 428.023C362.183 427.829 361.756 427.524 361.392 427.109C361.042 426.694 360.867 426.124 360.867 425.398C360.867 424.464 361.224 423.705 361.937 423.122C362.65 422.538 363.636 422.247 364.894 422.247Z" fill="white"/>
<defs>
<clipPath id="clip0_116_12475">
<rect width="41.2044" height="45.1868" fill="white" transform="translate(137.41 96.1787)"/>
</clipPath>
<clipPath id="clip1_116_12475">
<rect width="32.5768" height="31.5081" fill="white" transform="translate(145.614 354.911)"/>
</clipPath>
<clipPath id="clip2_116_12475">
<rect width="32.5863" height="39.6124" fill="white" transform="translate(66.3572 218.596)"/>
</clipPath>
<clipPath id="clip3_116_12475">
<rect width="45.985" height="47.3305" fill="white" transform="translate(268.739 95.1226)"/>
</clipPath>
<clipPath id="clip4_116_12475">
<rect width="35.9684" height="42.7978" fill="white" transform="translate(289.794 349.253)"/>
</clipPath>
</defs>
</svg>
