<svg width="120" height="120" viewBox="0 0 120 120" fill="none" xmlns="http://www.w3.org/2000/svg">
<rect x="0.5" y="0.5" width="119" height="119" rx="59.5" fill="#F9FCEE"/>
<path d="M77 30H38C36.3431 30 35 31.3431 35 33V87C35 88.6569 36.3431 90 38 90H77C78.6569 90 80 88.6569 80 87V33C80 31.3431 78.6569 30 77 30Z" fill="white"/>
<path d="M80 38H85C85.7956 38 86.5587 38.3161 87.1213 38.8787C87.6839 39.4413 88 40.2044 88 41V49C88 49.7956 87.6839 50.5587 87.1213 51.1213C86.5587 51.6839 85.7956 52 85 52H80V38ZM80 52H85C85.7956 52 86.5587 52.3161 87.1213 52.8787C87.6839 53.4413 88 54.2044 88 55V63C88 63.7956 87.6839 64.5587 87.1213 65.1213C86.5587 65.6839 85.7956 66 85 66H80V52ZM80 66H85C85.7956 66 86.5587 66.3161 87.1213 66.8787C87.6839 67.4413 88 68.2044 88 69V77C88 77.7956 87.6839 78.5587 87.1213 79.1213C86.5587 79.6839 85.7956 80 85 80H80V66ZM57 54C57 55.3261 56.4732 56.5979 55.5355 57.5355C54.5979 58.4732 53.3261 59 52 59C50.6739 59 49.4021 58.4732 48.4645 57.5355C47.5268 56.5979 47 55.3261 47 54C47 52.6739 47.5268 51.4021 48.4645 50.4645C49.4021 49.5268 50.6739 49 52 49L57 54ZM71 68C71 69.3261 70.4732 70.5979 69.5355 71.5355C68.5979 72.4732 67.3261 73 66 73C64.6739 73 63.4021 72.4732 62.4645 71.5355C61.5268 70.5979 61 69.3261 61 68C61 66.6739 61.5268 65.4021 62.4645 64.4645C63.4021 63.5268 64.6739 63 66 63L71 68Z" fill="#A9CF3D"/>
<path d="M85 36H82V33C81.9984 31.6744 81.4712 30.4035 80.5338 29.4662C79.5965 28.5288 78.3256 28.0016 77 28H38C36.6744 28.0016 35.4035 28.5288 34.4662 29.4662C33.5288 30.4035 33.0016 31.6744 33 33V41H32C31.4696 41 30.9609 41.2107 30.5858 41.5858C30.2107 41.9609 30 42.4696 30 43C30 43.5304 30.2107 44.0391 30.5858 44.4142C30.9609 44.7893 31.4696 45 32 45H33V52H32C31.4696 52 30.9609 52.2107 30.5858 52.5858C30.2107 52.9609 30 53.4696 30 54C30 54.5304 30.2107 55.0391 30.5858 55.4142C30.9609 55.7893 31.4696 56 32 56H33V64H32C31.4696 64 30.9609 64.2107 30.5858 64.5858C30.2107 64.9609 30 65.4696 30 66C30 66.5304 30.2107 67.0391 30.5858 67.4142C30.9609 67.7893 31.4696 68 32 68H33V75H32C31.4696 75 30.9609 75.2107 30.5858 75.5858C30.2107 75.9609 30 76.4696 30 77C30 77.5304 30.2107 78.0391 30.5858 78.4142C30.9609 78.7893 31.4696 79 32 79H33V87C33.0016 88.3256 33.5288 89.5965 34.4662 90.5338C35.4035 91.4712 36.6744 91.9984 38 92H77C78.3256 91.9984 79.5965 91.4712 80.5338 90.5338C81.4712 89.5965 81.9984 88.3256 82 87V82H85C86.3256 81.9984 87.5965 81.4712 88.5338 80.5338C89.4712 79.5965 89.9984 78.3256 90 77V69C89.9962 67.9146 89.6359 66.8606 88.9744 66C89.6359 65.1394 89.9962 64.0854 90 63V55C89.9962 53.9146 89.6359 52.8606 88.9744 52C89.6359 51.1394 89.9962 50.0854 90 49V41C89.9984 39.6744 89.4712 38.4035 88.5338 37.4662C87.5965 36.5288 86.3256 36.0016 85 36ZM85 40C85.2651 40.0003 85.5193 40.1058 85.7067 40.2933C85.8942 40.4807 85.9997 40.7349 86 41V49C85.9997 49.2651 85.8942 49.5193 85.7067 49.7067C85.5193 49.8942 85.2651 49.9997 85 50H82V40H85ZM86 55V63C85.9997 63.2651 85.8942 63.5193 85.7067 63.7067C85.5193 63.8942 85.2651 63.9997 85 64H82V54H85C85.2651 54.0003 85.5193 54.1058 85.7067 54.2933C85.8942 54.4807 85.9997 54.7349 86 55ZM78 87C77.9997 87.2651 77.8942 87.5193 77.7067 87.7067C77.5193 87.8942 77.2651 87.9997 77 88H38C37.7349 87.9997 37.4807 87.8942 37.2933 87.7067C37.1058 87.5193 37.0003 87.2651 37 87V79H38C38.5304 79 39.0391 78.7893 39.4142 78.4142C39.7893 78.0391 40 77.5304 40 77C40 76.4696 39.7893 75.9609 39.4142 75.5858C39.0391 75.2107 38.5304 75 38 75H37V68H38C38.5304 68 39.0391 67.7893 39.4142 67.4142C39.7893 67.0391 40 66.5304 40 66C40 65.4696 39.7893 64.9609 39.4142 64.5858C39.0391 64.2107 38.5304 64 38 64H37V56H38C38.5304 56 39.0391 55.7893 39.4142 55.4142C39.7893 55.0391 40 54.5304 40 54C40 53.4696 39.7893 52.9609 39.4142 52.5858C39.0391 52.2107 38.5304 52 38 52H37V45H38C38.5304 45 39.0391 44.7893 39.4142 44.4142C39.7893 44.0391 40 43.5304 40 43C40 42.4696 39.7893 41.9609 39.4142 41.5858C39.0391 41.2107 38.5304 41 38 41H37V33C37.0003 32.7349 37.1058 32.4807 37.2933 32.2933C37.4807 32.1058 37.7349 32.0003 38 32H77C77.2651 32.0003 77.5193 32.1058 77.7067 32.2933C77.8942 32.4807 77.9997 32.7349 78 33V87ZM86 77C85.9997 77.2651 85.8942 77.5193 85.7067 77.7067C85.5193 77.8942 85.2651 77.9997 85 78H82V68H85C85.2651 68.0003 85.5193 68.1058 85.7067 68.2933C85.8942 68.4807 85.9997 68.7349 86 69V77Z" fill="#587E85"/>
<path d="M64 40C64.5253 39.9922 65.0264 39.778 65.3952 39.4038C65.7639 39.0296 65.9705 38.5253 65.9705 38C65.9705 37.4746 65.7638 36.9703 65.3951 36.5961C65.0264 36.2219 64.5252 36.0078 63.9999 36C63.4746 36.0078 62.9735 36.222 62.6048 36.5962C62.2361 36.9704 62.0294 37.4747 62.0294 38C62.0294 38.5254 62.2361 39.0297 62.6048 39.4039C62.9736 39.7781 63.4747 39.9922 64 40ZM72 36C71.4745 36.0074 70.973 36.2214 70.604 36.5957C70.235 36.97 70.0281 37.4745 70.0281 38C70.0281 38.5256 70.235 39.0301 70.604 39.4043C70.9731 39.7786 71.4746 39.9926 72.0001 40C72.5256 39.9926 73.0271 39.7786 73.3961 39.4043C73.7651 39.03 73.972 38.5255 73.972 38C73.972 37.4744 73.7651 36.9699 73.3961 36.5957C73.027 36.2214 72.5255 36.0074 72 36ZM67.4141 61.5859C67.039 61.2109 66.5304 61.0001 66 61C64.5655 61.0025 63.1664 61.4453 61.9917 62.2686C60.817 63.0919 59.9234 64.2559 59.4316 65.6035L54.3966 60.5685C55.7441 60.0766 56.9082 59.183 57.7314 58.0083C58.5547 56.8336 58.9975 55.4345 59 54C58.9999 53.4696 58.7891 52.961 58.4141 52.5859L53.4141 47.5859C53.039 47.2109 52.5304 47.0001 52 47C50.5491 46.9987 49.1337 47.4487 47.9499 48.2877C46.7661 49.1266 45.8726 50.3129 45.393 51.6823C44.9135 53.0517 44.8717 54.5363 45.2735 55.9305C45.6753 57.3247 46.5007 58.5594 47.6354 59.4636L60.5364 72.3646C61.4406 73.4993 62.6753 74.3248 64.0695 74.7265C65.4637 75.1283 66.9483 75.0865 68.3177 74.607C69.6871 74.1275 70.8734 73.2339 71.7124 72.0501C72.5513 70.8663 73.0013 69.4509 73 68C72.9999 67.4696 72.7891 66.961 72.4141 66.5859L67.4141 61.5859ZM51.2632 51.0913L54.9087 54.7368C54.7785 55.2507 54.5144 55.7209 54.1434 56.0995C53.7724 56.4782 53.3076 56.7518 52.7965 56.8924C52.2854 57.0331 51.7461 57.0359 51.2336 56.9004C50.7211 56.7649 50.2536 56.4961 49.8788 56.1212C49.5039 55.7464 49.2351 55.2789 49.0996 54.7664C48.9642 54.2539 48.9669 53.7146 49.1076 53.2035C49.2482 52.6924 49.5218 52.2277 49.9005 51.8566C50.2791 51.4856 50.7493 51.2216 51.2632 51.0913ZM66 71C65.5218 70.9898 65.0524 70.8696 64.6282 70.6486C64.204 70.4276 63.8365 70.1118 63.5541 69.7258C63.2786 69.3274 63.1031 68.8685 63.0423 68.3879C62.9815 67.9073 63.0373 67.4191 63.2049 66.9647C63.3726 66.5102 63.6471 66.1027 64.0053 65.7766C64.3636 65.4506 64.7951 65.2155 65.2633 65.0914L68.9087 68.7368C68.7438 69.3834 68.3685 69.9567 67.8419 70.3665C67.3153 70.7762 66.6673 70.9991 66 71Z" fill="#587E85"/>
<rect x="0.5" y="0.5" width="119" height="119" rx="59.5" stroke="#A9CF3D"/>
</svg>
