<svg width="162" height="975" viewBox="0 0 162 975" fill="none" xmlns="http://www.w3.org/2000/svg">
<g clip-path="url(#clip0_410_56393)">
<path d="M52.3651 502.386L159.49 546.963L159.49 501.597L130.405 491.126L130.405 474.303L52.3651 502.386Z" fill="#F2F3EF"/>
<path d="M159.493 417.202L159.493 371.315L1.28039 437.386L1.2804 474.166L159.493 417.202Z" fill="#F2F3EF"/>
<path d="M-0.00427246 975L159.229 975L159.229 933.112L77.2937 933.112L107.614 895.229L57.3759 895.229L-0.00427272 968.981L-0.00427246 975Z" fill="#F2F3EF"/>
<path d="M-0.00427566 798.889L57.3129 872.115L107.516 872.115L77.0655 834.528L159.229 834.528L159.229 792.64L-0.00427593 792.64L-0.00427566 798.889Z" fill="#F2F3EF"/>
<path d="M153.548 111.997L115.587 111.997C121.399 100.515 125.692 86.7699 126.81 73.7012C127.212 69.1969 127.212 64.9031 126.989 60.8422C126.14 47.5637 122.696 40.1188 116.214 40.1188C108.032 40.1188 103.917 50.2707 96.763 70.0836C86.8813 97.3644 76.0614 114.937 47.5792 114.937C19.0969 114.937 0.496337 90.3637 0.496335 53.4204C0.496334 37.202 3.53713 20.9582 7.87433 10.1532L44.3601 10.1532C38.5021 19.8379 34.6122 35.1711 34.6122 50.0364C34.6122 64.9016 39.5757 74.3766 47.3556 74.3766C54.6882 74.3766 59.6517 64.9024 66.9843 45.9754C77.3578 18.7176 88.3568 0.00204084 115.99 0.00203963C144.695 0.00203837 161.999 22.5458 161.999 62.8708C161.998 81.3551 158.511 99.8386 153.548 111.997Z" fill="#F2F3EF"/>
<path d="M2.62158 721.636L2.62158 763.745L159.438 763.745L159.438 721.636L2.62158 721.636Z" fill="#F2F3EF"/>
<path d="M2.62158 141.436L2.62158 183.546L159.438 183.546L159.438 141.436L2.62158 141.436Z" fill="#F2F3EF"/>
<path d="M134.811 560.028L95.457 586.644C94.9921 583.851 94.5249 581.06 93.5951 578.267C88.0107 559.656 73.8172 544.766 50.0848 544.766C20.071 544.766 2.62158 568.729 2.62158 603.859L2.62158 692.729L159.438 692.729L159.438 650.62L104.296 650.62L100.574 650.62L70.0955 650.62L57.7656 650.62L34.0332 650.62L34.0332 609.442C34.0332 595.018 41.7109 587.807 51.2498 587.807C63.1148 587.807 70.0955 595.484 70.0955 610.141L70.0955 628.153L101.19 628.153L159.439 593.39L159.439 570.163L134.811 560.028Z" fill="#F2F3EF"/>
<path d="M36.7121 294.723L2.62158 318.001L2.62158 370.113L80.333 313.582L139.512 356.397L159.438 348.054L159.438 319.63L125.843 295.449L36.7121 294.723Z" fill="#F2F3EF"/>
<path d="M80.3322 255.42L2.62158 198.655L2.62158 250.069L36.6621 273.727L125.992 273.724L159.438 250.535L159.438 198.422L80.3322 255.42Z" fill="#F2F3EF"/>
<path d="M159.512 417.203L1.30078 474.166L1.38762 481.411L22.7047 490.07L159.512 438.544L159.512 417.203Z" fill="#D4E79E"/>
</g>
<defs>
<clipPath id="clip0_410_56393">
<rect width="975" height="162" fill="white" transform="translate(0 975) rotate(-90)"/>
</clipPath>
</defs>
</svg>
