<svg width="80" height="80" viewBox="0 0 80 80" fill="none" xmlns="http://www.w3.org/2000/svg">
<path d="M49.1934 29.875L40.3039 30.5352H31.3672" fill="white"/>
<path d="M49.182 33.176L31.3672 33.1449L31.3772 27.2344L49.1922 27.2654L49.182 33.176Z" fill="#A9CF3D"/>
<path d="M39.9531 38.5865L40.6133 30.1549V21.2891" fill="white"/>
<path d="M43.2216 38.4539L37.3125 38.4423L37.3453 21.2891L43.2542 21.3007L43.2216 38.4539Z" fill="#A9CF3D"/>
<path d="M28.8976 68.7044C28.5947 68.7044 28.2906 68.6882 27.9857 68.656C24.7853 68.3186 21.9464 66.2702 20.1958 63.0357C16.6024 56.3954 13.0128 27.0026 22.2764 17.5392C26.0726 13.6608 31.6913 11.3155 37.3073 11.2656L37.3578 17.2074C33.2901 17.2434 29.0842 18.9804 26.3806 21.7398C23.4838 24.6962 21.9705 31.9042 22.2299 41.5159C22.4704 50.4414 24.1531 58.0652 25.2753 60.1367C26.1053 61.6688 27.2792 62.5882 28.5815 62.7255C29.5671 62.8264 30.491 62.4646 31.115 61.7251C32.2468 60.3834 32.1756 57.609 32.1076 54.9256C32.02 51.5022 31.9293 47.9618 34.0913 45.3544C35.6367 43.4906 37.8137 42.4198 40.0645 42.4166H40.0746C42.244 42.4166 44.2718 43.4167 45.787 45.2332C48.061 47.9623 48.1246 51.6974 48.1807 54.9929C48.2273 57.7308 48.2708 60.3164 49.4376 61.6162C50.0611 62.3101 51.0876 62.7127 52.0851 62.6713C52.7368 62.644 53.6639 62.4132 54.3793 61.471C56.8176 58.2594 61.0906 34.531 53.9347 22.8254C51.7236 19.209 46.8855 17.323 43.2491 17.3296H43.2491L43.239 11.3879H43.2681C48.5126 11.3879 55.3585 13.949 58.8587 19.6797C66.9503 32.9295 63.257 59.4776 58.9664 65.1344C57.3428 67.275 54.9838 68.5158 52.325 68.628C49.6052 68.742 46.9325 67.6309 45.1592 65.6538C42.506 62.6964 42.4381 58.6716 42.3776 55.1209C42.3366 52.7042 42.2944 50.2052 41.3662 49.0906C40.9562 48.598 40.533 48.3584 40.0746 48.3584H40.0726C39.5373 48.3591 38.958 48.6737 38.5222 49.1998C37.7892 50.0848 37.8527 52.5881 37.9088 54.7964C38.0014 58.4298 38.1066 62.5475 35.5139 65.6254C33.8576 67.5904 31.4349 68.704 28.8976 68.7044Z" fill="#587E85"/>
</svg>
