<svg width="590" height="678" viewBox="0 0 590 678" fill="none" xmlns="http://www.w3.org/2000/svg">
<path d="M298.992 0.301758L590 169.735L589.999 508.172L298.992 677.603L6 508.172V171.012L298.992 0.301758Z" fill="#711F3C"/>
<path d="M297.875 4.9848V337.892L11.1643 171.112L297.875 4.9848Z" fill="#D81D5B"/>
<path d="M297.875 4.9848V337.892L11.1643 171.112L297.875 4.9848Z" stroke="#711F3C"/>
<path d="M300.586 337.896V4.98926L587.297 171.768L300.586 337.896Z" fill="#902F57"/>
<path d="M300.586 337.896V4.98926L587.297 171.768L300.586 337.896Z" stroke="#711F3C"/>
<path d="M587.297 504.193V174.651L302.6 339.467L587.297 504.193Z" fill="#A662A7"/>
<path d="M587.297 504.193V174.651L302.6 339.467L587.297 504.193Z" stroke="#711F3C"/>
<path d="M297.875 340.381V673.288L9 506.509L297.875 340.381Z" fill="#D81D5B"/>
<path d="M297.875 340.381V673.288L9 506.509L297.875 340.381Z" stroke="#711F3C"/>
<path d="M300.586 673.293V340.386L587.297 507.165L300.586 673.293Z" fill="#D81D5B"/>
<path d="M300.586 673.293V340.386L587.297 507.165L300.586 673.293Z" stroke="#711F3C"/>
<g clip-path="url(#clip0_2638_111310)">
<path d="M206.699 130.025H205.536C203.297 130.025 201.465 128.194 201.465 125.955C201.465 123.716 203.297 121.884 205.536 121.884H206.699C208.938 121.884 210.77 123.716 210.77 125.955C210.77 128.194 208.938 130.025 206.699 130.025Z" fill="white"/>
<path d="M191.58 130.025H190.417C188.178 130.025 186.346 128.194 186.346 125.955C186.346 123.716 188.178 121.884 190.417 121.884H191.58C193.819 121.884 195.65 123.716 195.65 125.955C195.65 128.194 193.819 130.025 191.58 130.025Z" fill="white"/>
<g opacity="0.95">
<path d="M220.033 179.605H203.132C199.174 179.605 196.074 175.376 196.074 169.978V157.216H201.308V169.978C201.308 172.861 202.663 174.372 203.132 174.372H220.033C220.501 174.372 221.856 172.861 221.856 169.978V160.709H227.09V169.978C227.09 175.376 223.99 179.605 220.033 179.605Z" fill="white"/>
</g>
<g opacity="0.75">
<path d="M215.7 126.346C213.266 124.007 209.663 123.557 205.43 123.512V127.785C208.662 127.821 211.294 128.114 212.626 129.393C213.516 130.249 213.949 131.684 213.949 133.78C213.949 138.185 212.072 144.141 209.167 148.953C206.026 154.156 202.238 157.14 198.776 157.14C190.952 157.14 183.603 142.567 183.603 133.78C183.603 131.684 184.036 130.249 184.927 129.393C186.281 128.092 188.978 127.812 192.285 127.784V123.51C187.982 123.545 184.318 123.978 181.853 126.346C180.082 128.048 179.222 130.479 179.222 133.78C179.222 143.487 187.286 161.416 198.776 161.416C210.267 161.416 218.331 143.487 218.331 133.78C218.331 130.479 217.47 128.048 215.7 126.346Z" fill="white"/>
</g>
<g opacity="0.75">
<path d="M224.583 165.353C220.574 165.353 217.313 162.092 217.313 158.084C217.313 154.075 220.574 150.814 224.583 150.814C228.591 150.814 231.852 154.075 231.852 158.084C231.852 162.092 228.591 165.353 224.583 165.353ZM224.583 156.048C223.461 156.048 222.547 156.962 222.547 158.084C222.547 159.206 223.461 160.119 224.583 160.119C225.705 160.119 226.618 159.206 226.618 158.084C226.618 156.962 225.705 156.048 224.583 156.048Z" fill="white"/>
</g>
</g>
<path d="M142.974 223.905V230.414H139.471V212.875H145.856C147.926 212.875 149.483 213.371 150.526 214.365C151.586 215.359 152.116 216.709 152.116 218.415C152.116 220.087 151.57 221.421 150.477 222.414C149.4 223.408 147.86 223.905 145.856 223.905H142.974ZM145.483 221.098C147.537 221.098 148.564 220.203 148.564 218.415C148.564 217.537 148.323 216.866 147.843 216.402C147.363 215.939 146.576 215.707 145.483 215.707H142.974V221.098H145.483ZM162.59 216.452C164.18 216.452 165.447 216.974 166.391 218.017C167.335 219.061 167.807 220.526 167.807 222.414V230.414H164.329V222.812C164.329 221.719 164.047 220.874 163.484 220.278C162.921 219.665 162.151 219.359 161.174 219.359C160.18 219.359 159.385 219.682 158.789 220.328C158.193 220.974 157.894 221.901 157.894 223.11V230.414H154.392V212.03H157.894V219.408C158.259 218.481 158.855 217.76 159.683 217.247C160.528 216.717 161.497 216.452 162.59 216.452ZM173.249 216.651L177.001 225.992L180.479 216.651H184.33L175.908 236.973H172.032L175.137 230.017L169.349 216.651H173.249ZM190.725 216.477C192.398 216.477 193.739 216.899 194.749 217.744C195.76 218.589 196.389 219.715 196.638 221.123H193.358C193.226 220.46 192.928 219.93 192.464 219.533C192 219.135 191.396 218.936 190.65 218.936C190.054 218.936 189.59 219.077 189.259 219.359C188.928 219.64 188.762 220.021 188.762 220.501C188.762 220.882 188.895 221.189 189.16 221.421C189.425 221.653 189.756 221.835 190.153 221.967C190.551 222.1 191.122 222.257 191.868 222.439C192.911 222.671 193.756 222.92 194.402 223.185C195.064 223.433 195.627 223.839 196.091 224.402C196.571 224.948 196.811 225.694 196.811 226.638C196.811 227.814 196.348 228.766 195.42 229.495C194.509 230.224 193.275 230.588 191.719 230.588C189.93 230.588 188.497 230.19 187.421 229.395C186.344 228.584 185.69 227.433 185.458 225.942H188.812C188.895 226.621 189.193 227.16 189.706 227.557C190.22 227.938 190.89 228.128 191.719 228.128C192.315 228.128 192.77 227.988 193.085 227.706C193.4 227.408 193.557 227.027 193.557 226.563C193.557 226.166 193.416 225.843 193.135 225.594C192.87 225.346 192.53 225.156 192.116 225.023C191.719 224.891 191.147 224.733 190.402 224.551C189.375 224.319 188.539 224.087 187.893 223.855C187.263 223.607 186.717 223.218 186.253 222.688C185.806 222.158 185.582 221.429 185.582 220.501C185.582 219.309 186.038 218.34 186.949 217.595C187.859 216.849 189.118 216.477 190.725 216.477ZM199.023 212.701C199.023 212.138 199.222 211.682 199.619 211.334C200.017 210.97 200.538 210.788 201.184 210.788C201.83 210.788 202.352 210.97 202.749 211.334C203.147 211.682 203.346 212.138 203.346 212.701C203.346 213.247 203.147 213.703 202.749 214.067C202.352 214.415 201.83 214.589 201.184 214.589C200.538 214.589 200.017 214.415 199.619 214.067C199.222 213.703 199.023 213.247 199.023 212.701ZM202.923 216.651V230.414H199.42V216.651H202.923ZM212.278 216.477C214.05 216.477 215.524 216.957 216.7 217.918C217.893 218.878 218.638 220.187 218.936 221.843H215.235C215.086 221.114 214.746 220.543 214.216 220.129C213.686 219.698 213.015 219.483 212.204 219.483C211.276 219.483 210.498 219.831 209.868 220.526C209.256 221.205 208.949 222.207 208.949 223.532C208.949 224.857 209.256 225.868 209.868 226.563C210.498 227.242 211.276 227.582 212.204 227.582C213.015 227.582 213.686 227.375 214.216 226.961C214.746 226.53 215.086 225.951 215.235 225.222H218.936C218.638 226.878 217.893 228.186 216.7 229.147C215.524 230.108 214.05 230.588 212.278 230.588C210.937 230.588 209.744 230.306 208.701 229.743C207.657 229.164 206.846 228.344 206.266 227.284C205.686 226.224 205.397 224.973 205.397 223.532C205.397 222.091 205.686 220.841 206.266 219.781C206.846 218.704 207.657 217.885 208.701 217.322C209.744 216.758 210.937 216.477 212.278 216.477ZM221.028 212.701C221.028 212.138 221.227 211.682 221.624 211.334C222.022 210.97 222.543 210.788 223.189 210.788C223.835 210.788 224.357 210.97 224.754 211.334C225.152 211.682 225.351 212.138 225.351 212.701C225.351 213.247 225.152 213.703 224.754 214.067C224.357 214.415 223.835 214.589 223.189 214.589C222.543 214.589 222.022 214.415 221.624 214.067C221.227 213.703 221.028 213.247 221.028 212.701ZM224.928 216.651V230.414H221.425V216.651H224.928ZM233.488 216.477C234.648 216.477 235.641 216.75 236.469 217.297C237.298 217.843 237.886 218.58 238.233 219.508V216.651H241.711V230.414H238.233V227.532C237.886 228.46 237.298 229.205 236.469 229.768C235.641 230.315 234.648 230.588 233.488 230.588C232.329 230.588 231.285 230.306 230.358 229.743C229.43 229.18 228.702 228.369 228.172 227.309C227.658 226.232 227.402 224.973 227.402 223.532C227.402 222.091 227.658 220.841 228.172 219.781C228.702 218.704 229.43 217.885 230.358 217.322C231.285 216.758 232.329 216.477 233.488 216.477ZM234.581 219.533C233.488 219.533 232.61 219.889 231.948 220.601C231.285 221.313 230.954 222.29 230.954 223.532C230.954 224.775 231.285 225.752 231.948 226.464C232.61 227.16 233.488 227.507 234.581 227.507C235.641 227.507 236.511 227.151 237.19 226.439C237.886 225.71 238.233 224.741 238.233 223.532C238.233 222.307 237.886 221.338 237.19 220.626C236.511 219.897 235.641 219.533 234.581 219.533ZM253.084 216.452C254.674 216.452 255.941 216.974 256.885 218.017C257.829 219.061 258.301 220.526 258.301 222.414V230.414H254.823V222.812C254.823 221.719 254.542 220.874 253.979 220.278C253.416 219.665 252.645 219.359 251.668 219.359C250.675 219.359 249.88 219.682 249.283 220.328C248.687 220.974 248.389 221.901 248.389 223.11V230.414H244.886V216.651H248.389V219.408C248.753 218.481 249.35 217.76 250.178 217.247C251.022 216.717 251.991 216.452 253.084 216.452ZM266.129 216.477C267.802 216.477 269.143 216.899 270.153 217.744C271.164 218.589 271.793 219.715 272.042 221.123H268.762C268.63 220.46 268.332 219.93 267.868 219.533C267.404 219.135 266.8 218.936 266.054 218.936C265.458 218.936 264.994 219.077 264.663 219.359C264.332 219.64 264.166 220.021 264.166 220.501C264.166 220.882 264.299 221.189 264.564 221.421C264.829 221.653 265.16 221.835 265.557 221.967C265.955 222.1 266.526 222.257 267.272 222.439C268.315 222.671 269.16 222.92 269.806 223.185C270.468 223.433 271.031 223.839 271.495 224.402C271.975 224.948 272.215 225.694 272.215 226.638C272.215 227.814 271.752 228.766 270.824 229.495C269.913 230.224 268.679 230.588 267.122 230.588C265.334 230.588 263.901 230.19 262.825 229.395C261.748 228.584 261.094 227.433 260.862 225.942H264.216C264.299 226.621 264.597 227.16 265.11 227.557C265.624 227.938 266.294 228.128 267.122 228.128C267.719 228.128 268.174 227.988 268.489 227.706C268.804 227.408 268.961 227.027 268.961 226.563C268.961 226.166 268.82 225.843 268.539 225.594C268.274 225.346 267.934 225.156 267.52 225.023C267.122 224.891 266.551 224.733 265.806 224.551C264.779 224.319 263.943 224.087 263.297 223.855C262.667 223.607 262.121 223.218 261.657 222.688C261.21 222.158 260.986 221.429 260.986 220.501C260.986 219.309 261.442 218.34 262.353 217.595C263.263 216.849 264.522 216.477 266.129 216.477Z" fill="white"/>
<g clip-path="url(#clip1_2638_111310)">
<g opacity="0.75">
<path d="M213.211 479.211H207.978V492.586H213.211V479.211Z" fill="white"/>
</g>
<g opacity="0.75">
<path d="M217.287 483.304H203.911V488.538H217.287V483.304Z" fill="white"/>
</g>
<path d="M210.519 471.871C198.99 471.871 189.622 480.917 189.715 492.002C189.716 492.004 189.717 492.005 189.718 492.006H191.76H194.943H200.639V486.772H195.888C198.078 481.136 203.81 477.105 210.519 477.105C217.228 477.105 222.96 481.136 225.15 486.772H220.411V492.006H226.095H230.075H231.32C231.321 492.005 231.322 492.004 231.323 492.002C231.416 480.917 222.047 471.871 210.519 471.871Z" fill="white"/>
<g opacity="0.75">
<path d="M210.692 477.105C203.588 477.105 197.808 471.549 197.808 464.72C197.808 457.891 203.588 452.335 210.692 452.335C217.796 452.335 223.576 457.891 223.576 464.72C223.576 471.549 217.796 477.105 210.692 477.105ZM210.692 457.569C206.473 457.569 203.042 460.777 203.042 464.72C203.042 468.663 206.473 471.871 210.692 471.871C214.91 471.871 218.342 468.663 218.342 464.72C218.342 460.777 214.91 457.569 210.692 457.569Z" fill="white"/>
</g>
</g>
<path d="M153.082 545.634V552.143H149.579V534.603H155.963C158.034 534.603 159.591 535.1 160.634 536.094C161.694 537.087 162.224 538.437 162.224 540.143C162.224 541.816 161.677 543.149 160.584 544.143C159.508 545.137 157.967 545.634 155.963 545.634H153.082ZM155.591 542.826C157.645 542.826 158.671 541.932 158.671 540.143C158.671 539.265 158.431 538.595 157.951 538.131C157.471 537.667 156.684 537.435 155.591 537.435H153.082V542.826H155.591ZM177.443 544.739C177.443 545.087 177.401 545.485 177.319 545.932H167.232C167.282 547.157 167.613 548.06 168.226 548.64C168.839 549.219 169.601 549.509 170.511 549.509C171.323 549.509 171.994 549.31 172.524 548.913C173.07 548.515 173.418 547.977 173.567 547.298H177.269C177.087 548.259 176.697 549.12 176.101 549.882C175.505 550.644 174.735 551.24 173.791 551.671C172.863 552.101 171.828 552.316 170.685 552.316C169.344 552.316 168.151 552.035 167.108 551.472C166.064 550.892 165.253 550.072 164.673 549.012C164.094 547.952 163.804 546.702 163.804 545.261C163.804 543.82 164.094 542.57 164.673 541.51C165.253 540.433 166.064 539.613 167.108 539.05C168.151 538.487 169.344 538.205 170.685 538.205C172.043 538.205 173.228 538.487 174.238 539.05C175.265 539.613 176.052 540.392 176.598 541.385C177.161 542.363 177.443 543.48 177.443 544.739ZM173.915 544.391C173.965 543.265 173.667 542.412 173.021 541.833C172.391 541.253 171.613 540.963 170.685 540.963C169.741 540.963 168.946 541.253 168.3 541.833C167.654 542.412 167.298 543.265 167.232 544.391H173.915ZM183.432 541.013C183.946 540.135 184.625 539.448 185.47 538.951C186.314 538.437 187.258 538.181 188.302 538.181V541.932H187.283C184.716 541.932 183.432 543.124 183.432 545.509V552.143H179.929V538.379H183.432V541.013ZM194.986 538.205C196.658 538.205 198 538.628 199.01 539.472C200.021 540.317 200.65 541.443 200.898 542.851H197.619C197.487 542.189 197.188 541.659 196.725 541.261C196.261 540.864 195.656 540.665 194.911 540.665C194.315 540.665 193.851 540.806 193.52 541.087C193.189 541.369 193.023 541.75 193.023 542.23C193.023 542.611 193.155 542.917 193.42 543.149C193.685 543.381 194.017 543.563 194.414 543.696C194.812 543.828 195.383 543.986 196.128 544.168C197.172 544.4 198.017 544.648 198.662 544.913C199.325 545.162 199.888 545.567 200.352 546.13C200.832 546.677 201.072 547.422 201.072 548.366C201.072 549.542 200.609 550.495 199.681 551.223C198.77 551.952 197.536 552.316 195.979 552.316C194.191 552.316 192.758 551.919 191.681 551.124C190.605 550.312 189.951 549.161 189.719 547.671H193.073C193.155 548.35 193.454 548.888 193.967 549.286C194.48 549.667 195.151 549.857 195.979 549.857C196.576 549.857 197.031 549.716 197.346 549.435C197.66 549.137 197.818 548.756 197.818 548.292C197.818 547.894 197.677 547.571 197.395 547.323C197.13 547.074 196.791 546.884 196.377 546.752C195.979 546.619 195.408 546.462 194.663 546.28C193.636 546.048 192.799 545.816 192.153 545.584C191.524 545.335 190.978 544.946 190.514 544.416C190.067 543.886 189.843 543.158 189.843 542.23C189.843 541.038 190.298 540.069 191.209 539.323C192.12 538.578 193.379 538.205 194.986 538.205ZM210.041 538.205C211.383 538.205 212.584 538.487 213.644 539.05C214.72 539.613 215.565 540.433 216.178 541.51C216.79 542.57 217.097 543.82 217.097 545.261C217.097 546.702 216.79 547.952 216.178 549.012C215.565 550.072 214.72 550.892 213.644 551.472C212.584 552.035 211.383 552.316 210.041 552.316C208.7 552.316 207.491 552.035 206.414 551.472C205.354 550.892 204.518 550.072 203.905 549.012C203.292 547.952 202.986 546.702 202.986 545.261C202.986 543.82 203.292 542.57 203.905 541.51C204.518 540.433 205.354 539.613 206.414 539.05C207.491 538.487 208.7 538.205 210.041 538.205ZM210.041 541.236C209.064 541.236 208.236 541.584 207.557 542.28C206.878 542.959 206.538 543.952 206.538 545.261C206.538 546.569 206.878 547.571 207.557 548.267C208.236 548.946 209.064 549.286 210.041 549.286C211.018 549.286 211.846 548.946 212.526 548.267C213.205 547.571 213.544 546.569 213.544 545.261C213.544 543.952 213.205 542.959 212.526 542.28C211.846 541.584 211.018 541.236 210.041 541.236ZM227.771 538.181C229.361 538.181 230.628 538.702 231.572 539.746C232.516 540.789 232.988 542.255 232.988 544.143V552.143H229.51V544.54C229.51 543.447 229.228 542.603 228.665 542.006C228.102 541.394 227.332 541.087 226.355 541.087C225.361 541.087 224.566 541.41 223.97 542.056C223.373 542.702 223.075 543.63 223.075 544.839V552.143H219.572V538.379H223.075V541.137C223.44 540.209 224.036 539.489 224.864 538.976C225.709 538.446 226.678 538.181 227.771 538.181ZM244.268 538.181C245.858 538.181 247.125 538.702 248.069 539.746C249.014 540.789 249.486 542.255 249.486 544.143V552.143H246.007V544.54C246.007 543.447 245.726 542.603 245.163 542.006C244.6 541.394 243.829 541.087 242.852 541.087C241.859 541.087 241.064 541.41 240.467 542.056C239.871 542.702 239.573 543.63 239.573 544.839V552.143H236.07V538.379H239.573V541.137C239.937 540.209 240.534 539.489 241.362 538.976C242.206 538.446 243.175 538.181 244.268 538.181ZM265.511 544.739C265.511 545.087 265.47 545.485 265.387 545.932H255.3C255.35 547.157 255.681 548.06 256.294 548.64C256.907 549.219 257.669 549.509 258.58 549.509C259.391 549.509 260.062 549.31 260.592 548.913C261.139 548.515 261.487 547.977 261.636 547.298H265.337C265.155 548.259 264.766 549.12 264.17 549.882C263.573 550.644 262.803 551.24 261.859 551.671C260.932 552.101 259.897 552.316 258.754 552.316C257.412 552.316 256.22 552.035 255.176 551.472C254.133 550.892 253.321 550.072 252.742 549.012C252.162 547.952 251.872 546.702 251.872 545.261C251.872 543.82 252.162 542.57 252.742 541.51C253.321 540.433 254.133 539.613 255.176 539.05C256.22 538.487 257.412 538.205 258.754 538.205C260.112 538.205 261.296 538.487 262.306 539.05C263.333 539.613 264.12 540.392 264.666 541.385C265.23 542.363 265.511 543.48 265.511 544.739ZM261.983 544.391C262.033 543.265 261.735 542.412 261.089 541.833C260.46 541.253 259.681 540.963 258.754 540.963C257.81 540.963 257.015 541.253 256.369 541.833C255.723 542.412 255.367 543.265 255.3 544.391H261.983ZM271.501 533.758V552.143H267.998V533.758H271.501Z" fill="white"/>
<g opacity="0.85">
<path d="M491.446 306.632C481.825 306.632 473.996 314.137 473.963 323.374H476.306H479.189H488.547L488.557 318.14H480.561C482.601 314.42 486.708 311.866 491.446 311.866C496.183 311.866 500.291 314.42 502.33 318.14H494.362L494.352 323.374H503.702H504.172H508.928C508.895 314.137 501.066 306.632 491.446 306.632Z" fill="white"/>
</g>
<g opacity="0.75">
<path d="M492.064 311.862C485.993 311.862 481.054 307.106 481.054 301.26C481.054 295.414 485.993 290.658 492.064 290.658C498.135 290.658 503.074 295.414 503.074 301.26C503.074 307.106 498.135 311.862 492.064 311.862ZM492.064 295.892C488.879 295.892 486.288 298.3 486.288 301.26C486.288 304.22 488.879 306.628 492.064 306.628C495.249 306.628 497.84 304.22 497.84 301.26C497.84 298.3 495.249 295.892 492.064 295.892Z" fill="white"/>
</g>
<path d="M465.869 303.233C454.34 303.233 444.972 312.279 445.064 323.365C445.066 323.366 445.066 323.367 445.068 323.368H447.11H450.293H462.967L462.977 318.134H451.238C453.427 312.499 459.16 308.467 465.869 308.467C472.578 308.467 478.31 312.499 480.499 318.134H468.782L468.772 323.368H481.444H485.425H486.669C486.671 323.367 486.672 323.366 486.673 323.365C486.765 312.279 477.397 303.233 465.869 303.233Z" fill="white"/>
<g opacity="0.75">
<path d="M466.036 308.466C458.931 308.466 453.151 302.91 453.151 296.08C453.151 289.251 458.931 283.695 466.036 283.695C473.14 283.695 478.92 289.251 478.92 296.08C478.92 302.91 473.14 308.466 466.036 308.466ZM466.036 288.929C461.817 288.929 458.385 292.137 458.385 296.08C458.385 300.024 461.817 303.232 466.036 303.232C470.254 303.232 473.686 300.024 473.686 296.08C473.686 292.137 470.254 288.929 466.036 288.929Z" fill="white"/>
</g>
<path d="M430.328 376.692V383.201H426.825V365.662H433.21C435.28 365.662 436.837 366.159 437.88 367.152C438.94 368.146 439.47 369.496 439.47 371.202C439.47 372.875 438.924 374.208 437.831 375.202C436.754 376.195 435.214 376.692 433.21 376.692H430.328ZM432.837 373.885C434.891 373.885 435.918 372.99 435.918 371.202C435.918 370.324 435.678 369.653 435.197 369.189C434.717 368.726 433.93 368.494 432.837 368.494H430.328V373.885H432.837ZM447.137 369.264C448.296 369.264 449.29 369.537 450.118 370.084C450.946 370.63 451.534 371.367 451.882 372.295V369.438H455.36V383.201H451.882V380.319C451.534 381.247 450.946 381.992 450.118 382.555C449.29 383.102 448.296 383.375 447.137 383.375C445.977 383.375 444.934 383.094 444.007 382.53C443.079 381.967 442.35 381.156 441.82 380.096C441.307 379.019 441.05 377.76 441.05 376.32C441.05 374.879 441.307 373.628 441.82 372.568C442.35 371.492 443.079 370.672 444.007 370.109C444.934 369.546 445.977 369.264 447.137 369.264ZM448.23 372.32C447.137 372.32 446.259 372.676 445.597 373.388C444.934 374.1 444.603 375.077 444.603 376.32C444.603 377.562 444.934 378.539 445.597 379.251C446.259 379.947 447.137 380.294 448.23 380.294C449.29 380.294 450.159 379.938 450.839 379.226C451.534 378.497 451.882 377.529 451.882 376.32C451.882 375.094 451.534 374.125 450.839 373.413C450.159 372.684 449.29 372.32 448.23 372.32ZM465.888 380.195V383.201H464.05C462.51 383.201 461.325 382.829 460.497 382.083C459.686 381.338 459.28 380.096 459.28 378.357V372.394H457.367V369.438H459.28V366.034H462.783V369.438H465.863V372.394H462.783V378.406C462.783 379.069 462.915 379.533 463.18 379.798C463.445 380.063 463.892 380.195 464.522 380.195H465.888ZM468.011 365.488C468.011 364.925 468.21 364.469 468.608 364.121C469.005 363.757 469.527 363.575 470.173 363.575C470.819 363.575 471.34 363.757 471.738 364.121C472.135 364.469 472.334 364.925 472.334 365.488C472.334 366.034 472.135 366.49 471.738 366.854C471.34 367.202 470.819 367.376 470.173 367.376C469.527 367.376 469.005 367.202 468.608 366.854C468.21 366.49 468.011 366.034 468.011 365.488ZM471.912 369.438V383.201H468.409V369.438H471.912ZM488.024 375.798C488.024 376.146 487.983 376.543 487.9 376.99H477.814C477.863 378.216 478.194 379.119 478.807 379.698C479.42 380.278 480.182 380.568 481.093 380.568C481.904 380.568 482.575 380.369 483.105 379.972C483.652 379.574 484 379.036 484.149 378.357H487.85C487.668 379.317 487.279 380.179 486.683 380.94C486.086 381.702 485.316 382.299 484.372 382.729C483.445 383.16 482.41 383.375 481.267 383.375C479.925 383.375 478.733 383.094 477.689 382.53C476.646 381.951 475.834 381.131 475.255 380.071C474.675 379.011 474.385 377.76 474.385 376.32C474.385 374.879 474.675 373.628 475.255 372.568C475.834 371.492 476.646 370.672 477.689 370.109C478.733 369.546 479.925 369.264 481.267 369.264C482.625 369.264 483.809 369.546 484.819 370.109C485.846 370.672 486.633 371.45 487.18 372.444C487.743 373.421 488.024 374.539 488.024 375.798ZM484.496 375.45C484.546 374.324 484.248 373.471 483.602 372.891C482.973 372.311 482.194 372.022 481.267 372.022C480.323 372.022 479.528 372.311 478.882 372.891C478.236 373.471 477.88 374.324 477.814 375.45H484.496ZM498.709 369.239C500.299 369.239 501.566 369.761 502.51 370.804C503.454 371.848 503.926 373.313 503.926 375.202V383.201H500.448V375.599C500.448 374.506 500.167 373.661 499.604 373.065C499.041 372.452 498.27 372.146 497.293 372.146C496.299 372.146 495.504 372.469 494.908 373.115C494.312 373.761 494.014 374.688 494.014 375.897V383.201H490.511V369.438H494.014V372.195C494.378 371.268 494.974 370.548 495.803 370.034C496.647 369.504 497.616 369.239 498.709 369.239ZM514.362 380.195V383.201H512.524C510.984 383.201 509.799 382.829 508.971 382.083C508.16 381.338 507.754 380.096 507.754 378.357V372.394H505.841V369.438H507.754V366.034H511.257V369.438H514.337V372.394H511.257V378.406C511.257 379.069 511.389 379.533 511.654 379.798C511.919 380.063 512.366 380.195 512.996 380.195H514.362ZM521.628 369.264C523.301 369.264 524.642 369.686 525.653 370.531C526.663 371.376 527.292 372.502 527.541 373.91H524.261C524.129 373.247 523.831 372.717 523.367 372.32C522.903 371.922 522.299 371.723 521.553 371.723C520.957 371.723 520.493 371.864 520.162 372.146C519.831 372.427 519.665 372.808 519.665 373.289C519.665 373.67 519.798 373.976 520.063 374.208C520.328 374.44 520.659 374.622 521.057 374.754C521.454 374.887 522.025 375.044 522.771 375.226C523.814 375.458 524.659 375.707 525.305 375.972C525.967 376.22 526.53 376.626 526.994 377.189C527.475 377.736 527.715 378.481 527.715 379.425C527.715 380.601 527.251 381.553 526.323 382.282C525.412 383.011 524.179 383.375 522.622 383.375C520.833 383.375 519.4 382.978 518.324 382.183C517.247 381.371 516.593 380.22 516.361 378.729H519.715C519.798 379.408 520.096 379.947 520.609 380.344C521.123 380.725 521.794 380.916 522.622 380.916C523.218 380.916 523.673 380.775 523.988 380.493C524.303 380.195 524.46 379.814 524.46 379.35C524.46 378.953 524.319 378.63 524.038 378.382C523.773 378.133 523.433 377.943 523.019 377.81C522.622 377.678 522.05 377.52 521.305 377.338C520.278 377.106 519.442 376.874 518.796 376.642C518.166 376.394 517.62 376.005 517.156 375.475C516.709 374.945 516.485 374.216 516.485 373.289C516.485 372.096 516.941 371.127 517.852 370.382C518.763 369.637 520.021 369.264 521.628 369.264Z" fill="white"/>
<g clip-path="url(#clip2_2638_111310)">
<path d="M380.179 151.618L400.482 141.282V163.549L380.128 173.593L380.179 151.618ZM354.54 136.646L377.22 126.178L397.999 136.661L377.571 147.061L354.54 136.646ZM377.053 120.531L346.979 134.693L347.033 148.68L352.213 151.258L352.173 140.819L374.894 151.674L374.841 173.939L352.213 162.205L352.196 157.774L346.979 155.179L347.019 165.436L377.006 180.986L405.716 166.818V134.726L377.053 120.531Z" fill="white"/>
<g opacity="0.75">
<path d="M395.82 171.749L387.097 175.911L386.987 167.355L395.82 162.958V171.749Z" fill="white"/>
</g>
<g opacity="0.75">
<path d="M356.285 130.227L366.178 125.574L395.83 140.248L395.839 149.602L387.107 153.419V145.167L356.285 130.227Z" fill="white"/>
</g>
</g>
<path d="M331.456 225.619C331.456 226.514 331.232 227.342 330.785 228.104C330.338 228.849 329.676 229.453 328.798 229.917C327.92 230.364 326.852 230.588 325.593 230.588C324.351 230.588 323.241 230.381 322.264 229.967C321.287 229.536 320.5 228.923 319.904 228.128C319.324 227.333 318.993 226.406 318.91 225.346H322.637C322.719 226.058 323.001 226.654 323.481 227.135C323.978 227.598 324.632 227.83 325.444 227.83C326.173 227.83 326.728 227.64 327.108 227.259C327.506 226.861 327.705 226.356 327.705 225.743C327.705 225.197 327.547 224.75 327.233 224.402C326.918 224.038 326.52 223.748 326.04 223.532C325.56 223.317 324.897 223.069 324.053 222.787C322.96 222.423 322.065 222.067 321.37 221.719C320.674 221.354 320.078 220.833 319.581 220.154C319.101 219.475 318.86 218.589 318.86 217.495C318.86 215.988 319.399 214.804 320.475 213.943C321.568 213.065 323.009 212.626 324.798 212.626C326.653 212.626 328.127 213.073 329.22 213.968C330.33 214.862 330.959 216.055 331.108 217.545H327.332C327.233 216.916 326.968 216.402 326.537 216.005C326.106 215.591 325.518 215.384 324.773 215.384C324.127 215.384 323.606 215.558 323.208 215.905C322.811 216.237 322.612 216.725 322.612 217.371C322.612 217.885 322.761 218.315 323.059 218.663C323.374 218.994 323.763 219.268 324.227 219.483C324.707 219.698 325.353 219.938 326.164 220.203C327.291 220.601 328.202 220.974 328.897 221.321C329.609 221.669 330.214 222.191 330.711 222.886C331.208 223.582 331.456 224.493 331.456 225.619ZM347.204 216.651V230.414H343.701V227.632C343.336 228.559 342.732 229.288 341.887 229.818C341.059 230.331 340.098 230.588 339.005 230.588C337.415 230.588 336.148 230.066 335.204 229.023C334.26 227.979 333.788 226.522 333.788 224.65V216.651H337.266V224.253C337.266 225.346 337.548 226.199 338.111 226.812C338.674 227.408 339.436 227.706 340.396 227.706C341.407 227.706 342.21 227.383 342.806 226.737C343.402 226.091 343.701 225.164 343.701 223.955V216.651H347.204ZM358.612 216.477C359.771 216.477 360.815 216.758 361.742 217.322C362.67 217.885 363.39 218.704 363.903 219.781C364.433 220.841 364.698 222.091 364.698 223.532C364.698 224.973 364.433 226.232 363.903 227.309C363.39 228.369 362.67 229.18 361.742 229.743C360.815 230.306 359.771 230.588 358.612 230.588C357.452 230.588 356.459 230.315 355.631 229.768C354.819 229.205 354.239 228.46 353.892 227.532V236.973H350.389V216.651H353.892V219.508C354.239 218.58 354.819 217.843 355.631 217.297C356.459 216.75 357.452 216.477 358.612 216.477ZM357.519 219.533C356.459 219.533 355.581 219.897 354.885 220.626C354.206 221.338 353.867 222.307 353.867 223.532C353.867 224.741 354.206 225.71 354.885 226.439C355.581 227.151 356.459 227.507 357.519 227.507C358.612 227.507 359.49 227.16 360.152 226.464C360.815 225.752 361.146 224.775 361.146 223.532C361.146 222.29 360.815 221.313 360.152 220.601C359.49 219.889 358.612 219.533 357.519 219.533ZM375.401 216.477C376.56 216.477 377.603 216.758 378.531 217.322C379.458 217.885 380.179 218.704 380.692 219.781C381.222 220.841 381.487 222.091 381.487 223.532C381.487 224.973 381.222 226.232 380.692 227.309C380.179 228.369 379.458 229.18 378.531 229.743C377.603 230.306 376.56 230.588 375.401 230.588C374.241 230.588 373.247 230.315 372.419 229.768C371.608 229.205 371.028 228.46 370.68 227.532V236.973H367.177V216.651H370.68V219.508C371.028 218.58 371.608 217.843 372.419 217.297C373.247 216.75 374.241 216.477 375.401 216.477ZM374.307 219.533C373.247 219.533 372.37 219.897 371.674 220.626C370.995 221.338 370.655 222.307 370.655 223.532C370.655 224.741 370.995 225.71 371.674 226.439C372.37 227.151 373.247 227.507 374.307 227.507C375.401 227.507 376.278 227.16 376.941 226.464C377.603 225.752 377.935 224.775 377.935 223.532C377.935 222.29 377.603 221.313 376.941 220.601C376.278 219.889 375.401 219.533 374.307 219.533ZM387.469 212.03V230.414H383.966V212.03H387.469ZM390.241 212.701C390.241 212.138 390.439 211.682 390.837 211.334C391.234 210.97 391.756 210.788 392.402 210.788C393.048 210.788 393.57 210.97 393.967 211.334C394.365 211.682 394.563 212.138 394.563 212.701C394.563 213.247 394.365 213.703 393.967 214.067C393.57 214.415 393.048 214.589 392.402 214.589C391.756 214.589 391.234 214.415 390.837 214.067C390.439 213.703 390.241 213.247 390.241 212.701ZM394.141 216.651V230.414H390.638V216.651H394.141ZM410.253 223.011C410.253 223.359 410.212 223.756 410.129 224.203H400.043C400.092 225.429 400.424 226.331 401.036 226.911C401.649 227.491 402.411 227.781 403.322 227.781C404.134 227.781 404.804 227.582 405.334 227.184C405.881 226.787 406.229 226.249 406.378 225.57H410.079C409.897 226.53 409.508 227.391 408.912 228.153C408.316 228.915 407.545 229.511 406.601 229.942C405.674 230.373 404.639 230.588 403.496 230.588C402.154 230.588 400.962 230.306 399.918 229.743C398.875 229.164 398.063 228.344 397.484 227.284C396.904 226.224 396.614 224.973 396.614 223.532C396.614 222.091 396.904 220.841 397.484 219.781C398.063 218.704 398.875 217.885 399.918 217.322C400.962 216.758 402.154 216.477 403.496 216.477C404.854 216.477 406.038 216.758 407.049 217.322C408.075 217.885 408.862 218.663 409.409 219.657C409.972 220.634 410.253 221.752 410.253 223.011ZM406.726 222.663C406.775 221.537 406.477 220.684 405.831 220.104C405.202 219.524 404.423 219.234 403.496 219.234C402.552 219.234 401.757 219.524 401.111 220.104C400.465 220.684 400.109 221.537 400.043 222.663H406.726ZM416.243 219.284C416.756 218.406 417.435 217.719 418.28 217.222C419.125 216.709 420.069 216.452 421.112 216.452V220.203H420.094C417.527 220.203 416.243 221.396 416.243 223.781V230.414H412.74V216.651H416.243V219.284ZM427.796 216.477C429.469 216.477 430.81 216.899 431.821 217.744C432.831 218.589 433.46 219.715 433.709 221.123H430.43C430.297 220.46 429.999 219.93 429.535 219.533C429.071 219.135 428.467 218.936 427.722 218.936C427.125 218.936 426.662 219.077 426.33 219.359C425.999 219.64 425.834 220.021 425.834 220.501C425.834 220.882 425.966 221.189 426.231 221.421C426.496 221.653 426.827 221.835 427.225 221.967C427.622 222.1 428.194 222.257 428.939 222.439C429.982 222.671 430.827 222.92 431.473 223.185C432.135 223.433 432.699 223.839 433.162 224.402C433.643 224.948 433.883 225.694 433.883 226.638C433.883 227.814 433.419 228.766 432.492 229.495C431.581 230.224 430.347 230.588 428.79 230.588C427.001 230.588 425.569 230.19 424.492 229.395C423.415 228.584 422.761 227.433 422.529 225.942H425.883C425.966 226.621 426.264 227.16 426.778 227.557C427.291 227.938 427.962 228.128 428.79 228.128C429.386 228.128 429.842 227.988 430.156 227.706C430.471 227.408 430.628 227.027 430.628 226.563C430.628 226.166 430.488 225.843 430.206 225.594C429.941 225.346 429.601 225.156 429.187 225.023C428.79 224.891 428.218 224.733 427.473 224.551C426.446 224.319 425.61 224.087 424.964 223.855C424.335 223.607 423.788 223.218 423.324 222.688C422.877 222.158 422.654 221.429 422.654 220.501C422.654 219.309 423.109 218.34 424.02 217.595C424.931 216.849 426.19 216.477 427.796 216.477Z" fill="white"/>
<g clip-path="url(#clip3_2638_111310)">
<path d="M409.404 499.811H384.255C378.522 499.811 373.858 495.147 373.858 489.415V468.918C373.858 463.186 378.522 458.521 384.255 458.521H409.404C415.137 458.521 419.801 463.186 419.801 468.918V476.549H414.567V468.918C414.567 466.071 412.251 463.755 409.404 463.755H384.255C381.408 463.755 379.092 466.071 379.092 468.918V489.415C379.092 492.261 381.408 494.577 384.255 494.577H409.404C412.251 494.577 414.567 492.261 414.567 489.415V481.783H419.801V489.415C419.801 495.147 415.137 499.811 409.404 499.811Z" fill="white"/>
<g opacity="0.75">
<path d="M403.833 487.011H389.247C384.924 487.011 381.42 483.507 381.42 479.184V479.137C381.42 474.814 384.924 471.31 389.248 471.31H403.833C408.156 471.31 411.66 474.814 411.66 479.137V479.184C411.66 483.507 408.156 487.011 403.833 487.011ZM386.654 479.104V479.217C386.654 480.631 387.8 481.777 389.214 481.777H403.866C405.28 481.777 406.426 480.631 406.426 479.217V479.104C406.426 477.69 405.28 476.543 403.866 476.543H389.214C387.8 476.544 386.654 477.69 386.654 479.104Z" fill="white"/>
</g>
<path d="M399.444 471.307H394.21V487.008H399.444V471.307Z" fill="white"/>
<path d="M410.498 457.355H382.584V445.143H410.498V457.355ZM387.818 452.121H405.264V450.377H387.818V452.121Z" fill="white"/>
<g opacity="0.75">
<path d="M404.683 463.764H388.981V452.133H404.683V463.764ZM394.215 458.53H399.449V457.367H394.215V458.53Z" fill="white"/>
</g>
</g>
<path d="M321.91 545.634V552.143H318.407V534.603H324.791C326.862 534.603 328.419 535.1 329.462 536.094C330.522 537.087 331.052 538.437 331.052 540.143C331.052 541.816 330.505 543.149 329.412 544.143C328.336 545.137 326.795 545.634 324.791 545.634H321.91ZM324.419 542.826C326.472 542.826 327.499 541.932 327.499 540.143C327.499 539.265 327.259 538.595 326.779 538.131C326.299 537.667 325.512 537.435 324.419 537.435H321.91V542.826H324.419ZM341.526 538.181C343.116 538.181 344.383 538.702 345.327 539.746C346.271 540.789 346.743 542.255 346.743 544.143V552.143H343.265V544.54C343.265 543.447 342.983 542.603 342.42 542.006C341.857 541.394 341.087 541.087 340.11 541.087C339.116 541.087 338.321 541.41 337.725 542.056C337.128 542.702 336.83 543.63 336.83 544.839V552.143H333.327V533.758H336.83V541.137C337.195 540.209 337.791 539.489 338.619 538.976C339.464 538.446 340.433 538.181 341.526 538.181ZM355.216 538.205C356.375 538.205 357.369 538.479 358.197 539.025C359.025 539.572 359.613 540.309 359.961 541.236V538.379H363.439V552.143H359.961V549.261C359.613 550.188 359.025 550.934 358.197 551.497C357.369 552.043 356.375 552.316 355.216 552.316C354.057 552.316 353.013 552.035 352.086 551.472C351.158 550.909 350.429 550.097 349.899 549.037C349.386 547.961 349.129 546.702 349.129 545.261C349.129 543.82 349.386 542.57 349.899 541.51C350.429 540.433 351.158 539.613 352.086 539.05C353.013 538.487 354.057 538.205 355.216 538.205ZM356.309 541.261C355.216 541.261 354.338 541.617 353.676 542.329C353.013 543.042 352.682 544.019 352.682 545.261C352.682 546.503 353.013 547.48 353.676 548.192C354.338 548.888 355.216 549.236 356.309 549.236C357.369 549.236 358.239 548.88 358.918 548.168C359.613 547.439 359.961 546.47 359.961 545.261C359.961 544.035 359.613 543.066 358.918 542.354C358.239 541.625 357.369 541.261 356.309 541.261ZM370.117 541.013C370.63 540.135 371.309 539.448 372.154 538.951C372.998 538.437 373.943 538.181 374.986 538.181V541.932H373.967C371.4 541.932 370.117 543.124 370.117 545.509V552.143H366.614V538.379H370.117V541.013ZM394.439 538.181C396.112 538.181 397.429 538.702 398.39 539.746C399.367 540.773 399.855 542.238 399.855 544.143V552.143H396.377V544.54C396.377 543.48 396.104 542.669 395.557 542.106C395.027 541.526 394.29 541.236 393.346 541.236C392.369 541.236 391.591 541.543 391.011 542.155C390.431 542.768 390.141 543.663 390.141 544.839V552.143H386.663V544.54C386.663 543.48 386.39 542.669 385.844 542.106C385.314 541.526 384.577 541.236 383.632 541.236C382.655 541.236 381.877 541.543 381.297 542.155C380.718 542.768 380.428 543.663 380.428 544.839V552.143H376.925V538.379H380.428V540.988C380.792 540.093 381.363 539.406 382.142 538.926C382.937 538.429 383.856 538.181 384.9 538.181C386.009 538.181 386.97 538.446 387.781 538.976C388.609 539.506 389.231 540.267 389.645 541.261C390.075 540.317 390.713 539.572 391.558 539.025C392.419 538.462 393.379 538.181 394.439 538.181ZM408.324 538.205C409.483 538.205 410.477 538.479 411.305 539.025C412.133 539.572 412.721 540.309 413.069 541.236V538.379H416.547V552.143H413.069V549.261C412.721 550.188 412.133 550.934 411.305 551.497C410.477 552.043 409.483 552.316 408.324 552.316C407.164 552.316 406.121 552.035 405.194 551.472C404.266 550.909 403.537 550.097 403.007 549.037C402.494 547.961 402.237 546.702 402.237 545.261C402.237 543.82 402.494 542.57 403.007 541.51C403.537 540.433 404.266 539.613 405.194 539.05C406.121 538.487 407.164 538.205 408.324 538.205ZM409.417 541.261C408.324 541.261 407.446 541.617 406.784 542.329C406.121 543.042 405.79 544.019 405.79 545.261C405.79 546.503 406.121 547.48 406.784 548.192C407.446 548.888 408.324 549.236 409.417 549.236C410.477 549.236 411.346 548.88 412.026 548.168C412.721 547.439 413.069 546.47 413.069 545.261C413.069 544.035 412.721 543.066 412.026 542.354C411.346 541.625 410.477 541.261 409.417 541.261ZM425.908 538.205C427.68 538.205 429.154 538.686 430.33 539.646C431.522 540.607 432.268 541.915 432.566 543.572H428.864C428.715 542.843 428.375 542.271 427.845 541.857C427.315 541.427 426.645 541.211 425.833 541.211C424.906 541.211 424.127 541.559 423.498 542.255C422.885 542.934 422.579 543.936 422.579 545.261C422.579 546.586 422.885 547.596 423.498 548.292C424.127 548.971 424.906 549.31 425.833 549.31C426.645 549.31 427.315 549.103 427.845 548.689C428.375 548.259 428.715 547.679 428.864 546.95H432.566C432.268 548.607 431.522 549.915 430.33 550.876C429.154 551.836 427.68 552.316 425.908 552.316C424.566 552.316 423.374 552.035 422.33 551.472C421.287 550.892 420.475 550.072 419.896 549.012C419.316 547.952 419.026 546.702 419.026 545.261C419.026 543.82 419.316 542.57 419.896 541.51C420.475 540.433 421.287 539.613 422.33 539.05C423.374 538.487 424.566 538.205 425.908 538.205ZM434.657 534.429C434.657 533.866 434.856 533.411 435.253 533.063C435.651 532.698 436.173 532.516 436.819 532.516C437.465 532.516 437.986 532.698 438.384 533.063C438.781 533.411 438.98 533.866 438.98 534.429C438.98 534.976 438.781 535.431 438.384 535.796C437.986 536.143 437.465 536.317 436.819 536.317C436.173 536.317 435.651 536.143 435.253 535.796C434.856 535.431 434.657 534.976 434.657 534.429ZM438.558 538.379V552.143H435.055V538.379H438.558ZM446.472 538.205C448.144 538.205 449.486 538.628 450.496 539.472C451.507 540.317 452.136 541.443 452.384 542.851H449.105C448.973 542.189 448.674 541.659 448.211 541.261C447.747 540.864 447.142 540.665 446.397 540.665C445.801 540.665 445.337 540.806 445.006 541.087C444.675 541.369 444.509 541.75 444.509 542.23C444.509 542.611 444.642 542.917 444.907 543.149C445.172 543.381 445.503 543.563 445.9 543.696C446.298 543.828 446.869 543.986 447.614 544.168C448.658 544.4 449.503 544.648 450.149 544.913C450.811 545.162 451.374 545.567 451.838 546.13C452.318 546.677 452.558 547.422 452.558 548.366C452.558 549.542 452.095 550.495 451.167 551.223C450.256 551.952 449.022 552.316 447.465 552.316C445.677 552.316 444.244 551.919 443.167 551.124C442.091 550.312 441.437 549.161 441.205 547.671H444.559C444.642 548.35 444.94 548.888 445.453 549.286C445.967 549.667 446.637 549.857 447.465 549.857C448.062 549.857 448.517 549.716 448.832 549.435C449.146 549.137 449.304 548.756 449.304 548.292C449.304 547.894 449.163 547.571 448.881 547.323C448.616 547.074 448.277 546.884 447.863 546.752C447.465 546.619 446.894 546.462 446.149 546.28C445.122 546.048 444.285 545.816 443.64 545.584C443.01 545.335 442.464 544.946 442 544.416C441.553 543.886 441.329 543.158 441.329 542.23C441.329 541.038 441.785 540.069 442.695 539.323C443.606 538.578 444.865 538.205 446.472 538.205ZM462.521 549.137V552.143H460.683C459.142 552.143 457.958 551.77 457.13 551.025C456.318 550.279 455.913 549.037 455.913 547.298V541.336H454V538.379H455.913V534.976H459.416V538.379H462.496V541.336H459.416V547.348C459.416 548.01 459.548 548.474 459.813 548.739C460.078 549.004 460.525 549.137 461.155 549.137H462.521ZM469.787 538.205C471.46 538.205 472.801 538.628 473.811 539.472C474.822 540.317 475.451 541.443 475.7 542.851H472.42C472.288 542.189 471.99 541.659 471.526 541.261C471.062 540.864 470.458 540.665 469.712 540.665C469.116 540.665 468.652 540.806 468.321 541.087C467.99 541.369 467.824 541.75 467.824 542.23C467.824 542.611 467.957 542.917 468.222 543.149C468.487 543.381 468.818 543.563 469.215 543.696C469.613 543.828 470.184 543.986 470.93 544.168C471.973 544.4 472.818 544.648 473.464 544.913C474.126 545.162 474.689 545.567 475.153 546.13C475.633 546.677 475.873 547.422 475.873 548.366C475.873 549.542 475.41 550.495 474.482 551.223C473.571 551.952 472.337 552.316 470.78 552.316C468.992 552.316 467.559 551.919 466.483 551.124C465.406 550.312 464.752 549.161 464.52 547.671H467.874C467.957 548.35 468.255 548.888 468.768 549.286C469.282 549.667 469.952 549.857 470.78 549.857C471.377 549.857 471.832 549.716 472.147 549.435C472.462 549.137 472.619 548.756 472.619 548.292C472.619 547.894 472.478 547.571 472.197 547.323C471.932 547.074 471.592 546.884 471.178 546.752C470.78 546.619 470.209 546.462 469.464 546.28C468.437 546.048 467.601 545.816 466.955 545.584C466.325 545.335 465.779 544.946 465.315 544.416C464.868 543.886 464.644 543.158 464.644 542.23C464.644 541.038 465.1 540.069 466.011 539.323C466.921 538.578 468.18 538.205 469.787 538.205Z" fill="white"/>
<path d="M297.875 4.9848V337.892L11.1643 171.112L297.875 4.9848Z" fill="black" fill-opacity="0.4"/>
<path d="M297.875 4.9848V337.892L11.1643 171.112L297.875 4.9848Z" stroke="#711F3C"/>
<path d="M300.586 337.896V4.98926L587.297 171.768L300.586 337.896Z" fill="black" fill-opacity="0.4"/>
<path d="M300.586 337.896V4.98926L587.297 171.768L300.586 337.896Z" stroke="#711F3C"/>
<path d="M587.297 504.195V174.653L302.6 339.469L587.297 504.195Z" fill="black" fill-opacity="0.4"/>
<path d="M587.297 504.195V174.653L302.6 339.469L587.297 504.195Z" stroke="#711F3C"/>
<path d="M297.875 340.383V673.29L9 506.511L297.875 340.383Z" fill="black" fill-opacity="0.4"/>
<path d="M297.875 340.383V673.29L9 506.511L297.875 340.383Z" stroke="#711F3C"/>
<path d="M300.586 673.294V340.388L587.297 507.167L300.586 673.294Z" fill="black" fill-opacity="0.4"/>
<path d="M300.586 673.294V340.388L587.297 507.167L300.586 673.294Z" stroke="#711F3C"/>
<path d="M10.6806 169.261L4.67188 165.771V172.72V505.204V512.139L10.6747 508.667L297.505 342.75L303.479 339.294L297.51 335.828L10.6806 169.261Z" fill="#D81D5B" stroke="white" stroke-width="8"/>
<g clip-path="url(#clip4_2638_111310)">
<g opacity="0.75">
<path d="M112.417 285.713H107.183V301.415H112.417V285.713Z" fill="white"/>
</g>
<g opacity="0.75">
<path d="M117.645 290.955H101.943V296.189H117.645V290.955Z" fill="white"/>
</g>
<path d="M99.4801 328.841C99.2132 328.841 98.9453 328.827 98.6768 328.798C95.8576 328.501 93.3569 326.697 91.8147 323.847C88.6493 317.998 85.4874 292.107 93.6476 283.77C96.9915 280.354 101.941 278.288 106.888 278.244L106.932 283.478C103.349 283.51 99.6442 285.04 97.2628 287.471C94.711 290.075 93.3779 296.424 93.6065 304.891C93.8184 312.753 95.3007 319.469 96.2892 321.294C97.0203 322.644 98.0543 323.453 99.2015 323.574C100.07 323.663 100.883 323.344 101.433 322.693C102.43 321.511 102.367 319.067 102.308 316.704C102.23 313.688 102.15 310.569 104.055 308.272C105.416 306.631 107.334 305.687 109.317 305.685H109.325C111.236 305.685 113.023 306.566 114.357 308.166C116.36 310.57 116.417 313.86 116.466 316.763C116.507 319.175 116.545 321.452 117.573 322.597C118.122 323.208 119.027 323.563 119.905 323.527C120.479 323.502 121.296 323.299 121.926 322.469C124.074 319.64 127.838 298.738 121.534 288.427C119.587 285.241 115.325 283.58 112.122 283.586L112.113 278.352H112.139C116.758 278.352 122.789 280.608 125.872 285.656C133 297.328 129.746 320.713 125.967 325.696C124.537 327.582 122.459 328.675 120.117 328.774C117.721 328.874 115.366 327.895 113.804 326.154C111.467 323.549 111.407 320.003 111.354 316.876C111.318 314.747 111.281 312.545 110.463 311.563C110.102 311.13 109.729 310.919 109.325 310.919H109.324C108.852 310.919 108.342 311.196 107.958 311.66C107.312 312.439 107.368 314.644 107.418 316.59C107.499 319.79 107.592 323.417 105.308 326.129C103.849 327.86 101.715 328.841 99.4801 328.841Z" fill="white"/>
</g>
<path d="M74.6746 374.407C74.6746 376.146 74.3102 377.678 73.5815 379.003C72.8527 380.328 71.7928 381.363 70.4015 382.108C69.0268 382.837 67.3872 383.201 65.4825 383.201H59.2468V365.662H65.4825C67.3872 365.662 69.0268 366.026 70.4015 366.755C71.7928 367.467 72.8527 368.486 73.5815 369.811C74.3102 371.119 74.6746 372.651 74.6746 374.407ZM65.1844 380.071C67.0725 380.071 68.53 379.574 69.5568 378.58C70.6003 377.587 71.122 376.195 71.122 374.407C71.122 372.601 70.6003 371.202 69.5568 370.208C68.53 369.214 67.0725 368.717 65.1844 368.717H62.7497V380.071H65.1844ZM90.2406 375.798C90.2406 376.146 90.1992 376.543 90.1164 376.99H80.0299C80.0796 378.216 80.4109 379.119 81.0237 379.698C81.6365 380.278 82.3984 380.568 83.3093 380.568C84.1208 380.568 84.7916 380.369 85.3216 379.972C85.8682 379.574 86.216 379.036 86.365 378.357H90.0667C89.8845 379.317 89.4953 380.179 88.8991 380.94C88.3028 381.702 87.5327 382.299 86.5886 382.729C85.6611 383.16 84.626 383.375 83.4832 383.375C82.1416 383.375 80.9492 383.094 79.9057 382.53C78.8623 381.951 78.0507 381.131 77.4711 380.071C76.8914 379.011 76.6015 377.76 76.6015 376.32C76.6015 374.879 76.8914 373.628 77.4711 372.568C78.0507 371.492 78.8623 370.672 79.9057 370.109C80.9492 369.546 82.1416 369.264 83.4832 369.264C84.8413 369.264 86.0255 369.546 87.0358 370.109C88.0627 370.672 88.8494 371.45 89.3959 372.444C89.9591 373.421 90.2406 374.539 90.2406 375.798ZM86.7128 375.45C86.7625 374.324 86.4644 373.471 85.8185 372.891C85.1891 372.311 84.4107 372.022 83.4832 372.022C82.5391 372.022 81.7441 372.311 81.0982 372.891C80.4523 373.471 80.0962 374.324 80.0299 375.45H86.7128ZM100.926 369.239C102.516 369.239 103.783 369.761 104.727 370.804C105.671 371.848 106.143 373.313 106.143 375.202V383.201H102.665V375.599C102.665 374.506 102.383 373.661 101.82 373.065C101.257 372.452 100.487 372.146 99.5096 372.146C98.5159 372.146 97.7209 372.469 97.1246 373.115C96.5284 373.761 96.2302 374.688 96.2302 375.897V383.201H92.7273V369.438H96.2302V372.195C96.5946 371.268 97.1909 370.548 98.019 370.034C98.8637 369.504 99.8326 369.239 100.926 369.239ZM116.579 380.195V383.201H114.74C113.2 383.201 112.016 382.829 111.188 382.083C110.376 381.338 109.97 380.096 109.97 378.357V372.394H108.057V369.438H109.97V366.034H113.473V369.438H116.554V372.394H113.473V378.406C113.473 379.069 113.606 379.533 113.871 379.798C114.136 380.063 114.583 380.195 115.212 380.195H116.579ZM118.702 365.488C118.702 364.925 118.901 364.469 119.298 364.121C119.696 363.757 120.217 363.575 120.863 363.575C121.509 363.575 122.031 363.757 122.428 364.121C122.826 364.469 123.025 364.925 123.025 365.488C123.025 366.034 122.826 366.49 122.428 366.854C122.031 367.202 121.509 367.376 120.863 367.376C120.217 367.376 119.696 367.202 119.298 366.854C118.901 366.49 118.702 366.034 118.702 365.488ZM122.602 369.438V383.201H119.099V369.438H122.602ZM130.516 369.264C132.189 369.264 133.531 369.686 134.541 370.531C135.551 371.376 136.181 372.502 136.429 373.91H133.15C133.017 373.247 132.719 372.717 132.255 372.32C131.792 371.922 131.187 371.723 130.442 371.723C129.845 371.723 129.382 371.864 129.05 372.146C128.719 372.427 128.554 372.808 128.554 373.289C128.554 373.67 128.686 373.976 128.951 374.208C129.216 374.44 129.547 374.622 129.945 374.754C130.342 374.887 130.914 375.044 131.659 375.226C132.702 375.458 133.547 375.707 134.193 375.972C134.856 376.22 135.419 376.626 135.882 377.189C136.363 377.736 136.603 378.481 136.603 379.425C136.603 380.601 136.139 381.553 135.212 382.282C134.301 383.011 133.067 383.375 131.51 383.375C129.721 383.375 128.289 382.978 127.212 382.183C126.136 381.371 125.481 380.22 125.249 378.729H128.603C128.686 379.408 128.984 379.947 129.498 380.344C130.011 380.725 130.682 380.916 131.51 380.916C132.106 380.916 132.562 380.775 132.876 380.493C133.191 380.195 133.348 379.814 133.348 379.35C133.348 378.953 133.208 378.63 132.926 378.382C132.661 378.133 132.322 377.943 131.907 377.81C131.51 377.678 130.939 377.52 130.193 377.338C129.166 377.106 128.33 376.874 127.684 376.642C127.055 376.394 126.508 376.005 126.044 375.475C125.597 374.945 125.374 374.216 125.374 373.289C125.374 372.096 125.829 371.127 126.74 370.382C127.651 369.637 128.91 369.264 130.516 369.264ZM146.566 380.195V383.201H144.727C143.187 383.201 142.003 382.829 141.175 382.083C140.363 381.338 139.957 380.096 139.957 378.357V372.394H138.044V369.438H139.957V366.034H143.46V369.438H146.541V372.394H143.46V378.406C143.46 379.069 143.593 379.533 143.858 379.798C144.123 380.063 144.57 380.195 145.199 380.195H146.566ZM153.831 369.264C155.504 369.264 156.846 369.686 157.856 370.531C158.866 371.376 159.496 372.502 159.744 373.91H156.465C156.332 373.247 156.034 372.717 155.57 372.32C155.107 371.922 154.502 371.723 153.757 371.723C153.161 371.723 152.697 371.864 152.366 372.146C152.034 372.427 151.869 372.808 151.869 373.289C151.869 373.67 152.001 373.976 152.266 374.208C152.531 374.44 152.862 374.622 153.26 374.754C153.657 374.887 154.229 375.044 154.974 375.226C156.018 375.458 156.862 375.707 157.508 375.972C158.171 376.22 158.734 376.626 159.198 377.189C159.678 377.736 159.918 378.481 159.918 379.425C159.918 380.601 159.454 381.553 158.527 382.282C157.616 383.011 156.382 383.375 154.825 383.375C153.036 383.375 151.604 382.978 150.527 382.183C149.451 381.371 148.796 380.22 148.564 378.729H151.918C152.001 379.408 152.299 379.947 152.813 380.344C153.326 380.725 153.997 380.916 154.825 380.916C155.421 380.916 155.877 380.775 156.191 380.493C156.506 380.195 156.663 379.814 156.663 379.35C156.663 378.953 156.523 378.63 156.241 378.382C155.976 378.133 155.637 377.943 155.223 377.81C154.825 377.678 154.254 377.52 153.508 377.338C152.481 377.106 151.645 376.874 150.999 376.642C150.37 376.394 149.823 376.005 149.359 375.475C148.912 374.945 148.689 374.216 148.689 373.289C148.689 372.096 149.144 371.127 150.055 370.382C150.966 369.637 152.225 369.264 153.831 369.264Z" fill="white"/>
<defs>
<clipPath id="clip0_2638_111310">
<rect width="52.63" height="57.7168" fill="white" transform="translate(179.224 121.872)"/>
</clipPath>
<clipPath id="clip1_2638_111310">
<rect width="41.6102" height="40.2451" fill="white" transform="translate(189.712 452.348)"/>
</clipPath>
<clipPath id="clip2_2638_111310">
<rect width="58.7363" height="60.4549" fill="white" transform="translate(346.969 120.523)"/>
</clipPath>
<clipPath id="clip3_2638_111310">
<rect width="45.9422" height="54.6654" fill="white" transform="translate(373.863 445.122)"/>
</clipPath>
<clipPath id="clip4_2638_111310">
<rect width="41.6223" height="50.5967" fill="white" transform="translate(88.4736 278.234)"/>
</clipPath>
</defs>
</svg>
