<svg width="584" height="678" viewBox="0 0 584 678" fill="none" xmlns="http://www.w3.org/2000/svg">
<path d="M292.992 0.5L584 169.933L583.999 508.37L292.992 677.802L0 508.37V171.211L292.992 0.5Z" fill="#711F3C"/>
<path d="M291.875 5.18304V338.09L5.16434 171.311L291.875 5.18304Z" fill="#D81D5B"/>
<path d="M291.875 5.18304V338.09L5.16434 171.311L291.875 5.18304Z" stroke="#711F3C"/>
<path d="M294.586 338.094V5.1875L581.297 171.967L294.586 338.094Z" fill="#902F57"/>
<path d="M294.586 338.094V5.1875L581.297 171.967L294.586 338.094Z" stroke="#711F3C"/>
<path d="M2.67188 505.402V172.918L289.502 339.486L2.67188 505.402Z" fill="#D81D5B"/>
<path d="M2.67188 505.402V172.918L289.502 339.486L2.67188 505.402Z" stroke="#711F3C"/>
<path d="M581.297 504.389V174.848L296.6 339.663L581.297 504.389Z" fill="#A662A7"/>
<path d="M581.297 504.389V174.848L296.6 339.663L581.297 504.389Z" stroke="#711F3C"/>
<path d="M291.875 340.578V673.484L3 506.705L291.875 340.578Z" fill="#D81D5B"/>
<path d="M291.875 340.578V673.484L3 506.705L291.875 340.578Z" stroke="#711F3C"/>
<path d="M294.586 673.489V340.582L581.297 507.361L294.586 673.489Z" fill="#D81D5B"/>
<path d="M294.586 673.489V340.582L581.297 507.361L294.586 673.489Z" stroke="#711F3C"/>
<g clip-path="url(#clip0_3288_132282)">
<path d="M200.699 130.224H199.536C197.297 130.224 195.465 128.392 195.465 126.153C195.465 123.914 197.297 122.082 199.536 122.082H200.699C202.938 122.082 204.77 123.914 204.77 126.153C204.77 128.392 202.938 130.224 200.699 130.224Z" fill="white"/>
<path d="M185.58 130.224H184.417C182.178 130.224 180.346 128.392 180.346 126.153C180.346 123.914 182.178 122.082 184.417 122.082H185.58C187.819 122.082 189.651 123.914 189.651 126.153C189.651 128.392 187.819 130.224 185.58 130.224Z" fill="white"/>
<g opacity="0.95">
<path d="M214.032 179.804H197.131C193.174 179.804 190.073 175.574 190.073 170.176V157.414H195.307V170.176C195.307 173.059 196.662 174.57 197.131 174.57H214.032C214.5 174.57 215.855 173.059 215.855 170.176V160.907H221.089V170.176C221.089 175.574 217.989 179.804 214.032 179.804Z" fill="white"/>
</g>
<g opacity="0.75">
<path d="M209.701 126.544C207.267 124.205 203.664 123.754 199.431 123.709V127.983C202.663 128.018 205.295 128.311 206.627 129.591C207.517 130.446 207.95 131.881 207.95 133.977C207.95 138.382 206.073 144.338 203.168 149.15C200.027 154.353 196.239 157.337 192.777 157.337C184.953 157.337 177.604 142.764 177.604 133.977C177.604 131.881 178.037 130.446 178.928 129.591C180.282 128.29 182.979 128.01 186.286 127.982V123.707C181.983 123.742 178.319 124.175 175.854 126.544C174.083 128.245 173.223 130.676 173.223 133.977C173.223 143.684 181.287 161.613 192.777 161.613C204.268 161.613 212.332 143.684 212.332 133.977C212.332 130.676 211.471 128.245 209.701 126.544Z" fill="white"/>
</g>
<g opacity="0.75">
<path d="M218.583 165.55C214.574 165.55 211.313 162.289 211.313 158.281C211.313 154.273 214.574 151.012 218.583 151.012C222.591 151.012 225.852 154.273 225.852 158.281C225.852 162.29 222.591 165.55 218.583 165.55ZM218.583 156.246C217.461 156.246 216.547 157.159 216.547 158.281C216.547 159.403 217.461 160.316 218.583 160.316C219.705 160.316 220.618 159.403 220.618 158.281C220.618 157.159 219.705 156.246 218.583 156.246Z" fill="white"/>
</g>
</g>
<path d="M136.974 224.104V230.613H133.471V213.074H139.856C141.926 213.074 143.483 213.571 144.527 214.564C145.587 215.558 146.117 216.908 146.117 218.614C146.117 220.287 145.57 221.62 144.477 222.614C143.4 223.607 141.86 224.104 139.856 224.104H136.974ZM139.483 221.297C141.537 221.297 142.564 220.403 142.564 218.614C142.564 217.736 142.324 217.065 141.844 216.602C141.363 216.138 140.577 215.906 139.483 215.906H136.974V221.297H139.483ZM156.59 216.651C158.18 216.651 159.447 217.173 160.391 218.216C161.335 219.26 161.807 220.726 161.807 222.614V230.613H158.329V223.011C158.329 221.918 158.048 221.073 157.485 220.477C156.922 219.864 156.151 219.558 155.174 219.558C154.181 219.558 153.386 219.881 152.789 220.527C152.193 221.173 151.895 222.1 151.895 223.309V230.613H148.392V212.229H151.895V219.608C152.259 218.68 152.856 217.96 153.684 217.446C154.528 216.916 155.497 216.651 156.59 216.651ZM167.25 216.85L171.001 226.191L174.479 216.85H178.33L169.908 237.172H166.032L169.138 230.216L163.349 216.85H167.25ZM184.725 216.676C186.398 216.676 187.74 217.098 188.75 217.943C189.76 218.788 190.39 219.914 190.638 221.322H187.359C187.226 220.659 186.928 220.129 186.464 219.732C186.001 219.334 185.396 219.136 184.651 219.136C184.054 219.136 183.591 219.276 183.259 219.558C182.928 219.839 182.763 220.22 182.763 220.701C182.763 221.082 182.895 221.388 183.16 221.62C183.425 221.852 183.756 222.034 184.154 222.166C184.551 222.299 185.123 222.456 185.868 222.639C186.911 222.87 187.756 223.119 188.402 223.384C189.065 223.632 189.628 224.038 190.091 224.601C190.572 225.148 190.812 225.893 190.812 226.837C190.812 228.013 190.348 228.965 189.421 229.694C188.51 230.423 187.276 230.787 185.719 230.787C183.93 230.787 182.498 230.39 181.421 229.595C180.345 228.783 179.69 227.632 179.458 226.141H182.812C182.895 226.821 183.193 227.359 183.707 227.756C184.22 228.137 184.891 228.328 185.719 228.328C186.315 228.328 186.771 228.187 187.085 227.905C187.4 227.607 187.557 227.226 187.557 226.763C187.557 226.365 187.417 226.042 187.135 225.794C186.87 225.545 186.531 225.355 186.116 225.222C185.719 225.09 185.148 224.932 184.402 224.75C183.375 224.518 182.539 224.286 181.893 224.055C181.264 223.806 180.717 223.417 180.253 222.887C179.806 222.357 179.583 221.628 179.583 220.701C179.583 219.508 180.038 218.539 180.949 217.794C181.86 217.049 183.119 216.676 184.725 216.676ZM193.023 212.9C193.023 212.337 193.222 211.881 193.62 211.533C194.017 211.169 194.539 210.987 195.185 210.987C195.831 210.987 196.352 211.169 196.75 211.533C197.147 211.881 197.346 212.337 197.346 212.9C197.346 213.446 197.147 213.902 196.75 214.266C196.352 214.614 195.831 214.788 195.185 214.788C194.539 214.788 194.017 214.614 193.62 214.266C193.222 213.902 193.023 213.446 193.023 212.9ZM196.924 216.85V230.613H193.421V216.85H196.924ZM206.279 216.676C208.051 216.676 209.525 217.156 210.701 218.117C211.893 219.078 212.639 220.386 212.937 222.042H209.235C209.086 221.314 208.747 220.742 208.217 220.328C207.687 219.897 207.016 219.682 206.204 219.682C205.277 219.682 204.498 220.03 203.869 220.726C203.256 221.405 202.95 222.407 202.95 223.732C202.95 225.057 203.256 226.067 203.869 226.763C204.498 227.442 205.277 227.781 206.204 227.781C207.016 227.781 207.687 227.574 208.217 227.16C208.747 226.729 209.086 226.15 209.235 225.421H212.937C212.639 227.077 211.893 228.386 210.701 229.346C209.525 230.307 208.051 230.787 206.279 230.787C204.937 230.787 203.745 230.506 202.701 229.943C201.658 229.363 200.846 228.543 200.267 227.483C199.687 226.423 199.397 225.173 199.397 223.732C199.397 222.291 199.687 221.04 200.267 219.98C200.846 218.904 201.658 218.084 202.701 217.521C203.745 216.958 204.937 216.676 206.279 216.676ZM215.028 212.9C215.028 212.337 215.227 211.881 215.625 211.533C216.022 211.169 216.544 210.987 217.19 210.987C217.836 210.987 218.357 211.169 218.755 211.533C219.152 211.881 219.351 212.337 219.351 212.9C219.351 213.446 219.152 213.902 218.755 214.266C218.357 214.614 217.836 214.788 217.19 214.788C216.544 214.788 216.022 214.614 215.625 214.266C215.227 213.902 215.028 213.446 215.028 212.9ZM218.929 216.85V230.613H215.426V216.85H218.929ZM227.489 216.676C228.648 216.676 229.642 216.949 230.47 217.496C231.298 218.042 231.886 218.779 232.234 219.707V216.85H235.712V230.613H232.234V227.731C231.886 228.659 231.298 229.404 230.47 229.967C229.642 230.514 228.648 230.787 227.489 230.787C226.329 230.787 225.286 230.506 224.358 229.943C223.431 229.379 222.702 228.568 222.172 227.508C221.659 226.431 221.402 225.173 221.402 223.732C221.402 222.291 221.659 221.04 222.172 219.98C222.702 218.904 223.431 218.084 224.358 217.521C225.286 216.958 226.329 216.676 227.489 216.676ZM228.582 219.732C227.489 219.732 226.611 220.088 225.948 220.8C225.286 221.512 224.955 222.489 224.955 223.732C224.955 224.974 225.286 225.951 225.948 226.663C226.611 227.359 227.489 227.707 228.582 227.707C229.642 227.707 230.511 227.35 231.19 226.638C231.886 225.91 232.234 224.941 232.234 223.732C232.234 222.506 231.886 221.537 231.19 220.825C230.511 220.096 229.642 219.732 228.582 219.732ZM247.085 216.651C248.675 216.651 249.942 217.173 250.886 218.216C251.83 219.26 252.302 220.726 252.302 222.614V230.613H248.824V223.011C248.824 221.918 248.542 221.073 247.979 220.477C247.416 219.864 246.646 219.558 245.669 219.558C244.675 219.558 243.88 219.881 243.284 220.527C242.688 221.173 242.389 222.1 242.389 223.309V230.613H238.886V216.85H242.389V219.608C242.754 218.68 243.35 217.96 244.178 217.446C245.023 216.916 245.992 216.651 247.085 216.651ZM260.129 216.676C261.802 216.676 263.144 217.098 264.154 217.943C265.164 218.788 265.794 219.914 266.042 221.322H262.763C262.63 220.659 262.332 220.129 261.868 219.732C261.405 219.334 260.8 219.136 260.055 219.136C259.458 219.136 258.995 219.276 258.663 219.558C258.332 219.839 258.167 220.22 258.167 220.701C258.167 221.082 258.299 221.388 258.564 221.62C258.829 221.852 259.16 222.034 259.558 222.166C259.955 222.299 260.527 222.456 261.272 222.639C262.315 222.87 263.16 223.119 263.806 223.384C264.469 223.632 265.032 224.038 265.495 224.601C265.976 225.148 266.216 225.893 266.216 226.837C266.216 228.013 265.752 228.965 264.825 229.694C263.914 230.423 262.68 230.787 261.123 230.787C259.334 230.787 257.902 230.39 256.825 229.595C255.749 228.783 255.094 227.632 254.862 226.141H258.216C258.299 226.821 258.597 227.359 259.111 227.756C259.624 228.137 260.295 228.328 261.123 228.328C261.719 228.328 262.175 228.187 262.489 227.905C262.804 227.607 262.961 227.226 262.961 226.763C262.961 226.365 262.821 226.042 262.539 225.794C262.274 225.545 261.935 225.355 261.52 225.222C261.123 225.09 260.552 224.932 259.806 224.75C258.779 224.518 257.943 224.286 257.297 224.055C256.668 223.806 256.121 223.417 255.657 222.887C255.21 222.357 254.987 221.628 254.987 220.701C254.987 219.508 255.442 218.539 256.353 217.794C257.264 217.049 258.523 216.676 260.129 216.676Z" fill="white"/>
<g clip-path="url(#clip1_3288_132282)">
<g opacity="0.75">
<path d="M207.212 479.406H201.979V492.782H207.212V479.406Z" fill="white"/>
</g>
<g opacity="0.75">
<path d="M211.289 483.5H197.913V488.734H211.289V483.5Z" fill="white"/>
</g>
<path d="M204.52 472.066C192.991 472.066 183.623 481.113 183.716 492.198C183.717 492.199 183.718 492.2 183.719 492.201H185.761H188.944H194.64V486.967H189.889C192.079 481.332 197.811 477.3 204.52 477.3C211.229 477.3 216.961 481.332 219.151 486.967H214.412V492.201H220.096H224.076H225.321C225.322 492.2 225.323 492.199 225.324 492.198C225.417 481.113 216.048 472.066 204.52 472.066Z" fill="white"/>
<g opacity="0.75">
<path d="M204.692 477.302C197.588 477.302 191.808 471.746 191.808 464.916C191.808 458.087 197.588 452.531 204.692 452.531C211.796 452.531 217.576 458.087 217.576 464.916C217.576 471.746 211.796 477.302 204.692 477.302ZM204.692 457.765C200.473 457.765 197.042 460.973 197.042 464.916C197.042 468.86 200.473 472.068 204.692 472.068C208.91 472.068 212.342 468.86 212.342 464.916C212.342 460.973 208.91 457.765 204.692 457.765Z" fill="white"/>
</g>
</g>
<path d="M147.082 545.831V552.34H143.579V534.8H149.964C152.034 534.8 153.591 535.297 154.635 536.291C155.694 537.285 156.224 538.634 156.224 540.34C156.224 542.013 155.678 543.346 154.585 544.34C153.508 545.334 151.968 545.831 149.964 545.831H147.082ZM149.591 543.024C151.645 543.024 152.672 542.129 152.672 540.34C152.672 539.463 152.432 538.792 151.951 538.328C151.471 537.864 150.684 537.632 149.591 537.632H147.082V543.024H149.591ZM171.443 544.936C171.443 545.284 171.402 545.682 171.319 546.129H161.233C161.282 547.355 161.614 548.257 162.226 548.837C162.839 549.417 163.601 549.706 164.512 549.706C165.323 549.706 165.994 549.508 166.524 549.11C167.071 548.713 167.419 548.174 167.568 547.495H171.269C171.087 548.456 170.698 549.317 170.102 550.079C169.505 550.841 168.735 551.437 167.791 551.868C166.864 552.298 165.829 552.514 164.686 552.514C163.344 552.514 162.152 552.232 161.108 551.669C160.065 551.089 159.253 550.27 158.674 549.21C158.094 548.15 157.804 546.899 157.804 545.458C157.804 544.017 158.094 542.767 158.674 541.707C159.253 540.63 160.065 539.81 161.108 539.247C162.152 538.684 163.344 538.403 164.686 538.403C166.044 538.403 167.228 538.684 168.238 539.247C169.265 539.81 170.052 540.589 170.599 541.583C171.162 542.56 171.443 543.678 171.443 544.936ZM167.916 544.589C167.965 543.462 167.667 542.609 167.021 542.03C166.392 541.45 165.613 541.16 164.686 541.16C163.742 541.16 162.947 541.45 162.301 542.03C161.655 542.609 161.299 543.462 161.233 544.589H167.916ZM177.433 541.21C177.946 540.332 178.625 539.645 179.47 539.148C180.315 538.634 181.259 538.378 182.302 538.378V542.129H181.284C178.716 542.129 177.433 543.322 177.433 545.707V552.34H173.93V538.577H177.433V541.21ZM188.986 538.403C190.659 538.403 192 538.825 193.011 539.67C194.021 540.514 194.65 541.641 194.899 543.048H191.62C191.487 542.386 191.189 541.856 190.725 541.458C190.261 541.061 189.657 540.862 188.912 540.862C188.315 540.862 187.852 541.003 187.52 541.284C187.189 541.566 187.023 541.947 187.023 542.427C187.023 542.808 187.156 543.115 187.421 543.346C187.686 543.578 188.017 543.761 188.415 543.893C188.812 544.026 189.384 544.183 190.129 544.365C191.172 544.597 192.017 544.845 192.663 545.11C193.325 545.359 193.889 545.765 194.352 546.328C194.833 546.874 195.073 547.62 195.073 548.564C195.073 549.74 194.609 550.692 193.682 551.421C192.771 552.149 191.537 552.514 189.98 552.514C188.191 552.514 186.758 552.116 185.682 551.321C184.605 550.51 183.951 549.359 183.719 547.868H187.073C187.156 548.547 187.454 549.085 187.968 549.483C188.481 549.864 189.152 550.054 189.98 550.054C190.576 550.054 191.032 549.913 191.346 549.632C191.661 549.334 191.818 548.953 191.818 548.489C191.818 548.092 191.677 547.769 191.396 547.52C191.131 547.272 190.791 547.081 190.377 546.949C189.98 546.816 189.408 546.659 188.663 546.477C187.636 546.245 186.8 546.013 186.154 545.781C185.525 545.533 184.978 545.144 184.514 544.614C184.067 544.084 183.844 543.355 183.844 542.427C183.844 541.235 184.299 540.266 185.21 539.521C186.121 538.775 187.38 538.403 188.986 538.403ZM204.042 538.403C205.383 538.403 206.584 538.684 207.644 539.247C208.721 539.81 209.565 540.63 210.178 541.707C210.791 542.767 211.097 544.017 211.097 545.458C211.097 546.899 210.791 548.15 210.178 549.21C209.565 550.27 208.721 551.089 207.644 551.669C206.584 552.232 205.383 552.514 204.042 552.514C202.7 552.514 201.491 552.232 200.415 551.669C199.355 551.089 198.518 550.27 197.905 549.21C197.293 548.15 196.986 546.899 196.986 545.458C196.986 544.017 197.293 542.767 197.905 541.707C198.518 540.63 199.355 539.81 200.415 539.247C201.491 538.684 202.7 538.403 204.042 538.403ZM204.042 541.434C203.065 541.434 202.236 541.781 201.557 542.477C200.878 543.156 200.539 544.15 200.539 545.458C200.539 546.767 200.878 547.769 201.557 548.464C202.236 549.143 203.065 549.483 204.042 549.483C205.019 549.483 205.847 549.143 206.526 548.464C207.205 547.769 207.545 546.767 207.545 545.458C207.545 544.15 207.205 543.156 206.526 542.477C205.847 541.781 205.019 541.434 204.042 541.434ZM221.771 538.378C223.361 538.378 224.628 538.899 225.572 539.943C226.516 540.986 226.988 542.452 226.988 544.34V552.34H223.51V544.738C223.51 543.645 223.229 542.8 222.666 542.204C222.102 541.591 221.332 541.284 220.355 541.284C219.361 541.284 218.566 541.607 217.97 542.253C217.374 542.899 217.076 543.827 217.076 545.036V552.34H213.573V538.577H217.076V541.334C217.44 540.407 218.036 539.686 218.865 539.173C219.709 538.643 220.678 538.378 221.771 538.378ZM238.269 538.378C239.859 538.378 241.126 538.899 242.07 539.943C243.014 540.986 243.486 542.452 243.486 544.34V552.34H240.008V544.738C240.008 543.645 239.726 542.8 239.163 542.204C238.6 541.591 237.83 541.284 236.853 541.284C235.859 541.284 235.064 541.607 234.468 542.253C233.872 542.899 233.573 543.827 233.573 545.036V552.34H230.071V538.577H233.573V541.334C233.938 540.407 234.534 539.686 235.362 539.173C236.207 538.643 237.176 538.378 238.269 538.378ZM259.512 544.936C259.512 545.284 259.47 545.682 259.387 546.129H249.301C249.351 547.355 249.682 548.257 250.295 548.837C250.908 549.417 251.669 549.706 252.58 549.706C253.392 549.706 254.063 549.508 254.593 549.11C255.139 548.713 255.487 548.174 255.636 547.495H259.338C259.156 548.456 258.766 549.317 258.17 550.079C257.574 550.841 256.804 551.437 255.86 551.868C254.932 552.298 253.897 552.514 252.754 552.514C251.413 552.514 250.22 552.232 249.177 551.669C248.133 551.089 247.322 550.27 246.742 549.21C246.162 548.15 245.873 546.899 245.873 545.458C245.873 544.017 246.162 542.767 246.742 541.707C247.322 540.63 248.133 539.81 249.177 539.247C250.22 538.684 251.413 538.403 252.754 538.403C254.112 538.403 255.297 538.684 256.307 539.247C257.334 539.81 258.12 540.589 258.667 541.583C259.23 542.56 259.512 543.678 259.512 544.936ZM255.984 544.589C256.034 543.462 255.735 542.609 255.089 542.03C254.46 541.45 253.682 541.16 252.754 541.16C251.81 541.16 251.015 541.45 250.369 542.03C249.723 542.609 249.367 543.462 249.301 544.589H255.984ZM265.501 533.956V552.34H261.998V533.956H265.501Z" fill="white"/>
<g clip-path="url(#clip2_3288_132282)">
<g opacity="0.75">
<path d="M106.419 285.906H101.185V301.608H106.419V285.906Z" fill="white"/>
</g>
<g opacity="0.75">
<path d="M111.646 291.148H95.9438V296.382H111.646V291.148Z" fill="white"/>
</g>
<path d="M93.4805 329.034C93.2137 329.034 92.9458 329.02 92.6773 328.992C89.8581 328.694 87.3574 326.89 85.8152 324.041C82.6498 318.191 79.4879 292.3 87.648 283.964C90.992 280.547 95.9413 278.481 100.888 278.438L100.933 283.672C97.3498 283.703 93.6447 285.233 91.2633 287.664C88.7115 290.268 87.3784 296.618 87.607 305.084C87.8189 312.947 89.3011 319.662 90.2897 321.487C91.0208 322.837 92.0548 323.647 93.202 323.768C94.0702 323.857 94.8839 323.538 95.4337 322.886C96.4306 321.705 96.3679 319.261 96.308 316.897C96.2309 313.881 96.151 310.763 98.0554 308.466C99.4167 306.824 101.334 305.881 103.317 305.878H103.326C105.237 305.878 107.023 306.759 108.358 308.359C110.361 310.763 110.417 314.053 110.466 316.956C110.507 319.368 110.546 321.646 111.574 322.791C112.123 323.402 113.027 323.756 113.906 323.72C114.48 323.696 115.296 323.493 115.927 322.663C118.075 319.834 121.838 298.932 115.535 288.62C113.587 285.435 109.326 283.774 106.122 283.779L106.113 278.545H106.139C110.759 278.545 116.789 280.801 119.873 285.849C127 297.521 123.747 320.907 119.967 325.89C118.537 327.775 116.459 328.868 114.117 328.967C111.721 329.068 109.367 328.089 107.805 326.347C105.468 323.742 105.408 320.197 105.355 317.069C105.319 314.94 105.281 312.739 104.464 311.757C104.103 311.323 103.73 311.112 103.326 311.112H103.324C102.853 311.112 102.342 311.39 101.959 311.853C101.313 312.633 101.369 314.838 101.418 316.783C101.5 319.984 101.592 323.611 99.3086 326.322C97.8496 328.053 95.7155 329.034 93.4805 329.034Z" fill="white"/>
</g>
<path d="M68.6741 374.604C68.6741 376.343 68.3097 377.875 67.581 379.2C66.8523 380.525 65.7923 381.56 64.401 382.305C63.0264 383.034 61.3867 383.398 59.482 383.398H53.2463V365.859H59.482C61.3867 365.859 63.0264 366.223 64.401 366.952C65.7923 367.664 66.8523 368.683 67.581 370.008C68.3097 371.316 68.6741 372.848 68.6741 374.604ZM59.1839 380.268C61.072 380.268 62.5295 379.771 63.5564 378.778C64.5998 377.784 65.1215 376.393 65.1215 374.604C65.1215 372.799 64.5998 371.399 63.5564 370.405C62.5295 369.412 61.072 368.915 59.1839 368.915H56.7492V380.268H59.1839ZM84.2401 375.995C84.2401 376.343 84.1987 376.74 84.1159 377.188H74.0295C74.0791 378.413 74.4104 379.316 75.0232 379.896C75.636 380.475 76.3979 380.765 77.3088 380.765C78.1204 380.765 78.7911 380.566 79.3211 380.169C79.8677 379.771 80.2155 379.233 80.3646 378.554H84.0662C83.8841 379.515 83.4948 380.376 82.8986 381.138C82.3023 381.9 81.5322 382.496 80.5881 382.926C79.6607 383.357 78.6255 383.572 77.4827 383.572C76.1412 383.572 74.9487 383.291 73.9052 382.728C72.8618 382.148 72.0503 381.328 71.4706 380.268C70.8909 379.208 70.601 377.958 70.601 376.517C70.601 375.076 70.8909 373.825 71.4706 372.765C72.0503 371.689 72.8618 370.869 73.9052 370.306C74.9487 369.743 76.1412 369.461 77.4827 369.461C78.8408 369.461 80.025 369.743 81.0353 370.306C82.0622 370.869 82.8489 371.647 83.3955 372.641C83.9586 373.618 84.2401 374.736 84.2401 375.995ZM80.7124 375.647C80.762 374.521 80.4639 373.668 79.818 373.088C79.1886 372.509 78.4102 372.219 77.4827 372.219C76.5386 372.219 75.7437 372.509 75.0977 373.088C74.4518 373.668 74.0957 374.521 74.0295 375.647H80.7124ZM94.9252 369.436C96.5152 369.436 97.7822 369.958 98.7262 371.002C99.6703 372.045 100.142 373.511 100.142 375.399V383.398H96.6642V375.796C96.6642 374.703 96.3827 373.859 95.8196 373.262C95.2564 372.649 94.4863 372.343 93.5091 372.343C92.5154 372.343 91.7204 372.666 91.1241 373.312C90.5279 373.958 90.2298 374.885 90.2298 376.094V383.398H86.7268V369.635H90.2298V372.393C90.5941 371.465 91.1904 370.745 92.0185 370.231C92.8632 369.701 93.8321 369.436 94.9252 369.436ZM110.578 380.392V383.398H108.74C107.199 383.398 106.015 383.026 105.187 382.28C104.376 381.535 103.97 380.293 103.97 378.554V372.592H102.057V369.635H103.97V366.232H107.473V369.635H110.553V372.592H107.473V378.604C107.473 379.266 107.605 379.73 107.87 379.995C108.135 380.26 108.582 380.392 109.212 380.392H110.578ZM112.701 365.685C112.701 365.122 112.9 364.666 113.298 364.319C113.695 363.954 114.217 363.772 114.863 363.772C115.509 363.772 116.03 363.954 116.428 364.319C116.825 364.666 117.024 365.122 117.024 365.685C117.024 366.232 116.825 366.687 116.428 367.051C116.03 367.399 115.509 367.573 114.863 367.573C114.217 367.573 113.695 367.399 113.298 367.051C112.9 366.687 112.701 366.232 112.701 365.685ZM116.602 369.635V383.398H113.099V369.635H116.602ZM124.516 369.461C126.189 369.461 127.53 369.884 128.54 370.728C129.551 371.573 130.18 372.699 130.429 374.107H127.149C127.017 373.444 126.719 372.914 126.255 372.517C125.791 372.119 125.187 371.921 124.441 371.921C123.845 371.921 123.381 372.062 123.05 372.343C122.719 372.625 122.553 373.006 122.553 373.486C122.553 373.867 122.686 374.173 122.951 374.405C123.216 374.637 123.547 374.819 123.944 374.952C124.342 375.084 124.913 375.241 125.659 375.424C126.702 375.656 127.547 375.904 128.193 376.169C128.855 376.417 129.418 376.823 129.882 377.386C130.362 377.933 130.602 378.678 130.602 379.622C130.602 380.798 130.139 381.75 129.211 382.479C128.3 383.208 127.066 383.572 125.51 383.572C123.721 383.572 122.288 383.175 121.212 382.38C120.135 381.568 119.481 380.417 119.249 378.927H122.603C122.686 379.606 122.984 380.144 123.497 380.541C124.011 380.922 124.681 381.113 125.51 381.113C126.106 381.113 126.561 380.972 126.876 380.69C127.191 380.392 127.348 380.011 127.348 379.548C127.348 379.15 127.207 378.827 126.926 378.579C126.661 378.33 126.321 378.14 125.907 378.007C125.51 377.875 124.938 377.718 124.193 377.535C123.166 377.303 122.33 377.072 121.684 376.84C121.054 376.591 120.508 376.202 120.044 375.672C119.597 375.142 119.373 374.413 119.373 373.486C119.373 372.293 119.829 371.324 120.74 370.579C121.65 369.834 122.909 369.461 124.516 369.461ZM140.565 380.392V383.398H138.727C137.186 383.398 136.002 383.026 135.174 382.28C134.362 381.535 133.957 380.293 133.957 378.554V372.592H132.044V369.635H133.957V366.232H137.46V369.635H140.54V372.592H137.46V378.604C137.46 379.266 137.592 379.73 137.857 379.995C138.122 380.26 138.569 380.392 139.199 380.392H140.565ZM147.831 369.461C149.504 369.461 150.845 369.884 151.855 370.728C152.866 371.573 153.495 372.699 153.744 374.107H150.464C150.332 373.444 150.034 372.914 149.57 372.517C149.106 372.119 148.502 371.921 147.756 371.921C147.16 371.921 146.696 372.062 146.365 372.343C146.034 372.625 145.868 373.006 145.868 373.486C145.868 373.867 146.001 374.173 146.266 374.405C146.531 374.637 146.862 374.819 147.259 374.952C147.657 375.084 148.228 375.241 148.974 375.424C150.017 375.656 150.862 375.904 151.508 376.169C152.17 376.417 152.733 376.823 153.197 377.386C153.677 377.933 153.917 378.678 153.917 379.622C153.917 380.798 153.454 381.75 152.526 382.479C151.615 383.208 150.381 383.572 148.825 383.572C147.036 383.572 145.603 383.175 144.527 382.38C143.45 381.568 142.796 380.417 142.564 378.927H145.918C146.001 379.606 146.299 380.144 146.812 380.541C147.326 380.922 147.996 381.113 148.825 381.113C149.421 381.113 149.876 380.972 150.191 380.69C150.506 380.392 150.663 380.011 150.663 379.548C150.663 379.15 150.522 378.827 150.241 378.579C149.976 378.33 149.636 378.14 149.222 378.007C148.825 377.875 148.253 377.718 147.508 377.535C146.481 377.303 145.645 377.072 144.999 376.84C144.369 376.591 143.823 376.202 143.359 375.672C142.912 375.142 142.688 374.413 142.688 373.486C142.688 372.293 143.144 371.324 144.055 370.579C144.966 369.834 146.224 369.461 147.831 369.461Z" fill="white"/>
<g opacity="0.85">
<path d="M485.444 306.828C475.824 306.828 467.995 314.333 467.961 323.57H470.305H473.188H482.546L482.556 318.336H474.56C476.599 314.616 480.707 312.062 485.444 312.062C490.182 312.062 494.289 314.616 496.329 318.336H488.361L488.351 323.57H497.701H498.171H502.927C502.894 314.333 495.064 306.828 485.444 306.828Z" fill="white"/>
</g>
<g opacity="0.75">
<path d="M486.063 312.059C479.992 312.059 475.053 307.303 475.053 301.457C475.053 295.611 479.992 290.855 486.063 290.855C492.134 290.855 497.073 295.611 497.073 301.457C497.073 307.303 492.134 312.059 486.063 312.059ZM486.063 296.089C482.878 296.089 480.287 298.497 480.287 301.457C480.287 304.417 482.878 306.825 486.063 306.825C489.248 306.825 491.839 304.417 491.839 301.457C491.839 298.497 489.248 296.089 486.063 296.089Z" fill="white"/>
</g>
<path d="M459.868 303.43C448.339 303.43 438.971 312.476 439.063 323.561C439.065 323.562 439.065 323.563 439.067 323.565H441.109H444.292H456.966L456.976 318.331H445.237C447.426 312.695 453.159 308.664 459.868 308.664C466.577 308.664 472.309 312.695 474.498 318.331H462.782L462.771 323.565H475.443H479.424H480.668C480.67 323.563 480.671 323.562 480.672 323.561C480.764 312.476 471.396 303.43 459.868 303.43Z" fill="white"/>
<g opacity="0.75">
<path d="M460.034 308.661C452.93 308.661 447.15 303.105 447.15 296.276C447.15 289.447 452.93 283.891 460.034 283.891C467.139 283.891 472.919 289.447 472.919 296.276C472.919 303.105 467.139 308.661 460.034 308.661ZM460.034 289.125C455.816 289.125 452.384 292.332 452.384 296.276C452.384 300.219 455.816 303.427 460.034 303.427C464.253 303.427 467.685 300.219 467.685 296.276C467.685 292.332 464.253 289.125 460.034 289.125Z" fill="white"/>
</g>
<path d="M424.328 376.889V383.398H420.825V365.859H427.209C429.28 365.859 430.837 366.356 431.88 367.35C432.94 368.343 433.47 369.693 433.47 371.399C433.47 373.072 432.923 374.405 431.83 375.399C430.754 376.393 429.213 376.889 427.209 376.889H424.328ZM426.837 374.082C428.89 374.082 429.917 373.188 429.917 371.399C429.917 370.521 429.677 369.85 429.197 369.387C428.717 368.923 427.93 368.691 426.837 368.691H424.328V374.082H426.837ZM441.136 369.461C442.296 369.461 443.289 369.734 444.118 370.281C444.946 370.828 445.534 371.565 445.881 372.492V369.635H449.36V383.398H445.881V380.517C445.534 381.444 444.946 382.189 444.118 382.753C443.289 383.299 442.296 383.572 441.136 383.572C439.977 383.572 438.934 383.291 438.006 382.728C437.079 382.165 436.35 381.353 435.82 380.293C435.306 379.216 435.05 377.958 435.05 376.517C435.05 375.076 435.306 373.825 435.82 372.765C436.35 371.689 437.079 370.869 438.006 370.306C438.934 369.743 439.977 369.461 441.136 369.461ZM442.229 372.517C441.136 372.517 440.259 372.873 439.596 373.585C438.934 374.297 438.602 375.275 438.602 376.517C438.602 377.759 438.934 378.736 439.596 379.448C440.259 380.144 441.136 380.492 442.229 380.492C443.289 380.492 444.159 380.136 444.838 379.423C445.534 378.695 445.881 377.726 445.881 376.517C445.881 375.291 445.534 374.322 444.838 373.61C444.159 372.881 443.289 372.517 442.229 372.517ZM459.888 380.392V383.398H458.049C456.509 383.398 455.325 383.026 454.497 382.28C453.685 381.535 453.279 380.293 453.279 378.554V372.592H451.366V369.635H453.279V366.232H456.782V369.635H459.863V372.592H456.782V378.604C456.782 379.266 456.915 379.73 457.18 379.995C457.445 380.26 457.892 380.392 458.521 380.392H459.888ZM462.011 365.685C462.011 365.122 462.21 364.666 462.607 364.319C463.005 363.954 463.526 363.772 464.172 363.772C464.818 363.772 465.34 363.954 465.737 364.319C466.135 364.666 466.334 365.122 466.334 365.685C466.334 366.232 466.135 366.687 465.737 367.051C465.34 367.399 464.818 367.573 464.172 367.573C463.526 367.573 463.005 367.399 462.607 367.051C462.21 366.687 462.011 366.232 462.011 365.685ZM465.911 369.635V383.398H462.408V369.635H465.911ZM482.024 375.995C482.024 376.343 481.982 376.74 481.9 377.188H471.813C471.863 378.413 472.194 379.316 472.807 379.896C473.42 380.475 474.181 380.765 475.092 380.765C475.904 380.765 476.575 380.566 477.105 380.169C477.651 379.771 477.999 379.233 478.148 378.554H481.85C481.668 379.515 481.278 380.376 480.682 381.138C480.086 381.9 479.316 382.496 478.372 382.926C477.444 383.357 476.409 383.572 475.266 383.572C473.925 383.572 472.732 383.291 471.689 382.728C470.645 382.148 469.834 381.328 469.254 380.268C468.674 379.208 468.385 377.958 468.385 376.517C468.385 375.076 468.674 373.825 469.254 372.765C469.834 371.689 470.645 370.869 471.689 370.306C472.732 369.743 473.925 369.461 475.266 369.461C476.624 369.461 477.809 369.743 478.819 370.306C479.846 370.869 480.632 371.647 481.179 372.641C481.742 373.618 482.024 374.736 482.024 375.995ZM478.496 375.647C478.546 374.521 478.248 373.668 477.602 373.088C476.972 372.509 476.194 372.219 475.266 372.219C474.322 372.219 473.527 372.509 472.881 373.088C472.235 373.668 471.879 374.521 471.813 375.647H478.496ZM492.709 369.436C494.299 369.436 495.566 369.958 496.51 371.002C497.454 372.045 497.926 373.511 497.926 375.399V383.398H494.448V375.796C494.448 374.703 494.166 373.859 493.603 373.262C493.04 372.649 492.27 372.343 491.293 372.343C490.299 372.343 489.504 372.666 488.908 373.312C488.311 373.958 488.013 374.885 488.013 376.094V383.398H484.51V369.635H488.013V372.393C488.378 371.465 488.974 370.745 489.802 370.231C490.647 369.701 491.616 369.436 492.709 369.436ZM508.362 380.392V383.398H506.523C504.983 383.398 503.799 383.026 502.971 382.28C502.159 381.535 501.753 380.293 501.753 378.554V372.592H499.84V369.635H501.753V366.232H505.256V369.635H508.337V372.592H505.256V378.604C505.256 379.266 505.389 379.73 505.654 379.995C505.919 380.26 506.366 380.392 506.995 380.392H508.362ZM515.628 369.461C517.3 369.461 518.642 369.884 519.652 370.728C520.662 371.573 521.292 372.699 521.54 374.107H518.261C518.128 373.444 517.83 372.914 517.367 372.517C516.903 372.119 516.298 371.921 515.553 371.921C514.957 371.921 514.493 372.062 514.162 372.343C513.83 372.625 513.665 373.006 513.665 373.486C513.665 373.867 513.797 374.173 514.062 374.405C514.327 374.637 514.659 374.819 515.056 374.952C515.454 375.084 516.025 375.241 516.77 375.424C517.814 375.656 518.658 375.904 519.304 376.169C519.967 376.417 520.53 376.823 520.994 377.386C521.474 377.933 521.714 378.678 521.714 379.622C521.714 380.798 521.25 381.75 520.323 382.479C519.412 383.208 518.178 383.572 516.621 383.572C514.833 383.572 513.4 383.175 512.323 382.38C511.247 381.568 510.593 380.417 510.361 378.927H513.715C513.797 379.606 514.095 380.144 514.609 380.541C515.122 380.922 515.793 381.113 516.621 381.113C517.217 381.113 517.673 380.972 517.988 380.69C518.302 380.392 518.46 380.011 518.46 379.548C518.46 379.15 518.319 378.827 518.037 378.579C517.772 378.33 517.433 378.14 517.019 378.007C516.621 377.875 516.05 377.718 515.305 377.535C514.278 377.303 513.441 377.072 512.795 376.84C512.166 376.591 511.619 376.202 511.156 375.672C510.708 375.142 510.485 374.413 510.485 373.486C510.485 372.293 510.94 371.324 511.851 370.579C512.762 369.834 514.021 369.461 515.628 369.461Z" fill="white"/>
<g clip-path="url(#clip3_3288_132282)">
<path d="M374.179 151.817L394.482 141.482V163.748L374.128 173.792L374.179 151.817ZM348.54 136.845L371.22 126.378L391.999 136.861L371.571 147.26L348.54 136.845ZM371.053 120.73L340.979 134.892L341.033 148.879L346.213 151.457L346.173 141.018L368.894 151.873L368.841 174.138L346.213 162.405L346.196 157.974L340.979 155.378L341.019 165.635L371.006 181.185L399.716 167.017V134.925L371.053 120.73Z" fill="white"/>
<g opacity="0.75">
<path d="M389.82 171.947L381.097 176.109L380.987 167.554L389.82 163.156V171.947Z" fill="white"/>
</g>
<g opacity="0.75">
<path d="M350.285 130.426L360.178 125.773L389.83 140.447L389.839 149.801L381.107 153.619V145.366L350.285 130.426Z" fill="white"/>
</g>
</g>
<path d="M321.47 213.074L326.166 226.961L330.886 213.074H334.637L328.427 230.613H323.93L317.719 213.074H321.47ZM349.471 223.21C349.471 223.558 349.43 223.955 349.347 224.402H339.26C339.31 225.628 339.641 226.531 340.254 227.11C340.867 227.69 341.629 227.98 342.54 227.98C343.351 227.98 344.022 227.781 344.552 227.384C345.098 226.986 345.446 226.448 345.595 225.769H349.297C349.115 226.729 348.726 227.591 348.129 228.353C347.533 229.114 346.763 229.711 345.819 230.141C344.891 230.572 343.856 230.787 342.713 230.787C341.372 230.787 340.179 230.506 339.136 229.943C338.093 229.363 337.281 228.543 336.701 227.483C336.122 226.423 335.832 225.173 335.832 223.732C335.832 222.291 336.122 221.04 336.701 219.98C337.281 218.904 338.093 218.084 339.136 217.521C340.179 216.958 341.372 216.676 342.713 216.676C344.072 216.676 345.256 216.958 346.266 217.521C347.293 218.084 348.08 218.862 348.626 219.856C349.189 220.833 349.471 221.951 349.471 223.21ZM345.943 222.862C345.993 221.736 345.695 220.883 345.049 220.303C344.419 219.724 343.641 219.434 342.713 219.434C341.769 219.434 340.974 219.724 340.328 220.303C339.683 220.883 339.326 221.736 339.26 222.862H345.943ZM360.156 216.651C361.746 216.651 363.013 217.173 363.957 218.216C364.901 219.26 365.373 220.726 365.373 222.614V230.613H361.895V223.011C361.895 221.918 361.613 221.073 361.05 220.477C360.487 219.864 359.717 219.558 358.74 219.558C357.746 219.558 356.951 219.881 356.355 220.527C355.759 221.173 355.461 222.1 355.461 223.309V230.613H351.958V216.85H355.461V219.608C355.825 218.68 356.421 217.96 357.249 217.446C358.094 216.916 359.063 216.651 360.156 216.651ZM373.846 216.676C375.006 216.676 375.991 216.949 376.803 217.496C377.631 218.042 378.227 218.779 378.591 219.707V212.229H382.07V230.613H378.591V227.731C378.227 228.659 377.631 229.404 376.803 229.967C375.991 230.514 375.006 230.787 373.846 230.787C372.687 230.787 371.644 230.506 370.716 229.943C369.789 229.379 369.06 228.568 368.53 227.508C368.016 226.431 367.76 225.173 367.76 223.732C367.76 222.291 368.016 221.04 368.53 219.98C369.06 218.904 369.789 218.084 370.716 217.521C371.644 216.958 372.687 216.676 373.846 216.676ZM374.939 219.732C373.846 219.732 372.968 220.088 372.306 220.8C371.644 221.512 371.312 222.489 371.312 223.732C371.312 224.974 371.644 225.951 372.306 226.663C372.968 227.359 373.846 227.707 374.939 227.707C375.999 227.707 376.869 227.35 377.548 226.638C378.244 225.91 378.591 224.941 378.591 223.732C378.591 222.506 378.244 221.537 377.548 220.825C376.869 220.096 375.999 219.732 374.939 219.732ZM391.604 216.676C392.946 216.676 394.146 216.958 395.206 217.521C396.283 218.084 397.128 218.904 397.74 219.98C398.353 221.04 398.66 222.291 398.66 223.732C398.66 225.173 398.353 226.423 397.74 227.483C397.128 228.543 396.283 229.363 395.206 229.943C394.146 230.506 392.946 230.787 391.604 230.787C390.262 230.787 389.053 230.506 387.977 229.943C386.917 229.363 386.08 228.543 385.468 227.483C384.855 226.423 384.548 225.173 384.548 223.732C384.548 222.291 384.855 221.04 385.468 219.98C386.08 218.904 386.917 218.084 387.977 217.521C389.053 216.958 390.262 216.676 391.604 216.676ZM391.604 219.707C390.627 219.707 389.799 220.055 389.12 220.75C388.441 221.429 388.101 222.423 388.101 223.732C388.101 225.04 388.441 226.042 389.12 226.738C389.799 227.417 390.627 227.756 391.604 227.756C392.581 227.756 393.409 227.417 394.088 226.738C394.767 226.042 395.107 225.04 395.107 223.732C395.107 222.423 394.767 221.429 394.088 220.75C393.409 220.055 392.581 219.707 391.604 219.707ZM404.638 219.483C405.152 218.606 405.831 217.918 406.675 217.421C407.52 216.908 408.464 216.651 409.507 216.651V220.403H408.489C405.922 220.403 404.638 221.595 404.638 223.98V230.613H401.135V216.85H404.638V219.483ZM416.191 216.676C417.864 216.676 419.206 217.098 420.216 217.943C421.226 218.788 421.856 219.914 422.104 221.322H418.825C418.692 220.659 418.394 220.129 417.93 219.732C417.467 219.334 416.862 219.136 416.117 219.136C415.521 219.136 415.057 219.276 414.726 219.558C414.394 219.839 414.229 220.22 414.229 220.701C414.229 221.082 414.361 221.388 414.626 221.62C414.891 221.852 415.222 222.034 415.62 222.166C416.017 222.299 416.589 222.456 417.334 222.639C418.378 222.87 419.222 223.119 419.868 223.384C420.531 223.632 421.094 224.038 421.558 224.601C422.038 225.148 422.278 225.893 422.278 226.837C422.278 228.013 421.814 228.965 420.887 229.694C419.976 230.423 418.742 230.787 417.185 230.787C415.396 230.787 413.964 230.39 412.887 229.595C411.811 228.783 411.156 227.632 410.924 226.141H414.278C414.361 226.821 414.659 227.359 415.173 227.756C415.686 228.137 416.357 228.328 417.185 228.328C417.781 228.328 418.237 228.187 418.551 227.905C418.866 227.607 419.023 227.226 419.023 226.763C419.023 226.365 418.883 226.042 418.601 225.794C418.336 225.545 417.997 225.355 417.583 225.222C417.185 225.09 416.614 224.932 415.868 224.75C414.841 224.518 414.005 224.286 413.359 224.055C412.73 223.806 412.183 223.417 411.719 222.887C411.272 222.357 411.049 221.628 411.049 220.701C411.049 219.508 411.504 218.539 412.415 217.794C413.326 217.049 414.585 216.676 416.191 216.676Z" fill="white"/>
<g clip-path="url(#clip4_3288_132282)">
<path d="M403.402 500.005H378.254C372.521 500.005 367.857 495.341 367.857 489.608V469.111C367.857 463.379 372.521 458.715 378.254 458.715H403.402C409.135 458.715 413.799 463.379 413.799 469.111V476.743H408.565V469.111C408.565 466.265 406.249 463.949 403.402 463.949H378.254C375.407 463.949 373.091 466.265 373.091 469.111V489.608C373.091 492.455 375.407 494.771 378.254 494.771H403.402C406.249 494.771 408.565 492.455 408.565 489.608V481.977H413.799V489.608C413.799 495.341 409.135 500.005 403.402 500.005Z" fill="white"/>
<g opacity="0.75">
<path d="M397.83 487.206H383.244C378.921 487.206 375.417 483.701 375.417 479.379V479.331C375.417 475.008 378.922 471.504 383.245 471.504H397.83C402.153 471.504 405.657 475.008 405.657 479.331V479.378C405.657 483.701 402.153 487.206 397.83 487.206ZM380.651 479.298V479.412C380.651 480.826 381.797 481.972 383.211 481.972H397.863C399.277 481.972 400.424 480.826 400.424 479.412V479.298C400.424 477.884 399.277 476.738 397.863 476.738H383.211C381.797 476.738 380.651 477.884 380.651 479.298Z" fill="white"/>
</g>
<path d="M393.442 471.5H388.208V487.202H393.442V471.5Z" fill="white"/>
<path d="M404.497 457.548H376.583V445.336H404.497V457.548ZM381.816 452.315H399.263V450.57H381.816V452.315Z" fill="white"/>
<g opacity="0.75">
<path d="M398.681 463.959H382.979V452.328H398.681V463.959ZM388.213 458.725H393.447V457.562H388.213V458.725Z" fill="white"/>
</g>
</g>
<path d="M315.91 545.831V552.34H312.407V534.8H318.792C320.862 534.8 322.419 535.297 323.462 536.291C324.522 537.285 325.052 538.634 325.052 540.34C325.052 542.013 324.506 543.346 323.413 544.34C322.336 545.334 320.796 545.831 318.792 545.831H315.91ZM318.419 543.024C320.473 543.024 321.5 542.129 321.5 540.34C321.5 539.463 321.26 538.792 320.779 538.328C320.299 537.864 319.512 537.632 318.419 537.632H315.91V543.024H318.419ZM335.526 538.378C337.116 538.378 338.383 538.899 339.327 539.943C340.271 540.986 340.743 542.452 340.743 544.34V552.34H337.265V544.738C337.265 543.645 336.984 542.8 336.42 542.204C335.857 541.591 335.087 541.284 334.11 541.284C333.116 541.284 332.321 541.607 331.725 542.253C331.129 542.899 330.831 543.827 330.831 545.036V552.34H327.328V533.956H330.831V541.334C331.195 540.407 331.791 539.686 332.619 539.173C333.464 538.643 334.433 538.378 335.526 538.378ZM349.216 538.403C350.376 538.403 351.37 538.676 352.198 539.222C353.026 539.769 353.614 540.506 353.962 541.434V538.577H357.44V552.34H353.962V549.458C353.614 550.385 353.026 551.131 352.198 551.694C351.37 552.24 350.376 552.514 349.216 552.514C348.057 552.514 347.014 552.232 346.086 551.669C345.159 551.106 344.43 550.294 343.9 549.234C343.387 548.158 343.13 546.899 343.13 545.458C343.13 544.017 343.387 542.767 343.9 541.707C344.43 540.63 345.159 539.81 346.086 539.247C347.014 538.684 348.057 538.403 349.216 538.403ZM350.31 541.458C349.216 541.458 348.339 541.814 347.676 542.527C347.014 543.239 346.682 544.216 346.682 545.458C346.682 546.7 347.014 547.678 347.676 548.39C348.339 549.085 349.216 549.433 350.31 549.433C351.37 549.433 352.239 549.077 352.918 548.365C353.614 547.636 353.962 546.667 353.962 545.458C353.962 544.233 353.614 543.264 352.918 542.551C352.239 541.823 351.37 541.458 350.31 541.458ZM364.117 541.21C364.631 540.332 365.31 539.645 366.154 539.148C366.999 538.634 367.943 538.378 368.986 538.378V542.129H367.968C365.401 542.129 364.117 543.322 364.117 545.707V552.34H360.614V538.577H364.117V541.21ZM388.44 538.378C390.113 538.378 391.429 538.899 392.39 539.943C393.367 540.97 393.856 542.436 393.856 544.34V552.34H390.378V544.738C390.378 543.678 390.104 542.866 389.558 542.303C389.028 541.723 388.291 541.434 387.347 541.434C386.37 541.434 385.591 541.74 385.012 542.353C384.432 542.966 384.142 543.86 384.142 545.036V552.34H380.664V544.738C380.664 543.678 380.391 542.866 379.844 542.303C379.314 541.723 378.577 541.434 377.633 541.434C376.656 541.434 375.877 541.74 375.298 542.353C374.718 542.966 374.428 543.86 374.428 545.036V552.34H370.925V538.577H374.428V541.185C374.793 540.291 375.364 539.603 376.142 539.123C376.937 538.626 377.857 538.378 378.9 538.378C380.01 538.378 380.97 538.643 381.782 539.173C382.61 539.703 383.231 540.465 383.645 541.458C384.076 540.514 384.713 539.769 385.558 539.222C386.419 538.659 387.38 538.378 388.44 538.378ZM402.324 538.403C403.484 538.403 404.477 538.676 405.306 539.222C406.134 539.769 406.722 540.506 407.069 541.434V538.577H410.548V552.34H407.069V549.458C406.722 550.385 406.134 551.131 405.306 551.694C404.477 552.24 403.484 552.514 402.324 552.514C401.165 552.514 400.122 552.232 399.194 551.669C398.267 551.106 397.538 550.294 397.008 549.234C396.494 548.158 396.238 546.899 396.238 545.458C396.238 544.017 396.494 542.767 397.008 541.707C397.538 540.63 398.267 539.81 399.194 539.247C400.122 538.684 401.165 538.403 402.324 538.403ZM403.417 541.458C402.324 541.458 401.447 541.814 400.784 542.527C400.122 543.239 399.79 544.216 399.79 545.458C399.79 546.7 400.122 547.678 400.784 548.39C401.447 549.085 402.324 549.433 403.417 549.433C404.477 549.433 405.347 549.077 406.026 548.365C406.722 547.636 407.069 546.667 407.069 545.458C407.069 544.233 406.722 543.264 406.026 542.551C405.347 541.823 404.477 541.458 403.417 541.458ZM419.908 538.403C421.68 538.403 423.154 538.883 424.33 539.844C425.523 540.804 426.268 542.113 426.566 543.769H422.865C422.715 543.04 422.376 542.469 421.846 542.055C421.316 541.624 420.645 541.409 419.834 541.409C418.906 541.409 418.128 541.757 417.498 542.452C416.885 543.131 416.579 544.133 416.579 545.458C416.579 546.783 416.885 547.793 417.498 548.489C418.128 549.168 418.906 549.508 419.834 549.508C420.645 549.508 421.316 549.301 421.846 548.887C422.376 548.456 422.715 547.876 422.865 547.148H426.566C426.268 548.804 425.523 550.112 424.33 551.073C423.154 552.033 421.68 552.514 419.908 552.514C418.567 552.514 417.374 552.232 416.331 551.669C415.287 551.089 414.476 550.27 413.896 549.21C413.316 548.15 413.026 546.899 413.026 545.458C413.026 544.017 413.316 542.767 413.896 541.707C414.476 540.63 415.287 539.81 416.331 539.247C417.374 538.684 418.567 538.403 419.908 538.403ZM428.658 534.626C428.658 534.063 428.856 533.608 429.254 533.26C429.651 532.896 430.173 532.713 430.819 532.713C431.465 532.713 431.987 532.896 432.384 533.26C432.782 533.608 432.98 534.063 432.98 534.626C432.98 535.173 432.782 535.628 432.384 535.993C431.987 536.341 431.465 536.515 430.819 536.515C430.173 536.515 429.651 536.341 429.254 535.993C428.856 535.628 428.658 535.173 428.658 534.626ZM432.558 538.577V552.34H429.055V538.577H432.558ZM440.472 538.403C442.145 538.403 443.487 538.825 444.497 539.67C445.507 540.514 446.136 541.641 446.385 543.048H443.106C442.973 542.386 442.675 541.856 442.211 541.458C441.747 541.061 441.143 540.862 440.398 540.862C439.801 540.862 439.338 541.003 439.006 541.284C438.675 541.566 438.51 541.947 438.51 542.427C438.51 542.808 438.642 543.115 438.907 543.346C439.172 543.578 439.503 543.761 439.901 543.893C440.298 544.026 440.87 544.183 441.615 544.365C442.658 544.597 443.503 544.845 444.149 545.11C444.811 545.359 445.375 545.765 445.838 546.328C446.319 546.874 446.559 547.62 446.559 548.564C446.559 549.74 446.095 550.692 445.168 551.421C444.257 552.149 443.023 552.514 441.466 552.514C439.677 552.514 438.245 552.116 437.168 551.321C436.091 550.51 435.437 549.359 435.205 547.868H438.559C438.642 548.547 438.94 549.085 439.454 549.483C439.967 549.864 440.638 550.054 441.466 550.054C442.062 550.054 442.518 549.913 442.832 549.632C443.147 549.334 443.304 548.953 443.304 548.489C443.304 548.092 443.164 547.769 442.882 547.52C442.617 547.272 442.277 547.081 441.863 546.949C441.466 546.816 440.895 546.659 440.149 546.477C439.122 546.245 438.286 546.013 437.64 545.781C437.011 545.533 436.464 545.144 436 544.614C435.553 544.084 435.33 543.355 435.33 542.427C435.33 541.235 435.785 540.266 436.696 539.521C437.607 538.775 438.866 538.403 440.472 538.403ZM456.521 549.334V552.34H454.683C453.143 552.34 451.959 551.967 451.13 551.222C450.319 550.477 449.913 549.234 449.913 547.495V541.533H448V538.577H449.913V535.173H453.416V538.577H456.497V541.533H453.416V547.545C453.416 548.208 453.549 548.671 453.814 548.936C454.079 549.201 454.526 549.334 455.155 549.334H456.521ZM463.787 538.403C465.46 538.403 466.802 538.825 467.812 539.67C468.822 540.514 469.452 541.641 469.7 543.048H466.421C466.288 542.386 465.99 541.856 465.526 541.458C465.063 541.061 464.458 540.862 463.713 540.862C463.116 540.862 462.653 541.003 462.321 541.284C461.99 541.566 461.825 541.947 461.825 542.427C461.825 542.808 461.957 543.115 462.222 543.346C462.487 543.578 462.818 543.761 463.216 543.893C463.613 544.026 464.185 544.183 464.93 544.365C465.973 544.597 466.818 544.845 467.464 545.11C468.127 545.359 468.69 545.765 469.153 546.328C469.634 546.874 469.874 547.62 469.874 548.564C469.874 549.74 469.41 550.692 468.483 551.421C467.572 552.149 466.338 552.514 464.781 552.514C462.992 552.514 461.56 552.116 460.483 551.321C459.406 550.51 458.752 549.359 458.52 547.868H461.874C461.957 548.547 462.255 549.085 462.769 549.483C463.282 549.864 463.953 550.054 464.781 550.054C465.377 550.054 465.833 549.913 466.147 549.632C466.462 549.334 466.619 548.953 466.619 548.489C466.619 548.092 466.479 547.769 466.197 547.52C465.932 547.272 465.593 547.081 465.178 546.949C464.781 546.816 464.21 546.659 463.464 546.477C462.437 546.245 461.601 546.013 460.955 545.781C460.326 545.533 459.779 545.144 459.315 544.614C458.868 544.084 458.645 543.355 458.645 542.427C458.645 541.235 459.1 540.266 460.011 539.521C460.922 538.775 462.181 538.403 463.787 538.403Z" fill="white"/>
<defs>
<clipPath id="clip0_3288_132282">
<rect width="52.63" height="57.7168" fill="white" transform="translate(173.224 122.07)"/>
</clipPath>
<clipPath id="clip1_3288_132282">
<rect width="41.6102" height="40.2451" fill="white" transform="translate(183.712 452.543)"/>
</clipPath>
<clipPath id="clip2_3288_132282">
<rect width="41.6223" height="50.5967" fill="white" transform="translate(82.4741 278.43)"/>
</clipPath>
<clipPath id="clip3_3288_132282">
<rect width="58.7363" height="60.4549" fill="white" transform="translate(340.969 120.723)"/>
</clipPath>
<clipPath id="clip4_3288_132282">
<rect width="45.9422" height="54.6654" fill="white" transform="translate(367.862 445.316)"/>
</clipPath>
</defs>
</svg>
