<svg width="584" height="678" viewBox="0 0 584 678" fill="none" xmlns="http://www.w3.org/2000/svg">
<path d="M292.992 0L584 169.433L583.999 507.87L292.992 677.302L0 507.87V170.711L292.992 0Z" fill="#711F3C"/>
<path d="M291.875 4.68402V337.591L5.16434 170.812L291.875 4.68402Z" fill="#D81D5B"/>
<path d="M291.875 4.68402V337.591L5.16434 170.812L291.875 4.68402Z" stroke="#711F3C"/>
<path d="M294.586 337.595V4.68848L581.297 171.468L294.586 337.595Z" fill="#902F57"/>
<path d="M294.586 337.595V4.68848L581.297 171.468L294.586 337.595Z" stroke="#711F3C"/>
<path d="M2.67188 504.903V172.419L289.502 338.986L2.67188 504.903Z" fill="#D81D5B"/>
<path d="M2.67188 504.903V172.419L289.502 338.986L2.67188 504.903Z" stroke="#711F3C"/>
<path d="M581.297 503.891V174.35L296.6 339.165L581.297 503.891Z" fill="#A662A7"/>
<path d="M581.297 503.891V174.35L296.6 339.165L581.297 503.891Z" stroke="#711F3C"/>
<path d="M291.875 340.08V672.986L3 506.207L291.875 340.08Z" fill="#D81D5B"/>
<path d="M291.875 340.08V672.986L3 506.207L291.875 340.08Z" stroke="#711F3C"/>
<path d="M294.586 672.991V340.084L581.297 506.863L294.586 672.991Z" fill="#D81D5B"/>
<path d="M294.586 672.991V340.084L581.297 506.863L294.586 672.991Z" stroke="#711F3C"/>
<g clip-path="url(#clip0_2638_111306)">
<path d="M200.699 129.724H199.536C197.297 129.724 195.465 127.892 195.465 125.653C195.465 123.414 197.297 121.582 199.536 121.582H200.699C202.938 121.582 204.77 123.414 204.77 125.653C204.77 127.892 202.938 129.724 200.699 129.724Z" fill="white"/>
<path d="M185.581 129.724H184.418C182.179 129.724 180.347 127.892 180.347 125.653C180.347 123.414 182.179 121.582 184.418 121.582H185.581C187.82 121.582 189.651 123.414 189.651 125.653C189.651 127.892 187.82 129.724 185.581 129.724Z" fill="white"/>
<g opacity="0.95">
<path d="M214.032 179.304H197.131C193.174 179.304 190.073 175.074 190.073 169.676V156.914H195.307V169.676C195.307 172.559 196.662 174.07 197.131 174.07H214.032C214.5 174.07 215.855 172.559 215.855 169.676V160.407H221.089V169.676C221.089 175.074 217.989 179.304 214.032 179.304Z" fill="white"/>
</g>
<g opacity="0.75">
<path d="M209.701 126.045C207.267 123.706 203.664 123.255 199.431 123.21V127.484C202.663 127.519 205.295 127.812 206.627 129.091C207.517 129.947 207.95 131.382 207.95 133.478C207.95 137.883 206.073 143.839 203.168 148.651C200.027 153.854 196.239 156.838 192.777 156.838C184.953 156.838 177.604 142.265 177.604 133.478C177.604 131.382 178.037 129.947 178.928 129.091C180.282 127.791 182.979 127.511 186.286 127.483V123.208C181.983 123.243 178.319 123.676 175.854 126.045C174.083 127.746 173.223 130.177 173.223 133.478C173.223 143.185 181.287 161.114 192.777 161.114C204.268 161.114 212.332 143.185 212.332 133.478C212.332 130.177 211.471 127.746 209.701 126.045Z" fill="white"/>
</g>
<g opacity="0.75">
<path d="M218.583 165.051C214.574 165.051 211.313 161.79 211.313 157.782C211.313 153.774 214.574 150.513 218.583 150.513C222.591 150.513 225.852 153.774 225.852 157.782C225.852 161.791 222.591 165.051 218.583 165.051ZM218.583 155.747C217.461 155.747 216.547 156.66 216.547 157.782C216.547 158.904 217.461 159.817 218.583 159.817C219.705 159.817 220.618 158.904 220.618 157.782C220.618 156.66 219.705 155.747 218.583 155.747Z" fill="white"/>
</g>
</g>
<path d="M136.974 223.603V230.112H133.471V212.573H139.856C141.926 212.573 143.483 213.07 144.526 214.063C145.586 215.057 146.116 216.407 146.116 218.113C146.116 219.786 145.57 221.119 144.477 222.113C143.4 223.106 141.86 223.603 139.856 223.603H136.974ZM139.483 220.796C141.537 220.796 142.564 219.902 142.564 218.113C142.564 217.235 142.323 216.564 141.843 216.101C141.363 215.637 140.576 215.405 139.483 215.405H136.974V220.796H139.483ZM156.59 216.15C158.18 216.15 159.447 216.672 160.391 217.715C161.335 218.759 161.807 220.225 161.807 222.113V230.112H158.329V222.51C158.329 221.417 158.047 220.572 157.484 219.976C156.921 219.363 156.151 219.057 155.174 219.057C154.18 219.057 153.385 219.38 152.789 220.026C152.193 220.672 151.894 221.599 151.894 222.808V230.112H148.392V211.728H151.894V219.107C152.259 218.179 152.855 217.459 153.683 216.945C154.528 216.415 155.497 216.15 156.59 216.15ZM167.249 216.349L171.001 225.69L174.479 216.349H178.33L169.908 236.671H166.032L169.137 229.715L163.349 216.349H167.249ZM184.725 216.175C186.398 216.175 187.739 216.597 188.749 217.442C189.76 218.287 190.389 219.413 190.638 220.821H187.358C187.226 220.158 186.928 219.628 186.464 219.231C186 218.833 185.396 218.635 184.65 218.635C184.054 218.635 183.59 218.775 183.259 219.057C182.928 219.338 182.762 219.719 182.762 220.2C182.762 220.581 182.895 220.887 183.16 221.119C183.425 221.351 183.756 221.533 184.153 221.666C184.551 221.798 185.122 221.955 185.868 222.138C186.911 222.369 187.756 222.618 188.402 222.883C189.064 223.131 189.627 223.537 190.091 224.1C190.571 224.647 190.811 225.392 190.811 226.336C190.811 227.512 190.348 228.464 189.42 229.193C188.509 229.922 187.275 230.286 185.719 230.286C183.93 230.286 182.497 229.889 181.421 229.094C180.344 228.282 179.69 227.131 179.458 225.64H182.812C182.895 226.32 183.193 226.858 183.706 227.255C184.22 227.636 184.89 227.827 185.719 227.827C186.315 227.827 186.77 227.686 187.085 227.404C187.4 227.106 187.557 226.725 187.557 226.262C187.557 225.864 187.416 225.541 187.135 225.293C186.87 225.044 186.53 224.854 186.116 224.721C185.719 224.589 185.147 224.431 184.402 224.249C183.375 224.017 182.539 223.785 181.893 223.554C181.263 223.305 180.717 222.916 180.253 222.386C179.806 221.856 179.582 221.127 179.582 220.2C179.582 219.007 180.038 218.038 180.949 217.293C181.859 216.548 183.118 216.175 184.725 216.175ZM193.023 212.399C193.023 211.836 193.222 211.38 193.619 211.032C194.017 210.668 194.538 210.486 195.184 210.486C195.83 210.486 196.352 210.668 196.749 211.032C197.147 211.38 197.346 211.836 197.346 212.399C197.346 212.945 197.147 213.401 196.749 213.765C196.352 214.113 195.83 214.287 195.184 214.287C194.538 214.287 194.017 214.113 193.619 213.765C193.222 213.401 193.023 212.945 193.023 212.399ZM196.923 216.349V230.112H193.42V216.349H196.923ZM206.278 216.175C208.05 216.175 209.524 216.655 210.7 217.616C211.893 218.577 212.638 219.885 212.936 221.541H209.235C209.086 220.813 208.746 220.241 208.216 219.827C207.686 219.396 207.015 219.181 206.204 219.181C205.276 219.181 204.498 219.529 203.868 220.225C203.256 220.904 202.949 221.906 202.949 223.231C202.949 224.556 203.256 225.566 203.868 226.262C204.498 226.941 205.276 227.28 206.204 227.28C207.015 227.28 207.686 227.073 208.216 226.659C208.746 226.228 209.086 225.649 209.235 224.92H212.936C212.638 226.576 211.893 227.885 210.7 228.845C209.524 229.806 208.05 230.286 206.278 230.286C204.937 230.286 203.744 230.005 202.701 229.442C201.657 228.862 200.846 228.042 200.266 226.982C199.686 225.922 199.397 224.672 199.397 223.231C199.397 221.79 199.686 220.539 200.266 219.479C200.846 218.403 201.657 217.583 202.701 217.02C203.744 216.457 204.937 216.175 206.278 216.175ZM215.028 212.399C215.028 211.836 215.227 211.38 215.624 211.032C216.022 210.668 216.543 210.486 217.189 210.486C217.835 210.486 218.357 210.668 218.754 211.032C219.152 211.38 219.351 211.836 219.351 212.399C219.351 212.945 219.152 213.401 218.754 213.765C218.357 214.113 217.835 214.287 217.189 214.287C216.543 214.287 216.022 214.113 215.624 213.765C215.227 213.401 215.028 212.945 215.028 212.399ZM218.928 216.349V230.112H215.425V216.349H218.928ZM227.488 216.175C228.648 216.175 229.641 216.448 230.469 216.995C231.298 217.541 231.886 218.279 232.233 219.206V216.349H235.711V230.112H232.233V227.23C231.886 228.158 231.298 228.903 230.469 229.466C229.641 230.013 228.648 230.286 227.488 230.286C226.329 230.286 225.285 230.005 224.358 229.442C223.43 228.878 222.702 228.067 222.172 227.007C221.658 225.93 221.402 224.672 221.402 223.231C221.402 221.79 221.658 220.539 222.172 219.479C222.702 218.403 223.43 217.583 224.358 217.02C225.285 216.457 226.329 216.175 227.488 216.175ZM228.581 219.231C227.488 219.231 226.61 219.587 225.948 220.299C225.285 221.011 224.954 221.988 224.954 223.231C224.954 224.473 225.285 225.45 225.948 226.162C226.61 226.858 227.488 227.206 228.581 227.206C229.641 227.206 230.511 226.85 231.19 226.137C231.886 225.409 232.233 224.44 232.233 223.231C232.233 222.005 231.886 221.036 231.19 220.324C230.511 219.595 229.641 219.231 228.581 219.231ZM247.084 216.15C248.674 216.15 249.941 216.672 250.885 217.715C251.829 218.759 252.301 220.225 252.301 222.113V230.112H248.823V222.51C248.823 221.417 248.542 220.572 247.979 219.976C247.416 219.363 246.645 219.057 245.668 219.057C244.675 219.057 243.88 219.38 243.283 220.026C242.687 220.672 242.389 221.599 242.389 222.808V230.112H238.886V216.349H242.389V219.107C242.753 218.179 243.35 217.459 244.178 216.945C245.022 216.415 245.991 216.15 247.084 216.15ZM260.129 216.175C261.802 216.175 263.143 216.597 264.153 217.442C265.164 218.287 265.793 219.413 266.042 220.821H262.762C262.63 220.158 262.332 219.628 261.868 219.231C261.404 218.833 260.8 218.635 260.054 218.635C259.458 218.635 258.994 218.775 258.663 219.057C258.332 219.338 258.166 219.719 258.166 220.2C258.166 220.581 258.299 220.887 258.564 221.119C258.829 221.351 259.16 221.533 259.557 221.666C259.955 221.798 260.526 221.955 261.272 222.138C262.315 222.369 263.16 222.618 263.806 222.883C264.468 223.131 265.031 223.537 265.495 224.1C265.975 224.647 266.215 225.392 266.215 226.336C266.215 227.512 265.752 228.464 264.824 229.193C263.913 229.922 262.679 230.286 261.122 230.286C259.334 230.286 257.901 229.889 256.825 229.094C255.748 228.282 255.094 227.131 254.862 225.64H258.216C258.299 226.32 258.597 226.858 259.11 227.255C259.624 227.636 260.294 227.827 261.122 227.827C261.719 227.827 262.174 227.686 262.489 227.404C262.804 227.106 262.961 226.725 262.961 226.262C262.961 225.864 262.82 225.541 262.539 225.293C262.274 225.044 261.934 224.854 261.52 224.721C261.122 224.589 260.551 224.431 259.806 224.249C258.779 224.017 257.943 223.785 257.297 223.554C256.667 223.305 256.121 222.916 255.657 222.386C255.21 221.856 254.986 221.127 254.986 220.2C254.986 219.007 255.442 218.038 256.353 217.293C257.263 216.548 258.522 216.175 260.129 216.175Z" fill="white"/>
<g clip-path="url(#clip1_2638_111306)">
<g opacity="0.75">
<path d="M207.212 478.908H201.979V492.284H207.212V478.908Z" fill="white"/>
</g>
<g opacity="0.75">
<path d="M211.289 483.002H197.913V488.236H211.289V483.002Z" fill="white"/>
</g>
<path d="M204.52 471.569C192.991 471.569 183.623 480.615 183.716 491.701C183.717 491.702 183.718 491.703 183.719 491.704H185.761H188.944H194.64V486.47H189.889C192.079 480.835 197.811 476.803 204.52 476.803C211.229 476.803 216.961 480.835 219.151 486.47H214.412V491.704H220.096H224.076H225.321C225.322 491.703 225.323 491.702 225.324 491.701C225.417 480.615 216.048 471.569 204.52 471.569Z" fill="white"/>
<g opacity="0.75">
<path d="M204.692 476.802C197.588 476.802 191.808 471.247 191.808 464.417C191.808 457.588 197.588 452.032 204.692 452.032C211.796 452.032 217.576 457.588 217.576 464.417C217.576 471.247 211.796 476.802 204.692 476.802ZM204.692 457.266C200.473 457.266 197.042 460.474 197.042 464.417C197.042 468.361 200.473 471.569 204.692 471.569C208.91 471.569 212.342 468.361 212.342 464.417C212.342 460.474 208.91 457.266 204.692 457.266Z" fill="white"/>
</g>
</g>
<path d="M147.082 545.332V551.841H143.579V534.301H149.963C152.034 534.301 153.591 534.798 154.634 535.792C155.694 536.786 156.224 538.135 156.224 539.841C156.224 541.514 155.677 542.847 154.584 543.841C153.508 544.835 151.967 545.332 149.963 545.332H147.082ZM149.591 542.524C151.645 542.524 152.671 541.63 152.671 539.841C152.671 538.964 152.431 538.293 151.951 537.829C151.471 537.365 150.684 537.133 149.591 537.133H147.082V542.524H149.591ZM171.443 544.437C171.443 544.785 171.401 545.183 171.319 545.63H161.232C161.282 546.856 161.613 547.758 162.226 548.338C162.839 548.918 163.601 549.207 164.511 549.207C165.323 549.207 165.994 549.009 166.524 548.611C167.07 548.214 167.418 547.675 167.567 546.996H171.269C171.087 547.957 170.697 548.818 170.101 549.58C169.505 550.342 168.735 550.938 167.791 551.369C166.863 551.799 165.828 552.015 164.685 552.015C163.344 552.015 162.151 551.733 161.108 551.17C160.064 550.59 159.253 549.771 158.673 548.711C158.094 547.651 157.804 546.4 157.804 544.959C157.804 543.518 158.094 542.268 158.673 541.208C159.253 540.131 160.064 539.311 161.108 538.748C162.151 538.185 163.344 537.904 164.685 537.904C166.043 537.904 167.228 538.185 168.238 538.748C169.265 539.311 170.052 540.09 170.598 541.084C171.161 542.061 171.443 543.179 171.443 544.437ZM167.915 544.09C167.965 542.963 167.667 542.11 167.021 541.531C166.391 540.951 165.613 540.661 164.685 540.661C163.741 540.661 162.946 540.951 162.3 541.531C161.654 542.11 161.298 542.963 161.232 544.09H167.915ZM177.432 540.711C177.946 539.833 178.625 539.146 179.47 538.649C180.314 538.135 181.258 537.879 182.302 537.879V541.63H181.283C178.716 541.63 177.432 542.823 177.432 545.208V551.841H173.929V538.078H177.432V540.711ZM188.986 537.904C190.658 537.904 192 538.326 193.01 539.171C194.021 540.015 194.65 541.142 194.898 542.549H191.619C191.487 541.887 191.188 541.357 190.725 540.959C190.261 540.562 189.656 540.363 188.911 540.363C188.315 540.363 187.851 540.504 187.52 540.785C187.189 541.067 187.023 541.448 187.023 541.928C187.023 542.309 187.155 542.616 187.42 542.847C187.685 543.079 188.017 543.262 188.414 543.394C188.812 543.527 189.383 543.684 190.128 543.866C191.172 544.098 192.017 544.346 192.662 544.611C193.325 544.86 193.888 545.266 194.352 545.829C194.832 546.375 195.072 547.121 195.072 548.065C195.072 549.241 194.609 550.193 193.681 550.922C192.77 551.65 191.536 552.015 189.979 552.015C188.191 552.015 186.758 551.617 185.681 550.822C184.605 550.011 183.951 548.86 183.719 547.369H187.073C187.155 548.048 187.454 548.586 187.967 548.984C188.48 549.365 189.151 549.555 189.979 549.555C190.576 549.555 191.031 549.414 191.346 549.133C191.66 548.835 191.818 548.454 191.818 547.99C191.818 547.593 191.677 547.27 191.395 547.021C191.13 546.773 190.791 546.582 190.377 546.45C189.979 546.317 189.408 546.16 188.663 545.978C187.636 545.746 186.799 545.514 186.153 545.282C185.524 545.034 184.978 544.644 184.514 544.114C184.067 543.584 183.843 542.856 183.843 541.928C183.843 540.736 184.298 539.767 185.209 539.022C186.12 538.276 187.379 537.904 188.986 537.904ZM204.041 537.904C205.383 537.904 206.584 538.185 207.644 538.748C208.72 539.311 209.565 540.131 210.178 541.208C210.79 542.268 211.097 543.518 211.097 544.959C211.097 546.4 210.79 547.651 210.178 548.711C209.565 549.771 208.72 550.59 207.644 551.17C206.584 551.733 205.383 552.015 204.041 552.015C202.7 552.015 201.491 551.733 200.414 551.17C199.354 550.59 198.518 549.771 197.905 548.711C197.292 547.651 196.986 546.4 196.986 544.959C196.986 543.518 197.292 542.268 197.905 541.208C198.518 540.131 199.354 539.311 200.414 538.748C201.491 538.185 202.7 537.904 204.041 537.904ZM204.041 540.935C203.064 540.935 202.236 541.282 201.557 541.978C200.878 542.657 200.538 543.651 200.538 544.959C200.538 546.268 200.878 547.27 201.557 547.965C202.236 548.644 203.064 548.984 204.041 548.984C205.018 548.984 205.846 548.644 206.526 547.965C207.205 547.27 207.544 546.268 207.544 544.959C207.544 543.651 207.205 542.657 206.526 541.978C205.846 541.282 205.018 540.935 204.041 540.935ZM221.771 537.879C223.361 537.879 224.628 538.4 225.572 539.444C226.516 540.487 226.988 541.953 226.988 543.841V551.841H223.51V544.239C223.51 543.146 223.228 542.301 222.665 541.705C222.102 541.092 221.332 540.785 220.355 540.785C219.361 540.785 218.566 541.108 217.97 541.754C217.373 542.4 217.075 543.328 217.075 544.537V551.841H213.572V538.078H217.075V540.835C217.44 539.908 218.036 539.187 218.864 538.674C219.709 538.144 220.678 537.879 221.771 537.879ZM238.268 537.879C239.858 537.879 241.125 538.4 242.069 539.444C243.014 540.487 243.486 541.953 243.486 543.841V551.841H240.007V544.239C240.007 543.146 239.726 542.301 239.163 541.705C238.6 541.092 237.829 540.785 236.852 540.785C235.859 540.785 235.064 541.108 234.467 541.754C233.871 542.4 233.573 543.328 233.573 544.537V551.841H230.07V538.078H233.573V540.835C233.937 539.908 234.534 539.187 235.362 538.674C236.206 538.144 237.175 537.879 238.268 537.879ZM259.511 544.437C259.511 544.785 259.47 545.183 259.387 545.63H249.3C249.35 546.856 249.681 547.758 250.294 548.338C250.907 548.918 251.669 549.207 252.58 549.207C253.391 549.207 254.062 549.009 254.592 548.611C255.139 548.214 255.487 547.675 255.636 546.996H259.337C259.155 547.957 258.766 548.818 258.17 549.58C257.573 550.342 256.803 550.938 255.859 551.369C254.932 551.799 253.897 552.015 252.754 552.015C251.412 552.015 250.22 551.733 249.176 551.17C248.133 550.59 247.321 549.771 246.742 548.711C246.162 547.651 245.872 546.4 245.872 544.959C245.872 543.518 246.162 542.268 246.742 541.208C247.321 540.131 248.133 539.311 249.176 538.748C250.22 538.185 251.412 537.904 252.754 537.904C254.112 537.904 255.296 538.185 256.306 538.748C257.333 539.311 258.12 540.09 258.666 541.084C259.23 542.061 259.511 543.179 259.511 544.437ZM255.983 544.09C256.033 542.963 255.735 542.11 255.089 541.531C254.46 540.951 253.681 540.661 252.754 540.661C251.81 540.661 251.015 540.951 250.369 541.531C249.723 542.11 249.367 542.963 249.3 544.09H255.983ZM265.501 533.457V551.841H261.998V533.457H265.501Z" fill="white"/>
<g clip-path="url(#clip2_2638_111306)">
<g opacity="0.75">
<path d="M106.418 285.41H101.185V301.112H106.418V285.41Z" fill="white"/>
</g>
<g opacity="0.75">
<path d="M111.645 290.652H95.9434V295.886H111.645V290.652Z" fill="white"/>
</g>
<path d="M93.4801 328.538C93.2132 328.538 92.9453 328.524 92.6768 328.496C89.8576 328.198 87.3569 326.394 85.8147 323.545C82.6493 317.695 79.4874 291.804 87.6476 283.468C90.9915 280.051 95.9408 277.985 100.888 277.941L100.932 283.175C97.3493 283.207 93.6442 284.737 91.2628 287.168C88.711 289.772 87.3779 296.122 87.6065 304.588C87.8184 312.451 89.3007 319.166 90.2892 320.991C91.0203 322.341 92.0543 323.151 93.2015 323.271C94.0697 323.36 94.8835 323.042 95.4332 322.39C96.4301 321.208 96.3674 318.764 96.3075 316.401C96.2304 313.385 96.1505 310.267 98.0549 307.97C99.4162 306.328 101.334 305.385 103.317 305.382H103.325C105.236 305.382 107.023 306.263 108.357 307.863C110.36 310.267 110.417 313.557 110.466 316.46C110.507 318.872 110.545 321.149 111.573 322.294C112.122 322.906 113.027 323.26 113.905 323.224C114.479 323.2 115.296 322.997 115.926 322.167C118.074 319.338 121.838 298.436 115.534 288.124C113.587 284.939 109.325 283.277 106.122 283.283L106.113 278.049H106.139C110.758 278.049 116.789 280.305 119.872 285.353C127 297.025 123.746 320.411 119.967 325.394C118.537 327.279 116.459 328.372 114.117 328.471C111.721 328.571 109.366 327.593 107.804 325.851C105.467 323.246 105.407 319.701 105.354 316.573C105.318 314.444 105.281 312.243 104.463 311.261C104.102 310.827 103.729 310.616 103.325 310.616H103.324C102.852 310.616 102.342 310.894 101.958 311.357C101.312 312.137 101.368 314.342 101.418 316.287C101.499 319.488 101.592 323.115 99.3081 325.826C97.8492 327.557 95.7151 328.538 93.4801 328.538Z" fill="white"/>
</g>
<path d="M68.6746 374.105C68.6746 375.844 68.3102 377.376 67.5815 378.701C66.8527 380.026 65.7928 381.061 64.4015 381.806C63.0268 382.535 61.3872 382.899 59.4825 382.899H53.2468V365.36H59.4825C61.3872 365.36 63.0268 365.724 64.4015 366.453C65.7928 367.165 66.8527 368.184 67.5815 369.509C68.3102 370.817 68.6746 372.349 68.6746 374.105ZM59.1844 379.769C61.0725 379.769 62.53 379.272 63.5568 378.279C64.6003 377.285 65.122 375.894 65.122 374.105C65.122 372.3 64.6003 370.9 63.5568 369.906C62.53 368.913 61.0725 368.416 59.1844 368.416H56.7497V379.769H59.1844ZM84.2406 375.496C84.2406 375.844 84.1992 376.241 84.1164 376.689H74.0299C74.0796 377.914 74.4109 378.817 75.0237 379.396C75.6365 379.976 76.3984 380.266 77.3093 380.266C78.1208 380.266 78.7916 380.067 79.3216 379.67C79.8682 379.272 80.216 378.734 80.365 378.055H84.0667C83.8845 379.016 83.4953 379.877 82.8991 380.639C82.3028 381.401 81.5327 381.997 80.5886 382.427C79.6611 382.858 78.626 383.073 77.4832 383.073C76.1416 383.073 74.9492 382.792 73.9057 382.229C72.8623 381.649 72.0507 380.829 71.4711 379.769C70.8914 378.709 70.6015 377.459 70.6015 376.018C70.6015 374.577 70.8914 373.326 71.4711 372.266C72.0507 371.19 72.8623 370.37 73.9057 369.807C74.9492 369.244 76.1416 368.962 77.4832 368.962C78.8413 368.962 80.0255 369.244 81.0358 369.807C82.0627 370.37 82.8494 371.148 83.3959 372.142C83.9591 373.119 84.2406 374.237 84.2406 375.496ZM80.7128 375.148C80.7625 374.022 80.4644 373.169 79.8185 372.589C79.1891 372.01 78.4107 371.72 77.4832 371.72C76.5391 371.72 75.7441 372.01 75.0982 372.589C74.4523 373.169 74.0962 374.022 74.0299 375.148H80.7128ZM94.9257 368.937C96.5157 368.937 97.7827 369.459 98.7267 370.502C99.6708 371.546 100.143 373.012 100.143 374.9V382.899H96.6647V375.297C96.6647 374.204 96.3832 373.359 95.82 372.763C95.2569 372.15 94.4868 371.844 93.5096 371.844C92.5159 371.844 91.7209 372.167 91.1246 372.813C90.5284 373.459 90.2302 374.386 90.2302 375.595V382.899H86.7273V369.136H90.2302V371.894C90.5946 370.966 91.1909 370.246 92.019 369.732C92.8637 369.202 93.8326 368.937 94.9257 368.937ZM110.579 379.893V382.899H108.74C107.2 382.899 106.016 382.527 105.188 381.781C104.376 381.036 103.97 379.794 103.97 378.055V372.092H102.057V369.136H103.97V365.733H107.473V369.136H110.554V372.092H107.473V378.105C107.473 378.767 107.606 379.231 107.871 379.496C108.136 379.761 108.583 379.893 109.212 379.893H110.579ZM112.702 365.186C112.702 364.623 112.901 364.167 113.298 363.82C113.696 363.455 114.217 363.273 114.863 363.273C115.509 363.273 116.031 363.455 116.428 363.82C116.826 364.167 117.025 364.623 117.025 365.186C117.025 365.733 116.826 366.188 116.428 366.552C116.031 366.9 115.509 367.074 114.863 367.074C114.217 367.074 113.696 366.9 113.298 366.552C112.901 366.188 112.702 365.733 112.702 365.186ZM116.602 369.136V382.899H113.099V369.136H116.602ZM124.516 368.962C126.189 368.962 127.531 369.385 128.541 370.229C129.551 371.074 130.181 372.2 130.429 373.608H127.15C127.017 372.945 126.719 372.415 126.255 372.018C125.792 371.62 125.187 371.422 124.442 371.422C123.845 371.422 123.382 371.562 123.05 371.844C122.719 372.126 122.554 372.507 122.554 372.987C122.554 373.368 122.686 373.674 122.951 373.906C123.216 374.138 123.547 374.32 123.945 374.453C124.342 374.585 124.914 374.742 125.659 374.925C126.702 375.157 127.547 375.405 128.193 375.67C128.856 375.918 129.419 376.324 129.882 376.887C130.363 377.434 130.603 378.179 130.603 379.123C130.603 380.299 130.139 381.251 129.212 381.98C128.301 382.709 127.067 383.073 125.51 383.073C123.721 383.073 122.289 382.676 121.212 381.881C120.136 381.069 119.481 379.918 119.249 378.428H122.603C122.686 379.107 122.984 379.645 123.498 380.042C124.011 380.423 124.682 380.614 125.51 380.614C126.106 380.614 126.562 380.473 126.876 380.191C127.191 379.893 127.348 379.512 127.348 379.049C127.348 378.651 127.208 378.328 126.926 378.08C126.661 377.831 126.322 377.641 125.907 377.508C125.51 377.376 124.939 377.219 124.193 377.036C123.166 376.804 122.33 376.573 121.684 376.341C121.055 376.092 120.508 375.703 120.044 375.173C119.597 374.643 119.374 373.914 119.374 372.987C119.374 371.794 119.829 370.825 120.74 370.08C121.651 369.335 122.91 368.962 124.516 368.962ZM140.566 379.893V382.899H138.727C137.187 382.899 136.003 382.527 135.175 381.781C134.363 381.036 133.957 379.794 133.957 378.055V372.092H132.044V369.136H133.957V365.733H137.46V369.136H140.541V372.092H137.46V378.105C137.46 378.767 137.593 379.231 137.858 379.496C138.123 379.761 138.57 379.893 139.199 379.893H140.566ZM147.831 368.962C149.504 368.962 150.846 369.385 151.856 370.229C152.866 371.074 153.496 372.2 153.744 373.608H150.465C150.332 372.945 150.034 372.415 149.57 372.018C149.107 371.62 148.502 371.422 147.757 371.422C147.161 371.422 146.697 371.562 146.366 371.844C146.034 372.126 145.869 372.507 145.869 372.987C145.869 373.368 146.001 373.674 146.266 373.906C146.531 374.138 146.862 374.32 147.26 374.453C147.657 374.585 148.229 374.742 148.974 374.925C150.018 375.157 150.862 375.405 151.508 375.67C152.171 375.918 152.734 376.324 153.198 376.887C153.678 377.434 153.918 378.179 153.918 379.123C153.918 380.299 153.454 381.251 152.527 381.98C151.616 382.709 150.382 383.073 148.825 383.073C147.036 383.073 145.604 382.676 144.527 381.881C143.451 381.069 142.796 379.918 142.564 378.428H145.918C146.001 379.107 146.299 379.645 146.813 380.042C147.326 380.423 147.997 380.614 148.825 380.614C149.421 380.614 149.877 380.473 150.191 380.191C150.506 379.893 150.663 379.512 150.663 379.049C150.663 378.651 150.523 378.328 150.241 378.08C149.976 377.831 149.637 377.641 149.223 377.508C148.825 377.376 148.254 377.219 147.508 377.036C146.481 376.804 145.645 376.573 144.999 376.341C144.37 376.092 143.823 375.703 143.359 375.173C142.912 374.643 142.689 373.914 142.689 372.987C142.689 371.794 143.144 370.825 144.055 370.08C144.966 369.335 146.225 368.962 147.831 368.962Z" fill="white"/>
<g opacity="0.85">
<path d="M485.444 306.33C475.823 306.33 467.994 313.835 467.961 323.072H470.304H473.187H482.545L482.555 317.838H474.559C476.599 314.118 480.706 311.564 485.444 311.564C490.181 311.564 494.289 314.118 496.328 317.838H488.361L488.35 323.072H497.7H498.17H502.926C502.893 313.835 495.064 306.33 485.444 306.33Z" fill="white"/>
</g>
<g opacity="0.75">
<path d="M486.063 311.56C479.992 311.56 475.053 306.804 475.053 300.958C475.053 295.112 479.992 290.356 486.063 290.356C492.134 290.356 497.073 295.112 497.073 300.958C497.073 306.804 492.134 311.56 486.063 311.56ZM486.063 295.59C482.878 295.59 480.287 297.998 480.287 300.958C480.287 303.918 482.878 306.326 486.063 306.326C489.248 306.326 491.839 303.918 491.839 300.958C491.839 297.998 489.248 295.59 486.063 295.59Z" fill="white"/>
</g>
<path d="M459.868 302.931C448.339 302.931 438.971 311.977 439.063 323.062C439.065 323.063 439.065 323.064 439.067 323.066H441.109H444.292H456.966L456.976 317.832H445.237C447.426 312.196 453.159 308.165 459.868 308.165C466.577 308.165 472.309 312.196 474.498 317.832H462.782L462.771 323.066H475.443H479.424H480.668C480.67 323.064 480.671 323.063 480.672 323.062C480.764 311.977 471.396 302.931 459.868 302.931Z" fill="white"/>
<g opacity="0.75">
<path d="M460.035 308.164C452.93 308.164 447.15 302.608 447.15 295.779C447.15 288.95 452.93 283.394 460.035 283.394C467.139 283.394 472.919 288.949 472.919 295.779C472.919 302.608 467.139 308.164 460.035 308.164ZM460.035 288.628C455.816 288.628 452.384 291.835 452.384 295.779C452.384 299.722 455.816 302.93 460.035 302.93C464.253 302.93 467.685 299.722 467.685 295.779C467.685 291.835 464.253 288.628 460.035 288.628Z" fill="white"/>
</g>
<path d="M424.328 376.39V382.899H420.825V365.36H427.21C429.28 365.36 430.837 365.857 431.88 366.85C432.94 367.844 433.47 369.194 433.47 370.9C433.47 372.573 432.924 373.906 431.831 374.9C430.754 375.894 429.214 376.39 427.21 376.39H424.328ZM426.837 373.583C428.891 373.583 429.918 372.689 429.918 370.9C429.918 370.022 429.678 369.351 429.197 368.888C428.717 368.424 427.93 368.192 426.837 368.192H424.328V373.583H426.837ZM441.137 368.962C442.296 368.962 443.29 369.235 444.118 369.782C444.946 370.329 445.534 371.066 445.882 371.993V369.136H449.36V382.899H445.882V380.018C445.534 380.945 444.946 381.69 444.118 382.253C443.29 382.8 442.296 383.073 441.137 383.073C439.977 383.073 438.934 382.792 438.007 382.229C437.079 381.666 436.35 380.854 435.82 379.794C435.307 378.717 435.05 377.459 435.05 376.018C435.05 374.577 435.307 373.326 435.82 372.266C436.35 371.19 437.079 370.37 438.007 369.807C438.934 369.244 439.977 368.962 441.137 368.962ZM442.23 372.018C441.137 372.018 440.259 372.374 439.597 373.086C438.934 373.798 438.603 374.776 438.603 376.018C438.603 377.26 438.934 378.237 439.597 378.949C440.259 379.645 441.137 379.993 442.23 379.993C443.29 379.993 444.159 379.637 444.839 378.924C445.534 378.196 445.882 377.227 445.882 376.018C445.882 374.792 445.534 373.823 444.839 373.111C444.159 372.382 443.29 372.018 442.23 372.018ZM459.888 379.893V382.899H458.05C456.51 382.899 455.325 382.527 454.497 381.781C453.686 381.036 453.28 379.794 453.28 378.055V372.092H451.367V369.136H453.28V365.733H456.783V369.136H459.863V372.092H456.783V378.105C456.783 378.767 456.915 379.231 457.18 379.496C457.445 379.761 457.892 379.893 458.522 379.893H459.888ZM462.011 365.186C462.011 364.623 462.21 364.167 462.608 363.82C463.005 363.455 463.527 363.273 464.173 363.273C464.819 363.273 465.34 363.455 465.738 363.82C466.135 364.167 466.334 364.623 466.334 365.186C466.334 365.733 466.135 366.188 465.738 366.552C465.34 366.9 464.819 367.074 464.173 367.074C463.527 367.074 463.005 366.9 462.608 366.552C462.21 366.188 462.011 365.733 462.011 365.186ZM465.912 369.136V382.899H462.409V369.136H465.912ZM482.024 375.496C482.024 375.844 481.983 376.241 481.9 376.689H471.814C471.863 377.914 472.194 378.817 472.807 379.396C473.42 379.976 474.182 380.266 475.093 380.266C475.904 380.266 476.575 380.067 477.105 379.67C477.652 379.272 478 378.734 478.149 378.055H481.85C481.668 379.016 481.279 379.877 480.683 380.639C480.086 381.401 479.316 381.997 478.372 382.427C477.445 382.858 476.41 383.073 475.267 383.073C473.925 383.073 472.733 382.792 471.689 382.229C470.646 381.649 469.834 380.829 469.255 379.769C468.675 378.709 468.385 377.459 468.385 376.018C468.385 374.577 468.675 373.326 469.255 372.266C469.834 371.19 470.646 370.37 471.689 369.807C472.733 369.244 473.925 368.962 475.267 368.962C476.625 368.962 477.809 369.244 478.819 369.807C479.846 370.37 480.633 371.148 481.18 372.142C481.743 373.119 482.024 374.237 482.024 375.496ZM478.496 375.148C478.546 374.022 478.248 373.169 477.602 372.589C476.973 372.01 476.194 371.72 475.267 371.72C474.323 371.72 473.528 372.01 472.882 372.589C472.236 373.169 471.88 374.022 471.814 375.148H478.496ZM492.709 368.937C494.299 368.937 495.566 369.459 496.51 370.502C497.454 371.546 497.926 373.012 497.926 374.9V382.899H494.448V375.297C494.448 374.204 494.167 373.359 493.604 372.763C493.041 372.15 492.27 371.844 491.293 371.844C490.299 371.844 489.504 372.167 488.908 372.813C488.312 373.459 488.014 374.386 488.014 375.595V382.899H484.511V369.136H488.014V371.894C488.378 370.966 488.974 370.246 489.803 369.732C490.647 369.202 491.616 368.937 492.709 368.937ZM508.362 379.893V382.899H506.524C504.984 382.899 503.799 382.527 502.971 381.781C502.16 381.036 501.754 379.794 501.754 378.055V372.092H499.841V369.136H501.754V365.733H505.257V369.136H508.337V372.092H505.257V378.105C505.257 378.767 505.389 379.231 505.654 379.496C505.919 379.761 506.366 379.893 506.996 379.893H508.362ZM515.628 368.962C517.301 368.962 518.642 369.385 519.653 370.229C520.663 371.074 521.292 372.2 521.541 373.608H518.261C518.129 372.945 517.831 372.415 517.367 372.018C516.903 371.62 516.299 371.422 515.553 371.422C514.957 371.422 514.493 371.562 514.162 371.844C513.831 372.126 513.665 372.507 513.665 372.987C513.665 373.368 513.798 373.674 514.063 373.906C514.328 374.138 514.659 374.32 515.057 374.453C515.454 374.585 516.025 374.742 516.771 374.925C517.814 375.157 518.659 375.405 519.305 375.67C519.967 375.918 520.53 376.324 520.994 376.887C521.475 377.434 521.715 378.179 521.715 379.123C521.715 380.299 521.251 381.251 520.323 381.98C519.412 382.709 518.179 383.073 516.622 383.073C514.833 383.073 513.4 382.676 512.324 381.881C511.247 381.069 510.593 379.918 510.361 378.428H513.715C513.798 379.107 514.096 379.645 514.609 380.042C515.123 380.423 515.794 380.614 516.622 380.614C517.218 380.614 517.673 380.473 517.988 380.191C518.303 379.893 518.46 379.512 518.46 379.049C518.46 378.651 518.319 378.328 518.038 378.08C517.773 377.831 517.433 377.641 517.019 377.508C516.622 377.376 516.05 377.219 515.305 377.036C514.278 376.804 513.442 376.573 512.796 376.341C512.166 376.092 511.62 375.703 511.156 375.173C510.709 374.643 510.485 373.914 510.485 372.987C510.485 371.794 510.941 370.825 511.852 370.08C512.763 369.335 514.021 368.962 515.628 368.962Z" fill="white"/>
<g clip-path="url(#clip3_2638_111306)">
<path d="M374.179 151.316L394.482 140.981V163.247L374.128 173.292L374.179 151.316ZM348.54 136.344L371.22 125.877L391.999 136.36L371.571 146.759L348.54 136.344ZM371.053 120.229L340.979 134.391L341.033 148.378L346.213 150.956L346.173 140.517L368.894 151.372L368.841 173.637L346.213 161.904L346.196 157.473L340.979 154.877L341.019 165.134L371.006 180.684L399.716 166.516V134.424L371.053 120.229Z" fill="white"/>
<g opacity="0.75">
<path d="M389.819 171.447L381.096 175.609L380.986 167.054L389.819 162.656V171.447Z" fill="white"/>
</g>
<g opacity="0.75">
<path d="M350.285 129.925L360.178 125.272L389.83 139.946L389.839 149.3L381.107 153.118V144.865L350.285 129.925Z" fill="white"/>
</g>
</g>
<path d="M325.456 225.318C325.456 226.212 325.232 227.04 324.785 227.802C324.338 228.547 323.676 229.152 322.798 229.615C321.92 230.063 320.852 230.286 319.593 230.286C318.351 230.286 317.241 230.079 316.264 229.665C315.287 229.235 314.5 228.622 313.904 227.827C313.324 227.032 312.993 226.104 312.91 225.044H316.637C316.719 225.756 317.001 226.353 317.481 226.833C317.978 227.297 318.632 227.529 319.444 227.529C320.173 227.529 320.728 227.338 321.108 226.957C321.506 226.56 321.705 226.055 321.705 225.442C321.705 224.895 321.547 224.448 321.233 224.1C320.918 223.736 320.52 223.446 320.04 223.231C319.56 223.015 318.897 222.767 318.053 222.485C316.96 222.121 316.065 221.765 315.37 221.417C314.674 221.053 314.078 220.531 313.581 219.852C313.101 219.173 312.86 218.287 312.86 217.194C312.86 215.686 313.399 214.502 314.475 213.641C315.568 212.763 317.009 212.324 318.798 212.324C320.653 212.324 322.127 212.772 323.22 213.666C324.33 214.56 324.959 215.753 325.108 217.243H321.332C321.233 216.614 320.968 216.101 320.537 215.703C320.106 215.289 319.518 215.082 318.773 215.082C318.127 215.082 317.606 215.256 317.208 215.604C316.811 215.935 316.612 216.424 316.612 217.069C316.612 217.583 316.761 218.014 317.059 218.361C317.374 218.693 317.763 218.966 318.227 219.181C318.707 219.396 319.353 219.637 320.164 219.902C321.291 220.299 322.202 220.672 322.897 221.02C323.609 221.367 324.214 221.889 324.711 222.585C325.208 223.28 325.456 224.191 325.456 225.318ZM341.204 216.349V230.112H337.701V227.33C337.336 228.257 336.732 228.986 335.887 229.516C335.059 230.029 334.098 230.286 333.005 230.286C331.415 230.286 330.148 229.764 329.204 228.721C328.26 227.678 327.788 226.22 327.788 224.349V216.349H331.266V223.951C331.266 225.044 331.548 225.897 332.111 226.51C332.674 227.106 333.436 227.404 334.396 227.404C335.407 227.404 336.21 227.081 336.806 226.435C337.402 225.79 337.701 224.862 337.701 223.653V216.349H341.204ZM352.612 216.175C353.771 216.175 354.815 216.457 355.742 217.02C356.67 217.583 357.39 218.403 357.903 219.479C358.433 220.539 358.698 221.79 358.698 223.231C358.698 224.672 358.433 225.93 357.903 227.007C357.39 228.067 356.67 228.878 355.742 229.442C354.815 230.005 353.771 230.286 352.612 230.286C351.452 230.286 350.459 230.013 349.631 229.466C348.819 228.903 348.239 228.158 347.892 227.23V236.671H344.389V216.349H347.892V219.206C348.239 218.279 348.819 217.541 349.631 216.995C350.459 216.448 351.452 216.175 352.612 216.175ZM351.519 219.231C350.459 219.231 349.581 219.595 348.885 220.324C348.206 221.036 347.867 222.005 347.867 223.231C347.867 224.44 348.206 225.409 348.885 226.137C349.581 226.85 350.459 227.206 351.519 227.206C352.612 227.206 353.49 226.858 354.152 226.162C354.815 225.45 355.146 224.473 355.146 223.231C355.146 221.988 354.815 221.011 354.152 220.299C353.49 219.587 352.612 219.231 351.519 219.231ZM369.401 216.175C370.56 216.175 371.603 216.457 372.531 217.02C373.458 217.583 374.179 218.403 374.692 219.479C375.222 220.539 375.487 221.79 375.487 223.231C375.487 224.672 375.222 225.93 374.692 227.007C374.179 228.067 373.458 228.878 372.531 229.442C371.603 230.005 370.56 230.286 369.401 230.286C368.241 230.286 367.247 230.013 366.419 229.466C365.608 228.903 365.028 228.158 364.68 227.23V236.671H361.177V216.349H364.68V219.206C365.028 218.279 365.608 217.541 366.419 216.995C367.247 216.448 368.241 216.175 369.401 216.175ZM368.307 219.231C367.247 219.231 366.37 219.595 365.674 220.324C364.995 221.036 364.655 222.005 364.655 223.231C364.655 224.44 364.995 225.409 365.674 226.137C366.37 226.85 367.247 227.206 368.307 227.206C369.401 227.206 370.278 226.858 370.941 226.162C371.603 225.45 371.935 224.473 371.935 223.231C371.935 221.988 371.603 221.011 370.941 220.299C370.278 219.587 369.401 219.231 368.307 219.231ZM381.469 211.728V230.112H377.966V211.728H381.469ZM384.241 212.399C384.241 211.836 384.439 211.38 384.837 211.032C385.234 210.668 385.756 210.486 386.402 210.486C387.048 210.486 387.57 210.668 387.967 211.032C388.365 211.38 388.563 211.836 388.563 212.399C388.563 212.945 388.365 213.401 387.967 213.765C387.57 214.113 387.048 214.287 386.402 214.287C385.756 214.287 385.234 214.113 384.837 213.765C384.439 213.401 384.241 212.945 384.241 212.399ZM388.141 216.349V230.112H384.638V216.349H388.141ZM404.253 222.709C404.253 223.057 404.212 223.454 404.129 223.901H394.043C394.092 225.127 394.424 226.03 395.036 226.609C395.649 227.189 396.411 227.479 397.322 227.479C398.134 227.479 398.804 227.28 399.334 226.883C399.881 226.485 400.229 225.947 400.378 225.268H404.079C403.897 226.228 403.508 227.09 402.912 227.852C402.316 228.613 401.545 229.21 400.601 229.64C399.674 230.071 398.639 230.286 397.496 230.286C396.154 230.286 394.962 230.005 393.918 229.442C392.875 228.862 392.063 228.042 391.484 226.982C390.904 225.922 390.614 224.672 390.614 223.231C390.614 221.79 390.904 220.539 391.484 219.479C392.063 218.403 392.875 217.583 393.918 217.02C394.962 216.457 396.154 216.175 397.496 216.175C398.854 216.175 400.038 216.457 401.049 217.02C402.075 217.583 402.862 218.361 403.409 219.355C403.972 220.332 404.253 221.45 404.253 222.709ZM400.726 222.361C400.775 221.235 400.477 220.382 399.831 219.802C399.202 219.223 398.423 218.933 397.496 218.933C396.552 218.933 395.757 219.223 395.111 219.802C394.465 220.382 394.109 221.235 394.043 222.361H400.726ZM410.243 218.982C410.756 218.105 411.435 217.417 412.28 216.92C413.125 216.407 414.069 216.15 415.112 216.15V219.902H414.094C411.527 219.902 410.243 221.094 410.243 223.479V230.112H406.74V216.349H410.243V218.982ZM421.796 216.175C423.469 216.175 424.81 216.597 425.821 217.442C426.831 218.287 427.46 219.413 427.709 220.821H424.43C424.297 220.158 423.999 219.628 423.535 219.231C423.071 218.833 422.467 218.635 421.722 218.635C421.125 218.635 420.662 218.775 420.33 219.057C419.999 219.338 419.834 219.719 419.834 220.2C419.834 220.581 419.966 220.887 420.231 221.119C420.496 221.351 420.827 221.533 421.225 221.666C421.622 221.798 422.194 221.955 422.939 222.138C423.982 222.369 424.827 222.618 425.473 222.883C426.135 223.131 426.699 223.537 427.162 224.1C427.643 224.647 427.883 225.392 427.883 226.336C427.883 227.512 427.419 228.464 426.492 229.193C425.581 229.922 424.347 230.286 422.79 230.286C421.001 230.286 419.569 229.889 418.492 229.094C417.415 228.282 416.761 227.131 416.529 225.64H419.883C419.966 226.32 420.264 226.858 420.778 227.255C421.291 227.636 421.962 227.827 422.79 227.827C423.386 227.827 423.842 227.686 424.156 227.404C424.471 227.106 424.628 226.725 424.628 226.262C424.628 225.864 424.488 225.541 424.206 225.293C423.941 225.044 423.601 224.854 423.187 224.721C422.79 224.589 422.218 224.431 421.473 224.249C420.446 224.017 419.61 223.785 418.964 223.554C418.335 223.305 417.788 222.916 417.324 222.386C416.877 221.856 416.654 221.127 416.654 220.2C416.654 219.007 417.109 218.038 418.02 217.293C418.931 216.548 420.19 216.175 421.796 216.175Z" fill="white"/>
<g clip-path="url(#clip4_2638_111306)">
<path d="M403.403 499.51H378.254C372.521 499.51 367.857 494.846 367.857 489.113V468.616C367.857 462.884 372.521 458.22 378.254 458.22H403.403C409.136 458.22 413.8 462.884 413.8 468.616V476.248H408.566V468.616C408.566 465.77 406.25 463.454 403.403 463.454H378.254C375.407 463.454 373.091 465.77 373.091 468.616V489.113C373.091 491.96 375.407 494.276 378.254 494.276H403.403C406.25 494.276 408.566 491.96 408.566 489.113V481.482H413.8V489.113C413.8 494.846 409.136 499.51 403.403 499.51Z" fill="white"/>
<g opacity="0.75">
<path d="M397.831 486.71H383.245C378.922 486.71 375.418 483.205 375.418 478.883V478.835C375.418 474.512 378.923 471.008 383.246 471.008H397.831C402.154 471.008 405.658 474.512 405.658 478.835V478.882C405.658 483.205 402.154 486.71 397.831 486.71ZM380.652 478.802V478.916C380.652 480.329 381.798 481.476 383.212 481.476H397.864C399.278 481.476 400.425 480.329 400.425 478.916V478.802C400.425 477.388 399.278 476.242 397.864 476.242H383.212C381.798 476.242 380.652 477.388 380.652 478.802Z" fill="white"/>
</g>
<path d="M393.443 471.005H388.209V486.707H393.443V471.005Z" fill="white"/>
<path d="M404.497 457.053H376.583V444.841H404.497V457.053ZM381.817 451.819H399.263V450.075H381.817V451.819Z" fill="white"/>
<g opacity="0.75">
<path d="M398.681 463.462H382.979V451.831H398.681V463.462ZM388.213 458.228H393.447V457.065H388.213V458.228Z" fill="white"/>
</g>
</g>
<path d="M315.91 545.332V551.841H312.407V534.301H318.791C320.862 534.301 322.419 534.798 323.462 535.792C324.522 536.786 325.052 538.135 325.052 539.841C325.052 541.514 324.505 542.847 323.412 543.841C322.336 544.835 320.795 545.332 318.791 545.332H315.91ZM318.419 542.524C320.472 542.524 321.499 541.63 321.499 539.841C321.499 538.964 321.259 538.293 320.779 537.829C320.299 537.365 319.512 537.133 318.419 537.133H315.91V542.524H318.419ZM335.526 537.879C337.116 537.879 338.383 538.4 339.327 539.444C340.271 540.487 340.743 541.953 340.743 543.841V551.841H337.265V544.239C337.265 543.146 336.983 542.301 336.42 541.705C335.857 541.092 335.087 540.785 334.11 540.785C333.116 540.785 332.321 541.108 331.725 541.754C331.128 542.4 330.83 543.328 330.83 544.537V551.841H327.327V533.457H330.83V540.835C331.195 539.908 331.791 539.187 332.619 538.674C333.464 538.144 334.433 537.879 335.526 537.879ZM349.216 537.904C350.375 537.904 351.369 538.177 352.197 538.723C353.025 539.27 353.613 540.007 353.961 540.935V538.078H357.439V551.841H353.961V548.959C353.613 549.886 353.025 550.632 352.197 551.195C351.369 551.741 350.375 552.015 349.216 552.015C348.057 552.015 347.013 551.733 346.086 551.17C345.158 550.607 344.429 549.795 343.899 548.735C343.386 547.659 343.129 546.4 343.129 544.959C343.129 543.518 343.386 542.268 343.899 541.208C344.429 540.131 345.158 539.311 346.086 538.748C347.013 538.185 348.057 537.904 349.216 537.904ZM350.309 540.959C349.216 540.959 348.338 541.315 347.676 542.028C347.013 542.74 346.682 543.717 346.682 544.959C346.682 546.201 347.013 547.179 347.676 547.891C348.338 548.586 349.216 548.934 350.309 548.934C351.369 548.934 352.239 548.578 352.918 547.866C353.613 547.137 353.961 546.168 353.961 544.959C353.961 543.734 353.613 542.765 352.918 542.052C352.239 541.324 351.369 540.959 350.309 540.959ZM364.117 540.711C364.63 539.833 365.309 539.146 366.154 538.649C366.998 538.135 367.943 537.879 368.986 537.879V541.63H367.967C365.4 541.63 364.117 542.823 364.117 545.208V551.841H360.614V538.078H364.117V540.711ZM388.439 537.879C390.112 537.879 391.429 538.4 392.39 539.444C393.367 540.471 393.855 541.937 393.855 543.841V551.841H390.377V544.239C390.377 543.179 390.104 542.367 389.557 541.804C389.027 541.224 388.29 540.935 387.346 540.935C386.369 540.935 385.591 541.241 385.011 541.854C384.431 542.467 384.141 543.361 384.141 544.537V551.841H380.663V544.239C380.663 543.179 380.39 542.367 379.844 541.804C379.314 541.224 378.577 540.935 377.632 540.935C376.655 540.935 375.877 541.241 375.297 541.854C374.718 542.467 374.428 543.361 374.428 544.537V551.841H370.925V538.078H374.428V540.686C374.792 539.792 375.363 539.104 376.142 538.624C376.937 538.127 377.856 537.879 378.9 537.879C380.009 537.879 380.97 538.144 381.781 538.674C382.609 539.204 383.231 539.966 383.645 540.959C384.075 540.015 384.713 539.27 385.558 538.723C386.419 538.16 387.379 537.879 388.439 537.879ZM402.324 537.904C403.483 537.904 404.477 538.177 405.305 538.723C406.133 539.27 406.721 540.007 407.069 540.935V538.078H410.547V551.841H407.069V548.959C406.721 549.886 406.133 550.632 405.305 551.195C404.477 551.741 403.483 552.015 402.324 552.015C401.164 552.015 400.121 551.733 399.194 551.17C398.266 550.607 397.537 549.795 397.007 548.735C396.494 547.659 396.237 546.4 396.237 544.959C396.237 543.518 396.494 542.268 397.007 541.208C397.537 540.131 398.266 539.311 399.194 538.748C400.121 538.185 401.164 537.904 402.324 537.904ZM403.417 540.959C402.324 540.959 401.446 541.315 400.784 542.028C400.121 542.74 399.79 543.717 399.79 544.959C399.79 546.201 400.121 547.179 400.784 547.891C401.446 548.586 402.324 548.934 403.417 548.934C404.477 548.934 405.346 548.578 406.026 547.866C406.721 547.137 407.069 546.168 407.069 544.959C407.069 543.734 406.721 542.765 406.026 542.052C405.346 541.324 404.477 540.959 403.417 540.959ZM419.908 537.904C421.68 537.904 423.154 538.384 424.33 539.345C425.522 540.305 426.268 541.614 426.566 543.27H422.864C422.715 542.541 422.375 541.97 421.845 541.556C421.315 541.125 420.645 540.91 419.833 540.91C418.906 540.91 418.127 541.257 417.498 541.953C416.885 542.632 416.579 543.634 416.579 544.959C416.579 546.284 416.885 547.294 417.498 547.99C418.127 548.669 418.906 549.009 419.833 549.009C420.645 549.009 421.315 548.802 421.845 548.388C422.375 547.957 422.715 547.377 422.864 546.649H426.566C426.268 548.305 425.522 549.613 424.33 550.574C423.154 551.534 421.68 552.015 419.908 552.015C418.566 552.015 417.374 551.733 416.33 551.17C415.287 550.59 414.475 549.771 413.896 548.711C413.316 547.651 413.026 546.4 413.026 544.959C413.026 543.518 413.316 542.268 413.896 541.208C414.475 540.131 415.287 539.311 416.33 538.748C417.374 538.185 418.566 537.904 419.908 537.904ZM428.657 534.127C428.657 533.564 428.856 533.109 429.253 532.761C429.651 532.397 430.173 532.214 430.819 532.214C431.465 532.214 431.986 532.397 432.384 532.761C432.781 533.109 432.98 533.564 432.98 534.127C432.98 534.674 432.781 535.129 432.384 535.494C431.986 535.842 431.465 536.015 430.819 536.015C430.173 536.015 429.651 535.842 429.253 535.494C428.856 535.129 428.657 534.674 428.657 534.127ZM432.558 538.078V551.841H429.055V538.078H432.558ZM440.472 537.904C442.144 537.904 443.486 538.326 444.496 539.171C445.507 540.015 446.136 541.142 446.384 542.549H443.105C442.973 541.887 442.674 541.357 442.211 540.959C441.747 540.562 441.142 540.363 440.397 540.363C439.801 540.363 439.337 540.504 439.006 540.785C438.675 541.067 438.509 541.448 438.509 541.928C438.509 542.309 438.642 542.616 438.907 542.847C439.172 543.079 439.503 543.262 439.9 543.394C440.298 543.527 440.869 543.684 441.614 543.866C442.658 544.098 443.503 544.346 444.149 544.611C444.811 544.86 445.374 545.266 445.838 545.829C446.318 546.375 446.558 547.121 446.558 548.065C446.558 549.241 446.095 550.193 445.167 550.922C444.256 551.65 443.022 552.015 441.465 552.015C439.677 552.015 438.244 551.617 437.167 550.822C436.091 550.011 435.437 548.86 435.205 547.369H438.559C438.642 548.048 438.94 548.586 439.453 548.984C439.967 549.365 440.637 549.555 441.465 549.555C442.062 549.555 442.517 549.414 442.832 549.133C443.146 548.835 443.304 548.454 443.304 547.99C443.304 547.593 443.163 547.27 442.881 547.021C442.616 546.773 442.277 546.582 441.863 546.45C441.465 546.317 440.894 546.16 440.149 545.978C439.122 545.746 438.285 545.514 437.64 545.282C437.01 545.034 436.464 544.644 436 544.114C435.553 543.584 435.329 542.856 435.329 541.928C435.329 540.736 435.785 539.767 436.695 539.022C437.606 538.276 438.865 537.904 440.472 537.904ZM456.521 548.835V551.841H454.683C453.142 551.841 451.958 551.468 451.13 550.723C450.318 549.978 449.913 548.735 449.913 546.996V541.034H448V538.078H449.913V534.674H453.416V538.078H456.496V541.034H453.416V547.046C453.416 547.709 453.548 548.172 453.813 548.437C454.078 548.702 454.525 548.835 455.155 548.835H456.521ZM463.787 537.904C465.46 537.904 466.801 538.326 467.811 539.171C468.822 540.015 469.451 541.142 469.7 542.549H466.42C466.288 541.887 465.99 541.357 465.526 540.959C465.062 540.562 464.458 540.363 463.712 540.363C463.116 540.363 462.652 540.504 462.321 540.785C461.99 541.067 461.824 541.448 461.824 541.928C461.824 542.309 461.957 542.616 462.222 542.847C462.487 543.079 462.818 543.262 463.215 543.394C463.613 543.527 464.184 543.684 464.93 543.866C465.973 544.098 466.818 544.346 467.464 544.611C468.126 544.86 468.689 545.266 469.153 545.829C469.633 546.375 469.873 547.121 469.873 548.065C469.873 549.241 469.41 550.193 468.482 550.922C467.571 551.65 466.337 552.015 464.78 552.015C462.992 552.015 461.559 551.617 460.483 550.822C459.406 550.011 458.752 548.86 458.52 547.369H461.874C461.957 548.048 462.255 548.586 462.768 548.984C463.282 549.365 463.952 549.555 464.78 549.555C465.377 549.555 465.832 549.414 466.147 549.133C466.462 548.835 466.619 548.454 466.619 547.99C466.619 547.593 466.478 547.27 466.197 547.021C465.932 546.773 465.592 546.582 465.178 546.45C464.78 546.317 464.209 546.16 463.464 545.978C462.437 545.746 461.601 545.514 460.955 545.282C460.325 545.034 459.779 544.644 459.315 544.114C458.868 543.584 458.644 542.856 458.644 541.928C458.644 540.736 459.1 539.767 460.011 539.022C460.921 538.276 462.18 537.904 463.787 537.904Z" fill="white"/>
<defs>
<clipPath id="clip0_2638_111306">
<rect width="52.63" height="57.7168" fill="white" transform="translate(173.224 121.57)"/>
</clipPath>
<clipPath id="clip1_2638_111306">
<rect width="41.6102" height="40.2451" fill="white" transform="translate(183.712 452.046)"/>
</clipPath>
<clipPath id="clip2_2638_111306">
<rect width="41.6223" height="50.5967" fill="white" transform="translate(82.4736 277.933)"/>
</clipPath>
<clipPath id="clip3_2638_111306">
<rect width="58.7363" height="60.4549" fill="white" transform="translate(340.969 120.222)"/>
</clipPath>
<clipPath id="clip4_2638_111306">
<rect width="45.9422" height="54.6654" fill="white" transform="translate(367.862 444.82)"/>
</clipPath>
</defs>
</svg>
