<svg width="503" height="46" viewBox="0 0 503 46" fill="none" xmlns="http://www.w3.org/2000/svg">
<path d="M129.306 16.0078L117.109 45.3152H129.522L132.386 37.3571H136.989L129.306 16.0078Z" fill="#587E85"/>
<path d="M152.616 45.315H165.172L147.094 2.03125H137.031L152.616 45.315Z" fill="#587E85"/>
<path d="M0 1.67969V45.2428H11.4612V22.8273L21.8257 31.1221V17.3781L1.64678 1.67969H0Z" fill="#587E85"/>
<path d="M48.1837 1.67969L28.1484 17.3604V31.0946L38.4325 22.7642V45.2428H49.8933V1.67969H48.1837Z" fill="#587E85"/>
<path d="M236.132 43.6888V33.3035C239.274 34.8937 243.035 36.0677 246.61 36.3738C247.843 36.4836 249.018 36.4836 250.129 36.4228C253.762 36.1901 255.799 35.2485 255.799 33.4745C255.799 31.2361 253.021 30.1107 247.6 28.1532C240.136 25.4497 235.328 22.4893 235.328 14.6972C235.328 6.90508 242.051 1.81641 252.159 1.81641C256.597 1.81641 261.041 2.64823 263.997 3.83477V13.8167C261.347 12.2143 257.152 11.1498 253.085 11.1498C249.017 11.1498 246.425 12.5078 246.425 14.6364C246.425 16.6422 249.017 18.0002 254.196 20.0064C261.654 22.844 266.775 25.8531 266.775 33.4129C266.775 41.2663 260.606 46.0002 249.573 46.0002C244.516 46.001 239.459 45.0468 236.132 43.6888Z" fill="#587E85"/>
<path d="M69.3259 2.39844H57.8047V45.3004H69.3259V2.39844Z" fill="#587E85"/>
<path d="M228.084 2.39844H216.562V45.3004H228.084V2.39844Z" fill="#587E85"/>
<path d="M113.542 38.5622L106.26 27.7959C107.024 27.6688 107.788 27.5412 108.552 27.2866C113.644 25.7591 117.718 21.8758 117.718 15.3832C117.718 7.17203 111.161 2.39844 101.55 2.39844H77.2344V45.3H88.7556V30.2137V29.1959V20.8572V17.4836V10.991H100.022C103.969 10.991 105.942 13.0914 105.942 15.7014C105.942 18.9475 103.841 20.8572 99.8311 20.8572H94.9029V29.3638L104.414 45.2996H110.769L113.542 38.5622Z" fill="#587E85"/>
<path d="M186.143 11.7247L179.774 2.39844H165.516L180.983 23.6583L169.269 39.8491L171.551 45.3004H179.328L185.944 36.1091L186.143 11.7247Z" fill="#587E85"/>
<path d="M196.884 23.6583L212.415 2.39844H198.348L191.875 11.7114L191.876 36.1503L198.22 45.3004H212.479L196.884 23.6583Z" fill="#587E85"/>
<path d="M152.616 45.3185L137.031 2.03516L135.049 2.0587L132.68 7.89091L146.778 45.3185H152.616Z" fill="#B4C5C8"/>
<path d="M293.978 26.5032H284.819V45.3112H282.07V2.44141H293.978C303.809 2.44141 308.026 7.44807 308.026 14.5304C308.026 21.9823 303.445 26.5032 293.978 26.5032ZM293.978 24.0583C302.164 24.0583 305.278 20.332 305.278 14.5304C305.278 8.48589 302.164 4.88667 293.978 4.88667H284.819V24.0583H293.978Z" fill="#D81D5B"/>
<path d="M315.765 45.3096H313.016V12.1499H315.765V18.9893C317.415 14.1647 321.505 11.4766 328.036 11.4766V14.3472H327.125C321.445 14.3472 315.765 17.1569 315.765 26.1932V45.3096Z" fill="#D81D5B"/>
<path d="M346.229 11.7227C353.555 11.7227 358.44 15.8131 360.273 20.8202V12.148H363.022V45.3073H360.273V36.5743C358.44 41.6418 353.494 45.7931 346.229 45.7931C336.945 45.7931 330.227 39.1412 330.227 28.6974C330.227 18.1925 336.945 11.7227 346.229 11.7227ZM346.594 14.102C338.595 14.102 333.036 19.5395 333.036 28.6974C333.036 37.8554 338.595 43.3533 346.594 43.3533C354.35 43.3533 360.273 37.6729 360.273 28.6974C360.273 19.8428 354.35 14.102 346.594 14.102Z" fill="#D81D5B"/>
<path d="M384.986 11.7227C393.409 11.7227 398.907 16.2989 400.188 23.1991H397.318C396.219 17.5243 391.455 14.0412 384.986 14.0412C377.903 14.0412 371.732 18.7441 371.732 28.6971C371.732 38.7108 377.903 43.4141 384.986 43.4141C391.455 43.4141 396.219 39.997 397.318 34.2562H400.188C398.907 41.0348 393.409 45.7931 384.986 45.7931C375.64 45.7931 368.922 39.3237 368.922 28.6971C368.922 18.1317 375.64 11.7227 384.986 11.7227Z" fill="#D81D5B"/>
<path d="M409.004 14.5274H403.992V12.1481H409.004V3.71875H411.747V12.1481H421.579V14.5274H411.747V36.4535C411.747 41.4606 413.398 42.8684 417.858 42.8684H421.579V45.3082H417.428C411.747 45.3082 409.004 42.9897 409.004 36.4539V14.5274H409.004Z" fill="#D81D5B"/>
<path d="M425.5 2.37934C425.5 0.977006 426.538 0 427.824 0C429.105 0 430.142 0.977006 430.142 2.37934C430.142 3.8476 429.104 4.75868 427.824 4.75868C426.538 4.75868 425.5 3.8476 425.5 2.37934ZM426.416 12.1502H429.165V45.3099H426.416V12.1502Z" fill="#D81D5B"/>
<path d="M451.165 11.7227C459.589 11.7227 465.087 16.2989 466.367 23.1991H463.497C462.399 17.5243 457.635 14.0412 451.165 14.0412C444.083 14.0412 437.911 18.7441 437.911 28.6971C437.911 38.7108 444.083 43.4141 451.165 43.4141C457.635 43.4141 462.399 39.997 463.497 34.2562H466.367C465.087 41.0348 459.589 45.7931 451.165 45.7931C441.82 45.7931 435.102 39.3237 435.102 28.6971C435.101 18.1317 441.819 11.7227 451.165 11.7227Z" fill="#D81D5B"/>
<path d="M486.757 45.7892C477.472 45.7951 470.633 39.3252 470.633 28.6986C470.633 18.1332 477.351 11.7242 486.757 11.7188C496.71 11.7188 502.208 18.8011 502.208 26.4963C502.208 27.9594 502.208 28.6931 502.087 29.7918L473.442 29.7973C473.691 39.0215 479.918 43.4157 486.757 43.4102C493.293 43.4102 497.991 39.9267 499.094 34.4343H501.96C500.679 40.9697 495.247 45.7892 486.757 45.7892ZM473.443 27.5396L499.46 27.5341C499.885 18.3098 493.415 14.0373 486.697 14.0373C479.918 14.0428 473.752 18.3761 473.443 27.5396Z" fill="#D81D5B"/>
</svg>
