<svg width="598" height="688" viewBox="0 0 598 688" fill="none" xmlns="http://www.w3.org/2000/svg">
<path d="M306.992 0.810547L598 170.244L597.999 508.68L306.992 678.112L14 508.68V171.521L306.992 0.810547Z" fill="#711F3C"/>
<path d="M308.586 338.405V5.49805L595.297 172.277L308.586 338.405Z" fill="#902F57"/>
<path d="M308.586 338.405V5.49805L595.297 172.277L308.586 338.405Z" stroke="#711F3C"/>
<path d="M595.297 504.702V175.16L310.6 339.976L595.297 504.702Z" fill="#A662A7"/>
<path d="M595.297 504.702V175.16L310.6 339.976L595.297 504.702Z" stroke="#711F3C"/>
<g opacity="0.85">
<path d="M499.444 307.141C489.823 307.141 481.994 314.646 481.961 323.883H484.304H487.187H496.545L496.555 318.649H488.559C490.599 314.928 494.706 312.374 499.444 312.374C504.181 312.374 508.289 314.928 510.328 318.649H502.361L502.35 323.883H511.7H512.17H516.926C516.893 314.646 509.064 307.141 499.444 307.141Z" fill="white"/>
</g>
<g opacity="0.75">
<path d="M500.063 312.371C493.992 312.371 489.053 307.615 489.053 301.769C489.053 295.923 493.992 291.167 500.063 291.167C506.134 291.167 511.073 295.923 511.073 301.769C511.073 307.615 506.134 312.371 500.063 312.371ZM500.063 296.401C496.878 296.401 494.287 298.809 494.287 301.769C494.287 304.729 496.878 307.137 500.063 307.137C503.248 307.137 505.839 304.729 505.839 301.769C505.839 298.809 503.248 296.401 500.063 296.401Z" fill="white"/>
</g>
<path d="M473.868 303.742C462.339 303.742 452.971 312.788 453.063 323.873C453.065 323.875 453.065 323.876 453.067 323.877H455.109H458.292H470.966L470.976 318.643H459.237C461.426 313.007 467.159 308.976 473.868 308.976C480.577 308.976 486.309 313.007 488.498 318.643H476.782L476.771 323.877H489.443H493.424H494.668C494.67 323.876 494.671 323.875 494.672 323.873C494.764 312.788 485.396 303.742 473.868 303.742Z" fill="white"/>
<g opacity="0.75">
<path d="M474.035 308.974C466.93 308.974 461.15 303.418 461.15 296.589C461.15 289.76 466.93 284.204 474.035 284.204C481.139 284.204 486.919 289.76 486.919 296.589C486.919 303.418 481.139 308.974 474.035 308.974ZM474.035 289.438C469.816 289.438 466.384 292.646 466.384 296.589C466.384 300.533 469.816 303.74 474.035 303.74C478.253 303.74 481.685 300.533 481.685 296.589C481.685 292.646 478.253 289.438 474.035 289.438Z" fill="white"/>
</g>
<path d="M438.328 377.201V383.71H434.825V366.17H441.21C443.28 366.17 444.837 366.667 445.88 367.661C446.94 368.655 447.47 370.005 447.47 371.711C447.47 373.383 446.924 374.717 445.831 375.71C444.754 376.704 443.214 377.201 441.21 377.201H438.328ZM440.837 374.394C442.891 374.394 443.918 373.499 443.918 371.711C443.918 370.833 443.678 370.162 443.197 369.698C442.717 369.234 441.93 369.003 440.837 369.003H438.328V374.394H440.837ZM455.137 369.773C456.296 369.773 457.29 370.046 458.118 370.593C458.946 371.139 459.534 371.876 459.882 372.804V369.947H463.36V383.71H459.882V380.828C459.534 381.756 458.946 382.501 458.118 383.064C457.29 383.611 456.296 383.884 455.137 383.884C453.977 383.884 452.934 383.602 452.007 383.039C451.079 382.476 450.35 381.665 449.82 380.605C449.307 379.528 449.05 378.269 449.05 376.828C449.05 375.387 449.307 374.137 449.82 373.077C450.35 372 451.079 371.181 452.007 370.617C452.934 370.054 453.977 369.773 455.137 369.773ZM456.23 372.828C455.137 372.828 454.259 373.185 453.597 373.897C452.934 374.609 452.603 375.586 452.603 376.828C452.603 378.07 452.934 379.048 453.597 379.76C454.259 380.455 455.137 380.803 456.23 380.803C457.29 380.803 458.159 380.447 458.839 379.735C459.534 379.006 459.882 378.037 459.882 376.828C459.882 375.603 459.534 374.634 458.839 373.922C458.159 373.193 457.29 372.828 456.23 372.828ZM473.888 380.704V383.71H472.05C470.51 383.71 469.325 383.337 468.497 382.592C467.686 381.847 467.28 380.605 467.28 378.865V372.903H465.367V369.947H467.28V366.543H470.783V369.947H473.863V372.903H470.783V378.915C470.783 379.578 470.915 380.041 471.18 380.306C471.445 380.571 471.892 380.704 472.522 380.704H473.888ZM476.011 365.997C476.011 365.433 476.21 364.978 476.608 364.63C477.005 364.266 477.527 364.084 478.173 364.084C478.819 364.084 479.34 364.266 479.738 364.63C480.135 364.978 480.334 365.433 480.334 365.997C480.334 366.543 480.135 366.999 479.738 367.363C479.34 367.711 478.819 367.885 478.173 367.885C477.527 367.885 477.005 367.711 476.608 367.363C476.21 366.999 476.011 366.543 476.011 365.997ZM479.912 369.947V383.71H476.409V369.947H479.912ZM496.024 376.307C496.024 376.654 495.983 377.052 495.9 377.499H485.814C485.863 378.725 486.194 379.627 486.807 380.207C487.42 380.787 488.182 381.077 489.093 381.077C489.904 381.077 490.575 380.878 491.105 380.48C491.652 380.083 492 379.545 492.149 378.865H495.85C495.668 379.826 495.279 380.687 494.683 381.449C494.086 382.211 493.316 382.807 492.372 383.238C491.445 383.669 490.41 383.884 489.267 383.884C487.925 383.884 486.733 383.602 485.689 383.039C484.646 382.46 483.834 381.64 483.255 380.58C482.675 379.52 482.385 378.269 482.385 376.828C482.385 375.387 482.675 374.137 483.255 373.077C483.834 372 484.646 371.181 485.689 370.617C486.733 370.054 487.925 369.773 489.267 369.773C490.625 369.773 491.809 370.054 492.819 370.617C493.846 371.181 494.633 371.959 495.18 372.953C495.743 373.93 496.024 375.048 496.024 376.307ZM492.496 375.959C492.546 374.833 492.248 373.98 491.602 373.4C490.973 372.82 490.194 372.53 489.267 372.53C488.323 372.53 487.528 372.82 486.882 373.4C486.236 373.98 485.88 374.833 485.814 375.959H492.496ZM506.709 369.748C508.299 369.748 509.566 370.27 510.51 371.313C511.454 372.356 511.926 373.822 511.926 375.71V383.71H508.448V376.108C508.448 375.015 508.167 374.17 507.604 373.574C507.041 372.961 506.27 372.655 505.293 372.655C504.299 372.655 503.504 372.978 502.908 373.623C502.312 374.269 502.014 375.197 502.014 376.406V383.71H498.511V369.947H502.014V372.704C502.378 371.777 502.974 371.056 503.803 370.543C504.647 370.013 505.616 369.748 506.709 369.748ZM522.362 380.704V383.71H520.524C518.984 383.71 517.799 383.337 516.971 382.592C516.16 381.847 515.754 380.605 515.754 378.865V372.903H513.841V369.947H515.754V366.543H519.257V369.947H522.337V372.903H519.257V378.915C519.257 379.578 519.389 380.041 519.654 380.306C519.919 380.571 520.366 380.704 520.996 380.704H522.362ZM529.628 369.773C531.301 369.773 532.642 370.195 533.653 371.04C534.663 371.884 535.292 373.011 535.541 374.418H532.261C532.129 373.756 531.831 373.226 531.367 372.828C530.903 372.431 530.299 372.232 529.553 372.232C528.957 372.232 528.493 372.373 528.162 372.655C527.831 372.936 527.665 373.317 527.665 373.797C527.665 374.178 527.798 374.485 528.063 374.717C528.328 374.948 528.659 375.131 529.057 375.263C529.454 375.396 530.025 375.553 530.771 375.735C531.814 375.967 532.659 376.215 533.305 376.48C533.967 376.729 534.53 377.135 534.994 377.698C535.475 378.244 535.715 378.99 535.715 379.934C535.715 381.11 535.251 382.062 534.323 382.791C533.412 383.519 532.179 383.884 530.622 383.884C528.833 383.884 527.4 383.486 526.324 382.691C525.247 381.88 524.593 380.729 524.361 379.238H527.715C527.798 379.917 528.096 380.455 528.609 380.853C529.123 381.234 529.794 381.424 530.622 381.424C531.218 381.424 531.673 381.284 531.988 381.002C532.303 380.704 532.46 380.323 532.46 379.859C532.46 379.462 532.319 379.139 532.038 378.89C531.773 378.642 531.433 378.451 531.019 378.319C530.622 378.186 530.05 378.029 529.305 377.847C528.278 377.615 527.442 377.383 526.796 377.151C526.166 376.903 525.62 376.514 525.156 375.984C524.709 375.454 524.485 374.725 524.485 373.797C524.485 372.605 524.941 371.636 525.852 370.891C526.763 370.145 528.021 369.773 529.628 369.773Z" fill="white"/>
<g clip-path="url(#clip0_2638_111305)">
<path d="M388.179 152.127L408.482 141.791V164.057L388.128 174.102L388.179 152.127ZM362.54 137.155L385.22 126.687L405.999 137.17L385.571 147.569L362.54 137.155ZM385.053 121.04L354.979 135.202L355.033 149.189L360.213 151.766L360.173 141.327L382.894 152.183L382.841 174.448L360.213 162.714L360.196 158.283L354.979 155.688L355.019 165.945L385.006 181.495L413.716 167.327V135.235L385.053 121.04Z" fill="white"/>
<g opacity="0.75">
<path d="M403.82 172.257L395.097 176.42L394.987 167.864L403.82 163.467V172.257Z" fill="white"/>
</g>
<g opacity="0.75">
<path d="M364.284 130.735L374.177 126.083L403.829 140.757L403.838 150.111L395.106 153.928V145.675L364.284 130.735Z" fill="white"/>
</g>
</g>
<path d="M339.456 226.128C339.456 227.022 339.232 227.851 338.785 228.612C338.338 229.358 337.676 229.962 336.798 230.426C335.92 230.873 334.852 231.097 333.593 231.097C332.351 231.097 331.241 230.89 330.264 230.476C329.287 230.045 328.5 229.432 327.904 228.637C327.324 227.842 326.993 226.915 326.91 225.855H330.637C330.719 226.567 331.001 227.163 331.481 227.644C331.978 228.107 332.632 228.339 333.444 228.339C334.173 228.339 334.728 228.149 335.108 227.768C335.506 227.37 335.705 226.865 335.705 226.252C335.705 225.706 335.547 225.259 335.233 224.911C334.918 224.546 334.52 224.257 334.04 224.041C333.56 223.826 332.897 223.577 332.053 223.296C330.96 222.932 330.065 222.575 329.37 222.228C328.674 221.863 328.078 221.342 327.581 220.662C327.101 219.983 326.86 219.097 326.86 218.004C326.86 216.497 327.399 215.313 328.475 214.452C329.568 213.574 331.009 213.135 332.798 213.135C334.653 213.135 336.127 213.582 337.22 214.476C338.33 215.371 338.959 216.563 339.108 218.054H335.332C335.233 217.425 334.968 216.911 334.537 216.514C334.106 216.1 333.518 215.893 332.773 215.893C332.127 215.893 331.606 216.066 331.208 216.414C330.811 216.745 330.612 217.234 330.612 217.88C330.612 218.393 330.761 218.824 331.059 219.172C331.374 219.503 331.763 219.776 332.227 219.992C332.707 220.207 333.353 220.447 334.164 220.712C335.291 221.11 336.202 221.482 336.897 221.83C337.609 222.178 338.214 222.7 338.711 223.395C339.208 224.091 339.456 225.002 339.456 226.128ZM355.204 217.16V230.923H351.701V228.14C351.336 229.068 350.732 229.797 349.887 230.327C349.059 230.84 348.098 231.097 347.005 231.097C345.415 231.097 344.148 230.575 343.204 229.532C342.26 228.488 341.788 227.031 341.788 225.159V217.16H345.266V224.762C345.266 225.855 345.548 226.708 346.111 227.321C346.674 227.917 347.436 228.215 348.396 228.215C349.407 228.215 350.21 227.892 350.806 227.246C351.402 226.6 351.701 225.673 351.701 224.464V217.16H355.204ZM366.612 216.986C367.771 216.986 368.815 217.267 369.742 217.83C370.67 218.393 371.39 219.213 371.903 220.29C372.433 221.35 372.698 222.6 372.698 224.041C372.698 225.482 372.433 226.741 371.903 227.817C371.39 228.877 370.67 229.689 369.742 230.252C368.815 230.815 367.771 231.097 366.612 231.097C365.452 231.097 364.459 230.823 363.631 230.277C362.819 229.714 362.239 228.968 361.892 228.041V237.482H358.389V217.16H361.892V220.017C362.239 219.089 362.819 218.352 363.631 217.805C364.459 217.259 365.452 216.986 366.612 216.986ZM365.519 220.041C364.459 220.041 363.581 220.406 362.885 221.135C362.206 221.847 361.867 222.816 361.867 224.041C361.867 225.25 362.206 226.219 362.885 226.948C363.581 227.66 364.459 228.016 365.519 228.016C366.612 228.016 367.49 227.668 368.152 226.973C368.815 226.261 369.146 225.283 369.146 224.041C369.146 222.799 368.815 221.822 368.152 221.11C367.49 220.397 366.612 220.041 365.519 220.041ZM383.401 216.986C384.56 216.986 385.603 217.267 386.531 217.83C387.458 218.393 388.179 219.213 388.692 220.29C389.222 221.35 389.487 222.6 389.487 224.041C389.487 225.482 389.222 226.741 388.692 227.817C388.179 228.877 387.458 229.689 386.531 230.252C385.603 230.815 384.56 231.097 383.401 231.097C382.241 231.097 381.247 230.823 380.419 230.277C379.608 229.714 379.028 228.968 378.68 228.041V237.482H375.177V217.16H378.68V220.017C379.028 219.089 379.608 218.352 380.419 217.805C381.247 217.259 382.241 216.986 383.401 216.986ZM382.307 220.041C381.247 220.041 380.37 220.406 379.674 221.135C378.995 221.847 378.655 222.816 378.655 224.041C378.655 225.25 378.995 226.219 379.674 226.948C380.37 227.66 381.247 228.016 382.307 228.016C383.401 228.016 384.278 227.668 384.941 226.973C385.603 226.261 385.935 225.283 385.935 224.041C385.935 222.799 385.603 221.822 384.941 221.11C384.278 220.397 383.401 220.041 382.307 220.041ZM395.469 212.539V230.923H391.966V212.539H395.469ZM398.241 213.209C398.241 212.646 398.439 212.191 398.837 211.843C399.234 211.479 399.756 211.296 400.402 211.296C401.048 211.296 401.57 211.479 401.967 211.843C402.365 212.191 402.563 212.646 402.563 213.209C402.563 213.756 402.365 214.211 401.967 214.576C401.57 214.924 401.048 215.098 400.402 215.098C399.756 215.098 399.234 214.924 398.837 214.576C398.439 214.211 398.241 213.756 398.241 213.209ZM402.141 217.16V230.923H398.638V217.16H402.141ZM418.253 223.519C418.253 223.867 418.212 224.265 418.129 224.712H408.043C408.092 225.938 408.424 226.84 409.036 227.42C409.649 228 410.411 228.289 411.322 228.289C412.134 228.289 412.804 228.091 413.334 227.693C413.881 227.296 414.229 226.757 414.378 226.078H418.079C417.897 227.039 417.508 227.9 416.912 228.662C416.316 229.424 415.545 230.02 414.601 230.451C413.674 230.881 412.639 231.097 411.496 231.097C410.154 231.097 408.962 230.815 407.918 230.252C406.875 229.672 406.063 228.853 405.484 227.793C404.904 226.733 404.614 225.482 404.614 224.041C404.614 222.6 404.904 221.35 405.484 220.29C406.063 219.213 406.875 218.393 407.918 217.83C408.962 217.267 410.154 216.986 411.496 216.986C412.854 216.986 414.038 217.267 415.049 217.83C416.075 218.393 416.862 219.172 417.409 220.166C417.972 221.143 418.253 222.261 418.253 223.519ZM414.726 223.172C414.775 222.045 414.477 221.192 413.831 220.613C413.202 220.033 412.423 219.743 411.496 219.743C410.552 219.743 409.757 220.033 409.111 220.613C408.465 221.192 408.109 222.045 408.043 223.172H414.726ZM424.243 219.793C424.756 218.915 425.435 218.228 426.28 217.731C427.125 217.218 428.069 216.961 429.112 216.961V220.712H428.094C425.527 220.712 424.243 221.905 424.243 224.29V230.923H420.74V217.16H424.243V219.793ZM435.796 216.986C437.469 216.986 438.81 217.408 439.821 218.253C440.831 219.097 441.46 220.224 441.709 221.631H438.43C438.297 220.969 437.999 220.439 437.535 220.041C437.071 219.644 436.467 219.445 435.722 219.445C435.125 219.445 434.662 219.586 434.33 219.867C433.999 220.149 433.834 220.53 433.834 221.01C433.834 221.391 433.966 221.698 434.231 221.929C434.496 222.161 434.827 222.344 435.225 222.476C435.622 222.609 436.194 222.766 436.939 222.948C437.982 223.18 438.827 223.428 439.473 223.693C440.135 223.942 440.699 224.348 441.162 224.911C441.643 225.457 441.883 226.203 441.883 227.147C441.883 228.323 441.419 229.275 440.492 230.004C439.581 230.732 438.347 231.097 436.79 231.097C435.001 231.097 433.569 230.699 432.492 229.904C431.415 229.093 430.761 227.942 430.529 226.451H433.883C433.966 227.13 434.264 227.668 434.778 228.066C435.291 228.447 435.962 228.637 436.79 228.637C437.386 228.637 437.842 228.496 438.156 228.215C438.471 227.917 438.628 227.536 438.628 227.072C438.628 226.675 438.488 226.352 438.206 226.103C437.941 225.855 437.601 225.664 437.187 225.532C436.79 225.399 436.218 225.242 435.473 225.06C434.446 224.828 433.61 224.596 432.964 224.364C432.335 224.116 431.788 223.727 431.324 223.197C430.877 222.667 430.654 221.938 430.654 221.01C430.654 219.818 431.109 218.849 432.02 218.104C432.931 217.358 434.19 216.986 435.796 216.986Z" fill="white"/>
<path d="M308.586 338.405V5.49805L595.297 172.277L308.586 338.405Z" fill="black" fill-opacity="0.4"/>
<path d="M308.586 338.405V5.49805L595.297 172.277L308.586 338.405Z" stroke="#711F3C"/>
<path d="M595.297 504.702V175.16L310.6 339.976L595.297 504.702Z" fill="black" fill-opacity="0.4"/>
<path d="M595.297 504.702V175.16L310.6 339.976L595.297 504.702Z" stroke="#711F3C"/>
<path d="M16.6719 505.713V173.229L303.502 339.796L16.6719 505.713Z" fill="#D81D5B"/>
<path d="M16.6719 505.713V173.229L303.502 339.796L16.6719 505.713Z" stroke="white"/>
<path d="M16.6719 505.712V173.228L303.502 339.795L16.6719 505.712Z" fill="black" fill-opacity="0.4"/>
<path d="M16.6719 505.712V173.228L303.502 339.795L16.6719 505.712Z" stroke="#711F3C"/>
<g opacity="0.5">
<g clip-path="url(#clip1_2638_111305)">
<g opacity="0.75">
<path d="M120.417 286.222H115.183V301.923H120.417V286.222Z" fill="white"/>
</g>
<g opacity="0.75">
<path d="M125.644 291.464H109.942V296.698H125.644V291.464Z" fill="white"/>
</g>
<path d="M107.479 329.35C107.212 329.35 106.944 329.335 106.676 329.307C103.857 329.01 101.356 327.205 99.8137 324.356C96.6484 318.507 93.4865 292.615 101.647 284.279C104.991 280.863 109.94 278.797 114.887 278.753L114.931 283.987C111.348 284.019 107.643 285.549 105.262 287.979C102.71 290.584 101.377 296.933 101.606 305.4C101.817 313.262 103.3 319.978 104.288 321.803C105.019 323.152 106.053 323.962 107.201 324.083C108.069 324.172 108.882 323.853 109.432 323.202C110.429 322.02 110.366 319.576 110.307 317.212C110.229 314.197 110.149 311.078 112.054 308.781C113.415 307.139 115.333 306.196 117.316 306.193H117.324C119.235 306.193 121.022 307.074 122.356 308.675C124.36 311.078 124.416 314.369 124.465 317.272C124.506 319.683 124.544 321.961 125.572 323.106C126.121 323.717 127.026 324.072 127.904 324.035C128.478 324.011 129.295 323.808 129.925 322.978C132.073 320.149 135.837 299.247 129.534 288.936C127.586 285.75 123.324 284.089 120.121 284.095L120.112 278.861H120.138C124.757 278.861 130.788 281.117 133.871 286.165C140.999 297.836 137.745 321.222 133.966 326.205C132.536 328.091 130.458 329.184 128.116 329.283C125.72 329.383 123.365 328.404 121.803 326.663C119.466 324.058 119.406 320.512 119.353 317.384C119.317 315.256 119.28 313.054 118.462 312.072C118.101 311.638 117.728 311.427 117.325 311.427H117.323C116.851 311.428 116.341 311.705 115.957 312.169C115.311 312.948 115.367 315.153 115.417 317.099C115.498 320.299 115.591 323.926 113.307 326.637C111.848 328.368 109.714 329.349 107.479 329.35Z" fill="white"/>
</g>
<path d="M82.6746 374.915C82.6746 376.654 82.3102 378.186 81.5815 379.511C80.8527 380.836 79.7928 381.872 78.4015 382.617C77.0268 383.346 75.3872 383.71 73.4825 383.71H67.2468V366.17H73.4825C75.3872 366.17 77.0268 366.535 78.4015 367.264C79.7928 367.976 80.8527 368.994 81.5815 370.319C82.3102 371.628 82.6746 373.16 82.6746 374.915ZM73.1844 380.58C75.0725 380.58 76.53 380.083 77.5568 379.089C78.6003 378.095 79.122 376.704 79.122 374.915C79.122 373.11 78.6003 371.711 77.5568 370.717C76.53 369.723 75.0725 369.226 73.1844 369.226H70.7497V380.58H73.1844ZM98.2406 376.307C98.2406 376.654 98.1992 377.052 98.1164 377.499H88.0299C88.0796 378.725 88.4109 379.627 89.0237 380.207C89.6365 380.787 90.3984 381.077 91.3093 381.077C92.1208 381.077 92.7916 380.878 93.3216 380.48C93.8682 380.083 94.216 379.545 94.365 378.865H98.0667C97.8845 379.826 97.4953 380.687 96.8991 381.449C96.3028 382.211 95.5327 382.807 94.5886 383.238C93.6611 383.669 92.626 383.884 91.4832 383.884C90.1416 383.884 88.9492 383.602 87.9057 383.039C86.8623 382.46 86.0507 381.64 85.4711 380.58C84.8914 379.52 84.6015 378.269 84.6015 376.828C84.6015 375.387 84.8914 374.137 85.4711 373.077C86.0507 372 86.8623 371.181 87.9057 370.617C88.9492 370.054 90.1416 369.773 91.4832 369.773C92.8413 369.773 94.0255 370.054 95.0358 370.617C96.0627 371.181 96.8494 371.959 97.3959 372.953C97.9591 373.93 98.2406 375.048 98.2406 376.307ZM94.7128 375.959C94.7625 374.833 94.4644 373.98 93.8185 373.4C93.1891 372.82 92.4107 372.53 91.4832 372.53C90.5391 372.53 89.7441 372.82 89.0982 373.4C88.4523 373.98 88.0962 374.833 88.0299 375.959H94.7128ZM108.926 369.748C110.516 369.748 111.783 370.27 112.727 371.313C113.671 372.356 114.143 373.822 114.143 375.71V383.71H110.665V376.108C110.665 375.015 110.383 374.17 109.82 373.574C109.257 372.961 108.487 372.655 107.51 372.655C106.516 372.655 105.721 372.978 105.125 373.623C104.528 374.269 104.23 375.197 104.23 376.406V383.71H100.727V369.947H104.23V372.704C104.595 371.777 105.191 371.056 106.019 370.543C106.864 370.013 107.833 369.748 108.926 369.748ZM124.579 380.704V383.71H122.74C121.2 383.71 120.016 383.337 119.188 382.592C118.376 381.847 117.97 380.605 117.97 378.865V372.903H116.057V369.947H117.97V366.543H121.473V369.947H124.554V372.903H121.473V378.915C121.473 379.578 121.606 380.041 121.871 380.306C122.136 380.571 122.583 380.704 123.212 380.704H124.579ZM126.702 365.997C126.702 365.433 126.901 364.978 127.298 364.63C127.696 364.266 128.217 364.084 128.863 364.084C129.509 364.084 130.031 364.266 130.428 364.63C130.826 364.978 131.025 365.433 131.025 365.997C131.025 366.543 130.826 366.999 130.428 367.363C130.031 367.711 129.509 367.885 128.863 367.885C128.217 367.885 127.696 367.711 127.298 367.363C126.901 366.999 126.702 366.543 126.702 365.997ZM130.602 369.947V383.71H127.099V369.947H130.602ZM138.516 369.773C140.189 369.773 141.531 370.195 142.541 371.04C143.551 371.884 144.181 373.011 144.429 374.418H141.15C141.017 373.756 140.719 373.226 140.255 372.828C139.792 372.431 139.187 372.232 138.442 372.232C137.845 372.232 137.382 372.373 137.05 372.655C136.719 372.936 136.554 373.317 136.554 373.797C136.554 374.178 136.686 374.485 136.951 374.717C137.216 374.948 137.547 375.131 137.945 375.263C138.342 375.396 138.914 375.553 139.659 375.735C140.702 375.967 141.547 376.215 142.193 376.48C142.856 376.729 143.419 377.135 143.882 377.698C144.363 378.244 144.603 378.99 144.603 379.934C144.603 381.11 144.139 382.062 143.212 382.791C142.301 383.519 141.067 383.884 139.51 383.884C137.721 383.884 136.289 383.486 135.212 382.691C134.136 381.88 133.481 380.729 133.249 379.238H136.603C136.686 379.917 136.984 380.455 137.498 380.853C138.011 381.234 138.682 381.424 139.51 381.424C140.106 381.424 140.562 381.284 140.876 381.002C141.191 380.704 141.348 380.323 141.348 379.859C141.348 379.462 141.208 379.139 140.926 378.89C140.661 378.642 140.322 378.451 139.907 378.319C139.51 378.186 138.939 378.029 138.193 377.847C137.166 377.615 136.33 377.383 135.684 377.151C135.055 376.903 134.508 376.514 134.044 375.984C133.597 375.454 133.374 374.725 133.374 373.797C133.374 372.605 133.829 371.636 134.74 370.891C135.651 370.145 136.91 369.773 138.516 369.773ZM154.566 380.704V383.71H152.727C151.187 383.71 150.003 383.337 149.175 382.592C148.363 381.847 147.957 380.605 147.957 378.865V372.903H146.044V369.947H147.957V366.543H151.46V369.947H154.541V372.903H151.46V378.915C151.46 379.578 151.593 380.041 151.858 380.306C152.123 380.571 152.57 380.704 153.199 380.704H154.566ZM161.831 369.773C163.504 369.773 164.846 370.195 165.856 371.04C166.866 371.884 167.496 373.011 167.744 374.418H164.465C164.332 373.756 164.034 373.226 163.57 372.828C163.107 372.431 162.502 372.232 161.757 372.232C161.161 372.232 160.697 372.373 160.366 372.655C160.034 372.936 159.869 373.317 159.869 373.797C159.869 374.178 160.001 374.485 160.266 374.717C160.531 374.948 160.862 375.131 161.26 375.263C161.657 375.396 162.229 375.553 162.974 375.735C164.018 375.967 164.862 376.215 165.508 376.48C166.171 376.729 166.734 377.135 167.198 377.698C167.678 378.244 167.918 378.99 167.918 379.934C167.918 381.11 167.454 382.062 166.527 382.791C165.616 383.519 164.382 383.884 162.825 383.884C161.036 383.884 159.604 383.486 158.527 382.691C157.451 381.88 156.796 380.729 156.564 379.238H159.918C160.001 379.917 160.299 380.455 160.813 380.853C161.326 381.234 161.997 381.424 162.825 381.424C163.421 381.424 163.877 381.284 164.191 381.002C164.506 380.704 164.663 380.323 164.663 379.859C164.663 379.462 164.523 379.139 164.241 378.89C163.976 378.642 163.637 378.451 163.223 378.319C162.825 378.186 162.254 378.029 161.508 377.847C160.481 377.615 159.645 377.383 158.999 377.151C158.37 376.903 157.823 376.514 157.359 375.984C156.912 375.454 156.689 374.725 156.689 373.797C156.689 372.605 157.144 371.636 158.055 370.891C158.966 370.145 160.225 369.773 161.831 369.773Z" fill="white"/>
</g>
<path d="M305.875 5.49261V338.399L19.1643 171.62L305.875 5.49261Z" fill="#D81D5B"/>
<path d="M305.875 5.49261V338.399L19.1643 171.62L305.875 5.49261Z" stroke="white"/>
<g clip-path="url(#clip2_2638_111305)">
<path d="M214.699 130.533H213.536C211.297 130.533 209.465 128.701 209.465 126.462C209.465 124.223 211.297 122.392 213.536 122.392H214.699C216.938 122.392 218.77 124.223 218.77 126.462C218.77 128.701 216.938 130.533 214.699 130.533Z" fill="white"/>
<path d="M199.58 130.533H198.417C196.178 130.533 194.346 128.701 194.346 126.462C194.346 124.223 196.178 122.392 198.417 122.392H199.58C201.819 122.392 203.65 124.223 203.65 126.462C203.65 128.701 201.819 130.533 199.58 130.533Z" fill="white"/>
<g opacity="0.95">
<path d="M228.033 180.113H211.132C207.174 180.113 204.074 175.884 204.074 170.485V157.724H209.308V170.485C209.308 173.369 210.663 174.879 211.132 174.879H228.033C228.501 174.879 229.856 173.369 229.856 170.485V161.216H235.09V170.485C235.09 175.884 231.99 180.113 228.033 180.113Z" fill="white"/>
</g>
<g opacity="0.75">
<path d="M223.7 126.854C221.266 124.515 217.663 124.064 213.43 124.02V128.293C216.662 128.329 219.294 128.622 220.626 129.901C221.516 130.757 221.949 132.192 221.949 134.288C221.949 138.693 220.072 144.649 217.167 149.461C214.026 154.664 210.238 157.647 206.776 157.647C198.952 157.647 191.603 143.074 191.603 134.288C191.603 132.192 192.036 130.757 192.927 129.901C194.281 128.6 196.978 128.32 200.285 128.292V124.018C195.982 124.053 192.318 124.485 189.853 126.854C188.082 128.555 187.222 130.987 187.222 134.288C187.222 143.995 195.286 161.924 206.776 161.924C218.267 161.924 226.331 143.995 226.331 134.288C226.331 130.987 225.47 128.555 223.7 126.854Z" fill="white"/>
</g>
<g opacity="0.75">
<path d="M232.583 165.861C228.574 165.861 225.313 162.6 225.313 158.592C225.313 154.583 228.574 151.322 232.583 151.322C236.591 151.322 239.852 154.583 239.852 158.592C239.852 162.6 236.591 165.861 232.583 165.861ZM232.583 156.556C231.461 156.556 230.547 157.469 230.547 158.592C230.547 159.714 231.461 160.627 232.583 160.627C233.705 160.627 234.618 159.714 234.618 158.592C234.618 157.469 233.705 156.556 232.583 156.556Z" fill="white"/>
</g>
</g>
<path d="M150.974 224.413V230.922H147.471V213.382H153.856C155.926 213.382 157.483 213.879 158.526 214.873C159.586 215.867 160.116 217.217 160.116 218.922C160.116 220.595 159.57 221.929 158.477 222.922C157.4 223.916 155.86 224.413 153.856 224.413H150.974ZM153.483 221.606C155.537 221.606 156.564 220.711 156.564 218.922C156.564 218.045 156.323 217.374 155.843 216.91C155.363 216.446 154.576 216.215 153.483 216.215H150.974V221.606H153.483ZM170.59 216.96C172.18 216.96 173.447 217.482 174.391 218.525C175.335 219.568 175.807 221.034 175.807 222.922V230.922H172.329V223.32C172.329 222.227 172.047 221.382 171.484 220.786C170.921 220.173 170.151 219.867 169.174 219.867C168.18 219.867 167.385 220.189 166.789 220.835C166.193 221.481 165.894 222.409 165.894 223.618V230.922H162.392V212.538H165.894V219.916C166.259 218.989 166.855 218.268 167.683 217.755C168.528 217.225 169.497 216.96 170.59 216.96ZM181.249 217.159L185.001 226.5L188.479 217.159H192.33L183.908 237.481H180.032L183.137 230.524L177.349 217.159H181.249ZM198.725 216.985C200.398 216.985 201.739 217.407 202.749 218.252C203.76 219.096 204.389 220.223 204.638 221.63H201.358C201.226 220.968 200.928 220.438 200.464 220.04C200 219.643 199.396 219.444 198.65 219.444C198.054 219.444 197.59 219.585 197.259 219.867C196.928 220.148 196.762 220.529 196.762 221.009C196.762 221.39 196.895 221.697 197.16 221.929C197.425 222.16 197.756 222.343 198.153 222.475C198.551 222.608 199.122 222.765 199.868 222.947C200.911 223.179 201.756 223.427 202.402 223.692C203.064 223.941 203.627 224.347 204.091 224.91C204.571 225.456 204.811 226.202 204.811 227.146C204.811 228.322 204.348 229.274 203.42 230.003C202.509 230.731 201.275 231.096 199.719 231.096C197.93 231.096 196.497 230.698 195.421 229.903C194.344 229.092 193.69 227.941 193.458 226.45H196.812C196.895 227.129 197.193 227.667 197.706 228.065C198.22 228.446 198.89 228.636 199.719 228.636C200.315 228.636 200.77 228.495 201.085 228.214C201.4 227.916 201.557 227.535 201.557 227.071C201.557 226.674 201.416 226.351 201.135 226.102C200.87 225.854 200.53 225.663 200.116 225.531C199.719 225.398 199.147 225.241 198.402 225.059C197.375 224.827 196.539 224.595 195.893 224.363C195.263 224.115 194.717 223.726 194.253 223.196C193.806 222.666 193.582 221.937 193.582 221.009C193.582 219.817 194.038 218.848 194.949 218.103C195.859 217.357 197.118 216.985 198.725 216.985ZM207.023 213.208C207.023 212.645 207.222 212.19 207.619 211.842C208.017 211.478 208.538 211.295 209.184 211.295C209.83 211.295 210.352 211.478 210.749 211.842C211.147 212.19 211.346 212.645 211.346 213.208C211.346 213.755 211.147 214.21 210.749 214.575C210.352 214.923 209.83 215.097 209.184 215.097C208.538 215.097 208.017 214.923 207.619 214.575C207.222 214.21 207.023 213.755 207.023 213.208ZM210.923 217.159V230.922H207.42V217.159H210.923ZM220.278 216.985C222.05 216.985 223.524 217.465 224.7 218.426C225.893 219.386 226.638 220.695 226.936 222.351H223.235C223.086 221.622 222.746 221.051 222.216 220.637C221.686 220.206 221.015 219.991 220.204 219.991C219.276 219.991 218.498 220.339 217.868 221.034C217.256 221.713 216.949 222.715 216.949 224.04C216.949 225.365 217.256 226.376 217.868 227.071C218.498 227.75 219.276 228.09 220.204 228.09C221.015 228.09 221.686 227.883 222.216 227.469C222.746 227.038 223.086 226.458 223.235 225.73H226.936C226.638 227.386 225.893 228.694 224.7 229.655C223.524 230.615 222.05 231.096 220.278 231.096C218.937 231.096 217.744 230.814 216.701 230.251C215.657 229.671 214.846 228.852 214.266 227.792C213.686 226.732 213.397 225.481 213.397 224.04C213.397 222.599 213.686 221.349 214.266 220.289C214.846 219.212 215.657 218.392 216.701 217.829C217.744 217.266 218.937 216.985 220.278 216.985ZM229.028 213.208C229.028 212.645 229.227 212.19 229.624 211.842C230.022 211.478 230.543 211.295 231.189 211.295C231.835 211.295 232.357 211.478 232.754 211.842C233.152 212.19 233.351 212.645 233.351 213.208C233.351 213.755 233.152 214.21 232.754 214.575C232.357 214.923 231.835 215.097 231.189 215.097C230.543 215.097 230.022 214.923 229.624 214.575C229.227 214.21 229.028 213.755 229.028 213.208ZM232.928 217.159V230.922H229.425V217.159H232.928ZM241.488 216.985C242.648 216.985 243.641 217.258 244.469 217.804C245.298 218.351 245.886 219.088 246.233 220.016V217.159H249.711V230.922H246.233V228.04C245.886 228.968 245.298 229.713 244.469 230.276C243.641 230.823 242.648 231.096 241.488 231.096C240.329 231.096 239.285 230.814 238.358 230.251C237.43 229.688 236.702 228.876 236.172 227.816C235.658 226.74 235.402 225.481 235.402 224.04C235.402 222.599 235.658 221.349 236.172 220.289C236.702 219.212 237.43 218.392 238.358 217.829C239.285 217.266 240.329 216.985 241.488 216.985ZM242.581 220.04C241.488 220.04 240.61 220.397 239.948 221.109C239.285 221.821 238.954 222.798 238.954 224.04C238.954 225.282 239.285 226.26 239.948 226.972C240.61 227.667 241.488 228.015 242.581 228.015C243.641 228.015 244.511 227.659 245.19 226.947C245.886 226.218 246.233 225.249 246.233 224.04C246.233 222.815 245.886 221.846 245.19 221.134C244.511 220.405 243.641 220.04 242.581 220.04ZM261.084 216.96C262.674 216.96 263.941 217.482 264.885 218.525C265.829 219.568 266.301 221.034 266.301 222.922V230.922H262.823V223.32C262.823 222.227 262.542 221.382 261.979 220.786C261.416 220.173 260.645 219.867 259.668 219.867C258.675 219.867 257.88 220.189 257.283 220.835C256.687 221.481 256.389 222.409 256.389 223.618V230.922H252.886V217.159H256.389V219.916C256.753 218.989 257.35 218.268 258.178 217.755C259.022 217.225 259.991 216.96 261.084 216.96ZM274.129 216.985C275.802 216.985 277.143 217.407 278.153 218.252C279.164 219.096 279.793 220.223 280.042 221.63H276.762C276.63 220.968 276.332 220.438 275.868 220.04C275.404 219.643 274.8 219.444 274.054 219.444C273.458 219.444 272.994 219.585 272.663 219.867C272.332 220.148 272.166 220.529 272.166 221.009C272.166 221.39 272.299 221.697 272.564 221.929C272.829 222.16 273.16 222.343 273.557 222.475C273.955 222.608 274.526 222.765 275.272 222.947C276.315 223.179 277.16 223.427 277.806 223.692C278.468 223.941 279.031 224.347 279.495 224.91C279.975 225.456 280.215 226.202 280.215 227.146C280.215 228.322 279.752 229.274 278.824 230.003C277.913 230.731 276.679 231.096 275.122 231.096C273.334 231.096 271.901 230.698 270.825 229.903C269.748 229.092 269.094 227.941 268.862 226.45H272.216C272.299 227.129 272.597 227.667 273.11 228.065C273.624 228.446 274.294 228.636 275.122 228.636C275.719 228.636 276.174 228.495 276.489 228.214C276.804 227.916 276.961 227.535 276.961 227.071C276.961 226.674 276.82 226.351 276.539 226.102C276.274 225.854 275.934 225.663 275.52 225.531C275.122 225.398 274.551 225.241 273.806 225.059C272.779 224.827 271.943 224.595 271.297 224.363C270.667 224.115 270.121 223.726 269.657 223.196C269.21 222.666 268.986 221.937 268.986 221.009C268.986 219.817 269.442 218.848 270.353 218.103C271.263 217.357 272.522 216.985 274.129 216.985Z" fill="white"/>
<path d="M305.874 5.48578V338.393L19.1634 171.613L305.874 5.48578Z" fill="black" fill-opacity="0.4"/>
<path d="M305.874 5.48578V338.393L19.1634 171.613L305.874 5.48578Z" stroke="#711F3C"/>
<path d="M308.586 673.802V340.896L595.297 507.675L308.586 673.802Z" fill="#D81D5B"/>
<path d="M308.586 673.802V340.896L595.297 507.675L308.586 673.802Z" stroke="white"/>
<g clip-path="url(#clip3_2638_111305)">
<path d="M417.404 500.321H392.255C386.522 500.321 381.858 495.657 381.858 489.924V469.428C381.858 463.695 386.522 459.031 392.255 459.031H417.404C423.137 459.031 427.801 463.695 427.801 469.428V477.059H422.567V469.428C422.567 466.581 420.251 464.265 417.404 464.265H392.255C389.408 464.265 387.092 466.581 387.092 469.428V489.924C387.092 492.771 389.408 495.087 392.255 495.087H417.404C420.251 495.087 422.567 492.771 422.567 489.924V482.293H427.801V489.924C427.801 495.657 423.137 500.321 417.404 500.321Z" fill="white"/>
<g opacity="0.75">
<path d="M411.833 487.521H397.247C392.924 487.521 389.42 484.017 389.42 479.694V479.647C389.42 475.324 392.924 471.819 397.248 471.819H411.833C416.156 471.819 419.66 475.324 419.66 479.646V479.694C419.66 484.017 416.156 487.521 411.833 487.521ZM394.654 479.613V479.727C394.654 481.141 395.8 482.287 397.214 482.287H411.866C413.28 482.287 414.426 481.141 414.426 479.727V479.613C414.426 478.2 413.28 477.053 411.866 477.053H397.214C395.8 477.053 394.654 478.2 394.654 479.613Z" fill="white"/>
</g>
<path d="M407.444 471.816H402.21V487.518H407.444V471.816Z" fill="white"/>
<path d="M418.498 457.865H390.584V445.652H418.498V457.865ZM395.818 452.631H413.264V450.886H395.818V452.631Z" fill="white"/>
<g opacity="0.75">
<path d="M412.682 464.274H396.98V452.643H412.682V464.274ZM402.214 459.04H407.448V457.876H402.214V459.04Z" fill="white"/>
</g>
</g>
<path d="M329.91 546.143V552.652H326.407V535.113H332.791C334.862 535.113 336.419 535.61 337.462 536.603C338.522 537.597 339.052 538.947 339.052 540.653C339.052 542.326 338.505 543.659 337.412 544.653C336.336 545.646 334.795 546.143 332.791 546.143H329.91ZM332.419 543.336C334.472 543.336 335.499 542.442 335.499 540.653C335.499 539.775 335.259 539.104 334.779 538.641C334.299 538.177 333.512 537.945 332.419 537.945H329.91V543.336H332.419ZM349.526 538.69C351.116 538.69 352.383 539.212 353.327 540.255C354.271 541.299 354.743 542.765 354.743 544.653V552.652H351.265V545.05C351.265 543.957 350.983 543.112 350.42 542.516C349.857 541.903 349.087 541.597 348.11 541.597C347.116 541.597 346.321 541.92 345.725 542.566C345.128 543.212 344.83 544.139 344.83 545.348V552.652H341.327V534.268H344.83V541.647C345.195 540.719 345.791 539.999 346.619 539.485C347.464 538.955 348.433 538.69 349.526 538.69ZM363.216 538.715C364.375 538.715 365.369 538.988 366.197 539.535C367.025 540.082 367.613 540.819 367.961 541.746V538.889H371.439V552.652H367.961V549.77C367.613 550.698 367.025 551.443 366.197 552.006C365.369 552.553 364.375 552.826 363.216 552.826C362.057 552.826 361.013 552.545 360.086 551.982C359.158 551.418 358.429 550.607 357.899 549.547C357.386 548.47 357.129 547.212 357.129 545.771C357.129 544.33 357.386 543.079 357.899 542.019C358.429 540.943 359.158 540.123 360.086 539.56C361.013 538.997 362.057 538.715 363.216 538.715ZM364.309 541.771C363.216 541.771 362.338 542.127 361.676 542.839C361.013 543.551 360.682 544.529 360.682 545.771C360.682 547.013 361.013 547.99 361.676 548.702C362.338 549.398 363.216 549.746 364.309 549.746C365.369 549.746 366.239 549.39 366.918 548.677C367.613 547.949 367.961 546.98 367.961 545.771C367.961 544.545 367.613 543.576 366.918 542.864C366.239 542.135 365.369 541.771 364.309 541.771ZM378.117 541.522C378.63 540.645 379.309 539.957 380.154 539.46C380.998 538.947 381.943 538.69 382.986 538.69V542.442H381.967C379.4 542.442 378.117 543.634 378.117 546.019V552.652H374.614V538.889H378.117V541.522ZM402.439 538.69C404.112 538.69 405.429 539.212 406.39 540.255C407.367 541.282 407.855 542.748 407.855 544.653V552.652H404.377V545.05C404.377 543.99 404.104 543.179 403.557 542.616C403.027 542.036 402.29 541.746 401.346 541.746C400.369 541.746 399.591 542.052 399.011 542.665C398.431 543.278 398.141 544.172 398.141 545.348V552.652H394.663V545.05C394.663 543.99 394.39 543.179 393.844 542.616C393.314 542.036 392.577 541.746 391.632 541.746C390.655 541.746 389.877 542.052 389.297 542.665C388.718 543.278 388.428 544.172 388.428 545.348V552.652H384.925V538.889H388.428V541.498C388.792 540.603 389.363 539.916 390.142 539.436C390.937 538.939 391.856 538.69 392.9 538.69C394.009 538.69 394.97 538.955 395.781 539.485C396.609 540.015 397.231 540.777 397.645 541.771C398.075 540.827 398.713 540.082 399.558 539.535C400.419 538.972 401.379 538.69 402.439 538.69ZM416.324 538.715C417.483 538.715 418.477 538.988 419.305 539.535C420.133 540.082 420.721 540.819 421.069 541.746V538.889H424.547V552.652H421.069V549.77C420.721 550.698 420.133 551.443 419.305 552.006C418.477 552.553 417.483 552.826 416.324 552.826C415.164 552.826 414.121 552.545 413.194 551.982C412.266 551.418 411.537 550.607 411.007 549.547C410.494 548.47 410.237 547.212 410.237 545.771C410.237 544.33 410.494 543.079 411.007 542.019C411.537 540.943 412.266 540.123 413.194 539.56C414.121 538.997 415.164 538.715 416.324 538.715ZM417.417 541.771C416.324 541.771 415.446 542.127 414.784 542.839C414.121 543.551 413.79 544.529 413.79 545.771C413.79 547.013 414.121 547.99 414.784 548.702C415.446 549.398 416.324 549.746 417.417 549.746C418.477 549.746 419.346 549.39 420.026 548.677C420.721 547.949 421.069 546.98 421.069 545.771C421.069 544.545 420.721 543.576 420.026 542.864C419.346 542.135 418.477 541.771 417.417 541.771ZM433.908 538.715C435.68 538.715 437.154 539.195 438.33 540.156C439.522 541.117 440.268 542.425 440.566 544.081H436.864C436.715 543.353 436.375 542.781 435.845 542.367C435.315 541.937 434.645 541.721 433.833 541.721C432.906 541.721 432.127 542.069 431.498 542.765C430.885 543.444 430.579 544.446 430.579 545.771C430.579 547.096 430.885 548.106 431.498 548.802C432.127 549.481 432.906 549.82 433.833 549.82C434.645 549.82 435.315 549.613 435.845 549.199C436.375 548.768 436.715 548.189 436.864 547.46H440.566C440.268 549.116 439.522 550.425 438.33 551.385C437.154 552.346 435.68 552.826 433.908 552.826C432.566 552.826 431.374 552.545 430.33 551.982C429.287 551.402 428.475 550.582 427.896 549.522C427.316 548.462 427.026 547.212 427.026 545.771C427.026 544.33 427.316 543.079 427.896 542.019C428.475 540.943 429.287 540.123 430.33 539.56C431.374 538.997 432.566 538.715 433.908 538.715ZM442.657 534.939C442.657 534.376 442.856 533.92 443.253 533.573C443.651 533.208 444.173 533.026 444.819 533.026C445.465 533.026 445.986 533.208 446.384 533.573C446.781 533.92 446.98 534.376 446.98 534.939C446.98 535.485 446.781 535.941 446.384 536.305C445.986 536.653 445.465 536.827 444.819 536.827C444.173 536.827 443.651 536.653 443.253 536.305C442.856 535.941 442.657 535.485 442.657 534.939ZM446.558 538.889V552.652H443.055V538.889H446.558ZM454.472 538.715C456.144 538.715 457.486 539.137 458.496 539.982C459.507 540.827 460.136 541.953 460.384 543.361H457.105C456.973 542.698 456.674 542.168 456.211 541.771C455.747 541.373 455.142 541.175 454.397 541.175C453.801 541.175 453.337 541.315 453.006 541.597C452.675 541.879 452.509 542.259 452.509 542.74C452.509 543.121 452.642 543.427 452.907 543.659C453.172 543.891 453.503 544.073 453.9 544.206C454.298 544.338 454.869 544.495 455.614 544.678C456.658 544.909 457.503 545.158 458.149 545.423C458.811 545.671 459.374 546.077 459.838 546.64C460.318 547.187 460.558 547.932 460.558 548.876C460.558 550.052 460.095 551.004 459.167 551.733C458.256 552.462 457.022 552.826 455.465 552.826C453.677 552.826 452.244 552.429 451.167 551.634C450.091 550.822 449.437 549.671 449.205 548.181H452.559C452.642 548.86 452.94 549.398 453.453 549.795C453.967 550.176 454.637 550.367 455.465 550.367C456.062 550.367 456.517 550.226 456.832 549.944C457.146 549.646 457.304 549.265 457.304 548.802C457.304 548.404 457.163 548.081 456.881 547.833C456.616 547.584 456.277 547.394 455.863 547.261C455.465 547.129 454.894 546.971 454.149 546.789C453.122 546.557 452.285 546.326 451.64 546.094C451.01 545.845 450.464 545.456 450 544.926C449.553 544.396 449.329 543.667 449.329 542.74C449.329 541.547 449.785 540.578 450.695 539.833C451.606 539.088 452.865 538.715 454.472 538.715ZM470.521 549.646V552.652H468.683C467.142 552.652 465.958 552.28 465.13 551.534C464.318 550.789 463.913 549.547 463.913 547.808V541.845H462V538.889H463.913V535.485H467.416V538.889H470.496V541.845H467.416V547.858C467.416 548.52 467.548 548.984 467.813 549.249C468.078 549.514 468.525 549.646 469.155 549.646H470.521ZM477.787 538.715C479.46 538.715 480.801 539.137 481.811 539.982C482.822 540.827 483.451 541.953 483.7 543.361H480.42C480.288 542.698 479.99 542.168 479.526 541.771C479.062 541.373 478.458 541.175 477.712 541.175C477.116 541.175 476.652 541.315 476.321 541.597C475.99 541.879 475.824 542.259 475.824 542.74C475.824 543.121 475.957 543.427 476.222 543.659C476.487 543.891 476.818 544.073 477.215 544.206C477.613 544.338 478.184 544.495 478.93 544.678C479.973 544.909 480.818 545.158 481.464 545.423C482.126 545.671 482.689 546.077 483.153 546.64C483.633 547.187 483.873 547.932 483.873 548.876C483.873 550.052 483.41 551.004 482.482 551.733C481.571 552.462 480.337 552.826 478.78 552.826C476.992 552.826 475.559 552.429 474.483 551.634C473.406 550.822 472.752 549.671 472.52 548.181H475.874C475.957 548.86 476.255 549.398 476.768 549.795C477.282 550.176 477.952 550.367 478.78 550.367C479.377 550.367 479.832 550.226 480.147 549.944C480.462 549.646 480.619 549.265 480.619 548.802C480.619 548.404 480.478 548.081 480.197 547.833C479.932 547.584 479.592 547.394 479.178 547.261C478.78 547.129 478.209 546.971 477.464 546.789C476.437 546.557 475.601 546.326 474.955 546.094C474.325 545.845 473.779 545.456 473.315 544.926C472.868 544.396 472.644 543.667 472.644 542.74C472.644 541.547 473.1 540.578 474.011 539.833C474.921 539.088 476.18 538.715 477.787 538.715Z" fill="white"/>
<path d="M308.586 673.802V340.896L595.297 507.675L308.586 673.802Z" fill="black" fill-opacity="0.4"/>
<path d="M308.586 673.802V340.896L595.297 507.675L308.586 673.802Z" stroke="#711F3C"/>
<path d="M303.875 677.26L309.875 680.724V673.796V340.889V333.974L303.881 337.422L15.0059 503.549L8.98816 507.01L15 510.481L303.875 677.26Z" fill="#D81D5B" stroke="white" stroke-width="8"/>
<g clip-path="url(#clip4_2638_111305)">
<g opacity="0.75">
<path d="M221.211 479.719H215.978V493.094H221.211V479.719Z" fill="white"/>
</g>
<g opacity="0.75">
<path d="M225.287 483.812H211.911V489.045H225.287V483.812Z" fill="white"/>
</g>
<path d="M218.519 472.379C206.99 472.379 197.622 481.425 197.715 492.51C197.716 492.511 197.717 492.512 197.718 492.514H199.76H202.943H208.639V487.28H203.888C206.078 481.644 211.81 477.613 218.519 477.613C225.228 477.613 230.96 481.644 233.15 487.28H228.411V492.514H234.095H238.075H239.32C239.321 492.512 239.322 492.511 239.323 492.51C239.416 481.425 230.047 472.379 218.519 472.379Z" fill="white"/>
<g opacity="0.75">
<path d="M218.692 477.613C211.588 477.613 205.808 472.057 205.808 465.228C205.808 458.399 211.588 452.843 218.692 452.843C225.796 452.843 231.576 458.399 231.576 465.228C231.576 472.057 225.796 477.613 218.692 477.613ZM218.692 458.077C214.473 458.077 211.042 461.285 211.042 465.228C211.042 469.171 214.473 472.379 218.692 472.379C222.91 472.379 226.342 469.171 226.342 465.228C226.342 461.285 222.91 458.077 218.692 458.077Z" fill="white"/>
</g>
</g>
<path d="M161.082 546.141V552.65H157.579V535.111H163.963C166.034 535.111 167.591 535.608 168.634 536.601C169.694 537.595 170.224 538.945 170.224 540.651C170.224 542.324 169.677 543.657 168.584 544.651C167.508 545.645 165.967 546.141 163.963 546.141H161.082ZM163.591 543.334C165.645 543.334 166.671 542.44 166.671 540.651C166.671 539.773 166.431 539.102 165.951 538.639C165.471 538.175 164.684 537.943 163.591 537.943H161.082V543.334H163.591ZM185.443 545.247C185.443 545.595 185.401 545.992 185.319 546.44H175.232C175.282 547.665 175.613 548.568 176.226 549.147C176.839 549.727 177.601 550.017 178.511 550.017C179.323 550.017 179.994 549.818 180.524 549.421C181.07 549.023 181.418 548.485 181.567 547.806H185.269C185.087 548.767 184.697 549.628 184.101 550.39C183.505 551.151 182.735 551.748 181.791 552.178C180.863 552.609 179.828 552.824 178.685 552.824C177.344 552.824 176.151 552.543 175.108 551.98C174.064 551.4 173.253 550.58 172.673 549.52C172.094 548.46 171.804 547.21 171.804 545.769C171.804 544.328 172.094 543.077 172.673 542.017C173.253 540.941 174.064 540.121 175.108 539.558C176.151 538.995 177.344 538.713 178.685 538.713C180.043 538.713 181.228 538.995 182.238 539.558C183.265 540.121 184.052 540.899 184.598 541.893C185.161 542.87 185.443 543.988 185.443 545.247ZM181.915 544.899C181.965 543.773 181.667 542.92 181.021 542.34C180.391 541.761 179.613 541.471 178.685 541.471C177.741 541.471 176.946 541.761 176.3 542.34C175.654 542.92 175.298 543.773 175.232 544.899H181.915ZM191.432 541.52C191.946 540.643 192.625 539.955 193.47 539.458C194.314 538.945 195.258 538.688 196.302 538.688V542.44H195.283C192.716 542.44 191.432 543.632 191.432 546.017V552.65H187.929V538.887H191.432V541.52ZM202.986 538.713C204.658 538.713 206 539.136 207.01 539.98C208.021 540.825 208.65 541.951 208.898 543.359H205.619C205.487 542.696 205.188 542.166 204.725 541.769C204.261 541.371 203.656 541.173 202.911 541.173C202.315 541.173 201.851 541.313 201.52 541.595C201.189 541.877 201.023 542.258 201.023 542.738C201.023 543.119 201.155 543.425 201.42 543.657C201.685 543.889 202.017 544.071 202.414 544.204C202.812 544.336 203.383 544.493 204.128 544.676C205.172 544.907 206.017 545.156 206.662 545.421C207.325 545.669 207.888 546.075 208.352 546.638C208.832 547.185 209.072 547.93 209.072 548.874C209.072 550.05 208.609 551.002 207.681 551.731C206.77 552.46 205.536 552.824 203.979 552.824C202.191 552.824 200.758 552.427 199.681 551.632C198.605 550.82 197.951 549.669 197.719 548.179H201.073C201.155 548.858 201.454 549.396 201.967 549.793C202.48 550.174 203.151 550.365 203.979 550.365C204.576 550.365 205.031 550.224 205.346 549.942C205.66 549.644 205.818 549.263 205.818 548.8C205.818 548.402 205.677 548.079 205.395 547.831C205.13 547.582 204.791 547.392 204.377 547.259C203.979 547.127 203.408 546.97 202.663 546.787C201.636 546.555 200.799 546.324 200.153 546.092C199.524 545.843 198.978 545.454 198.514 544.924C198.067 544.394 197.843 543.665 197.843 542.738C197.843 541.545 198.298 540.576 199.209 539.831C200.12 539.086 201.379 538.713 202.986 538.713ZM218.041 538.713C219.383 538.713 220.584 538.995 221.644 539.558C222.72 540.121 223.565 540.941 224.178 542.017C224.79 543.077 225.097 544.328 225.097 545.769C225.097 547.21 224.79 548.46 224.178 549.52C223.565 550.58 222.72 551.4 221.644 551.98C220.584 552.543 219.383 552.824 218.041 552.824C216.7 552.824 215.491 552.543 214.414 551.98C213.354 551.4 212.518 550.58 211.905 549.52C211.292 548.46 210.986 547.21 210.986 545.769C210.986 544.328 211.292 543.077 211.905 542.017C212.518 540.941 213.354 540.121 214.414 539.558C215.491 538.995 216.7 538.713 218.041 538.713ZM218.041 541.744C217.064 541.744 216.236 542.092 215.557 542.788C214.878 543.467 214.538 544.46 214.538 545.769C214.538 547.077 214.878 548.079 215.557 548.775C216.236 549.454 217.064 549.793 218.041 549.793C219.018 549.793 219.846 549.454 220.526 548.775C221.205 548.079 221.544 547.077 221.544 545.769C221.544 544.46 221.205 543.467 220.526 542.788C219.846 542.092 219.018 541.744 218.041 541.744ZM235.771 538.688C237.361 538.688 238.628 539.21 239.572 540.253C240.516 541.297 240.988 542.763 240.988 544.651V552.65H237.51V545.048C237.51 543.955 237.228 543.11 236.665 542.514C236.102 541.901 235.332 541.595 234.355 541.595C233.361 541.595 232.566 541.918 231.97 542.564C231.373 543.21 231.075 544.137 231.075 545.346V552.65H227.572V538.887H231.075V541.645C231.44 540.717 232.036 539.997 232.864 539.483C233.709 538.953 234.678 538.688 235.771 538.688ZM252.268 538.688C253.858 538.688 255.125 539.21 256.069 540.253C257.014 541.297 257.486 542.763 257.486 544.651V552.65H254.007V545.048C254.007 543.955 253.726 543.11 253.163 542.514C252.6 541.901 251.829 541.595 250.852 541.595C249.859 541.595 249.064 541.918 248.467 542.564C247.871 543.21 247.573 544.137 247.573 545.346V552.65H244.07V538.887H247.573V541.645C247.937 540.717 248.534 539.997 249.362 539.483C250.206 538.953 251.175 538.688 252.268 538.688ZM273.511 545.247C273.511 545.595 273.47 545.992 273.387 546.44H263.3C263.35 547.665 263.681 548.568 264.294 549.147C264.907 549.727 265.669 550.017 266.58 550.017C267.391 550.017 268.062 549.818 268.592 549.421C269.139 549.023 269.487 548.485 269.636 547.806H273.337C273.155 548.767 272.766 549.628 272.17 550.39C271.573 551.151 270.803 551.748 269.859 552.178C268.932 552.609 267.897 552.824 266.754 552.824C265.412 552.824 264.22 552.543 263.176 551.98C262.133 551.4 261.321 550.58 260.742 549.52C260.162 548.46 259.872 547.21 259.872 545.769C259.872 544.328 260.162 543.077 260.742 542.017C261.321 540.941 262.133 540.121 263.176 539.558C264.22 538.995 265.412 538.713 266.754 538.713C268.112 538.713 269.296 538.995 270.306 539.558C271.333 540.121 272.12 540.899 272.666 541.893C273.23 542.87 273.511 543.988 273.511 545.247ZM269.983 544.899C270.033 543.773 269.735 542.92 269.089 542.34C268.46 541.761 267.681 541.471 266.754 541.471C265.81 541.471 265.015 541.761 264.369 542.34C263.723 542.92 263.367 543.773 263.3 544.899H269.983ZM279.501 534.266V552.65H275.998V534.266H279.501Z" fill="white"/>
<defs>
<clipPath id="clip0_2638_111305">
<rect width="58.7363" height="60.4549" fill="white" transform="translate(354.969 121.032)"/>
</clipPath>
<clipPath id="clip1_2638_111305">
<rect width="41.6223" height="50.5967" fill="white" transform="translate(96.4736 278.743)"/>
</clipPath>
<clipPath id="clip2_2638_111305">
<rect width="52.63" height="57.7168" fill="white" transform="translate(187.224 122.38)"/>
</clipPath>
<clipPath id="clip3_2638_111305">
<rect width="45.9422" height="54.6654" fill="white" transform="translate(381.863 445.632)"/>
</clipPath>
<clipPath id="clip4_2638_111305">
<rect width="41.6102" height="40.2451" fill="white" transform="translate(197.712 452.855)"/>
</clipPath>
</defs>
</svg>
