<svg width="598" height="688" viewBox="0 0 598 688" fill="none" xmlns="http://www.w3.org/2000/svg">
<path d="M292.992 0.508789L584 169.942L583.999 508.379L292.992 677.81L0 508.379V171.219L292.992 0.508789Z" fill="#711F3C"/>
<path d="M294.586 338.103V5.19629L581.297 171.975L294.586 338.103Z" fill="#902F57"/>
<path d="M294.586 338.103V5.19629L581.297 171.975L294.586 338.103Z" stroke="#711F3C"/>
<path d="M581.297 504.4V174.858L296.6 339.674L581.297 504.4Z" fill="#A662A7"/>
<path d="M581.297 504.4V174.858L296.6 339.674L581.297 504.4Z" stroke="#711F3C"/>
<path d="M291.875 340.588V673.495L3 506.716L291.875 340.588Z" fill="#D81D5B"/>
<path d="M291.875 340.588V673.495L3 506.716L291.875 340.588Z" stroke="#711F3C"/>
<g clip-path="url(#clip0_2638_111304)">
<g opacity="0.75">
<path d="M207.211 479.418H201.978V492.794H207.211V479.418Z" fill="white"/>
</g>
<g opacity="0.75">
<path d="M211.287 483.511H197.911V488.745H211.287V483.511Z" fill="white"/>
</g>
<path d="M204.519 472.078C192.99 472.078 183.622 481.124 183.715 492.209C183.716 492.211 183.717 492.212 183.718 492.213H185.76H188.943H194.639V486.979H189.888C192.078 481.343 197.81 477.312 204.519 477.312C211.228 477.312 216.96 481.343 219.15 486.979H214.411V492.213H220.095H224.075H225.32C225.321 492.212 225.322 492.211 225.323 492.209C225.416 481.124 216.047 472.078 204.519 472.078Z" fill="white"/>
<g opacity="0.75">
<path d="M204.692 477.312C197.588 477.312 191.808 471.756 191.808 464.927C191.808 458.098 197.588 452.542 204.692 452.542C211.796 452.542 217.576 458.098 217.576 464.927C217.576 471.756 211.796 477.312 204.692 477.312ZM204.692 457.776C200.473 457.776 197.042 460.984 197.042 464.927C197.042 468.871 200.473 472.078 204.692 472.078C208.91 472.078 212.342 468.871 212.342 464.927C212.342 460.984 208.91 457.776 204.692 457.776Z" fill="white"/>
</g>
</g>
<path d="M147.082 545.841V552.35H143.579V534.81H149.963C152.034 534.81 153.591 535.307 154.634 536.301C155.694 537.294 156.224 538.644 156.224 540.35C156.224 542.023 155.677 543.356 154.584 544.35C153.508 545.344 151.967 545.841 149.963 545.841H147.082ZM149.591 543.033C151.645 543.033 152.671 542.139 152.671 540.35C152.671 539.472 152.431 538.802 151.951 538.338C151.471 537.874 150.684 537.642 149.591 537.642H147.082V543.033H149.591ZM171.443 544.946C171.443 545.294 171.401 545.692 171.319 546.139H161.232C161.282 547.364 161.613 548.267 162.226 548.847C162.839 549.426 163.601 549.716 164.511 549.716C165.323 549.716 165.994 549.517 166.524 549.12C167.07 548.722 167.418 548.184 167.567 547.505H171.269C171.087 548.466 170.697 549.327 170.101 550.089C169.505 550.851 168.735 551.447 167.791 551.878C166.863 552.308 165.828 552.524 164.685 552.524C163.344 552.524 162.151 552.242 161.108 551.679C160.064 551.099 159.253 550.279 158.673 549.219C158.094 548.159 157.804 546.909 157.804 545.468C157.804 544.027 158.094 542.777 158.673 541.717C159.253 540.64 160.064 539.82 161.108 539.257C162.151 538.694 163.344 538.412 164.685 538.412C166.043 538.412 167.228 538.694 168.238 539.257C169.265 539.82 170.052 540.599 170.598 541.592C171.161 542.57 171.443 543.687 171.443 544.946ZM167.915 544.598C167.965 543.472 167.667 542.619 167.021 542.04C166.391 541.46 165.613 541.17 164.685 541.17C163.741 541.17 162.946 541.46 162.3 542.04C161.654 542.619 161.298 543.472 161.232 544.598H167.915ZM177.432 541.22C177.946 540.342 178.625 539.655 179.47 539.158C180.314 538.644 181.258 538.388 182.302 538.388V542.139H181.283C178.716 542.139 177.432 543.331 177.432 545.716V552.35H173.929V538.586H177.432V541.22ZM188.986 538.412C190.658 538.412 192 538.835 193.01 539.679C194.021 540.524 194.65 541.65 194.898 543.058H191.619C191.487 542.396 191.188 541.866 190.725 541.468C190.261 541.071 189.656 540.872 188.911 540.872C188.315 540.872 187.851 541.013 187.52 541.294C187.189 541.576 187.023 541.957 187.023 542.437C187.023 542.818 187.155 543.124 187.42 543.356C187.685 543.588 188.017 543.77 188.414 543.903C188.812 544.035 189.383 544.193 190.128 544.375C191.172 544.607 192.017 544.855 192.662 545.12C193.325 545.369 193.888 545.774 194.352 546.337C194.832 546.884 195.072 547.629 195.072 548.573C195.072 549.749 194.609 550.702 193.681 551.43C192.77 552.159 191.536 552.524 189.979 552.524C188.191 552.524 186.758 552.126 185.681 551.331C184.605 550.519 183.951 549.368 183.719 547.878H187.073C187.155 548.557 187.454 549.095 187.967 549.493C188.48 549.874 189.151 550.064 189.979 550.064C190.576 550.064 191.031 549.923 191.346 549.642C191.66 549.344 191.818 548.963 191.818 548.499C191.818 548.101 191.677 547.778 191.395 547.53C191.13 547.282 190.791 547.091 190.377 546.959C189.979 546.826 189.408 546.669 188.663 546.487C187.636 546.255 186.799 546.023 186.153 545.791C185.524 545.542 184.978 545.153 184.514 544.623C184.067 544.093 183.843 543.365 183.843 542.437C183.843 541.245 184.298 540.276 185.209 539.53C186.12 538.785 187.379 538.412 188.986 538.412ZM204.041 538.412C205.383 538.412 206.584 538.694 207.644 539.257C208.72 539.82 209.565 540.64 210.178 541.717C210.79 542.777 211.097 544.027 211.097 545.468C211.097 546.909 210.79 548.159 210.178 549.219C209.565 550.279 208.72 551.099 207.644 551.679C206.584 552.242 205.383 552.524 204.041 552.524C202.7 552.524 201.491 552.242 200.414 551.679C199.354 551.099 198.518 550.279 197.905 549.219C197.292 548.159 196.986 546.909 196.986 545.468C196.986 544.027 197.292 542.777 197.905 541.717C198.518 540.64 199.354 539.82 200.414 539.257C201.491 538.694 202.7 538.412 204.041 538.412ZM204.041 541.443C203.064 541.443 202.236 541.791 201.557 542.487C200.878 543.166 200.538 544.16 200.538 545.468C200.538 546.776 200.878 547.778 201.557 548.474C202.236 549.153 203.064 549.493 204.041 549.493C205.018 549.493 205.846 549.153 206.526 548.474C207.205 547.778 207.544 546.776 207.544 545.468C207.544 544.16 207.205 543.166 206.526 542.487C205.846 541.791 205.018 541.443 204.041 541.443ZM221.771 538.388C223.361 538.388 224.628 538.909 225.572 539.953C226.516 540.996 226.988 542.462 226.988 544.35V552.35H223.51V544.747C223.51 543.654 223.228 542.81 222.665 542.213C222.102 541.601 221.332 541.294 220.355 541.294C219.361 541.294 218.566 541.617 217.97 542.263C217.373 542.909 217.075 543.837 217.075 545.046V552.35H213.572V538.586H217.075V541.344C217.44 540.416 218.036 539.696 218.864 539.183C219.709 538.653 220.678 538.388 221.771 538.388ZM238.268 538.388C239.858 538.388 241.125 538.909 242.069 539.953C243.014 540.996 243.486 542.462 243.486 544.35V552.35H240.007V544.747C240.007 543.654 239.726 542.81 239.163 542.213C238.6 541.601 237.829 541.294 236.852 541.294C235.859 541.294 235.064 541.617 234.467 542.263C233.871 542.909 233.573 543.837 233.573 545.046V552.35H230.07V538.586H233.573V541.344C233.937 540.416 234.534 539.696 235.362 539.183C236.206 538.653 237.175 538.388 238.268 538.388ZM259.511 544.946C259.511 545.294 259.47 545.692 259.387 546.139H249.3C249.35 547.364 249.681 548.267 250.294 548.847C250.907 549.426 251.669 549.716 252.58 549.716C253.391 549.716 254.062 549.517 254.592 549.12C255.139 548.722 255.487 548.184 255.636 547.505H259.337C259.155 548.466 258.766 549.327 258.17 550.089C257.573 550.851 256.803 551.447 255.859 551.878C254.932 552.308 253.897 552.524 252.754 552.524C251.412 552.524 250.22 552.242 249.176 551.679C248.133 551.099 247.321 550.279 246.742 549.219C246.162 548.159 245.872 546.909 245.872 545.468C245.872 544.027 246.162 542.777 246.742 541.717C247.321 540.64 248.133 539.82 249.176 539.257C250.22 538.694 251.412 538.412 252.754 538.412C254.112 538.412 255.296 538.694 256.306 539.257C257.333 539.82 258.12 540.599 258.666 541.592C259.23 542.57 259.511 543.687 259.511 544.946ZM255.983 544.598C256.033 543.472 255.735 542.619 255.089 542.04C254.46 541.46 253.681 541.17 252.754 541.17C251.81 541.17 251.015 541.46 250.369 542.04C249.723 542.619 249.367 543.472 249.3 544.598H255.983ZM265.501 533.965V552.35H261.998V533.965H265.501Z" fill="white"/>
<g opacity="0.85">
<path d="M485.444 306.839C475.823 306.839 467.994 314.344 467.961 323.581H470.304H473.187H482.545L482.555 318.347H474.559C476.599 314.627 480.706 312.073 485.444 312.073C490.181 312.073 494.289 314.627 496.328 318.347H488.361L488.35 323.581H497.7H498.17H502.926C502.893 314.344 495.064 306.839 485.444 306.839Z" fill="white"/>
</g>
<g opacity="0.75">
<path d="M486.063 312.069C479.992 312.069 475.053 307.313 475.053 301.467C475.053 295.621 479.992 290.865 486.063 290.865C492.134 290.865 497.073 295.621 497.073 301.467C497.073 307.313 492.134 312.069 486.063 312.069ZM486.063 296.099C482.878 296.099 480.287 298.507 480.287 301.467C480.287 304.427 482.878 306.835 486.063 306.835C489.248 306.835 491.839 304.427 491.839 301.467C491.839 298.507 489.248 296.099 486.063 296.099Z" fill="white"/>
</g>
<path d="M459.868 303.44C448.339 303.44 438.971 312.487 439.063 323.572C439.065 323.573 439.065 323.574 439.067 323.575H441.109H444.292H456.966L456.976 318.341H445.237C447.426 312.706 453.159 308.674 459.868 308.674C466.577 308.674 472.309 312.706 474.498 318.341H462.782L462.771 323.575H475.443H479.424H480.668C480.67 323.574 480.671 323.573 480.672 323.572C480.764 312.487 471.396 303.44 459.868 303.44Z" fill="white"/>
<g opacity="0.75">
<path d="M460.035 308.673C452.93 308.673 447.15 303.117 447.15 296.288C447.15 289.458 452.93 283.902 460.035 283.902C467.139 283.902 472.919 289.458 472.919 296.287C472.919 303.117 467.139 308.673 460.035 308.673ZM460.035 289.136C455.816 289.136 452.384 292.344 452.384 296.288C452.384 300.231 455.816 303.439 460.035 303.439C464.253 303.439 467.685 300.231 467.685 296.288C467.685 292.344 464.253 289.136 460.035 289.136Z" fill="white"/>
</g>
<path d="M424.328 376.899V383.408H420.825V365.869H427.21C429.28 365.869 430.837 366.366 431.88 367.359C432.94 368.353 433.47 369.703 433.47 371.409C433.47 373.082 432.924 374.415 431.831 375.409C430.754 376.402 429.214 376.899 427.21 376.899H424.328ZM426.837 374.092C428.891 374.092 429.918 373.198 429.918 371.409C429.918 370.531 429.678 369.86 429.197 369.396C428.717 368.933 427.93 368.701 426.837 368.701H424.328V374.092H426.837ZM441.137 369.471C442.296 369.471 443.29 369.744 444.118 370.291C444.946 370.837 445.534 371.574 445.882 372.502V369.645H449.36V383.408H445.882V380.526C445.534 381.454 444.946 382.199 444.118 382.762C443.29 383.309 442.296 383.582 441.137 383.582C439.977 383.582 438.934 383.301 438.007 382.737C437.079 382.174 436.35 381.363 435.82 380.303C435.307 379.226 435.05 377.967 435.05 376.527C435.05 375.086 435.307 373.835 435.82 372.775C436.35 371.699 437.079 370.879 438.007 370.316C438.934 369.753 439.977 369.471 441.137 369.471ZM442.23 372.527C441.137 372.527 440.259 372.883 439.597 373.595C438.934 374.307 438.603 375.284 438.603 376.527C438.603 377.769 438.934 378.746 439.597 379.458C440.259 380.154 441.137 380.502 442.23 380.502C443.29 380.502 444.159 380.145 444.839 379.433C445.534 378.704 445.882 377.736 445.882 376.527C445.882 375.301 445.534 374.332 444.839 373.62C444.159 372.891 443.29 372.527 442.23 372.527ZM459.888 380.402V383.408H458.05C456.51 383.408 455.325 383.036 454.497 382.29C453.686 381.545 453.28 380.303 453.28 378.564V372.601H451.367V369.645H453.28V366.241H456.783V369.645H459.863V372.601H456.783V378.613C456.783 379.276 456.915 379.74 457.18 380.005C457.445 380.27 457.892 380.402 458.522 380.402H459.888ZM462.011 365.695C462.011 365.132 462.21 364.676 462.608 364.328C463.005 363.964 463.527 363.782 464.173 363.782C464.819 363.782 465.34 363.964 465.738 364.328C466.135 364.676 466.334 365.132 466.334 365.695C466.334 366.241 466.135 366.697 465.738 367.061C465.34 367.409 464.819 367.583 464.173 367.583C463.527 367.583 463.005 367.409 462.608 367.061C462.21 366.697 462.011 366.241 462.011 365.695ZM465.912 369.645V383.408H462.409V369.645H465.912ZM482.024 376.005C482.024 376.353 481.983 376.75 481.9 377.197H471.814C471.863 378.423 472.194 379.326 472.807 379.905C473.42 380.485 474.182 380.775 475.093 380.775C475.904 380.775 476.575 380.576 477.105 380.179C477.652 379.781 478 379.243 478.149 378.564H481.85C481.668 379.524 481.279 380.386 480.683 381.147C480.086 381.909 479.316 382.506 478.372 382.936C477.445 383.367 476.41 383.582 475.267 383.582C473.925 383.582 472.733 383.301 471.689 382.737C470.646 382.158 469.834 381.338 469.255 380.278C468.675 379.218 468.385 377.967 468.385 376.527C468.385 375.086 468.675 373.835 469.255 372.775C469.834 371.699 470.646 370.879 471.689 370.316C472.733 369.753 473.925 369.471 475.267 369.471C476.625 369.471 477.809 369.753 478.819 370.316C479.846 370.879 480.633 371.657 481.18 372.651C481.743 373.628 482.024 374.746 482.024 376.005ZM478.496 375.657C478.546 374.531 478.248 373.678 477.602 373.098C476.973 372.518 476.194 372.229 475.267 372.229C474.323 372.229 473.528 372.518 472.882 373.098C472.236 373.678 471.88 374.531 471.814 375.657H478.496ZM492.709 369.446C494.299 369.446 495.566 369.968 496.51 371.011C497.454 372.055 497.926 373.52 497.926 375.409V383.408H494.448V375.806C494.448 374.713 494.167 373.868 493.604 373.272C493.041 372.659 492.27 372.353 491.293 372.353C490.299 372.353 489.504 372.676 488.908 373.322C488.312 373.968 488.014 374.895 488.014 376.104V383.408H484.511V369.645H488.014V372.403C488.378 371.475 488.974 370.755 489.803 370.241C490.647 369.711 491.616 369.446 492.709 369.446ZM508.362 380.402V383.408H506.524C504.984 383.408 503.799 383.036 502.971 382.29C502.16 381.545 501.754 380.303 501.754 378.564V372.601H499.841V369.645H501.754V366.241H505.257V369.645H508.337V372.601H505.257V378.613C505.257 379.276 505.389 379.74 505.654 380.005C505.919 380.27 506.366 380.402 506.996 380.402H508.362ZM515.628 369.471C517.301 369.471 518.642 369.893 519.653 370.738C520.663 371.583 521.292 372.709 521.541 374.117H518.261C518.129 373.454 517.831 372.924 517.367 372.527C516.903 372.129 516.299 371.93 515.553 371.93C514.957 371.93 514.493 372.071 514.162 372.353C513.831 372.634 513.665 373.015 513.665 373.496C513.665 373.877 513.798 374.183 514.063 374.415C514.328 374.647 514.659 374.829 515.057 374.961C515.454 375.094 516.025 375.251 516.771 375.433C517.814 375.665 518.659 375.914 519.305 376.179C519.967 376.427 520.53 376.833 520.994 377.396C521.475 377.943 521.715 378.688 521.715 379.632C521.715 380.808 521.251 381.76 520.323 382.489C519.412 383.218 518.179 383.582 516.622 383.582C514.833 383.582 513.4 383.185 512.324 382.39C511.247 381.578 510.593 380.427 510.361 378.936H513.715C513.798 379.615 514.096 380.154 514.609 380.551C515.123 380.932 515.794 381.123 516.622 381.123C517.218 381.123 517.673 380.982 517.988 380.7C518.303 380.402 518.46 380.021 518.46 379.557C518.46 379.16 518.319 378.837 518.038 378.589C517.773 378.34 517.433 378.15 517.019 378.017C516.622 377.885 516.05 377.727 515.305 377.545C514.278 377.313 513.442 377.081 512.796 376.85C512.166 376.601 511.62 376.212 511.156 375.682C510.709 375.152 510.485 374.423 510.485 373.496C510.485 372.303 510.941 371.334 511.852 370.589C512.763 369.844 514.021 369.471 515.628 369.471Z" fill="white"/>
<g clip-path="url(#clip1_2638_111304)">
<path d="M374.179 151.825L394.482 141.489V163.756L374.128 173.8L374.179 151.825ZM348.54 136.853L371.22 126.385L391.999 136.868L371.571 147.268L348.54 136.853ZM371.053 120.738L340.979 134.9L341.033 148.887L346.213 151.465L346.173 141.026L368.894 151.881L368.841 174.146L346.213 162.412L346.196 157.982L340.979 155.386L341.019 165.643L371.006 181.193L399.716 167.025V134.933L371.053 120.738Z" fill="white"/>
<g opacity="0.75">
<path d="M389.819 171.956L381.096 176.118L380.986 167.562L389.819 163.165V171.956Z" fill="white"/>
</g>
<g opacity="0.75">
<path d="M350.284 130.434L360.177 125.781L389.829 140.455L389.838 149.809L381.106 153.626V145.374L350.284 130.434Z" fill="white"/>
</g>
</g>
<path d="M325.456 225.826C325.456 226.721 325.232 227.549 324.785 228.311C324.338 229.056 323.676 229.66 322.798 230.124C321.92 230.571 320.852 230.795 319.593 230.795C318.351 230.795 317.241 230.588 316.264 230.174C315.287 229.743 314.5 229.13 313.904 228.335C313.324 227.54 312.993 226.613 312.91 225.553H316.637C316.719 226.265 317.001 226.861 317.481 227.342C317.978 227.805 318.632 228.037 319.444 228.037C320.173 228.037 320.728 227.847 321.108 227.466C321.506 227.068 321.705 226.563 321.705 225.951C321.705 225.404 321.547 224.957 321.233 224.609C320.918 224.245 320.52 223.955 320.04 223.739C319.56 223.524 318.897 223.276 318.053 222.994C316.96 222.63 316.065 222.274 315.37 221.926C314.674 221.561 314.078 221.04 313.581 220.361C313.101 219.682 312.86 218.796 312.86 217.702C312.86 216.195 313.399 215.011 314.475 214.15C315.568 213.272 317.009 212.833 318.798 212.833C320.653 212.833 322.127 213.28 323.22 214.175C324.33 215.069 324.959 216.262 325.108 217.752H321.332C321.233 217.123 320.968 216.609 320.537 216.212C320.106 215.798 319.518 215.591 318.773 215.591C318.127 215.591 317.606 215.765 317.208 216.112C316.811 216.444 316.612 216.932 316.612 217.578C316.612 218.092 316.761 218.522 317.059 218.87C317.374 219.201 317.763 219.475 318.227 219.69C318.707 219.905 319.353 220.145 320.164 220.41C321.291 220.808 322.202 221.181 322.897 221.528C323.609 221.876 324.214 222.398 324.711 223.094C325.208 223.789 325.456 224.7 325.456 225.826ZM341.204 216.858V230.621H337.701V227.839C337.336 228.766 336.732 229.495 335.887 230.025C335.059 230.538 334.098 230.795 333.005 230.795C331.415 230.795 330.148 230.273 329.204 229.23C328.26 228.186 327.788 226.729 327.788 224.857V216.858H331.266V224.46C331.266 225.553 331.548 226.406 332.111 227.019C332.674 227.615 333.436 227.913 334.396 227.913C335.407 227.913 336.21 227.59 336.806 226.944C337.402 226.298 337.701 225.371 337.701 224.162V216.858H341.204ZM352.612 216.684C353.771 216.684 354.815 216.965 355.742 217.529C356.67 218.092 357.39 218.912 357.903 219.988C358.433 221.048 358.698 222.299 358.698 223.739C358.698 225.18 358.433 226.439 357.903 227.516C357.39 228.576 356.67 229.387 355.742 229.95C354.815 230.513 353.771 230.795 352.612 230.795C351.452 230.795 350.459 230.522 349.631 229.975C348.819 229.412 348.239 228.667 347.892 227.739V237.18H344.389V216.858H347.892V219.715C348.239 218.787 348.819 218.05 349.631 217.504C350.459 216.957 351.452 216.684 352.612 216.684ZM351.519 219.74C350.459 219.74 349.581 220.104 348.885 220.833C348.206 221.545 347.867 222.514 347.867 223.739C347.867 224.948 348.206 225.917 348.885 226.646C349.581 227.358 350.459 227.714 351.519 227.714C352.612 227.714 353.49 227.367 354.152 226.671C354.815 225.959 355.146 224.982 355.146 223.739C355.146 222.497 354.815 221.52 354.152 220.808C353.49 220.096 352.612 219.74 351.519 219.74ZM369.401 216.684C370.56 216.684 371.603 216.965 372.531 217.529C373.458 218.092 374.179 218.912 374.692 219.988C375.222 221.048 375.487 222.299 375.487 223.739C375.487 225.18 375.222 226.439 374.692 227.516C374.179 228.576 373.458 229.387 372.531 229.95C371.603 230.513 370.56 230.795 369.401 230.795C368.241 230.795 367.247 230.522 366.419 229.975C365.608 229.412 365.028 228.667 364.68 227.739V237.18H361.177V216.858H364.68V219.715C365.028 218.787 365.608 218.05 366.419 217.504C367.247 216.957 368.241 216.684 369.401 216.684ZM368.307 219.74C367.247 219.74 366.37 220.104 365.674 220.833C364.995 221.545 364.655 222.514 364.655 223.739C364.655 224.948 364.995 225.917 365.674 226.646C366.37 227.358 367.247 227.714 368.307 227.714C369.401 227.714 370.278 227.367 370.941 226.671C371.603 225.959 371.935 224.982 371.935 223.739C371.935 222.497 371.603 221.52 370.941 220.808C370.278 220.096 369.401 219.74 368.307 219.74ZM381.469 212.237V230.621H377.966V212.237H381.469ZM384.241 212.908C384.241 212.345 384.439 211.889 384.837 211.541C385.234 211.177 385.756 210.995 386.402 210.995C387.048 210.995 387.57 211.177 387.967 211.541C388.365 211.889 388.563 212.345 388.563 212.908C388.563 213.454 388.365 213.91 387.967 214.274C387.57 214.622 387.048 214.796 386.402 214.796C385.756 214.796 385.234 214.622 384.837 214.274C384.439 213.91 384.241 213.454 384.241 212.908ZM388.141 216.858V230.621H384.638V216.858H388.141ZM404.253 223.218C404.253 223.566 404.212 223.963 404.129 224.41H394.043C394.092 225.636 394.424 226.538 395.036 227.118C395.649 227.698 396.411 227.988 397.322 227.988C398.134 227.988 398.804 227.789 399.334 227.391C399.881 226.994 400.229 226.456 400.378 225.777H404.079C403.897 226.737 403.508 227.598 402.912 228.36C402.316 229.122 401.545 229.718 400.601 230.149C399.674 230.58 398.639 230.795 397.496 230.795C396.154 230.795 394.962 230.513 393.918 229.95C392.875 229.371 392.063 228.551 391.484 227.491C390.904 226.431 390.614 225.18 390.614 223.739C390.614 222.299 390.904 221.048 391.484 219.988C392.063 218.912 392.875 218.092 393.918 217.529C394.962 216.965 396.154 216.684 397.496 216.684C398.854 216.684 400.038 216.965 401.049 217.529C402.075 218.092 402.862 218.87 403.409 219.864C403.972 220.841 404.253 221.959 404.253 223.218ZM400.726 222.87C400.775 221.744 400.477 220.891 399.831 220.311C399.202 219.731 398.423 219.442 397.496 219.442C396.552 219.442 395.757 219.731 395.111 220.311C394.465 220.891 394.109 221.744 394.043 222.87H400.726ZM410.243 219.491C410.756 218.613 411.435 217.926 412.28 217.429C413.125 216.916 414.069 216.659 415.112 216.659V220.41H414.094C411.527 220.41 410.243 221.603 410.243 223.988V230.621H406.74V216.858H410.243V219.491ZM421.796 216.684C423.469 216.684 424.81 217.106 425.821 217.951C426.831 218.796 427.46 219.922 427.709 221.33H424.43C424.297 220.667 423.999 220.137 423.535 219.74C423.071 219.342 422.467 219.143 421.722 219.143C421.125 219.143 420.662 219.284 420.33 219.566C419.999 219.847 419.834 220.228 419.834 220.709C419.834 221.089 419.966 221.396 420.231 221.628C420.496 221.86 420.827 222.042 421.225 222.174C421.622 222.307 422.194 222.464 422.939 222.646C423.982 222.878 424.827 223.127 425.473 223.392C426.135 223.64 426.699 224.046 427.162 224.609C427.643 225.156 427.883 225.901 427.883 226.845C427.883 228.021 427.419 228.973 426.492 229.702C425.581 230.431 424.347 230.795 422.79 230.795C421.001 230.795 419.569 230.398 418.492 229.603C417.415 228.791 416.761 227.64 416.529 226.149H419.883C419.966 226.828 420.264 227.367 420.778 227.764C421.291 228.145 421.962 228.335 422.79 228.335C423.386 228.335 423.842 228.195 424.156 227.913C424.471 227.615 424.628 227.234 424.628 226.77C424.628 226.373 424.488 226.05 424.206 225.801C423.941 225.553 423.601 225.363 423.187 225.23C422.79 225.098 422.218 224.94 421.473 224.758C420.446 224.526 419.61 224.294 418.964 224.062C418.335 223.814 417.788 223.425 417.324 222.895C416.877 222.365 416.654 221.636 416.654 220.709C416.654 219.516 417.109 218.547 418.02 217.802C418.931 217.057 420.19 216.684 421.796 216.684Z" fill="white"/>
<path d="M294.586 338.103V5.19629L581.297 171.975L294.586 338.103Z" fill="black" fill-opacity="0.4"/>
<path d="M294.586 338.103V5.19629L581.297 171.975L294.586 338.103Z" stroke="#711F3C"/>
<path d="M581.297 504.4V174.858L296.6 339.674L581.297 504.4Z" fill="black" fill-opacity="0.4"/>
<path d="M581.297 504.4V174.858L296.6 339.674L581.297 504.4Z" stroke="#711F3C"/>
<path d="M291.875 340.588V673.495L3 506.716L291.875 340.588Z" fill="black" fill-opacity="0.4"/>
<path d="M291.875 340.588V673.495L3 506.716L291.875 340.588Z" stroke="#711F3C"/>
<path d="M2.67188 505.411V172.927L289.502 339.494L2.67188 505.411Z" fill="#D81D5B"/>
<path d="M2.67188 505.411V172.927L289.502 339.494L2.67188 505.411Z" stroke="white"/>
<path d="M2.67188 505.41V172.926L289.502 339.493L2.67188 505.41Z" fill="black" fill-opacity="0.4"/>
<path d="M2.67188 505.41V172.926L289.502 339.493L2.67188 505.41Z" stroke="#711F3C"/>
<g opacity="0.5">
<g clip-path="url(#clip2_2638_111304)">
<g opacity="0.75">
<path d="M106.417 285.92H101.183V301.622H106.417V285.92Z" fill="white"/>
</g>
<g opacity="0.75">
<path d="M111.643 291.162H95.9414V296.396H111.643V291.162Z" fill="white"/>
</g>
<path d="M93.4791 329.048C93.2122 329.048 92.9443 329.034 92.6758 329.005C89.8566 328.708 87.3559 326.904 85.8137 324.054C82.6484 318.205 79.4865 292.314 87.6466 283.977C90.9905 280.561 95.9399 278.495 100.887 278.451L100.931 283.685C97.3484 283.717 93.6433 285.247 91.2618 287.678C88.71 290.282 87.3769 296.631 87.6055 305.098C87.8174 312.96 89.2997 319.676 90.2882 321.501C91.0193 322.851 92.0533 323.66 93.2006 323.781C94.0687 323.87 94.8825 323.551 95.4322 322.9C96.4291 321.718 96.3664 319.274 96.3065 316.911C96.2294 313.895 96.1495 310.776 98.0539 308.479C99.4152 306.838 101.333 305.894 103.316 305.892H103.324C105.235 305.892 107.022 306.773 108.356 308.373C110.36 310.777 110.416 314.067 110.465 316.97C110.506 319.382 110.544 321.659 111.572 322.804C112.121 323.415 113.026 323.77 113.904 323.734C114.478 323.71 115.295 323.506 115.925 322.676C118.073 319.847 121.837 298.945 115.534 288.634C113.586 285.449 109.324 283.787 106.121 283.793L106.112 278.559H106.138C110.757 278.559 116.788 280.815 119.871 285.863C126.999 297.535 123.745 320.92 119.966 325.903C118.536 327.789 116.458 328.882 114.116 328.981C111.72 329.081 109.365 328.102 107.803 326.361C105.466 323.756 105.406 320.21 105.353 317.083C105.317 314.954 105.28 312.752 104.462 311.771C104.101 311.337 103.728 311.126 103.325 311.126H103.323C102.851 311.126 102.341 311.403 101.957 311.867C101.311 312.646 101.367 314.851 101.417 316.797C101.498 319.997 101.591 323.625 99.3071 326.336C97.8482 328.067 95.7141 329.048 93.4791 329.048Z" fill="white"/>
</g>
<path d="M68.6746 374.614C68.6746 376.353 68.3102 377.885 67.5815 379.21C66.8527 380.535 65.7928 381.57 64.4015 382.315C63.0268 383.044 61.3872 383.408 59.4825 383.408H53.2468V365.869H59.4825C61.3872 365.869 63.0268 366.233 64.4015 366.962C65.7928 367.674 66.8527 368.693 67.5815 370.018C68.3102 371.326 68.6746 372.858 68.6746 374.614ZM59.1844 380.278C61.0725 380.278 62.53 379.781 63.5568 378.787C64.6003 377.794 65.122 376.402 65.122 374.614C65.122 372.808 64.6003 371.409 63.5568 370.415C62.53 369.421 61.0725 368.924 59.1844 368.924H56.7497V380.278H59.1844ZM84.2406 376.005C84.2406 376.353 84.1992 376.75 84.1164 377.197H74.0299C74.0796 378.423 74.4109 379.326 75.0237 379.905C75.6365 380.485 76.3984 380.775 77.3093 380.775C78.1208 380.775 78.7916 380.576 79.3216 380.179C79.8682 379.781 80.216 379.243 80.365 378.564H84.0667C83.8845 379.524 83.4953 380.386 82.8991 381.147C82.3028 381.909 81.5327 382.506 80.5886 382.936C79.6611 383.367 78.626 383.582 77.4832 383.582C76.1416 383.582 74.9492 383.301 73.9057 382.737C72.8623 382.158 72.0507 381.338 71.4711 380.278C70.8914 379.218 70.6015 377.967 70.6015 376.527C70.6015 375.086 70.8914 373.835 71.4711 372.775C72.0507 371.699 72.8623 370.879 73.9057 370.316C74.9492 369.753 76.1416 369.471 77.4832 369.471C78.8413 369.471 80.0255 369.753 81.0358 370.316C82.0627 370.879 82.8494 371.657 83.3959 372.651C83.9591 373.628 84.2406 374.746 84.2406 376.005ZM80.7128 375.657C80.7625 374.531 80.4644 373.678 79.8185 373.098C79.1891 372.518 78.4107 372.229 77.4832 372.229C76.5391 372.229 75.7441 372.518 75.0982 373.098C74.4523 373.678 74.0962 374.531 74.0299 375.657H80.7128ZM94.9257 369.446C96.5157 369.446 97.7827 369.968 98.7267 371.011C99.6708 372.055 100.143 373.52 100.143 375.409V383.408H96.6647V375.806C96.6647 374.713 96.3832 373.868 95.82 373.272C95.2569 372.659 94.4868 372.353 93.5096 372.353C92.5159 372.353 91.7209 372.676 91.1246 373.322C90.5284 373.968 90.2302 374.895 90.2302 376.104V383.408H86.7273V369.645H90.2302V372.403C90.5946 371.475 91.1909 370.755 92.019 370.241C92.8637 369.711 93.8326 369.446 94.9257 369.446ZM110.579 380.402V383.408H108.74C107.2 383.408 106.016 383.036 105.188 382.29C104.376 381.545 103.97 380.303 103.97 378.564V372.601H102.057V369.645H103.97V366.241H107.473V369.645H110.554V372.601H107.473V378.613C107.473 379.276 107.606 379.74 107.871 380.005C108.136 380.27 108.583 380.402 109.212 380.402H110.579ZM112.702 365.695C112.702 365.132 112.901 364.676 113.298 364.328C113.696 363.964 114.217 363.782 114.863 363.782C115.509 363.782 116.031 363.964 116.428 364.328C116.826 364.676 117.025 365.132 117.025 365.695C117.025 366.241 116.826 366.697 116.428 367.061C116.031 367.409 115.509 367.583 114.863 367.583C114.217 367.583 113.696 367.409 113.298 367.061C112.901 366.697 112.702 366.241 112.702 365.695ZM116.602 369.645V383.408H113.099V369.645H116.602ZM124.516 369.471C126.189 369.471 127.531 369.893 128.541 370.738C129.551 371.583 130.181 372.709 130.429 374.117H127.15C127.017 373.454 126.719 372.924 126.255 372.527C125.792 372.129 125.187 371.93 124.442 371.93C123.845 371.93 123.382 372.071 123.05 372.353C122.719 372.634 122.554 373.015 122.554 373.496C122.554 373.877 122.686 374.183 122.951 374.415C123.216 374.647 123.547 374.829 123.945 374.961C124.342 375.094 124.914 375.251 125.659 375.433C126.702 375.665 127.547 375.914 128.193 376.179C128.856 376.427 129.419 376.833 129.882 377.396C130.363 377.943 130.603 378.688 130.603 379.632C130.603 380.808 130.139 381.76 129.212 382.489C128.301 383.218 127.067 383.582 125.51 383.582C123.721 383.582 122.289 383.185 121.212 382.39C120.136 381.578 119.481 380.427 119.249 378.936H122.603C122.686 379.615 122.984 380.154 123.498 380.551C124.011 380.932 124.682 381.123 125.51 381.123C126.106 381.123 126.562 380.982 126.876 380.7C127.191 380.402 127.348 380.021 127.348 379.557C127.348 379.16 127.208 378.837 126.926 378.589C126.661 378.34 126.322 378.15 125.907 378.017C125.51 377.885 124.939 377.727 124.193 377.545C123.166 377.313 122.33 377.081 121.684 376.85C121.055 376.601 120.508 376.212 120.044 375.682C119.597 375.152 119.374 374.423 119.374 373.496C119.374 372.303 119.829 371.334 120.74 370.589C121.651 369.844 122.91 369.471 124.516 369.471ZM140.566 380.402V383.408H138.727C137.187 383.408 136.003 383.036 135.175 382.29C134.363 381.545 133.957 380.303 133.957 378.564V372.601H132.044V369.645H133.957V366.241H137.46V369.645H140.541V372.601H137.46V378.613C137.46 379.276 137.593 379.74 137.858 380.005C138.123 380.27 138.57 380.402 139.199 380.402H140.566ZM147.831 369.471C149.504 369.471 150.846 369.893 151.856 370.738C152.866 371.583 153.496 372.709 153.744 374.117H150.465C150.332 373.454 150.034 372.924 149.57 372.527C149.107 372.129 148.502 371.93 147.757 371.93C147.161 371.93 146.697 372.071 146.366 372.353C146.034 372.634 145.869 373.015 145.869 373.496C145.869 373.877 146.001 374.183 146.266 374.415C146.531 374.647 146.862 374.829 147.26 374.961C147.657 375.094 148.229 375.251 148.974 375.433C150.018 375.665 150.862 375.914 151.508 376.179C152.171 376.427 152.734 376.833 153.198 377.396C153.678 377.943 153.918 378.688 153.918 379.632C153.918 380.808 153.454 381.76 152.527 382.489C151.616 383.218 150.382 383.582 148.825 383.582C147.036 383.582 145.604 383.185 144.527 382.39C143.451 381.578 142.796 380.427 142.564 378.936H145.918C146.001 379.615 146.299 380.154 146.813 380.551C147.326 380.932 147.997 381.123 148.825 381.123C149.421 381.123 149.877 380.982 150.191 380.7C150.506 380.402 150.663 380.021 150.663 379.557C150.663 379.16 150.523 378.837 150.241 378.589C149.976 378.34 149.637 378.15 149.223 378.017C148.825 377.885 148.254 377.727 147.508 377.545C146.481 377.313 145.645 377.081 144.999 376.85C144.37 376.601 143.823 376.212 143.359 375.682C142.912 375.152 142.689 374.423 142.689 373.496C142.689 372.303 143.144 371.334 144.055 370.589C144.966 369.844 146.225 369.471 147.831 369.471Z" fill="white"/>
</g>
<path d="M291.875 5.19086V338.098L5.16434 171.319L291.875 5.19086Z" fill="#D81D5B"/>
<path d="M291.875 5.19086V338.098L5.16434 171.319L291.875 5.19086Z" stroke="white"/>
<g clip-path="url(#clip3_2638_111304)">
<path d="M200.699 130.231H199.536C197.297 130.231 195.465 128.4 195.465 126.161C195.465 123.922 197.297 122.09 199.536 122.09H200.699C202.938 122.09 204.77 123.922 204.77 126.161C204.77 128.4 202.938 130.231 200.699 130.231Z" fill="white"/>
<path d="M185.58 130.231H184.417C182.178 130.231 180.346 128.4 180.346 126.161C180.346 123.922 182.178 122.09 184.417 122.09H185.58C187.819 122.09 189.65 123.922 189.65 126.161C189.65 128.4 187.819 130.231 185.58 130.231Z" fill="white"/>
<g opacity="0.95">
<path d="M214.033 179.811H197.132C193.174 179.811 190.074 175.582 190.074 170.184V157.422H195.308V170.184C195.308 173.067 196.663 174.578 197.132 174.578H214.033C214.501 174.578 215.856 173.067 215.856 170.184V160.915H221.09V170.184C221.09 175.582 217.99 179.811 214.033 179.811Z" fill="white"/>
</g>
<g opacity="0.75">
<path d="M209.7 126.552C207.266 124.214 203.663 123.763 199.43 123.718V127.991C202.662 128.027 205.294 128.32 206.626 129.599C207.516 130.455 207.949 131.89 207.949 133.986C207.949 138.391 206.072 144.347 203.167 149.159C200.026 154.362 196.238 157.346 192.776 157.346C184.952 157.346 177.603 142.773 177.603 133.986C177.603 131.89 178.036 130.455 178.927 129.599C180.281 128.298 182.978 128.018 186.285 127.99V123.716C181.982 123.751 178.318 124.184 175.853 126.552C174.082 128.254 173.222 130.685 173.222 133.986C173.222 143.693 181.286 161.622 192.776 161.622C204.267 161.622 212.331 143.693 212.331 133.986C212.331 130.685 211.47 128.254 209.7 126.552Z" fill="white"/>
</g>
<g opacity="0.75">
<path d="M218.583 165.559C214.574 165.559 211.313 162.298 211.313 158.29C211.313 154.281 214.574 151.021 218.583 151.021C222.591 151.021 225.852 154.281 225.852 158.29C225.852 162.298 222.591 165.559 218.583 165.559ZM218.583 156.254C217.461 156.254 216.547 157.168 216.547 158.29C216.547 159.412 217.461 160.325 218.583 160.325C219.705 160.325 220.618 159.412 220.618 158.29C220.618 157.168 219.705 156.254 218.583 156.254Z" fill="white"/>
</g>
</g>
<path d="M136.974 224.111V230.62H133.471V213.081H139.856C141.926 213.081 143.483 213.577 144.526 214.571C145.586 215.565 146.116 216.915 146.116 218.621C146.116 220.293 145.57 221.627 144.477 222.621C143.4 223.614 141.86 224.111 139.856 224.111H136.974ZM139.483 221.304C141.537 221.304 142.564 220.409 142.564 218.621C142.564 217.743 142.323 217.072 141.843 216.608C141.363 216.145 140.576 215.913 139.483 215.913H136.974V221.304H139.483ZM156.59 216.658C158.18 216.658 159.447 217.18 160.391 218.223C161.335 219.267 161.807 220.732 161.807 222.621V230.62H158.329V223.018C158.329 221.925 158.047 221.08 157.484 220.484C156.921 219.871 156.151 219.565 155.174 219.565C154.18 219.565 153.385 219.888 152.789 220.534C152.193 221.18 151.894 222.107 151.894 223.316V230.62H148.392V212.236H151.894V219.614C152.259 218.687 152.855 217.966 153.683 217.453C154.528 216.923 155.497 216.658 156.59 216.658ZM167.249 216.857L171.001 226.198L174.479 216.857H178.33L169.908 237.179H166.032L169.137 230.223L163.349 216.857H167.249ZM184.725 216.683C186.398 216.683 187.739 217.105 188.749 217.95C189.76 218.795 190.389 219.921 190.638 221.329H187.358C187.226 220.666 186.928 220.136 186.464 219.739C186 219.341 185.396 219.142 184.65 219.142C184.054 219.142 183.59 219.283 183.259 219.565C182.928 219.846 182.762 220.227 182.762 220.708C182.762 221.088 182.895 221.395 183.16 221.627C183.425 221.859 183.756 222.041 184.153 222.173C184.551 222.306 185.122 222.463 185.868 222.645C186.911 222.877 187.756 223.126 188.402 223.391C189.064 223.639 189.627 224.045 190.091 224.608C190.571 225.155 190.811 225.9 190.811 226.844C190.811 228.02 190.348 228.972 189.42 229.701C188.509 230.43 187.275 230.794 185.719 230.794C183.93 230.794 182.497 230.397 181.421 229.602C180.344 228.79 179.69 227.639 179.458 226.148H182.812C182.895 226.827 183.193 227.366 183.706 227.763C184.22 228.144 184.89 228.335 185.719 228.335C186.315 228.335 186.77 228.194 187.085 227.912C187.4 227.614 187.557 227.233 187.557 226.769C187.557 226.372 187.416 226.049 187.135 225.8C186.87 225.552 186.53 225.362 186.116 225.229C185.719 225.097 185.147 224.939 184.402 224.757C183.375 224.525 182.539 224.293 181.893 224.061C181.263 223.813 180.717 223.424 180.253 222.894C179.806 222.364 179.582 221.635 179.582 220.708C179.582 219.515 180.038 218.546 180.949 217.801C181.859 217.056 183.118 216.683 184.725 216.683ZM193.023 212.907C193.023 212.344 193.222 211.888 193.619 211.54C194.017 211.176 194.538 210.994 195.184 210.994C195.83 210.994 196.352 211.176 196.749 211.54C197.147 211.888 197.346 212.344 197.346 212.907C197.346 213.453 197.147 213.909 196.749 214.273C196.352 214.621 195.83 214.795 195.184 214.795C194.538 214.795 194.017 214.621 193.619 214.273C193.222 213.909 193.023 213.453 193.023 212.907ZM196.923 216.857V230.62H193.42V216.857H196.923ZM206.278 216.683C208.05 216.683 209.524 217.163 210.7 218.124C211.893 219.084 212.638 220.393 212.936 222.049H209.235C209.086 221.32 208.746 220.749 208.216 220.335C207.686 219.904 207.015 219.689 206.204 219.689C205.276 219.689 204.498 220.037 203.868 220.732C203.256 221.411 202.949 222.413 202.949 223.738C202.949 225.063 203.256 226.074 203.868 226.769C204.498 227.448 205.276 227.788 206.204 227.788C207.015 227.788 207.686 227.581 208.216 227.167C208.746 226.736 209.086 226.157 209.235 225.428H212.936C212.638 227.084 211.893 228.392 210.7 229.353C209.524 230.314 208.05 230.794 206.278 230.794C204.937 230.794 203.744 230.512 202.701 229.949C201.657 229.37 200.846 228.55 200.266 227.49C199.686 226.43 199.397 225.179 199.397 223.738C199.397 222.298 199.686 221.047 200.266 219.987C200.846 218.911 201.657 218.091 202.701 217.528C203.744 216.964 204.937 216.683 206.278 216.683ZM215.028 212.907C215.028 212.344 215.227 211.888 215.624 211.54C216.022 211.176 216.543 210.994 217.189 210.994C217.835 210.994 218.357 211.176 218.754 211.54C219.152 211.888 219.351 212.344 219.351 212.907C219.351 213.453 219.152 213.909 218.754 214.273C218.357 214.621 217.835 214.795 217.189 214.795C216.543 214.795 216.022 214.621 215.624 214.273C215.227 213.909 215.028 213.453 215.028 212.907ZM218.928 216.857V230.62H215.425V216.857H218.928ZM227.488 216.683C228.648 216.683 229.641 216.956 230.469 217.503C231.298 218.049 231.886 218.786 232.233 219.714V216.857H235.711V230.62H232.233V227.738C231.886 228.666 231.298 229.411 230.469 229.974C229.641 230.521 228.648 230.794 227.488 230.794C226.329 230.794 225.285 230.512 224.358 229.949C223.43 229.386 222.702 228.575 222.172 227.515C221.658 226.438 221.402 225.179 221.402 223.738C221.402 222.298 221.658 221.047 222.172 219.987C222.702 218.911 223.43 218.091 224.358 217.528C225.285 216.964 226.329 216.683 227.488 216.683ZM228.581 219.739C227.488 219.739 226.61 220.095 225.948 220.807C225.285 221.519 224.954 222.496 224.954 223.738C224.954 224.981 225.285 225.958 225.948 226.67C226.61 227.366 227.488 227.713 228.581 227.713C229.641 227.713 230.511 227.357 231.19 226.645C231.886 225.916 232.233 224.948 232.233 223.738C232.233 222.513 231.886 221.544 231.19 220.832C230.511 220.103 229.641 219.739 228.581 219.739ZM247.084 216.658C248.674 216.658 249.941 217.18 250.885 218.223C251.829 219.267 252.301 220.732 252.301 222.621V230.62H248.823V223.018C248.823 221.925 248.542 221.08 247.979 220.484C247.416 219.871 246.645 219.565 245.668 219.565C244.675 219.565 243.88 219.888 243.283 220.534C242.687 221.18 242.389 222.107 242.389 223.316V230.62H238.886V216.857H242.389V219.614C242.753 218.687 243.35 217.966 244.178 217.453C245.022 216.923 245.991 216.658 247.084 216.658ZM260.129 216.683C261.802 216.683 263.143 217.105 264.153 217.95C265.164 218.795 265.793 219.921 266.042 221.329H262.762C262.63 220.666 262.332 220.136 261.868 219.739C261.404 219.341 260.8 219.142 260.054 219.142C259.458 219.142 258.994 219.283 258.663 219.565C258.332 219.846 258.166 220.227 258.166 220.708C258.166 221.088 258.299 221.395 258.564 221.627C258.829 221.859 259.16 222.041 259.557 222.173C259.955 222.306 260.526 222.463 261.272 222.645C262.315 222.877 263.16 223.126 263.806 223.391C264.468 223.639 265.031 224.045 265.495 224.608C265.975 225.155 266.215 225.9 266.215 226.844C266.215 228.02 265.752 228.972 264.824 229.701C263.913 230.43 262.679 230.794 261.122 230.794C259.334 230.794 257.901 230.397 256.825 229.602C255.748 228.79 255.094 227.639 254.862 226.148H258.216C258.299 226.827 258.597 227.366 259.11 227.763C259.624 228.144 260.294 228.335 261.122 228.335C261.719 228.335 262.174 228.194 262.489 227.912C262.804 227.614 262.961 227.233 262.961 226.769C262.961 226.372 262.82 226.049 262.539 225.8C262.274 225.552 261.934 225.362 261.52 225.229C261.122 225.097 260.551 224.939 259.806 224.757C258.779 224.525 257.943 224.293 257.297 224.061C256.667 223.813 256.121 223.424 255.657 222.894C255.21 222.364 254.986 221.635 254.986 220.708C254.986 219.515 255.442 218.546 256.353 217.801C257.263 217.056 258.522 216.683 260.129 216.683Z" fill="white"/>
<path d="M291.874 5.18402V338.091L5.16336 171.312L291.874 5.18402Z" fill="black" fill-opacity="0.4"/>
<path d="M291.874 5.18402V338.091L5.16336 171.312L291.874 5.18402Z" stroke="#711F3C"/>
<path d="M296.597 337.136L290.586 333.639V340.594V673.501V680.441L296.591 676.962L583.302 510.834L589.263 507.38L583.308 503.915L296.597 337.136Z" fill="#D81D5B" stroke="white" stroke-width="8"/>
<g clip-path="url(#clip4_2638_111304)">
<path d="M403.404 500.019H378.255C372.522 500.019 367.858 495.355 367.858 489.623V469.126C367.858 463.394 372.522 458.729 378.255 458.729H403.404C409.137 458.729 413.801 463.394 413.801 469.126V476.757H408.567V469.126C408.567 466.279 406.251 463.963 403.404 463.963H378.255C375.408 463.963 373.092 466.279 373.092 469.126V489.623C373.092 492.469 375.408 494.785 378.255 494.785H403.404C406.251 494.785 408.567 492.469 408.567 489.623V481.991H413.801V489.623C413.801 495.355 409.137 500.019 403.404 500.019Z" fill="white"/>
<g opacity="0.75">
<path d="M397.833 487.219H383.247C378.924 487.219 375.42 483.715 375.42 479.392V479.345C375.42 475.022 378.924 471.518 383.248 471.518H397.833C402.156 471.518 405.66 475.022 405.66 479.345V479.392C405.66 483.715 402.156 487.219 397.833 487.219ZM380.654 479.312V479.425C380.654 480.839 381.8 481.985 383.214 481.985H397.866C399.28 481.985 400.426 480.839 400.426 479.425V479.312C400.426 477.898 399.28 476.751 397.866 476.751H383.214C381.8 476.752 380.654 477.898 380.654 479.312Z" fill="white"/>
</g>
<path d="M393.444 471.515H388.21V487.216H393.444V471.515Z" fill="white"/>
<path d="M404.498 457.563H376.584V445.351H404.498V457.563ZM381.818 452.329H399.264V450.585H381.818V452.329Z" fill="white"/>
<g opacity="0.75">
<path d="M398.682 463.972H382.98V452.341H398.682V463.972ZM388.214 458.738H393.448V457.575H388.214V458.738Z" fill="white"/>
</g>
</g>
<path d="M315.91 545.842V552.351H312.407V534.811H318.791C320.862 534.811 322.419 535.308 323.462 536.302C324.522 537.295 325.052 538.645 325.052 540.351C325.052 542.024 324.505 543.357 323.412 544.351C322.336 545.345 320.795 545.842 318.791 545.842H315.91ZM318.419 543.034C320.472 543.034 321.499 542.14 321.499 540.351C321.499 539.473 321.259 538.803 320.779 538.339C320.299 537.875 319.512 537.643 318.419 537.643H315.91V543.034H318.419ZM335.526 538.389C337.116 538.389 338.383 538.91 339.327 539.954C340.271 540.997 340.743 542.463 340.743 544.351V552.351H337.265V544.748C337.265 543.655 336.983 542.811 336.42 542.214C335.857 541.602 335.087 541.295 334.11 541.295C333.116 541.295 332.321 541.618 331.725 542.264C331.128 542.91 330.83 543.838 330.83 545.047V552.351H327.327V533.966H330.83V541.345C331.195 540.417 331.791 539.697 332.619 539.184C333.464 538.654 334.433 538.389 335.526 538.389ZM349.216 538.413C350.375 538.413 351.369 538.687 352.197 539.233C353.025 539.78 353.613 540.517 353.961 541.444V538.587H357.439V552.351H353.961V549.469C353.613 550.396 353.025 551.142 352.197 551.705C351.369 552.251 350.375 552.524 349.216 552.524C348.057 552.524 347.013 552.243 346.086 551.68C345.158 551.117 344.429 550.305 343.899 549.245C343.386 548.169 343.129 546.91 343.129 545.469C343.129 544.028 343.386 542.778 343.899 541.718C344.429 540.641 345.158 539.821 346.086 539.258C347.013 538.695 348.057 538.413 349.216 538.413ZM350.309 541.469C349.216 541.469 348.338 541.825 347.676 542.537C347.013 543.25 346.682 544.227 346.682 545.469C346.682 546.711 347.013 547.688 347.676 548.4C348.338 549.096 349.216 549.444 350.309 549.444C351.369 549.444 352.239 549.088 352.918 548.376C353.613 547.647 353.961 546.678 353.961 545.469C353.961 544.243 353.613 543.274 352.918 542.562C352.239 541.833 351.369 541.469 350.309 541.469ZM364.117 541.221C364.63 540.343 365.309 539.656 366.154 539.159C366.998 538.645 367.943 538.389 368.986 538.389V542.14H367.967C365.4 542.14 364.117 543.332 364.117 545.717V552.351H360.614V538.587H364.117V541.221ZM388.439 538.389C390.112 538.389 391.429 538.91 392.39 539.954C393.367 540.981 393.855 542.446 393.855 544.351V552.351H390.377V544.748C390.377 543.688 390.104 542.877 389.557 542.314C389.027 541.734 388.29 541.444 387.346 541.444C386.369 541.444 385.591 541.751 385.011 542.363C384.431 542.976 384.141 543.871 384.141 545.047V552.351H380.663V544.748C380.663 543.688 380.39 542.877 379.844 542.314C379.314 541.734 378.577 541.444 377.632 541.444C376.655 541.444 375.877 541.751 375.297 542.363C374.718 542.976 374.428 543.871 374.428 545.047V552.351H370.925V538.587H374.428V541.196C374.792 540.301 375.363 539.614 376.142 539.134C376.937 538.637 377.856 538.389 378.9 538.389C380.009 538.389 380.97 538.654 381.781 539.184C382.609 539.714 383.231 540.475 383.645 541.469C384.075 540.525 384.713 539.78 385.558 539.233C386.419 538.67 387.379 538.389 388.439 538.389ZM402.324 538.413C403.483 538.413 404.477 538.687 405.305 539.233C406.133 539.78 406.721 540.517 407.069 541.444V538.587H410.547V552.351H407.069V549.469C406.721 550.396 406.133 551.142 405.305 551.705C404.477 552.251 403.483 552.524 402.324 552.524C401.164 552.524 400.121 552.243 399.194 551.68C398.266 551.117 397.537 550.305 397.007 549.245C396.494 548.169 396.237 546.91 396.237 545.469C396.237 544.028 396.494 542.778 397.007 541.718C397.537 540.641 398.266 539.821 399.194 539.258C400.121 538.695 401.164 538.413 402.324 538.413ZM403.417 541.469C402.324 541.469 401.446 541.825 400.784 542.537C400.121 543.25 399.79 544.227 399.79 545.469C399.79 546.711 400.121 547.688 400.784 548.4C401.446 549.096 402.324 549.444 403.417 549.444C404.477 549.444 405.346 549.088 406.026 548.376C406.721 547.647 407.069 546.678 407.069 545.469C407.069 544.243 406.721 543.274 406.026 542.562C405.346 541.833 404.477 541.469 403.417 541.469ZM419.908 538.413C421.68 538.413 423.154 538.894 424.33 539.854C425.522 540.815 426.268 542.123 426.566 543.78H422.864C422.715 543.051 422.375 542.479 421.845 542.065C421.315 541.635 420.645 541.419 419.833 541.419C418.906 541.419 418.127 541.767 417.498 542.463C416.885 543.142 416.579 544.144 416.579 545.469C416.579 546.794 416.885 547.804 417.498 548.5C418.127 549.179 418.906 549.518 419.833 549.518C420.645 549.518 421.315 549.311 421.845 548.897C422.375 548.467 422.715 547.887 422.864 547.158H426.566C426.268 548.815 425.522 550.123 424.33 551.084C423.154 552.044 421.68 552.524 419.908 552.524C418.566 552.524 417.374 552.243 416.33 551.68C415.287 551.1 414.475 550.28 413.896 549.22C413.316 548.16 413.026 546.91 413.026 545.469C413.026 544.028 413.316 542.778 413.896 541.718C414.475 540.641 415.287 539.821 416.33 539.258C417.374 538.695 418.566 538.413 419.908 538.413ZM428.657 534.637C428.657 534.074 428.856 533.619 429.253 533.271C429.651 532.906 430.173 532.724 430.819 532.724C431.465 532.724 431.986 532.906 432.384 533.271C432.781 533.619 432.98 534.074 432.98 534.637C432.98 535.184 432.781 535.639 432.384 536.004C431.986 536.351 431.465 536.525 430.819 536.525C430.173 536.525 429.651 536.351 429.253 536.004C428.856 535.639 428.657 535.184 428.657 534.637ZM432.558 538.587V552.351H429.055V538.587H432.558ZM440.472 538.413C442.144 538.413 443.486 538.836 444.496 539.68C445.507 540.525 446.136 541.651 446.384 543.059H443.105C442.973 542.397 442.674 541.867 442.211 541.469C441.747 541.072 441.142 540.873 440.397 540.873C439.801 540.873 439.337 541.014 439.006 541.295C438.675 541.577 438.509 541.958 438.509 542.438C438.509 542.819 438.642 543.125 438.907 543.357C439.172 543.589 439.503 543.771 439.9 543.904C440.298 544.036 440.869 544.194 441.614 544.376C442.658 544.608 443.503 544.856 444.149 545.121C444.811 545.37 445.374 545.775 445.838 546.338C446.318 546.885 446.558 547.63 446.558 548.574C446.558 549.75 446.095 550.703 445.167 551.431C444.256 552.16 443.022 552.524 441.465 552.524C439.677 552.524 438.244 552.127 437.167 551.332C436.091 550.52 435.437 549.369 435.205 547.879H438.559C438.642 548.558 438.94 549.096 439.453 549.494C439.967 549.875 440.637 550.065 441.465 550.065C442.062 550.065 442.517 549.924 442.832 549.643C443.146 549.345 443.304 548.964 443.304 548.5C443.304 548.102 443.163 547.779 442.881 547.531C442.616 547.283 442.277 547.092 441.863 546.96C441.465 546.827 440.894 546.67 440.149 546.488C439.122 546.256 438.285 546.024 437.64 545.792C437.01 545.543 436.464 545.154 436 544.624C435.553 544.094 435.329 543.366 435.329 542.438C435.329 541.246 435.785 540.277 436.695 539.531C437.606 538.786 438.865 538.413 440.472 538.413ZM456.521 549.345V552.351H454.683C453.142 552.351 451.958 551.978 451.13 551.233C450.318 550.487 449.913 549.245 449.913 547.506V541.544H448V538.587H449.913V535.184H453.416V538.587H456.496V541.544H453.416V547.556C453.416 548.218 453.548 548.682 453.813 548.947C454.078 549.212 454.525 549.345 455.155 549.345H456.521ZM463.787 538.413C465.46 538.413 466.801 538.836 467.811 539.68C468.822 540.525 469.451 541.651 469.7 543.059H466.42C466.288 542.397 465.99 541.867 465.526 541.469C465.062 541.072 464.458 540.873 463.712 540.873C463.116 540.873 462.652 541.014 462.321 541.295C461.99 541.577 461.824 541.958 461.824 542.438C461.824 542.819 461.957 543.125 462.222 543.357C462.487 543.589 462.818 543.771 463.215 543.904C463.613 544.036 464.184 544.194 464.93 544.376C465.973 544.608 466.818 544.856 467.464 545.121C468.126 545.37 468.689 545.775 469.153 546.338C469.633 546.885 469.873 547.63 469.873 548.574C469.873 549.75 469.41 550.703 468.482 551.431C467.571 552.16 466.337 552.524 464.78 552.524C462.992 552.524 461.559 552.127 460.483 551.332C459.406 550.52 458.752 549.369 458.52 547.879H461.874C461.957 548.558 462.255 549.096 462.768 549.494C463.282 549.875 463.952 550.065 464.78 550.065C465.377 550.065 465.832 549.924 466.147 549.643C466.462 549.345 466.619 548.964 466.619 548.5C466.619 548.102 466.478 547.779 466.197 547.531C465.932 547.283 465.592 547.092 465.178 546.96C464.78 546.827 464.209 546.67 463.464 546.488C462.437 546.256 461.601 546.024 460.955 545.792C460.325 545.543 459.779 545.154 459.315 544.624C458.868 544.094 458.644 543.366 458.644 542.438C458.644 541.246 459.1 540.277 460.011 539.531C460.921 538.786 462.18 538.413 463.787 538.413Z" fill="white"/>
<defs>
<clipPath id="clip0_2638_111304">
<rect width="41.6102" height="40.2451" fill="white" transform="translate(183.712 452.555)"/>
</clipPath>
<clipPath id="clip1_2638_111304">
<rect width="58.7363" height="60.4549" fill="white" transform="translate(340.969 120.73)"/>
</clipPath>
<clipPath id="clip2_2638_111304">
<rect width="41.6223" height="50.5967" fill="white" transform="translate(82.4736 278.441)"/>
</clipPath>
<clipPath id="clip3_2638_111304">
<rect width="52.63" height="57.7168" fill="white" transform="translate(173.224 122.078)"/>
</clipPath>
<clipPath id="clip4_2638_111304">
<rect width="45.9422" height="54.6654" fill="white" transform="translate(367.863 445.33)"/>
</clipPath>
</defs>
</svg>
