<svg width="80" height="80" viewBox="0 0 80 80" fill="none" xmlns="http://www.w3.org/2000/svg">
<path d="M41.3323 16.5082H40.0119C37.4702 16.5082 35.3906 14.4286 35.3906 11.8869C35.3906 9.34522 37.4702 7.26562 40.0119 7.26562H41.3323C43.874 7.26562 45.9536 9.34522 45.9536 11.8869C45.9537 14.4286 43.874 16.5082 41.3323 16.5082Z" fill="#587E85"/>
<path d="M24.1682 16.5082H22.8478C20.306 16.5082 18.2266 14.4286 18.2266 11.8869C18.2266 9.34522 20.306 7.26562 22.8478 7.26562H24.1682C26.71 7.26562 28.7895 9.34522 28.7895 11.8869C28.7895 14.4286 26.71 16.5082 24.1682 16.5082Z" fill="#587E85"/>
<path d="M56.4798 72.7844H37.2931C32.8006 72.7844 29.2812 67.9832 29.2812 61.8546V47.3672H35.2229V61.8546C35.2229 65.1278 36.7612 66.8427 37.2931 66.8427H56.4798C57.0117 66.8427 58.5493 65.1277 58.5493 61.8546V51.3322H64.491V61.8546C64.491 67.9832 60.9721 72.7844 56.4798 72.7844Z" fill="#587E85"/>
<path d="M51.5515 12.3451C48.7885 9.69 44.698 9.17813 39.8926 9.12727V13.9787C43.5617 14.0193 46.5502 14.3516 48.0616 15.8041C49.0728 16.7757 49.5642 18.4045 49.5642 20.7837C49.5642 25.7849 47.4332 32.5459 44.135 38.0086C40.5692 43.9153 36.2698 47.3026 32.3395 47.3026C23.4576 47.3026 15.1146 30.7589 15.1146 20.7837C15.1146 18.4045 15.606 16.7757 16.6172 15.8041C18.1541 14.3272 21.2164 14.0095 24.9706 13.9776V9.125C20.0855 9.16473 15.9259 9.65613 13.1274 12.3451C11.1175 14.2763 10.1406 17.0367 10.1406 20.7837C10.1406 31.8038 19.295 52.1569 32.3395 52.1569C45.3838 52.1569 54.5382 31.8038 54.5382 20.7837C54.5383 17.0367 53.5614 14.2763 51.5515 12.3451Z" fill="#A9CF3D"/>
<path d="M61.6352 56.614C57.0847 56.614 53.3828 52.9121 53.3828 48.3617C53.3828 43.8113 57.0847 40.1094 61.6352 40.1094C66.1856 40.1094 69.8874 43.8113 69.8874 48.3617C69.8874 52.9121 66.1856 56.614 61.6352 56.614ZM61.6352 46.051C60.3612 46.051 59.3245 47.0878 59.3245 48.3617C59.3245 49.6356 60.3612 50.6724 61.6352 50.6724C62.909 50.6724 63.9458 49.6356 63.9458 48.3617C63.9458 47.0878 62.909 46.051 61.6352 46.051Z" fill="#A9CF3D"/>
</svg>
