<svg width="595" height="687" viewBox="0 0 595 687" fill="none" xmlns="http://www.w3.org/2000/svg">
<path d="M303.992 9.60352L595 179.037L594.999 517.473L303.992 686.905L11 517.473V180.314L303.992 9.60352Z" fill="#711F3C"/>
<path d="M305.586 347.198V14.291L592.297 181.07L305.586 347.198Z" fill="#902F57"/>
<path d="M305.586 347.198V14.291L592.297 181.07L305.586 347.198Z" stroke="#711F3C"/>
<path d="M592.297 513.495V183.953L307.6 348.769L592.297 513.495Z" fill="#A662A7"/>
<path d="M592.297 513.495V183.953L307.6 348.769L592.297 513.495Z" stroke="#711F3C"/>
<path d="M302.875 349.683V682.59L14 515.811L302.875 349.683Z" fill="#D81D5B"/>
<path d="M302.875 349.683V682.59L14 515.811L302.875 349.683Z" stroke="#711F3C"/>
<path d="M305.586 682.594V349.688L592.297 516.467L305.586 682.594Z" fill="#D81D5B"/>
<path d="M305.586 682.594V349.688L592.297 516.467L305.586 682.594Z" stroke="#711F3C"/>
<g clip-path="url(#clip0_2638_111309)">
<g opacity="0.75">
<path d="M218.211 488.513H212.978V501.888H218.211V488.513Z" fill="white"/>
</g>
<g opacity="0.75">
<path d="M222.287 492.605H208.911V497.839H222.287V492.605Z" fill="white"/>
</g>
<path d="M215.519 481.173C203.99 481.173 194.622 490.219 194.715 501.304C194.716 501.305 194.717 501.306 194.718 501.308H196.76H199.943H205.639V496.074H200.888C203.078 490.438 208.81 486.407 215.519 486.407C222.228 486.407 227.96 490.438 230.15 496.074H225.411V501.308H231.095H235.075H236.32C236.321 501.306 236.322 501.305 236.323 501.304C236.416 490.219 227.047 481.173 215.519 481.173Z" fill="white"/>
<g opacity="0.75">
<path d="M215.692 486.407C208.588 486.407 202.808 480.851 202.808 474.022C202.808 467.193 208.588 461.637 215.692 461.637C222.796 461.637 228.576 467.193 228.576 474.022C228.576 480.851 222.796 486.407 215.692 486.407ZM215.692 466.871C211.473 466.871 208.042 470.079 208.042 474.022C208.042 477.965 211.473 481.173 215.692 481.173C219.91 481.173 223.342 477.965 223.342 474.022C223.342 470.079 219.91 466.871 215.692 466.871Z" fill="white"/>
</g>
</g>
<path d="M158.082 554.935V561.444H154.579V543.905H160.963C163.034 543.905 164.591 544.402 165.634 545.395C166.694 546.389 167.224 547.739 167.224 549.445C167.224 551.118 166.677 552.451 165.584 553.445C164.508 554.438 162.967 554.935 160.963 554.935H158.082ZM160.591 552.128C162.645 552.128 163.671 551.234 163.671 549.445C163.671 548.567 163.431 547.896 162.951 547.433C162.471 546.969 161.684 546.737 160.591 546.737H158.082V552.128H160.591ZM182.443 554.041C182.443 554.389 182.401 554.786 182.319 555.233H172.232C172.282 556.459 172.613 557.362 173.226 557.941C173.839 558.521 174.601 558.811 175.511 558.811C176.323 558.811 176.994 558.612 177.524 558.215C178.07 557.817 178.418 557.279 178.567 556.6H182.269C182.087 557.56 181.697 558.422 181.101 559.184C180.505 559.945 179.735 560.542 178.791 560.972C177.863 561.403 176.828 561.618 175.685 561.618C174.344 561.618 173.151 561.337 172.108 560.774C171.064 560.194 170.253 559.374 169.673 558.314C169.094 557.254 168.804 556.004 168.804 554.563C168.804 553.122 169.094 551.871 169.673 550.811C170.253 549.735 171.064 548.915 172.108 548.352C173.151 547.789 174.344 547.507 175.685 547.507C177.043 547.507 178.228 547.789 179.238 548.352C180.265 548.915 181.052 549.693 181.598 550.687C182.161 551.664 182.443 552.782 182.443 554.041ZM178.915 553.693C178.965 552.567 178.667 551.714 178.021 551.134C177.391 550.555 176.613 550.265 175.685 550.265C174.741 550.265 173.946 550.555 173.3 551.134C172.654 551.714 172.298 552.567 172.232 553.693H178.915ZM188.432 550.314C188.946 549.437 189.625 548.749 190.47 548.252C191.314 547.739 192.258 547.482 193.302 547.482V551.234H192.283C189.716 551.234 188.432 552.426 188.432 554.811V561.444H184.929V547.681H188.432V550.314ZM199.986 547.507C201.658 547.507 203 547.929 204.01 548.774C205.021 549.619 205.65 550.745 205.898 552.153H202.619C202.487 551.49 202.188 550.96 201.725 550.563C201.261 550.165 200.656 549.967 199.911 549.967C199.315 549.967 198.851 550.107 198.52 550.389C198.189 550.671 198.023 551.051 198.023 551.532C198.023 551.913 198.155 552.219 198.42 552.451C198.685 552.683 199.017 552.865 199.414 552.998C199.812 553.13 200.383 553.287 201.128 553.47C202.172 553.701 203.017 553.95 203.662 554.215C204.325 554.463 204.888 554.869 205.352 555.432C205.832 555.979 206.072 556.724 206.072 557.668C206.072 558.844 205.609 559.796 204.681 560.525C203.77 561.254 202.536 561.618 200.979 561.618C199.191 561.618 197.758 561.221 196.681 560.426C195.605 559.614 194.951 558.463 194.719 556.973H198.073C198.155 557.652 198.454 558.19 198.967 558.587C199.48 558.968 200.151 559.159 200.979 559.159C201.576 559.159 202.031 559.018 202.346 558.736C202.66 558.438 202.818 558.057 202.818 557.594C202.818 557.196 202.677 556.873 202.395 556.625C202.13 556.376 201.791 556.186 201.377 556.053C200.979 555.921 200.408 555.763 199.663 555.581C198.636 555.349 197.799 555.118 197.153 554.886C196.524 554.637 195.978 554.248 195.514 553.718C195.067 553.188 194.843 552.459 194.843 551.532C194.843 550.339 195.298 549.37 196.209 548.625C197.12 547.88 198.379 547.507 199.986 547.507ZM215.041 547.507C216.383 547.507 217.584 547.789 218.644 548.352C219.72 548.915 220.565 549.735 221.178 550.811C221.79 551.871 222.097 553.122 222.097 554.563C222.097 556.004 221.79 557.254 221.178 558.314C220.565 559.374 219.72 560.194 218.644 560.774C217.584 561.337 216.383 561.618 215.041 561.618C213.7 561.618 212.491 561.337 211.414 560.774C210.354 560.194 209.518 559.374 208.905 558.314C208.292 557.254 207.986 556.004 207.986 554.563C207.986 553.122 208.292 551.871 208.905 550.811C209.518 549.735 210.354 548.915 211.414 548.352C212.491 547.789 213.7 547.507 215.041 547.507ZM215.041 550.538C214.064 550.538 213.236 550.886 212.557 551.581C211.878 552.261 211.538 553.254 211.538 554.563C211.538 555.871 211.878 556.873 212.557 557.569C213.236 558.248 214.064 558.587 215.041 558.587C216.018 558.587 216.846 558.248 217.526 557.569C218.205 556.873 218.544 555.871 218.544 554.563C218.544 553.254 218.205 552.261 217.526 551.581C216.846 550.886 216.018 550.538 215.041 550.538ZM232.771 547.482C234.361 547.482 235.628 548.004 236.572 549.047C237.516 550.091 237.988 551.557 237.988 553.445V561.444H234.51V553.842C234.51 552.749 234.228 551.904 233.665 551.308C233.102 550.695 232.332 550.389 231.355 550.389C230.361 550.389 229.566 550.712 228.97 551.358C228.373 552.004 228.075 552.931 228.075 554.14V561.444H224.572V547.681H228.075V550.439C228.44 549.511 229.036 548.791 229.864 548.277C230.709 547.747 231.678 547.482 232.771 547.482ZM249.268 547.482C250.858 547.482 252.125 548.004 253.069 549.047C254.014 550.091 254.486 551.557 254.486 553.445V561.444H251.007V553.842C251.007 552.749 250.726 551.904 250.163 551.308C249.6 550.695 248.829 550.389 247.852 550.389C246.859 550.389 246.064 550.712 245.467 551.358C244.871 552.004 244.573 552.931 244.573 554.14V561.444H241.07V547.681H244.573V550.439C244.937 549.511 245.534 548.791 246.362 548.277C247.206 547.747 248.175 547.482 249.268 547.482ZM270.511 554.041C270.511 554.389 270.47 554.786 270.387 555.233H260.3C260.35 556.459 260.681 557.362 261.294 557.941C261.907 558.521 262.669 558.811 263.58 558.811C264.391 558.811 265.062 558.612 265.592 558.215C266.139 557.817 266.487 557.279 266.636 556.6H270.337C270.155 557.56 269.766 558.422 269.17 559.184C268.573 559.945 267.803 560.542 266.859 560.972C265.932 561.403 264.897 561.618 263.754 561.618C262.412 561.618 261.22 561.337 260.176 560.774C259.133 560.194 258.321 559.374 257.742 558.314C257.162 557.254 256.872 556.004 256.872 554.563C256.872 553.122 257.162 551.871 257.742 550.811C258.321 549.735 259.133 548.915 260.176 548.352C261.22 547.789 262.412 547.507 263.754 547.507C265.112 547.507 266.296 547.789 267.306 548.352C268.333 548.915 269.12 549.693 269.666 550.687C270.23 551.664 270.511 552.782 270.511 554.041ZM266.983 553.693C267.033 552.567 266.735 551.714 266.089 551.134C265.46 550.555 264.681 550.265 263.754 550.265C262.81 550.265 262.015 550.555 261.369 551.134C260.723 551.714 260.367 552.567 260.3 553.693H266.983ZM276.501 543.06V561.444H272.998V543.06H276.501Z" fill="white"/>
<g opacity="0.85">
<path d="M496.446 315.934C486.825 315.934 478.996 323.439 478.963 332.676H481.306H484.189H493.547L493.557 327.442H485.561C487.601 323.721 491.708 321.167 496.446 321.167C501.183 321.167 505.291 323.721 507.33 327.442H499.362L499.352 332.676H508.702H509.172H513.928C513.895 323.439 506.066 315.934 496.446 315.934Z" fill="white"/>
</g>
<g opacity="0.75">
<path d="M497.064 321.164C490.993 321.164 486.054 316.408 486.054 310.562C486.054 304.716 490.993 299.96 497.064 299.96C503.135 299.96 508.074 304.716 508.074 310.562C508.074 316.408 503.135 321.164 497.064 321.164ZM497.064 305.194C493.879 305.194 491.288 307.602 491.288 310.562C491.288 313.522 493.879 315.93 497.064 315.93C500.249 315.93 502.84 313.522 502.84 310.562C502.84 307.602 500.249 305.194 497.064 305.194Z" fill="white"/>
</g>
<path d="M470.869 312.535C459.34 312.535 449.972 321.581 450.064 332.666C450.066 332.668 450.066 332.669 450.068 332.67H452.11H455.293H467.967L467.977 327.436H456.238C458.427 321.8 464.16 317.769 470.869 317.769C477.578 317.769 483.31 321.8 485.499 327.436H473.782L473.772 332.67H486.444H490.425H491.669C491.671 332.669 491.672 332.668 491.673 332.666C491.765 321.581 482.397 312.535 470.869 312.535Z" fill="white"/>
<g opacity="0.75">
<path d="M471.036 317.767C463.931 317.767 458.151 312.211 458.151 305.382C458.151 298.553 463.931 292.997 471.036 292.997C478.14 292.997 483.92 298.553 483.92 305.382C483.92 312.211 478.14 317.767 471.036 317.767ZM471.036 298.231C466.817 298.231 463.385 301.439 463.385 305.382C463.385 309.326 466.817 312.533 471.036 312.533C475.254 312.533 478.686 309.326 478.686 305.382C478.686 301.439 475.254 298.231 471.036 298.231Z" fill="white"/>
</g>
<path d="M435.328 385.994V392.503H431.825V374.963H438.21C440.28 374.963 441.837 375.46 442.88 376.454C443.94 377.448 444.47 378.798 444.47 380.504C444.47 382.176 443.924 383.51 442.831 384.503C441.754 385.497 440.214 385.994 438.21 385.994H435.328ZM437.837 383.187C439.891 383.187 440.918 382.292 440.918 380.504C440.918 379.626 440.678 378.955 440.197 378.491C439.717 378.027 438.93 377.796 437.837 377.796H435.328V383.187H437.837ZM452.137 378.566C453.296 378.566 454.29 378.839 455.118 379.386C455.946 379.932 456.534 380.669 456.882 381.597V378.74H460.36V392.503H456.882V389.621C456.534 390.549 455.946 391.294 455.118 391.857C454.29 392.404 453.296 392.677 452.137 392.677C450.977 392.677 449.934 392.395 449.007 391.832C448.079 391.269 447.35 390.457 446.82 389.397C446.307 388.321 446.05 387.062 446.05 385.621C446.05 384.18 446.307 382.93 446.82 381.87C447.35 380.793 448.079 379.974 449.007 379.41C449.934 378.847 450.977 378.566 452.137 378.566ZM453.23 381.621C452.137 381.621 451.259 381.978 450.597 382.69C449.934 383.402 449.603 384.379 449.603 385.621C449.603 386.863 449.934 387.841 450.597 388.553C451.259 389.248 452.137 389.596 453.23 389.596C454.29 389.596 455.159 389.24 455.839 388.528C456.534 387.799 456.882 386.83 456.882 385.621C456.882 384.396 456.534 383.427 455.839 382.715C455.159 381.986 454.29 381.621 453.23 381.621ZM470.888 389.497V392.503H469.05C467.51 392.503 466.325 392.13 465.497 391.385C464.686 390.64 464.28 389.397 464.28 387.658V381.696H462.367V378.74H464.28V375.336H467.783V378.74H470.863V381.696H467.783V387.708C467.783 388.371 467.915 388.834 468.18 389.099C468.445 389.364 468.892 389.497 469.522 389.497H470.888ZM473.011 374.789C473.011 374.226 473.21 373.771 473.608 373.423C474.005 373.059 474.527 372.877 475.173 372.877C475.819 372.877 476.34 373.059 476.738 373.423C477.135 373.771 477.334 374.226 477.334 374.789C477.334 375.336 477.135 375.792 476.738 376.156C476.34 376.504 475.819 376.678 475.173 376.678C474.527 376.678 474.005 376.504 473.608 376.156C473.21 375.792 473.011 375.336 473.011 374.789ZM476.912 378.74V392.503H473.409V378.74H476.912ZM493.024 385.1C493.024 385.447 492.983 385.845 492.9 386.292H482.814C482.863 387.518 483.194 388.42 483.807 389C484.42 389.58 485.182 389.87 486.093 389.87C486.904 389.87 487.575 389.671 488.105 389.273C488.652 388.876 489 388.337 489.149 387.658H492.85C492.668 388.619 492.279 389.48 491.683 390.242C491.086 391.004 490.316 391.6 489.372 392.031C488.445 392.462 487.41 392.677 486.267 392.677C484.925 392.677 483.733 392.395 482.689 391.832C481.646 391.252 480.834 390.433 480.255 389.373C479.675 388.313 479.385 387.062 479.385 385.621C479.385 384.18 479.675 382.93 480.255 381.87C480.834 380.793 481.646 379.974 482.689 379.41C483.733 378.847 484.925 378.566 486.267 378.566C487.625 378.566 488.809 378.847 489.819 379.41C490.846 379.974 491.633 380.752 492.18 381.746C492.743 382.723 493.024 383.841 493.024 385.1ZM489.496 384.752C489.546 383.626 489.248 382.773 488.602 382.193C487.973 381.613 487.194 381.323 486.267 381.323C485.323 381.323 484.528 381.613 483.882 382.193C483.236 382.773 482.88 383.626 482.814 384.752H489.496ZM503.709 378.541C505.299 378.541 506.566 379.063 507.51 380.106C508.454 381.149 508.926 382.615 508.926 384.503V392.503H505.448V384.901C505.448 383.808 505.167 382.963 504.604 382.367C504.041 381.754 503.27 381.448 502.293 381.448C501.299 381.448 500.504 381.771 499.908 382.416C499.312 383.062 499.014 383.99 499.014 385.199V392.503H495.511V378.74H499.014V381.497C499.378 380.57 499.974 379.849 500.803 379.336C501.647 378.806 502.616 378.541 503.709 378.541ZM519.362 389.497V392.503H517.524C515.984 392.503 514.799 392.13 513.971 391.385C513.16 390.64 512.754 389.397 512.754 387.658V381.696H510.841V378.74H512.754V375.336H516.257V378.74H519.337V381.696H516.257V387.708C516.257 388.371 516.389 388.834 516.654 389.099C516.919 389.364 517.366 389.497 517.996 389.497H519.362ZM526.628 378.566C528.301 378.566 529.642 378.988 530.653 379.833C531.663 380.677 532.292 381.804 532.541 383.211H529.261C529.129 382.549 528.831 382.019 528.367 381.621C527.903 381.224 527.299 381.025 526.553 381.025C525.957 381.025 525.493 381.166 525.162 381.448C524.831 381.729 524.665 382.11 524.665 382.59C524.665 382.971 524.798 383.278 525.063 383.51C525.328 383.741 525.659 383.924 526.057 384.056C526.454 384.189 527.025 384.346 527.771 384.528C528.814 384.76 529.659 385.008 530.305 385.273C530.967 385.522 531.53 385.928 531.994 386.491C532.475 387.037 532.715 387.783 532.715 388.727C532.715 389.903 532.251 390.855 531.323 391.584C530.412 392.312 529.179 392.677 527.622 392.677C525.833 392.677 524.4 392.279 523.324 391.484C522.247 390.673 521.593 389.522 521.361 388.031H524.715C524.798 388.71 525.096 389.248 525.609 389.646C526.123 390.027 526.794 390.217 527.622 390.217C528.218 390.217 528.673 390.077 528.988 389.795C529.303 389.497 529.46 389.116 529.46 388.652C529.46 388.255 529.319 387.932 529.038 387.683C528.773 387.435 528.433 387.244 528.019 387.112C527.622 386.979 527.05 386.822 526.305 386.64C525.278 386.408 524.442 386.176 523.796 385.944C523.166 385.696 522.62 385.307 522.156 384.777C521.709 384.247 521.485 383.518 521.485 382.59C521.485 381.398 521.941 380.429 522.852 379.684C523.763 378.938 525.021 378.566 526.628 378.566Z" fill="white"/>
<g clip-path="url(#clip1_2638_111309)">
<path d="M385.179 160.92L405.482 150.584V172.85L385.128 182.895L385.179 160.92ZM359.54 145.948L382.22 135.48L402.999 145.963L382.571 156.362L359.54 145.948ZM382.053 129.833L351.979 143.995L352.033 157.982L357.213 160.559L357.173 150.12L379.894 160.976L379.841 183.241L357.213 171.507L357.196 167.076L351.979 164.481L352.019 174.738L382.006 190.288L410.716 176.12V144.028L382.053 129.833Z" fill="white"/>
<g opacity="0.75">
<path d="M400.82 181.05L392.097 185.213L391.987 176.657L400.82 172.26V181.05Z" fill="white"/>
</g>
<g opacity="0.75">
<path d="M361.285 139.528L371.178 134.876L400.83 149.55L400.839 158.904L392.107 162.721V154.468L361.285 139.528Z" fill="white"/>
</g>
</g>
<path d="M336.456 234.921C336.456 235.815 336.232 236.644 335.785 237.405C335.338 238.151 334.676 238.755 333.798 239.219C332.92 239.666 331.852 239.89 330.593 239.89C329.351 239.89 328.241 239.683 327.264 239.269C326.287 238.838 325.5 238.225 324.904 237.43C324.324 236.635 323.993 235.708 323.91 234.648H327.637C327.719 235.36 328.001 235.956 328.481 236.436C328.978 236.9 329.632 237.132 330.444 237.132C331.173 237.132 331.728 236.942 332.108 236.561C332.506 236.163 332.705 235.658 332.705 235.045C332.705 234.499 332.547 234.051 332.233 233.704C331.918 233.339 331.52 233.049 331.04 232.834C330.56 232.619 329.897 232.37 329.053 232.089C327.96 231.724 327.065 231.368 326.37 231.021C325.674 230.656 325.078 230.134 324.581 229.455C324.101 228.776 323.86 227.89 323.86 226.797C323.86 225.29 324.399 224.106 325.475 223.245C326.568 222.367 328.009 221.928 329.798 221.928C331.653 221.928 333.127 222.375 334.22 223.269C335.33 224.164 335.959 225.356 336.108 226.847H332.332C332.233 226.218 331.968 225.704 331.537 225.307C331.106 224.893 330.518 224.685 329.773 224.685C329.127 224.685 328.606 224.859 328.208 225.207C327.811 225.538 327.612 226.027 327.612 226.673C327.612 227.186 327.761 227.617 328.059 227.965C328.374 228.296 328.763 228.569 329.227 228.785C329.707 229 330.353 229.24 331.164 229.505C332.291 229.903 333.202 230.275 333.897 230.623C334.609 230.971 335.214 231.493 335.711 232.188C336.208 232.884 336.456 233.795 336.456 234.921ZM352.204 225.953V239.716H348.701V236.933C348.336 237.861 347.732 238.59 346.887 239.12C346.059 239.633 345.098 239.89 344.005 239.89C342.415 239.89 341.148 239.368 340.204 238.325C339.26 237.281 338.788 235.824 338.788 233.952V225.953H342.266V233.555C342.266 234.648 342.548 235.501 343.111 236.114C343.674 236.71 344.436 237.008 345.396 237.008C346.407 237.008 347.21 236.685 347.806 236.039C348.402 235.393 348.701 234.466 348.701 233.257V225.953H352.204ZM363.612 225.779C364.771 225.779 365.815 226.06 366.742 226.623C367.67 227.186 368.39 228.006 368.903 229.083C369.433 230.143 369.698 231.393 369.698 232.834C369.698 234.275 369.433 235.534 368.903 236.61C368.39 237.67 367.67 238.482 366.742 239.045C365.815 239.608 364.771 239.89 363.612 239.89C362.452 239.89 361.459 239.616 360.631 239.07C359.819 238.507 359.239 237.761 358.892 236.834V246.275H355.389V225.953H358.892V228.81C359.239 227.882 359.819 227.145 360.631 226.598C361.459 226.052 362.452 225.779 363.612 225.779ZM362.519 228.834C361.459 228.834 360.581 229.199 359.885 229.927C359.206 230.64 358.867 231.609 358.867 232.834C358.867 234.043 359.206 235.012 359.885 235.741C360.581 236.453 361.459 236.809 362.519 236.809C363.612 236.809 364.49 236.461 365.152 235.766C365.815 235.054 366.146 234.076 366.146 232.834C366.146 231.592 365.815 230.615 365.152 229.903C364.49 229.19 363.612 228.834 362.519 228.834ZM380.401 225.779C381.56 225.779 382.603 226.06 383.531 226.623C384.458 227.186 385.179 228.006 385.692 229.083C386.222 230.143 386.487 231.393 386.487 232.834C386.487 234.275 386.222 235.534 385.692 236.61C385.179 237.67 384.458 238.482 383.531 239.045C382.603 239.608 381.56 239.89 380.401 239.89C379.241 239.89 378.247 239.616 377.419 239.07C376.608 238.507 376.028 237.761 375.68 236.834V246.275H372.177V225.953H375.68V228.81C376.028 227.882 376.608 227.145 377.419 226.598C378.247 226.052 379.241 225.779 380.401 225.779ZM379.307 228.834C378.247 228.834 377.37 229.199 376.674 229.927C375.995 230.64 375.655 231.609 375.655 232.834C375.655 234.043 375.995 235.012 376.674 235.741C377.37 236.453 378.247 236.809 379.307 236.809C380.401 236.809 381.278 236.461 381.941 235.766C382.603 235.054 382.935 234.076 382.935 232.834C382.935 231.592 382.603 230.615 381.941 229.903C381.278 229.19 380.401 228.834 379.307 228.834ZM392.469 221.332V239.716H388.966V221.332H392.469ZM395.241 222.002C395.241 221.439 395.439 220.984 395.837 220.636C396.234 220.272 396.756 220.089 397.402 220.089C398.048 220.089 398.57 220.272 398.967 220.636C399.365 220.984 399.563 221.439 399.563 222.002C399.563 222.549 399.365 223.004 398.967 223.369C398.57 223.717 398.048 223.89 397.402 223.89C396.756 223.89 396.234 223.717 395.837 223.369C395.439 223.004 395.241 222.549 395.241 222.002ZM399.141 225.953V239.716H395.638V225.953H399.141ZM415.253 232.312C415.253 232.66 415.212 233.058 415.129 233.505H405.043C405.092 234.731 405.424 235.633 406.036 236.213C406.649 236.793 407.411 237.082 408.322 237.082C409.134 237.082 409.804 236.884 410.334 236.486C410.881 236.089 411.229 235.55 411.378 234.871H415.079C414.897 235.832 414.508 236.693 413.912 237.455C413.316 238.217 412.545 238.813 411.601 239.244C410.674 239.674 409.639 239.89 408.496 239.89C407.154 239.89 405.962 239.608 404.918 239.045C403.875 238.465 403.063 237.646 402.484 236.586C401.904 235.526 401.614 234.275 401.614 232.834C401.614 231.393 401.904 230.143 402.484 229.083C403.063 228.006 403.875 227.186 404.918 226.623C405.962 226.06 407.154 225.779 408.496 225.779C409.854 225.779 411.038 226.06 412.049 226.623C413.075 227.186 413.862 227.965 414.409 228.959C414.972 229.936 415.253 231.054 415.253 232.312ZM411.726 231.965C411.775 230.838 411.477 229.985 410.831 229.406C410.202 228.826 409.423 228.536 408.496 228.536C407.552 228.536 406.757 228.826 406.111 229.406C405.465 229.985 405.109 230.838 405.043 231.965H411.726ZM421.243 228.586C421.756 227.708 422.435 227.021 423.28 226.524C424.125 226.01 425.069 225.754 426.112 225.754V229.505H425.094C422.527 229.505 421.243 230.698 421.243 233.083V239.716H417.74V225.953H421.243V228.586ZM432.796 225.779C434.469 225.779 435.81 226.201 436.821 227.046C437.831 227.89 438.46 229.017 438.709 230.424H435.43C435.297 229.762 434.999 229.232 434.535 228.834C434.071 228.437 433.467 228.238 432.722 228.238C432.125 228.238 431.662 228.379 431.33 228.66C430.999 228.942 430.834 229.323 430.834 229.803C430.834 230.184 430.966 230.491 431.231 230.722C431.496 230.954 431.827 231.137 432.225 231.269C432.622 231.402 433.194 231.559 433.939 231.741C434.982 231.973 435.827 232.221 436.473 232.486C437.135 232.735 437.699 233.141 438.162 233.704C438.643 234.25 438.883 234.996 438.883 235.94C438.883 237.116 438.419 238.068 437.492 238.797C436.581 239.525 435.347 239.89 433.79 239.89C432.001 239.89 430.569 239.492 429.492 238.697C428.415 237.886 427.761 236.735 427.529 235.244H430.883C430.966 235.923 431.264 236.461 431.778 236.859C432.291 237.24 432.962 237.43 433.79 237.43C434.386 237.43 434.842 237.289 435.156 237.008C435.471 236.71 435.628 236.329 435.628 235.865C435.628 235.468 435.488 235.145 435.206 234.896C434.941 234.648 434.601 234.457 434.187 234.325C433.79 234.192 433.218 234.035 432.473 233.853C431.446 233.621 430.61 233.389 429.964 233.157C429.335 232.909 428.788 232.519 428.324 231.989C427.877 231.459 427.654 230.731 427.654 229.803C427.654 228.611 428.109 227.642 429.02 226.897C429.931 226.151 431.19 225.779 432.796 225.779Z" fill="white"/>
<g clip-path="url(#clip2_2638_111309)">
<path d="M414.404 509.113H389.255C383.522 509.113 378.858 504.449 378.858 498.716V478.22C378.858 472.487 383.522 467.823 389.255 467.823H414.404C420.137 467.823 424.801 472.487 424.801 478.22V485.851H419.567V478.22C419.567 475.373 417.251 473.057 414.404 473.057H389.255C386.408 473.057 384.092 475.373 384.092 478.22V498.716C384.092 501.563 386.408 503.879 389.255 503.879H414.404C417.251 503.879 419.567 501.563 419.567 498.716V491.085H424.801V498.716C424.801 504.449 420.137 509.113 414.404 509.113Z" fill="white"/>
<g opacity="0.75">
<path d="M408.833 496.313H394.247C389.924 496.313 386.42 492.809 386.42 488.486V488.439C386.42 484.116 389.924 480.611 394.248 480.611H408.833C413.156 480.611 416.66 484.116 416.66 488.438V488.485C416.66 492.809 413.156 496.313 408.833 496.313ZM391.654 488.405V488.519C391.654 489.933 392.8 491.079 394.214 491.079H408.866C410.28 491.079 411.426 489.933 411.426 488.519V488.405C411.426 486.992 410.28 485.845 408.866 485.845H394.214C392.8 485.845 391.654 486.992 391.654 488.405Z" fill="white"/>
</g>
<path d="M404.444 480.608H399.21V496.31H404.444V480.608Z" fill="white"/>
<path d="M415.498 466.657H387.584V454.444H415.498V466.657ZM392.818 461.423H410.264V459.678H392.818V461.423Z" fill="white"/>
<g opacity="0.75">
<path d="M409.683 473.066H393.981V461.435H409.683V473.066ZM399.215 467.832H404.449V466.668H399.215V467.832Z" fill="white"/>
</g>
</g>
<path d="M326.91 554.935V561.444H323.407V543.905H329.791C331.862 543.905 333.419 544.402 334.462 545.395C335.522 546.389 336.052 547.739 336.052 549.445C336.052 551.118 335.505 552.451 334.412 553.445C333.336 554.438 331.795 554.935 329.791 554.935H326.91ZM329.419 552.128C331.472 552.128 332.499 551.234 332.499 549.445C332.499 548.567 332.259 547.896 331.779 547.433C331.299 546.969 330.512 546.737 329.419 546.737H326.91V552.128H329.419ZM346.526 547.482C348.116 547.482 349.383 548.004 350.327 549.047C351.271 550.091 351.743 551.557 351.743 553.445V561.444H348.265V553.842C348.265 552.749 347.983 551.904 347.42 551.308C346.857 550.695 346.087 550.389 345.11 550.389C344.116 550.389 343.321 550.712 342.725 551.358C342.128 552.004 341.83 552.931 341.83 554.14V561.444H338.327V543.06H341.83V550.439C342.195 549.511 342.791 548.791 343.619 548.277C344.464 547.747 345.433 547.482 346.526 547.482ZM360.216 547.507C361.375 547.507 362.369 547.78 363.197 548.327C364.025 548.874 364.613 549.611 364.961 550.538V547.681H368.439V561.444H364.961V558.562C364.613 559.49 364.025 560.235 363.197 560.798C362.369 561.345 361.375 561.618 360.216 561.618C359.057 561.618 358.013 561.337 357.086 560.774C356.158 560.21 355.429 559.399 354.899 558.339C354.386 557.262 354.129 556.004 354.129 554.563C354.129 553.122 354.386 551.871 354.899 550.811C355.429 549.735 356.158 548.915 357.086 548.352C358.013 547.789 359.057 547.507 360.216 547.507ZM361.309 550.563C360.216 550.563 359.338 550.919 358.676 551.631C358.013 552.343 357.682 553.321 357.682 554.563C357.682 555.805 358.013 556.782 358.676 557.494C359.338 558.19 360.216 558.538 361.309 558.538C362.369 558.538 363.239 558.182 363.918 557.469C364.613 556.741 364.961 555.772 364.961 554.563C364.961 553.337 364.613 552.368 363.918 551.656C363.239 550.927 362.369 550.563 361.309 550.563ZM375.117 550.314C375.63 549.437 376.309 548.749 377.154 548.252C377.998 547.739 378.943 547.482 379.986 547.482V551.234H378.967C376.4 551.234 375.117 552.426 375.117 554.811V561.444H371.614V547.681H375.117V550.314ZM399.439 547.482C401.112 547.482 402.429 548.004 403.39 549.047C404.367 550.074 404.855 551.54 404.855 553.445V561.444H401.377V553.842C401.377 552.782 401.104 551.971 400.557 551.408C400.027 550.828 399.29 550.538 398.346 550.538C397.369 550.538 396.591 550.844 396.011 551.457C395.431 552.07 395.141 552.964 395.141 554.14V561.444H391.663V553.842C391.663 552.782 391.39 551.971 390.844 551.408C390.314 550.828 389.577 550.538 388.632 550.538C387.655 550.538 386.877 550.844 386.297 551.457C385.718 552.07 385.428 552.964 385.428 554.14V561.444H381.925V547.681H385.428V550.29C385.792 549.395 386.363 548.708 387.142 548.228C387.937 547.731 388.856 547.482 389.9 547.482C391.009 547.482 391.97 547.747 392.781 548.277C393.609 548.807 394.231 549.569 394.645 550.563C395.075 549.619 395.713 548.874 396.558 548.327C397.419 547.764 398.379 547.482 399.439 547.482ZM413.324 547.507C414.483 547.507 415.477 547.78 416.305 548.327C417.133 548.874 417.721 549.611 418.069 550.538V547.681H421.547V561.444H418.069V558.562C417.721 559.49 417.133 560.235 416.305 560.798C415.477 561.345 414.483 561.618 413.324 561.618C412.164 561.618 411.121 561.337 410.194 560.774C409.266 560.21 408.537 559.399 408.007 558.339C407.494 557.262 407.237 556.004 407.237 554.563C407.237 553.122 407.494 551.871 408.007 550.811C408.537 549.735 409.266 548.915 410.194 548.352C411.121 547.789 412.164 547.507 413.324 547.507ZM414.417 550.563C413.324 550.563 412.446 550.919 411.784 551.631C411.121 552.343 410.79 553.321 410.79 554.563C410.79 555.805 411.121 556.782 411.784 557.494C412.446 558.19 413.324 558.538 414.417 558.538C415.477 558.538 416.346 558.182 417.026 557.469C417.721 556.741 418.069 555.772 418.069 554.563C418.069 553.337 417.721 552.368 417.026 551.656C416.346 550.927 415.477 550.563 414.417 550.563ZM430.908 547.507C432.68 547.507 434.154 547.987 435.33 548.948C436.522 549.909 437.268 551.217 437.566 552.873H433.864C433.715 552.145 433.375 551.573 432.845 551.159C432.315 550.728 431.645 550.513 430.833 550.513C429.906 550.513 429.127 550.861 428.498 551.557C427.885 552.236 427.579 553.238 427.579 554.563C427.579 555.888 427.885 556.898 428.498 557.594C429.127 558.273 429.906 558.612 430.833 558.612C431.645 558.612 432.315 558.405 432.845 557.991C433.375 557.56 433.715 556.981 433.864 556.252H437.566C437.268 557.908 436.522 559.217 435.33 560.177C434.154 561.138 432.68 561.618 430.908 561.618C429.566 561.618 428.374 561.337 427.33 560.774C426.287 560.194 425.475 559.374 424.896 558.314C424.316 557.254 424.026 556.004 424.026 554.563C424.026 553.122 424.316 551.871 424.896 550.811C425.475 549.735 426.287 548.915 427.33 548.352C428.374 547.789 429.566 547.507 430.908 547.507ZM439.657 543.731C439.657 543.168 439.856 542.712 440.253 542.365C440.651 542 441.173 541.818 441.819 541.818C442.465 541.818 442.986 542 443.384 542.365C443.781 542.712 443.98 543.168 443.98 543.731C443.98 544.277 443.781 544.733 443.384 545.097C442.986 545.445 442.465 545.619 441.819 545.619C441.173 545.619 440.651 545.445 440.253 545.097C439.856 544.733 439.657 544.277 439.657 543.731ZM443.558 547.681V561.444H440.055V547.681H443.558ZM451.472 547.507C453.144 547.507 454.486 547.929 455.496 548.774C456.507 549.619 457.136 550.745 457.384 552.153H454.105C453.973 551.49 453.674 550.96 453.211 550.563C452.747 550.165 452.142 549.967 451.397 549.967C450.801 549.967 450.337 550.107 450.006 550.389C449.675 550.671 449.509 551.051 449.509 551.532C449.509 551.913 449.642 552.219 449.907 552.451C450.172 552.683 450.503 552.865 450.9 552.998C451.298 553.13 451.869 553.287 452.614 553.47C453.658 553.701 454.503 553.95 455.149 554.215C455.811 554.463 456.374 554.869 456.838 555.432C457.318 555.979 457.558 556.724 457.558 557.668C457.558 558.844 457.095 559.796 456.167 560.525C455.256 561.254 454.022 561.618 452.465 561.618C450.677 561.618 449.244 561.221 448.167 560.426C447.091 559.614 446.437 558.463 446.205 556.973H449.559C449.642 557.652 449.94 558.19 450.453 558.587C450.967 558.968 451.637 559.159 452.465 559.159C453.062 559.159 453.517 559.018 453.832 558.736C454.146 558.438 454.304 558.057 454.304 557.594C454.304 557.196 454.163 556.873 453.881 556.625C453.616 556.376 453.277 556.186 452.863 556.053C452.465 555.921 451.894 555.763 451.149 555.581C450.122 555.349 449.285 555.118 448.64 554.886C448.01 554.637 447.464 554.248 447 553.718C446.553 553.188 446.329 552.459 446.329 551.532C446.329 550.339 446.785 549.37 447.695 548.625C448.606 547.88 449.865 547.507 451.472 547.507ZM467.521 558.438V561.444H465.683C464.142 561.444 462.958 561.072 462.13 560.326C461.318 559.581 460.913 558.339 460.913 556.6V550.637H459V547.681H460.913V544.277H464.416V547.681H467.496V550.637H464.416V556.65C464.416 557.312 464.548 557.776 464.813 558.041C465.078 558.306 465.525 558.438 466.155 558.438H467.521ZM474.787 547.507C476.46 547.507 477.801 547.929 478.811 548.774C479.822 549.619 480.451 550.745 480.7 552.153H477.42C477.288 551.49 476.99 550.96 476.526 550.563C476.062 550.165 475.458 549.967 474.712 549.967C474.116 549.967 473.652 550.107 473.321 550.389C472.99 550.671 472.824 551.051 472.824 551.532C472.824 551.913 472.957 552.219 473.222 552.451C473.487 552.683 473.818 552.865 474.215 552.998C474.613 553.13 475.184 553.287 475.93 553.47C476.973 553.701 477.818 553.95 478.464 554.215C479.126 554.463 479.689 554.869 480.153 555.432C480.633 555.979 480.873 556.724 480.873 557.668C480.873 558.844 480.41 559.796 479.482 560.525C478.571 561.254 477.337 561.618 475.78 561.618C473.992 561.618 472.559 561.221 471.483 560.426C470.406 559.614 469.752 558.463 469.52 556.973H472.874C472.957 557.652 473.255 558.19 473.768 558.587C474.282 558.968 474.952 559.159 475.78 559.159C476.377 559.159 476.832 559.018 477.147 558.736C477.462 558.438 477.619 558.057 477.619 557.594C477.619 557.196 477.478 556.873 477.197 556.625C476.932 556.376 476.592 556.186 476.178 556.053C475.78 555.921 475.209 555.763 474.464 555.581C473.437 555.349 472.601 555.118 471.955 554.886C471.325 554.637 470.779 554.248 470.315 553.718C469.868 553.188 469.644 552.459 469.644 551.532C469.644 550.339 470.1 549.37 471.011 548.625C471.921 547.88 473.18 547.507 474.787 547.507Z" fill="white"/>
<path d="M305.586 347.199V14.292L592.297 181.071L305.586 347.199Z" fill="black" fill-opacity="0.4"/>
<path d="M305.586 347.199V14.292L592.297 181.071L305.586 347.199Z" stroke="#711F3C"/>
<path d="M592.297 513.496V183.954L307.6 348.77L592.297 513.496Z" fill="black" fill-opacity="0.4"/>
<path d="M592.297 513.496V183.954L307.6 348.77L592.297 513.496Z" stroke="#711F3C"/>
<path d="M302.875 349.684V682.591L14 515.812L302.875 349.684Z" fill="black" fill-opacity="0.4"/>
<path d="M302.875 349.684V682.591L14 515.812L302.875 349.684Z" stroke="#711F3C"/>
<path d="M305.586 682.595V349.688L592.297 516.468L305.586 682.595Z" fill="black" fill-opacity="0.4"/>
<path d="M305.586 682.595V349.688L592.297 516.468L305.586 682.595Z" stroke="#711F3C"/>
<path d="M13.6719 514.507V182.022L300.502 348.59L13.6719 514.507Z" fill="#D81D5B"/>
<path d="M13.6719 514.507V182.022L300.502 348.59L13.6719 514.507Z" stroke="white"/>
<path d="M13.6719 514.506V182.021L300.502 348.589L13.6719 514.506Z" fill="black" fill-opacity="0.4"/>
<path d="M13.6719 514.506V182.021L300.502 348.589L13.6719 514.506Z" stroke="#711F3C"/>
<g opacity="0.5">
<g clip-path="url(#clip3_2638_111309)">
<g opacity="0.75">
<path d="M117.417 295.015H112.183V310.716H117.417V295.015Z" fill="white"/>
</g>
<g opacity="0.75">
<path d="M122.645 300.257H106.943V305.491H122.645V300.257Z" fill="white"/>
</g>
<path d="M104.48 338.143C104.213 338.143 103.945 338.128 103.677 338.1C100.858 337.803 98.3569 335.998 96.8147 333.149C93.6493 327.3 90.4874 301.408 98.6476 293.072C101.991 289.656 106.941 287.59 111.888 287.546L111.932 292.78C108.349 292.812 104.644 294.342 102.263 296.772C99.711 299.377 98.3779 305.726 98.6065 314.193C98.8184 322.055 100.301 328.771 101.289 330.596C102.02 331.945 103.054 332.755 104.202 332.876C105.07 332.965 105.883 332.646 106.433 331.995C107.43 330.813 107.367 328.369 107.308 326.005C107.23 322.99 107.15 319.871 109.055 317.574C110.416 315.932 112.334 314.989 114.317 314.986H114.325C116.236 314.986 118.023 315.867 119.357 317.468C121.36 319.871 121.417 323.161 121.466 326.064C121.507 328.476 121.545 330.754 122.573 331.899C123.122 332.51 124.027 332.865 124.905 332.828C125.479 332.804 126.296 332.601 126.926 331.771C129.074 328.942 132.838 308.04 126.534 297.729C124.587 294.543 120.325 292.882 117.122 292.888L117.113 287.654H117.139C121.758 287.654 127.789 289.91 130.872 294.958C138 306.629 134.746 330.015 130.967 334.998C129.537 336.884 127.459 337.977 125.117 338.076C122.721 338.176 120.366 337.197 118.804 335.456C116.467 332.851 116.407 329.305 116.354 326.177C116.318 324.049 116.281 321.847 115.463 320.865C115.102 320.431 114.729 320.22 114.325 320.22H114.324C113.852 320.221 113.342 320.498 112.958 320.962C112.312 321.741 112.368 323.946 112.418 325.891C112.499 329.092 112.592 332.719 110.308 335.43C108.849 337.161 106.715 338.142 104.48 338.143Z" fill="white"/>
</g>
<path d="M79.6746 383.708C79.6746 385.447 79.3102 386.979 78.5815 388.304C77.8527 389.629 76.7928 390.665 75.4015 391.41C74.0268 392.139 72.3872 392.503 70.4825 392.503H64.2468V374.963H70.4825C72.3872 374.963 74.0268 375.328 75.4015 376.057C76.7928 376.769 77.8527 377.787 78.5815 379.112C79.3102 380.421 79.6746 381.953 79.6746 383.708ZM70.1844 389.373C72.0725 389.373 73.53 388.876 74.5568 387.882C75.6003 386.888 76.122 385.497 76.122 383.708C76.122 381.903 75.6003 380.504 74.5568 379.51C73.53 378.516 72.0725 378.019 70.1844 378.019H67.7497V389.373H70.1844ZM95.2406 385.1C95.2406 385.447 95.1992 385.845 95.1164 386.292H85.0299C85.0796 387.518 85.4109 388.42 86.0237 389C86.6365 389.58 87.3984 389.87 88.3093 389.87C89.1208 389.87 89.7916 389.671 90.3216 389.273C90.8682 388.876 91.216 388.337 91.365 387.658H95.0667C94.8845 388.619 94.4953 389.48 93.8991 390.242C93.3028 391.004 92.5327 391.6 91.5886 392.031C90.6611 392.462 89.626 392.677 88.4832 392.677C87.1416 392.677 85.9492 392.395 84.9057 391.832C83.8623 391.252 83.0507 390.433 82.4711 389.373C81.8914 388.313 81.6015 387.062 81.6015 385.621C81.6015 384.18 81.8914 382.93 82.4711 381.87C83.0507 380.793 83.8623 379.974 84.9057 379.41C85.9492 378.847 87.1416 378.566 88.4832 378.566C89.8413 378.566 91.0255 378.847 92.0358 379.41C93.0627 379.974 93.8494 380.752 94.3959 381.746C94.9591 382.723 95.2406 383.841 95.2406 385.1ZM91.7128 384.752C91.7625 383.626 91.4644 382.773 90.8185 382.193C90.1891 381.613 89.4107 381.323 88.4832 381.323C87.5391 381.323 86.7441 381.613 86.0982 382.193C85.4523 382.773 85.0962 383.626 85.0299 384.752H91.7128ZM105.926 378.541C107.516 378.541 108.783 379.063 109.727 380.106C110.671 381.149 111.143 382.615 111.143 384.503V392.503H107.665V384.901C107.665 383.808 107.383 382.963 106.82 382.367C106.257 381.754 105.487 381.448 104.51 381.448C103.516 381.448 102.721 381.771 102.125 382.416C101.528 383.062 101.23 383.99 101.23 385.199V392.503H97.7273V378.74H101.23V381.497C101.595 380.57 102.191 379.849 103.019 379.336C103.864 378.806 104.833 378.541 105.926 378.541ZM121.579 389.497V392.503H119.74C118.2 392.503 117.016 392.13 116.188 391.385C115.376 390.64 114.97 389.397 114.97 387.658V381.696H113.057V378.74H114.97V375.336H118.473V378.74H121.554V381.696H118.473V387.708C118.473 388.371 118.606 388.834 118.871 389.099C119.136 389.364 119.583 389.497 120.212 389.497H121.579ZM123.702 374.789C123.702 374.226 123.901 373.771 124.298 373.423C124.696 373.059 125.217 372.877 125.863 372.877C126.509 372.877 127.031 373.059 127.428 373.423C127.826 373.771 128.025 374.226 128.025 374.789C128.025 375.336 127.826 375.792 127.428 376.156C127.031 376.504 126.509 376.678 125.863 376.678C125.217 376.678 124.696 376.504 124.298 376.156C123.901 375.792 123.702 375.336 123.702 374.789ZM127.602 378.74V392.503H124.099V378.74H127.602ZM135.516 378.566C137.189 378.566 138.531 378.988 139.541 379.833C140.551 380.677 141.181 381.804 141.429 383.211H138.15C138.017 382.549 137.719 382.019 137.255 381.621C136.792 381.224 136.187 381.025 135.442 381.025C134.845 381.025 134.382 381.166 134.05 381.448C133.719 381.729 133.554 382.11 133.554 382.59C133.554 382.971 133.686 383.278 133.951 383.51C134.216 383.741 134.547 383.924 134.945 384.056C135.342 384.189 135.914 384.346 136.659 384.528C137.702 384.76 138.547 385.008 139.193 385.273C139.856 385.522 140.419 385.928 140.882 386.491C141.363 387.037 141.603 387.783 141.603 388.727C141.603 389.903 141.139 390.855 140.212 391.584C139.301 392.312 138.067 392.677 136.51 392.677C134.721 392.677 133.289 392.279 132.212 391.484C131.136 390.673 130.481 389.522 130.249 388.031H133.603C133.686 388.71 133.984 389.248 134.498 389.646C135.011 390.027 135.682 390.217 136.51 390.217C137.106 390.217 137.562 390.077 137.876 389.795C138.191 389.497 138.348 389.116 138.348 388.652C138.348 388.255 138.208 387.932 137.926 387.683C137.661 387.435 137.322 387.244 136.907 387.112C136.51 386.979 135.939 386.822 135.193 386.64C134.166 386.408 133.33 386.176 132.684 385.944C132.055 385.696 131.508 385.307 131.044 384.777C130.597 384.247 130.374 383.518 130.374 382.59C130.374 381.398 130.829 380.429 131.74 379.684C132.651 378.938 133.91 378.566 135.516 378.566ZM151.566 389.497V392.503H149.727C148.187 392.503 147.003 392.13 146.175 391.385C145.363 390.64 144.957 389.397 144.957 387.658V381.696H143.044V378.74H144.957V375.336H148.46V378.74H151.541V381.696H148.46V387.708C148.46 388.371 148.593 388.834 148.858 389.099C149.123 389.364 149.57 389.497 150.199 389.497H151.566ZM158.831 378.566C160.504 378.566 161.846 378.988 162.856 379.833C163.866 380.677 164.496 381.804 164.744 383.211H161.465C161.332 382.549 161.034 382.019 160.57 381.621C160.107 381.224 159.502 381.025 158.757 381.025C158.161 381.025 157.697 381.166 157.366 381.448C157.034 381.729 156.869 382.11 156.869 382.59C156.869 382.971 157.001 383.278 157.266 383.51C157.531 383.741 157.862 383.924 158.26 384.056C158.657 384.189 159.229 384.346 159.974 384.528C161.018 384.76 161.862 385.008 162.508 385.273C163.171 385.522 163.734 385.928 164.198 386.491C164.678 387.037 164.918 387.783 164.918 388.727C164.918 389.903 164.454 390.855 163.527 391.584C162.616 392.312 161.382 392.677 159.825 392.677C158.036 392.677 156.604 392.279 155.527 391.484C154.451 390.673 153.796 389.522 153.564 388.031H156.918C157.001 388.71 157.299 389.248 157.813 389.646C158.326 390.027 158.997 390.217 159.825 390.217C160.421 390.217 160.877 390.077 161.191 389.795C161.506 389.497 161.663 389.116 161.663 388.652C161.663 388.255 161.523 387.932 161.241 387.683C160.976 387.435 160.637 387.244 160.223 387.112C159.825 386.979 159.254 386.822 158.508 386.64C157.481 386.408 156.645 386.176 155.999 385.944C155.37 385.696 154.823 385.307 154.359 384.777C153.912 384.247 153.689 383.518 153.689 382.59C153.689 381.398 154.144 380.429 155.055 379.684C155.966 378.938 157.225 378.566 158.831 378.566Z" fill="white"/>
</g>
<path d="M300.864 350.651L306.875 354.148V347.193V14.2866V7.34589L300.87 10.8256L14.159 176.953L8.19751 180.407L14.1531 183.872L300.864 350.651Z" fill="#D81D5B" stroke="white" stroke-width="8"/>
<g clip-path="url(#clip4_2638_111309)">
<path d="M211.699 139.327H210.536C208.297 139.327 206.465 137.495 206.465 135.256C206.465 133.017 208.297 131.186 210.536 131.186H211.699C213.938 131.186 215.77 133.017 215.77 135.256C215.77 137.495 213.938 139.327 211.699 139.327Z" fill="white"/>
<path d="M196.58 139.327H195.417C193.178 139.327 191.346 137.495 191.346 135.256C191.346 133.017 193.178 131.186 195.417 131.186H196.58C198.819 131.186 200.65 133.017 200.65 135.256C200.65 137.495 198.819 139.327 196.58 139.327Z" fill="white"/>
<g opacity="0.95">
<path d="M225.033 188.907H208.132C204.174 188.907 201.074 184.678 201.074 179.279V166.518H206.308V179.279C206.308 182.163 207.663 183.673 208.132 183.673H225.033C225.501 183.673 226.856 182.163 226.856 179.279V170.01H232.09V179.279C232.09 184.678 228.99 188.907 225.033 188.907Z" fill="white"/>
</g>
<g opacity="0.75">
<path d="M220.7 135.648C218.266 133.309 214.663 132.858 210.43 132.814V137.087C213.662 137.123 216.294 137.416 217.626 138.695C218.516 139.551 218.949 140.986 218.949 143.081C218.949 147.487 217.072 153.443 214.167 158.255C211.026 163.458 207.238 166.441 203.776 166.441C195.952 166.441 188.603 151.868 188.603 143.081C188.603 140.986 189.036 139.551 189.927 138.695C191.281 137.394 193.978 137.114 197.285 137.086V132.812C192.982 132.846 189.318 133.279 186.853 135.648C185.082 137.349 184.222 139.781 184.222 143.081C184.222 152.789 192.286 170.717 203.776 170.717C215.267 170.717 223.331 152.789 223.331 143.081C223.331 139.781 222.47 137.349 220.7 135.648Z" fill="white"/>
</g>
<g opacity="0.75">
<path d="M229.583 174.655C225.574 174.655 222.313 171.394 222.313 167.386C222.313 163.377 225.574 160.116 229.583 160.116C233.591 160.116 236.852 163.377 236.852 167.386C236.852 171.394 233.591 174.655 229.583 174.655ZM229.583 165.35C228.461 165.35 227.547 166.263 227.547 167.386C227.547 168.508 228.461 169.421 229.583 169.421C230.705 169.421 231.618 168.508 231.618 167.386C231.618 166.263 230.705 165.35 229.583 165.35Z" fill="white"/>
</g>
</g>
<path d="M147.974 233.207V239.716H144.471V222.176H150.856C152.926 222.176 154.483 222.673 155.526 223.667C156.586 224.661 157.116 226.01 157.116 227.716C157.116 229.389 156.57 230.722 155.477 231.716C154.4 232.71 152.86 233.207 150.856 233.207H147.974ZM150.483 230.399C152.537 230.399 153.564 229.505 153.564 227.716C153.564 226.839 153.323 226.168 152.843 225.704C152.363 225.24 151.576 225.008 150.483 225.008H147.974V230.399H150.483ZM167.59 225.754C169.18 225.754 170.447 226.275 171.391 227.319C172.335 228.362 172.807 229.828 172.807 231.716V239.716H169.329V232.114C169.329 231.021 169.047 230.176 168.484 229.58C167.921 228.967 167.151 228.66 166.174 228.66C165.18 228.66 164.385 228.983 163.789 229.629C163.193 230.275 162.894 231.203 162.894 232.412V239.716H159.392V221.332H162.894V228.71C163.259 227.783 163.855 227.062 164.683 226.549C165.528 226.019 166.497 225.754 167.59 225.754ZM178.249 225.953L182.001 235.294L185.479 225.953H189.33L180.908 246.275H177.032L180.137 239.318L174.349 225.953H178.249ZM195.725 225.779C197.398 225.779 198.739 226.201 199.749 227.046C200.76 227.89 201.389 229.017 201.638 230.424H198.358C198.226 229.762 197.928 229.232 197.464 228.834C197 228.437 196.396 228.238 195.65 228.238C195.054 228.238 194.59 228.379 194.259 228.66C193.928 228.942 193.762 229.323 193.762 229.803C193.762 230.184 193.895 230.491 194.16 230.722C194.425 230.954 194.756 231.137 195.153 231.269C195.551 231.402 196.122 231.559 196.868 231.741C197.911 231.973 198.756 232.221 199.402 232.486C200.064 232.735 200.627 233.141 201.091 233.704C201.571 234.25 201.811 234.996 201.811 235.94C201.811 237.116 201.348 238.068 200.42 238.797C199.509 239.525 198.275 239.89 196.719 239.89C194.93 239.89 193.497 239.492 192.421 238.697C191.344 237.886 190.69 236.735 190.458 235.244H193.812C193.895 235.923 194.193 236.461 194.706 236.859C195.22 237.24 195.89 237.43 196.719 237.43C197.315 237.43 197.77 237.289 198.085 237.008C198.4 236.71 198.557 236.329 198.557 235.865C198.557 235.468 198.416 235.145 198.135 234.896C197.87 234.648 197.53 234.457 197.116 234.325C196.719 234.192 196.147 234.035 195.402 233.853C194.375 233.621 193.539 233.389 192.893 233.157C192.263 232.909 191.717 232.519 191.253 231.989C190.806 231.459 190.582 230.731 190.582 229.803C190.582 228.611 191.038 227.642 191.949 226.897C192.859 226.151 194.118 225.779 195.725 225.779ZM204.023 222.002C204.023 221.439 204.222 220.984 204.619 220.636C205.017 220.272 205.538 220.089 206.184 220.089C206.83 220.089 207.352 220.272 207.749 220.636C208.147 220.984 208.346 221.439 208.346 222.002C208.346 222.549 208.147 223.004 207.749 223.369C207.352 223.717 206.83 223.89 206.184 223.89C205.538 223.89 205.017 223.717 204.619 223.369C204.222 223.004 204.023 222.549 204.023 222.002ZM207.923 225.953V239.716H204.42V225.953H207.923ZM217.278 225.779C219.05 225.779 220.524 226.259 221.7 227.22C222.893 228.18 223.638 229.489 223.936 231.145H220.235C220.086 230.416 219.746 229.845 219.216 229.431C218.686 229 218.015 228.785 217.204 228.785C216.276 228.785 215.498 229.132 214.868 229.828C214.256 230.507 213.949 231.509 213.949 232.834C213.949 234.159 214.256 235.169 214.868 235.865C215.498 236.544 216.276 236.884 217.204 236.884C218.015 236.884 218.686 236.677 219.216 236.263C219.746 235.832 220.086 235.252 220.235 234.524H223.936C223.638 236.18 222.893 237.488 221.7 238.449C220.524 239.409 219.05 239.89 217.278 239.89C215.937 239.89 214.744 239.608 213.701 239.045C212.657 238.465 211.846 237.646 211.266 236.586C210.686 235.526 210.397 234.275 210.397 232.834C210.397 231.393 210.686 230.143 211.266 229.083C211.846 228.006 212.657 227.186 213.701 226.623C214.744 226.06 215.937 225.779 217.278 225.779ZM226.028 222.002C226.028 221.439 226.227 220.984 226.624 220.636C227.022 220.272 227.543 220.089 228.189 220.089C228.835 220.089 229.357 220.272 229.754 220.636C230.152 220.984 230.351 221.439 230.351 222.002C230.351 222.549 230.152 223.004 229.754 223.369C229.357 223.717 228.835 223.89 228.189 223.89C227.543 223.89 227.022 223.717 226.624 223.369C226.227 223.004 226.028 222.549 226.028 222.002ZM229.928 225.953V239.716H226.425V225.953H229.928ZM238.488 225.779C239.648 225.779 240.641 226.052 241.469 226.598C242.298 227.145 242.886 227.882 243.233 228.81V225.953H246.711V239.716H243.233V236.834C242.886 237.761 242.298 238.507 241.469 239.07C240.641 239.616 239.648 239.89 238.488 239.89C237.329 239.89 236.285 239.608 235.358 239.045C234.43 238.482 233.702 237.67 233.172 236.61C232.658 235.534 232.402 234.275 232.402 232.834C232.402 231.393 232.658 230.143 233.172 229.083C233.702 228.006 234.43 227.186 235.358 226.623C236.285 226.06 237.329 225.779 238.488 225.779ZM239.581 228.834C238.488 228.834 237.61 229.19 236.948 229.903C236.285 230.615 235.954 231.592 235.954 232.834C235.954 234.076 236.285 235.054 236.948 235.766C237.61 236.461 238.488 236.809 239.581 236.809C240.641 236.809 241.511 236.453 242.19 235.741C242.886 235.012 243.233 234.043 243.233 232.834C243.233 231.609 242.886 230.64 242.19 229.927C241.511 229.199 240.641 228.834 239.581 228.834ZM258.084 225.754C259.674 225.754 260.941 226.275 261.885 227.319C262.829 228.362 263.301 229.828 263.301 231.716V239.716H259.823V232.114C259.823 231.021 259.542 230.176 258.979 229.58C258.416 228.967 257.645 228.66 256.668 228.66C255.675 228.66 254.88 228.983 254.283 229.629C253.687 230.275 253.389 231.203 253.389 232.412V239.716H249.886V225.953H253.389V228.71C253.753 227.783 254.35 227.062 255.178 226.549C256.022 226.019 256.991 225.754 258.084 225.754ZM271.129 225.779C272.802 225.779 274.143 226.201 275.153 227.046C276.164 227.89 276.793 229.017 277.042 230.424H273.762C273.63 229.762 273.332 229.232 272.868 228.834C272.404 228.437 271.8 228.238 271.054 228.238C270.458 228.238 269.994 228.379 269.663 228.66C269.332 228.942 269.166 229.323 269.166 229.803C269.166 230.184 269.299 230.491 269.564 230.722C269.829 230.954 270.16 231.137 270.557 231.269C270.955 231.402 271.526 231.559 272.272 231.741C273.315 231.973 274.16 232.221 274.806 232.486C275.468 232.735 276.031 233.141 276.495 233.704C276.975 234.25 277.215 234.996 277.215 235.94C277.215 237.116 276.752 238.068 275.824 238.797C274.913 239.525 273.679 239.89 272.122 239.89C270.334 239.89 268.901 239.492 267.825 238.697C266.748 237.886 266.094 236.735 265.862 235.244H269.216C269.299 235.923 269.597 236.461 270.11 236.859C270.624 237.24 271.294 237.43 272.122 237.43C272.719 237.43 273.174 237.289 273.489 237.008C273.804 236.71 273.961 236.329 273.961 235.865C273.961 235.468 273.82 235.145 273.539 234.896C273.274 234.648 272.934 234.457 272.52 234.325C272.122 234.192 271.551 234.035 270.806 233.853C269.779 233.621 268.943 233.389 268.297 233.157C267.667 232.909 267.121 232.519 266.657 231.989C266.21 231.459 265.986 230.731 265.986 229.803C265.986 228.611 266.442 227.642 267.353 226.897C268.263 226.151 269.522 225.779 271.129 225.779Z" fill="white"/>
<defs>
<clipPath id="clip0_2638_111309">
<rect width="41.6102" height="40.2451" fill="white" transform="translate(194.712 461.649)"/>
</clipPath>
<clipPath id="clip1_2638_111309">
<rect width="58.7363" height="60.4549" fill="white" transform="translate(351.969 129.825)"/>
</clipPath>
<clipPath id="clip2_2638_111309">
<rect width="45.9422" height="54.6654" fill="white" transform="translate(378.863 454.424)"/>
</clipPath>
<clipPath id="clip3_2638_111309">
<rect width="41.6223" height="50.5967" fill="white" transform="translate(93.4736 287.536)"/>
</clipPath>
<clipPath id="clip4_2638_111309">
<rect width="52.63" height="57.7168" fill="white" transform="translate(184.224 131.174)"/>
</clipPath>
</defs>
</svg>
