<svg width="584" height="678" viewBox="0 0 584 678" fill="none" xmlns="http://www.w3.org/2000/svg">
<path d="M292.992 0L584 169.433L583.999 507.87L292.992 677.302L0 507.87V170.711L292.992 0Z" fill="#711F3C"/>
<path d="M291.871 4.68304V337.59L5.16043 170.811L291.871 4.68304Z" fill="#D81D5B"/>
<path d="M291.871 4.68304V337.59L5.16043 170.811L291.871 4.68304Z" stroke="#711F3C"/>
<path d="M294.586 337.594V4.6875L581.297 171.467L294.586 337.594Z" fill="#902F57"/>
<path d="M294.586 337.594V4.6875L581.297 171.467L294.586 337.594Z" stroke="#711F3C"/>
<path d="M2.67188 504.902V172.418L289.502 338.986L2.67188 504.902Z" fill="#D81D5B"/>
<path d="M2.67188 504.902V172.418L289.502 338.986L2.67188 504.902Z" stroke="#711F3C"/>
<path d="M581.297 503.891V174.35L296.6 339.165L581.297 503.891Z" fill="#A662A7"/>
<path d="M581.297 503.891V174.35L296.6 339.165L581.297 503.891Z" stroke="#711F3C"/>
<path d="M291.871 340.08V672.986L2.99609 506.207L291.871 340.08Z" fill="#D81D5B"/>
<path d="M291.871 340.08V672.986L2.99609 506.207L291.871 340.08Z" stroke="#711F3C"/>
<path d="M294.586 672.991V340.084L581.297 506.863L294.586 672.991Z" fill="#D81D5B"/>
<path d="M294.586 672.991V340.084L581.297 506.863L294.586 672.991Z" stroke="#711F3C"/>
<g clip-path="url(#clip0_2715_133950)">
<path d="M200.699 129.726H199.536C197.297 129.726 195.465 127.894 195.465 125.655C195.465 123.416 197.297 121.584 199.536 121.584H200.699C202.938 121.584 204.77 123.416 204.77 125.655C204.77 127.894 202.938 129.726 200.699 129.726Z" fill="white"/>
<path d="M185.581 129.726H184.418C182.179 129.726 180.347 127.894 180.347 125.655C180.347 123.416 182.179 121.584 184.418 121.584H185.581C187.82 121.584 189.651 123.416 189.651 125.655C189.651 127.894 187.82 129.726 185.581 129.726Z" fill="white"/>
<g opacity="0.95">
<path d="M214.033 179.306H197.132C193.175 179.306 190.075 175.076 190.075 169.678V156.916H195.309V169.678C195.309 172.561 196.664 174.072 197.132 174.072H214.033C214.502 174.072 215.856 172.561 215.856 169.678V160.409H221.09V169.678C221.09 175.076 217.991 179.306 214.033 179.306Z" fill="white"/>
</g>
<g opacity="0.75">
<path d="M209.7 126.044C207.266 123.705 203.663 123.254 199.43 123.209V127.483C202.662 127.518 205.295 127.811 206.626 129.091C207.517 129.946 207.95 131.381 207.95 133.477C207.95 137.882 206.072 143.838 203.167 148.65C200.026 153.853 196.239 156.837 192.777 156.837C184.953 156.837 177.604 142.264 177.604 133.477C177.604 131.381 178.037 129.946 178.927 129.091C180.281 127.79 182.979 127.51 186.286 127.482V123.207C181.982 123.242 178.318 123.675 175.853 126.044C174.083 127.745 173.222 130.176 173.222 133.477C173.222 143.184 181.286 161.113 192.777 161.113C204.267 161.113 212.331 143.184 212.331 133.477C212.331 130.176 211.471 127.745 209.7 126.044Z" fill="white"/>
</g>
<g opacity="0.75">
<path d="M218.583 165.052C214.574 165.052 211.313 161.791 211.313 157.783C211.313 153.775 214.574 150.514 218.583 150.514C222.591 150.514 225.852 153.775 225.852 157.783C225.852 161.791 222.591 165.052 218.583 165.052ZM218.583 155.748C217.461 155.748 216.547 156.661 216.547 157.783C216.547 158.905 217.461 159.818 218.583 159.818C219.705 159.818 220.618 158.905 220.618 157.783C220.618 156.661 219.705 155.748 218.583 155.748Z" fill="white"/>
</g>
</g>
<path d="M136.974 223.604V230.113H133.471V212.574H139.856C141.926 212.574 143.483 213.071 144.527 214.064C145.587 215.058 146.117 216.408 146.117 218.114C146.117 219.787 145.57 221.12 144.477 222.114C143.4 223.107 141.86 223.604 139.856 223.604H136.974ZM139.483 220.797C141.537 220.797 142.564 219.903 142.564 218.114C142.564 217.236 142.324 216.565 141.844 216.102C141.363 215.638 140.577 215.406 139.483 215.406H136.974V220.797H139.483ZM156.59 216.151C158.18 216.151 159.447 216.673 160.391 217.716C161.335 218.76 161.807 220.226 161.807 222.114V230.113H158.329V222.511C158.329 221.418 158.048 220.573 157.485 219.977C156.922 219.364 156.151 219.058 155.174 219.058C154.181 219.058 153.386 219.381 152.789 220.027C152.193 220.673 151.895 221.6 151.895 222.809V230.113H148.392V211.729H151.895V219.108C152.259 218.18 152.856 217.46 153.684 216.946C154.528 216.416 155.497 216.151 156.59 216.151ZM167.25 216.35L171.001 225.691L174.479 216.35H178.33L169.908 236.672H166.032L169.138 229.716L163.349 216.35H167.25ZM184.725 216.176C186.398 216.176 187.74 216.598 188.75 217.443C189.76 218.288 190.39 219.414 190.638 220.822H187.359C187.226 220.159 186.928 219.629 186.464 219.232C186.001 218.834 185.396 218.636 184.651 218.636C184.054 218.636 183.591 218.776 183.259 219.058C182.928 219.339 182.763 219.72 182.763 220.201C182.763 220.582 182.895 220.888 183.16 221.12C183.425 221.352 183.756 221.534 184.154 221.666C184.551 221.799 185.123 221.956 185.868 222.139C186.911 222.37 187.756 222.619 188.402 222.884C189.065 223.132 189.628 223.538 190.091 224.101C190.572 224.648 190.812 225.393 190.812 226.337C190.812 227.513 190.348 228.465 189.421 229.194C188.51 229.923 187.276 230.287 185.719 230.287C183.93 230.287 182.498 229.89 181.421 229.095C180.345 228.283 179.69 227.132 179.458 225.641H182.812C182.895 226.321 183.193 226.859 183.707 227.256C184.22 227.637 184.891 227.828 185.719 227.828C186.315 227.828 186.771 227.687 187.085 227.405C187.4 227.107 187.557 226.726 187.557 226.263C187.557 225.865 187.417 225.542 187.135 225.294C186.87 225.045 186.531 224.855 186.116 224.722C185.719 224.59 185.148 224.432 184.402 224.25C183.375 224.018 182.539 223.786 181.893 223.555C181.264 223.306 180.717 222.917 180.253 222.387C179.806 221.857 179.583 221.128 179.583 220.201C179.583 219.008 180.038 218.039 180.949 217.294C181.86 216.549 183.119 216.176 184.725 216.176ZM193.023 212.4C193.023 211.837 193.222 211.381 193.62 211.033C194.017 210.669 194.539 210.487 195.185 210.487C195.831 210.487 196.352 210.669 196.75 211.033C197.147 211.381 197.346 211.837 197.346 212.4C197.346 212.946 197.147 213.402 196.75 213.766C196.352 214.114 195.831 214.288 195.185 214.288C194.539 214.288 194.017 214.114 193.62 213.766C193.222 213.402 193.023 212.946 193.023 212.4ZM196.924 216.35V230.113H193.421V216.35H196.924ZM206.279 216.176C208.051 216.176 209.525 216.656 210.701 217.617C211.893 218.578 212.639 219.886 212.937 221.542H209.235C209.086 220.814 208.747 220.242 208.217 219.828C207.687 219.397 207.016 219.182 206.204 219.182C205.277 219.182 204.498 219.53 203.869 220.226C203.256 220.905 202.95 221.907 202.95 223.232C202.95 224.557 203.256 225.567 203.869 226.263C204.498 226.942 205.277 227.281 206.204 227.281C207.016 227.281 207.687 227.074 208.217 226.66C208.747 226.229 209.086 225.65 209.235 224.921H212.937C212.639 226.577 211.893 227.886 210.701 228.846C209.525 229.807 208.051 230.287 206.279 230.287C204.937 230.287 203.745 230.006 202.701 229.443C201.658 228.863 200.846 228.043 200.267 226.983C199.687 225.923 199.397 224.673 199.397 223.232C199.397 221.791 199.687 220.54 200.267 219.48C200.846 218.404 201.658 217.584 202.701 217.021C203.745 216.458 204.937 216.176 206.279 216.176ZM215.028 212.4C215.028 211.837 215.227 211.381 215.625 211.033C216.022 210.669 216.544 210.487 217.19 210.487C217.836 210.487 218.357 210.669 218.755 211.033C219.152 211.381 219.351 211.837 219.351 212.4C219.351 212.946 219.152 213.402 218.755 213.766C218.357 214.114 217.836 214.288 217.19 214.288C216.544 214.288 216.022 214.114 215.625 213.766C215.227 213.402 215.028 212.946 215.028 212.4ZM218.929 216.35V230.113H215.426V216.35H218.929ZM227.489 216.176C228.648 216.176 229.642 216.449 230.47 216.996C231.298 217.542 231.886 218.279 232.234 219.207V216.35H235.712V230.113H232.234V227.231C231.886 228.159 231.298 228.904 230.47 229.467C229.642 230.014 228.648 230.287 227.489 230.287C226.329 230.287 225.286 230.006 224.358 229.443C223.431 228.879 222.702 228.068 222.172 227.008C221.659 225.931 221.402 224.673 221.402 223.232C221.402 221.791 221.659 220.54 222.172 219.48C222.702 218.404 223.431 217.584 224.358 217.021C225.286 216.458 226.329 216.176 227.489 216.176ZM228.582 219.232C227.489 219.232 226.611 219.588 225.948 220.3C225.286 221.012 224.955 221.989 224.955 223.232C224.955 224.474 225.286 225.451 225.948 226.163C226.611 226.859 227.489 227.207 228.582 227.207C229.642 227.207 230.511 226.85 231.19 226.138C231.886 225.41 232.234 224.441 232.234 223.232C232.234 222.006 231.886 221.037 231.19 220.325C230.511 219.596 229.642 219.232 228.582 219.232ZM247.085 216.151C248.675 216.151 249.942 216.673 250.886 217.716C251.83 218.76 252.302 220.226 252.302 222.114V230.113H248.824V222.511C248.824 221.418 248.542 220.573 247.979 219.977C247.416 219.364 246.646 219.058 245.669 219.058C244.675 219.058 243.88 219.381 243.284 220.027C242.688 220.673 242.389 221.6 242.389 222.809V230.113H238.886V216.35H242.389V219.108C242.754 218.18 243.35 217.46 244.178 216.946C245.023 216.416 245.992 216.151 247.085 216.151ZM260.129 216.176C261.802 216.176 263.144 216.598 264.154 217.443C265.164 218.288 265.794 219.414 266.042 220.822H262.763C262.63 220.159 262.332 219.629 261.868 219.232C261.405 218.834 260.8 218.636 260.055 218.636C259.458 218.636 258.995 218.776 258.663 219.058C258.332 219.339 258.167 219.72 258.167 220.201C258.167 220.582 258.299 220.888 258.564 221.12C258.829 221.352 259.16 221.534 259.558 221.666C259.955 221.799 260.527 221.956 261.272 222.139C262.315 222.37 263.16 222.619 263.806 222.884C264.469 223.132 265.032 223.538 265.495 224.101C265.976 224.648 266.216 225.393 266.216 226.337C266.216 227.513 265.752 228.465 264.825 229.194C263.914 229.923 262.68 230.287 261.123 230.287C259.334 230.287 257.902 229.89 256.825 229.095C255.749 228.283 255.094 227.132 254.862 225.641H258.216C258.299 226.321 258.597 226.859 259.111 227.256C259.624 227.637 260.295 227.828 261.123 227.828C261.719 227.828 262.175 227.687 262.489 227.405C262.804 227.107 262.961 226.726 262.961 226.263C262.961 225.865 262.821 225.542 262.539 225.294C262.274 225.045 261.935 224.855 261.52 224.722C261.123 224.59 260.552 224.432 259.806 224.25C258.779 224.018 257.943 223.786 257.297 223.555C256.668 223.306 256.121 222.917 255.657 222.387C255.21 221.857 254.987 221.128 254.987 220.201C254.987 219.008 255.442 218.039 256.353 217.294C257.264 216.549 258.523 216.176 260.129 216.176Z" fill="white"/>
<g clip-path="url(#clip1_2715_133950)">
<g opacity="0.75">
<path d="M207.212 478.914H201.979V492.29H207.212V478.914Z" fill="white"/>
</g>
<g opacity="0.75">
<path d="M211.287 483.004H197.912V488.238H211.287V483.004Z" fill="white"/>
</g>
<path d="M204.519 471.574C192.991 471.574 183.623 480.62 183.715 491.705C183.716 491.707 183.717 491.708 183.719 491.709H185.76H188.944H194.639V486.475H189.889C192.078 480.839 197.81 476.808 204.519 476.808C211.228 476.808 216.961 480.839 219.15 486.475H214.412V491.709H220.095H224.076H225.32C225.322 491.708 225.322 491.707 225.324 491.705C225.416 480.62 216.048 471.574 204.519 471.574Z" fill="white"/>
<g opacity="0.75">
<path d="M204.692 476.807C197.588 476.807 191.808 471.251 191.808 464.422C191.808 457.593 197.588 452.037 204.692 452.037C211.797 452.037 217.577 457.593 217.577 464.422C217.577 471.251 211.797 476.807 204.692 476.807ZM204.692 457.271C200.474 457.271 197.042 460.479 197.042 464.422C197.042 468.366 200.474 471.573 204.692 471.573C208.911 471.573 212.343 468.366 212.343 464.422C212.343 460.479 208.911 457.271 204.692 457.271Z" fill="white"/>
</g>
</g>
<path d="M147.082 545.333V551.842H143.579V534.302H149.964C152.034 534.302 153.591 534.799 154.635 535.793C155.694 536.787 156.224 538.136 156.224 539.842C156.224 541.515 155.678 542.848 154.585 543.842C153.508 544.836 151.968 545.333 149.964 545.333H147.082ZM149.591 542.525C151.645 542.525 152.672 541.631 152.672 539.842C152.672 538.965 152.432 538.294 151.951 537.83C151.471 537.366 150.684 537.134 149.591 537.134H147.082V542.525H149.591ZM171.443 544.438C171.443 544.786 171.402 545.184 171.319 545.631H161.233C161.282 546.857 161.614 547.759 162.226 548.339C162.839 548.919 163.601 549.208 164.512 549.208C165.323 549.208 165.994 549.01 166.524 548.612C167.071 548.215 167.419 547.676 167.568 546.997H171.269C171.087 547.958 170.698 548.819 170.102 549.581C169.505 550.343 168.735 550.939 167.791 551.37C166.864 551.8 165.829 552.016 164.686 552.016C163.344 552.016 162.152 551.734 161.108 551.171C160.065 550.591 159.253 549.772 158.674 548.712C158.094 547.652 157.804 546.401 157.804 544.96C157.804 543.519 158.094 542.269 158.674 541.209C159.253 540.132 160.065 539.312 161.108 538.749C162.152 538.186 163.344 537.905 164.686 537.905C166.044 537.905 167.228 538.186 168.238 538.749C169.265 539.312 170.052 540.091 170.599 541.085C171.162 542.062 171.443 543.18 171.443 544.438ZM167.916 544.091C167.965 542.964 167.667 542.111 167.021 541.532C166.392 540.952 165.613 540.662 164.686 540.662C163.742 540.662 162.947 540.952 162.301 541.532C161.655 542.111 161.299 542.964 161.233 544.091H167.916ZM177.433 540.712C177.946 539.834 178.625 539.147 179.47 538.65C180.315 538.136 181.259 537.88 182.302 537.88V541.631H181.284C178.716 541.631 177.433 542.824 177.433 545.209V551.842H173.93V538.078H177.433V540.712ZM188.986 537.905C190.659 537.905 192 538.327 193.011 539.172C194.021 540.016 194.65 541.143 194.899 542.55H191.62C191.487 541.888 191.189 541.358 190.725 540.96C190.261 540.563 189.657 540.364 188.912 540.364C188.315 540.364 187.852 540.505 187.52 540.786C187.189 541.068 187.023 541.449 187.023 541.929C187.023 542.31 187.156 542.617 187.421 542.848C187.686 543.08 188.017 543.262 188.415 543.395C188.812 543.527 189.384 543.685 190.129 543.867C191.172 544.099 192.017 544.347 192.663 544.612C193.325 544.861 193.889 545.267 194.352 545.83C194.833 546.376 195.073 547.122 195.073 548.066C195.073 549.242 194.609 550.194 193.682 550.923C192.771 551.651 191.537 552.016 189.98 552.016C188.191 552.016 186.758 551.618 185.682 550.823C184.605 550.012 183.951 548.861 183.719 547.37H187.073C187.156 548.049 187.454 548.587 187.968 548.985C188.481 549.366 189.152 549.556 189.98 549.556C190.576 549.556 191.032 549.415 191.346 549.134C191.661 548.836 191.818 548.455 191.818 547.991C191.818 547.594 191.677 547.271 191.396 547.022C191.131 546.774 190.791 546.583 190.377 546.451C189.98 546.318 189.408 546.161 188.663 545.979C187.636 545.747 186.8 545.515 186.154 545.283C185.525 545.035 184.978 544.645 184.514 544.115C184.067 543.585 183.844 542.857 183.844 541.929C183.844 540.737 184.299 539.768 185.21 539.023C186.121 538.277 187.38 537.905 188.986 537.905ZM204.042 537.905C205.383 537.905 206.584 538.186 207.644 538.749C208.721 539.312 209.565 540.132 210.178 541.209C210.791 542.269 211.097 543.519 211.097 544.96C211.097 546.401 210.791 547.652 210.178 548.712C209.565 549.772 208.721 550.591 207.644 551.171C206.584 551.734 205.383 552.016 204.042 552.016C202.7 552.016 201.491 551.734 200.415 551.171C199.355 550.591 198.518 549.772 197.905 548.712C197.293 547.652 196.986 546.401 196.986 544.96C196.986 543.519 197.293 542.269 197.905 541.209C198.518 540.132 199.355 539.312 200.415 538.749C201.491 538.186 202.7 537.905 204.042 537.905ZM204.042 540.935C203.065 540.935 202.236 541.283 201.557 541.979C200.878 542.658 200.539 543.652 200.539 544.96C200.539 546.269 200.878 547.271 201.557 547.966C202.236 548.645 203.065 548.985 204.042 548.985C205.019 548.985 205.847 548.645 206.526 547.966C207.205 547.271 207.545 546.269 207.545 544.96C207.545 543.652 207.205 542.658 206.526 541.979C205.847 541.283 205.019 540.935 204.042 540.935ZM221.771 537.88C223.361 537.88 224.628 538.401 225.572 539.445C226.516 540.488 226.988 541.954 226.988 543.842V551.842H223.51V544.24C223.51 543.147 223.229 542.302 222.666 541.706C222.102 541.093 221.332 540.786 220.355 540.786C219.361 540.786 218.566 541.109 217.97 541.755C217.374 542.401 217.076 543.329 217.076 544.538V551.842H213.573V538.078H217.076V540.836C217.44 539.909 218.036 539.188 218.865 538.675C219.709 538.145 220.678 537.88 221.771 537.88ZM238.269 537.88C239.859 537.88 241.126 538.401 242.07 539.445C243.014 540.488 243.486 541.954 243.486 543.842V551.842H240.008V544.24C240.008 543.147 239.726 542.302 239.163 541.706C238.6 541.093 237.83 540.786 236.853 540.786C235.859 540.786 235.064 541.109 234.468 541.755C233.872 542.401 233.573 543.329 233.573 544.538V551.842H230.071V538.078H233.573V540.836C233.938 539.909 234.534 539.188 235.362 538.675C236.207 538.145 237.176 537.88 238.269 537.88ZM259.512 544.438C259.512 544.786 259.47 545.184 259.387 545.631H249.301C249.351 546.857 249.682 547.759 250.295 548.339C250.908 548.919 251.669 549.208 252.58 549.208C253.392 549.208 254.063 549.01 254.593 548.612C255.139 548.215 255.487 547.676 255.636 546.997H259.338C259.156 547.958 258.766 548.819 258.17 549.581C257.574 550.343 256.804 550.939 255.86 551.37C254.932 551.8 253.897 552.016 252.754 552.016C251.413 552.016 250.22 551.734 249.177 551.171C248.133 550.591 247.322 549.772 246.742 548.712C246.162 547.652 245.873 546.401 245.873 544.96C245.873 543.519 246.162 542.269 246.742 541.209C247.322 540.132 248.133 539.312 249.177 538.749C250.22 538.186 251.413 537.905 252.754 537.905C254.112 537.905 255.297 538.186 256.307 538.749C257.334 539.312 258.12 540.091 258.667 541.085C259.23 542.062 259.512 543.18 259.512 544.438ZM255.984 544.091C256.034 542.964 255.735 542.111 255.089 541.532C254.46 540.952 253.682 540.662 252.754 540.662C251.81 540.662 251.015 540.952 250.369 541.532C249.723 542.111 249.367 542.964 249.301 544.091H255.984ZM265.501 533.458V551.842H261.998V533.458H265.501Z" fill="white"/>
<g clip-path="url(#clip2_2715_133950)">
<g opacity="0.75">
<path d="M106.417 285.412H101.183V301.114H106.417V285.412Z" fill="white"/>
</g>
<g opacity="0.75">
<path d="M111.644 290.656H95.9424V295.89H111.644V290.656Z" fill="white"/>
</g>
<path d="M93.4796 328.54C93.2127 328.54 92.9448 328.526 92.6763 328.497C89.8571 328.2 87.3564 326.396 85.8142 323.547C82.6489 317.697 79.4869 291.806 87.6471 283.47C90.991 280.053 95.9403 277.987 100.888 277.943L100.932 283.177C97.3488 283.209 93.6438 284.739 91.2623 287.17C88.7105 289.774 87.3774 296.123 87.606 304.59C87.8179 312.453 89.3002 319.168 90.2887 320.993C91.0198 322.343 92.0538 323.153 93.2011 323.273C94.0692 323.362 94.883 323.044 95.4327 322.392C96.4296 321.21 96.3669 318.766 96.307 316.403C96.2299 313.387 96.15 310.269 98.0544 307.972C99.4157 306.33 101.333 305.387 103.316 305.384H103.325C105.236 305.384 107.022 306.265 108.357 307.865C110.36 310.269 110.416 313.559 110.465 316.462C110.506 318.874 110.545 321.151 111.573 322.296C112.122 322.908 113.026 323.262 113.905 323.226C114.479 323.202 115.296 322.998 115.926 322.169C118.074 319.339 121.837 298.438 115.534 288.126C113.586 284.941 109.325 283.279 106.121 283.285L106.112 278.051H106.138C110.758 278.051 116.788 280.307 119.872 285.355C126.999 297.027 123.746 320.413 119.966 325.395C118.536 327.281 116.458 328.374 114.116 328.473C111.72 328.573 109.366 327.595 107.804 325.853C105.467 323.248 105.407 319.703 105.354 316.575C105.318 314.446 105.28 312.245 104.463 311.263C104.102 310.829 103.729 310.618 103.325 310.618H103.323C102.852 310.618 102.341 310.896 101.958 311.359C101.312 312.139 101.368 314.344 101.417 316.289C101.499 319.489 101.591 323.117 99.3076 325.828C97.8487 327.559 95.7146 328.54 93.4796 328.54Z" fill="white"/>
</g>
<path d="M68.6741 374.106C68.6741 375.845 68.3097 377.377 67.581 378.702C66.8523 380.027 65.7923 381.062 64.401 381.807C63.0264 382.536 61.3867 382.9 59.482 382.9H53.2463V365.361H59.482C61.3867 365.361 63.0264 365.725 64.401 366.454C65.7923 367.166 66.8523 368.185 67.581 369.51C68.3097 370.818 68.6741 372.35 68.6741 374.106ZM59.1839 379.77C61.072 379.77 62.5295 379.273 63.5564 378.279C64.5998 377.286 65.1215 375.895 65.1215 374.106C65.1215 372.3 64.5998 370.901 63.5564 369.907C62.5295 368.913 61.072 368.417 59.1839 368.417H56.7492V379.77H59.1839ZM84.2401 375.497C84.2401 375.845 84.1987 376.242 84.1159 376.69H74.0295C74.0791 377.915 74.4104 378.818 75.0232 379.397C75.636 379.977 76.3979 380.267 77.3088 380.267C78.1204 380.267 78.7911 380.068 79.3211 379.671C79.8677 379.273 80.2155 378.735 80.3646 378.056H84.0662C83.8841 379.017 83.4948 379.878 82.8986 380.64C82.3023 381.401 81.5322 381.998 80.5881 382.428C79.6607 382.859 78.6255 383.074 77.4827 383.074C76.1412 383.074 74.9487 382.793 73.9052 382.23C72.8618 381.65 72.0503 380.83 71.4706 379.77C70.8909 378.71 70.601 377.46 70.601 376.019C70.601 374.578 70.8909 373.327 71.4706 372.267C72.0503 371.191 72.8618 370.371 73.9052 369.808C74.9487 369.245 76.1412 368.963 77.4827 368.963C78.8408 368.963 80.025 369.245 81.0353 369.808C82.0622 370.371 82.8489 371.149 83.3955 372.143C83.9586 373.12 84.2401 374.238 84.2401 375.497ZM80.7124 375.149C80.762 374.023 80.4639 373.17 79.818 372.59C79.1886 372.011 78.4102 371.721 77.4827 371.721C76.5386 371.721 75.7437 372.011 75.0977 372.59C74.4518 373.17 74.0957 374.023 74.0295 375.149H80.7124ZM94.9252 368.938C96.5152 368.938 97.7822 369.46 98.7262 370.503C99.6703 371.547 100.142 373.013 100.142 374.901V382.9H96.6642V375.298C96.6642 374.205 96.3827 373.36 95.8196 372.764C95.2564 372.151 94.4863 371.845 93.5091 371.845C92.5154 371.845 91.7204 372.168 91.1241 372.814C90.5279 373.46 90.2298 374.387 90.2298 375.596V382.9H86.7268V369.137H90.2298V371.895C90.5941 370.967 91.1904 370.247 92.0185 369.733C92.8632 369.203 93.8321 368.938 94.9252 368.938ZM110.578 379.894V382.9H108.74C107.199 382.9 106.015 382.528 105.187 381.782C104.376 381.037 103.97 379.795 103.97 378.056V372.093H102.057V369.137H103.97V365.734H107.473V369.137H110.553V372.093H107.473V378.106C107.473 378.768 107.605 379.232 107.87 379.497C108.135 379.762 108.582 379.894 109.212 379.894H110.578ZM112.701 365.187C112.701 364.624 112.9 364.168 113.298 363.821C113.695 363.456 114.217 363.274 114.863 363.274C115.509 363.274 116.03 363.456 116.428 363.821C116.825 364.168 117.024 364.624 117.024 365.187C117.024 365.734 116.825 366.189 116.428 366.553C116.03 366.901 115.509 367.075 114.863 367.075C114.217 367.075 113.695 366.901 113.298 366.553C112.9 366.189 112.701 365.734 112.701 365.187ZM116.602 369.137V382.9H113.099V369.137H116.602ZM124.516 368.963C126.189 368.963 127.53 369.386 128.54 370.23C129.551 371.075 130.18 372.201 130.429 373.609H127.149C127.017 372.946 126.719 372.416 126.255 372.019C125.791 371.621 125.187 371.423 124.441 371.423C123.845 371.423 123.381 371.563 123.05 371.845C122.719 372.127 122.553 372.508 122.553 372.988C122.553 373.369 122.686 373.675 122.951 373.907C123.216 374.139 123.547 374.321 123.944 374.454C124.342 374.586 124.913 374.743 125.659 374.926C126.702 375.157 127.547 375.406 128.193 375.671C128.855 375.919 129.418 376.325 129.882 376.888C130.362 377.435 130.602 378.18 130.602 379.124C130.602 380.3 130.139 381.252 129.211 381.981C128.3 382.71 127.066 383.074 125.51 383.074C123.721 383.074 122.288 382.677 121.212 381.882C120.135 381.07 119.481 379.919 119.249 378.429H122.603C122.686 379.108 122.984 379.646 123.497 380.043C124.011 380.424 124.681 380.615 125.51 380.615C126.106 380.615 126.561 380.474 126.876 380.192C127.191 379.894 127.348 379.513 127.348 379.05C127.348 378.652 127.207 378.329 126.926 378.081C126.661 377.832 126.321 377.642 125.907 377.509C125.51 377.377 124.938 377.22 124.193 377.037C123.166 376.805 122.33 376.574 121.684 376.342C121.054 376.093 120.508 375.704 120.044 375.174C119.597 374.644 119.373 373.915 119.373 372.988C119.373 371.795 119.829 370.826 120.74 370.081C121.65 369.336 122.909 368.963 124.516 368.963ZM140.565 379.894V382.9H138.727C137.186 382.9 136.002 382.528 135.174 381.782C134.362 381.037 133.957 379.795 133.957 378.056V372.093H132.044V369.137H133.957V365.734H137.46V369.137H140.54V372.093H137.46V378.106C137.46 378.768 137.592 379.232 137.857 379.497C138.122 379.762 138.569 379.894 139.199 379.894H140.565ZM147.831 368.963C149.504 368.963 150.845 369.386 151.855 370.23C152.866 371.075 153.495 372.201 153.744 373.609H150.464C150.332 372.946 150.034 372.416 149.57 372.019C149.106 371.621 148.502 371.423 147.756 371.423C147.16 371.423 146.696 371.563 146.365 371.845C146.034 372.127 145.868 372.508 145.868 372.988C145.868 373.369 146.001 373.675 146.266 373.907C146.531 374.139 146.862 374.321 147.259 374.454C147.657 374.586 148.228 374.743 148.974 374.926C150.017 375.157 150.862 375.406 151.508 375.671C152.17 375.919 152.733 376.325 153.197 376.888C153.677 377.435 153.917 378.18 153.917 379.124C153.917 380.3 153.454 381.252 152.526 381.981C151.615 382.71 150.381 383.074 148.825 383.074C147.036 383.074 145.603 382.677 144.527 381.882C143.45 381.07 142.796 379.919 142.564 378.429H145.918C146.001 379.108 146.299 379.646 146.812 380.043C147.326 380.424 147.996 380.615 148.825 380.615C149.421 380.615 149.876 380.474 150.191 380.192C150.506 379.894 150.663 379.513 150.663 379.05C150.663 378.652 150.522 378.329 150.241 378.081C149.976 377.832 149.636 377.642 149.222 377.509C148.825 377.377 148.253 377.22 147.508 377.037C146.481 376.805 145.645 376.574 144.999 376.342C144.369 376.093 143.823 375.704 143.359 375.174C142.912 374.644 142.688 373.915 142.688 372.988C142.688 371.795 143.144 370.826 144.055 370.081C144.966 369.336 146.224 368.963 147.831 368.963Z" fill="white"/>
<g opacity="0.85">
<path d="M485.44 306.33C475.82 306.33 467.991 313.835 467.958 323.072H470.301H473.184H482.542L482.552 317.838H474.556C476.595 314.118 480.703 311.564 485.44 311.564C490.178 311.564 494.285 314.118 496.325 317.838H488.357L488.347 323.072H497.697H498.167H502.923C502.89 313.835 495.061 306.33 485.44 306.33Z" fill="white"/>
</g>
<g opacity="0.75">
<path d="M486.059 311.559C479.988 311.559 475.049 306.803 475.049 300.957C475.049 295.111 479.988 290.355 486.059 290.355C492.13 290.355 497.069 295.111 497.069 300.957C497.069 306.803 492.13 311.559 486.059 311.559ZM486.059 295.589C482.874 295.589 480.283 297.997 480.283 300.957C480.283 303.917 482.874 306.325 486.059 306.325C489.244 306.325 491.835 303.917 491.835 300.957C491.835 297.997 489.244 295.589 486.059 295.589Z" fill="white"/>
</g>
<path d="M459.864 302.93C448.336 302.93 438.967 311.976 439.06 323.061C439.061 323.062 439.062 323.063 439.064 323.065H441.105H444.288H456.963L456.973 317.831H445.234C447.423 312.195 453.155 308.164 459.864 308.164C466.573 308.164 472.305 312.195 474.495 317.831H462.778L462.768 323.065H475.44H479.42H480.665C480.666 323.063 480.667 323.062 480.669 323.061C480.761 311.976 471.393 302.93 459.864 302.93Z" fill="white"/>
<g opacity="0.75">
<path d="M460.031 308.163C452.927 308.163 447.147 302.607 447.147 295.778C447.147 288.949 452.927 283.393 460.031 283.393C467.136 283.393 472.916 288.949 472.916 295.778C472.916 302.607 467.136 308.163 460.031 308.163ZM460.031 288.627C455.813 288.627 452.381 291.834 452.381 295.778C452.381 299.721 455.813 302.929 460.031 302.929C464.25 302.929 467.682 299.721 467.682 295.778C467.682 291.834 464.25 288.627 460.031 288.627Z" fill="white"/>
</g>
<path d="M424.324 376.391V382.9H420.821V365.361H427.205C429.276 365.361 430.833 365.858 431.876 366.851C432.936 367.845 433.466 369.195 433.466 370.901C433.466 372.574 432.92 373.907 431.826 374.901C430.75 375.895 429.21 376.391 427.205 376.391H424.324ZM426.833 373.584C428.887 373.584 429.913 372.69 429.913 370.901C429.913 370.023 429.673 369.352 429.193 368.889C428.713 368.425 427.926 368.193 426.833 368.193H424.324V373.584H426.833ZM441.132 368.963C442.292 368.963 443.286 369.236 444.114 369.783C444.942 370.33 445.53 371.067 445.878 371.994V369.137H449.356V382.9H445.878V380.019C445.53 380.946 444.942 381.691 444.114 382.254C443.286 382.801 442.292 383.074 441.132 383.074C439.973 383.074 438.93 382.793 438.002 382.23C437.075 381.666 436.346 380.855 435.816 379.795C435.302 378.718 435.046 377.46 435.046 376.019C435.046 374.578 435.302 373.327 435.816 372.267C436.346 371.191 437.075 370.371 438.002 369.808C438.93 369.245 439.973 368.963 441.132 368.963ZM442.226 372.019C441.132 372.019 440.255 372.375 439.592 373.087C438.93 373.799 438.598 374.777 438.598 376.019C438.598 377.261 438.93 378.238 439.592 378.95C440.255 379.646 441.132 379.994 442.226 379.994C443.286 379.994 444.155 379.638 444.834 378.925C445.53 378.197 445.878 377.228 445.878 376.019C445.878 374.793 445.53 373.824 444.834 373.112C444.155 372.383 443.286 372.019 442.226 372.019ZM459.884 379.894V382.9H458.045C456.505 382.9 455.321 382.528 454.493 381.782C453.681 381.037 453.275 379.795 453.275 378.056V372.093H451.363V369.137H453.275V365.734H456.778V369.137H459.859V372.093H456.778V378.106C456.778 378.768 456.911 379.232 457.176 379.497C457.441 379.762 457.888 379.894 458.517 379.894H459.884ZM462.007 365.187C462.007 364.624 462.206 364.168 462.603 363.821C463.001 363.456 463.522 363.274 464.168 363.274C464.814 363.274 465.336 363.456 465.734 363.821C466.131 364.168 466.33 364.624 466.33 365.187C466.33 365.734 466.131 366.189 465.734 366.553C465.336 366.901 464.814 367.075 464.168 367.075C463.522 367.075 463.001 366.901 462.603 366.553C462.206 366.189 462.007 365.734 462.007 365.187ZM465.907 369.137V382.9H462.404V369.137H465.907ZM482.02 375.497C482.02 375.845 481.978 376.242 481.896 376.69H471.809C471.859 377.915 472.19 378.818 472.803 379.397C473.416 379.977 474.178 380.267 475.088 380.267C475.9 380.267 476.571 380.068 477.101 379.671C477.647 379.273 477.995 378.735 478.144 378.056H481.846C481.664 379.017 481.275 379.878 480.678 380.64C480.082 381.401 479.312 381.998 478.368 382.428C477.44 382.859 476.405 383.074 475.262 383.074C473.921 383.074 472.728 382.793 471.685 382.23C470.641 381.65 469.83 380.83 469.25 379.77C468.671 378.71 468.381 377.46 468.381 376.019C468.381 374.578 468.671 373.327 469.25 372.267C469.83 371.191 470.641 370.371 471.685 369.808C472.728 369.245 473.921 368.963 475.262 368.963C476.62 368.963 477.805 369.245 478.815 369.808C479.842 370.371 480.629 371.149 481.175 372.143C481.738 373.12 482.02 374.238 482.02 375.497ZM478.492 375.149C478.542 374.023 478.244 373.17 477.598 372.59C476.968 372.011 476.19 371.721 475.262 371.721C474.318 371.721 473.523 372.011 472.877 372.59C472.231 373.17 471.875 374.023 471.809 375.149H478.492ZM492.705 368.938C494.295 368.938 495.562 369.46 496.506 370.503C497.45 371.547 497.922 373.013 497.922 374.901V382.9H494.444V375.298C494.444 374.205 494.162 373.36 493.599 372.764C493.036 372.151 492.266 371.845 491.289 371.845C490.295 371.845 489.5 372.168 488.904 372.814C488.308 373.46 488.009 374.387 488.009 375.596V382.9H484.507V369.137H488.009V371.895C488.374 370.967 488.97 370.247 489.798 369.733C490.643 369.203 491.612 368.938 492.705 368.938ZM508.358 379.894V382.9H506.519C504.979 382.9 503.795 382.528 502.967 381.782C502.155 381.037 501.749 379.795 501.749 378.056V372.093H499.837V369.137H501.749V365.734H505.252V369.137H508.333V372.093H505.252V378.106C505.252 378.768 505.385 379.232 505.65 379.497C505.915 379.762 506.362 379.894 506.991 379.894H508.358ZM515.624 368.963C517.296 368.963 518.638 369.386 519.648 370.23C520.659 371.075 521.288 372.201 521.536 373.609H518.257C518.125 372.946 517.826 372.416 517.363 372.019C516.899 371.621 516.294 371.423 515.549 371.423C514.953 371.423 514.489 371.563 514.158 371.845C513.827 372.127 513.661 372.508 513.661 372.988C513.661 373.369 513.793 373.675 514.058 373.907C514.323 374.139 514.655 374.321 515.052 374.454C515.45 374.586 516.021 374.743 516.766 374.926C517.81 375.157 518.655 375.406 519.3 375.671C519.963 375.919 520.526 376.325 520.99 376.888C521.47 377.435 521.71 378.18 521.71 379.124C521.71 380.3 521.247 381.252 520.319 381.981C519.408 382.71 518.174 383.074 516.617 383.074C514.829 383.074 513.396 382.677 512.319 381.882C511.243 381.07 510.589 379.919 510.357 378.429H513.711C513.793 379.108 514.092 379.646 514.605 380.043C515.118 380.424 515.789 380.615 516.617 380.615C517.214 380.615 517.669 380.474 517.984 380.192C518.298 379.894 518.456 379.513 518.456 379.05C518.456 378.652 518.315 378.329 518.033 378.081C517.768 377.832 517.429 377.642 517.015 377.509C516.617 377.377 516.046 377.22 515.301 377.037C514.274 376.805 513.437 376.574 512.791 376.342C512.162 376.093 511.616 375.704 511.152 375.174C510.705 374.644 510.481 373.915 510.481 372.988C510.481 371.795 510.936 370.826 511.847 370.081C512.758 369.336 514.017 368.963 515.624 368.963Z" fill="white"/>
<g clip-path="url(#clip3_2715_133950)">
<path d="M374.184 151.315L394.486 140.98V163.246L374.132 173.291L374.184 151.315ZM348.544 136.344L371.224 125.876L392.004 136.359L371.576 146.758L348.544 136.344ZM371.058 120.229L340.984 134.39L341.037 148.377L346.218 150.955L346.177 140.516L368.898 151.371L368.845 173.636L346.218 161.903L346.201 157.472L340.984 154.876L341.024 165.133L371.011 180.683L399.72 166.515V134.423L371.058 120.229Z" fill="white"/>
<g opacity="0.75">
<path d="M389.824 171.443L381.101 175.605L380.991 167.05L389.824 162.652V171.443Z" fill="white"/>
</g>
<g opacity="0.75">
<path d="M350.289 129.922L360.182 125.27L389.834 139.943L389.843 149.297L381.111 153.115V144.862L350.289 129.922Z" fill="white"/>
</g>
</g>
<path d="M321.474 212.574L326.17 226.461L330.89 212.574H334.641L328.43 230.113H323.934L317.723 212.574H321.474ZM349.475 222.71C349.475 223.058 349.433 223.455 349.351 223.902H339.264C339.314 225.128 339.645 226.031 340.258 226.61C340.871 227.19 341.633 227.48 342.543 227.48C343.355 227.48 344.026 227.281 344.556 226.884C345.102 226.486 345.45 225.948 345.599 225.269H349.301C349.119 226.229 348.73 227.091 348.133 227.853C347.537 228.614 346.767 229.211 345.823 229.641C344.895 230.072 343.86 230.287 342.717 230.287C341.376 230.287 340.183 230.006 339.14 229.443C338.096 228.863 337.285 228.043 336.705 226.983C336.126 225.923 335.836 224.673 335.836 223.232C335.836 221.791 336.126 220.54 336.705 219.48C337.285 218.404 338.096 217.584 339.14 217.021C340.183 216.458 341.376 216.176 342.717 216.176C344.075 216.176 345.26 216.458 346.27 217.021C347.297 217.584 348.084 218.362 348.63 219.356C349.193 220.333 349.475 221.451 349.475 222.71ZM345.947 222.362C345.997 221.236 345.699 220.383 345.053 219.803C344.423 219.224 343.645 218.934 342.717 218.934C341.773 218.934 340.978 219.224 340.332 219.803C339.686 220.383 339.33 221.236 339.264 222.362H345.947ZM360.16 216.151C361.75 216.151 363.017 216.673 363.961 217.716C364.905 218.76 365.377 220.226 365.377 222.114V230.113H361.899V222.511C361.899 221.418 361.617 220.573 361.054 219.977C360.491 219.364 359.721 219.058 358.744 219.058C357.75 219.058 356.955 219.381 356.359 220.027C355.763 220.673 355.464 221.6 355.464 222.809V230.113H351.962V216.35H355.464V219.108C355.829 218.18 356.425 217.46 357.253 216.946C358.098 216.416 359.067 216.151 360.16 216.151ZM373.85 216.176C375.01 216.176 375.995 216.449 376.807 216.996C377.635 217.542 378.231 218.279 378.595 219.207V211.729H382.073V230.113H378.595V227.231C378.231 228.159 377.635 228.904 376.807 229.467C375.995 230.014 375.01 230.287 373.85 230.287C372.691 230.287 371.647 230.006 370.72 229.443C369.792 228.879 369.064 228.068 368.534 227.008C368.02 225.931 367.764 224.673 367.764 223.232C367.764 221.791 368.02 220.54 368.534 219.48C369.064 218.404 369.792 217.584 370.72 217.021C371.647 216.458 372.691 216.176 373.85 216.176ZM374.943 219.232C373.85 219.232 372.972 219.588 372.31 220.3C371.647 221.012 371.316 221.989 371.316 223.232C371.316 224.474 371.647 225.451 372.31 226.163C372.972 226.859 373.85 227.207 374.943 227.207C376.003 227.207 376.873 226.85 377.552 226.138C378.248 225.41 378.595 224.441 378.595 223.232C378.595 222.006 378.248 221.037 377.552 220.325C376.873 219.596 376.003 219.232 374.943 219.232ZM391.608 216.176C392.949 216.176 394.15 216.458 395.21 217.021C396.287 217.584 397.131 218.404 397.744 219.48C398.357 220.54 398.663 221.791 398.663 223.232C398.663 224.673 398.357 225.923 397.744 226.983C397.131 228.043 396.287 228.863 395.21 229.443C394.15 230.006 392.949 230.287 391.608 230.287C390.266 230.287 389.057 230.006 387.981 229.443C386.921 228.863 386.084 228.043 385.472 226.983C384.859 225.923 384.552 224.673 384.552 223.232C384.552 221.791 384.859 220.54 385.472 219.48C386.084 218.404 386.921 217.584 387.981 217.021C389.057 216.458 390.266 216.176 391.608 216.176ZM391.608 219.207C390.631 219.207 389.803 219.555 389.124 220.25C388.444 220.929 388.105 221.923 388.105 223.232C388.105 224.54 388.444 225.542 389.124 226.238C389.803 226.917 390.631 227.256 391.608 227.256C392.585 227.256 393.413 226.917 394.092 226.238C394.771 225.542 395.111 224.54 395.111 223.232C395.111 221.923 394.771 220.929 394.092 220.25C393.413 219.555 392.585 219.207 391.608 219.207ZM404.642 218.983C405.155 218.106 405.835 217.418 406.679 216.921C407.524 216.408 408.468 216.151 409.511 216.151V219.903H408.493C405.926 219.903 404.642 221.095 404.642 223.48V230.113H401.139V216.35H404.642V218.983ZM416.195 216.176C417.868 216.176 419.21 216.598 420.22 217.443C421.23 218.288 421.86 219.414 422.108 220.822H418.829C418.696 220.159 418.398 219.629 417.934 219.232C417.471 218.834 416.866 218.636 416.121 218.636C415.524 218.636 415.061 218.776 414.729 219.058C414.398 219.339 414.233 219.72 414.233 220.201C414.233 220.582 414.365 220.888 414.63 221.12C414.895 221.352 415.226 221.534 415.624 221.666C416.021 221.799 416.593 221.956 417.338 222.139C418.381 222.37 419.226 222.619 419.872 222.884C420.535 223.132 421.098 223.538 421.561 224.101C422.042 224.648 422.282 225.393 422.282 226.337C422.282 227.513 421.818 228.465 420.891 229.194C419.98 229.923 418.746 230.287 417.189 230.287C415.4 230.287 413.968 229.89 412.891 229.095C411.814 228.283 411.16 227.132 410.928 225.641H414.282C414.365 226.321 414.663 226.859 415.177 227.256C415.69 227.637 416.361 227.828 417.189 227.828C417.785 227.828 418.241 227.687 418.555 227.405C418.87 227.107 419.027 226.726 419.027 226.263C419.027 225.865 418.887 225.542 418.605 225.294C418.34 225.045 418.001 224.855 417.586 224.722C417.189 224.59 416.618 224.432 415.872 224.25C414.845 224.018 414.009 223.786 413.363 223.555C412.734 223.306 412.187 222.917 411.723 222.387C411.276 221.857 411.053 221.128 411.053 220.201C411.053 219.008 411.508 218.039 412.419 217.294C413.33 216.549 414.589 216.176 416.195 216.176Z" fill="white"/>
<g clip-path="url(#clip4_2715_133950)">
<path d="M403.402 499.507H378.254C372.521 499.507 367.857 494.843 367.857 489.11V468.613C367.857 462.881 372.521 458.217 378.254 458.217H403.402C409.135 458.217 413.799 462.881 413.799 468.613V476.245H408.565V468.613C408.565 465.767 406.249 463.451 403.402 463.451H378.254C375.407 463.451 373.091 465.767 373.091 468.613V489.11C373.091 491.957 375.407 494.273 378.254 494.273H403.402C406.249 494.273 408.565 491.957 408.565 489.11V481.479H413.799V489.11C413.799 494.843 409.135 499.507 403.402 499.507Z" fill="white"/>
<g opacity="0.75">
<path d="M397.831 486.706H383.245C378.922 486.706 375.418 483.201 375.418 478.879V478.831C375.418 474.508 378.923 471.004 383.246 471.004H397.831C402.154 471.004 405.658 474.508 405.658 478.831V478.878C405.658 483.201 402.154 486.706 397.831 486.706ZM380.652 478.798V478.912C380.652 480.326 381.798 481.472 383.212 481.472H397.864C399.278 481.472 400.424 480.326 400.424 478.912V478.798C400.424 477.384 399.278 476.238 397.864 476.238H383.212C381.798 476.238 380.652 477.384 380.652 478.798Z" fill="white"/>
</g>
<path d="M393.442 471.004H388.208V486.706H393.442V471.004Z" fill="white"/>
<path d="M404.497 457.052H376.583V444.84H404.497V457.052ZM381.816 451.818H399.263V450.074H381.816V451.818Z" fill="white"/>
<g opacity="0.75">
<path d="M398.681 463.459H382.979V451.828H398.681V463.459ZM388.213 458.225H393.447V457.062H388.213V458.225Z" fill="white"/>
</g>
</g>
<path d="M315.91 545.333V551.842H312.407V534.302H318.792C320.862 534.302 322.419 534.799 323.462 535.793C324.522 536.787 325.052 538.136 325.052 539.842C325.052 541.515 324.506 542.848 323.413 543.842C322.336 544.836 320.796 545.333 318.792 545.333H315.91ZM318.419 542.525C320.473 542.525 321.5 541.631 321.5 539.842C321.5 538.965 321.26 538.294 320.779 537.83C320.299 537.366 319.512 537.134 318.419 537.134H315.91V542.525H318.419ZM335.526 537.88C337.116 537.88 338.383 538.401 339.327 539.445C340.271 540.488 340.743 541.954 340.743 543.842V551.842H337.265V544.24C337.265 543.147 336.984 542.302 336.42 541.706C335.857 541.093 335.087 540.786 334.11 540.786C333.116 540.786 332.321 541.109 331.725 541.755C331.129 542.401 330.831 543.329 330.831 544.538V551.842H327.328V533.458H330.831V540.836C331.195 539.909 331.791 539.188 332.619 538.675C333.464 538.145 334.433 537.88 335.526 537.88ZM349.216 537.905C350.376 537.905 351.37 538.178 352.198 538.724C353.026 539.271 353.614 540.008 353.962 540.935V538.078H357.44V551.842H353.962V548.96C353.614 549.887 353.026 550.633 352.198 551.196C351.37 551.742 350.376 552.016 349.216 552.016C348.057 552.016 347.014 551.734 346.086 551.171C345.159 550.608 344.43 549.796 343.9 548.736C343.387 547.66 343.13 546.401 343.13 544.96C343.13 543.519 343.387 542.269 343.9 541.209C344.43 540.132 345.159 539.312 346.086 538.749C347.014 538.186 348.057 537.905 349.216 537.905ZM350.31 540.96C349.216 540.96 348.339 541.316 347.676 542.029C347.014 542.741 346.682 543.718 346.682 544.96C346.682 546.202 347.014 547.179 347.676 547.892C348.339 548.587 349.216 548.935 350.31 548.935C351.37 548.935 352.239 548.579 352.918 547.867C353.614 547.138 353.962 546.169 353.962 544.96C353.962 543.735 353.614 542.766 352.918 542.053C352.239 541.325 351.37 540.96 350.31 540.96ZM364.117 540.712C364.631 539.834 365.31 539.147 366.154 538.65C366.999 538.136 367.943 537.88 368.986 537.88V541.631H367.968C365.401 541.631 364.117 542.824 364.117 545.209V551.842H360.614V538.078H364.117V540.712ZM388.44 537.88C390.113 537.88 391.429 538.401 392.39 539.445C393.367 540.472 393.856 541.938 393.856 543.842V551.842H390.378V544.24C390.378 543.18 390.104 542.368 389.558 541.805C389.028 541.225 388.291 540.935 387.347 540.935C386.37 540.935 385.591 541.242 385.012 541.855C384.432 542.468 384.142 543.362 384.142 544.538V551.842H380.664V544.24C380.664 543.18 380.391 542.368 379.844 541.805C379.314 541.225 378.577 540.935 377.633 540.935C376.656 540.935 375.877 541.242 375.298 541.855C374.718 542.468 374.428 543.362 374.428 544.538V551.842H370.925V538.078H374.428V540.687C374.793 539.793 375.364 539.105 376.142 538.625C376.937 538.128 377.857 537.88 378.9 537.88C380.01 537.88 380.97 538.145 381.782 538.675C382.61 539.205 383.231 539.967 383.645 540.96C384.076 540.016 384.713 539.271 385.558 538.724C386.419 538.161 387.38 537.88 388.44 537.88ZM402.324 537.905C403.484 537.905 404.477 538.178 405.306 538.724C406.134 539.271 406.722 540.008 407.069 540.935V538.078H410.548V551.842H407.069V548.96C406.722 549.887 406.134 550.633 405.306 551.196C404.477 551.742 403.484 552.016 402.324 552.016C401.165 552.016 400.122 551.734 399.194 551.171C398.267 550.608 397.538 549.796 397.008 548.736C396.494 547.66 396.238 546.401 396.238 544.96C396.238 543.519 396.494 542.269 397.008 541.209C397.538 540.132 398.267 539.312 399.194 538.749C400.122 538.186 401.165 537.905 402.324 537.905ZM403.417 540.96C402.324 540.96 401.447 541.316 400.784 542.029C400.122 542.741 399.79 543.718 399.79 544.96C399.79 546.202 400.122 547.179 400.784 547.892C401.447 548.587 402.324 548.935 403.417 548.935C404.477 548.935 405.347 548.579 406.026 547.867C406.722 547.138 407.069 546.169 407.069 544.96C407.069 543.735 406.722 542.766 406.026 542.053C405.347 541.325 404.477 540.96 403.417 540.96ZM419.908 537.905C421.68 537.905 423.154 538.385 424.33 539.346C425.523 540.306 426.268 541.615 426.566 543.271H422.865C422.715 542.542 422.376 541.971 421.846 541.557C421.316 541.126 420.645 540.911 419.834 540.911C418.906 540.911 418.128 541.258 417.498 541.954C416.885 542.633 416.579 543.635 416.579 544.96C416.579 546.285 416.885 547.295 417.498 547.991C418.128 548.67 418.906 549.01 419.834 549.01C420.645 549.01 421.316 548.803 421.846 548.389C422.376 547.958 422.715 547.378 422.865 546.649H426.566C426.268 548.306 425.523 549.614 424.33 550.575C423.154 551.535 421.68 552.016 419.908 552.016C418.567 552.016 417.374 551.734 416.331 551.171C415.287 550.591 414.476 549.772 413.896 548.712C413.316 547.652 413.026 546.401 413.026 544.96C413.026 543.519 413.316 542.269 413.896 541.209C414.476 540.132 415.287 539.312 416.331 538.749C417.374 538.186 418.567 537.905 419.908 537.905ZM428.658 534.128C428.658 533.565 428.856 533.11 429.254 532.762C429.651 532.398 430.173 532.215 430.819 532.215C431.465 532.215 431.987 532.398 432.384 532.762C432.782 533.11 432.98 533.565 432.98 534.128C432.98 534.675 432.782 535.13 432.384 535.495C431.987 535.843 431.465 536.016 430.819 536.016C430.173 536.016 429.651 535.843 429.254 535.495C428.856 535.13 428.658 534.675 428.658 534.128ZM432.558 538.078V551.842H429.055V538.078H432.558ZM440.472 537.905C442.145 537.905 443.487 538.327 444.497 539.172C445.507 540.016 446.136 541.143 446.385 542.55H443.106C442.973 541.888 442.675 541.358 442.211 540.96C441.747 540.563 441.143 540.364 440.398 540.364C439.801 540.364 439.338 540.505 439.006 540.786C438.675 541.068 438.51 541.449 438.51 541.929C438.51 542.31 438.642 542.617 438.907 542.848C439.172 543.08 439.503 543.262 439.901 543.395C440.298 543.527 440.87 543.685 441.615 543.867C442.658 544.099 443.503 544.347 444.149 544.612C444.811 544.861 445.375 545.267 445.838 545.83C446.319 546.376 446.559 547.122 446.559 548.066C446.559 549.242 446.095 550.194 445.168 550.923C444.257 551.651 443.023 552.016 441.466 552.016C439.677 552.016 438.245 551.618 437.168 550.823C436.091 550.012 435.437 548.861 435.205 547.37H438.559C438.642 548.049 438.94 548.587 439.454 548.985C439.967 549.366 440.638 549.556 441.466 549.556C442.062 549.556 442.518 549.415 442.832 549.134C443.147 548.836 443.304 548.455 443.304 547.991C443.304 547.594 443.164 547.271 442.882 547.022C442.617 546.774 442.277 546.583 441.863 546.451C441.466 546.318 440.895 546.161 440.149 545.979C439.122 545.747 438.286 545.515 437.64 545.283C437.011 545.035 436.464 544.645 436 544.115C435.553 543.585 435.33 542.857 435.33 541.929C435.33 540.737 435.785 539.768 436.696 539.023C437.607 538.277 438.866 537.905 440.472 537.905ZM456.521 548.836V551.842H454.683C453.143 551.842 451.959 551.469 451.13 550.724C450.319 549.979 449.913 548.736 449.913 546.997V541.035H448V538.078H449.913V534.675H453.416V538.078H456.497V541.035H453.416V547.047C453.416 547.709 453.549 548.173 453.814 548.438C454.079 548.703 454.526 548.836 455.155 548.836H456.521ZM463.787 537.905C465.46 537.905 466.802 538.327 467.812 539.172C468.822 540.016 469.452 541.143 469.7 542.55H466.421C466.288 541.888 465.99 541.358 465.526 540.96C465.063 540.563 464.458 540.364 463.713 540.364C463.116 540.364 462.653 540.505 462.321 540.786C461.99 541.068 461.825 541.449 461.825 541.929C461.825 542.31 461.957 542.617 462.222 542.848C462.487 543.08 462.818 543.262 463.216 543.395C463.613 543.527 464.185 543.685 464.93 543.867C465.973 544.099 466.818 544.347 467.464 544.612C468.127 544.861 468.69 545.267 469.153 545.83C469.634 546.376 469.874 547.122 469.874 548.066C469.874 549.242 469.41 550.194 468.483 550.923C467.572 551.651 466.338 552.016 464.781 552.016C462.992 552.016 461.56 551.618 460.483 550.823C459.406 550.012 458.752 548.861 458.52 547.37H461.874C461.957 548.049 462.255 548.587 462.769 548.985C463.282 549.366 463.953 549.556 464.781 549.556C465.377 549.556 465.833 549.415 466.147 549.134C466.462 548.836 466.619 548.455 466.619 547.991C466.619 547.594 466.479 547.271 466.197 547.022C465.932 546.774 465.593 546.583 465.178 546.451C464.781 546.318 464.21 546.161 463.464 545.979C462.437 545.747 461.601 545.515 460.955 545.283C460.326 545.035 459.779 544.645 459.315 544.115C458.868 543.585 458.645 542.857 458.645 541.929C458.645 540.737 459.1 539.768 460.011 539.023C460.922 538.277 462.181 537.905 463.787 537.905Z" fill="white"/>
<defs>
<clipPath id="clip0_2715_133950">
<rect width="52.63" height="57.7168" fill="white" transform="translate(173.224 121.57)"/>
</clipPath>
<clipPath id="clip1_2715_133950">
<rect width="41.6102" height="40.2451" fill="white" transform="translate(183.712 452.047)"/>
</clipPath>
<clipPath id="clip2_2715_133950">
<rect width="41.6223" height="50.5967" fill="white" transform="translate(82.4736 277.934)"/>
</clipPath>
<clipPath id="clip3_2715_133950">
<rect width="58.7363" height="60.4549" fill="white" transform="translate(340.973 120.221)"/>
</clipPath>
<clipPath id="clip4_2715_133950">
<rect width="45.9422" height="54.6654" fill="white" transform="translate(367.862 444.82)"/>
</clipPath>
</defs>
</svg>
