<svg width="992" height="278" viewBox="0 0 992 278" fill="none" xmlns="http://www.w3.org/2000/svg">
<g opacity="0.12">
<path d="M0 0.273438V407.202H107.057V197.812L203.878 275.297V146.911L15.3827 0.273438H0Z" fill="white"/>
<path d="M450.103 0.273438L262.952 146.75V275.047L359.017 197.228V407.202H466.073V0.273438H450.103Z" fill="white"/>
<path d="M647.543 6.97949H539.921V407.731H647.543V6.97949Z" fill="white"/>
<path d="M1060.58 344.793L992.555 244.223C999.692 243.034 1006.82 241.84 1013.96 239.464C1061.53 225.193 1099.58 188.921 1099.58 128.272C1099.58 51.5703 1038.34 6.97754 948.556 6.97754H721.422V407.729H829.044V266.811V257.3V179.41V147.9V87.2513H934.286C971.151 87.2513 989.582 106.872 989.582 131.249C989.582 161.571 969.961 179.41 932.501 179.41H886.467V258.873L975.313 407.731H1034.68L1060.58 344.793Z" fill="white"/>
</g>
</svg>
