<svg width="40" height="40" viewBox="0 0 40 40" fill="none" xmlns="http://www.w3.org/2000/svg">
<circle r="20" transform="matrix(1 0 0 -1 20 20)" fill="#587E85"/>
<path d="M19.8245 9.21652C19.6019 9.21652 19.4025 9.31051 19.2385 9.48651L11.3872 17.3145C11.1645 17.5372 11.0825 17.7365 11.0825 17.9472C11.0825 18.3925 11.4105 18.7205 11.8445 18.7205C12.0672 18.7205 12.2659 18.6505 12.4179 18.5099L15.9579 15.0058L19.1685 11.5485L19.0392 14.2672L19.0392 30.2052C19.0392 30.6505 19.3679 30.9785 19.8245 30.9785C20.2819 30.9785 20.6099 30.6505 20.6099 30.2052L20.6099 14.2672L20.4812 11.5372L23.6919 15.0058L27.2312 18.5098C27.3712 18.6498 27.5825 18.7205 27.7932 18.7205C28.2265 18.7205 28.5552 18.3925 28.5552 17.9472C28.5552 17.7365 28.4845 17.5485 28.3205 17.3732L20.4105 9.48651C20.2465 9.31051 20.0472 9.21652 19.8245 9.21652Z" fill="white"/>
</svg>
