<svg width="120" height="120" viewBox="0 0 120 120" fill="none" xmlns="http://www.w3.org/2000/svg">
<rect x="0.5" y="0.5" width="119" height="119" rx="59.5" fill="#F9FCEE"/>
<rect x="62" y="44" width="23" height="27" fill="white"/>
<path d="M88.4371 34.375H57.8121C57.2319 34.375 56.6755 34.6055 56.2653 35.0157C55.8551 35.4259 55.6246 35.9823 55.6246 36.5625V43.125C55.6246 43.7052 55.8551 44.2616 56.2653 44.6718C56.6755 45.082 57.2319 45.3125 57.8121 45.3125V54.0625H34.6465C33.2483 54.0625 31.9073 54.6179 30.9187 55.6066C29.93 56.5953 29.3746 57.9362 29.3746 59.3344V68.4781C29.3563 69.734 29.787 70.9551 30.589 71.9216C31.3911 72.8881 32.5119 73.5365 33.7496 73.75V85.7812C33.7496 87.2317 34.3258 88.6227 35.3513 89.6482C36.3769 90.6738 37.7679 91.25 39.2183 91.25C40.4009 91.2677 41.5555 90.8905 42.4996 90.1781C43.3876 90.8542 44.468 91.2296 45.584 91.25H45.9777C46.67 91.25 47.3556 91.1136 47.9952 90.8487C48.6348 90.5838 49.2159 90.1954 49.7055 89.7059C50.195 89.2164 50.5833 88.6352 50.8483 87.9956C51.1132 87.356 51.2496 86.6704 51.2496 85.9781V66.0938C51.2496 65.8037 51.3648 65.5255 51.5699 65.3204C51.7751 65.1152 52.0533 65 52.3433 65H57.8121V71.5625C57.8107 72.1171 58.0201 72.6515 58.3977 73.0576C58.7754 73.4637 59.2932 73.7112 59.8465 73.75H68.8808L60.4152 85.6063C60.1363 86.0772 60.044 86.6356 60.1567 87.1713C60.2694 87.7069 60.5788 88.1809 61.0238 88.4995C61.4689 88.8182 62.0172 88.9584 62.5606 88.8926C63.104 88.8267 63.6029 88.5595 63.959 88.1437L70.9371 78.3875V84.6875C70.9371 85.2677 71.1675 85.8241 71.5778 86.2343C71.988 86.6445 72.5444 86.875 73.1246 86.875C73.7047 86.875 74.2611 86.6445 74.6714 86.2343C75.0816 85.8241 75.3121 85.2677 75.3121 84.6875V78.3875L82.2902 88.1437C82.4915 88.4265 82.7572 88.6572 83.0653 88.817C83.3734 88.9767 83.715 89.0609 84.0621 89.0625C84.518 89.0596 84.9616 88.9142 85.3308 88.6469C85.799 88.309 86.1145 87.7998 86.2088 87.2302C86.303 86.6606 86.1683 86.0769 85.834 85.6063L77.3683 73.75H86.4027C86.9559 73.7112 87.4738 73.4637 87.8514 73.0576C88.2291 72.6515 88.4384 72.1171 88.4371 71.5625V45.3125C89.0172 45.3125 89.5736 45.082 89.9839 44.6718C90.3941 44.2616 90.6246 43.7052 90.6246 43.125V36.5625C90.6246 35.9823 90.3941 35.4259 89.9839 35.0157C89.5736 34.6055 89.0172 34.375 88.4371 34.375ZM59.9996 38.75H86.2496V40.9375H59.9996V38.75ZM52.3433 60.625C50.8929 60.625 49.5019 61.2012 48.4763 62.2268C47.4508 63.2523 46.8746 64.6433 46.8746 66.0938V85.9781C46.8746 86.216 46.7801 86.4441 46.6119 86.6123C46.4437 86.7805 46.2156 86.875 45.9777 86.875H45.584C45.3461 86.875 45.118 86.7805 44.9498 86.6123C44.7816 86.4441 44.6871 86.216 44.6871 85.9781V75.9375C44.6871 75.3573 44.4566 74.8009 44.0464 74.3907C43.6361 73.9805 43.0797 73.75 42.4996 73.75C41.9194 73.75 41.363 73.9805 40.9528 74.3907C40.5426 74.8009 40.3121 75.3573 40.3121 75.9375V85.7812C40.3121 86.0713 40.1968 86.3495 39.9917 86.5546C39.7866 86.7598 39.5084 86.875 39.2183 86.875C38.9283 86.875 38.6501 86.7598 38.4449 86.5546C38.2398 86.3495 38.1246 86.0713 38.1246 85.7812V73.75C38.1272 73.4471 38.0598 73.1476 37.9277 72.875C38.6578 72.4018 39.2582 71.7538 39.6746 70.9898C40.091 70.2258 40.3101 69.3701 40.3121 68.5V62.8125C40.3121 62.2323 40.0816 61.6759 39.6714 61.2657C39.2611 60.8555 38.7047 60.625 38.1246 60.625C37.5444 60.625 36.988 60.8555 36.5778 61.2657C36.1676 61.6759 35.9371 62.2323 35.9371 62.8125V68.4781C35.9371 68.716 35.8426 68.9441 35.6744 69.1123C35.5062 69.2805 35.2781 69.375 35.0402 69.375H34.6465C34.4086 69.375 34.1805 69.2805 34.0123 69.1123C33.8441 68.9441 33.7496 68.716 33.7496 68.4781V59.3344C33.7496 59.0965 33.8441 58.8684 34.0123 58.7002C34.1805 58.532 34.4086 58.4375 34.6465 58.4375H60.7433C60.919 58.4347 61.0927 58.4751 61.2491 58.5552C61.4055 58.6353 61.5398 58.7527 61.6402 58.8969C61.7453 59.0398 61.8125 59.2071 61.8355 59.3831C61.8584 59.5591 61.8364 59.738 61.7715 59.9031C61.695 60.1145 61.5553 60.2972 61.3714 60.4264C61.1874 60.5556 60.9681 60.6249 60.7433 60.625H52.3433ZM84.0621 69.375H62.1871V64.8031C63.0359 64.5746 63.8168 64.144 64.463 63.5482C65.1093 62.9523 65.6018 62.2089 65.8984 61.3814C66.195 60.554 66.2869 59.667 66.1663 58.7963C66.0457 57.9256 65.7162 57.097 65.2058 56.3813C64.4938 55.3143 63.4227 54.5382 62.1871 54.1938V45.3125H84.0621V69.375Z" fill="#587E85"/>
<path d="M42.5 51.875C44.2306 51.875 45.9223 51.3618 47.3612 50.4004C48.8002 49.4389 49.9217 48.0723 50.5839 46.4735C51.2462 44.8746 51.4195 43.1153 51.0819 41.418C50.7443 39.7206 49.9109 38.1615 48.6872 36.9378C47.4635 35.7141 45.9044 34.8808 44.207 34.5431C42.5097 34.2055 40.7504 34.3788 39.1515 35.0411C37.5527 35.7033 36.1861 36.8248 35.2246 38.2638C34.2632 39.7027 33.75 41.3944 33.75 43.125C33.75 45.4456 34.6719 47.6712 36.3128 49.3122C37.9538 50.9531 40.1794 51.875 42.5 51.875ZM42.5 38.75C43.3653 38.75 44.2112 39.0066 44.9306 39.4873C45.6501 39.9681 46.2108 40.6513 46.542 41.4508C46.8731 42.2502 46.9597 43.1299 46.7909 43.9785C46.6221 44.8272 46.2054 45.6067 45.5936 46.2186C44.9817 46.8305 44.2022 47.2471 43.3535 47.4159C42.5049 47.5848 41.6252 47.4981 40.8258 47.167C40.0263 46.8358 39.3431 46.2751 38.8623 45.5556C38.3816 44.8362 38.125 43.9903 38.125 43.125C38.125 41.9647 38.5859 40.8519 39.4064 40.0314C40.2269 39.2109 41.3397 38.75 42.5 38.75Z" fill="#A9CF3D"/>
<rect x="0.5" y="0.5" width="119" height="119" rx="59.5" stroke="#A9CF3D"/>
</svg>
