<svg width="215" height="178" viewBox="0 0 215 178" fill="none" xmlns="http://www.w3.org/2000/svg">
<path d="M119.836 169.543C120.891 174.398 125.346 177.765 130.295 177.331C167.689 174.053 214.972 163.734 215 94.2742V10C215 4.47715 210.523 0 205 0H139.589C134.066 0 129.589 4.47715 129.589 10V90.8665C129.589 96.3894 134.066 100.867 139.589 100.867H157.95C159.502 124.132 143.156 132.49 123.123 137.776C117.797 139.181 114.377 144.446 115.548 149.829L119.836 169.543ZM5.40515 169.543C6.46103 174.398 10.9154 177.765 15.8648 177.331C53.2585 174.053 100.542 163.734 100.569 94.2742V10C100.569 4.47715 96.0923 0 90.5695 0H25.1586C19.6358 0 15.1586 4.47715 15.1586 10V90.8665C15.1586 96.3894 19.6358 100.867 25.1586 100.867H43.519C45.0713 124.132 28.7259 132.49 8.6929 137.776C3.36639 139.181 -0.0531639 144.446 1.11757 149.829L5.40515 169.543Z" fill="#E6E8E2"/>
</svg>
