<svg width="23" height="18" viewBox="0 0 23 18" fill="none" xmlns="http://www.w3.org/2000/svg">
<path d="M22.5706 8.82403C22.5706 8.60136 22.4766 8.40203 22.3006 8.23803L14.4726 0.386698C14.2499 0.164031 14.0506 0.0820305 13.8399 0.0820305C13.3946 0.0820305 13.0666 0.410031 13.0666 0.844031C13.0666 1.0667 13.1366 1.26536 13.2773 1.41736L16.7813 4.95736L20.2386 8.16803L17.5199 8.0387L1.58193 8.0387C1.13659 8.0387 0.808594 8.36736 0.808594 8.82403C0.808594 9.28136 1.13659 9.60937 1.58193 9.60937L17.5199 9.60936L20.2499 9.4807L16.7813 12.6914L13.2773 16.2307C13.1373 16.3707 13.0666 16.582 13.0666 16.7927C13.0666 17.226 13.3946 17.5547 13.8399 17.5547C14.0506 17.5547 14.2386 17.484 14.4139 17.32L22.3006 9.41003C22.4766 9.24603 22.5706 9.0467 22.5706 8.82403V8.82403Z" fill="white"/>
</svg>
