<svg width="22" height="18" viewBox="0 0 22 18" fill="none" xmlns="http://www.w3.org/2000/svg">
<path d="M-0.000281477 8.82403C-0.000281464 8.60136 0.0937177 8.40203 0.269718 8.23803L8.09772 0.386698C8.32039 0.164031 8.51972 0.0820305 8.73039 0.0820305C9.17572 0.0820305 9.50372 0.410031 9.50372 0.844031C9.50372 1.0667 9.43372 1.26536 9.29305 1.41736L5.78905 4.95736L2.33172 8.16803L5.05039 8.0387L20.9884 8.0387C21.4337 8.0387 21.7617 8.36736 21.7617 8.82403C21.7617 9.28136 21.4337 9.60937 20.9884 9.60937L5.05039 9.60936L2.32039 9.4807L5.78905 12.6914L9.29305 16.2307C9.43305 16.3707 9.50372 16.582 9.50372 16.7927C9.50372 17.226 9.17572 17.5547 8.73039 17.5547C8.51972 17.5547 8.33172 17.484 8.15639 17.32L0.269718 9.41003C0.0937177 9.24603 -0.000281489 9.0467 -0.000281477 8.82403V8.82403Z" fill="white"/>
</svg>
