<svg width="26" height="20" viewBox="0 0 26 20" fill="none" xmlns="http://www.w3.org/2000/svg">
<path d="M25.3077 2.36733C24.3923 2.76886 23.4169 3.03502 22.4 3.16425C23.4461 2.53963 24.2446 1.5581 24.62 0.375018C23.6446 0.956557 22.5677 1.36733 21.42 1.59656C20.4938 0.610403 19.1738 -0.000366211 17.7338 -0.000366211C14.94 -0.000366211 12.6908 2.26733 12.6908 5.04733C12.6908 5.44733 12.7246 5.83194 12.8077 6.1981C8.61231 5.99348 4.9 3.98271 2.40615 0.919634C1.97077 1.67502 1.71538 2.53963 1.71538 3.4704C1.71538 5.2181 2.61538 6.76733 3.95692 7.66425C3.14615 7.64886 2.35077 7.41348 1.67692 7.04271C1.67692 7.0581 1.67692 7.0781 1.67692 7.0981C1.67692 9.5504 3.42615 11.5873 5.72 12.0566C5.30923 12.1689 4.86154 12.2227 4.39692 12.2227C4.07384 12.2227 3.74769 12.2042 3.44154 12.1366C4.09538 14.135 5.95077 15.6042 8.15692 15.6519C6.44 16.995 4.26 17.8042 1.9 17.8042C1.48615 17.8042 1.08923 17.7858 0.692307 17.735C2.92769 19.1766 5.57692 19.9996 8.43384 19.9996C17.72 19.9996 22.7969 12.3073 22.7969 5.63963C22.7969 5.41656 22.7892 5.20117 22.7785 4.98733C23.78 4.27656 24.6215 3.38886 25.3077 2.36733Z" fill="#587E85"/>
</svg>
