<svg width="598" height="688" viewBox="0 0 598 688" fill="none" xmlns="http://www.w3.org/2000/svg">
<path d="M292.992 9.90527L584 179.339L583.999 517.775L292.992 687.207L0 517.775V180.616L292.992 9.90527Z" fill="#711F3C"/>
<path d="M2.67188 514.808V182.323L289.502 348.891L2.67188 514.808Z" fill="#D81D5B"/>
<path d="M2.67188 514.808V182.323L289.502 348.891L2.67188 514.808Z" stroke="white"/>
<path d="M2.67188 514.807V182.322L289.502 348.89L2.67188 514.807Z" fill="black" fill-opacity="0.4"/>
<path d="M2.67188 514.807V182.322L289.502 348.89L2.67188 514.807Z" stroke="#711F3C"/>
<g opacity="0.5">
<g clip-path="url(#clip0_2638_111308)">
<g opacity="0.75">
<path d="M106.418 295.315H101.185V311.017H106.418V295.315Z" fill="white"/>
</g>
<g opacity="0.75">
<path d="M111.645 300.558H95.9434V305.792H111.645V300.558Z" fill="white"/>
</g>
<path d="M93.4801 338.443C93.2132 338.443 92.9453 338.429 92.6768 338.401C89.8576 338.104 87.3569 336.299 85.8147 333.45C82.6493 327.601 79.4874 301.709 87.6476 293.373C90.9915 289.957 95.9408 287.891 100.888 287.847L100.932 293.081C97.3493 293.112 93.6442 294.642 91.2628 297.073C88.711 299.677 87.3779 306.027 87.6065 314.494C87.8184 322.356 89.3007 329.072 90.2892 330.896C91.0203 332.246 92.0543 333.056 93.2015 333.177C94.0697 333.266 94.8835 332.947 95.4332 332.296C96.4301 331.114 96.3674 328.67 96.3075 326.306C96.2304 323.29 96.1505 320.172 98.0549 317.875C99.4162 316.233 101.334 315.29 103.317 315.287H103.325C105.236 315.287 107.023 316.168 108.357 317.768C110.36 320.172 110.417 323.462 110.466 326.365C110.507 328.777 110.545 331.055 111.573 332.2C112.122 332.811 113.027 333.166 113.905 333.129C114.479 333.105 115.296 332.902 115.926 332.072C118.074 329.243 121.838 308.341 115.534 298.03C113.587 294.844 109.325 293.183 106.122 293.188L106.113 287.954H106.139C110.758 287.954 116.789 290.211 119.872 295.259C127 306.93 123.746 330.316 119.967 335.299C118.537 337.185 116.459 338.277 114.117 338.376C111.721 338.477 109.366 337.498 107.804 335.757C105.467 333.151 105.407 329.606 105.354 326.478C105.318 324.349 105.281 322.148 104.463 321.166C104.102 320.732 103.729 320.521 103.325 320.521H103.324C102.852 320.522 102.342 320.799 101.958 321.262C101.312 322.042 101.368 324.247 101.418 326.192C101.499 329.393 101.592 333.02 99.3081 335.731C97.8492 337.462 95.7151 338.443 93.4801 338.443Z" fill="white"/>
</g>
<path d="M68.6746 384.01C68.6746 385.749 68.3102 387.281 67.5815 388.606C66.8527 389.931 65.7928 390.966 64.4015 391.712C63.0268 392.44 61.3872 392.805 59.4825 392.805H53.2468V375.265H59.4825C61.3872 375.265 63.0268 375.63 64.4015 376.358C65.7928 377.07 66.8527 378.089 67.5815 379.414C68.3102 380.722 68.6746 382.254 68.6746 384.01ZM59.1844 389.674C61.0725 389.674 62.53 389.178 63.5568 388.184C64.6003 387.19 65.122 385.799 65.122 384.01C65.122 382.205 64.6003 380.805 63.5568 379.812C62.53 378.818 61.0725 378.321 59.1844 378.321H56.7497V389.674H59.1844ZM84.2406 385.401C84.2406 385.749 84.1992 386.147 84.1164 386.594H74.0299C74.0796 387.819 74.4109 388.722 75.0237 389.302C75.6365 389.881 76.3984 390.171 77.3093 390.171C78.1208 390.171 78.7916 389.973 79.3216 389.575C79.8682 389.178 80.216 388.639 80.365 387.96H84.0667C83.8845 388.921 83.4953 389.782 82.8991 390.544C82.3028 391.306 81.5327 391.902 80.5886 392.333C79.6611 392.763 78.626 392.979 77.4832 392.979C76.1416 392.979 74.9492 392.697 73.9057 392.134C72.8623 391.554 72.0507 390.734 71.4711 389.674C70.8914 388.614 70.6015 387.364 70.6015 385.923C70.6015 384.482 70.8914 383.232 71.4711 382.172C72.0507 381.095 72.8623 380.275 73.9057 379.712C74.9492 379.149 76.1416 378.867 77.4832 378.867C78.8413 378.867 80.0255 379.149 81.0358 379.712C82.0627 380.275 82.8494 381.054 83.3959 382.047C83.9591 383.025 84.2406 384.143 84.2406 385.401ZM80.7128 385.054C80.7625 383.927 80.4644 383.074 79.8185 382.495C79.1891 381.915 78.4107 381.625 77.4832 381.625C76.5391 381.625 75.7441 381.915 75.0982 382.495C74.4523 383.074 74.0962 383.927 74.0299 385.054H80.7128ZM94.9257 378.843C96.5157 378.843 97.7827 379.364 98.7267 380.408C99.6708 381.451 100.143 382.917 100.143 384.805V392.805H96.6647V385.203C96.6647 384.109 96.3832 383.265 95.82 382.669C95.2569 382.056 94.4868 381.749 93.5096 381.749C92.5159 381.749 91.7209 382.072 91.1246 382.718C90.5284 383.364 90.2302 384.292 90.2302 385.501V392.805H86.7273V379.041H90.2302V381.799C90.5946 380.872 91.1909 380.151 92.019 379.638C92.8637 379.108 93.8326 378.843 94.9257 378.843ZM110.579 389.799V392.805H108.74C107.2 392.805 106.016 392.432 105.188 391.687C104.376 390.941 103.97 389.699 103.97 387.96V381.998H102.057V379.041H103.97V375.638H107.473V379.041H110.554V381.998H107.473V388.01C107.473 388.672 107.606 389.136 107.871 389.401C108.136 389.666 108.583 389.799 109.212 389.799H110.579ZM112.702 375.091C112.702 374.528 112.901 374.073 113.298 373.725C113.696 373.36 114.217 373.178 114.863 373.178C115.509 373.178 116.031 373.36 116.428 373.725C116.826 374.073 117.025 374.528 117.025 375.091C117.025 375.638 116.826 376.093 116.428 376.458C116.031 376.805 115.509 376.979 114.863 376.979C114.217 376.979 113.696 376.805 113.298 376.458C112.901 376.093 112.702 375.638 112.702 375.091ZM116.602 379.041V392.805H113.099V379.041H116.602ZM124.516 378.867C126.189 378.867 127.531 379.29 128.541 380.134C129.551 380.979 130.181 382.105 130.429 383.513H127.15C127.017 382.851 126.719 382.321 126.255 381.923C125.792 381.526 125.187 381.327 124.442 381.327C123.845 381.327 123.382 381.468 123.05 381.749C122.719 382.031 122.554 382.412 122.554 382.892C122.554 383.273 122.686 383.579 122.951 383.811C123.216 384.043 123.547 384.225 123.945 384.358C124.342 384.49 124.914 384.648 125.659 384.83C126.702 385.062 127.547 385.31 128.193 385.575C128.856 385.824 129.419 386.229 129.882 386.793C130.363 387.339 130.603 388.084 130.603 389.028C130.603 390.204 130.139 391.157 129.212 391.885C128.301 392.614 127.067 392.979 125.51 392.979C123.721 392.979 122.289 392.581 121.212 391.786C120.136 390.975 119.481 389.823 119.249 388.333H122.603C122.686 389.012 122.984 389.55 123.498 389.948C124.011 390.329 124.682 390.519 125.51 390.519C126.106 390.519 126.562 390.378 126.876 390.097C127.191 389.799 127.348 389.418 127.348 388.954C127.348 388.556 127.208 388.233 126.926 387.985C126.661 387.737 126.322 387.546 125.907 387.414C125.51 387.281 124.939 387.124 124.193 386.942C123.166 386.71 122.33 386.478 121.684 386.246C121.055 385.998 120.508 385.608 120.044 385.078C119.597 384.548 119.374 383.82 119.374 382.892C119.374 381.7 119.829 380.731 120.74 379.985C121.651 379.24 122.91 378.867 124.516 378.867ZM140.566 389.799V392.805H138.727C137.187 392.805 136.003 392.432 135.175 391.687C134.363 390.941 133.957 389.699 133.957 387.96V381.998H132.044V379.041H133.957V375.638H137.46V379.041H140.541V381.998H137.46V388.01C137.46 388.672 137.593 389.136 137.858 389.401C138.123 389.666 138.57 389.799 139.199 389.799H140.566ZM147.831 378.867C149.504 378.867 150.846 379.29 151.856 380.134C152.866 380.979 153.496 382.105 153.744 383.513H150.465C150.332 382.851 150.034 382.321 149.57 381.923C149.107 381.526 148.502 381.327 147.757 381.327C147.161 381.327 146.697 381.468 146.366 381.749C146.034 382.031 145.869 382.412 145.869 382.892C145.869 383.273 146.001 383.579 146.266 383.811C146.531 384.043 146.862 384.225 147.26 384.358C147.657 384.49 148.229 384.648 148.974 384.83C150.018 385.062 150.862 385.31 151.508 385.575C152.171 385.824 152.734 386.229 153.198 386.793C153.678 387.339 153.918 388.084 153.918 389.028C153.918 390.204 153.454 391.157 152.527 391.885C151.616 392.614 150.382 392.979 148.825 392.979C147.036 392.979 145.604 392.581 144.527 391.786C143.451 390.975 142.796 389.823 142.564 388.333H145.918C146.001 389.012 146.299 389.55 146.813 389.948C147.326 390.329 147.997 390.519 148.825 390.519C149.421 390.519 149.877 390.378 150.191 390.097C150.506 389.799 150.663 389.418 150.663 388.954C150.663 388.556 150.523 388.233 150.241 387.985C149.976 387.737 149.637 387.546 149.223 387.414C148.825 387.281 148.254 387.124 147.508 386.942C146.481 386.71 145.645 386.478 144.999 386.246C144.37 385.998 143.823 385.608 143.359 385.078C142.912 384.548 142.689 383.82 142.689 382.892C142.689 381.7 143.144 380.731 144.055 379.985C144.966 379.24 146.225 378.867 147.831 378.867Z" fill="white"/>
</g>
<path d="M291.875 14.5873V347.494L5.16434 180.715L291.875 14.5873Z" fill="#D81D5B"/>
<path d="M291.875 14.5873V347.494L5.16434 180.715L291.875 14.5873Z" stroke="white"/>
<g clip-path="url(#clip1_2638_111308)">
<path d="M200.699 139.628H199.536C197.297 139.628 195.465 137.796 195.465 135.557C195.465 133.318 197.297 131.486 199.536 131.486H200.699C202.938 131.486 204.77 133.318 204.77 135.557C204.77 137.796 202.938 139.628 200.699 139.628Z" fill="white"/>
<path d="M185.581 139.628H184.418C182.179 139.628 180.347 137.796 180.347 135.557C180.347 133.318 182.179 131.486 184.418 131.486H185.581C187.82 131.486 189.651 133.318 189.651 135.557C189.651 137.796 187.82 139.628 185.581 139.628Z" fill="white"/>
<g opacity="0.95">
<path d="M214.032 189.208H197.131C193.174 189.208 190.073 184.979 190.073 179.58V166.818H195.307V179.58C195.307 182.463 196.662 183.974 197.131 183.974H214.032C214.5 183.974 215.855 182.463 215.855 179.58V170.311H221.089V179.58C221.089 184.979 217.989 189.208 214.032 189.208Z" fill="white"/>
</g>
<g opacity="0.75">
<path d="M209.701 135.949C207.267 133.61 203.664 133.159 199.431 133.114V137.388C202.663 137.424 205.295 137.716 206.627 138.996C207.517 139.852 207.95 141.286 207.95 143.382C207.95 147.788 206.073 153.743 203.168 158.555C200.027 163.758 196.239 166.742 192.777 166.742C184.953 166.742 177.604 152.169 177.604 143.382C177.604 141.286 178.037 139.852 178.928 138.996C180.282 137.695 182.979 137.415 186.286 137.387V133.112C181.983 133.147 178.319 133.58 175.854 135.949C174.083 137.65 173.223 140.081 173.223 143.382C173.223 153.09 181.287 171.018 192.777 171.018C204.268 171.018 212.332 153.09 212.332 143.382C212.332 140.081 211.471 137.65 209.701 135.949Z" fill="white"/>
</g>
<g opacity="0.75">
<path d="M218.583 174.956C214.574 174.956 211.313 171.695 211.313 167.686C211.313 163.678 214.574 160.417 218.583 160.417C222.591 160.417 225.852 163.678 225.852 167.686C225.852 171.695 222.591 174.956 218.583 174.956ZM218.583 165.651C217.461 165.651 216.547 166.564 216.547 167.686C216.547 168.809 217.461 169.722 218.583 169.722C219.705 169.722 220.618 168.809 220.618 167.686C220.618 166.564 219.705 165.651 218.583 165.651Z" fill="white"/>
</g>
</g>
<path d="M136.974 233.508V240.017H133.471V222.477H139.856C141.926 222.477 143.483 222.974 144.526 223.968C145.586 224.961 146.116 226.311 146.116 228.017C146.116 229.69 145.57 231.023 144.477 232.017C143.4 233.011 141.86 233.508 139.856 233.508H136.974ZM139.483 230.7C141.537 230.7 142.564 229.806 142.564 228.017C142.564 227.139 142.323 226.469 141.843 226.005C141.363 225.541 140.576 225.309 139.483 225.309H136.974V230.7H139.483ZM156.59 226.055C158.18 226.055 159.447 226.576 160.391 227.62C161.335 228.663 161.807 230.129 161.807 232.017V240.017H158.329V232.414C158.329 231.321 158.047 230.477 157.484 229.88C156.921 229.268 156.151 228.961 155.174 228.961C154.18 228.961 153.385 229.284 152.789 229.93C152.193 230.576 151.894 231.504 151.894 232.713V240.017H148.392V221.632H151.894V229.011C152.259 228.083 152.855 227.363 153.683 226.85C154.528 226.32 155.497 226.055 156.59 226.055ZM167.249 226.253L171.001 235.594L174.479 226.253H178.33L169.908 246.575H166.032L169.137 239.619L163.349 226.253H167.249ZM184.725 226.079C186.398 226.079 187.739 226.502 188.749 227.346C189.76 228.191 190.389 229.317 190.638 230.725H187.358C187.226 230.063 186.928 229.533 186.464 229.135C186 228.738 185.396 228.539 184.65 228.539C184.054 228.539 183.59 228.68 183.259 228.961C182.928 229.243 182.762 229.624 182.762 230.104C182.762 230.485 182.895 230.791 183.16 231.023C183.425 231.255 183.756 231.437 184.153 231.57C184.551 231.702 185.122 231.86 185.868 232.042C186.911 232.274 187.756 232.522 188.402 232.787C189.064 233.036 189.627 233.441 190.091 234.004C190.571 234.551 190.811 235.296 190.811 236.24C190.811 237.416 190.348 238.369 189.42 239.097C188.509 239.826 187.275 240.191 185.719 240.191C183.93 240.191 182.497 239.793 181.421 238.998C180.344 238.186 179.69 237.035 179.458 235.545H182.812C182.895 236.224 183.193 236.762 183.706 237.16C184.22 237.541 184.89 237.731 185.719 237.731C186.315 237.731 186.77 237.59 187.085 237.309C187.4 237.011 187.557 236.63 187.557 236.166C187.557 235.768 187.416 235.445 187.135 235.197C186.87 234.949 186.53 234.758 186.116 234.626C185.719 234.493 185.147 234.336 184.402 234.154C183.375 233.922 182.539 233.69 181.893 233.458C181.263 233.209 180.717 232.82 180.253 232.29C179.806 231.76 179.582 231.032 179.582 230.104C179.582 228.912 180.038 227.943 180.949 227.197C181.859 226.452 183.118 226.079 184.725 226.079ZM193.023 222.303C193.023 221.74 193.222 221.285 193.619 220.937C194.017 220.572 194.538 220.39 195.184 220.39C195.83 220.39 196.352 220.572 196.749 220.937C197.147 221.285 197.346 221.74 197.346 222.303C197.346 222.85 197.147 223.305 196.749 223.67C196.352 224.017 195.83 224.191 195.184 224.191C194.538 224.191 194.017 224.017 193.619 223.67C193.222 223.305 193.023 222.85 193.023 222.303ZM196.923 226.253V240.017H193.42V226.253H196.923ZM206.278 226.079C208.05 226.079 209.524 226.56 210.7 227.52C211.893 228.481 212.638 229.789 212.936 231.446H209.235C209.086 230.717 208.746 230.145 208.216 229.731C207.686 229.301 207.015 229.085 206.204 229.085C205.276 229.085 204.498 229.433 203.868 230.129C203.256 230.808 202.949 231.81 202.949 233.135C202.949 234.46 203.256 235.47 203.868 236.166C204.498 236.845 205.276 237.184 206.204 237.184C207.015 237.184 207.686 236.977 208.216 236.563C208.746 236.133 209.086 235.553 209.235 234.824H212.936C212.638 236.481 211.893 237.789 210.7 238.75C209.524 239.71 208.05 240.191 206.278 240.191C204.937 240.191 203.744 239.909 202.701 239.346C201.657 238.766 200.846 237.946 200.266 236.886C199.686 235.826 199.397 234.576 199.397 233.135C199.397 231.694 199.686 230.444 200.266 229.384C200.846 228.307 201.657 227.487 202.701 226.924C203.744 226.361 204.937 226.079 206.278 226.079ZM215.028 222.303C215.028 221.74 215.227 221.285 215.624 220.937C216.022 220.572 216.543 220.39 217.189 220.39C217.835 220.39 218.357 220.572 218.754 220.937C219.152 221.285 219.351 221.74 219.351 222.303C219.351 222.85 219.152 223.305 218.754 223.67C218.357 224.017 217.835 224.191 217.189 224.191C216.543 224.191 216.022 224.017 215.624 223.67C215.227 223.305 215.028 222.85 215.028 222.303ZM218.928 226.253V240.017H215.425V226.253H218.928ZM227.488 226.079C228.648 226.079 229.641 226.353 230.469 226.899C231.298 227.446 231.886 228.183 232.233 229.11V226.253H235.711V240.017H232.233V237.135C231.886 238.062 231.298 238.808 230.469 239.371C229.641 239.917 228.648 240.191 227.488 240.191C226.329 240.191 225.285 239.909 224.358 239.346C223.43 238.783 222.702 237.971 222.172 236.911C221.658 235.835 221.402 234.576 221.402 233.135C221.402 231.694 221.658 230.444 222.172 229.384C222.702 228.307 223.43 227.487 224.358 226.924C225.285 226.361 226.329 226.079 227.488 226.079ZM228.581 229.135C227.488 229.135 226.61 229.491 225.948 230.203C225.285 230.916 224.954 231.893 224.954 233.135C224.954 234.377 225.285 235.354 225.948 236.066C226.61 236.762 227.488 237.11 228.581 237.11C229.641 237.11 230.511 236.754 231.19 236.042C231.886 235.313 232.233 234.344 232.233 233.135C232.233 231.909 231.886 230.94 231.19 230.228C230.511 229.5 229.641 229.135 228.581 229.135ZM247.084 226.055C248.674 226.055 249.941 226.576 250.885 227.62C251.829 228.663 252.301 230.129 252.301 232.017V240.017H248.823V232.414C248.823 231.321 248.542 230.477 247.979 229.88C247.416 229.268 246.645 228.961 245.668 228.961C244.675 228.961 243.88 229.284 243.283 229.93C242.687 230.576 242.389 231.504 242.389 232.713V240.017H238.886V226.253H242.389V229.011C242.753 228.083 243.35 227.363 244.178 226.85C245.022 226.32 245.991 226.055 247.084 226.055ZM260.129 226.079C261.802 226.079 263.143 226.502 264.153 227.346C265.164 228.191 265.793 229.317 266.042 230.725H262.762C262.63 230.063 262.332 229.533 261.868 229.135C261.404 228.738 260.8 228.539 260.054 228.539C259.458 228.539 258.994 228.68 258.663 228.961C258.332 229.243 258.166 229.624 258.166 230.104C258.166 230.485 258.299 230.791 258.564 231.023C258.829 231.255 259.16 231.437 259.557 231.57C259.955 231.702 260.526 231.86 261.272 232.042C262.315 232.274 263.16 232.522 263.806 232.787C264.468 233.036 265.031 233.441 265.495 234.004C265.975 234.551 266.215 235.296 266.215 236.24C266.215 237.416 265.752 238.369 264.824 239.097C263.913 239.826 262.679 240.191 261.122 240.191C259.334 240.191 257.901 239.793 256.825 238.998C255.748 238.186 255.094 237.035 254.862 235.545H258.216C258.299 236.224 258.597 236.762 259.11 237.16C259.624 237.541 260.294 237.731 261.122 237.731C261.719 237.731 262.174 237.59 262.489 237.309C262.804 237.011 262.961 236.63 262.961 236.166C262.961 235.768 262.82 235.445 262.539 235.197C262.274 234.949 261.934 234.758 261.52 234.626C261.122 234.493 260.551 234.336 259.806 234.154C258.779 233.922 257.943 233.69 257.297 233.458C256.667 233.209 256.121 232.82 255.657 232.29C255.21 231.76 254.986 231.032 254.986 230.104C254.986 228.912 255.442 227.943 256.353 227.197C257.263 226.452 258.522 226.079 260.129 226.079Z" fill="white"/>
<path d="M291.874 14.5805V347.487L5.16336 180.708L291.874 14.5805Z" fill="black" fill-opacity="0.4"/>
<path d="M291.874 14.5805V347.487L5.16336 180.708L291.874 14.5805Z" stroke="#711F3C"/>
<path d="M294.586 682.897V349.99L581.297 516.769L294.586 682.897Z" fill="#D81D5B"/>
<path d="M294.586 682.897V349.99L581.297 516.769L294.586 682.897Z" stroke="white"/>
<g clip-path="url(#clip2_2638_111308)">
<path d="M403.403 509.416H378.254C372.521 509.416 367.857 504.752 367.857 499.019V478.523C367.857 472.79 372.521 468.126 378.254 468.126H403.403C409.136 468.126 413.8 472.79 413.8 478.523V486.154H408.566V478.523C408.566 475.676 406.25 473.36 403.403 473.36H378.254C375.407 473.36 373.091 475.676 373.091 478.523V499.019C373.091 501.866 375.407 504.182 378.254 504.182H403.403C406.25 504.182 408.566 501.866 408.566 499.019V491.388H413.8V499.019C413.8 504.752 409.136 509.416 403.403 509.416Z" fill="white"/>
<g opacity="0.75">
<path d="M397.831 496.616H383.245C378.922 496.616 375.418 493.112 375.418 488.789V488.742C375.418 484.419 378.923 480.914 383.246 480.914H397.831C402.154 480.914 405.658 484.418 405.658 488.741V488.788C405.658 493.111 402.154 496.616 397.831 496.616ZM380.652 488.708V488.822C380.652 490.236 381.798 491.382 383.212 491.382H397.864C399.278 491.382 400.425 490.236 400.425 488.822V488.708C400.425 487.294 399.278 486.148 397.864 486.148H383.212C381.798 486.148 380.652 487.294 380.652 488.708Z" fill="white"/>
</g>
<path d="M393.443 480.911H388.209V496.613H393.443V480.911Z" fill="white"/>
<path d="M404.497 466.96H376.583V454.747H404.497V466.96ZM381.817 461.726H399.263V459.981H381.817V461.726Z" fill="white"/>
<g opacity="0.75">
<path d="M398.681 473.368H382.979V461.737H398.681V473.368ZM388.213 468.134H393.447V466.971H388.213V468.134Z" fill="white"/>
</g>
</g>
<path d="M315.91 555.238V561.747H312.407V544.208H318.791C320.862 544.208 322.419 544.704 323.462 545.698C324.522 546.692 325.052 548.042 325.052 549.748C325.052 551.42 324.505 552.754 323.412 553.747C322.336 554.741 320.795 555.238 318.791 555.238H315.91ZM318.419 552.431C320.472 552.431 321.499 551.536 321.499 549.748C321.499 548.87 321.259 548.199 320.779 547.735C320.299 547.272 319.512 547.04 318.419 547.04H315.91V552.431H318.419ZM335.526 547.785C337.116 547.785 338.383 548.307 339.327 549.35C340.271 550.394 340.743 551.859 340.743 553.747V561.747H337.265V554.145C337.265 553.052 336.983 552.207 336.42 551.611C335.857 550.998 335.087 550.692 334.11 550.692C333.116 550.692 332.321 551.015 331.725 551.661C331.128 552.307 330.83 553.234 330.83 554.443V561.747H327.327V543.363H330.83V550.741C331.195 549.814 331.791 549.093 332.619 548.58C333.464 548.05 334.433 547.785 335.526 547.785ZM349.216 547.81C350.375 547.81 351.369 548.083 352.197 548.63C353.025 549.176 353.613 549.913 353.961 550.841V547.984H357.439V561.747H353.961V558.865C353.613 559.793 353.025 560.538 352.197 561.101C351.369 561.648 350.375 561.921 349.216 561.921C348.057 561.921 347.013 561.639 346.086 561.076C345.158 560.513 344.429 559.702 343.899 558.642C343.386 557.565 343.129 556.306 343.129 554.865C343.129 553.424 343.386 552.174 343.899 551.114C344.429 550.037 345.158 549.218 346.086 548.655C347.013 548.091 348.057 547.81 349.216 547.81ZM350.309 550.866C349.216 550.866 348.338 551.222 347.676 551.934C347.013 552.646 346.682 553.623 346.682 554.865C346.682 556.108 347.013 557.085 347.676 557.797C348.338 558.493 349.216 558.84 350.309 558.84C351.369 558.84 352.239 558.484 352.918 557.772C353.613 557.043 353.961 556.074 353.961 554.865C353.961 553.64 353.613 552.671 352.918 551.959C352.239 551.23 351.369 550.866 350.309 550.866ZM364.117 550.617C364.63 549.739 365.309 549.052 366.154 548.555C366.998 548.042 367.943 547.785 368.986 547.785V551.536H367.967C365.4 551.536 364.117 552.729 364.117 555.114V561.747H360.614V547.984H364.117V550.617ZM388.439 547.785C390.112 547.785 391.429 548.307 392.39 549.35C393.367 550.377 393.855 551.843 393.855 553.747V561.747H390.377V554.145C390.377 553.085 390.104 552.273 389.557 551.71C389.027 551.131 388.29 550.841 387.346 550.841C386.369 550.841 385.591 551.147 385.011 551.76C384.431 552.373 384.141 553.267 384.141 554.443V561.747H380.663V554.145C380.663 553.085 380.39 552.273 379.844 551.71C379.314 551.131 378.577 550.841 377.632 550.841C376.655 550.841 375.877 551.147 375.297 551.76C374.718 552.373 374.428 553.267 374.428 554.443V561.747H370.925V547.984H374.428V550.592C374.792 549.698 375.363 549.011 376.142 548.53C376.937 548.033 377.856 547.785 378.9 547.785C380.009 547.785 380.97 548.05 381.781 548.58C382.609 549.11 383.231 549.872 383.645 550.866C384.075 549.922 384.713 549.176 385.558 548.63C386.419 548.067 387.379 547.785 388.439 547.785ZM402.324 547.81C403.483 547.81 404.477 548.083 405.305 548.63C406.133 549.176 406.721 549.913 407.069 550.841V547.984H410.547V561.747H407.069V558.865C406.721 559.793 406.133 560.538 405.305 561.101C404.477 561.648 403.483 561.921 402.324 561.921C401.164 561.921 400.121 561.639 399.194 561.076C398.266 560.513 397.537 559.702 397.007 558.642C396.494 557.565 396.237 556.306 396.237 554.865C396.237 553.424 396.494 552.174 397.007 551.114C397.537 550.037 398.266 549.218 399.194 548.655C400.121 548.091 401.164 547.81 402.324 547.81ZM403.417 550.866C402.324 550.866 401.446 551.222 400.784 551.934C400.121 552.646 399.79 553.623 399.79 554.865C399.79 556.108 400.121 557.085 400.784 557.797C401.446 558.493 402.324 558.84 403.417 558.84C404.477 558.84 405.346 558.484 406.026 557.772C406.721 557.043 407.069 556.074 407.069 554.865C407.069 553.64 406.721 552.671 406.026 551.959C405.346 551.23 404.477 550.866 403.417 550.866ZM419.908 547.81C421.68 547.81 423.154 548.29 424.33 549.251C425.522 550.211 426.268 551.52 426.566 553.176H422.864C422.715 552.447 422.375 551.876 421.845 551.462C421.315 551.031 420.645 550.816 419.833 550.816C418.906 550.816 418.127 551.164 417.498 551.859C416.885 552.538 416.579 553.54 416.579 554.865C416.579 556.19 416.885 557.201 417.498 557.896C418.127 558.575 418.906 558.915 419.833 558.915C420.645 558.915 421.315 558.708 421.845 558.294C422.375 557.863 422.715 557.284 422.864 556.555H426.566C426.268 558.211 425.522 559.519 424.33 560.48C423.154 561.441 421.68 561.921 419.908 561.921C418.566 561.921 417.374 561.639 416.33 561.076C415.287 560.497 414.475 559.677 413.896 558.617C413.316 557.557 413.026 556.306 413.026 554.865C413.026 553.424 413.316 552.174 413.896 551.114C414.475 550.037 415.287 549.218 416.33 548.655C417.374 548.091 418.566 547.81 419.908 547.81ZM428.657 544.034C428.657 543.471 428.856 543.015 429.253 542.667C429.651 542.303 430.173 542.121 430.819 542.121C431.465 542.121 431.986 542.303 432.384 542.667C432.781 543.015 432.98 543.471 432.98 544.034C432.98 544.58 432.781 545.036 432.384 545.4C431.986 545.748 431.465 545.922 430.819 545.922C430.173 545.922 429.651 545.748 429.253 545.4C428.856 545.036 428.657 544.58 428.657 544.034ZM432.558 547.984V561.747H429.055V547.984H432.558ZM440.472 547.81C442.144 547.81 443.486 548.232 444.496 549.077C445.507 549.922 446.136 551.048 446.384 552.456H443.105C442.973 551.793 442.674 551.263 442.211 550.866C441.747 550.468 441.142 550.269 440.397 550.269C439.801 550.269 439.337 550.41 439.006 550.692C438.675 550.973 438.509 551.354 438.509 551.835C438.509 552.215 438.642 552.522 438.907 552.754C439.172 552.986 439.503 553.168 439.9 553.3C440.298 553.433 440.869 553.59 441.614 553.772C442.658 554.004 443.503 554.253 444.149 554.518C444.811 554.766 445.374 555.172 445.838 555.735C446.318 556.281 446.558 557.027 446.558 557.971C446.558 559.147 446.095 560.099 445.167 560.828C444.256 561.557 443.022 561.921 441.465 561.921C439.677 561.921 438.244 561.523 437.167 560.728C436.091 559.917 435.437 558.766 435.205 557.275H438.559C438.642 557.954 438.94 558.493 439.453 558.89C439.967 559.271 440.637 559.461 441.465 559.461C442.062 559.461 442.517 559.321 442.832 559.039C443.146 558.741 443.304 558.36 443.304 557.896C443.304 557.499 443.163 557.176 442.881 556.927C442.616 556.679 442.277 556.489 441.863 556.356C441.465 556.224 440.894 556.066 440.149 555.884C439.122 555.652 438.285 555.42 437.64 555.188C437.01 554.94 436.464 554.551 436 554.021C435.553 553.491 435.329 552.762 435.329 551.835C435.329 550.642 435.785 549.673 436.695 548.928C437.606 548.183 438.865 547.81 440.472 547.81ZM456.521 558.741V561.747H454.683C453.142 561.747 451.958 561.374 451.13 560.629C450.318 559.884 449.913 558.642 449.913 556.903V550.94H448V547.984H449.913V544.58H453.416V547.984H456.496V550.94H453.416V556.952C453.416 557.615 453.548 558.079 453.813 558.344C454.078 558.609 454.525 558.741 455.155 558.741H456.521ZM463.787 547.81C465.46 547.81 466.801 548.232 467.811 549.077C468.822 549.922 469.451 551.048 469.7 552.456H466.42C466.288 551.793 465.99 551.263 465.526 550.866C465.062 550.468 464.458 550.269 463.712 550.269C463.116 550.269 462.652 550.41 462.321 550.692C461.99 550.973 461.824 551.354 461.824 551.835C461.824 552.215 461.957 552.522 462.222 552.754C462.487 552.986 462.818 553.168 463.215 553.3C463.613 553.433 464.184 553.59 464.93 553.772C465.973 554.004 466.818 554.253 467.464 554.518C468.126 554.766 468.689 555.172 469.153 555.735C469.633 556.281 469.873 557.027 469.873 557.971C469.873 559.147 469.41 560.099 468.482 560.828C467.571 561.557 466.337 561.921 464.78 561.921C462.992 561.921 461.559 561.523 460.483 560.728C459.406 559.917 458.752 558.766 458.52 557.275H461.874C461.957 557.954 462.255 558.493 462.768 558.89C463.282 559.271 463.952 559.461 464.78 559.461C465.377 559.461 465.832 559.321 466.147 559.039C466.462 558.741 466.619 558.36 466.619 557.896C466.619 557.499 466.478 557.176 466.197 556.927C465.932 556.679 465.592 556.489 465.178 556.356C464.78 556.224 464.209 556.066 463.464 555.884C462.437 555.652 461.601 555.42 460.955 555.188C460.325 554.94 459.779 554.551 459.315 554.021C458.868 553.491 458.644 552.762 458.644 551.835C458.644 550.642 459.1 549.673 460.011 548.928C460.921 548.183 462.18 547.81 463.787 547.81Z" fill="white"/>
<path d="M294.586 682.897V349.99L581.297 516.769L294.586 682.897Z" fill="black" fill-opacity="0.4"/>
<path d="M294.586 682.897V349.99L581.297 516.769L294.586 682.897Z" stroke="#711F3C"/>
<path d="M291.875 349.984V682.891L3 516.111L291.875 349.984Z" fill="#D81D5B"/>
<path d="M291.875 349.984V682.891L3 516.111L291.875 349.984Z" stroke="white"/>
<g clip-path="url(#clip3_2638_111308)">
<g opacity="0.75">
<path d="M207.212 488.812H201.979V502.188H207.212V488.812Z" fill="white"/>
</g>
<g opacity="0.75">
<path d="M211.289 492.906H197.913V498.14H211.289V492.906Z" fill="white"/>
</g>
<path d="M204.52 481.474C192.991 481.474 183.623 490.52 183.716 501.605C183.717 501.606 183.718 501.607 183.719 501.608H185.761H188.944H194.64V496.375H189.889C192.079 490.739 197.811 486.707 204.52 486.707C211.229 486.707 216.961 490.739 219.151 496.375H214.412V501.608H220.096H224.076H225.321C225.322 501.607 225.323 501.606 225.324 501.605C225.417 490.52 216.048 481.474 204.52 481.474Z" fill="white"/>
<g opacity="0.75">
<path d="M204.692 486.707C197.588 486.707 191.808 481.151 191.808 474.322C191.808 467.493 197.588 461.937 204.692 461.937C211.796 461.937 217.576 467.492 217.576 474.322C217.576 481.151 211.796 486.707 204.692 486.707ZM204.692 467.17C200.473 467.17 197.042 470.378 197.042 474.322C197.042 478.265 200.473 481.473 204.692 481.473C208.91 481.473 212.342 478.265 212.342 474.322C212.342 470.378 208.91 467.17 204.692 467.17Z" fill="white"/>
</g>
</g>
<path d="M147.082 555.236V561.745H143.579V544.206H149.963C152.034 544.206 153.591 544.702 154.634 545.696C155.694 546.69 156.224 548.04 156.224 549.746C156.224 551.418 155.677 552.752 154.584 553.746C153.508 554.739 151.967 555.236 149.963 555.236H147.082ZM149.591 552.429C151.645 552.429 152.671 551.534 152.671 549.746C152.671 548.868 152.431 548.197 151.951 547.733C151.471 547.27 150.684 547.038 149.591 547.038H147.082V552.429H149.591ZM171.443 554.342C171.443 554.69 171.401 555.087 171.319 555.534H161.232C161.282 556.76 161.613 557.662 162.226 558.242C162.839 558.822 163.601 559.112 164.511 559.112C165.323 559.112 165.994 558.913 166.524 558.515C167.07 558.118 167.418 557.58 167.567 556.901H171.269C171.087 557.861 170.697 558.722 170.101 559.484C169.505 560.246 168.735 560.842 167.791 561.273C166.863 561.704 165.828 561.919 164.685 561.919C163.344 561.919 162.151 561.637 161.108 561.074C160.064 560.495 159.253 559.675 158.673 558.615C158.094 557.555 157.804 556.304 157.804 554.863C157.804 553.423 158.094 552.172 158.673 551.112C159.253 550.036 160.064 549.216 161.108 548.653C162.151 548.089 163.344 547.808 164.685 547.808C166.043 547.808 167.228 548.089 168.238 548.653C169.265 549.216 170.052 549.994 170.598 550.988C171.161 551.965 171.443 553.083 171.443 554.342ZM167.915 553.994C167.965 552.868 167.667 552.015 167.021 551.435C166.391 550.855 165.613 550.566 164.685 550.566C163.741 550.566 162.946 550.855 162.3 551.435C161.654 552.015 161.298 552.868 161.232 553.994H167.915ZM177.432 550.615C177.946 549.737 178.625 549.05 179.47 548.553C180.314 548.04 181.258 547.783 182.302 547.783V551.534H181.283C178.716 551.534 177.432 552.727 177.432 555.112V561.745H173.929V547.982H177.432V550.615ZM188.986 547.808C190.658 547.808 192 548.23 193.01 549.075C194.021 549.92 194.65 551.046 194.898 552.454H191.619C191.487 551.791 191.188 551.261 190.725 550.864C190.261 550.466 189.656 550.267 188.911 550.267C188.315 550.267 187.851 550.408 187.52 550.69C187.189 550.971 187.023 551.352 187.023 551.833C187.023 552.213 187.155 552.52 187.42 552.752C187.685 552.984 188.017 553.166 188.414 553.298C188.812 553.431 189.383 553.588 190.128 553.77C191.172 554.002 192.017 554.251 192.662 554.516C193.325 554.764 193.888 555.17 194.352 555.733C194.832 556.28 195.072 557.025 195.072 557.969C195.072 559.145 194.609 560.097 193.681 560.826C192.77 561.555 191.536 561.919 189.979 561.919C188.191 561.919 186.758 561.522 185.681 560.727C184.605 559.915 183.951 558.764 183.719 557.273H187.073C187.155 557.952 187.454 558.491 187.967 558.888C188.48 559.269 189.151 559.46 189.979 559.46C190.576 559.46 191.031 559.319 191.346 559.037C191.66 558.739 191.818 558.358 191.818 557.894C191.818 557.497 191.677 557.174 191.395 556.925C191.13 556.677 190.791 556.487 190.377 556.354C189.979 556.222 189.408 556.064 188.663 555.882C187.636 555.65 186.799 555.418 186.153 555.186C185.524 554.938 184.978 554.549 184.514 554.019C184.067 553.489 183.843 552.76 183.843 551.833C183.843 550.64 184.298 549.671 185.209 548.926C186.12 548.181 187.379 547.808 188.986 547.808ZM204.041 547.808C205.383 547.808 206.584 548.089 207.644 548.653C208.72 549.216 209.565 550.036 210.178 551.112C210.79 552.172 211.097 553.423 211.097 554.863C211.097 556.304 210.79 557.555 210.178 558.615C209.565 559.675 208.72 560.495 207.644 561.074C206.584 561.637 205.383 561.919 204.041 561.919C202.7 561.919 201.491 561.637 200.414 561.074C199.354 560.495 198.518 559.675 197.905 558.615C197.292 557.555 196.986 556.304 196.986 554.863C196.986 553.423 197.292 552.172 197.905 551.112C198.518 550.036 199.354 549.216 200.414 548.653C201.491 548.089 202.7 547.808 204.041 547.808ZM204.041 550.839C203.064 550.839 202.236 551.187 201.557 551.882C200.878 552.561 200.538 553.555 200.538 554.863C200.538 556.172 200.878 557.174 201.557 557.87C202.236 558.549 203.064 558.888 204.041 558.888C205.018 558.888 205.846 558.549 206.526 557.87C207.205 557.174 207.544 556.172 207.544 554.863C207.544 553.555 207.205 552.561 206.526 551.882C205.846 551.187 205.018 550.839 204.041 550.839ZM221.771 547.783C223.361 547.783 224.628 548.305 225.572 549.348C226.516 550.392 226.988 551.857 226.988 553.746V561.745H223.51V554.143C223.51 553.05 223.228 552.205 222.665 551.609C222.102 550.996 221.332 550.69 220.355 550.69C219.361 550.69 218.566 551.013 217.97 551.659C217.373 552.305 217.075 553.232 217.075 554.441V561.745H213.572V547.982H217.075V550.739C217.44 549.812 218.036 549.091 218.864 548.578C219.709 548.048 220.678 547.783 221.771 547.783ZM238.268 547.783C239.858 547.783 241.125 548.305 242.069 549.348C243.014 550.392 243.486 551.857 243.486 553.746V561.745H240.007V554.143C240.007 553.05 239.726 552.205 239.163 551.609C238.6 550.996 237.829 550.69 236.852 550.69C235.859 550.69 235.064 551.013 234.467 551.659C233.871 552.305 233.573 553.232 233.573 554.441V561.745H230.07V547.982H233.573V550.739C233.937 549.812 234.534 549.091 235.362 548.578C236.206 548.048 237.175 547.783 238.268 547.783ZM259.511 554.342C259.511 554.69 259.47 555.087 259.387 555.534H249.3C249.35 556.76 249.681 557.662 250.294 558.242C250.907 558.822 251.669 559.112 252.58 559.112C253.391 559.112 254.062 558.913 254.592 558.515C255.139 558.118 255.487 557.58 255.636 556.901H259.337C259.155 557.861 258.766 558.722 258.17 559.484C257.573 560.246 256.803 560.842 255.859 561.273C254.932 561.704 253.897 561.919 252.754 561.919C251.412 561.919 250.22 561.637 249.176 561.074C248.133 560.495 247.321 559.675 246.742 558.615C246.162 557.555 245.872 556.304 245.872 554.863C245.872 553.423 246.162 552.172 246.742 551.112C247.321 550.036 248.133 549.216 249.176 548.653C250.22 548.089 251.412 547.808 252.754 547.808C254.112 547.808 255.296 548.089 256.306 548.653C257.333 549.216 258.12 549.994 258.666 550.988C259.23 551.965 259.511 553.083 259.511 554.342ZM255.983 553.994C256.033 552.868 255.735 552.015 255.089 551.435C254.46 550.855 253.681 550.566 252.754 550.566C251.81 550.566 251.015 550.855 250.369 551.435C249.723 552.015 249.367 552.868 249.3 553.994H255.983ZM265.501 543.361V561.745H261.998V543.361H265.501Z" fill="white"/>
<path d="M291.875 349.984V682.891L3 516.111L291.875 349.984Z" fill="black" fill-opacity="0.4"/>
<path d="M291.875 349.984V682.891L3 516.111L291.875 349.984Z" stroke="#711F3C"/>
<path d="M581.297 513.796V184.255L296.6 349.07L581.297 513.796Z" fill="#A662A7"/>
<path d="M581.297 513.796V184.255L296.6 349.07L581.297 513.796Z" stroke="white"/>
<g opacity="0.85">
<path d="M485.444 316.235C475.823 316.235 467.994 323.74 467.961 332.978H470.304H473.187H482.545L482.555 327.744H474.559C476.599 324.023 480.706 321.469 485.444 321.469C490.181 321.469 494.289 324.023 496.328 327.744H488.361L488.35 332.978H497.7H498.17H502.926C502.893 323.74 495.064 316.235 485.444 316.235Z" fill="white"/>
</g>
<g opacity="0.75">
<path d="M486.063 321.465C479.992 321.465 475.053 316.709 475.053 310.864C475.053 305.018 479.992 300.262 486.063 300.262C492.134 300.262 497.073 305.018 497.073 310.864C497.073 316.709 492.134 321.465 486.063 321.465ZM486.063 305.496C482.878 305.496 480.287 307.904 480.287 310.863C480.287 313.824 482.878 316.231 486.063 316.231C489.248 316.231 491.839 313.824 491.839 310.863C491.839 307.904 489.248 305.496 486.063 305.496Z" fill="white"/>
</g>
<path d="M459.868 312.836C448.339 312.836 438.971 321.882 439.063 332.967C439.065 332.969 439.065 332.969 439.067 332.971H441.109H444.292H456.966L456.976 327.737H445.237C447.426 322.101 453.159 318.07 459.868 318.07C466.577 318.07 472.309 322.101 474.498 327.737H462.782L462.771 332.971H475.443H479.424H480.668C480.67 332.969 480.671 332.969 480.672 332.967C480.764 321.882 471.396 312.836 459.868 312.836Z" fill="white"/>
<g opacity="0.75">
<path d="M460.035 318.069C452.93 318.069 447.15 312.513 447.15 305.684C447.15 298.855 452.93 293.299 460.035 293.299C467.139 293.299 472.919 298.855 472.919 305.684C472.919 312.513 467.139 318.069 460.035 318.069ZM460.035 298.533C455.816 298.533 452.384 301.741 452.384 305.684C452.384 309.627 455.816 312.835 460.035 312.835C464.253 312.835 467.685 309.627 467.685 305.684C467.685 301.741 464.253 298.533 460.035 298.533Z" fill="white"/>
</g>
<path d="M424.328 386.296V392.805H420.825V375.265H427.21C429.28 375.265 430.837 375.762 431.88 376.756C432.94 377.75 433.47 379.099 433.47 380.805C433.47 382.478 432.924 383.811 431.831 384.805C430.754 385.799 429.214 386.296 427.21 386.296H424.328ZM426.837 383.488C428.891 383.488 429.918 382.594 429.918 380.805C429.918 379.927 429.678 379.257 429.197 378.793C428.717 378.329 427.93 378.097 426.837 378.097H424.328V383.488H426.837ZM441.137 378.867C442.296 378.867 443.29 379.141 444.118 379.687C444.946 380.234 445.534 380.971 445.882 381.898V379.041H449.36V392.805H445.882V389.923C445.534 390.85 444.946 391.596 444.118 392.159C443.29 392.705 442.296 392.979 441.137 392.979C439.977 392.979 438.934 392.697 438.007 392.134C437.079 391.571 436.35 390.759 435.82 389.699C435.307 388.623 435.05 387.364 435.05 385.923C435.05 384.482 435.307 383.232 435.82 382.172C436.35 381.095 437.079 380.275 438.007 379.712C438.934 379.149 439.977 378.867 441.137 378.867ZM442.23 381.923C441.137 381.923 440.259 382.279 439.597 382.991C438.934 383.704 438.603 384.681 438.603 385.923C438.603 387.165 438.934 388.142 439.597 388.855C440.259 389.55 441.137 389.898 442.23 389.898C443.29 389.898 444.159 389.542 444.839 388.83C445.534 388.101 445.882 387.132 445.882 385.923C445.882 384.697 445.534 383.729 444.839 383.016C444.159 382.288 443.29 381.923 442.23 381.923ZM459.888 389.799V392.805H458.05C456.51 392.805 455.325 392.432 454.497 391.687C453.686 390.941 453.28 389.699 453.28 387.96V381.998H451.367V379.041H453.28V375.638H456.783V379.041H459.863V381.998H456.783V388.01C456.783 388.672 456.915 389.136 457.18 389.401C457.445 389.666 457.892 389.799 458.522 389.799H459.888ZM462.011 375.091C462.011 374.528 462.21 374.073 462.608 373.725C463.005 373.36 463.527 373.178 464.173 373.178C464.819 373.178 465.34 373.36 465.738 373.725C466.135 374.073 466.334 374.528 466.334 375.091C466.334 375.638 466.135 376.093 465.738 376.458C465.34 376.805 464.819 376.979 464.173 376.979C463.527 376.979 463.005 376.805 462.608 376.458C462.21 376.093 462.011 375.638 462.011 375.091ZM465.912 379.041V392.805H462.409V379.041H465.912ZM482.024 385.401C482.024 385.749 481.983 386.147 481.9 386.594H471.814C471.863 387.819 472.194 388.722 472.807 389.302C473.42 389.881 474.182 390.171 475.093 390.171C475.904 390.171 476.575 389.973 477.105 389.575C477.652 389.178 478 388.639 478.149 387.96H481.85C481.668 388.921 481.279 389.782 480.683 390.544C480.086 391.306 479.316 391.902 478.372 392.333C477.445 392.763 476.41 392.979 475.267 392.979C473.925 392.979 472.733 392.697 471.689 392.134C470.646 391.554 469.834 390.734 469.255 389.674C468.675 388.614 468.385 387.364 468.385 385.923C468.385 384.482 468.675 383.232 469.255 382.172C469.834 381.095 470.646 380.275 471.689 379.712C472.733 379.149 473.925 378.867 475.267 378.867C476.625 378.867 477.809 379.149 478.819 379.712C479.846 380.275 480.633 381.054 481.18 382.047C481.743 383.025 482.024 384.143 482.024 385.401ZM478.496 385.054C478.546 383.927 478.248 383.074 477.602 382.495C476.973 381.915 476.194 381.625 475.267 381.625C474.323 381.625 473.528 381.915 472.882 382.495C472.236 383.074 471.88 383.927 471.814 385.054H478.496ZM492.709 378.843C494.299 378.843 495.566 379.364 496.51 380.408C497.454 381.451 497.926 382.917 497.926 384.805V392.805H494.448V385.203C494.448 384.109 494.167 383.265 493.604 382.669C493.041 382.056 492.27 381.749 491.293 381.749C490.299 381.749 489.504 382.072 488.908 382.718C488.312 383.364 488.014 384.292 488.014 385.501V392.805H484.511V379.041H488.014V381.799C488.378 380.872 488.974 380.151 489.803 379.638C490.647 379.108 491.616 378.843 492.709 378.843ZM508.362 389.799V392.805H506.524C504.984 392.805 503.799 392.432 502.971 391.687C502.16 390.941 501.754 389.699 501.754 387.96V381.998H499.841V379.041H501.754V375.638H505.257V379.041H508.337V381.998H505.257V388.01C505.257 388.672 505.389 389.136 505.654 389.401C505.919 389.666 506.366 389.799 506.996 389.799H508.362ZM515.628 378.867C517.301 378.867 518.642 379.29 519.653 380.134C520.663 380.979 521.292 382.105 521.541 383.513H518.261C518.129 382.851 517.831 382.321 517.367 381.923C516.903 381.526 516.299 381.327 515.553 381.327C514.957 381.327 514.493 381.468 514.162 381.749C513.831 382.031 513.665 382.412 513.665 382.892C513.665 383.273 513.798 383.579 514.063 383.811C514.328 384.043 514.659 384.225 515.057 384.358C515.454 384.49 516.025 384.648 516.771 384.83C517.814 385.062 518.659 385.31 519.305 385.575C519.967 385.824 520.53 386.229 520.994 386.793C521.475 387.339 521.715 388.084 521.715 389.028C521.715 390.204 521.251 391.157 520.323 391.885C519.412 392.614 518.179 392.979 516.622 392.979C514.833 392.979 513.4 392.581 512.324 391.786C511.247 390.975 510.593 389.823 510.361 388.333H513.715C513.798 389.012 514.096 389.55 514.609 389.948C515.123 390.329 515.794 390.519 516.622 390.519C517.218 390.519 517.673 390.378 517.988 390.097C518.303 389.799 518.46 389.418 518.46 388.954C518.46 388.556 518.319 388.233 518.038 387.985C517.773 387.737 517.433 387.546 517.019 387.414C516.622 387.281 516.05 387.124 515.305 386.942C514.278 386.71 513.442 386.478 512.796 386.246C512.166 385.998 511.62 385.608 511.156 385.078C510.709 384.548 510.485 383.82 510.485 382.892C510.485 381.7 510.941 380.731 511.852 379.985C512.763 379.24 514.021 378.867 515.628 378.867Z" fill="white"/>
<path d="M581.297 513.796V184.255L296.6 349.07L581.297 513.796Z" fill="black" fill-opacity="0.4"/>
<path d="M581.297 513.796V184.255L296.6 349.07L581.297 513.796Z" stroke="#711F3C"/>
<path d="M296.597 11.1352L290.586 7.63846V14.5928V347.5V354.44L296.591 350.961L583.302 184.833L589.263 181.379L583.308 177.914L296.597 11.1352Z" fill="#902F57" stroke="white" stroke-width="8"/>
<g clip-path="url(#clip4_2638_111308)">
<path d="M374.179 161.222L394.482 150.886V173.152L374.128 183.197L374.179 161.222ZM348.54 146.25L371.22 135.782L391.999 146.265L371.571 156.664L348.54 146.25ZM371.053 130.135L340.979 144.297L341.033 158.284L346.213 160.861L346.173 150.422L368.894 161.278L368.841 183.543L346.213 171.809L346.196 167.378L340.979 164.782L341.019 175.04L371.006 190.59L399.716 176.422V144.33L371.053 130.135Z" fill="white"/>
<g opacity="0.75">
<path d="M389.819 181.352L381.096 185.515L380.986 176.959L389.819 172.562V181.352Z" fill="white"/>
</g>
<g opacity="0.75">
<path d="M350.285 139.83L360.178 135.178L389.83 149.851L389.839 159.205L381.107 163.023V154.77L350.285 139.83Z" fill="white"/>
</g>
</g>
<path d="M325.456 235.223C325.456 236.117 325.232 236.945 324.785 237.707C324.338 238.452 323.676 239.057 322.798 239.521C321.92 239.968 320.852 240.191 319.593 240.191C318.351 240.191 317.241 239.984 316.264 239.57C315.287 239.14 314.5 238.527 313.904 237.732C313.324 236.937 312.993 236.009 312.91 234.949H316.637C316.719 235.662 317.001 236.258 317.481 236.738C317.978 237.202 318.632 237.434 319.444 237.434C320.173 237.434 320.728 237.243 321.108 236.862C321.506 236.465 321.705 235.96 321.705 235.347C321.705 234.8 321.547 234.353 321.233 234.005C320.918 233.641 320.52 233.351 320.04 233.136C319.56 232.921 318.897 232.672 318.053 232.391C316.96 232.026 316.065 231.67 315.37 231.322C314.674 230.958 314.078 230.436 313.581 229.757C313.101 229.078 312.86 228.192 312.86 227.099C312.86 225.592 313.399 224.408 314.475 223.546C315.568 222.669 317.009 222.23 318.798 222.23C320.653 222.23 322.127 222.677 323.22 223.571C324.33 224.466 324.959 225.658 325.108 227.149H321.332C321.233 226.519 320.968 226.006 320.537 225.608C320.106 225.194 319.518 224.987 318.773 224.987C318.127 224.987 317.606 225.161 317.208 225.509C316.811 225.84 316.612 226.329 316.612 226.975C316.612 227.488 316.761 227.919 317.059 228.267C317.374 228.598 317.763 228.871 318.227 229.086C318.707 229.302 319.353 229.542 320.164 229.807C321.291 230.204 322.202 230.577 322.897 230.925C323.609 231.273 324.214 231.794 324.711 232.49C325.208 233.186 325.456 234.097 325.456 235.223ZM341.204 226.254V240.018H337.701V237.235C337.336 238.163 336.732 238.891 335.887 239.421C335.059 239.935 334.098 240.191 333.005 240.191C331.415 240.191 330.148 239.67 329.204 238.626C328.26 237.583 327.788 236.125 327.788 234.254V226.254H331.266V233.856C331.266 234.949 331.548 235.802 332.111 236.415C332.674 237.012 333.436 237.31 334.396 237.31C335.407 237.31 336.21 236.987 336.806 236.341C337.402 235.695 337.701 234.767 337.701 233.558V226.254H341.204ZM352.612 226.08C353.771 226.08 354.815 226.362 355.742 226.925C356.67 227.488 357.39 228.308 357.903 229.385C358.433 230.445 358.698 231.695 358.698 233.136C358.698 234.577 358.433 235.836 357.903 236.912C357.39 237.972 356.67 238.784 355.742 239.347C354.815 239.91 353.771 240.191 352.612 240.191C351.452 240.191 350.459 239.918 349.631 239.372C348.819 238.809 348.239 238.063 347.892 237.136V246.576H344.389V226.254H347.892V229.111C348.239 228.184 348.819 227.447 349.631 226.9C350.459 226.354 351.452 226.08 352.612 226.08ZM351.519 229.136C350.459 229.136 349.581 229.5 348.885 230.229C348.206 230.941 347.867 231.91 347.867 233.136C347.867 234.345 348.206 235.314 348.885 236.043C349.581 236.755 350.459 237.111 351.519 237.111C352.612 237.111 353.49 236.763 354.152 236.067C354.815 235.355 355.146 234.378 355.146 233.136C355.146 231.894 354.815 230.917 354.152 230.204C353.49 229.492 352.612 229.136 351.519 229.136ZM369.401 226.08C370.56 226.08 371.603 226.362 372.531 226.925C373.458 227.488 374.179 228.308 374.692 229.385C375.222 230.445 375.487 231.695 375.487 233.136C375.487 234.577 375.222 235.836 374.692 236.912C374.179 237.972 373.458 238.784 372.531 239.347C371.603 239.91 370.56 240.191 369.401 240.191C368.241 240.191 367.247 239.918 366.419 239.372C365.608 238.809 365.028 238.063 364.68 237.136V246.576H361.177V226.254H364.68V229.111C365.028 228.184 365.608 227.447 366.419 226.9C367.247 226.354 368.241 226.08 369.401 226.08ZM368.307 229.136C367.247 229.136 366.37 229.5 365.674 230.229C364.995 230.941 364.655 231.91 364.655 233.136C364.655 234.345 364.995 235.314 365.674 236.043C366.37 236.755 367.247 237.111 368.307 237.111C369.401 237.111 370.278 236.763 370.941 236.067C371.603 235.355 371.935 234.378 371.935 233.136C371.935 231.894 371.603 230.917 370.941 230.204C370.278 229.492 369.401 229.136 368.307 229.136ZM381.469 221.633V240.018H377.966V221.633H381.469ZM384.241 222.304C384.241 221.741 384.439 221.286 384.837 220.938C385.234 220.573 385.756 220.391 386.402 220.391C387.048 220.391 387.57 220.573 387.967 220.938C388.365 221.286 388.563 221.741 388.563 222.304C388.563 222.851 388.365 223.306 387.967 223.671C387.57 224.018 387.048 224.192 386.402 224.192C385.756 224.192 385.234 224.018 384.837 223.671C384.439 223.306 384.241 222.851 384.241 222.304ZM388.141 226.254V240.018H384.638V226.254H388.141ZM404.253 232.614C404.253 232.962 404.212 233.36 404.129 233.807H394.043C394.092 235.032 394.424 235.935 395.036 236.515C395.649 237.094 396.411 237.384 397.322 237.384C398.134 237.384 398.804 237.185 399.334 236.788C399.881 236.39 400.229 235.852 400.378 235.173H404.079C403.897 236.134 403.508 236.995 402.912 237.757C402.316 238.519 401.545 239.115 400.601 239.546C399.674 239.976 398.639 240.191 397.496 240.191C396.154 240.191 394.962 239.91 393.918 239.347C392.875 238.767 392.063 237.947 391.484 236.887C390.904 235.827 390.614 234.577 390.614 233.136C390.614 231.695 390.904 230.445 391.484 229.385C392.063 228.308 392.875 227.488 393.918 226.925C394.962 226.362 396.154 226.08 397.496 226.08C398.854 226.08 400.038 226.362 401.049 226.925C402.075 227.488 402.862 228.267 403.409 229.26C403.972 230.238 404.253 231.355 404.253 232.614ZM400.726 232.266C400.775 231.14 400.477 230.287 399.831 229.708C399.202 229.128 398.423 228.838 397.496 228.838C396.552 228.838 395.757 229.128 395.111 229.708C394.465 230.287 394.109 231.14 394.043 232.266H400.726ZM410.243 228.888C410.756 228.01 411.435 227.323 412.28 226.826C413.125 226.312 414.069 226.056 415.112 226.056V229.807H414.094C411.527 229.807 410.243 230.999 410.243 233.384V240.018H406.74V226.254H410.243V228.888ZM421.796 226.08C423.469 226.08 424.81 226.503 425.821 227.347C426.831 228.192 427.46 229.318 427.709 230.726H424.43C424.297 230.064 423.999 229.534 423.535 229.136C423.071 228.739 422.467 228.54 421.722 228.54C421.125 228.54 420.662 228.681 420.33 228.962C419.999 229.244 419.834 229.625 419.834 230.105C419.834 230.486 419.966 230.792 420.231 231.024C420.496 231.256 420.827 231.438 421.225 231.571C421.622 231.703 422.194 231.861 422.939 232.043C423.982 232.275 424.827 232.523 425.473 232.788C426.135 233.037 426.699 233.442 427.162 234.005C427.643 234.552 427.883 235.297 427.883 236.241C427.883 237.417 427.419 238.37 426.492 239.098C425.581 239.827 424.347 240.191 422.79 240.191C421.001 240.191 419.569 239.794 418.492 238.999C417.415 238.187 416.761 237.036 416.529 235.546H419.883C419.966 236.225 420.264 236.763 420.778 237.161C421.291 237.542 421.962 237.732 422.79 237.732C423.386 237.732 423.842 237.591 424.156 237.31C424.471 237.012 424.628 236.631 424.628 236.167C424.628 235.769 424.488 235.446 424.206 235.198C423.941 234.949 423.601 234.759 423.187 234.627C422.79 234.494 422.218 234.337 421.473 234.155C420.446 233.923 419.61 233.691 418.964 233.459C418.335 233.21 417.788 232.821 417.324 232.291C416.877 231.761 416.654 231.033 416.654 230.105C416.654 228.913 417.109 227.944 418.02 227.198C418.931 226.453 420.19 226.08 421.796 226.08Z" fill="white"/>
<defs>
<clipPath id="clip0_2638_111308">
<rect width="41.6223" height="50.5967" fill="white" transform="translate(82.4736 287.838)"/>
</clipPath>
<clipPath id="clip1_2638_111308">
<rect width="52.63" height="57.7168" fill="white" transform="translate(173.224 131.475)"/>
</clipPath>
<clipPath id="clip2_2638_111308">
<rect width="45.9422" height="54.6654" fill="white" transform="translate(367.862 454.727)"/>
</clipPath>
<clipPath id="clip3_2638_111308">
<rect width="41.6102" height="40.2451" fill="white" transform="translate(183.712 461.95)"/>
</clipPath>
<clipPath id="clip4_2638_111308">
<rect width="58.7363" height="60.4549" fill="white" transform="translate(340.969 130.127)"/>
</clipPath>
</defs>
</svg>
