<svg width="42" height="42" viewBox="0 0 42 42" fill="none" xmlns="http://www.w3.org/2000/svg">
<circle cx="16.4062" cy="15.0938" r="7.21875" fill="#F3A414"/>
<path fill-rule="evenodd" clip-rule="evenodd" d="M38.1392 25.143L35.6168 19.0613C35.2603 18.2014 34.4281 17.6456 33.4972 17.6456H28.7376C28.5614 17.6456 28.3909 17.6698 28.2272 17.711V14.7109C28.2272 14.2708 27.8704 13.9141 27.4303 13.9141H24.6097C24.6272 14.136 24.6386 14.3596 24.6386 14.5862C24.6386 14.8976 24.6206 15.205 24.5878 15.5078H26.6332V19.7498V31.6569H15.1275C14.5565 30.4371 13.3207 29.5881 11.8872 29.5881C10.4538 29.5881 9.21774 30.4371 8.64673 31.6569H5.63278V15.5078H7.67798C7.6452 15.2047 7.62721 14.8976 7.62721 14.5862C7.62721 14.3598 7.63882 14.136 7.65612 13.9141H4.83592C4.39583 13.9141 4.03906 14.2708 4.03906 14.7109V32.4538C4.03906 32.8939 4.39583 33.2507 4.83592 33.2507H8.31205C8.35691 35.1857 9.94175 36.7468 11.8872 36.7468C13.8327 36.7468 15.4175 35.1857 15.4624 33.2507H27.4303H28.3665C28.4114 35.1857 29.9962 36.7468 31.9417 36.7468C33.8872 36.7468 35.472 35.1857 35.5169 33.2507H35.9053C37.1705 33.2507 38.1998 32.2213 38.1998 30.9562V25.4483C38.1998 25.3435 38.1791 25.2397 38.1392 25.143ZM11.887 35.1533C10.7921 35.1533 9.90122 34.2627 9.90122 33.1676C9.90122 32.0725 10.7921 31.1818 11.887 31.1818C12.9819 31.1818 13.8725 32.0725 13.8725 33.1676C13.8725 34.2627 12.9821 35.1533 11.887 35.1533ZM36.3041 24.8791H31.1009V22.4086C31.1009 21.6404 31.7256 21.0157 32.4936 21.0157H34.7015L36.3041 24.8791ZM31.9417 35.1533C30.8466 35.1533 29.9559 34.2627 29.9559 33.1676C29.9559 32.0725 30.8466 31.1818 31.9417 31.1818C33.0368 31.1818 33.9275 32.0725 33.9275 33.1676C33.9275 34.2627 33.0368 35.1533 31.9417 35.1533ZM36.606 29.0865H36.1464C36.0027 29.0865 35.8857 28.9695 35.8857 28.8256V28.0998C35.8857 27.9559 36.0027 27.8389 36.1464 27.8389H36.606V29.0865ZM36.606 26.7007H36.1464C35.375 26.7007 34.7473 27.3284 34.7473 28.1V28.8258C34.7473 29.5974 35.375 30.2251 36.1464 30.2251H36.606V30.9564C36.606 31.3428 36.2916 31.6572 35.9053 31.6572H35.1822C34.6112 30.4373 33.3751 29.5883 31.9417 29.5883C30.5082 29.5883 29.2722 30.4373 28.7012 31.6572H28.2269V19.7498C28.2269 19.4684 28.456 19.2394 28.7374 19.2394H33.4969C33.7813 19.2394 34.0354 19.409 34.1442 19.6717L34.2296 19.8773H32.4936C31.0979 19.8773 29.9625 21.0129 29.9625 22.4086V25.4483C29.9625 25.7627 30.2173 26.0175 30.5317 26.0175H36.606V26.7007Z" fill="#8CAEB4"/>
<path fill-rule="evenodd" clip-rule="evenodd" d="M16.1318 22.5219C20.5082 22.5219 24.0683 18.9613 24.0683 14.5852C24.0683 10.209 20.5082 6.64844 16.1318 6.64844C11.7555 6.64844 8.19531 10.2088 8.19531 14.5852C8.19531 18.9615 11.7557 22.5219 16.1318 22.5219ZM16.1318 8.24216C19.6293 8.24216 22.4746 11.0876 22.4746 14.5849C22.4746 18.0822 19.6291 20.9279 16.1318 20.9279C12.6345 20.9279 9.78903 18.0825 9.78903 14.5849C9.78903 11.0874 12.6345 8.24216 16.1318 8.24216Z" fill="#F3A414"/>
<path fill-rule="evenodd" clip-rule="evenodd" d="M18.9004 17.7552V17.4554C18.9004 16.3327 18.4006 15.2877 17.5469 14.5846C18.4006 13.8816 18.9004 12.8365 18.9004 11.7139V11.414C19.2515 11.3307 19.5133 11.0172 19.5133 10.6406C19.5133 10.2005 19.1565 9.84375 18.7164 9.84375H18.1035H14.1595H13.5469C13.1068 9.84375 12.75 10.2005 12.75 10.6406C12.75 11.0172 13.0118 11.3307 13.3627 11.414V11.7141C13.3627 12.8368 13.8624 13.8818 14.7162 14.5848C13.8624 15.2879 13.3627 16.3329 13.3627 17.4556V17.7557C13.0118 17.839 12.75 18.1525 12.75 18.5291C12.75 18.9692 13.1068 19.3259 13.5469 19.3259H14.1595H18.1035H18.7164C19.1565 19.3259 19.5133 18.9692 19.5133 18.5291C19.5133 18.152 19.2512 17.8385 18.9004 17.7552ZM17.3067 11.4372V11.7136C17.3067 12.4367 16.9449 13.104 16.3391 13.4986L16.1316 13.6336L15.9242 13.4986C15.3182 13.104 14.9564 12.4367 14.9564 11.7136V11.4372H17.3067ZM14.9564 17.7318V17.4554C14.9564 16.7323 15.3182 16.0649 15.9242 15.6704L16.1316 15.5354L16.3391 15.6704C16.9451 16.0649 17.3067 16.7323 17.3067 17.4554V17.7318H14.9564Z" fill="white"/>
</svg>
