<?xml version="1.0" encoding="UTF-8"?>
<svg width="84px" height="84px" viewBox="0 0 84 84" version="1.1" xmlns="http://www.w3.org/2000/svg" xmlns:xlink="http://www.w3.org/1999/xlink">
    <!-- Generator: Sketch 63.1 (92452) - https://sketch.com -->
    <title>Icon/Menu/Account Admin</title>
    <desc>Created with Sketch.</desc>
    <g id="Icon/Menu/Account-Admin" stroke="none" stroke-width="1" fill="none" fill-rule="evenodd">
        <g id="Icon/Menu/Preferences">
            <rect id="bound" x="0" y="0" width="84" height="84"></rect>
            <g id="admin" transform="translate(14.000000, 13.000000)" fill-rule="nonzero">
                <path d="M54.069707,36.4110859 L49.9856914,33.0476523 C50.2257344,31.7347227 50.3519297,30.3821445 50.3519297,29 C50.3519297,27.6177422 50.2257344,26.2651641 49.9856914,24.9521211 L54.069707,21.5885742 C54.7553984,21.0238672 54.9318906,20.0489688 54.4880547,19.2810352 L49.6504922,10.9024141 C49.2077891,10.1331211 48.2742383,9.79814844 47.4434336,10.1113711 L42.4847734,11.9688438 C40.4347227,10.2212539 38.0656719,8.83775 35.4767422,7.91722656 L34.6068555,2.70028516 C34.4617422,1.82484766 33.7045703,1.18378906 32.8180312,1.18378906 L23.1429062,1.18378906 C22.2564805,1.18378906 21.4994219,1.82484766 21.3543086,2.70039844 L20.4845352,7.917 C17.8953789,8.83763672 15.5261016,10.2213672 13.4761641,11.9688438 L8.51761719,10.1114844 C7.68930469,9.79712891 6.75428125,10.1332344 6.31044531,10.9024141 L1.47288281,19.2811484 C1.02904687,20.049082 1.20553906,21.0239805 1.89123047,21.5886875 L5.97524609,24.9521211 C5.73531641,26.2650508 5.60912109,27.6176289 5.60912109,28.9998867 C5.60912109,30.3821445 5.73531641,31.7347227 5.97535937,33.0476523 L1.89134375,36.4111992 C1.20565234,36.9759063 1.02916016,37.9508047 1.47299609,38.7187383 L6.31055859,47.0974727 C6.75439453,47.8666523 7.6904375,48.2040039 8.51773047,47.8884023 L13.4762773,46.0309297 C15.5263281,47.7785195 17.8954922,49.1621367 20.4844219,50.0826602 L21.3543086,55.2994883 C21.499082,56.1752656 22.2587461,56.8160977 23.1430195,56.8160977 L32.8181445,56.8160977 C33.7038906,56.8160977 34.4611758,56.1757188 34.6067422,55.2994883 L35.4765156,50.0827734 C38.0656719,49.1621367 40.4349492,47.7785195 42.4848867,46.0309297 L47.4434336,47.8884023 C48.2731055,48.2027578 49.2066563,47.8665391 49.6504922,47.0974727 L54.4880547,38.7187383 C54.9318906,37.9505781 54.7553984,36.9759063 54.069707,36.4110859 Z" id="Path" fill="#FFFFFF"></path>
                <path d="M34.1001484,36.2563437 L34.1001484,56.2851484 C33.7699336,56.6153633 33.3139766,56.8159844 32.8181445,56.8159844 L23.1430195,56.8159844 C22.7160625,56.8159844 22.3194648,56.6672461 22.0061289,56.4145156 L22.0061289,36.2563437 L34.1001484,36.2563437 Z" id="Path" fill="#E3EDC3"></path>
                <path d="M34.1001484,17.1683398 L34.1001484,27.9217891 L28.053082,31.5498477 L22.0060156,27.9217891 L22.0060156,17.1683398 C17.5622187,19.4323789 14.7496719,23.947543 14.7496719,28.9996602 C14.7496719,36.5757969 20.9213477,42.2997852 28.0460586,42.3032986 C35.3846445,42.3070352 41.3562656,36.3376797 41.3562656,28.9997734 C41.3562656,23.9477695 38.543832,19.4323789 34.1001484,17.1683398 Z" id="Path" fill="#E3EDC3"></path>
                <path d="M54.8222344,35.4974727 L51.2659961,32.5685859 C51.4449805,31.3904609 51.5356055,30.1933047 51.5356055,29 C51.5356055,27.8066953 51.4449805,26.6093125 51.2658828,25.4311875 L54.8222344,22.5021875 C55.9586719,21.5662578 56.2490117,19.9624219 55.5131367,18.6891406 L50.6763672,10.3118789 C50.1434922,9.38603125 49.1494492,8.81090234 48.0818867,8.81090234 C47.7205195,8.81090234 47.3652695,8.8758125 47.0281445,9.00291406 L42.7112227,10.6198906 C40.8368711,9.11483594 38.7635977,7.91598047 36.5317305,7.047 L35.7746719,2.50646094 C35.5336094,1.05419531 34.2903477,0 32.8180312,0 L23.1429062,0 C21.6707031,0 20.4273281,1.05430859 20.1867187,2.50566797 L19.4295469,7.04688672 C17.1975664,7.91609375 15.1240664,9.11483594 13.2497148,10.6200039 L8.93766406,9.00495313 C8.59793359,8.87603906 8.24211719,8.81067578 7.87984375,8.81067578 C6.81352734,8.81067578 5.81914453,9.38546484 5.28536328,10.3106328 L0.448027344,18.6889141 C-0.2881875,19.9626484 0.002265625,21.5665977 1.13870313,22.5025273 L4.69505469,25.4314141 C4.51607031,26.6095391 4.42544531,27.8068086 4.42544531,29.0001133 C4.42544531,30.193418 4.51607031,31.3906875 4.69505469,32.5688125 L1.13870313,35.4978125 C0.002265625,36.4337422 -0.288074219,38.0375781 0.447800781,39.3108594 L5.28525,47.6894805 C5.81948438,48.6151016 6.81364063,49.1901172 7.87984375,49.1901172 C8.24291016,49.1901172 8.59940625,49.1243008 8.93267969,48.9971992 L13.2494883,47.3801094 C15.1239531,48.8852773 17.1973398,50.0841328 19.4290937,50.9531133 L20.1860391,55.4928594 C20.4264219,56.9455781 21.6699102,58 23.1430195,58 L32.8181445,58 C34.2897812,58 35.5331562,56.9460313 35.774332,55.4944453 L36.5313906,50.9531133 C38.7635977,50.0839062 40.8369844,48.8851641 42.7113359,47.3799961 L47.0239531,48.9955 C47.3636836,49.1243008 47.7196133,49.1895508 48.0815469,49.1895508 C49.1476367,49.1895508 50.1415664,48.6147617 50.6756875,47.6895938 L55.5131367,39.3110859 C56.2490117,38.037125 55.9585586,36.4334023 54.8222344,35.4974727 Z M32.8181445,55.6326484 L26.7944141,55.6326484 L24.4270625,55.6326484 L23.1898047,55.6326484 L23.1898047,42.6508437 C24.7311094,43.1995781 26.3685898,43.486293 28.0456055,43.4870859 C29.7359883,43.4870859 31.3755078,43.2007109 32.9164727,42.6515234 L32.9164727,55.6239258 C32.8843008,55.6289102 32.8515625,55.6326484 32.8181445,55.6326484 Z M28.0531953,41.1197344 L28.0467383,41.1197344 C21.3672227,41.1164492 15.9333477,35.6792891 15.9333477,28.9997734 C15.9333477,25.1126406 17.7656719,21.5442813 20.8223398,19.2864727 L20.8223398,27.9217891 C20.8223398,28.3376445 21.0405195,28.7229141 21.3970156,28.9367891 L27.444082,32.5648477 C27.8189297,32.7895977 28.2872344,32.7895977 28.662082,32.5648477 L34.7091484,28.9367891 C35.0656445,28.7228008 35.2838242,28.3375313 35.2838242,27.9217891 L35.2838242,19.2864727 C38.3404922,21.5442813 40.1727031,25.1127539 40.1727031,29 C40.1727031,32.2316875 38.9104102,35.2737422 36.6186172,37.5656484 C34.3267109,39.8575547 31.2847695,41.1197344 28.0531953,41.1197344 Z M53.4629727,38.1270703 L48.6252969,46.505918 C48.4750859,46.7660117 48.1583516,46.8936797 47.8584961,46.7800586 L42.8999492,44.9225859 C42.4970078,44.7718086 42.0441094,44.8512188 41.7168398,45.1303437 C39.7995547,46.7647656 37.6357695,48.0290977 35.2835977,48.8926406 L35.2835977,41.5542812 C36.3693984,40.925457 37.3807734,40.1511797 38.2923477,39.2394922 C41.031375,36.5003516 42.5398281,32.8639102 42.5398281,28.9998867 C42.5399414,23.5349727 39.5118203,18.5971562 34.6372148,16.1136914 C34.2702969,15.9266641 33.8325781,15.9439961 33.4814062,16.1591172 C33.1303477,16.3743516 32.9162461,16.7565625 32.9162461,17.1683398 L32.9162461,27.2516172 L28.0528555,30.1696289 L23.1894648,27.2516172 L23.1894648,17.1683398 C23.1894648,16.7565625 22.9753633,16.3743516 22.6243047,16.1591172 C22.2732461,15.9439961 21.8355273,15.9268906 21.4684961,16.1136914 C16.5940039,18.597043 13.5658828,23.5347461 13.5657695,28.9996602 C13.5656563,32.9353906 15.1044688,36.6069492 17.8984375,39.337707 C18.7886016,40.207707 19.7709766,40.9496992 20.8221133,41.5563203 L20.8221133,48.9462227 C18.4139805,48.0818867 16.2008047,46.7986367 14.2437578,45.130457 C14.0260313,44.9449023 13.7529102,44.8475937 13.4757109,44.8475937 C13.3361484,44.8475937 13.1955664,44.8721758 13.0607617,44.9228125 L8.09564453,46.7827773 C8.02620313,46.8092852 7.95347656,46.8227656 7.87984375,46.8227656 C7.65679297,46.8227656 7.44824219,46.7014414 7.33552734,46.5060312 L2.49773828,38.1268437 C2.34310938,37.8593867 2.40462109,37.5222617 2.64364453,37.3252656 L6.72766016,33.9617187 C7.05912109,33.6885977 7.21680859,33.2575625 7.1394375,32.83525 C6.90947656,31.5755625 6.79268359,30.2854023 6.79268359,29 C6.79268359,27.7147109 6.90936328,26.4244375 7.13966406,25.1649766 C7.21680859,24.7425508 7.05934766,24.3114023 6.72777344,24.0385078 L2.64387109,20.6750742 C2.40462109,20.4779648 2.34322266,20.1408398 2.49807812,19.873043 L7.33575391,11.494082 C7.485625,11.2342148 7.80122656,11.1056406 8.10255469,11.2200547 L13.0611016,13.0773008 C13.4638164,13.2279648 13.9168281,13.148668 14.2442109,12.8696563 C16.2172305,11.1877695 18.4502305,9.89670313 20.8813594,9.03214063 C21.2864531,8.88804688 21.5816641,8.53574219 21.6522383,8.11161719 L22.522125,2.89399609 C22.5726484,2.58881641 22.833875,2.36735156 23.1431328,2.36735156 L32.8182578,2.36735156 C33.1275156,2.36735156 33.3887422,2.58881641 33.4396055,2.89478906 L34.3094922,8.11173047 C34.3801797,8.53585547 34.6753906,8.88838672 35.0804844,9.03225391 C37.5113867,9.89670313 39.7442734,11.1876563 41.7171797,12.8694297 C42.0445625,13.1484414 42.4974609,13.2279648 42.9002891,13.0770742 L47.8613281,11.2186953 C47.9328086,11.1917344 48.0071211,11.1781406 48.0822266,11.1781406 C48.3053906,11.1781406 48.513375,11.2986719 48.62575,11.494082 L53.4635391,19.8731563 C53.618168,20.1406133 53.5566562,20.4777383 53.3176328,20.6747344 L49.2336172,24.0382813 C48.9021562,24.3114023 48.7444687,24.7423242 48.8218398,25.16475 C49.0518008,26.4242109 49.1685937,27.7145977 49.1685937,28.9998867 C49.1685937,30.2851758 49.0519141,31.5753359 48.8216133,32.8347969 C48.7444687,33.2571094 48.9019297,33.6883711 49.2335039,33.9612656 L53.3174062,37.3246992 C53.5564297,37.5218086 53.6178281,37.8591602 53.4629727,38.1270703 Z" id="Shape" fill="#274642"></path>
            </g>
        </g>
    </g>
</svg>