<svg xmlns="http://www.w3.org/2000/svg" width="15" height="15" viewBox="0 0 15 15">
    <g fill="none" fill-rule="evenodd">
        <rect width="14" height="14" x=".5" y=".5" fill-rule="nonzero" stroke="#587E85" rx="7"/>
        <path fill="#587E85" d="M7.5 4.25c.345 0 .625.28.625.625v2h2l.102.008c.267.044.477.257.516.525l.007.092-.007.092c-.044.302-.304.533-.618.533h-2v2l-.007.092c-.044.302-.304.533-.618.533-.345 0-.625-.28-.625-.625v-2h-2l-.092-.007c-.302-.044-.533-.304-.533-.618 0-.345.28-.625.625-.625h2v-2l.007-.092c.044-.302.304-.533.618-.533z"/>
    </g>
</svg>
