<svg xmlns="http://www.w3.org/2000/svg" xmlns:xlink="http://www.w3.org/1999/xlink" width="59" height="59" viewBox="0 0 59 59">
    <defs>
        <rect id="prefix__a" width="59" height="59" x="0" y="0" rx="29.5"/>
        <mask id="prefix__b" width="59" height="59" x="0" y="0" fill="#fff" maskContentUnits="userSpaceOnUse" maskUnits="objectBoundingBox">
            <use xlink:href="#prefix__a"/>
        </mask>
    </defs>
    <g fill="none" fill-rule="evenodd">
        <rect width="45" height="45" x="6.9" y="6.9" fill="#587E85" fill-rule="nonzero" rx="22.5"/>
        <use fill-rule="nonzero" stroke="#587E85" stroke-dasharray="2" stroke-width="1.438" mask="url(#prefix__b)" xlink:href="#prefix__a"/>
        <path fill="#FFF" stroke="#587E85" stroke-width=".9" d="M36.227 29.027c0 .993-.807 1.8-1.8 1.8h-3.6v3.6c0 .993-.807 1.8-1.8 1.8-.994 0-1.8-.807-1.8-1.8v-3.6h-3.6c-.994 0-1.8-.807-1.8-1.8 0-.994.806-1.8 1.8-1.8h3.6v-3.6c0-.994.806-1.8 1.8-1.8.993 0 1.8.806 1.8 1.8v3.6h3.6c.993 0 1.8.806 1.8 1.8"/>
    </g>
</svg>
