<svg width="72" height="72" viewBox="0 0 72 72" fill="none" xmlns="http://www.w3.org/2000/svg">
<rect width="72" height="72" rx="16" fill="#F2F3EF"/>
<rect x="17.5" y="37.5" width="5.5" height="17.5" fill="#E3EDC3"/>
<rect x="33.5" y="33" width="17" height="22.5" fill="#E3EDC3"/>
<path fill-rule="evenodd" clip-rule="evenodd" d="M51.3333 54.6667H55.3333C55.7015 54.6667 56 54.9652 56 55.3333C56 55.7015 55.7015 56 55.3333 56H16.6667C16.2985 56 16 55.7015 16 55.3333C16 54.9652 16.2985 54.6667 16.6667 54.6667H22.6667V16.6667C22.6667 16.2985 22.9652 16 23.3333 16H40.6667C41.0348 16 41.3333 16.2985 41.3333 16.6667V32H50.6667C51.0348 32 51.3333 32.2985 51.3333 32.6667V54.6667ZM27.3335 54.6667H30.0002V48.6667C30.0002 48.2985 29.7017 48 29.3335 48H28.0002C27.632 48 27.3335 48.2985 27.3335 48.6667V54.6667ZM32.6667 32.6667V54.6667H31.3333V48.6667C31.3333 47.5621 30.4379 46.6667 29.3333 46.6667H28C26.8954 46.6667 26 47.5621 26 48.6667V54.6667H24V17.3333H40V32H33.3333C32.9652 32 32.6667 32.2985 32.6667 32.6667ZM34 54.6667H50V33.3333H34V54.6667Z" fill="#274642"/>
<path fill-rule="evenodd" clip-rule="evenodd" d="M33.3346 25.3335H37.3346C37.7028 25.3335 38.0013 25.632 38.0013 26.0002V30.0002C38.0013 30.3683 37.7028 30.6668 37.3346 30.6668H33.3346C32.9665 30.6668 32.668 30.3683 32.668 30.0002V26.0002C32.668 25.632 32.9665 25.3335 33.3346 25.3335ZM34.0015 29.3335H36.6681V26.6668H34.0015V29.3335Z" fill="#274642"/>
<path d="M36.6681 29.3335V29.4585H36.7931V29.3335H36.6681ZM34.0015 29.3335H33.8765V29.4585H34.0015V29.3335ZM36.6681 26.6668H36.7931V26.5418H36.6681V26.6668ZM34.0015 26.6668V26.5418H33.8765V26.6668H34.0015ZM37.3346 25.2085H33.3346V25.4585H37.3346V25.2085ZM38.1263 26.0002C38.1263 25.563 37.7718 25.2085 37.3346 25.2085V25.4585C37.6338 25.4585 37.8763 25.701 37.8763 26.0002H38.1263ZM38.1263 30.0002V26.0002H37.8763V30.0002H38.1263ZM37.3346 30.7918C37.7718 30.7918 38.1263 30.4374 38.1263 30.0002H37.8763C37.8763 30.2993 37.6338 30.5418 37.3346 30.5418V30.7918ZM33.3346 30.7918H37.3346V30.5418H33.3346V30.7918ZM32.543 30.0002C32.543 30.4374 32.8974 30.7918 33.3346 30.7918V30.5418C33.0355 30.5418 32.793 30.2993 32.793 30.0002H32.543ZM32.543 26.0002V30.0002H32.793V26.0002H32.543ZM33.3346 25.2085C32.8974 25.2085 32.543 25.563 32.543 26.0002H32.793C32.793 25.701 33.0355 25.4585 33.3346 25.4585V25.2085ZM36.6681 29.2085H34.0015V29.4585H36.6681V29.2085ZM36.5431 26.6668V29.3335H36.7931V26.6668H36.5431ZM34.0015 26.7918H36.6681V26.5418H34.0015V26.7918ZM34.1265 29.3335V26.6668H33.8765V29.3335H34.1265Z" fill="white"/>
<path fill-rule="evenodd" clip-rule="evenodd" d="M33.3346 18.6665H37.3346C37.7028 18.6665 38.0013 18.965 38.0013 19.3332V23.3332C38.0013 23.7013 37.7028 23.9998 37.3346 23.9998H33.3346C32.9665 23.9998 32.668 23.7013 32.668 23.3332V19.3332C32.668 18.965 32.9665 18.6665 33.3346 18.6665ZM34.0015 22.6665H36.6681V19.9998H34.0015V22.6665Z" fill="#274642"/>
<path d="M36.6681 22.6665V22.7915H36.7931V22.6665H36.6681ZM34.0015 22.6665H33.8765V22.7915H34.0015V22.6665ZM36.6681 19.9998H36.7931V19.8748H36.6681V19.9998ZM34.0015 19.9998V19.8748H33.8765V19.9998H34.0015ZM37.3346 18.5415H33.3346V18.7915H37.3346V18.5415ZM38.1263 19.3332C38.1263 18.896 37.7718 18.5415 37.3346 18.5415V18.7915C37.6338 18.7915 37.8763 19.034 37.8763 19.3332H38.1263ZM38.1263 23.3332V19.3332H37.8763V23.3332H38.1263ZM37.3346 24.1248C37.7718 24.1248 38.1263 23.7704 38.1263 23.3332H37.8763C37.8763 23.6323 37.6338 23.8748 37.3346 23.8748V24.1248ZM33.3346 24.1248H37.3346V23.8748H33.3346V24.1248ZM32.543 23.3332C32.543 23.7704 32.8974 24.1248 33.3346 24.1248V23.8748C33.0355 23.8748 32.793 23.6323 32.793 23.3332H32.543ZM32.543 19.3332V23.3332H32.793V19.3332H32.543ZM33.3346 18.5415C32.8974 18.5415 32.543 18.896 32.543 19.3332H32.793C32.793 19.034 33.0355 18.7915 33.3346 18.7915V18.5415ZM36.6681 22.5415H34.0015V22.7915H36.6681V22.5415ZM36.5431 19.9998V22.6665H36.7931V19.9998H36.5431ZM34.0015 20.1248H36.6681V19.8748H34.0015V20.1248ZM34.1265 22.6665V19.9998H33.8765V22.6665H34.1265Z" fill="white"/>
<path fill-rule="evenodd" clip-rule="evenodd" d="M26.6667 25.3335H30.6667C31.0348 25.3335 31.3333 25.632 31.3333 26.0002V30.0002C31.3333 30.3683 31.0348 30.6668 30.6667 30.6668H26.6667C26.2985 30.6668 26 30.3683 26 30.0002V26.0002C26 25.632 26.2985 25.3335 26.6667 25.3335ZM27.3335 29.3335H30.0002V26.6669H27.3335V29.3335Z" fill="#274642"/>
<path d="M30.0002 29.3335V29.4585H30.1252V29.3335H30.0002ZM27.3335 29.3335H27.2085V29.4585H27.3335V29.3335ZM30.0002 26.6669H30.1252V26.5419H30.0002V26.6669ZM27.3335 26.6669V26.5419H27.2085V26.6669H27.3335ZM30.6667 25.2085H26.6667V25.4585H30.6667V25.2085ZM31.4583 26.0002C31.4583 25.563 31.1039 25.2085 30.6667 25.2085V25.4585C30.9658 25.4585 31.2083 25.701 31.2083 26.0002H31.4583ZM31.4583 30.0002V26.0002H31.2083V30.0002H31.4583ZM30.6667 30.7918C31.1039 30.7918 31.4583 30.4374 31.4583 30.0002H31.2083C31.2083 30.2993 30.9658 30.5418 30.6667 30.5418V30.7918ZM26.6667 30.7918H30.6667V30.5418H26.6667V30.7918ZM25.875 30.0002C25.875 30.4374 26.2295 30.7918 26.6667 30.7918V30.5418C26.3675 30.5418 26.125 30.2993 26.125 30.0002H25.875ZM25.875 26.0002V30.0002H26.125V26.0002H25.875ZM26.6667 25.2085C26.2295 25.2085 25.875 25.563 25.875 26.0002H26.125C26.125 25.701 26.3675 25.4585 26.6667 25.4585V25.2085ZM30.0002 29.2085H27.3335V29.4585H30.0002V29.2085ZM29.8752 26.6669V29.3335H30.1252V26.6669H29.8752ZM27.3335 26.7919H30.0002V26.5419H27.3335V26.7919ZM27.4585 29.3335V26.6669H27.2085V29.3335H27.4585Z" fill="white"/>
<path fill-rule="evenodd" clip-rule="evenodd" d="M26.6667 18.6665H30.6667C31.0348 18.6665 31.3333 18.965 31.3333 19.3332V23.3332C31.3333 23.7013 31.0348 23.9998 30.6667 23.9998H26.6667C26.2985 23.9998 26 23.7013 26 23.3332V19.3332C26 18.965 26.2985 18.6665 26.6667 18.6665ZM27.3335 22.6665H30.0002V19.9998H27.3335V22.6665Z" fill="#274642"/>
<path d="M30.0002 22.6665V22.7915H30.1252V22.6665H30.0002ZM27.3335 22.6665H27.2085V22.7915H27.3335V22.6665ZM30.0002 19.9998H30.1252V19.8748H30.0002V19.9998ZM27.3335 19.9998V19.8748H27.2085V19.9998H27.3335ZM30.6667 18.5415H26.6667V18.7915H30.6667V18.5415ZM31.4583 19.3332C31.4583 18.896 31.1039 18.5415 30.6667 18.5415V18.7915C30.9658 18.7915 31.2083 19.034 31.2083 19.3332H31.4583ZM31.4583 23.3332V19.3332H31.2083V23.3332H31.4583ZM30.6667 24.1248C31.1039 24.1248 31.4583 23.7704 31.4583 23.3332H31.2083C31.2083 23.6323 30.9658 23.8748 30.6667 23.8748V24.1248ZM26.6667 24.1248H30.6667V23.8748H26.6667V24.1248ZM25.875 23.3332C25.875 23.7704 26.2295 24.1248 26.6667 24.1248V23.8748C26.3675 23.8748 26.125 23.6323 26.125 23.3332H25.875ZM25.875 19.3332V23.3332H26.125V19.3332H25.875ZM26.6667 18.5415C26.2295 18.5415 25.875 18.896 25.875 19.3332H26.125C26.125 19.034 26.3675 18.7915 26.6667 18.7915V18.5415ZM30.0002 22.5415H27.3335V22.7915H30.0002V22.5415ZM29.8752 19.9998V22.6665H30.1252V19.9998H29.8752ZM27.3335 20.1248H30.0002V19.8748H27.3335V20.1248ZM27.4585 22.6665V19.9998H27.2085V22.6665H27.4585Z" fill="white"/>
<path fill-rule="evenodd" clip-rule="evenodd" d="M26.6667 32H30.6667C31.0348 32 31.3333 32.2985 31.3333 32.6667V36.6667C31.3333 37.0348 31.0348 37.3333 30.6667 37.3333H26.6667C26.2985 37.3333 26 37.0348 26 36.6667V32.6667C26 32.2985 26.2985 32 26.6667 32ZM27.3335 36H30.0002V33.3333H27.3335V36Z" fill="#274642"/>
<path d="M30.0002 36V36.125H30.1252V36H30.0002ZM27.3335 36H27.2085V36.125H27.3335V36ZM30.0002 33.3333H30.1252V33.2083H30.0002V33.3333ZM27.3335 33.3333V33.2083H27.2085V33.3333H27.3335ZM30.6667 31.875H26.6667V32.125H30.6667V31.875ZM31.4583 32.6667C31.4583 32.2295 31.1039 31.875 30.6667 31.875V32.125C30.9658 32.125 31.2083 32.3675 31.2083 32.6667H31.4583ZM31.4583 36.6667V32.6667H31.2083V36.6667H31.4583ZM30.6667 37.4583C31.1039 37.4583 31.4583 37.1039 31.4583 36.6667H31.2083C31.2083 36.9658 30.9658 37.2083 30.6667 37.2083V37.4583ZM26.6667 37.4583H30.6667V37.2083H26.6667V37.4583ZM25.875 36.6667C25.875 37.1039 26.2295 37.4583 26.6667 37.4583V37.2083C26.3675 37.2083 26.125 36.9658 26.125 36.6667H25.875ZM25.875 32.6667V36.6667H26.125V32.6667H25.875ZM26.6667 31.875C26.2295 31.875 25.875 32.2295 25.875 32.6667H26.125C26.125 32.3675 26.3675 32.125 26.6667 32.125V31.875ZM30.0002 35.875H27.3335V36.125H30.0002V35.875ZM29.8752 33.3333V36H30.1252V33.3333H29.8752ZM27.3335 33.4583H30.0002V33.2083H27.3335V33.4583ZM27.4585 36V33.3333H27.2085V36H27.4585Z" fill="white"/>
<path fill-rule="evenodd" clip-rule="evenodd" d="M26.6667 38.6665H30.6667C31.0348 38.6665 31.3333 38.965 31.3333 39.3332V43.3332C31.3333 43.7013 31.0348 43.9998 30.6667 43.9998H26.6667C26.2985 43.9998 26 43.7013 26 43.3332V39.3332C26 38.965 26.2985 38.6665 26.6667 38.6665ZM27.3335 42.6665H30.0002V39.9998H27.3335V42.6665Z" fill="#274642"/>
<path d="M30.0002 42.6665V42.7915H30.1252V42.6665H30.0002ZM27.3335 42.6665H27.2085V42.7915H27.3335V42.6665ZM30.0002 39.9998H30.1252V39.8748H30.0002V39.9998ZM27.3335 39.9998V39.8748H27.2085V39.9998H27.3335ZM30.6667 38.5415H26.6667V38.7915H30.6667V38.5415ZM31.4583 39.3332C31.4583 38.896 31.1039 38.5415 30.6667 38.5415V38.7915C30.9658 38.7915 31.2083 39.034 31.2083 39.3332H31.4583ZM31.4583 43.3332V39.3332H31.2083V43.3332H31.4583ZM30.6667 44.1248C31.1039 44.1248 31.4583 43.7704 31.4583 43.3332H31.2083C31.2083 43.6323 30.9658 43.8748 30.6667 43.8748V44.1248ZM26.6667 44.1248H30.6667V43.8748H26.6667V44.1248ZM25.875 43.3332C25.875 43.7704 26.2295 44.1248 26.6667 44.1248V43.8748C26.3675 43.8748 26.125 43.6323 26.125 43.3332H25.875ZM25.875 39.3332V43.3332H26.125V39.3332H25.875ZM26.6667 38.5415C26.2295 38.5415 25.875 38.896 25.875 39.3332H26.125C26.125 39.034 26.3675 38.7915 26.6667 38.7915V38.5415ZM30.0002 42.5415H27.3335V42.7915H30.0002V42.5415ZM29.8752 39.9998V42.6665H30.1252V39.9998H29.8752ZM27.3335 40.1248H30.0002V39.8748H27.3335V40.1248ZM27.4585 42.6665V39.9998H27.2085V42.6665H27.4585Z" fill="white"/>
<path fill-rule="evenodd" clip-rule="evenodd" d="M47.3346 46.6668H43.3346C42.9665 46.6668 42.668 46.3683 42.668 46.0002V42.0002C42.668 41.632 42.9665 41.3335 43.3346 41.3335H47.3346C47.7028 41.3335 48.0013 41.632 48.0013 42.0002V46.0002C48.0013 46.3683 47.7028 46.6668 47.3346 46.6668ZM46.6681 42.6668H44.0015V45.3335H46.6681V42.6668Z" fill="#274642"/>
<path d="M44.0015 42.6668V42.5418H43.8765V42.6668H44.0015ZM46.6681 42.6668H46.7931V42.5418H46.6681V42.6668ZM44.0015 45.3335H43.8765V45.4585H44.0015V45.3335ZM46.6681 45.3335V45.4585H46.7931V45.3335H46.6681ZM43.3346 46.7918H47.3346V46.5418H43.3346V46.7918ZM42.543 46.0002C42.543 46.4374 42.8974 46.7918 43.3346 46.7918V46.5418C43.0355 46.5418 42.793 46.2993 42.793 46.0002H42.543ZM42.543 42.0002V46.0002H42.793V42.0002H42.543ZM43.3346 41.2085C42.8974 41.2085 42.543 41.563 42.543 42.0002H42.793C42.793 41.701 43.0355 41.4585 43.3346 41.4585V41.2085ZM47.3346 41.2085H43.3346V41.4585H47.3346V41.2085ZM48.1263 42.0002C48.1263 41.563 47.7718 41.2085 47.3346 41.2085V41.4585C47.6338 41.4585 47.8763 41.701 47.8763 42.0002H48.1263ZM48.1263 46.0002V42.0002H47.8763V46.0002H48.1263ZM47.3346 46.7918C47.7718 46.7918 48.1263 46.4374 48.1263 46.0002H47.8763C47.8763 46.2993 47.6338 46.5418 47.3346 46.5418V46.7918ZM44.0015 42.7918H46.6681V42.5418H44.0015V42.7918ZM44.1265 45.3335V42.6668H43.8765V45.3335H44.1265ZM46.6681 45.2085H44.0015V45.4585H46.6681V45.2085ZM46.5431 42.6668V45.3335H46.7931V42.6668H46.5431Z" fill="#E3EDC3"/>
<path fill-rule="evenodd" clip-rule="evenodd" d="M47.3346 39.9998H43.3346C42.9665 39.9998 42.668 39.7013 42.668 39.3332V35.3332C42.668 34.965 42.9665 34.6665 43.3346 34.6665H47.3346C47.7028 34.6665 48.0013 34.965 48.0013 35.3332V39.3332C48.0013 39.7013 47.7028 39.9998 47.3346 39.9998ZM46.6681 35.9998H44.0015V38.6665H46.6681V35.9998Z" fill="#274642"/>
<path d="M44.0015 35.9998V35.8748H43.8765V35.9998H44.0015ZM46.6681 35.9998H46.7931V35.8748H46.6681V35.9998ZM44.0015 38.6665H43.8765V38.7915H44.0015V38.6665ZM46.6681 38.6665V38.7915H46.7931V38.6665H46.6681ZM43.3346 40.1248H47.3346V39.8748H43.3346V40.1248ZM42.543 39.3332C42.543 39.7704 42.8974 40.1248 43.3346 40.1248V39.8748C43.0355 39.8748 42.793 39.6323 42.793 39.3332H42.543ZM42.543 35.3332V39.3332H42.793V35.3332H42.543ZM43.3346 34.5415C42.8974 34.5415 42.543 34.896 42.543 35.3332H42.793C42.793 35.034 43.0355 34.7915 43.3346 34.7915V34.5415ZM47.3346 34.5415H43.3346V34.7915H47.3346V34.5415ZM48.1263 35.3332C48.1263 34.896 47.7718 34.5415 47.3346 34.5415V34.7915C47.6338 34.7915 47.8763 35.034 47.8763 35.3332H48.1263ZM48.1263 39.3332V35.3332H47.8763V39.3332H48.1263ZM47.3346 40.1248C47.7718 40.1248 48.1263 39.7704 48.1263 39.3332H47.8763C47.8763 39.6323 47.6338 39.8748 47.3346 39.8748V40.1248ZM44.0015 36.1248H46.6681V35.8748H44.0015V36.1248ZM44.1265 38.6665V35.9998H43.8765V38.6665H44.1265ZM46.6681 38.5415H44.0015V38.7915H46.6681V38.5415ZM46.5431 35.9998V38.6665H46.7931V35.9998H46.5431Z" fill="#E3EDC3"/>
<path fill-rule="evenodd" clip-rule="evenodd" d="M47.3346 53.3333H43.3346C42.9665 53.3333 42.668 53.0348 42.668 52.6667V48.6667C42.668 48.2985 42.9665 48 43.3346 48H47.3346C47.7028 48 48.0013 48.2985 48.0013 48.6667V52.6667C48.0013 53.0348 47.7028 53.3333 47.3346 53.3333ZM46.6681 49.3333H44.0015V52H46.6681V49.3333Z" fill="#274642"/>
<path d="M44.0015 49.3333V49.2083H43.8765V49.3333H44.0015ZM46.6681 49.3333H46.7931V49.2083H46.6681V49.3333ZM44.0015 52H43.8765V52.125H44.0015V52ZM46.6681 52V52.125H46.7931V52H46.6681ZM43.3346 53.4583H47.3346V53.2083H43.3346V53.4583ZM42.543 52.6667C42.543 53.1039 42.8974 53.4583 43.3346 53.4583V53.2083C43.0355 53.2083 42.793 52.9658 42.793 52.6667H42.543ZM42.543 48.6667V52.6667H42.793V48.6667H42.543ZM43.3346 47.875C42.8974 47.875 42.543 48.2295 42.543 48.6667H42.793C42.793 48.3675 43.0355 48.125 43.3346 48.125V47.875ZM47.3346 47.875H43.3346V48.125H47.3346V47.875ZM48.1263 48.6667C48.1263 48.2295 47.7718 47.875 47.3346 47.875V48.125C47.6338 48.125 47.8763 48.3675 47.8763 48.6667H48.1263ZM48.1263 52.6667V48.6667H47.8763V52.6667H48.1263ZM47.3346 53.4583C47.7718 53.4583 48.1263 53.1039 48.1263 52.6667H47.8763C47.8763 52.9658 47.6338 53.2083 47.3346 53.2083V53.4583ZM44.0015 49.4583H46.6681V49.2083H44.0015V49.4583ZM44.1265 52V49.3333H43.8765V52H44.1265ZM46.6681 51.875H44.0015V52.125H46.6681V51.875ZM46.5431 49.3333V52H46.7931V49.3333H46.5431Z" fill="#E3EDC3"/>
<path fill-rule="evenodd" clip-rule="evenodd" d="M40.6667 46.6668H36.6667C36.2985 46.6668 36 46.3683 36 46.0002V42.0002C36 41.632 36.2985 41.3335 36.6667 41.3335H40.6667C41.0348 41.3335 41.3333 41.632 41.3333 42.0002V46.0002C41.3333 46.3683 41.0348 46.6668 40.6667 46.6668ZM40.0002 42.6668H37.3335V45.3335H40.0002V42.6668Z" fill="#274642"/>
<path d="M37.3335 42.6668V42.5418H37.2085V42.6668H37.3335ZM40.0002 42.6668H40.1252V42.5418H40.0002V42.6668ZM37.3335 45.3335H37.2085V45.4585H37.3335V45.3335ZM40.0002 45.3335V45.4585H40.1252V45.3335H40.0002ZM36.6667 46.7918H40.6667V46.5418H36.6667V46.7918ZM35.875 46.0002C35.875 46.4374 36.2295 46.7918 36.6667 46.7918V46.5418C36.3675 46.5418 36.125 46.2993 36.125 46.0002H35.875ZM35.875 42.0002V46.0002H36.125V42.0002H35.875ZM36.6667 41.2085C36.2295 41.2085 35.875 41.563 35.875 42.0002H36.125C36.125 41.701 36.3675 41.4585 36.6667 41.4585V41.2085ZM40.6667 41.2085H36.6667V41.4585H40.6667V41.2085ZM41.4583 42.0002C41.4583 41.563 41.1039 41.2085 40.6667 41.2085V41.4585C40.9658 41.4585 41.2083 41.701 41.2083 42.0002H41.4583ZM41.4583 46.0002V42.0002H41.2083V46.0002H41.4583ZM40.6667 46.7918C41.1039 46.7918 41.4583 46.4374 41.4583 46.0002H41.2083C41.2083 46.2993 40.9658 46.5418 40.6667 46.5418V46.7918ZM37.3335 42.7918H40.0002V42.5418H37.3335V42.7918ZM37.4585 45.3335V42.6668H37.2085V45.3335H37.4585ZM40.0002 45.2085H37.3335V45.4585H40.0002V45.2085ZM39.8752 42.6668V45.3335H40.1252V42.6668H39.8752Z" fill="#E3EDC3"/>
<path fill-rule="evenodd" clip-rule="evenodd" d="M40.6667 39.9998H36.6667C36.2985 39.9998 36 39.7013 36 39.3332V35.3332C36 34.965 36.2985 34.6665 36.6667 34.6665H40.6667C41.0348 34.6665 41.3333 34.965 41.3333 35.3332V39.3332C41.3333 39.7013 41.0348 39.9998 40.6667 39.9998ZM40.0002 35.9998H37.3335V38.6665H40.0002V35.9998Z" fill="#274642"/>
<path d="M37.3335 35.9998V35.8748H37.2085V35.9998H37.3335ZM40.0002 35.9998H40.1252V35.8748H40.0002V35.9998ZM37.3335 38.6665H37.2085V38.7915H37.3335V38.6665ZM40.0002 38.6665V38.7915H40.1252V38.6665H40.0002ZM36.6667 40.1248H40.6667V39.8748H36.6667V40.1248ZM35.875 39.3332C35.875 39.7704 36.2295 40.1248 36.6667 40.1248V39.8748C36.3675 39.8748 36.125 39.6323 36.125 39.3332H35.875ZM35.875 35.3332V39.3332H36.125V35.3332H35.875ZM36.6667 34.5415C36.2295 34.5415 35.875 34.896 35.875 35.3332H36.125C36.125 35.034 36.3675 34.7915 36.6667 34.7915V34.5415ZM40.6667 34.5415H36.6667V34.7915H40.6667V34.5415ZM41.4583 35.3332C41.4583 34.896 41.1039 34.5415 40.6667 34.5415V34.7915C40.9658 34.7915 41.2083 35.034 41.2083 35.3332H41.4583ZM41.4583 39.3332V35.3332H41.2083V39.3332H41.4583ZM40.6667 40.1248C41.1039 40.1248 41.4583 39.7704 41.4583 39.3332H41.2083C41.2083 39.6323 40.9658 39.8748 40.6667 39.8748V40.1248ZM37.3335 36.1248H40.0002V35.8748H37.3335V36.1248ZM37.4585 38.6665V35.9998H37.2085V38.6665H37.4585ZM40.0002 38.5415H37.3335V38.7915H40.0002V38.5415ZM39.8752 35.9998V38.6665H40.1252V35.9998H39.8752Z" fill="#E3EDC3"/>
<path fill-rule="evenodd" clip-rule="evenodd" d="M40.6667 53.3333H36.6667C36.2985 53.3333 36 53.0348 36 52.6667V48.6667C36 48.2985 36.2985 48 36.6667 48H40.6667C41.0348 48 41.3333 48.2985 41.3333 48.6667V52.6667C41.3333 53.0348 41.0348 53.3333 40.6667 53.3333ZM40.0002 49.3333H37.3335V52H40.0002V49.3333Z" fill="#274642"/>
<path d="M37.3335 49.3333V49.2083H37.2085V49.3333H37.3335ZM40.0002 49.3333H40.1252V49.2083H40.0002V49.3333ZM37.3335 52H37.2085V52.125H37.3335V52ZM40.0002 52V52.125H40.1252V52H40.0002ZM36.6667 53.4583H40.6667V53.2083H36.6667V53.4583ZM35.875 52.6667C35.875 53.1039 36.2295 53.4583 36.6667 53.4583V53.2083C36.3675 53.2083 36.125 52.9658 36.125 52.6667H35.875ZM35.875 48.6667V52.6667H36.125V48.6667H35.875ZM36.6667 47.875C36.2295 47.875 35.875 48.2295 35.875 48.6667H36.125C36.125 48.3675 36.3675 48.125 36.6667 48.125V47.875ZM40.6667 47.875H36.6667V48.125H40.6667V47.875ZM41.4583 48.6667C41.4583 48.2295 41.1039 47.875 40.6667 47.875V48.125C40.9658 48.125 41.2083 48.3675 41.2083 48.6667H41.4583ZM41.4583 52.6667V48.6667H41.2083V52.6667H41.4583ZM40.6667 53.4583C41.1039 53.4583 41.4583 53.1039 41.4583 52.6667H41.2083C41.2083 52.9658 40.9658 53.2083 40.6667 53.2083V53.4583ZM37.3335 49.4583H40.0002V49.2083H37.3335V49.4583ZM37.4585 52V49.3333H37.2085V52H37.4585ZM40.0002 51.875H37.3335V52.125H40.0002V51.875ZM39.8752 49.3333V52H40.1252V49.3333H39.8752Z" fill="#E3EDC3"/>
<path d="M22.7539 36.7085V37.9585L17.8789 37.9582L17.8789 54.6668H16.6289V36.7085H22.7539Z" fill="#274642"/>
</svg>
