<?xml version="1.0" encoding="UTF-8"?>
<svg width="35px" height="24px" viewBox="0 0 35 24" version="1.1" xmlns="http://www.w3.org/2000/svg" xmlns:xlink="http://www.w3.org/1999/xlink">
    <!-- Generator: Sketch 61.2 (89653) - https://sketch.com -->
    <title>american-express</title>
    <desc>Created with Sketch.</desc>
    <g id="SPRINT-8" stroke="none" stroke-width="1" fill="none" fill-rule="evenodd">
        <g id="american-express" fill-rule="nonzero">
            <path d="M34.1333333,21.5520667 C34.1333333,22.6664667 33.23,23.5698667 32.1156667,23.5698667 L2.01766667,23.5698667 C0.903333333,23.5698667 0,22.6664667 0,21.5520667 L0,2.0478 C0,0.933466667 0.903333333,0.0300666667 2.01766667,0.0300666667 L32.1156667,0.0300666667 C33.2300667,0.0300666667 34.1333333,0.933466667 34.1333333,2.0478 L34.1333333,21.5520667 L34.1333333,21.5520667 Z" id="Path" fill="#306FC5"></path>
            <g id="Group" transform="translate(2.400000, 6.933333)" fill="#FFFFFF">
                <polygon id="Path" points="2.57266667 2.51653333 3.59253333 2.51653333 3.08273333 1.21853333"></polygon>
                <polygon id="Path" points="7.9964 6.8738 7.9964 7.47653333 9.71166667 7.47653333 9.71166667 8.12566667 7.9964 8.12566667 7.9964 8.8212 9.897 8.8212 10.7777333 7.84746667 9.9434 6.8738"></polygon>
                <polygon id="Path" points="21.3932 1.21853333 20.8368667 2.51653333 21.9032 2.51653333"></polygon>
                <polygon id="Path" points="12.9565333 9.19166667 12.9565333 6.5494 11.7512 7.84746667"></polygon>
                <path d="M15.228,7.2912 C15.1816,7.01306667 14.996,6.8738 14.7177333,6.8738 L13.7444667,6.8738 L13.7444667,7.70820002 L14.7644,7.70820002 C15.0424667,7.70826667 15.228,7.56926667 15.228,7.2912 Z" id="Path"></path>
                <path d="M18.4726667,7.61573333 C18.5654,7.56926667 18.6119333,7.43006667 18.6119333,7.29126667 C18.6583333,7.106 18.5654,7.01313333 18.4726667,6.96673333 C18.3802,6.92033333 18.2409333,6.92033333 18.1020667,6.92033333 L17.1747333,6.92033333 L17.1747333,7.66213333 L18.102,7.66213333 C18.2408667,7.66213333 18.3801333,7.66213333 18.4726667,7.61573333 Z" id="Path"></path>
                <path d="M25.1478,0.0132 L25.1478,0.569466667 L24.8698667,0.0132 L22.6913333,0.0132 L22.6913333,0.569466667 L22.4130667,0.0132 L19.4462667,0.0132 C18.9364,0.0132 18.519,0.106 18.1483333,0.2914 L18.1483333,0.0132 L16.0624,0.0132 L16.0624,0.0596 L16.0624,0.2914 C15.8306667,0.106066667 15.5525333,0.0132 15.1816667,0.0132 L7.71833333,0.0132 L7.2082,1.17213333 L6.6984,0.0132 L5.02966667,0.0132 L4.33426667,0.0132 L4.33426667,0.569466667 L4.10246667,0.0132 L4.05606667,0.0132 L2.0628,0.0132 L1.13553333,2.19186667 L0.0694666667,4.556 L0.0498666667,4.60246667 L0.0694666667,4.60246667 L2.43366667,4.60246667 L2.46326667,4.60246667 L2.48006667,4.556 L2.75833333,3.8608 L3.36093333,3.8608 L3.63906667,4.60246667 L6.32746667,4.60246667 L6.32746667,4.556 L6.32746667,4.0462 L6.5594,4.6024 L7.9036,4.6024 L8.13526667,4.0462 L8.13526667,4.556 L8.13526667,4.60246667 L9.20146667,4.60246667 L14.5324667,4.60246667 L14.5788667,4.60246667 L14.5788667,3.39713333 L14.6718,3.39713333 C14.7644,3.39713333 14.7644,3.39713333 14.7644,3.53626667 L14.7644,4.55606667 L18.1020667,4.55606667 L18.1020667,4.27793333 C18.3802,4.4172 18.7971333,4.55606667 19.3534667,4.55606667 L20.7443333,4.55606667 L21.0224667,3.81453333 L21.6712667,3.81453333 L21.9494,4.55606667 L24.6379333,4.55606667 L24.6379333,4.0926 L24.6379333,3.86086667 L25.0553333,4.55606667 L25.1478,4.55606667 L25.1943333,4.55606667 L27.234,4.55606667 L27.234,0.0132 L25.1479333,0.0132 L25.1479333,0.0132 L25.1478,0.0132 L25.1478,0.0132 Z M9.4334,3.90726667 L8.96973333,3.90726667 L8.69166667,3.90726667 L8.69166667,3.62933333 L8.69166667,1.3576 L8.64526667,1.46393333 L8.64526667,1.46266667 L7.56686667,3.90726667 L7.53273333,3.90726667 L7.2848,3.90726667 L6.88366667,3.90726667 L5.7712,1.3576 L5.7712,3.90726667 L4.1952,3.90726667 L3.87073333,3.21193333 L2.29446667,3.21193333 L1.96993333,3.90726667 L1.15506667,3.90726667 L2.5264,0.662266667 L3.6852,0.662266667 L4.98313333,3.76806667 L4.98313333,0.662266667 L5.2612,0.662266667 L6.21126667,0.662266667 L6.23313333,0.708733333 L6.23473333,0.708733333 L6.8196,1.98166667 L7.2396,2.9354 L7.25446667,2.88733333 L8.18153333,0.662333333 L9.4334,0.662333333 L9.4334,3.90726667 L9.4334,3.90726667 L9.4334,3.90726667 Z M12.6320667,1.3576 L10.8241333,1.3576 L10.8241333,1.9602 L12.5856667,1.9602 L12.5856667,2.60913333 L10.8241333,2.60913333 L10.8241333,3.25833333 L12.6320667,3.25833333 L12.6320667,3.95346667 L10.0361333,3.95346667 L10.0361333,0.662333333 L12.6320667,0.662333333 L12.6320667,1.3576 L12.6320667,1.3576 Z M15.9384,2.55293333 C15.9396,2.554 15.9411333,2.55473333 15.9426,2.55573333 C15.9601333,2.57426667 15.9751333,2.59286667 15.9879333,2.61066667 C16.0767333,2.72706667 16.1485333,2.9002 16.1521333,3.15406667 C16.1524,3.15846667 16.1526,3.1628 16.1528667,3.1672 C16.1528667,3.16973333 16.1533333,3.17193333 16.1533333,3.17453333 C16.1533333,3.176 16.1532,3.17713333 16.1532,3.17853333 C16.1542667,3.20406667 16.1549333,3.23013333 16.1549333,3.25833333 L16.1549333,3.90733333 L15.4597333,3.90733333 L15.4597333,3.53633333 C15.4597333,3.35093333 15.4597333,3.07273333 15.3204667,2.88733333 C15.2766667,2.84353333 15.2323333,2.81466667 15.1840667,2.79413333 C15.1146,2.74913333 14.9829333,2.7484 14.7644,2.7484 L13.9297333,2.7484 L13.9297333,3.90733333 L13.1418667,3.90733333 L13.1418667,0.662333333 L14.9035333,0.662333333 C15.3204667,0.662333333 15.5987333,0.662333333 15.8306,0.8014 C16.0577333,0.9378 16.1949333,1.164 16.2001333,1.5222 C16.1894,2.01553333 15.8727333,2.2862 15.6450667,2.37746667 C15.6450667,2.37746667 15.7997333,2.4086 15.9384,2.55293333 Z M17.4994,3.90726667 L16.7112667,3.90726667 L16.7112667,0.662266667 L17.4994,0.662266667 L17.4994,3.90726667 Z M26.5388667,3.90726667 L25.5188667,3.90726667 L24.0355333,1.45026667 L24.0355333,3.48993333 L24.0306667,3.48513333 L24.0306667,3.90926667 L23.2475333,3.90926667 L23.2475333,3.90733333 L22.4594,3.90733333 L22.1812667,3.212 L20.5586667,3.212 L20.2805333,3.95353333 L19.3998,3.95353333 C19.0292,3.95353333 18.5653333,3.86093333 18.2873333,3.5828 C18.0092,3.30466667 17.8702667,2.9338 17.8702667,2.33126667 C17.8702667,1.86773333 17.9628667,1.40386667 18.2873333,1.03313333 C18.5189333,0.7548 18.9363333,0.662333333 19.4461333,0.662333333 L20.188,0.662333333 L20.188,1.3576 L19.4461333,1.3576 C19.168,1.3576 19.0292,1.4038 18.8434,1.54313333 C18.7046,1.68213333 18.6118,1.9602 18.6118,2.28466667 C18.6118,2.6556 18.6582,2.88733333 18.8434,3.07273333 C18.9828,3.212 19.1680667,3.2584 19.3998,3.2584 L19.7242667,3.2584 L20.7903333,0.708866667 L21.2541333,0.708866667 L21.9493333,0.708866667 L23.2474667,3.81466667 L23.2474667,3.65626667 L23.2474667,2.60926667 L23.2474667,2.51666667 L23.2474667,0.708933333 L24.4062667,0.708933333 L25.7503333,2.98026667 L25.7503333,0.708933333 L26.5387333,0.708933333 L26.5387333,3.9074 L26.5388667,3.9074 L26.5388667,3.90726667 L26.5388667,3.90726667 Z" id="Shape"></path>
                <path d="M15.2774,2.0138 C15.2909333,1.99933333 15.3032,1.98293333 15.3136,1.96413333 C15.3556,1.89766667 15.4037333,1.77793333 15.3778,1.61453333 C15.3767333,1.59953333 15.374,1.58566667 15.3708,1.57226667 C15.3699333,1.56853333 15.3700667,1.56526667 15.3690667,1.56153333 L15.3686,1.5616 C15.3455333,1.4822 15.2866667,1.4334 15.2279333,1.4038 C15.135,1.3576 14.9959333,1.3576 14.8569333,1.3576 L13.9296667,1.3576 L13.9296667,2.0994 L14.8569333,2.0994 C14.9959333,2.0994 15.1350667,2.0994 15.2279333,2.05293333 C15.2418667,2.04586667 15.2542667,2.03626667 15.2662,2.0254 L15.2663333,2.026 C15.2664,2.02593333 15.2711333,2.021 15.2774,2.0138 Z" id="Path"></path>
                <path d="M29.2736667,8.54293333 C29.2736667,8.21846667 29.1810667,7.89386667 29.0420667,7.66213333 L29.0420667,5.5762 L29.0399333,5.5762 L29.0399333,5.43693333 C29.0399333,5.43693333 27.0969333,5.43693333 26.8077333,5.43693333 C26.5186667,5.43693333 26.1678667,5.715 26.1678667,5.715 L26.1678667,5.43693333 L24.0356,5.43693333 C23.7109333,5.43693333 23.294,5.52973333 23.1083333,5.715 L23.1083333,5.43693333 L19.3072667,5.43693333 L19.3072667,5.5762 L19.3072667,5.71493333 C19.0293333,5.48333333 18.519,5.43686667 18.2874,5.43686667 L15.7841333,5.43686667 L15.7841333,5.57613333 L15.7841333,5.71486667 C15.5524,5.48326667 14.9958667,5.4368 14.7176,5.4368 L11.9366667,5.4368 L11.2875333,6.1322 L10.6848667,5.4368 L10.4908,5.4368 L10.175,5.4368 L6.513,5.4368 L6.513,5.57606667 L6.513,5.94226667 L6.513,10.119 L10.5923333,10.119 L11.2626,9.44853333 L11.8436,10.119 L11.8901333,10.119 L14.2406667,10.119 L14.3472,10.119 L14.3936,10.119 L14.4397333,10.119 L14.4397333,9.65546667 L14.4397333,9.05286667 L14.6716667,9.05286667 C14.9958667,9.05286667 15.4132667,9.05286667 15.7377333,8.9136 L15.7377333,10.0724 L15.7377333,10.1653333 L17.8238,10.1653333 L17.8238,10.0724 L17.8238,8.96 L17.9162667,8.96 C18.0555333,8.96 18.0555333,8.96 18.0555333,9.09906667 L18.0555333,10.0724 L18.0555333,10.1653333 L24.3597333,10.1653333 C24.7772667,10.1653333 25.1942,10.0724 25.4259333,9.887 L25.4259333,10.0724 L25.4259333,10.1653333 L27.4194,10.1653333 C27.8363333,10.1653333 28.2538667,10.119 28.532,9.93346667 C28.9588,9.6774 29.2278,9.22413333 29.2678,8.68353333 C29.2696667,8.66753333 29.272,8.65153333 29.2736667,8.63546667 L29.2707333,8.63286667 C29.2724667,8.60286667 29.2736667,8.5732 29.2736667,8.54293333 Z M14.6717333,8.26486667 L13.7444,8.26486667 L13.7444,8.4036 L13.7444,8.68186667 L13.7444,8.96006667 L13.7444,9.47 L12.2207333,9.47 L11.3339333,8.45006667 L11.3308667,8.45346667 L11.2875333,8.4036 L10.2677333,9.47 L7.301,9.47 L7.301,6.22513333 L10.3141333,6.22513333 L11.1373333,7.1268 L11.3104,7.3156 L11.3338667,7.29126667 L12.3074667,6.2252 L14.7642667,6.2252 C15.2410667,6.2252 15.775,6.34286667 15.9773333,6.828 C16.0016667,6.92406667 16.0158,7.03086667 16.0158,7.1522 C16.0158,8.07926667 15.3668,8.26486667 14.6717333,8.26486667 Z M19.3072667,8.2184 C19.3998667,8.35713333 19.4462667,8.54286667 19.4462667,8.82113333 L19.4462667,9.46993333 L18.6583333,9.46993333 L18.6583333,9.05286667 C18.6583333,8.86713333 18.6583333,8.54286667 18.5190667,8.4036 C18.4266,8.26486667 18.2409333,8.26486667 17.963,8.26486667 L17.1286667,8.26486667 L17.1286667,9.47 L16.3406667,9.47 L16.3406667,6.17873333 L18.1020667,6.17873333 C18.4726667,6.17873333 18.7971333,6.17873333 19.0293333,6.31766667 C19.2609333,6.45686667 19.4462667,6.68866667 19.4462667,7.05953333 C19.4462667,7.56933333 19.1219333,7.84746667 18.8900667,7.94033333 C19.1219333,8.03266667 19.2609333,8.12566667 19.3072667,8.2184 Z M22.5059333,6.8738 L20.6978,6.8738 L20.6978,7.47646667 L22.4594,7.47646667 L22.4594,8.1256 L20.6978,8.1256 L20.6978,8.77466667 L22.5059333,8.77466667 L22.5059333,9.46993333 L19.91,9.46993333 L19.91,6.17866667 L22.5059333,6.17866667 L22.5059333,6.8738 Z M24.4527333,9.47 L22.9692667,9.47 L22.9692667,8.77473333 L24.4527333,8.77473333 C24.5915333,8.77473333 24.6844667,8.77473333 24.7774,8.68193333 C24.8238,8.63546667 24.8698667,8.54293333 24.8698667,8.45013333 C24.8698667,8.3572 24.8238,8.26493333 24.7774,8.21846667 C24.7308667,8.17213333 24.638,8.12573333 24.499,8.12573333 C23.7572667,8.07933333 22.8765333,8.12573333 22.8765333,7.106 C22.8765333,6.6424 23.1546667,6.1324 23.9891333,6.1324 L25.5188,6.1324 L25.5188,6.92033333 L24.0818667,6.92033333 C23.9428667,6.92033333 23.85,6.92033333 23.7572,6.96673333 C23.6647333,7.0132 23.6647333,7.106 23.6647333,7.1986 C23.6647333,7.33773333 23.7572,7.38413333 23.8499333,7.43013333 C23.9428667,7.4766 24.0354667,7.4766 24.1280667,7.4766 L24.5453333,7.4766 C24.9626,7.4766 25.2406667,7.56933333 25.4260667,7.7548 C25.5652,7.89393333 25.6579333,8.12573333 25.6579333,8.45013333 C25.6579333,9.14526667 25.2407333,9.47 24.4527333,9.47 Z M28.4393333,9.14526667 C28.2541333,9.33093333 27.9294667,9.47 27.4657333,9.47 L25.9826667,9.47 L25.9826667,8.77473333 L27.4656667,8.77473333 C27.6048,8.77473333 27.6977333,8.77473333 27.7903333,8.68193333 C27.8365333,8.63546667 27.8830667,8.54293333 27.8830667,8.45013333 C27.8830667,8.3572 27.8365333,8.26493333 27.7903333,8.21846667 C27.7439333,8.17213333 27.6513333,8.12573333 27.5122,8.12573333 C26.7707333,8.07933333 25.8897333,8.12573333 25.8897333,7.10606667 C25.8897333,6.66546667 26.1418,6.26746667 26.7634667,6.14926667 C26.8378,6.139 26.9163333,6.1324 27.0023333,6.1324 L28.5322,6.1324 L28.5322,6.92033333 L27.5122,6.92033333 L27.1414667,6.92033333 L27.0950667,6.92033333 C26.9559333,6.92033333 26.8633333,6.92033333 26.7707333,6.96673333 C26.7240667,7.0132 26.6776667,7.106 26.6776667,7.1986 C26.6776667,7.33773333 26.7240667,7.38413333 26.8633333,7.43013333 C26.9559333,7.4766 27.0486667,7.4766 27.1414667,7.4766 L27.1875333,7.4766 L27.5585333,7.4766 C27.7611333,7.4766 27.9143333,7.5016 28.0545333,7.55086667 C28.1829333,7.59733333 28.608,7.78746667 28.7030667,8.2838 C28.7113333,8.3358 28.7174,8.39006667 28.7174,8.45013333 C28.7174,8.72833333 28.6246667,8.96006667 28.4393333,9.14526667 Z" id="Shape"></path>
            </g>
        </g>
    </g>
</svg>