<svg xmlns="http://www.w3.org/2000/svg" width="187" height="53" viewBox="0 0 187 53">
    <g fill="none" fill-rule="evenodd">
        <path fill="#000" d="M6.6 0C2.956 0 0 2.959 0 6.591v39.068c0 3.64 2.956 6.591 6.6 6.591h173.8c3.645 0 6.6-2.959 6.6-6.591V6.591C187 2.951 184.044 0 180.4 0H6.6z"/>
        <path fill="#FFF" d="M76.142 38.202h-2.621l-1.436-4.515h-4.992l-1.368 4.515h-2.552l4.945-15.37h3.055l4.97 15.37zm8.136-11.31c1.306 0 2.397.515 3.27 1.55.875 1.034 1.311 2.395 1.311 4.082 0 1.885-.509 3.375-1.527 4.469-.912.974-2.044 1.46-3.396 1.46-1.459 0-2.507-.525-3.145-1.573h-.047v5.838h-2.46v-11.95c0-1.186-.032-2.402-.092-3.65h2.164l.138 1.757h.046c.82-1.323 2.066-1.984 3.738-1.984zm12.741 0c1.306 0 2.396.515 3.271 1.55.872 1.034 1.31 2.395 1.31 4.082 0 1.885-.51 3.375-1.529 4.469-.91.974-2.043 1.46-3.395 1.46-1.459 0-2.507-.525-3.144-1.573h-.046v5.838h-2.461v-11.95c0-1.186-.031-2.402-.091-3.65h2.164l.137 1.757h.046c.82-1.323 2.066-1.984 3.738-1.984zm33.866 0c1.625 0 2.933.54 3.92 1.62.944 1.047 1.415 2.4 1.415 4.057 0 1.704-.487 3.103-1.46 4.196-1.018 1.126-2.371 1.688-4.058 1.688-1.625 0-2.92-.54-3.884-1.618-.965-1.08-1.448-2.44-1.448-4.082 0-1.718.497-3.124 1.493-4.218.994-1.095 2.335-1.643 4.022-1.643zm-19.12-4.286c1.398 0 2.56.244 3.487.73l-.616 2.008c-.865-.472-1.844-.707-2.94-.707-.865 0-1.542.213-2.027.638-.41.38-.615.844-.615 1.392 0 .608.234 1.11.705 1.505.41.365 1.155.76 2.235 1.186 1.322.533 2.293 1.155 2.917 1.87.622.71.933 1.601.933 2.664 0 1.307-.454 2.37-1.365 3.192-1 .898-2.394 1.346-4.184 1.346-1.653 0-2.978-.32-3.981-.958l.57-2.052c1.08.653 2.266.981 3.558.981.926 0 1.648-.21 2.166-.628.516-.418.774-.98.774-1.68 0-.623-.213-1.148-.639-1.575-.423-.426-1.131-.822-2.12-1.188-2.689-1.004-4.032-2.474-4.032-4.408 0-1.263.47-2.3 1.414-3.105.94-.808 2.193-1.21 3.76-1.21zm9.503 1.751v2.76h2.713v1.85h-2.713v5.38c0 1.37.478 2.053 1.436 2.053.44 0 .804-.038 1.093-.114l.068 1.87c-.485.181-1.123.273-1.914.273-.972 0-1.731-.297-2.28-.89-.545-.594-.82-1.59-.82-2.988v-5.587h-1.616v-1.848h1.616v-2.029l2.417-.73zm29.355 2.513c1.597 0 2.805.593 3.626 1.778.65.941.977 2.106.977 3.488 0 .441-.03.813-.09 1.117h-7.383c.029 1.095.385 1.932 1.07 2.51.623.516 1.428.775 2.416.775 1.093 0 2.09-.175 2.987-.525l.386 1.71c-1.048.457-2.286.685-3.714.685-1.717 0-3.066-.506-4.047-1.517-.979-1.01-1.47-2.368-1.47-4.07 0-1.671.457-3.063 1.37-4.173.956-1.185 2.247-1.778 3.872-1.778zm-7.019.021c.227 0 .433.016.615.045v2.348c-.243-.045-.503-.068-.775-.068-.866 0-1.536.327-2.007.982-.41.577-.615 1.307-.615 2.189v5.815h-2.46l.023-7.593c0-1.277-.03-2.44-.092-3.49h2.144l.09 2.121h.068c.26-.728.67-1.315 1.23-1.755.549-.396 1.14-.594 1.78-.594zm-12.807 1.802c-.99 0-1.74.442-2.257 1.326-.442.732-.66 1.623-.66 2.676 0 1.022.218 1.899.66 2.629.532.885 1.276 1.326 2.235 1.326.94 0 1.677-.45 2.21-1.35.453-.744.682-1.63.682-2.651 0-1.022-.219-1.899-.66-2.63-.517-.885-1.254-1.326-2.21-1.326zm-47.317.158c-.607 0-1.159.204-1.652.604-.494.405-.817.932-.968 1.586-.076.305-.114.555-.114.75v1.849c0 .806.247 1.486.74 2.042.495.555 1.136.833 1.926.833.927 0 1.648-.358 2.164-1.072.517-.715.776-1.658.776-2.829 0-1.079-.242-1.968-.73-2.668-.532-.73-1.246-1.095-2.142-1.095zm12.74 0c-.608 0-1.159.204-1.653.604-.494.405-.816.932-.967 1.586-.075.305-.114.555-.114.75v1.849c0 .806.247 1.486.739 2.042.494.554 1.135.833 1.927.833.927 0 1.649-.358 2.165-1.072.517-.715.775-1.658.775-2.829 0-1.079-.243-1.968-.73-2.668-.533-.73-1.245-1.095-2.142-1.095zM69.58 24.884c.38 1.52.637 2.485.774 2.895l1.299 4.014h-4.125l1.276-4.014c.335-1.276.578-2.241.73-2.895zm80.86 3.694c-.804 0-1.458.333-1.958 1.003-.41.533-.653 1.171-.728 1.915h5.126c.016-.729-.144-1.36-.478-1.892-.426-.685-1.08-1.026-1.961-1.026zM74.98 11.775c.8 0 1.441.264 1.927.794.462.515.694 1.18.694 1.994 0 .837-.239 1.523-.717 2.061-.5.554-1.164.83-1.993.83-.799 0-1.435-.265-1.91-.796-.473-.53-.71-1.199-.71-2.005 0-.843.244-1.535.734-2.072.49-.537 1.147-.806 1.976-.806zm25.798 0c.8 0 1.44.264 1.927.794.462.515.694 1.18.694 1.994 0 .837-.239 1.523-.717 2.061-.5.554-1.166.83-1.993.83-.8 0-1.436-.265-1.91-.796-.473-.53-.71-1.199-.71-2.005 0-.843.244-1.535.734-2.072.489-.537 1.147-.806 1.975-.806zm6.262 0c1.422 0 2.135.75 2.135 2.252v2.005c0 .544.027.977.079 1.298h-1.086l-.09-.627h-.034c-.372.5-.901.75-1.59.75-.513 0-.929-.164-1.242-.492-.283-.298-.425-.67-.425-1.11 0-.665.277-1.172.834-1.523.557-.35 1.34-.523 2.347-.515v-.101c0-.718-.376-1.076-1.13-1.076-.537 0-1.01.135-1.419.403l-.246-.794c.506-.313 1.13-.47 1.867-.47zm9.045-2.388v6.476c0 .53.014 1.019.043 1.467h-1.074l-.056-.874h-.034c-.343.665-.927.998-1.747.998-.656 0-1.202-.258-1.635-.773-.433-.515-.649-1.184-.649-2.005 0-.881.235-1.595.706-2.14.456-.508 1.014-.763 1.68-.763.73 0 1.241.246 1.532.74h.023V9.387h1.211zm7.77 2.388c.797 0 1.44.264 1.925.794.462.515.694 1.18.694 1.994 0 .837-.239 1.523-.717 2.061-.5.554-1.163.83-1.993.83-.798 0-1.434-.265-1.91-.796-.473-.53-.71-1.199-.71-2.005 0-.843.244-1.535.733-2.072.49-.537 1.148-.806 1.978-.806zm15.932-1.246v1.355h1.332v.908h-1.331v2.645c0 .672.237 1.008.705 1.008.217 0 .397-.018.54-.056l.03.918c-.239.09-.553.135-.94.135-.477 0-.849-.145-1.118-.436-.27-.291-.404-.781-.404-1.468v-2.746h-.795v-.907h.795v-.997l1.186-.359zm12.08 1.235c.782 0 1.377.291 1.778.873.325.462.485 1.034.485 1.713 0 .217-.016.4-.045.549h-3.628c.016.538.19.948.525 1.232.308.254.703.381 1.188.381.537 0 1.026-.085 1.467-.257l.19.84c-.516.225-1.123.337-1.826.337-.843 0-1.507-.249-1.987-.745-.483-.497-.721-1.163-.721-2 0-.82.222-1.504.671-2.05.469-.582 1.103-.873 1.903-.873zM66.718 9.722c1.322 0 2.318.288 2.99.863.753.65 1.13 1.58 1.13 2.79 0 1.36-.408 2.383-1.221 3.07-.754.634-1.825.952-3.213.952-.688 0-1.276-.03-1.77-.09V9.879c.644-.104 1.336-.157 2.084-.157zm24.33 2.05c.508 0 .93.163 1.266.492.418.403.627 1.005.627 1.804v3.262h-1.21v-3.118c0-.961-.365-1.442-1.096-1.442-.36 0-.65.132-.874.396-.223.265-.336.577-.336.934v3.229h-1.21v-3.888c0-.478-.015-.997-.044-1.558h1.063l.057.851h.033c.141-.264.351-.482.627-.657.328-.203.695-.306 1.097-.306zm-11.02.113l.616 2.589c.149.612.271 1.195.37 1.747h.021c.09-.455.24-1.035.45-1.736l.772-2.598h.985l.74 2.543c.18.62.325 1.217.437 1.792h.033c.082-.56.205-1.157.37-1.792l.66-2.543h1.187v-.002l-1.702 5.445h-1.108l-.706-2.364c-.179-.59-.324-1.177-.437-1.76h-.022c-.105.6-.25 1.185-.437 1.76l-.75 2.364h-1.12l-1.602-5.445h1.244zm16.249-2.498v7.943h-1.209V9.387h1.209zm34.81 2.384c.506 0 .929.164 1.265.493.419.403.627 1.005.627 1.804v3.262h-1.209v-3.118c0-.961-.365-1.442-1.098-1.442-.359 0-.649.132-.872.396-.224.265-.336.577-.336.934v3.229h-1.211v-3.888c0-.478-.014-.997-.043-1.558h1.062l.057.851h.033c.142-.264.352-.482.627-.657.329-.203.695-.306 1.098-.306zm12.92-2.384v3.282h.023c.38-.598.927-.896 1.635-.896.5 0 .915.164 1.244.494.41.41.615 1.02.615 1.826v3.237h-1.21v-3.095c0-.976-.366-1.465-1.096-1.465-.561 0-.944.283-1.155.85-.035.118-.056.264-.056.435v3.274h-1.209V9.387h1.209zm-20.197 3.271c-.485 0-.854.217-1.11.652-.217.359-.324.797-.324 1.314 0 .502.109.933.324 1.292.262.435.627.652 1.098.652.462 0 .826-.22 1.086-.663.223-.366.336-.8.336-1.303 0-.502-.108-.933-.324-1.292-.255-.435-.615-.652-1.086-.652zm-17.814 3.059c0 .284.076.496.232.638.156.142.355.213.591.213.266 0 .514-.084.74-.252.228-.169.367-.382.42-.644.012-.06.019-.131.019-.213v-.84c-1.335-.023-2.002.343-2.002 1.098zm-5.261-3.059c-.487 0-.857.217-1.11.652-.216.359-.324.797-.324 1.314 0 .502.109.933.325 1.292.262.435.626.652 1.097.652.462 0 .823-.22 1.084-.663.225-.366.336-.8.336-1.303 0-.502-.108-.933-.324-1.292-.253-.435-.615-.652-1.084-.652zm-25.798 0c-.486 0-.855.217-1.11.652-.216.359-.324.797-.324 1.314 0 .502.109.933.325 1.292.262.435.626.652 1.097.652.462 0 .825-.22 1.085-.663.224-.366.336-.8.336-1.303 0-.502-.108-.933-.324-1.292-.254-.435-.615-.652-1.085-.652zm38.657.057c-.451 0-.805.179-1.064.538-.258.36-.388.818-.388 1.378 0 .538.123.975.372 1.31.262.359.615.538 1.057.538.397 0 .714-.15.956-.448.233-.276.347-.609.347-.997v-.908c0-.157-.011-.284-.033-.381-.068-.291-.215-.536-.438-.733-.225-.198-.496-.297-.809-.297zm-46.775-2.04c-.381 0-.706.025-.975.079V16.4c.15.023.422.034.818.034.925 0 1.64-.258 2.143-.773.503-.515.757-1.266.757-2.252 0-.881-.233-1.557-.7-2.028-.465-.47-1.146-.706-2.043-.706zm84.96 1.928c-.395 0-.717.164-.963.493-.2.262-.32.575-.359.941h2.519c.01-.359-.07-.669-.234-.93-.21-.336-.53-.504-.963-.504zM35.26 17.909c1.167 0 3.389-1.611 5.678-1.37.959.028 3.685.378 5.444 2.943-.142.085-3.248 1.91-3.214 5.662.038 4.498 3.934 5.984 3.981 6-.023.105-.61 2.146-2.07 4.218-1.22 1.825-2.5 3.608-4.53 3.64-1.972.046-2.635-1.16-4.897-1.16-2.283 0-2.99 1.128-4.881 1.206-1.934.071-3.412-1.947-4.676-3.755-2.527-3.692-4.495-10.404-1.857-14.97 1.279-2.24 3.61-3.683 6.1-3.721 1.937-.04 3.733 1.307 4.923 1.307zm5.703-8.559c.193 1.757-.503 3.488-1.52 4.76-1.062 1.253-2.76 2.211-4.415 2.088-.217-1.69.622-3.488 1.56-4.585 1.06-1.244 2.902-2.198 4.375-2.263z"/>
    </g>
</svg>
