<svg width="72" height="72" viewBox="0 0 72 72" fill="none" xmlns="http://www.w3.org/2000/svg">
<rect width="72" height="72" rx="16" fill="#F2F3EF"/>
<rect x="46.668" y="29.3335" width="8" height="25.3333" fill="#E3EDC3"/>
<path fill-rule="evenodd" clip-rule="evenodd" d="M55.3333 28H46.6667V16.6667C46.6667 16.298 46.368 16 46 16H26C25.632 16 25.3333 16.298 25.3333 16.6667V28H16.6667C16.2987 28 16 28.298 16 28.6667V55.3333C16 55.702 16.2987 56 16.6667 56H55.3333C55.7013 56 56 55.702 56 55.3333V28.6667C56 28.298 55.7013 28 55.3333 28ZM17.3333 29.3333H25.3333V54.6667H17.3333V29.3333ZM38 54.6667V48H34V54.6667H38ZM45.3333 54.6667H39.3333V48H40.6667V46.6667H31.3333V48H32.6667V54.6667H26.6667V17.3333H45.3333V54.6667ZM46.6667 54.6667H54.6667V29.3333H46.6667V54.6667Z" fill="#274642"/>
<rect x="34" y="48" width="4" height="6.66667" fill="#E3EDC3"/>
<path fill-rule="evenodd" clip-rule="evenodd" d="M52.6667 35.9998H48.6667C48.2987 35.9998 48 35.7018 48 35.3332V31.3332C48 30.9645 48.2987 30.6665 48.6667 30.6665H52.6667C53.0347 30.6665 53.3333 30.9645 53.3333 31.3332V35.3332C53.3333 35.7018 53.0347 35.9998 52.6667 35.9998ZM52.0002 31.9998H49.3335V34.6665H52.0002V31.9998Z" fill="#274642"/>
<path d="M49.3335 31.9998V31.8748H49.2085V31.9998H49.3335ZM52.0002 31.9998H52.1252V31.8748H52.0002V31.9998ZM49.3335 34.6665H49.2085V34.7915H49.3335V34.6665ZM52.0002 34.6665V34.7915H52.1252V34.6665H52.0002ZM48.6667 36.1248H52.6667V35.8748H48.6667V36.1248ZM47.875 35.3332C47.875 35.771 48.2297 36.1248 48.6667 36.1248V35.8748C48.3676 35.8748 48.125 35.6327 48.125 35.3332H47.875ZM47.875 31.3332V35.3332H48.125V31.3332H47.875ZM48.6667 30.5415C48.2297 30.5415 47.875 30.8954 47.875 31.3332H48.125C48.125 31.0336 48.3676 30.7915 48.6667 30.7915V30.5415ZM52.6667 30.5415H48.6667V30.7915H52.6667V30.5415ZM53.4583 31.3332C53.4583 30.8954 53.1036 30.5415 52.6667 30.5415V30.7915C52.9657 30.7915 53.2083 31.0336 53.2083 31.3332H53.4583ZM53.4583 35.3332V31.3332H53.2083V35.3332H53.4583ZM52.6667 36.1248C53.1036 36.1248 53.4583 35.771 53.4583 35.3332H53.2083C53.2083 35.6327 52.9657 35.8748 52.6667 35.8748V36.1248ZM49.3335 32.1248H52.0002V31.8748H49.3335V32.1248ZM49.4585 34.6665V31.9998H49.2085V34.6665H49.4585ZM52.0002 34.5415H49.3335V34.7915H52.0002V34.5415ZM51.8752 31.9998V34.6665H52.1252V31.9998H51.8752Z" fill="#E3EDC3"/>
<path fill-rule="evenodd" clip-rule="evenodd" d="M52.6667 42.6668H48.6667C48.2987 42.6668 48 42.3688 48 42.0002V38.0002C48 37.6315 48.2987 37.3335 48.6667 37.3335H52.6667C53.0347 37.3335 53.3333 37.6315 53.3333 38.0002V42.0002C53.3333 42.3688 53.0347 42.6668 52.6667 42.6668ZM52.0002 38.6668H49.3335V41.3335H52.0002V38.6668Z" fill="#274642"/>
<path d="M49.3335 38.6668V38.5418H49.2085V38.6668H49.3335ZM52.0002 38.6668H52.1252V38.5418H52.0002V38.6668ZM49.3335 41.3335H49.2085V41.4585H49.3335V41.3335ZM52.0002 41.3335V41.4585H52.1252V41.3335H52.0002ZM48.6667 42.7918H52.6667V42.5418H48.6667V42.7918ZM47.875 42.0002C47.875 42.4379 48.2297 42.7918 48.6667 42.7918V42.5418C48.3676 42.5418 48.125 42.2997 48.125 42.0002H47.875ZM47.875 38.0002V42.0002H48.125V38.0002H47.875ZM48.6667 37.2085C48.2297 37.2085 47.875 37.5624 47.875 38.0002H48.125C48.125 37.7006 48.3676 37.4585 48.6667 37.4585V37.2085ZM52.6667 37.2085H48.6667V37.4585H52.6667V37.2085ZM53.4583 38.0002C53.4583 37.5624 53.1036 37.2085 52.6667 37.2085V37.4585C52.9657 37.4585 53.2083 37.7006 53.2083 38.0002H53.4583ZM53.4583 42.0002V38.0002H53.2083V42.0002H53.4583ZM52.6667 42.7918C53.1036 42.7918 53.4583 42.4379 53.4583 42.0002H53.2083C53.2083 42.2997 52.9657 42.5418 52.6667 42.5418V42.7918ZM49.3335 38.7918H52.0002V38.5418H49.3335V38.7918ZM49.4585 41.3335V38.6668H49.2085V41.3335H49.4585ZM52.0002 41.2085H49.3335V41.4585H52.0002V41.2085ZM51.8752 38.6668V41.3335H52.1252V38.6668H51.8752Z" fill="#E3EDC3"/>
<path fill-rule="evenodd" clip-rule="evenodd" d="M52.6667 49.3333H48.6667C48.2987 49.3333 48 49.0353 48 48.6667V44.6667C48 44.298 48.2987 44 48.6667 44H52.6667C53.0347 44 53.3333 44.298 53.3333 44.6667V48.6667C53.3333 49.0353 53.0347 49.3333 52.6667 49.3333ZM52.0002 45.3334H49.3335V48H52.0002V45.3334Z" fill="#274642"/>
<path d="M49.3335 45.3334V45.2084H49.2085V45.3334H49.3335ZM52.0002 45.3334H52.1252V45.2084H52.0002V45.3334ZM49.3335 48H49.2085V48.125H49.3335V48ZM52.0002 48V48.125H52.1252V48H52.0002ZM48.6667 49.4583H52.6667V49.2083H48.6667V49.4583ZM47.875 48.6667C47.875 49.1044 48.2297 49.4583 48.6667 49.4583V49.2083C48.3676 49.2083 48.125 48.9662 48.125 48.6667H47.875ZM47.875 44.6667V48.6667H48.125V44.6667H47.875ZM48.6667 43.875C48.2297 43.875 47.875 44.2289 47.875 44.6667H48.125C48.125 44.3671 48.3676 44.125 48.6667 44.125V43.875ZM52.6667 43.875H48.6667V44.125H52.6667V43.875ZM53.4583 44.6667C53.4583 44.2289 53.1036 43.875 52.6667 43.875V44.125C52.9657 44.125 53.2083 44.3671 53.2083 44.6667H53.4583ZM53.4583 48.6667V44.6667H53.2083V48.6667H53.4583ZM52.6667 49.4583C53.1036 49.4583 53.4583 49.1044 53.4583 48.6667H53.2083C53.2083 48.9662 52.9657 49.2083 52.6667 49.2083V49.4583ZM49.3335 45.4584H52.0002V45.2084H49.3335V45.4584ZM49.4585 48V45.3334H49.2085V48H49.4585ZM52.0002 47.875H49.3335V48.125H52.0002V47.875ZM51.8752 45.3334V48H52.1252V45.3334H51.8752Z" fill="#E3EDC3"/>
<rect x="17.332" y="29.3335" width="8" height="25.3333" fill="#E3EDC3"/>
<path fill-rule="evenodd" clip-rule="evenodd" d="M19.3346 30.6665H23.3346C23.7026 30.6665 24.0013 30.9645 24.0013 31.3332V35.3332C24.0013 35.7018 23.7026 35.9998 23.3346 35.9998H19.3346C18.9666 35.9998 18.668 35.7018 18.668 35.3332V31.3332C18.668 30.9645 18.9666 30.6665 19.3346 30.6665ZM20.0015 34.6665H22.6682V31.9998H20.0015V34.6665Z" fill="#274642"/>
<path d="M22.6682 34.6665V34.7915H22.7932V34.6665H22.6682ZM20.0015 34.6665H19.8765V34.7915H20.0015V34.6665ZM22.6682 31.9998H22.7932V31.8748H22.6682V31.9998ZM20.0015 31.9998V31.8748H19.8765V31.9998H20.0015ZM23.3346 30.5415H19.3346V30.7915H23.3346V30.5415ZM24.1263 31.3332C24.1263 30.8954 23.7716 30.5415 23.3346 30.5415V30.7915C23.6337 30.7915 23.8763 31.0336 23.8763 31.3332H24.1263ZM24.1263 35.3332V31.3332H23.8763V35.3332H24.1263ZM23.3346 36.1248C23.7716 36.1248 24.1263 35.771 24.1263 35.3332H23.8763C23.8763 35.6327 23.6337 35.8748 23.3346 35.8748V36.1248ZM19.3346 36.1248H23.3346V35.8748H19.3346V36.1248ZM18.543 35.3332C18.543 35.771 18.8977 36.1248 19.3346 36.1248V35.8748C19.0356 35.8748 18.793 35.6327 18.793 35.3332H18.543ZM18.543 31.3332V35.3332H18.793V31.3332H18.543ZM19.3346 30.5415C18.8977 30.5415 18.543 30.8954 18.543 31.3332H18.793C18.793 31.0336 19.0356 30.7915 19.3346 30.7915V30.5415ZM22.6682 34.5415H20.0015V34.7915H22.6682V34.5415ZM22.5432 31.9998V34.6665H22.7932V31.9998H22.5432ZM20.0015 32.1248H22.6682V31.8748H20.0015V32.1248ZM20.1265 34.6665V31.9998H19.8765V34.6665H20.1265Z" fill="#E3EDC3"/>
<path fill-rule="evenodd" clip-rule="evenodd" d="M31.3333 33.3335H28.6667C28.2987 33.3335 28 33.0355 28 32.6668V30.0002C28 29.6315 28.2987 29.3335 28.6667 29.3335H31.3333C31.7013 29.3335 32 29.6315 32 30.0002V32.6668C32 33.0355 31.7013 33.3335 31.3333 33.3335ZM30.6668 30.6668H29.3335V32.0001H30.6668V30.6668Z" fill="#274642"/>
<path d="M29.3335 30.6668V30.5418H29.2085V30.6668H29.3335ZM30.6668 30.6668H30.7918V30.5418H30.6668V30.6668ZM29.3335 32.0001H29.2085V32.1251H29.3335V32.0001ZM30.6668 32.0001V32.1251H30.7918V32.0001H30.6668ZM28.6667 33.4585H31.3333V33.2085H28.6667V33.4585ZM27.875 32.6668C27.875 33.1046 28.2297 33.4585 28.6667 33.4585V33.2085C28.3676 33.2085 28.125 32.9664 28.125 32.6668H27.875ZM27.875 30.0002V32.6668H28.125V30.0002H27.875ZM28.6667 29.2085C28.2297 29.2085 27.875 29.5624 27.875 30.0002H28.125C28.125 29.7006 28.3676 29.4585 28.6667 29.4585V29.2085ZM31.3333 29.2085H28.6667V29.4585H31.3333V29.2085ZM32.125 30.0002C32.125 29.5624 31.7703 29.2085 31.3333 29.2085V29.4585C31.6324 29.4585 31.875 29.7006 31.875 30.0002H32.125ZM32.125 32.6668V30.0002H31.875V32.6668H32.125ZM31.3333 33.4585C31.7703 33.4585 32.125 33.1046 32.125 32.6668H31.875C31.875 32.9664 31.6324 33.2085 31.3333 33.2085V33.4585ZM29.3335 30.7918H30.6668V30.5418H29.3335V30.7918ZM29.4585 32.0001V30.6668H29.2085V32.0001H29.4585ZM30.6668 31.8751H29.3335V32.1251H30.6668V31.8751ZM30.5418 30.6668V32.0001H30.7918V30.6668H30.5418Z" fill="#F9FCEE"/>
<path fill-rule="evenodd" clip-rule="evenodd" d="M34.6667 29.3335H37.3333C37.7013 29.3335 38 29.6315 38 30.0002V32.6668C38 33.0355 37.7013 33.3335 37.3333 33.3335H34.6667C34.2987 33.3335 34 33.0355 34 32.6668V30.0002C34 29.6315 34.2987 29.3335 34.6667 29.3335ZM35.3334 32.0002H36.6667V30.6669H35.3334V32.0002Z" fill="#274642"/>
<path d="M36.6667 32.0002V32.1252H36.7917V32.0002H36.6667ZM35.3334 32.0002H35.2084V32.1252H35.3334V32.0002ZM36.6667 30.6669H36.7917V30.5419H36.6667V30.6669ZM35.3334 30.6669V30.5419H35.2084V30.6669H35.3334ZM37.3333 29.2085H34.6667V29.4585H37.3333V29.2085ZM38.125 30.0002C38.125 29.5624 37.7703 29.2085 37.3333 29.2085V29.4585C37.6324 29.4585 37.875 29.7006 37.875 30.0002H38.125ZM38.125 32.6668V30.0002H37.875V32.6668H38.125ZM37.3333 33.4585C37.7703 33.4585 38.125 33.1046 38.125 32.6668H37.875C37.875 32.9664 37.6324 33.2085 37.3333 33.2085V33.4585ZM34.6667 33.4585H37.3333V33.2085H34.6667V33.4585ZM33.875 32.6668C33.875 33.1046 34.2297 33.4585 34.6667 33.4585V33.2085C34.3676 33.2085 34.125 32.9664 34.125 32.6668H33.875ZM33.875 30.0002V32.6668H34.125V30.0002H33.875ZM34.6667 29.2085C34.2297 29.2085 33.875 29.5624 33.875 30.0002H34.125C34.125 29.7006 34.3676 29.4585 34.6667 29.4585V29.2085ZM36.6667 31.8752H35.3334V32.1252H36.6667V31.8752ZM36.5417 30.6669V32.0002H36.7917V30.6669H36.5417ZM35.3334 30.7919H36.6667V30.5419H35.3334V30.7919ZM35.4584 32.0002V30.6669H35.2084V32.0002H35.4584Z" fill="#F9FCEE"/>
<path fill-rule="evenodd" clip-rule="evenodd" d="M40 32.6668V30.0002C40 29.6315 40.2987 29.3335 40.6667 29.3335H43.3333C43.7013 29.3335 44 29.6315 44 30.0002V32.6668C44 33.0355 43.7013 33.3335 43.3333 33.3335H40.6667C40.2987 33.3335 40 33.0355 40 32.6668ZM42.6666 30.6668H41.3332V32.0001H42.6666V30.6668Z" fill="#274642"/>
<path d="M41.3332 30.6668V30.5418H41.2082V30.6668H41.3332ZM42.6666 30.6668H42.7916V30.5418H42.6666V30.6668ZM41.3332 32.0001H41.2082V32.1251H41.3332V32.0001ZM42.6666 32.0001V32.1251H42.7916V32.0001H42.6666ZM39.875 30.0002V32.6668H40.125V30.0002H39.875ZM40.6667 29.2085C40.2297 29.2085 39.875 29.5624 39.875 30.0002H40.125C40.125 29.7006 40.3676 29.4585 40.6667 29.4585V29.2085ZM43.3333 29.2085H40.6667V29.4585H43.3333V29.2085ZM44.125 30.0002C44.125 29.5624 43.7703 29.2085 43.3333 29.2085V29.4585C43.6324 29.4585 43.875 29.7006 43.875 30.0002H44.125ZM44.125 32.6668V30.0002H43.875V32.6668H44.125ZM43.3333 33.4585C43.7703 33.4585 44.125 33.1046 44.125 32.6668H43.875C43.875 32.9664 43.6324 33.2085 43.3333 33.2085V33.4585ZM40.6667 33.4585H43.3333V33.2085H40.6667V33.4585ZM39.875 32.6668C39.875 33.1046 40.2297 33.4585 40.6667 33.4585V33.2085C40.3676 33.2085 40.125 32.9664 40.125 32.6668H39.875ZM41.3332 30.7918H42.6666V30.5418H41.3332V30.7918ZM41.4582 32.0001V30.6668H41.2082V32.0001H41.4582ZM42.6666 31.8751H41.3332V32.1251H42.6666V31.8751ZM42.5416 30.6668V32.0001H42.7916V30.6668H42.5416Z" fill="#F9FCEE"/>
<path fill-rule="evenodd" clip-rule="evenodd" d="M31.3333 38.6665H28.6667C28.2987 38.6665 28 38.3685 28 37.9998V35.3332C28 34.9645 28.2987 34.6665 28.6667 34.6665H31.3333C31.7013 34.6665 32 34.9645 32 35.3332V37.9998C32 38.3685 31.7013 38.6665 31.3333 38.6665ZM30.6668 35.9998H29.3335V37.3332H30.6668V35.9998Z" fill="#274642"/>
<path d="M29.3335 35.9998V35.8748H29.2085V35.9998H29.3335ZM30.6668 35.9998H30.7918V35.8748H30.6668V35.9998ZM29.3335 37.3332H29.2085V37.4582H29.3335V37.3332ZM30.6668 37.3332V37.4582H30.7918V37.3332H30.6668ZM28.6667 38.7915H31.3333V38.5415H28.6667V38.7915ZM27.875 37.9998C27.875 38.4376 28.2297 38.7915 28.6667 38.7915V38.5415C28.3676 38.5415 28.125 38.2994 28.125 37.9998H27.875ZM27.875 35.3332V37.9998H28.125V35.3332H27.875ZM28.6667 34.5415C28.2297 34.5415 27.875 34.8954 27.875 35.3332H28.125C28.125 35.0336 28.3676 34.7915 28.6667 34.7915V34.5415ZM31.3333 34.5415H28.6667V34.7915H31.3333V34.5415ZM32.125 35.3332C32.125 34.8954 31.7703 34.5415 31.3333 34.5415V34.7915C31.6324 34.7915 31.875 35.0336 31.875 35.3332H32.125ZM32.125 37.9998V35.3332H31.875V37.9998H32.125ZM31.3333 38.7915C31.7703 38.7915 32.125 38.4376 32.125 37.9998H31.875C31.875 38.2994 31.6324 38.5415 31.3333 38.5415V38.7915ZM29.3335 36.1248H30.6668V35.8748H29.3335V36.1248ZM29.4585 37.3332V35.9998H29.2085V37.3332H29.4585ZM30.6668 37.2082H29.3335V37.4582H30.6668V37.2082ZM30.5418 35.9998V37.3332H30.7918V35.9998H30.5418Z" fill="#F9FCEE"/>
<path fill-rule="evenodd" clip-rule="evenodd" d="M34.6667 34.6665H37.3333C37.7013 34.6665 38 34.9645 38 35.3332V37.9998C38 38.3685 37.7013 38.6665 37.3333 38.6665H34.6667C34.2987 38.6665 34 38.3685 34 37.9998V35.3332C34 34.9645 34.2987 34.6665 34.6667 34.6665ZM35.3334 37.3332H36.6667V35.9998H35.3334V37.3332Z" fill="#274642"/>
<path d="M36.6667 37.3332V37.4582H36.7917V37.3332H36.6667ZM35.3334 37.3332H35.2084V37.4582H35.3334V37.3332ZM36.6667 35.9998H36.7917V35.8748H36.6667V35.9998ZM35.3334 35.9998V35.8748H35.2084V35.9998H35.3334ZM37.3333 34.5415H34.6667V34.7915H37.3333V34.5415ZM38.125 35.3332C38.125 34.8954 37.7703 34.5415 37.3333 34.5415V34.7915C37.6324 34.7915 37.875 35.0336 37.875 35.3332H38.125ZM38.125 37.9998V35.3332H37.875V37.9998H38.125ZM37.3333 38.7915C37.7703 38.7915 38.125 38.4376 38.125 37.9998H37.875C37.875 38.2994 37.6324 38.5415 37.3333 38.5415V38.7915ZM34.6667 38.7915H37.3333V38.5415H34.6667V38.7915ZM33.875 37.9998C33.875 38.4376 34.2297 38.7915 34.6667 38.7915V38.5415C34.3676 38.5415 34.125 38.2994 34.125 37.9998H33.875ZM33.875 35.3332V37.9998H34.125V35.3332H33.875ZM34.6667 34.5415C34.2297 34.5415 33.875 34.8954 33.875 35.3332H34.125C34.125 35.0336 34.3676 34.7915 34.6667 34.7915V34.5415ZM36.6667 37.2082H35.3334V37.4582H36.6667V37.2082ZM36.5417 35.9998V37.3332H36.7917V35.9998H36.5417ZM35.3334 36.1248H36.6667V35.8748H35.3334V36.1248ZM35.4584 37.3332V35.9998H35.2084V37.3332H35.4584Z" fill="#F9FCEE"/>
<path fill-rule="evenodd" clip-rule="evenodd" d="M40.6667 34.6665H43.3333C43.7013 34.6665 44 34.9645 44 35.3332V37.9998C44 38.3685 43.7013 38.6665 43.3333 38.6665H40.6667C40.2987 38.6665 40 38.3685 40 37.9998V35.3332C40 34.9645 40.2987 34.6665 40.6667 34.6665ZM41.3332 37.3332H42.6666V35.9998H41.3332V37.3332Z" fill="#274642"/>
<path d="M42.6666 37.3332V37.4582H42.7916V37.3332H42.6666ZM41.3332 37.3332H41.2082V37.4582H41.3332V37.3332ZM42.6666 35.9998H42.7916V35.8748H42.6666V35.9998ZM41.3332 35.9998V35.8748H41.2082V35.9998H41.3332ZM43.3333 34.5415H40.6667V34.7915H43.3333V34.5415ZM44.125 35.3332C44.125 34.8954 43.7703 34.5415 43.3333 34.5415V34.7915C43.6324 34.7915 43.875 35.0336 43.875 35.3332H44.125ZM44.125 37.9998V35.3332H43.875V37.9998H44.125ZM43.3333 38.7915C43.7703 38.7915 44.125 38.4376 44.125 37.9998H43.875C43.875 38.2994 43.6324 38.5415 43.3333 38.5415V38.7915ZM40.6667 38.7915H43.3333V38.5415H40.6667V38.7915ZM39.875 37.9998C39.875 38.4376 40.2297 38.7915 40.6667 38.7915V38.5415C40.3676 38.5415 40.125 38.2994 40.125 37.9998H39.875ZM39.875 35.3332V37.9998H40.125V35.3332H39.875ZM40.6667 34.5415C40.2297 34.5415 39.875 34.8954 39.875 35.3332H40.125C40.125 35.0336 40.3676 34.7915 40.6667 34.7915V34.5415ZM42.6666 37.2082H41.3332V37.4582H42.6666V37.2082ZM42.5416 35.9998V37.3332H42.7916V35.9998H42.5416ZM41.3332 36.1248H42.6666V35.8748H41.3332V36.1248ZM41.4582 37.3332V35.9998H41.2082V37.3332H41.4582Z" fill="#F9FCEE"/>
<path fill-rule="evenodd" clip-rule="evenodd" d="M31.3333 44H28.6667C28.2987 44 28 43.702 28 43.3333V40.6667C28 40.298 28.2987 40 28.6667 40H31.3333C31.7013 40 32 40.298 32 40.6667V43.3333C32 43.702 31.7013 44 31.3333 44ZM30.6668 41.3334H29.3335V42.6667H30.6668V41.3334Z" fill="#274642"/>
<path d="M29.3335 41.3334V41.2084H29.2085V41.3334H29.3335ZM30.6668 41.3334H30.7918V41.2084H30.6668V41.3334ZM29.3335 42.6667H29.2085V42.7917H29.3335V42.6667ZM30.6668 42.6667V42.7917H30.7918V42.6667H30.6668ZM28.6667 44.125H31.3333V43.875H28.6667V44.125ZM27.875 43.3333C27.875 43.7711 28.2297 44.125 28.6667 44.125V43.875C28.3676 43.875 28.125 43.6329 28.125 43.3333H27.875ZM27.875 40.6667V43.3333H28.125V40.6667H27.875ZM28.6667 39.875C28.2297 39.875 27.875 40.2289 27.875 40.6667H28.125C28.125 40.3671 28.3676 40.125 28.6667 40.125V39.875ZM31.3333 39.875H28.6667V40.125H31.3333V39.875ZM32.125 40.6667C32.125 40.2289 31.7703 39.875 31.3333 39.875V40.125C31.6324 40.125 31.875 40.3671 31.875 40.6667H32.125ZM32.125 43.3333V40.6667H31.875V43.3333H32.125ZM31.3333 44.125C31.7703 44.125 32.125 43.7711 32.125 43.3333H31.875C31.875 43.6329 31.6324 43.875 31.3333 43.875V44.125ZM29.3335 41.4584H30.6668V41.2084H29.3335V41.4584ZM29.4585 42.6667V41.3334H29.2085V42.6667H29.4585ZM30.6668 42.5417H29.3335V42.7917H30.6668V42.5417ZM30.5418 41.3334V42.6667H30.7918V41.3334H30.5418Z" fill="#F9FCEE"/>
<path fill-rule="evenodd" clip-rule="evenodd" d="M34.6667 40H37.3333C37.7013 40 38 40.298 38 40.6667V43.3333C38 43.702 37.7013 44 37.3333 44H34.6667C34.2987 44 34 43.702 34 43.3333V40.6667C34 40.298 34.2987 40 34.6667 40ZM35.3334 42.6666H36.6667V41.3333H35.3334V42.6666Z" fill="#274642"/>
<path d="M36.6667 42.6666V42.7916H36.7917V42.6666H36.6667ZM35.3334 42.6666H35.2084V42.7916H35.3334V42.6666ZM36.6667 41.3333H36.7917V41.2083H36.6667V41.3333ZM35.3334 41.3333V41.2083H35.2084V41.3333H35.3334ZM37.3333 39.875H34.6667V40.125H37.3333V39.875ZM38.125 40.6667C38.125 40.2289 37.7703 39.875 37.3333 39.875V40.125C37.6324 40.125 37.875 40.3671 37.875 40.6667H38.125ZM38.125 43.3333V40.6667H37.875V43.3333H38.125ZM37.3333 44.125C37.7703 44.125 38.125 43.7711 38.125 43.3333H37.875C37.875 43.6329 37.6324 43.875 37.3333 43.875V44.125ZM34.6667 44.125H37.3333V43.875H34.6667V44.125ZM33.875 43.3333C33.875 43.7711 34.2297 44.125 34.6667 44.125V43.875C34.3676 43.875 34.125 43.6329 34.125 43.3333H33.875ZM33.875 40.6667V43.3333H34.125V40.6667H33.875ZM34.6667 39.875C34.2297 39.875 33.875 40.2289 33.875 40.6667H34.125C34.125 40.3671 34.3676 40.125 34.6667 40.125V39.875ZM36.6667 42.5416H35.3334V42.7916H36.6667V42.5416ZM36.5417 41.3333V42.6666H36.7917V41.3333H36.5417ZM35.3334 41.4583H36.6667V41.2083H35.3334V41.4583ZM35.4584 42.6666V41.3333H35.2084V42.6666H35.4584Z" fill="#F9FCEE"/>
<path fill-rule="evenodd" clip-rule="evenodd" d="M40.6667 40H43.3333C43.7013 40 44 40.298 44 40.6667V43.3333C44 43.702 43.7013 44 43.3333 44H40.6667C40.2987 44 40 43.702 40 43.3333V40.6667C40 40.298 40.2987 40 40.6667 40ZM41.3332 42.6667H42.6666V41.3334H41.3332V42.6667Z" fill="#274642"/>
<path d="M42.6666 42.6667V42.7917H42.7916V42.6667H42.6666ZM41.3332 42.6667H41.2082V42.7917H41.3332V42.6667ZM42.6666 41.3334H42.7916V41.2084H42.6666V41.3334ZM41.3332 41.3334V41.2084H41.2082V41.3334H41.3332ZM43.3333 39.875H40.6667V40.125H43.3333V39.875ZM44.125 40.6667C44.125 40.2289 43.7703 39.875 43.3333 39.875V40.125C43.6324 40.125 43.875 40.3671 43.875 40.6667H44.125ZM44.125 43.3333V40.6667H43.875V43.3333H44.125ZM43.3333 44.125C43.7703 44.125 44.125 43.7711 44.125 43.3333H43.875C43.875 43.6329 43.6324 43.875 43.3333 43.875V44.125ZM40.6667 44.125H43.3333V43.875H40.6667V44.125ZM39.875 43.3333C39.875 43.7711 40.2297 44.125 40.6667 44.125V43.875C40.3676 43.875 40.125 43.6329 40.125 43.3333H39.875ZM39.875 40.6667V43.3333H40.125V40.6667H39.875ZM40.6667 39.875C40.2297 39.875 39.875 40.2289 39.875 40.6667H40.125C40.125 40.3671 40.3676 40.125 40.6667 40.125V39.875ZM42.6666 42.5417H41.3332V42.7917H42.6666V42.5417ZM42.5416 41.3334V42.6667H42.7916V41.3334H42.5416ZM41.3332 41.4584H42.6666V41.2084H41.3332V41.4584ZM41.4582 42.6667V41.3334H41.2082V42.6667H41.4582Z" fill="#F9FCEE"/>
<path fill-rule="evenodd" clip-rule="evenodd" d="M19.3346 37.3335H23.3346C23.7026 37.3335 24.0013 37.6315 24.0013 38.0002V42.0002C24.0013 42.3688 23.7026 42.6668 23.3346 42.6668H19.3346C18.9666 42.6668 18.668 42.3688 18.668 42.0002V38.0002C18.668 37.6315 18.9666 37.3335 19.3346 37.3335ZM20.0015 41.3335H22.6682V38.6668H20.0015V41.3335Z" fill="#274642"/>
<path d="M22.6682 41.3335V41.4585H22.7932V41.3335H22.6682ZM20.0015 41.3335H19.8765V41.4585H20.0015V41.3335ZM22.6682 38.6668H22.7932V38.5418H22.6682V38.6668ZM20.0015 38.6668V38.5418H19.8765V38.6668H20.0015ZM23.3346 37.2085H19.3346V37.4585H23.3346V37.2085ZM24.1263 38.0002C24.1263 37.5624 23.7716 37.2085 23.3346 37.2085V37.4585C23.6337 37.4585 23.8763 37.7006 23.8763 38.0002H24.1263ZM24.1263 42.0002V38.0002H23.8763V42.0002H24.1263ZM23.3346 42.7918C23.7716 42.7918 24.1263 42.4379 24.1263 42.0002H23.8763C23.8763 42.2997 23.6337 42.5418 23.3346 42.5418V42.7918ZM19.3346 42.7918H23.3346V42.5418H19.3346V42.7918ZM18.543 42.0002C18.543 42.4379 18.8977 42.7918 19.3346 42.7918V42.5418C19.0356 42.5418 18.793 42.2997 18.793 42.0002H18.543ZM18.543 38.0002V42.0002H18.793V38.0002H18.543ZM19.3346 37.2085C18.8977 37.2085 18.543 37.5624 18.543 38.0002H18.793C18.793 37.7006 19.0356 37.4585 19.3346 37.4585V37.2085ZM22.6682 41.2085H20.0015V41.4585H22.6682V41.2085ZM22.5432 38.6668V41.3335H22.7932V38.6668H22.5432ZM20.0015 38.7918H22.6682V38.5418H20.0015V38.7918ZM20.1265 41.3335V38.6668H19.8765V41.3335H20.1265Z" fill="#E3EDC3"/>
<path fill-rule="evenodd" clip-rule="evenodd" d="M19.3346 44H23.3346C23.7026 44 24.0013 44.298 24.0013 44.6667V48.6667C24.0013 49.0353 23.7026 49.3333 23.3346 49.3333H19.3346C18.9666 49.3333 18.668 49.0353 18.668 48.6667V44.6667C18.668 44.298 18.9666 44 19.3346 44ZM20.0015 48H22.6682V45.3334H20.0015V48Z" fill="#274642"/>
<path d="M22.6682 48V48.125H22.7932V48H22.6682ZM20.0015 48H19.8765V48.125H20.0015V48ZM22.6682 45.3334H22.7932V45.2084H22.6682V45.3334ZM20.0015 45.3334V45.2084H19.8765V45.3334H20.0015ZM23.3346 43.875H19.3346V44.125H23.3346V43.875ZM24.1263 44.6667C24.1263 44.2289 23.7716 43.875 23.3346 43.875V44.125C23.6337 44.125 23.8763 44.3671 23.8763 44.6667H24.1263ZM24.1263 48.6667V44.6667H23.8763V48.6667H24.1263ZM23.3346 49.4583C23.7716 49.4583 24.1263 49.1044 24.1263 48.6667H23.8763C23.8763 48.9662 23.6337 49.2083 23.3346 49.2083V49.4583ZM19.3346 49.4583H23.3346V49.2083H19.3346V49.4583ZM18.543 48.6667C18.543 49.1044 18.8977 49.4583 19.3346 49.4583V49.2083C19.0356 49.2083 18.793 48.9662 18.793 48.6667H18.543ZM18.543 44.6667V48.6667H18.793V44.6667H18.543ZM19.3346 43.875C18.8977 43.875 18.543 44.2289 18.543 44.6667H18.793C18.793 44.3671 19.0356 44.125 19.3346 44.125V43.875ZM22.6682 47.875H20.0015V48.125H22.6682V47.875ZM22.5432 45.3334V48H22.7932V45.3334H22.5432ZM20.0015 45.4584H22.6682V45.2084H20.0015V45.4584ZM20.1265 48V45.3334H19.8765V48H20.1265Z" fill="#E3EDC3"/>
<path fill-rule="evenodd" clip-rule="evenodd" d="M33.9987 25.3332H31.9987C31.6307 25.3332 31.332 25.0352 31.332 24.6665V21.9998C31.332 21.6312 31.6307 21.3332 31.9987 21.3332H33.9987V19.3332C33.9987 18.9645 34.2974 18.6665 34.6654 18.6665H37.332C37.7 18.6665 37.9987 18.9645 37.9987 19.3332V21.3332H39.9987C40.3667 21.3332 40.6654 21.6312 40.6654 21.9998V24.6665C40.6654 25.0352 40.3667 25.3332 39.9987 25.3332H37.9987V27.3332C37.9987 27.7018 37.7 27.9998 37.332 27.9998H34.6654C34.2974 27.9998 33.9987 27.7018 33.9987 27.3332V25.3332ZM34.6656 22.6665H32.6656V23.9999H34.6656C35.0336 23.9999 35.3323 24.2979 35.3323 24.6665V26.6665H36.6656V24.6665C36.6656 24.2979 36.9643 23.9999 37.3323 23.9999H39.3323V22.6665H37.3323C36.9643 22.6665 36.6656 22.3685 36.6656 21.9999V19.9999H35.3323V21.9999C35.3323 22.3685 35.0336 22.6665 34.6656 22.6665Z" fill="#274642"/>
<path d="M33.9987 25.3332H34.1237V25.2082H33.9987V25.3332ZM33.9987 21.3332V21.4582H34.1237V21.3332H33.9987ZM37.9987 21.3332H37.8737V21.4582H37.9987V21.3332ZM37.9987 25.3332V25.2082H37.8737V25.3332H37.9987ZM32.6656 22.6665V22.5415H32.5406V22.6665H32.6656ZM32.6656 23.9999H32.5406V24.1249H32.6656V23.9999ZM35.3323 26.6665H35.2073V26.7915H35.3323V26.6665ZM36.6656 26.6665V26.7915H36.7906V26.6665H36.6656ZM39.3323 23.9999V24.1249H39.4573V23.9999H39.3323ZM39.3323 22.6665H39.4573V22.5415H39.3323V22.6665ZM36.6656 19.9999H36.7906V19.8749H36.6656V19.9999ZM35.3323 19.9999V19.8749H35.2073V19.9999H35.3323ZM31.9987 25.4582H33.9987V25.2082H31.9987V25.4582ZM31.207 24.6665C31.207 25.1043 31.5617 25.4582 31.9987 25.4582V25.2082C31.6997 25.2082 31.457 24.9661 31.457 24.6665H31.207ZM31.207 21.9998V24.6665H31.457V21.9998H31.207ZM31.9987 21.2082C31.5617 21.2082 31.207 21.5621 31.207 21.9998H31.457C31.457 21.7003 31.6997 21.4582 31.9987 21.4582V21.2082ZM33.9987 21.2082H31.9987V21.4582H33.9987V21.2082ZM33.8737 19.3332V21.3332H34.1237V19.3332H33.8737ZM34.6654 18.5415C34.2284 18.5415 33.8737 18.8954 33.8737 19.3332H34.1237C34.1237 19.0336 34.3663 18.7915 34.6654 18.7915V18.5415ZM37.332 18.5415H34.6654V18.7915H37.332V18.5415ZM38.1237 19.3332C38.1237 18.8954 37.769 18.5415 37.332 18.5415V18.7915C37.6311 18.7915 37.8737 19.0336 37.8737 19.3332H38.1237ZM38.1237 21.3332V19.3332H37.8737V21.3332H38.1237ZM39.9987 21.2082H37.9987V21.4582H39.9987V21.2082ZM40.7904 21.9998C40.7904 21.5621 40.4357 21.2082 39.9987 21.2082V21.4582C40.2977 21.4582 40.5404 21.7003 40.5404 21.9998H40.7904ZM40.7904 24.6665V21.9998H40.5404V24.6665H40.7904ZM39.9987 25.4582C40.4357 25.4582 40.7904 25.1043 40.7904 24.6665H40.5404C40.5404 24.9661 40.2977 25.2082 39.9987 25.2082V25.4582ZM37.9987 25.4582H39.9987V25.2082H37.9987V25.4582ZM38.1237 27.3332V25.3332H37.8737V27.3332H38.1237ZM37.332 28.1248C37.769 28.1248 38.1237 27.771 38.1237 27.3332H37.8737C37.8737 27.6327 37.6311 27.8748 37.332 27.8748V28.1248ZM34.6654 28.1248H37.332V27.8748H34.6654V28.1248ZM33.8737 27.3332C33.8737 27.771 34.2284 28.1248 34.6654 28.1248V27.8748C34.3663 27.8748 34.1237 27.6327 34.1237 27.3332H33.8737ZM33.8737 25.3332V27.3332H34.1237V25.3332H33.8737ZM32.6656 22.7915H34.6656V22.5415H32.6656V22.7915ZM32.7906 23.9999V22.6665H32.5406V23.9999H32.7906ZM34.6656 23.8749H32.6656V24.1249H34.6656V23.8749ZM35.4573 24.6665C35.4573 24.2287 35.1026 23.8749 34.6656 23.8749V24.1249C34.9647 24.1249 35.2073 24.367 35.2073 24.6665H35.4573ZM35.4573 26.6665V24.6665H35.2073V26.6665H35.4573ZM36.6656 26.5415H35.3323V26.7915H36.6656V26.5415ZM36.5406 24.6665V26.6665H36.7906V24.6665H36.5406ZM37.3323 23.8749C36.8953 23.8749 36.5406 24.2287 36.5406 24.6665H36.7906C36.7906 24.367 37.0332 24.1249 37.3323 24.1249V23.8749ZM39.3323 23.8749H37.3323V24.1249H39.3323V23.8749ZM39.2073 22.6665V23.9999H39.4573V22.6665H39.2073ZM37.3323 22.7915H39.3323V22.5415H37.3323V22.7915ZM36.5406 21.9999C36.5406 22.4376 36.8953 22.7915 37.3323 22.7915V22.5415C37.0332 22.5415 36.7906 22.2994 36.7906 21.9999H36.5406ZM36.5406 19.9999V21.9999H36.7906V19.9999H36.5406ZM35.3323 20.1249H36.6656V19.8749H35.3323V20.1249ZM35.4573 21.9999V19.9999H35.2073V21.9999H35.4573ZM34.6656 22.7915C35.1026 22.7915 35.4573 22.4376 35.4573 21.9999H35.2073C35.2073 22.2994 34.9647 22.5415 34.6656 22.5415V22.7915Z" fill="#F9FCEE"/>
<path d="M42.668 52H44.0013V53.3333H42.668V52Z" fill="#274642"/>
<path d="M42.668 49.3335H44.0013V50.6668H42.668V49.3335Z" fill="#274642"/>
<path d="M42.668 46.6665H44.0013V47.9998H42.668V46.6665Z" fill="#274642"/>
</svg>
