<svg width="80" height="80" viewBox="0 0 80 80" fill="none" xmlns="http://www.w3.org/2000/svg">
<rect x="18" y="46" width="16" height="26" fill="#E3EDC3"/>
<rect width="14" height="14" transform="matrix(1 0 0 -1 48.0605 60)" fill="#E3EDC3"/>
<path d="M62.2941 44.6465H48.1765C47.5268 44.6465 47 45.1733 47 45.823V59.9119C47 60.5616 47.5268 61.0883 48.1765 61.0883H62.2941C62.9438 61.0883 63.4706 60.5616 63.4706 59.9119V45.823C63.4706 45.1733 62.9438 44.6465 62.2941 44.6465ZM61.1176 58.7354H49.3529V46.9994H61.1176V58.7354Z" fill="#274642"/>
<path d="M2.35225 71.3097C1.70255 71.3097 1.17578 71.8365 1.17578 72.4862C1.17578 73.1359 1.70255 73.6627 2.35225 73.6627C27.368 73.6627 52.5234 73.6627 77.6464 73.6627C78.2961 73.6627 78.8228 73.1359 78.8228 72.4862C78.8228 71.8365 78.2961 71.3097 77.6464 71.3097H74.8907V23.1124H77.6464C78.2961 23.1124 78.8228 22.5856 78.8228 21.9359C78.8228 21.2862 78.2961 20.7594 77.6464 20.7594C77.5345 20.7594 67.0767 20.7594 66.5882 20.7594V8.69083H69.3795C70.0292 8.69083 70.5559 8.16406 70.5559 7.51436C70.5559 6.86466 70.0292 6.33789 69.3795 6.33789C52.0796 6.33789 40.0174 6.33789 10.6191 6.33789C9.96944 6.33789 9.44267 6.86466 9.44267 7.51436C9.44267 8.16406 9.96944 8.69083 10.6191 8.69083H13.4098V20.7594C13.1042 20.7594 2.83903 20.7594 2.35225 20.7594C1.70255 20.7594 1.17578 21.2862 1.17578 21.9359C1.17578 22.5856 1.70255 23.1124 2.35225 23.1124H5.10788V71.3097H2.35225ZM24.8205 71.3057H18.9382V46.9531H24.8205V71.3057ZM33.0558 71.3057H27.1735V46.9531H33.0558V71.3057ZM15.7628 8.69083H64.2353V20.7594H15.7628V8.69083ZM7.46082 23.1124C20.1548 23.1124 59.8221 23.1124 72.5378 23.1124V71.3097H35.4088V45.7767C35.4088 45.127 34.882 44.6002 34.2323 44.6002H17.7617C17.112 44.6002 16.5852 45.127 16.5852 45.7767V71.3097H7.46082V23.1124Z" fill="#274642"/>
<path d="M29.3596 33.3168C29.8317 33.4127 30.2079 33.6376 30.4882 33.9917C30.7759 34.3384 30.9198 34.7478 30.9198 35.2199C30.9198 35.8765 30.6985 36.3965 30.2559 36.7801C29.8207 37.1563 29.1863 37.3444 28.3527 37.3444H25V29.5325H28.2863C29.0756 29.5325 29.6805 29.7059 30.101 30.0526C30.5288 30.3993 30.7427 30.8861 30.7427 31.5132C30.7427 32 30.6137 32.3984 30.3555 32.7082C30.1047 33.018 29.7727 33.2209 29.3596 33.3168ZM26.5602 32.8078H27.9654C28.3564 32.8078 28.6515 32.7229 28.8506 32.5533C29.0572 32.3762 29.1604 32.1254 29.1604 31.8009C29.1604 31.4763 29.0609 31.2255 28.8617 31.0484C28.6625 30.8714 28.3564 30.7829 27.9433 30.7829H26.5602V32.8078ZM28.0429 36.0719C28.456 36.0719 28.7732 35.9834 28.9945 35.8064C29.2158 35.622 29.3264 35.3564 29.3264 35.0097C29.3264 34.663 29.2121 34.3974 28.9834 34.213C28.7621 34.0212 28.4449 33.9253 28.0318 33.9253H26.5602V36.0719H28.0429Z" fill="#587E85"/>
<path d="M36.7708 35.7732H33.6394L33.0862 37.3444H31.4375L34.3144 29.621H36.0959L38.9617 37.3444H37.313L36.7708 35.7732ZM36.3504 34.5892L35.1996 31.2919L34.0488 34.5892H36.3504Z" fill="#587E85"/>
<path d="M45.1703 35.2089C45.1703 35.6072 45.0707 35.976 44.8716 36.3154C44.6724 36.6473 44.3773 36.9166 43.9864 37.1231C43.5954 37.3223 43.1196 37.4219 42.559 37.4219C42.0057 37.4219 41.5115 37.3297 41.0763 37.1453C40.641 36.9535 40.2906 36.6805 40.0251 36.3264C39.7669 35.9724 39.6194 35.5593 39.5825 35.0872H41.2422C41.2791 35.4044 41.4045 35.6699 41.6184 35.8838C41.8397 36.0904 42.1311 36.1937 42.4926 36.1937C42.8172 36.1937 43.0643 36.1088 43.2339 35.9392C43.411 35.7621 43.4995 35.5371 43.4995 35.2642C43.4995 35.0208 43.4294 34.8216 43.2893 34.6667C43.1491 34.5044 42.9721 34.3753 42.7581 34.2794C42.5442 34.1835 42.2491 34.0729 41.8729 33.9475C41.3861 33.7852 40.9877 33.6266 40.6779 33.4717C40.3681 33.3094 40.1025 33.077 39.8812 32.7746C39.6673 32.4721 39.5603 32.0775 39.5603 31.5906C39.5603 30.9193 39.8001 30.3919 40.2796 30.0083C40.7664 29.6174 41.4082 29.4219 42.2049 29.4219C43.0311 29.4219 43.6876 29.621 44.1745 30.0194C44.6687 30.4177 44.949 30.9488 45.0154 31.6127H43.3335C43.2893 31.3324 43.1712 31.1038 42.9794 30.9267C42.7876 30.7423 42.5258 30.6501 42.1938 30.6501C41.9061 30.6501 41.6738 30.7275 41.4967 30.8825C41.3197 31.03 41.2312 31.2476 41.2312 31.5353C41.2312 31.764 41.2976 31.9558 41.4303 32.1107C41.5705 32.2582 41.7438 32.3799 41.9504 32.4758C42.1643 32.5717 42.452 32.6787 42.8135 32.7967C43.3151 32.9737 43.7208 33.1397 44.0306 33.2946C44.3478 33.4495 44.6171 33.6819 44.8384 33.9917C45.0597 34.3015 45.1703 34.7073 45.1703 35.2089Z" fill="#587E85"/>
<path d="M47.8798 29.5325V37.3444H46.3196V29.5325H47.8798Z" fill="#587E85"/>
<path d="M52.8209 29.4551C53.7946 29.4551 54.6024 29.7059 55.2442 30.2075C55.8859 30.7091 56.3101 31.3914 56.5166 32.2545H54.879C54.7093 31.834 54.4438 31.5021 54.0823 31.2587C53.7282 31.0152 53.3004 30.8935 52.7988 30.8935C52.3857 30.8935 52.0132 30.9968 51.6812 31.2033C51.3493 31.4099 51.0911 31.705 50.9067 32.0885C50.7222 32.4721 50.63 32.9221 50.63 33.4385C50.63 33.9475 50.7222 34.3938 50.9067 34.7773C51.0911 35.1609 51.3493 35.456 51.6812 35.6625C52.0132 35.8691 52.3857 35.9724 52.7988 35.9724C53.3004 35.9724 53.7282 35.8506 54.0823 35.6072C54.4438 35.3638 54.7093 35.0318 54.879 34.6114H56.5166C56.3101 35.4744 55.8859 36.1568 55.2442 36.6584C54.6024 37.16 53.7946 37.4108 52.8209 37.4108C52.0759 37.4108 51.4157 37.2448 50.8403 36.9129C50.2723 36.5736 49.8297 36.1015 49.5125 35.4966C49.2026 34.8917 49.0477 34.2056 49.0477 33.4385C49.0477 32.6639 49.2026 31.9742 49.5125 31.3693C49.8297 30.7644 50.2723 30.296 50.8403 29.9641C51.4083 29.6247 52.0685 29.4551 52.8209 29.4551Z" fill="#587E85"/>
</svg>
