<svg width="44" height="44" viewBox="0 0 44 44" xmlns="http://www.w3.org/2000/svg">
    <defs>
        <filter x="-44.4%" y="-44.4%" width="188.9%" height="188.9%" filterUnits="objectBoundingBox" id="tw2tl0lr1a">
            <feOffset dy="4" in="SourceAlpha" result="shadowOffsetOuter1"/>
            <feGaussianBlur stdDeviation="2" in="shadowOffsetOuter1" result="shadowBlurOuter1"/>
            <feColorMatrix values="0 0 0 0 0.952941176 0 0 0 0 0.643137255 0 0 0 0 0.0784313725 0 0 0 0.3 0" in="shadowBlurOuter1" result="shadowMatrixOuter1"/>
            <feMerge>
                <feMergeNode in="shadowMatrixOuter1"/>
                <feMergeNode in="SourceGraphic"/>
            </feMerge>
        </filter>
    </defs>
    <g filter="url(#tw2tl0lr1a)" transform="translate(4)" fill="none" fill-rule="evenodd" opacity=".5">
        <path d="M18 0C8.064 0 0 8.064 0 18s8.064 18 18 18 18-8.064 18-18S27.936 0 18 0z" fill="#F3A414"/>
        <path d="M6 6h24v24H6z"/>
        <path d="M6 6h24v24H6z"/>
        <g fill="#FFF" fill-rule="nonzero">
            <path d="M16 9h4c.55 0 1-.45 1-1s-.45-1-1-1h-4c-.55 0-1 .45-1 1s.45 1 1 1zM25.03 13.39l.75-.75a.993.993 0 0 0 0-1.4l-.01-.01a.993.993 0 0 0-1.4 0l-.75.75A8.962 8.962 0 0 0 18 10c-4.8 0-8.88 3.96-9 8.76A8.998 8.998 0 0 0 18 28a8.994 8.994 0 0 0 7.03-14.61zM19 19c0 .55-.45 1-1 1s-1-.45-1-1v-4c0-.55.45-1 1-1s1 .45 1 1v4z"/>
        </g>
    </g>
</svg>
