<svg xmlns="http://www.w3.org/2000/svg" width="17" height="18" viewBox="0 0 17 18">
    <g fill="none" fill-rule="evenodd">
        <g fill="#668A90" fill-rule="nonzero">
            <g>
                <g>
                    <g>
                        <path d="M594 16c.513 0 .936.322.993.736l.007.097V18h1.45c1.352 0 2.458.99 2.545 2.242l.005.158v11.2c0 1.325-1.142 2.4-2.55 2.4h-11.9c-1.408 0-2.55-1.075-2.55-2.4V20.4c0-1.325 1.142-2.4 2.55-2.4H586v-1.167c0-.46.448-.833 1-.833.513 0 .936.322.993.736l.007.097V18h5v-1.167c0-.46.448-.833 1-.833zm3.3 8h-13.6v7.6c0 .408.324.744.743.794l.107.006h11.9c.47 0 .85-.358.85-.8V24zM586 19.599l-1.45.001c-.47 0-.85.358-.85.8V22h13.6v-1.6c0-.408-.324-.744-.743-.794l-.107-.006-1.45-.001v.568c0 .46-.448.833-1 .833-.513 0-.936-.322-.993-.736l-.007-.097v-.568h-5v.568c0 .46-.448.833-1 .833-.513 0-.936-.322-.993-.736l-.007-.097v-.568z" transform="translate(-1083 -457) translate(471 326) translate(30 115)"/>
                    </g>
                </g>
            </g>
        </g>
    </g>
</svg>
