<svg width="13" height="12" viewBox="0 0 13 12" xmlns="http://www.w3.org/2000/svg">
    <path d="M12.78.22a.75.75 0 0 0-1.06 0l-5 5-.073.084a.75.75 0 0 0 .073.976l5 5 .084.073a.75.75 0 0 0 .976-.073l.073-.084a.75.75 0 0 0-.073-.976L8.311 5.75l4.47-4.47.072-.084A.75.75 0 0 0 12.78.22zm-6 0a.75.75 0 0 0-1.06 0l-5 5-.073.084a.75.75 0 0 0 .073.976l5 5 .084.073a.75.75 0 0 0 .976-.073l.073-.084a.75.75 0 0 0-.073-.976L2.311 5.75l4.47-4.47.072-.084A.75.75 0 0 0 6.78.22z" fill="#587E85" fill-rule="nonzero"/>
</svg>
