<svg width="14" height="12" viewBox="0 0 14 12" xmlns="http://www.w3.org/2000/svg">
    <path d="M.956.22a.75.75 0 0 1 1.06 0l5 5 .073.084a.75.75 0 0 1-.072.976l-5 5-.084.073a.75.75 0 0 1-.977-.073l-.072-.084a.75.75 0 0 1 .072-.976l4.47-4.47-4.47-4.47-.072-.084A.75.75 0 0 1 .956.22zm6 0a.75.75 0 0 1 1.06 0l5 5 .073.084a.75.75 0 0 1-.072.976l-5 5-.084.073a.75.75 0 0 1-.977-.073l-.072-.084a.75.75 0 0 1 .072-.976l4.47-4.47-4.47-4.47-.072-.084A.75.75 0 0 1 6.956.22z" fill="#587E85" fill-rule="nonzero"/>
</svg>
