<svg width="12" height="12" viewBox="0 0 12 12" fill="none" xmlns="http://www.w3.org/2000/svg">
<path fill-rule="evenodd" clip-rule="evenodd" d="M1.73233 5.18793e-05L3.32584 8.35268e-05C4.19583 -0.00839383 4.93734 0.629334 5.05994 1.49693C5.1209 1.95912 5.23395 2.41293 5.39637 2.8482L5.43646 2.96783C5.61416 3.56998 5.45228 4.22593 5.00374 4.67951L4.698 4.98539L4.8612 5.22526C5.4221 6.01432 6.12437 6.69378 6.93307 7.22868L6.95534 7.24205L7.26358 6.93407C7.71467 6.48799 8.37047 6.32627 8.97137 6.50352L9.35482 6.63529C9.70961 6.74966 10.0749 6.83189 10.4495 6.88131C11.321 7.00425 11.962 7.76079 11.9403 8.6241L11.9403 10.2214C11.9423 10.7095 11.7384 11.1757 11.3788 11.5057C11.0192 11.8356 10.5371 11.9987 10.039 11.9535C8.29417 11.7639 6.61815 11.1677 5.15079 10.2161C3.77956 9.34478 2.617 8.18221 1.74882 6.8159C0.790538 5.33666 0.194183 3.65249 0.00704062 1.88944C-0.0367493 1.40486 0.125143 0.92419 0.453171 0.564843C0.781168 0.205529 1.24507 0.000595663 1.73233 5.18793e-05ZM3.33883 1.33335L1.73308 1.33338C1.62073 1.33351 1.51362 1.38083 1.43792 1.46376C1.36222 1.54669 1.32486 1.65761 1.33394 1.75904C1.49795 3.30344 2.02344 4.7875 2.87101 6.09589C3.63737 7.30191 4.65986 8.32441 5.87107 9.09409C7.16865 9.93557 8.64552 10.4609 10.171 10.6268C10.2832 10.6369 10.3944 10.5993 10.4774 10.5232C10.5604 10.447 10.6075 10.3394 10.607 10.2241L10.6072 8.60757C10.6122 8.40453 10.4643 8.22994 10.2692 8.20238C9.70728 8.12827 9.15558 7.99084 8.62309 7.79214C8.47692 7.73719 8.31213 7.77234 8.20374 7.87951L7.52641 8.55684C7.3142 8.76905 6.98635 8.81331 6.72547 8.66497C5.28593 7.84642 4.09402 6.65451 3.27547 5.21497C3.12713 4.95408 3.17139 4.62624 3.3836 4.41403L4.0583 3.73934C4.1681 3.62831 4.20325 3.46352 4.14774 3.31584C3.9496 2.78486 3.81217 2.23316 3.7389 1.67741C3.7108 1.47859 3.53965 1.3314 3.33883 1.33335Z" fill="#587E85"/>
</svg>
