<?xml version="1.0" encoding="UTF-8"?>
<svg width="80px" height="80px" viewBox="0 0 80 80" version="1.1" xmlns="http://www.w3.org/2000/svg" xmlns:xlink="http://www.w3.org/1999/xlink">
    <!-- Generator: Sketch 63.1 (92452) - https://sketch.com -->
    <title>icon_company_logo</title>
    <desc>Created with Sketch.</desc>
    <defs>
        <rect id="path-1" x="0" y="0" width="80" height="80" rx="40"></rect>
    </defs>
    <g id="PHASE-II" stroke="none" stroke-width="1" fill="none" fill-rule="evenodd">
        <g id="Group-2" transform="translate(-667.000000, -450.000000)">
            <g id="Group-4" transform="translate(593.000000, 450.000000)">
                <g id="Group-3" transform="translate(74.000000, 0.000000)">
                    <g id="icon_company_logo">
                        <g id="default_image">
                            <mask id="mask-2" fill="white">
                                <use xlink:href="#path-1"></use>
                            </mask>
                            <use id="Mask" fill="#CAD3C0" fill-rule="nonzero" xlink:href="#path-1"></use>
                        </g>
                        <path d="M44.8,24 C45.3349651,24 45.8345352,24.2673618 46.1312805,24.7124797 L46.1312805,24.7124797 L48.8576,28.8 L54.4,28.8 C56.9907176,28.8 59.1020574,30.8524599 59.1966892,33.4200494 L59.1966892,33.4200494 L59.2,33.6 L59.2,51.2 C59.2,53.8509668 57.0509668,56 54.4,56 L54.4,56 L25.6,56 C22.9490332,56 20.8,53.8509668 20.8,51.2 L20.8,51.2 L20.8,33.6 C20.8,30.9490332 22.9490332,28.8 25.6,28.8 L25.6,28.8 L31.1432,28.8 L33.8687195,24.7124797 C34.140736,24.304455 34.5831817,24.0457947 35.067093,24.0055182 L35.067093,24.0055182 L35.2,24 Z M43.944,27.2 L36.0568,27.2 L33.3312805,31.2875203 C33.059264,31.695545 32.6168183,31.9542053 32.132907,31.9944818 L32.132907,31.9944818 L32,32 L25.6,32 C24.7163444,32 24,32.7163444 24,33.6 L24,33.6 L24,51.2 C24,52.0836556 24.7163444,52.8 25.6,52.8 L25.6,52.8 L54.4,52.8 C55.2836556,52.8 56,52.0836556 56,51.2 L56,51.2 L56,33.6 C56,32.7163444 55.2836556,32 54.4,32 L54.4,32 L48,32 C47.4650349,32 46.9654648,31.7326382 46.6687195,31.2875203 L46.6687195,31.2875203 L43.944,27.2 Z M40,33.6 C44.418278,33.6 48,37.181722 48,41.6 C48,46.018278 44.418278,49.6 40,49.6 C35.581722,49.6 32,46.018278 32,41.6 C32,37.181722 35.581722,33.6 40,33.6 Z M40,36.8 C37.3490332,36.8 35.2,38.9490332 35.2,41.6 C35.2,44.2509668 37.3490332,46.4 40,46.4 C42.6509668,46.4 44.8,44.2509668 44.8,41.6 C44.8,38.9490332 42.6509668,36.8 40,36.8 Z" id="Combined-Shape" fill="#E0EAD5" fill-rule="nonzero"></path>
                    </g>
                </g>
            </g>
        </g>
    </g>
</svg>