<svg width="42" height="42" viewBox="0 0 42 42" fill="none" xmlns="http://www.w3.org/2000/svg">
<circle cx="11.8125" cy="31.5" r="5.25" fill="#EE4F4F"/>
<path fill-rule="evenodd" clip-rule="evenodd" d="M5.32031 13.0329V25.228C5.32031 25.5698 5.50262 25.8855 5.79855 26.0564C6.09449 26.2272 6.45909 26.2272 6.75503 26.0564C7.05096 25.8855 7.23327 25.5698 7.23327 25.228V13.5853L20.0725 20.9975V35.8229L18.6378 34.9941C18.1802 34.73 17.5952 34.8869 17.331 35.3445C17.0669 35.8021 17.2238 36.3871 17.6814 36.6512L19.5943 37.7579C20.0158 37.9995 20.4917 38.1299 20.9774 38.1371C20.9946 38.1371 21.0109 38.1424 21.0285 38.1424C21.0462 38.1424 21.0625 38.1381 21.0797 38.1371C21.5657 38.13 22.042 37.9995 22.4637 37.7579L35.303 30.3452C36.1902 29.8311 36.7367 28.8837 36.7377 27.8583V13.0329C36.7366 12.0076 36.1901 11.0603 35.303 10.5461L22.4637 3.1334C21.5756 2.6222 20.4825 2.6222 19.5943 3.1334L6.75503 10.5461C5.86795 11.0603 5.32143 12.0076 5.32031 13.0329ZM13.6216 8.7924L26.4604 16.2051L21.029 19.3409L8.18927 11.9282L13.6216 8.7924ZM34.3465 28.6871L21.9855 35.8234V20.998L28.8439 17.0392V17.0392L34.8219 13.5877V27.8583C34.8223 28.1993 34.6412 28.5147 34.3465 28.6862V28.6871ZM20.5508 4.79193C20.8467 4.62107 21.2113 4.62107 21.5073 4.79193L33.8688 11.9287L28.3738 15.1013L15.5345 7.68862L20.5508 4.79193Z" fill="#8CAEB4"/>
<path fill-rule="evenodd" clip-rule="evenodd" d="M31.6289 18.9337C31.1847 18.6783 30.6383 18.6783 30.1942 18.9337L25.7408 21.5038C25.2973 21.7609 25.024 22.2345 25.0234 22.7472V25.499C25.0231 26.0117 25.2964 26.4857 25.7404 26.7422C26.1844 26.9987 26.7315 26.9988 27.1755 26.7424L31.6284 24.1714C32.0719 23.9143 32.3452 23.4407 32.3458 22.928V20.1762C32.3451 19.664 32.072 19.1907 31.6289 18.9337V18.9337ZM30.4333 22.6506L26.9369 24.6693V23.0222L30.4333 21.0045V22.6506Z" fill="#8CAEB4"/>
<path fill-rule="evenodd" clip-rule="evenodd" d="M17.6842 31.4437C17.6842 34.8773 14.9007 37.6608 11.4671 37.6608C8.03513 37.6568 5.25395 34.8756 5.25 31.4437C5.25 28.0101 8.03349 25.2266 11.4671 25.2266C14.9007 25.2266 17.6842 28.0101 17.6842 31.4437ZM15.7713 31.4437C15.7713 29.0666 13.8442 27.1395 11.4671 27.1395C9.09108 27.1422 7.16559 29.0676 7.16296 31.4437C7.16296 33.8208 9.08999 35.7478 11.4671 35.7478C13.8442 35.7478 15.7713 33.8208 15.7713 31.4437Z" fill="#EE4F4F"/>
<path fill-rule="evenodd" clip-rule="evenodd" d="M9.09671 33.8147C9.2761 33.9942 9.51944 34.095 9.77318 34.095C10.0269 34.095 10.2703 33.9942 10.4497 33.8147L11.464 32.8004L12.4788 33.8147C12.719 34.0633 13.0746 34.1631 13.409 34.0755C13.7434 33.988 14.0046 33.7268 14.0921 33.3924C14.1796 33.058 14.0799 32.7024 13.8313 32.4622L12.8165 31.4479L13.8308 30.4335C14.0794 30.1934 14.1792 29.8378 14.0916 29.5034C14.0041 29.169 13.7429 28.9078 13.4085 28.8203C13.0741 28.7327 12.7185 28.8324 12.4783 29.0811L11.464 30.0954L10.4492 29.0811C10.209 28.8324 9.8534 28.7327 9.51899 28.8203C9.18458 28.9078 8.92342 29.169 8.83588 29.5034C8.74835 29.8378 8.84807 30.1934 9.09671 30.4335L10.1115 31.4479L9.09671 32.4622C8.72332 32.8357 8.72332 33.4412 9.09671 33.8147Z" fill="white"/>
</svg>
