<svg width="15" height="16" viewBox="0 0 15 16" xmlns="http://www.w3.org/2000/svg">
    <g transform="translate(0 .5)" fill="none" fill-rule="evenodd">
        <rect stroke="#587E85" x=".5" y=".5" width="14" height="14" rx="7"/>
        <path d="M7.5 4.25c.345 0 .625.28.625.625v2h2l.102.008a.626.626 0 0 1 .516.525l.007.092-.007.092a.626.626 0 0 1-.618.533h-2v2l-.007.092a.626.626 0 0 1-1.243-.092v-2h-2l-.092-.007a.626.626 0 0 1 .092-1.243h2v-2l.007-.092A.626.626 0 0 1 7.5 4.25z" fill="#587E85"/>
    </g>
</svg>
