<svg width="16" height="16" viewBox="0 0 16 16" fill="none" xmlns="http://www.w3.org/2000/svg">
<path fill-rule="evenodd" clip-rule="evenodd" d="M8 16C3.5816 16 0 12.4184 0 8C0 3.5816 3.5816 0 8 0C12.4184 0 16 3.5816 16 8C16 12.4184 12.4184 16 8 16ZM8 1.6C4.4712 1.6 1.6 4.4712 1.6 8C1.6 11.5288 4.4712 14.4 8 14.4C11.5288 14.4 14.4 11.5288 14.4 8C14.4 4.4712 11.5288 1.6 8 1.6ZM8.31076 9.6H12C12.4416 9.6 12.8 9.2416 12.8 8.8C12.8 8.3584 12.4416 8 12 8H9.42662C8.98662 8 8.8 7.79798 8.8 7.35798V4C8.8 3.5584 8.4416 3.2 8 3.2C7.5584 3.2 7.2 3.5584 7.2 4V8.29122C7.2 9.17522 7.42676 9.6 8.31076 9.6Z" fill="#8CAEB4"/>
</svg>
