<?xml version="1.0" encoding="UTF-8"?>
<svg width="84px" height="84px" viewBox="0 0 84 84" version="1.1" xmlns="http://www.w3.org/2000/svg" xmlns:xlink="http://www.w3.org/1999/xlink">
    <!-- Generator: Sketch 63.1 (92452) - https://sketch.com -->
    <title>Icon/Menu/Contracts</title>
    <desc>Created with Sketch.</desc>
    <g id="Icon/Menu/Contracts" stroke="none" stroke-width="1" fill="none" fill-rule="evenodd">
        <g id="Icon/Menu/Preferences">
            <rect id="bound" x="0" y="0" width="84" height="84"></rect>
            <path d="M55.8486896,70.1672096 C54.6112656,69.4957775 53.8314361,68.6778169 53.5092011,67.7133279 C53.1869661,66.7488389 53.103977,64.9842769 53.2602338,62.4196419 L17.990996,62.4196419 L17.990996,67.4221707 C18.5412385,69.2521966 19.4079052,70.1672096 20.5909962,70.1672096 C21.7740872,70.1672096 33.5266516,70.1672096 55.8486896,70.1672096 Z" id="Path-2" fill="#E3EDC3"></path>
            <path d="M39.7546105,49.3115369 L66.3280269,23.0209351 C66.7209646,22.6332688 67.3536997,22.6364089 67.7427703,23.0279562 L69.8366938,25.1411302 C70.2255594,25.5333061 70.2226623,26.1664645 69.8303552,26.5551978 C69.830311,26.5552415 69.8302669,26.5552852 69.8300916,26.5551965 L42.9914132,53.1394674 L42.9914132,53.1394674 L37.880184,55.0451344 L39.7546105,49.3115369 Z" id="Path-3" fill="#E3EDC3"></path>
            <g id="policies" transform="translate(17.000000, 13.000000)" fill="#274642" fill-rule="nonzero">
                <path d="M14.1035156,9.0625 L35.7402344,9.0625 C36.2094607,9.0625 36.5898438,8.68211693 36.5898438,8.21289062 C36.5898438,7.74366432 36.2094607,7.36328125 35.7402344,7.36328125 L14.1035156,7.36328125 C13.6342893,7.36328125 13.2539063,7.74366432 13.2539063,8.21289062 C13.2539063,8.68211693 13.6342893,9.0625 14.1035156,9.0625 Z M14.1035156,19.2578125 L35.7402344,19.2578125 C36.2094607,19.2578125 36.5898438,18.8774294 36.5898438,18.4082031 C36.5898438,17.9389768 36.2094607,17.5585938 35.7402344,17.5585938 L14.1035156,17.5585938 C13.6342893,17.5585938 13.2539063,17.9389768 13.2539063,18.4082031 C13.2539063,18.8774294 13.6342893,19.2578125 14.1035156,19.2578125 Z M14.1035156,14.1601562 L35.7402344,14.1601562 C36.2094607,14.1601562 36.5898438,13.7797732 36.5898438,13.3105469 C36.5898438,12.8413206 36.2094607,12.4609375 35.7402344,12.4609375 L14.1035156,12.4609375 C13.6342893,12.4609375 13.2539063,12.8413206 13.2539063,13.3105469 C13.2539063,13.7797732 13.6342893,14.1601562 14.1035156,14.1601562 L14.1035156,14.1601562 Z M53.1753697,10.9444731 L51.9738578,9.74296234 C50.9784406,8.74762062 49.3646305,8.74762062 48.3692133,9.74296234 L44.40625,13.7059245 L44.40625,4.24804688 C44.4036111,1.90300929 42.5032407,0.00263886707 40.1582031,0 L9.68554688,0 C7.34050929,0.00263886707 5.44013887,1.90300929 5.4375,4.24804687 L5.4375,48.3710938 L0.849056563,48.3710938 C0.623720896,48.3710766 0.407609476,48.4605833 0.248273097,48.6199197 C0.0889367192,48.779256 -0.0005528125,48.9953675 -0.0005528125,49.2207031 L-0.0005528125,53.7519531 C0.00208543163,56.096991 1.90245622,57.9973618 4.24749406,58 L40.2709316,58 C40.3017474,58 40.3325366,57.9981831 40.3631663,57.9948004 C42.625729,57.8829341 44.4035455,56.017278 44.40625,53.7519531 L44.40625,23.3183483 L53.1753697,14.5492286 C54.1691246,13.5531114 54.1691246,11.9405904 53.1753697,10.9444731 Z M4.24749406,56.3007812 C2.84048438,56.2991669 1.70028028,55.1589628 1.69866594,53.7519531 L1.69866594,50.0703125 L35.5697597,50.0703125 L35.5697597,53.5820312 C35.5690672,54.5680047 35.8999459,55.5255701 36.5092011,56.3007812 L4.24749406,56.3007812 Z M42.7070313,49.2097511 C42.7070313,49.2134577 42.7064784,49.2170011 42.7064784,49.2207031 L42.7064784,53.5820312 C42.7064784,55.0835554 41.4892526,56.3007811 39.9877284,56.3007811 C38.4862043,56.3007811 37.2689785,55.0835554 37.2689784,53.5820312 L37.2689784,49.2207031 C37.2689956,48.9953675 37.1794889,48.779256 37.0201525,48.6199197 C36.8608161,48.4605833 36.6447047,48.3710766 36.4193691,48.3710938 C36.4002302,48.3710938 36.3815331,48.3726978 36.3627284,48.37397 C36.3439238,48.3726978 36.3252255,48.3710938 36.3060878,48.3710938 L7.13671875,48.3710938 L7.13671875,4.24804688 C7.13833309,2.8410372 8.2785372,1.70083309 9.68554688,1.69921875 L40.1582031,1.69921875 C41.5652128,1.70083309 42.7054169,2.8410372 42.7070313,4.24804687 L42.7070313,15.4051432 L26.9598307,31.1523438 L14.1035156,31.1523438 C13.6342893,31.1523438 13.2539063,31.5327268 13.2539063,32.0019531 C13.2539063,32.4711794 13.6342893,32.8515625 14.1035156,32.8515625 L25.260612,32.8515625 L21.9355207,36.1766549 C21.9134314,36.198888 21.8925837,36.222321 21.8730721,36.2468474 L21.8707488,36.25 L14.1035156,36.25 C13.6342893,36.25 13.2539063,36.6303831 13.2539063,37.0996094 C13.2539063,37.5688357 13.6342893,37.9492188 14.1035156,37.9492188 L21.2501352,37.9492188 L20.1173227,41.3476562 L14.1035156,41.3476562 C13.6342893,41.3476562 13.2539063,41.7280393 13.2539063,42.1972656 C13.2539063,42.6664919 13.6342893,43.046875 14.1035156,43.046875 L20.4472656,43.046875 C20.5086579,43.0467616 20.569858,43.0400112 20.6297991,43.0267415 C20.7552513,43.0434483 20.8828665,43.0309934 21.002721,42.9903454 L26.4096883,41.1880226 C26.4151915,41.1861976 26.4203367,41.1835423 26.4258116,41.1816063 C26.4465545,41.1741943 26.4670199,41.1661185 26.4872644,41.157047 C26.4959486,41.153175 26.50455,41.1492487 26.5130925,41.1450391 C26.5328397,41.1354691 26.552144,41.124849 26.5712545,41.1136206 C26.5792477,41.1089194 26.5872952,41.1044946 26.5951501,41.0995159 C26.6144815,41.0872362 26.633233,41.0738509 26.6517352,41.0598562 C26.6583452,41.0548786 26.665287,41.0503405 26.6717588,41.0451432 C26.6962237,41.0256608 26.7196008,41.0048503 26.7417847,40.9828057 L29.7753796,37.9492188 L35.7402344,37.9492188 C36.2094607,37.9492188 36.5898438,37.5688357 36.5898438,37.0996094 C36.5898438,36.6303831 36.2094607,36.25 35.7402344,36.25 L31.4745983,36.25 L42.7070313,25.0175671 L42.7070313,49.2097511 Z M22.9076211,38.3503477 L24.5680376,40.0107359 L22.0773443,40.8409855 L22.9076211,38.3503477 Z M26.1409772,39.1803752 L23.7379545,36.7774636 L44.1555982,16.3597927 L44.1590839,16.3563636 L46.3796003,14.1358189 L48.7825131,16.5388416 L26.1409772,39.1803752 Z M51.9737468,13.3476057 L49.9841349,15.3372175 L47.5812221,12.9341948 L49.5708351,10.944583 C49.7301222,10.7852135 49.9462113,10.6956737 50.1715355,10.6956737 C50.3968598,10.6956737 50.6129489,10.7852135 50.772236,10.944583 L51.9737468,12.1460938 C52.3050738,12.4780735 52.3050738,13.0156271 51.9737468,13.3476068 L51.9737468,13.3476057 Z" id="Shape"></path>
            </g>
        </g>
    </g>
</svg>