<svg xmlns="http://www.w3.org/2000/svg" width="27" height="27" viewBox="0 0 27 27">
    <g fill="none" fill-rule="evenodd">
        <circle cx="13.5" cy="13.5" r="13.5" fill="#F3F3F3" fill-rule="nonzero"/>
        <path fill="#587E85" stroke="#F3F3F3" stroke-width=".5" d="M18.723 9.277c-.37-.37-.968-.37-1.338 0L14 12.662l-3.385-3.385c-.37-.37-.968-.37-1.337 0-.37.37-.37.969 0 1.338L12.662 14l-3.385 3.385c-.37.37-.37.968 0 1.338.185.184.427.277.669.277.242 0 .484-.093.669-.277L14 15.337l3.385 3.386c.185.185.427.277.669.277.242 0 .484-.092.669-.277.37-.37.37-.969 0-1.338L15.338 14l3.385-3.385c.37-.37.37-.968 0-1.338z"/>
    </g>
</svg>
