<svg width="20" height="20" viewBox="0 0 20 20" fill="none" xmlns="http://www.w3.org/2000/svg">
<path d="M10 19.125C9.76389 19.125 9.56611 19.0453 9.40667 18.8858C9.24667 18.7258 9.16667 18.5278 9.16667 18.2917V17.4583C7.43056 17.2639 5.94111 16.5453 4.69833 15.3025C3.455 14.0592 2.73611 12.5694 2.54167 10.8333H1.70833C1.47222 10.8333 1.27417 10.7533 1.11417 10.5933C0.954722 10.4339 0.875 10.2361 0.875 10C0.875 9.76389 0.954722 9.56583 1.11417 9.40583C1.27417 9.24639 1.47222 9.16667 1.70833 9.16667H2.54167C2.73611 7.43056 3.455 5.94083 4.69833 4.6975C5.94111 3.45472 7.43056 2.73611 9.16667 2.54167V1.70833C9.16667 1.47222 9.24667 1.27417 9.40667 1.11417C9.56611 0.954722 9.76389 0.875 10 0.875C10.2361 0.875 10.4342 0.954722 10.5942 1.11417C10.7536 1.27417 10.8333 1.47222 10.8333 1.70833V2.54167C12.5694 2.73611 14.0592 3.45472 15.3025 4.6975C16.5453 5.94083 17.2639 7.43056 17.4583 9.16667H18.2917C18.5278 9.16667 18.7258 9.24639 18.8858 9.40583C19.0453 9.56583 19.125 9.76389 19.125 10C19.125 10.2361 19.0453 10.4339 18.8858 10.5933C18.7258 10.7533 18.5278 10.8333 18.2917 10.8333H17.4583C17.2639 12.5694 16.5453 14.0592 15.3025 15.3025C14.0592 16.5453 12.5694 17.2639 10.8333 17.4583V18.2917C10.8333 18.5278 10.7536 18.7258 10.5942 18.8858C10.4342 19.0453 10.2361 19.125 10 19.125ZM10 15.8333C11.6111 15.8333 12.9861 15.2639 14.125 14.125C15.2639 12.9861 15.8333 11.6111 15.8333 10C15.8333 8.38889 15.2639 7.01389 14.125 5.875C12.9861 4.73611 11.6111 4.16667 10 4.16667C8.38889 4.16667 7.01389 4.73611 5.875 5.875C4.73611 7.01389 4.16667 8.38889 4.16667 10C4.16667 11.6111 4.73611 12.9861 5.875 14.125C7.01389 15.2639 8.38889 15.8333 10 15.8333ZM10 13.3333C9.08333 13.3333 8.29861 13.0069 7.64583 12.3542C6.99306 11.7014 6.66667 10.9167 6.66667 10C6.66667 9.08333 6.99306 8.29861 7.64583 7.64583C8.29861 6.99306 9.08333 6.66667 10 6.66667C10.9167 6.66667 11.7014 6.99306 12.3542 7.64583C13.0069 8.29861 13.3333 9.08333 13.3333 10C13.3333 10.9167 13.0069 11.7014 12.3542 12.3542C11.7014 13.0069 10.9167 13.3333 10 13.3333ZM10 11.6667C10.4583 11.6667 10.8508 11.5033 11.1775 11.1767C11.5036 10.8506 11.6667 10.4583 11.6667 10C11.6667 9.54167 11.5036 9.14917 11.1775 8.8225C10.8508 8.49639 10.4583 8.33333 10 8.33333C9.54167 8.33333 9.14944 8.49639 8.82333 8.8225C8.49667 9.14917 8.33333 9.54167 8.33333 10C8.33333 10.4583 8.49667 10.8506 8.82333 11.1767C9.14944 11.5033 9.54167 11.6667 10 11.6667Z" fill="#587E85"/>
</svg>
