<svg width="24" height="24" viewBox="0 0 24 24" fill="none" xmlns="http://www.w3.org/2000/svg">
<path fill-rule="evenodd" clip-rule="evenodd" d="M12 4C9.85223 4 8.11111 5.79086 8.11111 8C8.11111 10.2091 9.85223 12 12 12C14.1478 12 15.8889 10.2091 15.8889 8C15.8889 5.79086 14.1478 4 12 4ZM12 5.59961C13.2887 5.59961 14.3333 6.67413 14.3333 7.99961C14.3333 9.32509 13.2887 10.3996 12 10.3996C10.7113 10.3996 9.66665 9.32509 9.66665 7.99961C9.66665 6.67413 10.7113 5.59961 12 5.59961ZM18.9964 17.4261C18.9081 15.2975 17.2024 13.5996 15.1111 13.5996H8.88889L8.7202 13.6033C6.65068 13.6942 5 15.4486 5 17.5996V19.1996L5.00523 19.2929C5.05016 19.6908 5.37891 19.9996 5.77778 19.9996C6.20733 19.9996 6.55556 19.6414 6.55556 19.1996V17.5996L6.55952 17.4586C6.63049 16.1987 7.64625 15.1996 8.88889 15.1996H15.1111L15.2482 15.2037C16.4731 15.2767 17.4444 16.3215 17.4444 17.5996V19.1996L17.4497 19.2929C17.4946 19.6908 17.8233 19.9996 18.2222 19.9996C18.6518 19.9996 19 19.6414 19 19.1996V17.5996L18.9964 17.4261Z" fill="#77928B"/>
</svg>
