<svg width="16" height="14" viewBox="0 0 16 14" fill="none" xmlns="http://www.w3.org/2000/svg">
<path d="M1.81248 8.292C1.45182 8.292 1.14648 8.167 0.896484 7.917C0.646484 7.667 0.521484 7.36134 0.521484 7C0.521484 6.63867 0.646484 6.333 0.896484 6.083C1.14648 5.833 1.45182 5.708 1.81248 5.708C2.17382 5.708 2.47948 5.833 2.72948 6.083C2.97948 6.333 3.10448 6.63867 3.10448 7C3.10448 7.36134 2.97948 7.667 2.72948 7.917C2.47948 8.167 2.17382 8.292 1.81248 8.292ZM1.81248 3.312C1.45182 3.312 1.14648 3.18734 0.896484 2.938C0.646484 2.68734 0.521484 2.38167 0.521484 2.021C0.521484 1.65967 0.646484 1.354 0.896484 1.104C1.14648 0.854004 1.45182 0.729004 1.81248 0.729004C2.17382 0.729004 2.47948 0.854004 2.72948 1.104C2.97948 1.354 3.10448 1.65967 3.10448 2.021C3.10448 2.38167 2.97948 2.68734 2.72948 2.938C2.47948 3.18734 2.17382 3.312 1.81248 3.312ZM1.81248 13.25C1.45182 13.25 1.14648 13.125 0.896484 12.875C0.646484 12.625 0.521484 12.3193 0.521484 11.958C0.521484 11.5973 0.646484 11.292 0.896484 11.042C1.14648 10.792 1.45182 10.667 1.81248 10.667C2.17382 10.667 2.47948 10.792 2.72948 11.042C2.97948 11.292 3.10448 11.5973 3.10448 11.958C3.10448 12.3193 2.97948 12.625 2.72948 12.875C2.47948 13.125 2.17382 13.25 1.81248 13.25ZM4.64648 12.833V11.083H15.5005V12.833H4.64648ZM4.64648 7.875V6.125H15.5005V7.875H4.64648ZM4.64648 2.896V1.146H15.5005V2.896H4.64648Z" fill="#587E85"/>
</svg>
