<svg width="24" height="29" viewBox="0 0 24 29" fill="none" xmlns="http://www.w3.org/2000/svg">
<path fill-rule="evenodd" clip-rule="evenodd" d="M1.50019 24.0001H19.622V7.95239L12.6782 0.851563L1.82608 0.851562L1.01562 2.56861V22.6418L1.50019 24.0001Z" fill="#F9FCEE"/>
<path fill-rule="evenodd" clip-rule="evenodd" d="M12.75 0H3.15C1.4103 0 0 1.4103 0 3.15V22.35C0 24.0897 1.4103 25.5 3.15 25.5H17.55C19.2897 25.5 20.7 24.0897 20.7 22.35V7.95C20.7 7.91619 20.6977 7.88262 20.6932 7.84949L20.6932 7.84823C20.6705 7.68149 20.5931 7.53216 20.4796 7.41897C20.344 7.28366 20.1568 7.2 19.95 7.2L12.75 0ZM19.2 8.7H12.75C12.3703 8.7 12.0565 8.41785 12.0068 8.05177L12 7.95V1.5H3.15C2.23873 1.5 1.5 2.23873 1.5 3.15V22.35C1.5 23.2613 2.23873 24 3.15 24H17.55C18.4613 24 19.2 23.2613 19.2 22.35V8.7ZM15.1469 13.1992C15.5611 13.1992 15.8969 13.535 15.8969 13.9492C15.8969 14.3289 15.6147 14.6427 15.2486 14.6924L15.1469 14.6992H5.54688C5.13266 14.6992 4.79688 14.3634 4.79688 13.9492C4.79688 13.5695 5.07903 13.2557 5.4451 13.2061L5.54688 13.1992H15.1469ZM8.69687 9.14844C8.69687 8.73422 8.36109 8.39844 7.94688 8.39844H5.54688L5.4451 8.40528C5.07903 8.45495 4.79688 8.76874 4.79688 9.14844C4.79688 9.56265 5.13266 9.89844 5.54688 9.89844H7.94688L8.04865 9.89159C8.41472 9.84193 8.69687 9.52813 8.69687 9.14844Z" fill="#587E85"/>
<path d="M21.9562 19H6.04378C4.91503 19 4 20.0361 4 21.3141V26.6859C4 27.9639 4.91503 29 6.04378 29H21.9562C23.085 29 24 27.9639 24 26.6859V21.3141C24 20.0361 23.085 19 21.9562 19Z" fill="#587E85"/>
<path fill-rule="evenodd" clip-rule="evenodd" d="M15.2944 22.2883C15.6241 22.4755 15.8966 22.749 16.0826 23.0793C16.2775 23.4282 16.3769 23.8224 16.3708 24.222C16.3774 24.6226 16.278 25.0178 16.0826 25.3675C15.896 25.6991 15.6225 25.9736 15.2915 26.1615C14.9547 26.3538 14.5728 26.4533 14.1849 26.4496C13.797 26.4531 13.4152 26.3536 13.0783 26.1615C12.7474 25.974 12.4743 25.6994 12.2887 25.3675C12.0927 25.018 11.9932 24.6226 12.0005 24.222C11.993 23.8222 12.0925 23.4277 12.2887 23.0793C12.4753 22.7489 12.7482 22.4755 13.0783 22.2883C13.4152 22.0961 13.797 21.9967 14.1849 22.0001C14.5737 21.9964 14.9565 22.0959 15.2944 22.2883ZM13.3636 23.3113C13.151 23.5656 13.0429 23.8911 13.061 24.222C13.0428 24.5516 13.151 24.8757 13.3636 25.1283C13.4671 25.2409 13.594 25.3294 13.7354 25.3876C13.8768 25.4459 14.0293 25.4724 14.182 25.4655C14.3343 25.472 14.4862 25.4452 14.627 25.387C14.7679 25.3288 14.8944 25.2405 14.9976 25.1283C15.2112 24.8762 15.3204 24.552 15.3031 24.222C15.3204 23.8925 15.2122 23.5687 15.0005 23.3156C14.897 23.203 14.7701 23.1145 14.6287 23.0562C14.4873 22.998 14.3348 22.9714 14.182 22.9785C14.0297 22.9715 13.8776 22.9976 13.7363 23.0551C13.595 23.1125 13.4678 23.2 13.3636 23.3113ZM10.4743 26.1287C10.8052 25.9544 11.0778 25.6869 11.2582 25.3593C11.4442 25.0117 11.5379 24.6223 11.5305 24.2282C11.5383 23.8354 11.4445 23.4472 11.2582 23.1013C11.0785 22.7763 10.8068 22.5116 10.4772 22.3405C10.1028 22.1532 9.68818 22.0607 9.2697 22.0711H7.63281V26.4039H9.2697C9.68787 26.4138 10.1019 26.3192 10.4743 26.1287ZM10.3978 24.7208C10.3393 24.8781 10.2485 25.0214 10.1314 25.1417C9.86868 25.3704 9.52663 25.4869 9.17892 25.4659H8.68325V22.9904H9.17749C9.52597 22.9688 9.86886 23.0858 10.1314 23.316C10.2485 23.4359 10.3393 23.579 10.3979 23.7361C10.4565 23.8932 10.4815 24.0608 10.4714 24.2282C10.4814 24.3957 10.4564 24.5635 10.3978 24.7208ZM7.08502 26.403V25.3555H6V26.403H7.08502ZM21.0073 23.6397C20.9196 23.1768 20.671 22.7598 20.3056 22.4625C19.9162 22.156 19.432 21.9954 18.9367 22.0086C18.5485 22.0004 18.1652 22.097 17.8272 22.2881C17.5109 22.472 17.2542 22.7431 17.088 23.0691C16.9095 23.4267 16.8205 23.8223 16.8287 24.2218C16.8204 24.6214 16.9094 25.017 17.088 25.3746C17.2542 25.7005 17.5109 25.9717 17.8272 26.1555C18.1652 26.3467 18.5485 26.4433 18.9367 26.4351C19.4294 26.455 19.9136 26.3021 20.3056 26.0028C20.6698 25.7056 20.9181 25.29 21.0073 24.8285H19.8978C19.8219 25.0178 19.6909 25.1799 19.5217 25.2939C19.3427 25.4112 19.132 25.471 18.918 25.4653C18.7771 25.4699 18.6371 25.4424 18.5085 25.3847C18.3799 25.327 18.2661 25.2408 18.1759 25.1325C17.9753 24.8775 17.8731 24.5589 17.8877 24.2348C17.873 23.9094 17.9753 23.5894 18.1759 23.3328C18.2654 23.2234 18.3789 23.1361 18.5076 23.0776C18.6363 23.0191 18.7767 22.9911 18.918 22.9956C19.1319 22.9905 19.3424 23.0503 19.5217 23.1671C19.6919 23.2831 19.8229 23.4478 19.8978 23.6397H21.0073Z" fill="white"/>
</svg>
