<svg width="24" height="29" viewBox="0 0 24 29" fill="none" xmlns="http://www.w3.org/2000/svg">
<path fill-rule="evenodd" clip-rule="evenodd" d="M1.50019 24.0001H19.622V7.95239L12.6782 0.851563L1.82608 0.851562L1.01562 2.56861V22.6418L1.50019 24.0001Z" fill="#F9FCEE"/>
<path fill-rule="evenodd" clip-rule="evenodd" d="M12.75 0H3.15C1.4103 0 0 1.4103 0 3.15V22.35C0 24.0897 1.4103 25.5 3.15 25.5H17.55C19.2897 25.5 20.7 24.0897 20.7 22.35V7.95C20.7 7.91619 20.6977 7.88262 20.6932 7.84949L20.6932 7.84823C20.6705 7.68149 20.5931 7.53216 20.4796 7.41897C20.344 7.28366 20.1568 7.2 19.95 7.2L12.75 0ZM19.2 8.7H12.75C12.3703 8.7 12.0565 8.41785 12.0068 8.05177L12 7.95V1.5H3.15C2.23873 1.5 1.5 2.23873 1.5 3.15V22.35C1.5 23.2613 2.23873 24 3.15 24H17.55C18.4613 24 19.2 23.2613 19.2 22.35V8.7ZM15.1469 13.1992C15.5611 13.1992 15.8969 13.535 15.8969 13.9492C15.8969 14.3289 15.6147 14.6427 15.2486 14.6924L15.1469 14.6992H5.54688C5.13266 14.6992 4.79688 14.3634 4.79688 13.9492C4.79688 13.5695 5.07903 13.2557 5.4451 13.2061L5.54688 13.1992H15.1469ZM8.69687 9.14844C8.69687 8.73422 8.36109 8.39844 7.94688 8.39844H5.54688L5.4451 8.40528C5.07903 8.45495 4.79688 8.76874 4.79688 9.14844C4.79688 9.56265 5.13266 9.89844 5.54688 9.89844H7.94688L8.04865 9.89159C8.41472 9.84193 8.69687 9.52813 8.69687 9.14844Z" fill="#587E85"/>
<path d="M21.9562 19H6.04378C4.91503 19 4 20.0361 4 21.3141V26.6859C4 27.9639 4.91503 29 6.04378 29H21.9562C23.085 29 24 27.9639 24 26.6859V21.3141C24 20.0361 23.085 19 21.9562 19Z" fill="#587E85"/>
<path fill-rule="evenodd" clip-rule="evenodd" d="M10.6726 26.3328V24.8127L11.3226 24.8141C11.621 24.8233 11.9173 24.7616 12.1872 24.634C12.411 24.5247 12.5975 24.3518 12.7233 24.1369C12.8464 23.9171 12.9086 23.6683 12.9034 23.4164C12.9129 23.2255 12.8818 23.0347 12.8123 22.8566C12.7427 22.6786 12.6363 22.5173 12.4999 22.3833C12.2304 22.1282 11.837 22 11.3226 22H9.625V26.3328H10.6726ZM11.2058 22.84C11.6266 22.84 11.837 23.0322 11.837 23.4164C11.837 23.7882 11.6266 23.9721 11.2058 23.9683H10.6726V22.84H11.2058ZM9.08367 26.3288V25.2812H8V26.3288H9.08367ZM17.0539 25.289C16.8735 25.6166 16.601 25.8841 16.27 26.0584C15.8976 26.2491 15.4835 26.3436 15.0653 26.3336H13.4297V22.0008H15.0653C15.4838 21.9903 15.8985 22.0828 16.2729 22.2702C16.6029 22.4408 16.8748 22.7056 17.0539 23.0311C17.2414 23.3765 17.3358 23.7649 17.3277 24.1579C17.3355 24.5522 17.2412 24.9418 17.0539 25.289ZM15.927 25.0714C16.0442 24.9512 16.1349 24.8078 16.1935 24.6505C16.2521 24.4932 16.2771 24.3254 16.2671 24.1579C16.2772 23.9905 16.2521 23.8229 16.1936 23.6658C16.135 23.5087 16.0442 23.3657 15.927 23.2457C15.6649 23.0158 15.3225 22.8987 14.9745 22.9201H14.4773V25.3956H14.9745C15.3223 25.4167 15.6644 25.3003 15.927 25.0714ZM20.7401 22.8343V22H17.9141V26.3328H18.9632V24.5807H20.3351V23.7838H18.9632V22.8343H20.7401Z" fill="white"/>
</svg>
