<svg width="24" height="29" viewBox="0 0 24 29" fill="none" xmlns="http://www.w3.org/2000/svg">
<path fill-rule="evenodd" clip-rule="evenodd" d="M1.50019 24.0001H19.622V7.95239L12.6782 0.851563L1.82608 0.851562L1.01562 2.56861V22.6418L1.50019 24.0001Z" fill="#F9FCEE"/>
<path fill-rule="evenodd" clip-rule="evenodd" d="M12.75 0H3.15C1.4103 0 0 1.4103 0 3.15V22.35C0 24.0897 1.4103 25.5 3.15 25.5H17.55C19.2897 25.5 20.7 24.0897 20.7 22.35V7.95C20.7 7.91619 20.6977 7.88262 20.6932 7.84949L20.6932 7.84823C20.6705 7.68149 20.5931 7.53216 20.4796 7.41897C20.344 7.28366 20.1568 7.2 19.95 7.2L12.75 0ZM19.2 8.7H12.75C12.3703 8.7 12.0565 8.41785 12.0068 8.05177L12 7.95V1.5H3.15C2.23873 1.5 1.5 2.23873 1.5 3.15V22.35C1.5 23.2613 2.23873 24 3.15 24H17.55C18.4613 24 19.2 23.2613 19.2 22.35V8.7ZM15.1469 13.1992C15.5611 13.1992 15.8969 13.535 15.8969 13.9492C15.8969 14.3289 15.6147 14.6427 15.2486 14.6924L15.1469 14.6992H5.54688C5.13266 14.6992 4.79688 14.3634 4.79688 13.9492C4.79688 13.5695 5.07903 13.2557 5.4451 13.2061L5.54688 13.1992H15.1469ZM8.69687 9.14844C8.69687 8.73422 8.36109 8.39844 7.94688 8.39844H5.54688L5.4451 8.40528C5.07903 8.45495 4.79688 8.76874 4.79688 9.14844C4.79688 9.56265 5.13266 9.89844 5.54688 9.89844H7.94688L8.04865 9.89159C8.41472 9.84193 8.69687 9.52813 8.69687 9.14844Z" fill="#587E85"/>
<path d="M21.9562 19H6.04378C4.91503 19 4 20.0361 4 21.3141V26.6859C4 27.9639 4.91503 29 6.04378 29H21.9562C23.085 29 24 27.9639 24 26.6859V21.3141C24 20.0361 23.085 19 21.9562 19Z" fill="#587E85"/>
<path fill-rule="evenodd" clip-rule="evenodd" d="M19.8735 25.801C19.7492 26 19.5708 26.1594 19.3591 26.2606C19.1015 26.3813 18.8193 26.44 18.535 26.4321C18.106 26.4501 17.6833 26.3248 17.3333 26.0762C17.1785 25.96 17.0518 25.8104 16.9628 25.6385C16.8737 25.4666 16.8245 25.2769 16.8189 25.0834H17.9341C17.9421 25.2294 18.0043 25.3671 18.1085 25.4696C18.2122 25.5663 18.35 25.6181 18.4917 25.6137C18.5495 25.617 18.6074 25.609 18.662 25.5899C18.7167 25.5709 18.767 25.5413 18.8102 25.5027C18.8486 25.4654 18.8788 25.4205 18.8989 25.3709C18.919 25.3213 18.9285 25.268 18.9269 25.2145C18.9283 25.1637 18.9195 25.1132 18.9009 25.0659C18.8823 25.0186 18.8544 24.9756 18.8188 24.9393C18.7425 24.8621 18.652 24.8005 18.5523 24.7578C18.4476 24.7116 18.3006 24.6554 18.1114 24.5891C17.8817 24.5134 17.6574 24.4225 17.4399 24.3168C17.2612 24.2247 17.1078 24.0902 16.9932 23.9249C16.8603 23.7249 16.7947 23.4876 16.8059 23.2477C16.8007 23.0099 16.8692 22.7764 17.0019 22.5791C17.1382 22.3863 17.3266 22.2363 17.5451 22.1468C17.7969 22.0444 18.0673 21.9953 18.339 22.0027C18.7516 21.9799 19.1592 22.1017 19.4917 22.3471C19.6332 22.4622 19.7491 22.6056 19.832 22.7682C19.9149 22.9307 19.9629 23.1087 19.9729 23.2909H18.839C18.8264 23.1634 18.7716 23.0437 18.6834 22.9508C18.6383 22.9077 18.5849 22.8741 18.5264 22.8523C18.468 22.8305 18.4057 22.8209 18.3433 22.824C18.2353 22.8191 18.1292 22.854 18.0451 22.922C18.0063 22.9588 17.9761 23.0037 17.9566 23.0535C17.9372 23.1033 17.929 23.1569 17.9327 23.2102C17.9305 23.3071 17.9667 23.4008 18.0335 23.471C18.1052 23.5459 18.1915 23.6052 18.2871 23.6454C18.3894 23.69 18.5364 23.7477 18.728 23.8168C18.9618 23.893 19.1896 23.9864 19.4096 24.0964C19.5892 24.1933 19.744 24.3304 19.862 24.4969C19.9964 24.7002 20.063 24.9408 20.0522 25.1843C20.0502 25.4023 19.9884 25.6157 19.8735 25.801ZM11.3412 25.0388L12.2533 26.3875H13.4982L12.04 24.2362L13.406 22.0547H12.2115L11.445 23.3601L10.556 22.0547H9.3125L10.7404 24.157L9.35573 26.3875H10.556L11.3412 25.0388ZM9.08497 26.3913V25.3438H8V26.3913H9.08497ZM16.512 25.5849H15.1086L15.1114 22.0547H14.0625V26.3875H16.512V25.5849Z" fill="white"/>
</svg>
