<svg width="80" height="80" viewBox="0 0 80 80" fill="none" xmlns="http://www.w3.org/2000/svg">
<rect x="18" y="46" width="16" height="26" fill="#E3EDC3"/>
<rect width="14" height="14" transform="matrix(1 0 0 -1 48.0605 60)" fill="#E3EDC3"/>
<path d="M62.2941 44.6484H48.1765C47.5268 44.6484 47 45.1752 47 45.8249V59.9138C47 60.5635 47.5268 61.0903 48.1765 61.0903H62.2941C62.9438 61.0903 63.4706 60.5635 63.4706 59.9138V45.8249C63.4706 45.1752 62.9438 44.6484 62.2941 44.6484ZM61.1176 58.7373H49.3529V47.0014H61.1176V58.7373Z" fill="#274642"/>
<path d="M2.35274 71.3078C1.70304 71.3078 1.17627 71.8345 1.17627 72.4843C1.17627 73.134 1.70304 73.6607 2.35274 73.6607C27.3685 73.6607 52.5239 73.6607 77.6469 73.6607C78.2966 73.6607 78.8233 73.134 78.8233 72.4843C78.8233 71.8345 78.2966 71.3078 77.6469 71.3078H74.8912V23.1104H77.6469C78.2966 23.1104 78.8233 22.5836 78.8233 21.9339C78.8233 21.2842 78.2966 20.7575 77.6469 20.7575C77.535 20.7575 67.0772 20.7575 66.5887 20.7575V8.68888H69.38C70.0297 8.68888 70.5564 8.16211 70.5564 7.51241C70.5564 6.86271 70.0297 6.33594 69.38 6.33594C52.0801 6.33594 40.0179 6.33594 10.6196 6.33594C9.96993 6.33594 9.44316 6.86271 9.44316 7.51241C9.44316 8.16211 9.96993 8.68888 10.6196 8.68888H13.4103V20.7575C13.1047 20.7575 2.83951 20.7575 2.35274 20.7575C1.70304 20.7575 1.17627 21.2842 1.17627 21.9339C1.17627 22.5836 1.70304 23.1104 2.35274 23.1104H5.10837V71.3078H2.35274ZM24.821 71.3038H18.9387V46.9512H24.821V71.3038ZM33.0563 71.3038H27.174V46.9512H33.0563V71.3038ZM15.7632 8.68888H64.2358V20.7575H15.7632V8.68888ZM7.46131 23.1104C20.1553 23.1104 59.8226 23.1104 72.5383 23.1104V71.3078H35.4093V45.7747C35.4093 45.125 34.8825 44.5982 34.2328 44.5982H17.7622C17.1125 44.5982 16.5857 45.125 16.5857 45.7747V71.3078H7.46131V23.1104Z" fill="#274642"/>
<path d="M11.2098 33.8954V36.1434H10V30.0858H12.2051C12.9201 30.0858 13.4578 30.2574 13.8182 30.6006C14.1842 30.9438 14.3673 31.41 14.3673 31.9992C14.3673 32.5769 14.1785 33.0374 13.801 33.3806C13.4292 33.7238 12.8972 33.8954 12.2051 33.8954H11.2098ZM12.0764 32.9258C12.7857 32.9258 13.1403 32.6169 13.1403 31.9992C13.1403 31.696 13.0574 31.4643 12.8915 31.3042C12.7256 31.144 12.4539 31.0639 12.0764 31.0639H11.2098V32.9258H12.0764Z" fill="#587E85"/>
<path d="M18.3106 36.1434L16.8949 33.7838H16.3629V36.1434H15.1531V30.0858H17.4612C18.1647 30.0858 18.6996 30.2574 19.0656 30.6006C19.4375 30.9438 19.6234 31.3957 19.6234 31.9563C19.6234 32.4139 19.4947 32.7971 19.2373 33.106C18.9856 33.4149 18.6195 33.6208 18.139 33.7238L19.6491 36.1434H18.3106ZM16.3629 32.9516H17.3582C18.0503 32.9516 18.3964 32.6455 18.3964 32.0335C18.3964 31.7418 18.3106 31.5158 18.139 31.3557C17.9731 31.1898 17.7128 31.1068 17.3582 31.1068H16.3629V32.9516Z" fill="#587E85"/>
<path d="M23.2803 30C23.8466 30 24.3585 30.1316 24.8161 30.3947C25.2795 30.6578 25.6427 31.0268 25.9058 31.5015C26.1747 31.9706 26.3091 32.5025 26.3091 33.0974C26.3091 33.6923 26.1747 34.2271 25.9058 34.7019C25.6427 35.1767 25.2795 35.5456 24.8161 35.8088C24.3585 36.0719 23.8466 36.2034 23.2803 36.2034C22.714 36.2034 22.1992 36.0719 21.7359 35.8088C21.2783 35.5456 20.915 35.1767 20.6462 34.7019C20.3831 34.2271 20.2515 33.6923 20.2515 33.0974C20.2515 32.5025 20.3831 31.9706 20.6462 31.5015C20.915 31.0268 21.2783 30.6578 21.7359 30.3947C22.1992 30.1316 22.714 30 23.2803 30ZM23.2803 31.1154C22.9257 31.1154 22.6139 31.1955 22.3451 31.3557C22.0762 31.5158 21.8646 31.7475 21.7101 32.0507C21.5614 32.3481 21.4871 32.697 21.4871 33.0974C21.4871 33.4978 21.5614 33.8496 21.7101 34.1528C21.8646 34.4502 22.0762 34.679 22.3451 34.8392C22.6139 34.9994 22.9257 35.0794 23.2803 35.0794C23.635 35.0794 23.9467 34.9994 24.2155 34.8392C24.4844 34.679 24.6932 34.4502 24.8419 34.1528C24.9963 33.8496 25.0736 33.4978 25.0736 33.0974C25.0736 32.697 24.9963 32.3481 24.8419 32.0507C24.6932 31.7475 24.4844 31.5158 24.2155 31.3557C23.9467 31.1955 23.635 31.1154 23.2803 31.1154Z" fill="#587E85"/>
<path d="M30.977 30.0858V31.0468H28.4287V32.6684H30.4708V33.5951H28.4287V36.1434H27.2189V30.0858H30.977Z" fill="#587E85"/>
<path d="M33.0037 31.0468V32.6169H35.1487V33.5436H33.0037V35.1738H35.4061V36.1434H31.7939V30.0858H35.4061V31.0468H33.0037Z" fill="#587E85"/>
<path d="M40.4632 34.4874C40.4632 34.7963 40.3859 35.0823 40.2315 35.3454C40.0771 35.6028 39.8483 35.8116 39.5451 35.9718C39.2419 36.1262 38.873 36.2034 38.4383 36.2034C38.0093 36.2034 37.626 36.1319 37.2885 35.9889C36.951 35.8402 36.6793 35.6286 36.4734 35.354C36.2732 35.0794 36.1588 34.7591 36.1302 34.393H37.4172C37.4458 34.639 37.5431 34.8449 37.7089 35.0108C37.8805 35.171 38.1065 35.251 38.3868 35.251C38.6385 35.251 38.8301 35.1853 38.9616 35.0537C39.0989 34.9164 39.1676 34.742 39.1676 34.5303C39.1676 34.3415 39.1132 34.1871 39.0045 34.067C38.8959 33.9411 38.7586 33.841 38.5927 33.7667C38.4268 33.6923 38.198 33.6065 37.9063 33.5093C37.5288 33.3834 37.2199 33.2605 36.9796 33.1403C36.7394 33.0145 36.5335 32.8343 36.3619 32.5998C36.196 32.3653 36.113 32.0592 36.113 31.6817C36.113 31.1612 36.2989 30.7522 36.6707 30.4547C37.0483 30.1516 37.5459 30 38.1637 30C38.8043 30 39.3134 30.1544 39.691 30.4633C40.0742 30.7722 40.2916 31.1841 40.343 31.6989H39.0389C39.0045 31.4815 38.913 31.3042 38.7643 31.1669C38.6156 31.0239 38.4125 30.9524 38.1551 30.9524C37.932 30.9524 37.7518 31.0125 37.6146 31.1326C37.4773 31.247 37.4086 31.4157 37.4086 31.6388C37.4086 31.8161 37.4601 31.9649 37.5631 32.085C37.6718 32.1994 37.8062 32.2938 37.9664 32.3681C38.1322 32.4425 38.3553 32.5254 38.6356 32.6169C39.0246 32.7542 39.3392 32.8829 39.5794 33.003C39.8254 33.1232 40.0342 33.3034 40.2058 33.5436C40.3774 33.7838 40.4632 34.0984 40.4632 34.4874Z" fill="#587E85"/>
<path d="M45.5157 34.4874C45.5157 34.7963 45.4385 35.0823 45.2841 35.3454C45.1296 35.6028 44.9008 35.8116 44.5977 35.9718C44.2945 36.1262 43.9255 36.2034 43.4908 36.2034C43.0618 36.2034 42.6786 36.1319 42.3411 35.9889C42.0036 35.8402 41.7319 35.6286 41.526 35.354C41.3258 35.0794 41.2114 34.7591 41.1828 34.393H42.4698C42.4984 34.639 42.5956 34.8449 42.7615 35.0108C42.9331 35.171 43.159 35.251 43.4393 35.251C43.691 35.251 43.8826 35.1853 44.0142 35.0537C44.1515 34.9164 44.2201 34.742 44.2201 34.5303C44.2201 34.3415 44.1658 34.1871 44.0571 34.067C43.9484 33.9411 43.8111 33.841 43.6453 33.7667C43.4794 33.6923 43.2506 33.6065 42.9589 33.5093C42.5813 33.3834 42.2724 33.2605 42.0322 33.1403C41.792 33.0145 41.586 32.8343 41.4144 32.5998C41.2485 32.3653 41.1656 32.0592 41.1656 31.6817C41.1656 31.1612 41.3515 30.7522 41.7233 30.4547C42.1008 30.1516 42.5985 30 43.2163 30C43.8569 30 44.366 30.1544 44.7435 30.4633C45.1268 30.7722 45.3441 31.1841 45.3956 31.6989H44.0914C44.0571 31.4815 43.9656 31.3042 43.8169 31.1669C43.6681 31.0239 43.4651 30.9524 43.2077 30.9524C42.9846 30.9524 42.8044 31.0125 42.6671 31.1326C42.5298 31.247 42.4612 31.4157 42.4612 31.6388C42.4612 31.8161 42.5127 31.9649 42.6156 32.085C42.7243 32.1994 42.8587 32.2938 43.0189 32.3681C43.1848 32.4425 43.4079 32.5254 43.6882 32.6169C44.0771 32.7542 44.3917 32.8829 44.632 33.003C44.8779 33.1232 45.0867 33.3034 45.2583 33.5436C45.4299 33.7838 45.5157 34.0984 45.5157 34.4874Z" fill="#587E85"/>
<path d="M47.6167 30.0858V36.1434H46.4069V30.0858H47.6167Z" fill="#587E85"/>
<path d="M51.5512 30C52.1175 30 52.6294 30.1316 53.087 30.3947C53.5504 30.6578 53.9136 31.0268 54.1767 31.5015C54.4455 31.9706 54.58 32.5025 54.58 33.0974C54.58 33.6923 54.4455 34.2271 54.1767 34.7019C53.9136 35.1767 53.5504 35.5456 53.087 35.8088C52.6294 36.0719 52.1175 36.2034 51.5512 36.2034C50.9849 36.2034 50.4701 36.0719 50.0068 35.8088C49.5492 35.5456 49.1859 35.1767 48.9171 34.7019C48.654 34.2271 48.5224 33.6923 48.5224 33.0974C48.5224 32.5025 48.654 31.9706 48.9171 31.5015C49.1859 31.0268 49.5492 30.6578 50.0068 30.3947C50.4701 30.1316 50.9849 30 51.5512 30ZM51.5512 31.1154C51.1965 31.1154 50.8848 31.1955 50.6159 31.3557C50.3471 31.5158 50.1355 31.7475 49.981 32.0507C49.8323 32.3481 49.7579 32.697 49.7579 33.0974C49.7579 33.4978 49.8323 33.8496 49.981 34.1528C50.1355 34.4502 50.3471 34.679 50.6159 34.8392C50.8848 34.9994 51.1965 35.0794 51.5512 35.0794C51.9058 35.0794 52.2176 34.9994 52.4864 34.8392C52.7553 34.679 52.964 34.4502 53.1128 34.1528C53.2672 33.8496 53.3444 33.4978 53.3444 33.0974C53.3444 32.697 53.2672 32.3481 53.1128 32.0507C52.964 31.7475 52.7553 31.5158 52.4864 31.3557C52.2176 31.1955 51.9058 31.1154 51.5512 31.1154Z" fill="#587E85"/>
<path d="M60.6207 36.1434H59.4109L56.6996 32.0249V36.1434H55.4898V30.0858H56.6996L59.4109 34.2386V30.0858H60.6207V36.1434Z" fill="#587E85"/>
<path d="M65.4049 34.925H62.9767L62.5477 36.1434H61.2693L63.5001 30.1544H64.8815L67.1037 36.1434H65.8253L65.4049 34.925ZM65.0788 34.0069L64.1865 31.45L63.2942 34.0069H65.0788Z" fill="#587E85"/>
<path d="M68.9665 35.2167H71V36.1434H67.7567V30.0858H68.9665V35.2167Z" fill="#587E85"/>
</svg>
