<svg width="220" height="108" viewBox="0 0 220 108" fill="none" xmlns="http://www.w3.org/2000/svg">
<path opacity="0.3" fill-rule="evenodd" clip-rule="evenodd" d="M60.5988 100.077H169.94C175.033 100.077 179.162 95.9097 179.162 90.7692C179.162 85.6287 175.033 81.4615 169.94 81.4615C169.94 81.4615 162.036 77.2943 162.036 72.1538C162.036 67.0134 167.242 62.8462 173.663 62.8462H187.066C192.159 62.8462 196.287 58.679 196.287 53.5385C196.287 48.398 192.159 44.2308 187.066 44.2308H158.084C163.177 44.2308 167.305 40.0636 167.305 34.9231C167.305 29.7826 163.177 25.6154 158.084 25.6154H210.778C215.871 25.6154 220 21.4482 220 16.3077C220 11.1672 215.871 7 210.778 7H81.6766C76.5837 7 72.4551 11.1672 72.4551 16.3077C72.4551 21.4482 76.5837 25.6154 81.6766 25.6154H28.982C23.8891 25.6154 19.7605 29.7826 19.7605 34.9231C19.7605 40.0636 23.8891 44.2308 28.982 44.2308H61.9162C67.0091 44.2308 71.1377 48.398 71.1377 53.5385C71.1377 58.679 67.0091 62.8462 61.9162 62.8462H9.22156C4.12863 62.8462 0 67.0134 0 72.1538C0 77.2943 4.12863 81.4615 9.22156 81.4615H60.5988C55.5059 81.4615 51.3772 85.6287 51.3772 90.7692C51.3772 95.9097 55.5059 100.077 60.5988 100.077ZM201.385 53.5385C201.385 58.679 205.552 62.8462 210.692 62.8462C215.833 62.8462 220 58.679 220 53.5385C220 48.398 215.833 44.2308 210.692 44.2308C205.552 44.2308 201.385 48.398 201.385 53.5385Z" fill="#EAEDE2"/>
<path d="M94.6773 86.601L148.074 64.0296C151.35 62.6454 155.128 64.1785 156.514 67.4544L159.023 73.3875L93.7595 100.975L91.2511 95.0436C89.8661 91.7662 91.4 87.9865 94.6773 86.601Z" fill="#E1EEC9"/>
<path d="M81.7066 55.2362C82.0423 56.49 82.4647 57.7189 82.9708 58.9142L94.6758 86.6001L146.094 64.866L146.093 64.8639L134.388 37.178C128.869 24.1183 114.435 17.2719 100.83 21.2598C99.8037 21.5591 98.7961 21.9185 97.8122 22.336C96.8258 22.7526 95.864 23.2249 94.9313 23.7507C83.8713 30.0131 78.4356 42.9544 81.7066 55.2362Z" fill="#E1EEC9"/>
<path opacity="0.5" d="M148.074 64.0296C151.35 62.6454 155.128 64.1785 156.514 67.4544L159.023 73.3875L153.889 75.5577L151.411 69.699C150.026 66.4232 146.248 64.8901 142.971 66.2743L148.074 64.0296Z" fill="#C0CEA6"/>
<path opacity="0.5" d="M95.7275 23.5045C95.4619 23.5819 95.1967 23.6639 94.9321 23.7503C95.8645 23.2246 96.8261 22.7525 97.8122 22.336C98.7961 21.9185 99.8037 21.5591 100.83 21.2598C114.435 17.2719 128.869 24.1183 134.388 37.178L146.093 64.8639L146.094 64.866L140.96 67.0358L129.286 39.4226C123.767 26.363 109.333 19.5165 95.7275 23.5045Z" fill="#C0CEA6"/>
<path d="M119.278 30.0777C118.986 30.1563 118.674 30.1272 118.401 29.9958C117.682 29.6513 116.939 29.3344 116.193 29.0566C113.45 28.0315 110.558 27.4663 107.631 27.3839C106.932 27.36 106.384 26.7766 106.403 26.0778C106.423 25.379 107.003 24.827 107.702 24.8421C110.908 24.9325 114.078 25.5516 117.082 26.6744C117.9 26.9796 118.713 27.3257 119.5 27.7028C119.98 27.9328 120.266 28.4373 120.216 28.9671C120.167 29.4969 119.793 29.94 119.279 30.0775L119.278 30.0777Z" fill="#004842"/>
<path d="M122.246 30.6788C122.444 30.4056 122.742 30.2222 123.075 30.1688C123.408 30.1155 123.749 30.1966 124.022 30.3944C124.466 30.716 124.909 31.0562 125.336 31.4038C125.694 31.6887 125.872 32.144 125.801 32.5961C125.73 33.0481 125.421 33.4271 124.993 33.5884C124.565 33.7498 124.083 33.6686 123.731 33.3759C123.341 33.058 122.937 32.7477 122.531 32.4543C122.258 32.2566 122.074 31.9585 122.021 31.6255C121.968 31.2925 122.049 30.952 122.246 30.6788Z" fill="#004842"/>
<path fill-rule="evenodd" clip-rule="evenodd" d="M81.8005 59.4094L93.0512 86.0234C89.8736 88.0457 88.6182 92.0652 90.0798 95.5365L92.5752 101.439C92.6433 101.609 92.7458 101.763 92.8761 101.891C93.1978 102.199 93.6573 102.317 94.088 102.202C94.1445 102.187 94.2 102.168 94.2539 102.145L118.82 91.7602C121.021 96.6421 126.718 98.8719 131.648 96.7808C136.574 94.6958 138.937 89.0621 136.973 84.0869L159.516 74.5571C160.162 74.2838 160.465 73.538 160.192 72.8912L157.741 67.0938C156.96 65.2006 155.475 63.6843 153.599 62.8644C151.677 62.0402 149.501 62.0378 147.577 62.8577L146.77 63.1986L135.561 36.6827C129.89 23.2678 115.299 16.2913 101.59 19.7351L99.8599 15.6437C99.2478 14.1463 97.8779 13.0937 96.2734 12.8878C94.6688 12.682 93.0775 13.3547 92.1072 14.649C91.1369 15.9434 90.9375 17.6595 91.585 19.1419L93.3136 23.231C81.0875 30.8076 76.2018 46.1604 81.8005 59.4094ZM95.9614 15.4352C96.6583 15.525 97.2531 15.983 97.518 16.6338L99.1388 20.4684C98.5286 20.6799 97.9195 20.9118 97.3176 21.1661C96.7158 21.4203 96.1264 21.6948 95.5476 21.9854L93.9271 18.1519C93.6447 17.5084 93.7306 16.7627 94.1518 16.2002C94.5731 15.6377 95.2644 15.3455 95.9614 15.4352ZM130.656 94.4394C134.29 92.9017 136.048 88.7591 134.631 85.0772L121.163 90.7701C122.822 94.3514 127.02 95.9741 130.656 94.4394ZM94.435 99.3088L92.4222 94.5469C91.3146 91.9172 92.5443 88.8872 95.1712 87.7731L132.348 72.057C132.988 71.7791 133.284 71.0381 133.013 70.3959C132.741 69.7537 132.003 69.45 131.358 69.7151L95.3519 84.9351L84.1427 58.4198C80.424 49.6508 81.6699 39.5636 87.4105 31.9629C93.151 24.3623 102.513 20.4047 111.964 21.583C121.416 22.7612 129.52 28.896 133.219 37.6734L144.428 64.1895L139.221 66.391C138.886 66.5325 138.628 66.8105 138.511 67.1548C138.395 67.499 138.431 67.8767 138.612 68.1923C138.931 68.7515 139.618 68.9837 140.211 68.733L148.567 65.1997C149.889 64.637 151.386 64.6532 152.695 65.2443C153.914 65.8061 154.874 66.8081 155.384 68.049L157.355 72.7105L94.435 99.3088Z" fill="#004842"/>
</svg>
