<svg width="222" height="95" viewBox="0 0 222 95" fill="none" xmlns="http://www.w3.org/2000/svg">
<path fill-rule="evenodd" clip-rule="evenodd" d="M61.4817 94.1465H171.077C176.182 94.1465 180.32 89.9696 180.32 84.8172C180.32 79.6648 176.182 75.4879 171.077 75.4879C171.077 75.4879 163.154 71.311 163.154 66.1586C163.154 61.0062 168.372 56.8293 174.808 56.8293H188.242C193.347 56.8293 197.485 52.6524 197.485 47.5C197.485 42.3476 193.347 38.1707 188.242 38.1707H159.193C164.298 38.1707 168.436 33.9938 168.436 28.8414C168.436 23.689 164.298 19.5121 159.193 19.5121H212.01C217.115 19.5121 221.253 15.3352 221.253 10.1828C221.253 5.03038 217.115 0.853516 212.01 0.853516H82.6084C77.5037 0.853516 73.3655 5.03038 73.3655 10.1828C73.3655 15.3352 77.5037 19.5121 82.6084 19.5121H29.7915C24.6868 19.5121 20.5485 23.689 20.5485 28.8414C20.5485 33.9938 24.6868 38.1707 29.7915 38.1707H62.8021C67.9068 38.1707 72.045 42.3476 72.045 47.5C72.045 52.6524 67.9068 56.8293 62.8021 56.8293H9.98515C4.8804 56.8293 0.742188 61.0062 0.742188 66.1586C0.742188 71.311 4.8804 75.4879 9.98515 75.4879H61.4817C56.3769 75.4879 52.2387 79.6648 52.2387 84.8172C52.2387 89.9696 56.3769 94.1465 61.4817 94.1465ZM202.599 47.5026C202.599 52.6551 206.776 56.8319 211.928 56.8319C217.081 56.8319 221.258 52.6551 221.258 47.5026C221.258 42.3502 217.081 38.1734 211.928 38.1734C206.776 38.1734 202.599 42.3502 202.599 47.5026Z" fill="#EAEDE2"/>
<path fill-rule="evenodd" clip-rule="evenodd" d="M65.3883 83.2072V67.3138H56.7969V19.6011H125.277V66.6449H87.4242L65.3883 83.2072Z" fill="white"/>
<circle cx="71.7177" cy="42.6486" r="5.61026" fill="#E1EEC9"/>
<circle cx="90.954" cy="42.6486" r="5.61026" fill="#E1EEC9"/>
<circle cx="110.19" cy="42.6486" r="5.61026" fill="#E1EEC9"/>
<path fill-rule="evenodd" clip-rule="evenodd" d="M84.6673 42.9769C84.6673 39.4654 87.5248 36.6096 91.0363 36.6096C94.5478 36.6096 97.4045 39.4654 97.4045 42.9769C97.4045 46.4988 94.5478 49.3649 91.0363 49.3649C87.5248 49.3649 84.6673 46.4988 84.6673 42.9769ZM86.4304 42.9747C86.4304 45.531 88.5011 47.6095 91.0463 47.6095C93.5914 47.6095 95.6612 45.5309 95.6612 42.9747C95.6612 40.4306 93.5912 38.3606 91.0463 38.3606C88.5013 38.3606 86.4304 40.4304 86.4304 42.9747ZM71.7636 36.6096C68.2521 36.6096 65.3945 39.4654 65.3945 42.9769C65.3945 46.4988 68.2521 49.3649 71.7636 49.3649C75.2854 49.3649 78.1507 46.4988 78.1507 42.9769C78.1507 39.4654 75.2854 36.6096 71.7636 36.6096ZM67.1455 42.9747C67.1455 45.531 69.2162 47.6095 71.7613 47.6095C74.3166 47.6095 76.3952 45.5309 76.3952 42.9747C76.3952 40.4306 74.3166 38.3606 71.7613 38.3606C69.2164 38.3606 67.1455 40.4304 67.1455 42.9747ZM110.315 36.6096C106.793 36.6096 103.928 39.4654 103.928 42.9769C103.928 46.4988 106.793 49.3649 110.315 49.3649C113.827 49.3649 116.684 46.4988 116.684 42.9769C116.684 39.4654 113.827 36.6096 110.315 36.6096ZM105.679 42.9747C105.679 45.531 107.758 47.6095 110.313 47.6095C112.858 47.6095 114.929 45.5309 114.929 42.9747C114.929 40.4306 112.858 38.3606 110.313 38.3606C107.757 38.3606 105.679 40.4304 105.679 42.9747Z" fill="#194742"/>
<path fill-rule="evenodd" clip-rule="evenodd" d="M159.583 1.3064H95.9308C92.6777 1.3064 90.0318 3.9618 90.0318 7.22522V16.0958H59.2215C55.9538 16.0958 53.2949 18.7461 53.2949 22.0042V63.958C53.2949 67.2247 55.9538 69.8836 59.2215 69.8836H63.446V84.9433C63.446 85.6094 63.8226 86.2172 64.4176 86.5133C64.665 86.6366 64.9329 86.6965 65.1992 86.6965C65.5733 86.6965 65.9457 86.5766 66.2564 86.3422L88.0354 69.8836H122.862C126.13 69.8836 128.788 67.2247 128.788 63.958V55.0978H130.77L152.56 71.5667C152.871 71.8013 153.242 71.921 153.617 71.921C153.883 71.921 154.151 71.8611 154.399 71.7378C154.994 71.4417 155.37 70.8339 155.37 70.1678V55.0978H159.583C162.845 55.0978 165.5 52.4439 165.5 49.1807V7.22522C165.5 3.96198 162.845 1.3064 159.583 1.3064ZM122.858 66.3761H87.443C87.0612 66.3761 86.6905 66.5011 86.3858 66.7304L66.948 81.4203V68.1291C66.948 67.1601 66.1629 66.3759 65.1948 66.3759H59.2171C57.8824 66.3761 56.7969 65.2905 56.7969 63.9568V22.0031C56.7969 20.6778 57.8824 19.601 59.2171 19.601H122.858C124.192 19.601 125.277 20.678 125.277 22.0031V53.318C125.277 53.3224 125.276 53.3264 125.275 53.3304L125.275 53.3305C125.274 53.3347 125.272 53.3389 125.272 53.3434C125.272 53.3458 125.273 53.3481 125.273 53.3503C125.274 53.3523 125.274 53.3542 125.275 53.3561C125.276 53.3603 125.277 53.3644 125.277 53.3688V63.9568C125.277 65.2905 124.192 66.3761 122.858 66.3761ZM159.588 51.5929C160.918 51.5929 161.999 50.5108 161.999 49.1823V7.22679C161.999 5.89646 160.918 4.81438 159.588 4.81438H95.9358C94.6166 4.81438 93.5432 5.89646 93.5432 7.22679V16.0973H122.867C126.135 16.0973 128.793 18.7476 128.793 22.0058V51.5929H131.363C131.745 51.5929 132.115 51.7178 132.42 51.9472L151.869 66.6475V53.3461C151.869 52.3771 152.654 51.5929 153.622 51.5929H159.588Z" fill="#194742"/>
</svg>
