<svg width="211" height="94" viewBox="0 0 211 94" fill="none" xmlns="http://www.w3.org/2000/svg">
<path fill-rule="evenodd" clip-rule="evenodd" d="M58.4569 93.9993H162.573C167.423 93.9993 171.354 90.0312 171.354 85.1364C171.354 80.2415 167.423 76.2735 162.573 76.2735C162.573 76.2735 155.047 72.3054 155.047 67.4105C155.047 62.5157 160.004 58.5476 166.118 58.5476H178.881C183.73 58.5476 187.662 54.5796 187.662 49.6847C187.662 44.7899 183.73 40.8218 178.881 40.8218H151.284C156.133 40.8218 160.064 36.8537 160.064 31.9589C160.064 27.064 156.133 23.096 151.284 23.096H201.46C206.31 23.096 210.241 19.1279 210.241 14.233C210.241 9.33818 206.31 5.37012 201.46 5.37012H78.5276C73.678 5.37012 69.7467 9.33818 69.7467 14.233C69.7467 19.1279 73.678 23.096 78.5276 23.096H28.351C23.5015 23.096 19.5701 27.064 19.5701 31.9589C19.5701 36.8537 23.5015 40.8218 28.351 40.8218H59.7114C64.5609 40.8218 68.4923 44.7899 68.4923 49.6847C68.4923 54.5796 64.5609 58.5476 59.7114 58.5476H9.5348C4.68525 58.5476 0.753906 62.5157 0.753906 67.4105C0.753906 72.3054 4.68525 76.2735 9.5348 76.2735H58.4569C53.6074 76.2735 49.6761 80.2415 49.6761 85.1364C49.6761 90.0312 53.6074 93.9993 58.4569 93.9993ZM192.52 49.6872C192.52 54.5821 196.488 58.5501 201.383 58.5501C206.277 58.5501 210.246 54.5821 210.246 49.6872C210.246 44.7924 206.277 40.8243 201.383 40.8243C196.488 40.8243 192.52 44.7924 192.52 49.6872Z" fill="#EAEDE2"/>
<path fill-rule="evenodd" clip-rule="evenodd" d="M99.8562 45.5172C99.8562 45.5172 92.7913 44.4872 91.2953 36.7194C89.7994 28.9517 87.8473 30.3971 87.4598 28.54C87.0724 26.6829 88.618 24.3759 88.618 24.3759L89.3001 20.5843L87.4598 15.2857L86.5235 8.8928L91.2953 5.89387L96.3903 2.65723L103.755 2.65723L112.882 3.90568L115.59 5.89387L117.275 9.74776V16.1483V20.5843L118.649 23.0019L120.051 25.8705V28.54L118.649 32.2768L117.275 34.7878V39.0292L114.455 41.572L113.858 55.9816C113.858 55.9816 110.623 61.0933 109.932 68.5683C109.593 72.2386 111.553 80.908 111.553 80.908C111.553 80.908 70.8134 84.8386 69.4593 79.354C69.2178 78.376 68.983 71.0121 73.0339 66.9204C77.5443 62.3647 86.4526 60.6436 92.4155 56.8163C99.509 52.2633 97.2786 46.545 97.2238 46.545C96.6615 46.545 99.8562 45.5172 99.8562 45.5172Z" fill="white"/>
<path fill-rule="evenodd" clip-rule="evenodd" d="M112.147 81.0728C112.147 81.7131 111.72 82.1403 111.08 82.1403L69.543 82.1404C68.9018 82.1404 68.4746 81.7132 68.4746 81.0729V72.5305C68.4746 63.0079 86.1334 58.2007 87.8962 57.7209C87.952 57.7057 87.9918 57.6948 88.0147 57.6883C91.5383 56.834 95.1689 54.6984 95.1689 52.2428L95.1697 44.5538C91.859 41.9918 89.8306 38.0409 89.8306 33.5561V33.3429C87.8014 32.7019 86.3068 30.7801 86.3068 28.5377V25.8682C86.3068 24.1596 87.1611 22.6649 88.5491 21.704C85.987 17.2194 83.8512 11.667 86.5208 8.89099C86.8405 8.35726 87.8023 7.07578 89.8307 6.75518C89.9372 6.00739 90.1513 5.04651 90.7915 4.08562C91.86 2.59112 93.6751 1.63024 96.1307 1.30964C101.576 0.455338 117.271 0.882603 119.408 8.99861C120.048 11.8812 119.835 15.9388 118.554 20.8506C120.583 21.4916 122.078 23.4135 122.078 25.6558V28.3254C122.078 30.5677 120.582 32.4903 118.554 33.1306V33.3438C118.554 37.2949 116.953 40.8178 114.283 43.3808V43.5939V52.1363C114.283 52.8831 114.603 53.7375 115.351 54.4852C115.778 54.9124 115.778 55.5527 115.351 55.9798C115.137 56.1938 114.816 56.3004 114.603 56.3004C114.389 56.3004 114.068 56.193 113.855 55.9798C112.68 54.8058 112.147 53.6309 112.147 52.2429V45.1952C109.904 46.6898 107.341 47.5441 104.458 47.5441H103.925C101.575 47.5441 99.226 46.9029 97.3043 45.8355V52.242C97.3043 55.9789 92.713 58.7559 88.5488 59.8234C88.3349 59.8234 70.61 64.308 70.61 72.5297V80.0045L111.08 80.0054C111.72 80.0054 112.147 80.4325 112.147 81.0728ZM91.0091 31.3137C91.5428 31.4203 91.97 31.8474 91.97 32.3812L91.9703 33.4485C91.9703 37.1855 93.7853 40.4963 96.5598 42.8443C96.6797 42.9306 96.7692 42.9935 96.8559 43.0544C96.9833 43.144 97.1046 43.2292 97.3075 43.378C99.2294 44.7661 101.579 45.5138 104.035 45.5138H104.568C111.189 45.5138 116.528 40.0674 116.528 33.5543V32.4868C116.528 31.9531 116.955 31.5259 117.489 31.4193C118.984 31.2063 120.052 30.0313 120.052 28.5367V25.8671C120.052 24.3725 118.77 23.0911 117.276 22.9845C116.955 22.9845 116.635 22.878 116.421 22.5574C116.208 22.2368 116.102 21.9171 116.208 21.5965C117.596 16.5782 117.916 12.414 117.276 9.74444C116.102 4.93993 107.559 3.2313 100.832 3.2313C99.1234 3.2313 97.6289 3.33876 96.3474 3.5519C94.5313 3.76503 93.2507 4.40622 92.5029 5.36711C91.7561 6.43457 91.9692 7.60947 91.9692 7.60947C92.0767 7.93007 91.9692 8.25066 91.7561 8.4638C91.542 8.78438 91.2223 8.89095 90.9017 8.89095C88.9791 8.89095 88.392 9.85528 88.392 9.85528C88.3782 9.85528 88.29 10.0056 88.2187 10.1272C88.1715 10.2076 88.1317 10.2755 88.1257 10.279C86.6311 11.7736 87.6984 16.1518 90.9017 21.5973C91.1148 21.8114 91.1148 22.1311 91.0082 22.4517C90.9017 22.7714 90.6886 22.9854 90.368 23.0919C89.1939 23.5191 88.4462 24.5866 88.4462 25.7615V28.4311C88.4462 29.9257 89.5145 31.1006 91.0091 31.3137Z" fill="#274642"/>
<path d="M111.08 82.1403V81.5415V82.1403ZM69.543 82.1404V82.7392H69.543L69.543 82.1404ZM87.8962 57.7209L88.0535 58.2987L88.0535 58.2987L87.8962 57.7209ZM88.0147 57.6883L87.8736 57.1063L87.8619 57.1092L87.8503 57.1125L88.0147 57.6883ZM95.1689 52.2428L94.57 52.2427V52.2428H95.1689ZM95.1697 44.5538L95.7686 44.5539L95.7686 44.26L95.5362 44.0802L95.1697 44.5538ZM89.8306 33.3429H90.4294V32.9041L90.011 32.7719L89.8306 33.3429ZM88.5491 21.704L88.89 22.1963L89.3415 21.8838L89.0691 21.4069L88.5491 21.704ZM86.5208 8.89099L86.9524 9.30607L86.9995 9.25705L87.0345 9.19871L86.5208 8.89099ZM89.8307 6.75518L89.9241 7.34667L90.3611 7.27761L90.4235 6.83966L89.8307 6.75518ZM90.7915 4.08562L90.3044 3.73734L90.2987 3.74536L90.2932 3.75356L90.7915 4.08562ZM96.1307 1.30964L96.2082 1.90343L96.2158 1.90243L96.2235 1.90124L96.1307 1.30964ZM119.408 8.99861L119.993 8.86876L119.99 8.8574L119.987 8.84615L119.408 8.99861ZM118.554 20.8506L117.974 20.6995L117.831 21.2502L118.373 21.4217L118.554 20.8506ZM118.554 33.1306L118.374 32.5596L117.955 32.6917V33.1306H118.554ZM114.283 43.3808L113.868 42.9488L113.684 43.1255V43.3808H114.283ZM115.351 55.9798L114.927 55.5564L114.927 55.5564L115.351 55.9798ZM113.855 55.9798L114.279 55.5564L114.278 55.5562L113.855 55.9798ZM112.147 45.1952H112.745V44.0764L111.814 44.6969L112.147 45.1952ZM97.3043 45.8355L97.5951 45.312L96.7054 44.8178V45.8355H97.3043ZM88.5488 59.8234V60.4222H88.6244L88.6975 60.4035L88.5488 59.8234ZM70.61 80.0045H70.0112V80.6033L70.61 80.6033L70.61 80.0045ZM111.08 80.0054L111.08 80.6042H111.08V80.0054ZM91.97 32.3812H91.3712V32.3813L91.97 32.3812ZM91.0091 31.3137L91.1264 30.7265L91.1101 30.7232L91.0936 30.7209L91.0091 31.3137ZM91.9703 33.4485H92.5691L92.5691 33.4483L91.9703 33.4485ZM96.5598 42.8443L96.1729 43.3014L96.1909 43.3167L96.2101 43.3305L96.5598 42.8443ZM96.8559 43.0544L96.5116 43.5443L96.5116 43.5443L96.8559 43.0544ZM97.3075 43.378L96.9533 43.8609L96.9569 43.8635L97.3075 43.378ZM117.489 31.4193L117.404 30.8265L117.388 30.8288L117.372 30.8321L117.489 31.4193ZM117.276 22.9845L117.318 22.3872L117.297 22.3857H117.276V22.9845ZM116.208 21.5965L116.777 21.7854L116.781 21.7709L116.785 21.7561L116.208 21.5965ZM117.276 9.74444L117.858 9.60477L117.857 9.60229L117.276 9.74444ZM96.3474 3.5519L96.4172 4.14665L96.4315 4.14497L96.4457 4.14261L96.3474 3.5519ZM92.5029 5.36711L92.0303 4.99934L92.021 5.01135L92.0123 5.02381L92.5029 5.36711ZM91.9692 7.60947L91.38 7.71636L91.3877 7.75884L91.4014 7.79978L91.9692 7.60947ZM91.7561 8.4638L91.3326 8.04036L91.2909 8.08214L91.258 8.13128L91.7561 8.4638ZM88.392 9.85528V10.4541H88.7285L88.9035 10.1667L88.392 9.85528ZM88.2187 10.1272L87.7022 9.82423L87.7022 9.82423L88.2187 10.1272ZM88.1257 10.279L87.8255 9.76084L87.7577 9.80013L87.7023 9.85555L88.1257 10.279ZM90.9017 21.5973L90.3855 21.901L90.4239 21.9662L90.4774 22.0199L90.9017 21.5973ZM91.0082 22.4517L91.5764 22.641L91.5765 22.6406L91.0082 22.4517ZM90.368 23.0919L90.1791 22.5237L90.1711 22.5263L90.1632 22.5292L90.368 23.0919ZM111.08 82.7391C111.536 82.7391 111.963 82.5843 112.277 82.2701C112.591 81.9559 112.746 81.5292 112.746 81.0728H111.548C111.548 81.2568 111.489 81.3638 111.43 81.4232C111.37 81.4827 111.264 81.5415 111.08 81.5415V82.7391ZM69.543 82.7392L111.08 82.7391L111.08 81.5415L69.543 81.5415L69.543 82.7392ZM67.8758 81.0729C67.8758 81.5292 68.0306 81.9561 68.345 82.2703C68.6594 82.5845 69.0864 82.7392 69.543 82.7392V81.5415C69.3583 81.5415 69.2511 81.4826 69.1916 81.4232C69.1322 81.3637 69.0734 81.2568 69.0734 81.0729H67.8758ZM67.8758 72.5305V81.0729H69.0734V72.5305H67.8758ZM87.7389 57.1431C86.8507 57.3849 81.9413 58.7205 77.2443 61.2053C74.8967 62.4473 72.5704 63.9926 70.8242 65.8573C69.0749 67.7253 67.8758 69.9505 67.8758 72.5305H69.0734C69.0734 70.3493 70.0816 68.4025 71.6984 66.676C73.3184 64.9461 75.517 63.4741 77.8044 62.264C82.3776 59.8446 87.179 58.5367 88.0535 58.2987L87.7389 57.1431ZM87.8503 57.1125C87.8319 57.1177 87.7968 57.1273 87.7389 57.1431L88.0535 58.2987C88.1071 58.2841 88.1517 58.272 88.1791 58.2641L87.8503 57.1125ZM94.57 52.2428C94.57 53.1691 93.8709 54.1608 92.5688 55.0761C91.2946 55.9718 89.579 56.6929 87.8736 57.1063L88.1558 58.2703C89.974 57.8295 91.8355 57.0555 93.2575 56.0559C94.6516 55.0759 95.7677 53.772 95.7677 52.2428H94.57ZM94.5709 44.5537L94.57 52.2427L95.7677 52.2428L95.7686 44.5539L94.5709 44.5537ZM89.2318 33.5561C89.2318 38.2278 91.3472 42.353 94.8033 45.0274L95.5362 44.0802C92.3707 41.6306 90.4294 37.854 90.4294 33.5561H89.2318ZM89.2318 33.3429V33.5561H90.4294V33.3429H89.2318ZM85.7079 28.5377C85.7079 31.0497 87.38 33.1968 89.6502 33.914L90.011 32.7719C88.2227 32.207 86.9056 30.5105 86.9056 28.5377H85.7079ZM85.7079 25.8682V28.5377H86.9056V25.8682H85.7079ZM88.2083 21.2116C86.6723 22.2749 85.7079 23.9471 85.7079 25.8682H86.9056C86.9056 24.3721 87.6499 23.0548 88.89 22.1963L88.2083 21.2116ZM86.0891 8.47591C84.5409 10.0859 84.4543 12.4305 84.9891 14.7892C85.5287 17.1691 86.7363 19.738 88.0292 22.001L89.0691 21.4069C87.7999 19.1854 86.6585 16.7357 86.1571 14.5243C85.6509 12.2917 85.8311 10.4721 86.9524 9.30607L86.0891 8.47591ZM89.7372 6.16369C87.4695 6.52212 86.3782 7.96368 86.0071 8.58326L87.0345 9.19871C87.3028 8.75083 88.1352 7.62943 89.9241 7.34667L89.7372 6.16369ZM90.2932 3.75356C89.5826 4.82006 89.3503 5.88099 89.2378 6.6707L90.4235 6.83966C90.5241 6.13379 90.72 5.27295 91.2899 4.41769L90.2932 3.75356ZM96.0531 0.715851C93.4869 1.0509 91.4972 2.06906 90.3044 3.73734L91.2787 4.4339C92.2229 3.11318 93.8633 2.20958 96.2082 1.90343L96.0531 0.715851ZM119.987 8.84615C119.404 6.62939 117.899 4.96938 115.954 3.74623C114.015 2.52651 111.607 1.71939 109.132 1.20401C104.186 0.17405 98.8283 0.280242 96.0378 0.718048L96.2235 1.90124C98.8781 1.48474 104.09 1.37741 108.888 2.37651C111.285 2.87565 113.542 3.6437 115.317 4.76003C117.086 5.87292 118.344 7.30982 118.829 9.15106L119.987 8.84615ZM119.133 21.0018C120.428 16.0406 120.661 11.8792 119.993 8.86876L118.824 9.12845C119.435 11.8832 119.243 15.837 117.974 20.6995L119.133 21.0018ZM122.677 25.6558C122.677 23.1438 121.004 20.9968 118.734 20.2796L118.373 21.4217C120.162 21.9865 121.479 23.6831 121.479 25.6558H122.677ZM122.677 28.3254V25.6558H121.479V28.3254H122.677ZM118.734 33.7017C121.004 32.9853 122.677 30.8373 122.677 28.3254H121.479C121.479 30.2981 120.161 31.9954 118.374 32.5596L118.734 33.7017ZM119.153 33.3438V33.1306H117.955V33.3438H119.153ZM114.698 43.8127C117.481 41.1404 119.153 37.4629 119.153 33.3438H117.955C117.955 37.1269 116.424 40.4953 113.868 42.9488L114.698 43.8127ZM114.882 43.5939V43.3808H113.684V43.5939H114.882ZM114.882 52.1363V43.5939H113.684V52.1363H114.882ZM115.774 54.0618C115.129 53.4164 114.882 52.7108 114.882 52.1363H113.684C113.684 53.0555 114.077 54.0585 114.927 54.9086L115.774 54.0618ZM115.774 56.4033C116.435 55.7422 116.435 54.7228 115.774 54.0618L114.927 54.9086C115.121 55.1019 115.121 55.3631 114.927 55.5564L115.774 56.4033ZM114.603 56.8992C114.964 56.8992 115.44 56.737 115.774 56.4032L114.927 55.5564C114.888 55.5953 114.828 55.6348 114.754 55.6643C114.678 55.6949 114.62 55.7016 114.603 55.7016V56.8992ZM113.432 56.4033C113.764 56.7357 114.24 56.8992 114.603 56.8992V55.7016C114.586 55.7016 114.528 55.6948 114.451 55.6642C114.377 55.6345 114.317 55.5949 114.279 55.5564L113.432 56.4033ZM111.548 52.2429C111.548 53.8191 112.167 55.1396 113.432 56.4034L114.278 55.5562C113.193 54.472 112.745 53.4428 112.745 52.2429H111.548ZM111.548 45.1952V52.2429H112.745V45.1952H111.548ZM104.458 48.1429C107.467 48.1429 110.144 47.2494 112.479 45.6935L111.814 44.6969C109.664 46.1301 107.216 46.9453 104.458 46.9453V48.1429ZM103.925 48.1429H104.458V46.9453H103.925V48.1429ZM97.0135 46.359C99.0223 47.4747 101.471 48.1429 103.925 48.1429V46.9453C101.679 46.9453 99.4298 46.3311 97.5951 45.312L97.0135 46.359ZM97.9031 52.242V45.8355H96.7054V52.242H97.9031ZM88.6975 60.4035C90.8397 59.8543 93.1082 58.8628 94.8553 57.5068C96.5944 56.157 97.9031 54.3735 97.9031 52.242H96.7054C96.7054 53.8473 95.7185 55.3208 94.121 56.5606C92.5314 57.7943 90.4222 58.725 88.4001 59.2433L88.6975 60.4035ZM71.2089 72.5297C71.2089 70.7043 72.1911 69.0289 73.7946 67.5106C75.396 65.9943 77.5564 64.6946 79.7592 63.6328C81.9565 62.5737 84.1652 61.7657 85.8404 61.2222C86.6772 60.9507 87.3784 60.746 87.8751 60.6096C88.1237 60.5414 88.3198 60.4906 88.4553 60.4572C88.5234 60.4405 88.5739 60.4287 88.6069 60.4214C88.6239 60.4177 88.6328 60.4159 88.6356 60.4154C88.663 60.4103 88.6119 60.4222 88.5488 60.4222V59.2245C88.5005 59.2245 88.4607 59.2307 88.4551 59.2315C88.4403 59.2336 88.4267 59.236 88.4166 59.2379C88.3959 59.2418 88.3731 59.2466 88.3502 59.2516C88.3036 59.2618 88.2425 59.2762 88.169 59.2943C88.0213 59.3306 87.8147 59.3842 87.5581 59.4547C87.0445 59.5957 86.3258 59.8056 85.4708 60.083C83.7625 60.6372 81.4999 61.4642 79.2392 62.554C76.984 63.641 74.6999 65.0041 72.9712 66.641C71.2445 68.2759 70.0112 70.2442 70.0112 72.5297H71.2089ZM71.2089 80.0045V72.5297H70.0112V80.0045H71.2089ZM111.08 79.4065L70.61 79.4057L70.61 80.6033L111.08 80.6042L111.08 79.4065ZM112.746 81.0728C112.746 80.6165 112.591 80.1897 112.277 79.8755C111.963 79.5614 111.536 79.4065 111.08 79.4065V80.6042C111.264 80.6042 111.371 80.6629 111.43 80.7224C111.489 80.7819 111.548 80.8888 111.548 81.0728H112.746ZM92.5688 32.3812C92.5688 31.5007 91.8754 30.876 91.1264 30.7265L90.8918 31.9009C91.2102 31.9645 91.3712 32.1941 91.3712 32.3812H92.5688ZM92.5691 33.4483L92.5688 32.381L91.3712 32.3813L91.3715 33.4487L92.5691 33.4483ZM96.9466 42.3872C94.2839 40.1337 92.5691 36.9816 92.5691 33.4485H91.3715C91.3715 37.3893 93.2868 40.8588 96.1729 43.3014L96.9466 42.3872ZM97.2003 42.5645C97.1138 42.5037 97.0265 42.4424 96.9094 42.3581L96.2101 43.3305C96.3329 43.4188 96.4247 43.4833 96.5116 43.5443L97.2003 42.5645ZM97.6617 42.8952C97.4539 42.7428 97.3288 42.6549 97.2003 42.5645L96.5116 43.5443C96.6378 43.6331 96.7553 43.7156 96.9533 43.8609L97.6617 42.8952ZM104.035 44.915C101.701 44.915 99.4745 44.2044 97.6581 42.8926L96.9569 43.8635C98.9843 45.3278 101.457 46.1127 104.035 46.1127V44.915ZM104.568 44.915H104.035V46.1127H104.568V44.915ZM115.929 33.5543C115.929 39.7402 110.855 44.915 104.568 44.915V46.1127C111.523 46.1127 117.127 40.3946 117.127 33.5543H115.929ZM115.929 32.4868V33.5543H117.127V32.4868H115.929ZM117.372 30.8321C116.622 30.9817 115.929 31.6064 115.929 32.4868H117.127C117.127 32.2997 117.288 32.0701 117.606 32.0066L117.372 30.8321ZM119.453 28.5367C119.453 29.7172 118.621 30.6532 117.404 30.8265L117.573 32.0122C119.348 31.7593 120.651 30.3454 120.651 28.5367H119.453ZM119.453 25.8671V28.5367H120.651V25.8671H119.453ZM117.233 23.5818C118.439 23.6678 119.453 24.7111 119.453 25.8671H120.651C120.651 24.034 119.101 22.5143 117.318 22.3872L117.233 23.5818ZM115.923 22.8889C116.278 23.4229 116.818 23.5833 117.276 23.5833V22.3857C117.18 22.3857 117.108 22.3696 117.056 22.3459C117.009 22.3247 116.963 22.291 116.92 22.2258L115.923 22.8889ZM115.64 21.4076C115.448 21.9864 115.669 22.5067 115.923 22.8889L116.92 22.2258C116.748 21.9668 116.756 21.8478 116.777 21.7854L115.64 21.4076ZM116.693 9.88411C117.299 12.4071 117.009 16.454 115.631 21.4368L116.785 21.7561C118.183 16.7024 118.533 12.4209 117.858 9.60477L116.693 9.88411ZM100.832 3.83013C104.155 3.83013 107.905 4.2533 110.949 5.25501C114.036 6.27084 116.186 7.80718 116.694 9.88659L117.857 9.60229C117.192 6.8772 114.483 5.15696 111.324 4.11735C108.121 3.06362 104.236 2.63247 100.832 2.63247V3.83013ZM96.4457 4.14261C97.6866 3.93622 99.147 3.83013 100.832 3.83013V2.63247C99.0998 2.63247 97.5712 2.7413 96.2492 2.96118L96.4457 4.14261ZM92.9755 5.73487C93.5924 4.94214 94.6989 4.3483 96.4172 4.14665L96.2776 2.95715C94.3636 3.18177 92.909 3.8703 92.0303 4.99934L92.9755 5.73487ZM91.9692 7.60947C92.5584 7.50258 92.5585 7.5028 92.5585 7.50301C92.5585 7.50308 92.5586 7.50329 92.5586 7.50342C92.5586 7.50368 92.5587 7.50393 92.5587 7.50416C92.5588 7.50462 92.5589 7.50501 92.5589 7.50533C92.559 7.50597 92.5591 7.50635 92.5591 7.50646C92.5591 7.50668 92.559 7.50585 92.5587 7.504C92.5581 7.50029 92.557 7.49254 92.5555 7.48104C92.5526 7.458 92.5484 7.42021 92.5451 7.37005C92.5385 7.26929 92.5356 7.12134 92.5522 6.94452C92.5856 6.5889 92.6956 6.13631 92.9936 5.71041L92.0123 5.02381C91.5634 5.66537 91.4066 6.33396 91.3598 6.83265C91.3363 7.083 91.34 7.29548 91.35 7.44838C91.3551 7.52504 91.3617 7.58738 91.3675 7.63277C91.3704 7.65548 91.3731 7.67401 91.3753 7.68803C91.3764 7.69505 91.3773 7.70094 91.3781 7.70567C91.3785 7.70804 91.3789 7.71012 91.3792 7.7119C91.3794 7.71279 91.3795 7.71361 91.3796 7.71435C91.3797 7.71472 91.3798 7.71508 91.3798 7.71541C91.3799 7.71558 91.3799 7.71582 91.3799 7.7159C91.38 7.71613 91.38 7.71636 91.9692 7.60947ZM92.1795 8.88723C92.5291 8.53762 92.7269 7.98576 92.537 7.41916L91.4014 7.79978C91.4264 7.87437 91.4093 7.9637 91.3326 8.04036L92.1795 8.88723ZM90.9017 9.48978C91.3607 9.48978 91.8986 9.32881 92.2541 8.79631L91.258 8.13128C91.2139 8.19733 91.1678 8.23119 91.121 8.25245C91.0692 8.27603 90.9975 8.29212 90.9017 8.29212V9.48978ZM88.392 9.85528C88.9035 10.1667 88.9033 10.1671 88.9031 10.1674C88.903 10.1675 88.9028 10.1679 88.9026 10.1681C88.9024 10.1686 88.9021 10.169 88.9018 10.1694C88.9013 10.1703 88.9008 10.1711 88.9003 10.1718C88.8994 10.1733 88.8986 10.1746 88.8979 10.1757C88.8965 10.1778 88.8957 10.1791 88.8954 10.1796C88.8947 10.1806 88.8961 10.1784 88.8998 10.1735C88.9071 10.1637 88.9234 10.1431 88.9499 10.115C89.0026 10.0589 89.0965 9.97232 89.2425 9.88143C89.5294 9.70276 90.046 9.48978 90.9017 9.48978V8.29212C89.8348 8.29212 89.0967 8.56131 88.6093 8.86481C88.3682 9.01499 88.1951 9.16945 88.0777 9.29421C88.0191 9.35648 87.9745 9.41121 87.9422 9.45417C87.9261 9.47566 87.913 9.49422 87.9028 9.50933C87.8977 9.51689 87.8933 9.52359 87.8896 9.52937C87.8878 9.53226 87.8861 9.53492 87.8846 9.53734C87.8838 9.53855 87.8831 9.5397 87.8824 9.54079C87.8821 9.54134 87.8818 9.54187 87.8814 9.54238C87.8813 9.54264 87.8811 9.54301 87.881 9.54314C87.8807 9.54351 87.8805 9.54388 88.392 9.85528ZM88.7352 10.4302C88.772 10.3675 88.8079 10.3063 88.8361 10.2609C88.8428 10.2501 88.8482 10.2415 88.8524 10.235C88.857 10.228 88.8586 10.2257 88.8579 10.2267C88.8575 10.2273 88.8554 10.2302 88.8519 10.2348C88.8488 10.2388 88.8415 10.2482 88.8308 10.2601C88.8229 10.269 88.7986 10.296 88.7615 10.3256C88.7427 10.3405 88.7079 10.3664 88.6594 10.3908C88.6159 10.4127 88.5208 10.4541 88.392 10.4541V9.25645C88.2624 9.25645 88.1663 9.29821 88.1217 9.32063C88.072 9.3456 88.0358 9.37241 88.0157 9.38844C87.9757 9.42026 87.948 9.4506 87.9362 9.46383C87.9101 9.49318 87.8901 9.52091 87.8804 9.5347C87.858 9.56625 87.8356 9.60159 87.8178 9.63038C87.7806 9.69055 87.7367 9.76538 87.7022 9.82423L88.7352 10.4302ZM88.4259 10.7971C88.5152 10.7454 88.5696 10.6813 88.5733 10.6771C88.5902 10.6582 88.6027 10.6419 88.6087 10.6338C88.6216 10.6167 88.6317 10.6014 88.6369 10.5935C88.6484 10.5759 88.66 10.557 88.6692 10.5418C88.6884 10.5102 88.7124 10.4691 88.7352 10.4302L87.7022 9.82423C87.6778 9.86581 87.6584 9.89884 87.6444 9.92206C87.6369 9.93432 87.6345 9.93806 87.6354 9.93673C87.6359 9.93597 87.6372 9.93392 87.6393 9.93095C87.6411 9.92825 87.6449 9.92278 87.6502 9.9157C87.6545 9.90997 87.6655 9.89558 87.6812 9.87806C87.6891 9.86919 87.7027 9.85451 87.721 9.83766C87.7305 9.82899 87.7432 9.81781 87.759 9.80557C87.7743 9.79369 87.7968 9.77749 87.8255 9.76084L88.4259 10.7971ZM91.4178 21.2937C89.8332 18.5998 88.7953 16.1996 88.3336 14.3142C88.1026 13.3707 88.0224 12.5821 88.0751 11.963C88.1279 11.3429 88.3085 10.943 88.5491 10.7024L87.7023 9.85555C87.1955 10.3623 86.9491 11.0701 86.8818 11.8615C86.8143 12.6538 86.9209 13.5804 87.1703 14.599C87.6695 16.6376 88.7669 19.1494 90.3855 21.901L91.4178 21.2937ZM91.5765 22.6406C91.7082 22.2444 91.7809 21.6316 91.326 21.1748L90.4774 22.0199C90.4775 22.0201 90.4768 22.0193 90.4758 22.0178C90.4748 22.0163 90.4742 22.0152 90.4741 22.0149C90.4738 22.0141 90.4768 22.0207 90.4785 22.0387C90.4821 22.0791 90.4763 22.1537 90.44 22.2628L91.5765 22.6406ZM90.5569 23.6602C91.0573 23.4939 91.4104 23.1389 91.5764 22.641L90.4401 22.2623C90.393 22.4038 90.3198 22.4769 90.1791 22.5237L90.5569 23.6602ZM89.045 25.7615C89.045 24.8475 89.6266 23.9989 90.5727 23.6547L90.1632 22.5292C88.7612 23.0394 87.8474 24.3258 87.8474 25.7615H89.045ZM89.045 28.4311V25.7615H87.8474V28.4311H89.045ZM91.0936 30.7209C89.8778 30.5475 89.045 29.6114 89.045 28.4311H87.8474C87.8474 30.2399 89.1512 31.6536 90.9246 31.9065L91.0936 30.7209Z" fill="#274642"/>
<circle cx="136.43" cy="71.7526" r="20.4208" fill="#E3EDC3" stroke="#274642" stroke-width="2.24561"/>
<path fill-rule="evenodd" clip-rule="evenodd" d="M142.382 65.2756C141.914 64.8079 141.156 64.8079 140.688 65.2756L136.566 69.3984L132.445 65.2779C131.977 64.8102 131.219 64.8102 130.751 65.2779L129.958 66.0713C129.49 66.539 129.49 67.2973 129.958 67.765L134.078 71.8855L129.946 76.0175C129.479 76.4852 129.479 77.2435 129.946 77.7112L130.74 78.5046C131.208 78.9723 131.966 78.9723 132.434 78.5046L136.566 74.3726L140.7 78.5069C141.168 78.9746 141.926 78.9746 142.394 78.5069L143.187 77.7135C143.655 77.2458 143.655 76.4875 143.187 76.0198L139.053 71.8855L143.175 67.7627C143.643 67.295 143.643 66.5367 143.175 66.069L142.382 65.2756Z" fill="#274642"/>
</svg>
