<svg width="80" height="80" viewBox="0 0 80 80" fill="none" xmlns="http://www.w3.org/2000/svg">
<rect x="31.666" y="46" width="16" height="26" fill="#E3EDC3"/>
<rect width="14" height="18" transform="matrix(1 0 0 -1 54 60)" fill="#E3EDC3"/>
<rect width="50" height="14" transform="matrix(1 0 0 -1 15 22)" fill="#E3EDC3"/>
<rect width="14" height="18" transform="matrix(1 0 0 -1 13 60)" fill="#E3EDC3"/>
<path d="M26.2336 40.6475H12.1159C11.4662 40.6475 10.9395 41.1743 10.9395 41.824V59.9128C10.9395 60.5625 11.4662 61.0893 12.1159 61.0893H26.2336C26.8833 61.0893 27.41 60.5625 27.41 59.9128V41.824C27.41 41.1743 26.8833 40.6475 26.2336 40.6475ZM25.0571 58.7363H13.2924V43.0005H25.0571V58.7363ZM53.768 61.0893H67.8857C68.5354 61.0893 69.0622 60.5625 69.0622 59.9128V41.824C69.0622 41.1743 68.5354 40.6475 67.8857 40.6475H53.768C53.1183 40.6475 52.5916 41.1743 52.5916 41.824V59.9128C52.5916 60.5625 53.1183 61.0893 53.768 61.0893ZM54.9445 43.0005H66.7092V58.7363H54.9445V43.0005Z" fill="#274642"/>
<path d="M2.35225 71.3097C1.70255 71.3097 1.17578 71.8365 1.17578 72.4862C1.17578 73.1359 1.70255 73.6627 2.35225 73.6627C27.368 73.6627 52.5234 73.6627 77.6464 73.6627C78.2961 73.6627 78.8228 73.1359 78.8228 72.4862C78.8228 71.8365 78.2961 71.3097 77.6464 71.3097H74.8907V23.1124H77.6464C78.2961 23.1124 78.8228 22.5856 78.8228 21.9359C78.8228 21.2862 78.2961 20.7594 77.6464 20.7594C77.5345 20.7594 67.0767 20.7594 66.5882 20.7594V8.69083H69.3795C70.0292 8.69083 70.5559 8.16406 70.5559 7.51436C70.5559 6.86466 70.0292 6.33789 69.3795 6.33789C52.0796 6.33789 40.0174 6.33789 10.6191 6.33789C9.96944 6.33789 9.44267 6.86466 9.44267 7.51436C9.44267 8.16406 9.96944 8.69083 10.6191 8.69083H13.4098V20.7594C13.1042 20.7594 2.83903 20.7594 2.35225 20.7594C1.70255 20.7594 1.17578 21.2862 1.17578 21.9359C1.17578 22.5856 1.70255 23.1124 2.35225 23.1124H5.10788V71.3097H2.35225ZM38.8205 71.3057H32.9382V46.9531H38.8205V71.3057ZM47.0558 71.3057H41.1735V46.9531H47.0558V71.3057ZM15.7628 8.69083H64.2353V20.7594H15.7628V8.69083ZM7.46082 23.1124C20.1548 23.1124 59.8221 23.1124 72.5378 23.1124V71.3097H49.4088V45.7767C49.4088 45.127 48.882 44.6002 48.2323 44.6002H31.7617C31.112 44.6002 30.5852 45.127 30.5852 45.7767V71.3097H7.46082V23.1124Z" fill="#274642"/>
<path d="M11.5602 29.3499V31.3748H14.3265V32.5698H11.5602V34.6722H14.6584V35.9225H10V28.1106H14.6584V29.3499H11.5602Z" fill="#587E85"/>
<path d="M22.4304 35.9225H20.8702L17.3737 30.6113V35.9225H15.8135V28.1106H17.3737L20.8702 33.4661V28.1106H22.4304V35.9225Z" fill="#587E85"/>
<path d="M29.1534 28.1106V29.3499H26.9957V35.9225H25.4355V29.3499H23.2889V28.1106H29.1534Z" fill="#587E85"/>
<path d="M31.5724 29.3499V31.3748H34.3387V32.5698H31.5724V34.6722H34.6707V35.9225H30.0123V28.1106H34.6707V29.3499H31.5724Z" fill="#587E85"/>
<path d="M39.8977 35.9225L38.072 32.8797H37.3859V35.9225H35.8258V28.1106H38.8023C39.7096 28.1106 40.3993 28.332 40.8714 28.7746C41.3509 29.2172 41.5907 29.7999 41.5907 30.5228C41.5907 31.113 41.4247 31.6072 41.0927 32.0055C40.7682 32.4039 40.2961 32.6694 39.6764 32.8022L41.6239 35.9225H39.8977ZM37.3859 31.8064H38.6695C39.5621 31.8064 40.0084 31.4117 40.0084 30.6224C40.0084 30.2462 39.8977 29.9548 39.6764 29.7483C39.4625 29.5343 39.1268 29.4274 38.6695 29.4274H37.3859V31.8064Z" fill="#587E85"/>
<path d="M44.2044 33.0235V35.9225H42.6442V28.1106H45.4879C46.41 28.1106 47.1034 28.332 47.5682 28.7746C48.0403 29.2172 48.2763 29.8183 48.2763 30.5781C48.2763 31.3232 48.0329 31.917 47.546 32.3596C47.0665 32.8022 46.3805 33.0235 45.4879 33.0235H44.2044ZM45.3219 31.7732C46.2367 31.7732 46.694 31.3748 46.694 30.5781C46.694 30.1872 46.5871 29.8884 46.3731 29.6819C46.1592 29.4753 45.8088 29.3721 45.3219 29.3721H44.2044V31.7732H45.3219Z" fill="#587E85"/>
<path d="M53.3617 35.9225L51.5359 32.8797H50.8499V35.9225H49.2897V28.1106H52.2662C53.1736 28.1106 53.8633 28.332 54.3354 28.7746C54.8149 29.2172 55.0546 29.7999 55.0546 30.5228C55.0546 31.113 54.8887 31.6072 54.5567 32.0055C54.2321 32.4039 53.76 32.6694 53.1404 32.8022L55.0878 35.9225H53.3617ZM50.8499 31.8064H52.1335C53.026 31.8064 53.4723 31.4117 53.4723 30.6224C53.4723 30.2462 53.3617 29.9548 53.1404 29.7483C52.9265 29.5343 52.5908 29.4274 52.1335 29.4274H50.8499V31.8064Z" fill="#587E85"/>
<path d="M57.6683 28.1106V35.9225H56.1082V28.1106H57.6683Z" fill="#587E85"/>
<path d="M64.4463 33.787C64.4463 34.1853 64.3467 34.5542 64.1476 34.8935C63.9484 35.2254 63.6533 35.4947 63.2624 35.7012C62.8714 35.9004 62.3956 36 61.835 36C61.2817 36 60.7875 35.9078 60.3522 35.7234C59.917 35.5316 59.5666 35.2586 59.3011 34.9046C59.0429 34.5505 58.8953 34.1374 58.8584 33.6653H60.5182C60.5551 33.9825 60.6805 34.248 60.8944 34.462C61.1157 34.6685 61.4071 34.7718 61.7686 34.7718C62.0931 34.7718 62.3403 34.687 62.5099 34.5173C62.687 34.3403 62.7755 34.1153 62.7755 33.8423C62.7755 33.5989 62.7054 33.3997 62.5653 33.2448C62.4251 33.0825 62.2481 32.9534 62.0341 32.8575C61.8202 32.7616 61.5251 32.651 61.1489 32.5256C60.6621 32.3633 60.2637 32.2047 59.9539 32.0498C59.6441 31.8875 59.3785 31.6551 59.1572 31.3527C58.9433 31.0503 58.8363 30.6556 58.8363 30.1687C58.8363 29.4975 59.0761 28.97 59.5555 28.5864C60.0424 28.1955 60.6842 28 61.4809 28C62.3071 28 62.9636 28.1992 63.4505 28.5975C63.9447 28.9959 64.225 29.527 64.2914 30.1909H62.6095C62.5653 29.9106 62.4472 29.6819 62.2554 29.5048C62.0636 29.3204 61.8018 29.2282 61.4698 29.2282C61.1821 29.2282 60.9497 29.3057 60.7727 29.4606C60.5957 29.6081 60.5071 29.8257 60.5071 30.1134C60.5071 30.3421 60.5735 30.5339 60.7063 30.6888C60.8465 30.8363 61.0198 30.958 61.2264 31.0539C61.4403 31.1498 61.728 31.2568 62.0895 31.3748C62.5911 31.5519 62.9968 31.7178 63.3066 31.8728C63.6238 32.0277 63.8931 32.26 64.1144 32.5698C64.3357 32.8797 64.4463 33.2854 64.4463 33.787Z" fill="#587E85"/>
<path d="M67.1558 29.3499V31.3748H69.9221V32.5698H67.1558V34.6722H70.254V35.9225H65.5956V28.1106H70.254V29.3499H67.1558Z" fill="#587E85"/>
<path d="M39.615 18.245C39.455 18.245 39.315 18.19 39.195 18.08C39.085 17.96 39.03 17.82 39.03 17.66V15.2H36.57C36.41 15.2 36.275 15.145 36.165 15.035C36.055 14.925 36 14.79 36 14.63C36 14.46 36.055 14.32 36.165 14.21C36.275 14.1 36.41 14.045 36.57 14.045H39.03V11.585C39.03 11.415 39.085 11.275 39.195 11.165C39.315 11.055 39.455 11 39.615 11C39.785 11 39.925 11.055 40.035 11.165C40.145 11.275 40.2 11.415 40.2 11.585V14.045H42.645C42.815 14.045 42.955 14.1 43.065 14.21C43.175 14.32 43.23 14.46 43.23 14.63C43.23 14.79 43.175 14.925 43.065 15.035C42.955 15.145 42.815 15.2 42.645 15.2H40.2V17.66C40.2 17.82 40.145 17.96 40.035 18.08C39.925 18.19 39.785 18.245 39.615 18.245Z" fill="#274642"/>
</svg>
