<svg width="16" height="16" viewBox="0 0 16 16" fill="none" xmlns="http://www.w3.org/2000/svg">
<path fill-rule="evenodd" clip-rule="evenodd" d="M8.50321 0.71749C8.43269 0.690845 8.35745 0.68206 8.28407 0.690715C8.1865 0.677661 8.08472 0.70436 8.00441 0.770813L5.99948 2.42375L3.35769 2.42401H3.11921C2.91876 2.42401 2.75627 2.58651 2.75627 2.78696V2.88915L2.75627 2.88983L2.75563 5.1085L0.819975 6.71036L0.809087 6.72124L0.774607 6.75572L0.75646 6.7775C0.746218 6.79252 0.737118 6.8083 0.72924 6.82468L0.718351 6.84465C0.697931 6.89095 0.687423 6.94102 0.6875 6.99164V7.09451V15.4119V15.5148L0.693759 15.5892L0.710529 15.6558C0.773735 15.8492 0.949827 15.9806 1.1533 15.9806H15.5131L15.5787 15.9757L15.6549 15.9577C15.7281 15.9344 15.7919 15.8953 15.8441 15.8425C15.9316 15.7541 15.9801 15.6345 15.9789 15.5101L15.9789 7.09269L15.9752 7.03531L15.9668 6.98795C15.96 6.95788 15.9509 6.93054 15.9393 6.9042L15.9125 6.85362L15.8942 6.82385L15.8679 6.79093L15.8163 6.73868L13.9115 5.1618L13.9119 2.88983L13.9057 2.8154L13.8889 2.74874L13.8638 2.68668C13.7862 2.5278 13.627 2.42403 13.4461 2.42403L13.3449 2.42402L13.3433 2.42401H13.3105L10.6036 2.42374L8.63562 0.794467L8.57544 0.752525L8.50321 0.71749ZM15.5049 15.7752L1.1533 15.7748L1.15317 15.7748H15.4102C15.5071 15.7748 15.6 15.7361 15.6682 15.6672C15.7363 15.5984 15.7741 15.5051 15.7732 15.4083V7.09563L15.7734 7.09976L15.7732 15.5111L15.7686 15.5631C15.759 15.6139 15.7346 15.6607 15.6979 15.6977C15.659 15.737 15.6087 15.7628 15.5543 15.7716L15.5049 15.7752ZM13.7066 2.89901L13.7062 5.10798L13.7062 5.10797V2.89402L13.7066 2.89901ZM15.0473 7.71208V7.76333L13.6696 8.79046L13.6346 8.82844C13.6138 8.84942 13.5971 8.86267 13.579 8.87376L13.5276 8.89864L8.48857 12.654L8.43886 12.6831C8.39075 12.7045 8.33737 12.7107 8.28598 12.7012C8.3431 12.6924 8.39856 12.6698 8.4472 12.6336L13.4703 8.88801C13.5328 8.864 13.5875 8.82318 13.6282 8.77005L15.0473 7.71208ZM13.8127 8.93551L15.047 8.01917V15.045L1.6187 15.0484V8.02054L2.87553 8.96071L2.90677 8.99703L2.95598 9.03708C2.98899 9.06077 3.02262 9.07869 3.05816 9.09234L8.0549 12.8189L8.1206 12.8595L8.19218 12.8881C8.33726 12.9336 8.49132 12.9085 8.61151 12.8189L13.6347 9.07333L13.6783 9.05367L13.7307 9.01784C13.7628 8.9929 13.7895 8.96572 13.8127 8.93551ZM12.9803 3.1499V3.14991H3.58501L3.48215 3.25277L3.48215 3.1499H12.9803ZM8.29972 11.8385L12.9803 8.34907V3.35494H3.6875V8.39974L8.29972 11.8385ZM8.69705 5.50903L8.7999 5.61189L8.7995 6.82466L9.59879 6.82468H9.90985L10.0127 6.8247L10.1156 6.92755V7.65344L10.0127 7.7563L8.7995 7.75586L8.7999 8.9691L8.69705 9.07196H7.97116L7.86831 8.9691V8.86623L7.8683 7.75586L6.6555 7.7563L6.55264 7.65344V7.55057V6.92755V6.82468H7.06928L7.8683 6.82466L7.86831 5.61189V5.50902H8.59419V5.50903H8.69705ZM8.59419 7.65344L8.69705 7.55058L8.73399 7.55057H8.59419L8.59419 7.65344ZM2.75627 6.10792L1.67305 7.00475L1.63841 6.97893L2.75627 6.05343V6.10792ZM13.9115 6.37414V7.6553L14.728 7.04688L13.9115 6.37414ZM2.75561 6.37483L1.90739 7.077L2.75561 7.70923V6.37483ZM8.26406 1.54401L7.20806 2.42401H7.14242L8.23125 1.51666L8.26406 1.54401ZM7.52887 2.42374L8.3339 1.75311L9.13893 2.42374H7.52887Z" fill="#E76F2A"/>
</svg>
