<svg width="583" height="453" viewBox="0 0 583 453" fill="none" xmlns="http://www.w3.org/2000/svg">
<path fill-rule="evenodd" clip-rule="evenodd" d="M299.508 0.106557C271.803 -0.154341 104.016 -2.7489 99.0835 43.9912C94.358 88.7581 159.372 72.3687 160.005 92.2324C160.679 113.099 148.281 119.138 113.675 117.813C98.677 117.241 51.3458 122.541 50.5903 152.407C49.8349 182.106 102.689 178.358 100.074 203C98.5576 231.008 58.415 237.1 42.603 244.505C25.4204 253.487 -6.19845 268.299 1.06623 300.092C10.6287 336.96 71.3482 330.33 94.219 334.871C109.495 337.351 158.064 341.634 151.156 374.302C147.527 393.937 107.656 395.082 115.279 420.274C122.992 443.826 192.517 448.48 206.603 449.243C265.067 452.404 393.446 457.573 450.627 433.463C471.649 424.688 490.203 414.123 488.054 382.61C487.01 354.468 471.823 350.342 497.4 328.593C513.567 314.595 544.521 315.721 542.69 274.864C541.701 252.821 485.301 243.669 486.551 220.603C488.513 184.358 557.748 215.135 558.003 151.022C558.157 111.005 432.199 133.393 433.484 93.8095C431.786 77.744 459.512 70.9266 458.321 53.1475C458.971 24.6768 426.347 3.60836 299.508 0.106557Z" fill="white"/>
<path fill-rule="evenodd" clip-rule="evenodd" d="M177.156 289.741C177.02 289.825 176.856 289.874 176.653 289.874H80.2144C79.7882 289.874 79.3593 289.575 79.2609 289.149C78.2064 284.566 83.5103 280.963 87.0922 282.721C87.5971 280.392 89.9055 278.786 92.3174 279.083C90.994 274.898 92.8263 270.66 97.2239 268.628C101.267 266.748 105.035 268.293 107.434 271.353C108.815 264.257 114.939 258.121 122.398 257.606C126.452 257.332 130.742 258.472 133.897 261.13C137.045 263.77 138.071 266.664 138.858 270.211C141.213 266.827 145.025 265.231 149.41 266.59C153.74 267.933 154.287 272.351 154.087 276.323C157.576 273.429 161.77 272.022 166.323 274.759C170.103 277.033 170.92 280.685 171.077 284.654C174.183 282.805 177.398 284.638 177.647 288.886C177.67 289.321 177.455 289.604 177.156 289.741Z" fill="#F4F7FB"/>
<path fill-rule="evenodd" clip-rule="evenodd" d="M446.169 89.9573C446.169 108.437 496.322 111.844 498.926 89.9573C501.531 68.0681 446.169 62.2143 446.169 89.9573Z" fill="white"/>
<path fill-rule="evenodd" clip-rule="evenodd" d="M41.247 374.186C41.247 392.667 103.311 396.24 105.56 374.186C108.334 346.998 41.247 341.825 41.247 374.186Z" fill="white"/>
<path fill-rule="evenodd" clip-rule="evenodd" d="M506 364.533C506 386.45 579.605 390.687 582.273 364.533C585.563 332.289 506 326.155 506 364.533Z" fill="white"/>
<path fill-rule="evenodd" clip-rule="evenodd" d="M36.0008 91.2613C36.0008 103.327 70.2112 105.659 71.452 91.2613C72.9812 73.5111 36.0008 70.1351 36.0008 91.2613Z" fill="white"/>
<path fill-rule="evenodd" clip-rule="evenodd" d="M232.042 306.136C233.062 301.005 225.469 296.289 219.619 298.181C220.573 294.662 219.486 291.468 214.3 289.895C212.139 289.24 209.542 289.247 207.26 289.864C211.352 281.712 207.544 272.429 194.902 270.511C181.156 268.423 165.9 275.167 163.172 286.018C151.994 275.038 128.307 288.193 135.299 300.83C130.98 300.144 126.53 302.589 126.268 306.22C121.895 304.736 118.45 309.191 121.146 313.03C121.343 313.31 121.746 313.483 122.148 313.483H238.82C239.117 313.483 239.351 313.41 239.529 313.296C239.714 313.19 239.862 313.031 239.938 312.811C241.267 309.028 236.374 305.44 232.042 306.136Z" fill="#F4F7FB"/>
<path fill-rule="evenodd" clip-rule="evenodd" d="M469.46 319.921C469.914 317.652 466.554 315.567 463.967 316.402C464.391 314.845 463.908 313.434 461.616 312.738C460.658 312.451 459.512 312.453 458.504 312.725C460.311 309.121 458.627 305.016 453.037 304.168C446.958 303.243 440.213 306.228 439.005 311.026C434.062 306.168 423.589 311.987 426.681 317.574C424.771 317.27 422.801 318.352 422.685 319.958C420.751 319.302 419.228 321.273 420.423 322.968C420.509 323.092 420.686 323.171 420.865 323.171H472.457C472.587 323.171 472.693 323.138 472.772 323.087C472.853 323.039 472.919 322.969 472.95 322.871C473.539 321.201 471.378 319.612 469.46 319.921Z" fill="#F4F7FB"/>
<path fill-rule="evenodd" clip-rule="evenodd" d="M441.524 182.848C441.626 182.91 441.748 182.946 441.899 182.946H513.633C513.953 182.946 514.271 182.724 514.342 182.408C515.129 178.998 511.183 176.319 508.519 177.626C508.144 175.893 506.426 174.697 504.632 174.92C505.616 171.808 504.254 168.655 500.983 167.141C497.974 165.744 495.171 166.894 493.388 169.169C492.361 163.889 487.804 159.325 482.258 158.945C479.241 158.739 476.049 159.589 473.703 161.563C471.361 163.53 470.598 165.683 470.013 168.318C468.261 165.805 465.425 164.615 462.162 165.626C458.942 166.625 458.536 169.913 458.684 172.867C456.087 170.714 452.97 169.668 449.583 171.704C446.771 173.394 446.163 176.111 446.046 179.063C443.736 177.688 441.344 179.053 441.16 182.211C441.142 182.536 441.302 182.746 441.524 182.848Z" fill="#F4F7FB"/>
<path fill-rule="evenodd" clip-rule="evenodd" d="M254.535 54.0797C254.607 54.1216 254.686 54.1478 254.788 54.1478H303.268C303.483 54.1478 303.698 53.9971 303.747 53.7808C304.278 51.4799 301.612 49.668 299.81 50.5517C299.558 49.3809 298.399 48.572 297.183 48.7214C297.85 46.6198 296.931 44.4894 294.718 43.4655C292.685 42.5228 290.794 43.2976 289.586 44.8368C288.892 41.2695 285.812 38.1833 282.063 37.9276C280.024 37.7886 277.869 38.3629 276.283 39.6962C274.7 41.0256 274.187 42.4795 273.789 44.2626C272.606 42.5635 270.688 41.7598 268.483 42.4428C266.306 43.1167 266.032 45.3389 266.134 47.3357C264.378 45.8804 262.272 45.1751 259.981 46.5503C258.08 47.691 257.672 49.5277 257.592 51.5218C256.032 50.5936 254.417 51.5153 254.29 53.6496C254.278 53.8699 254.386 54.0115 254.535 54.0797Z" fill="#F4F7FB"/>
<path d="M279.646 110L189 267H370.292L279.646 110Z" fill="#008388"/>
<path d="M279.942 132.744L209 255.629H350.893L279.942 132.744Z" fill="white"/>
<path d="M272.997 168.298H287.369L286.402 221.277H273.965L272.997 168.298Z" fill="#008388"/>
<path d="M286.423 227.916H273.996V240.343H286.423V227.916Z" fill="#008388"/>
</svg>
