<svg xmlns="http://www.w3.org/2000/svg" width="583" height="452" viewBox="0 0 583 452">
    <g fill="none" fill-rule="evenodd">
        <path fill="#FFF" d="M300.308.107C272.603-.154 104.816-2.75 99.884 43.99c-4.726 44.767 60.288 28.378 60.921 48.241.674 20.867-11.724 26.906-46.33 25.581-14.998-.572-62.33 4.728-63.085 34.594-.755 29.699 52.099 25.95 49.484 50.593-1.516 28.008-41.659 34.1-57.471 41.505-17.183 8.982-48.801 23.794-41.537 55.587 9.563 36.868 70.282 30.238 93.153 34.78 15.276 2.479 63.845 6.762 56.937 39.43-3.63 19.635-43.5 20.78-35.877 45.972 7.713 23.552 77.238 28.206 91.324 28.969 58.464 3.16 186.843 8.33 244.024-15.78 21.022-8.775 39.576-19.34 37.427-50.853-1.044-28.142-16.23-32.268 9.346-54.017 16.167-13.998 47.121-12.872 45.29-53.73-.989-22.042-57.39-31.194-56.14-54.26 1.963-36.245 71.198-5.468 71.453-69.58.154-40.018-125.804-17.63-124.519-57.213-1.698-16.066 26.028-22.883 24.837-40.663.65-28.47-31.974-49.539-158.813-53.04" transform="translate(-.8)"/>
        <path fill="#F4F7FB" d="M177.956 289.74c-.136.085-.3.134-.503.134H81.014c-.426 0-.855-.299-.953-.725-1.055-4.583 4.25-8.186 7.831-6.428.505-2.33 2.813-3.935 5.225-3.638-1.323-4.185.51-8.423 4.907-10.455 4.043-1.88 7.811-.335 10.21 2.725 1.381-7.096 7.505-13.232 14.964-13.747 4.054-.274 8.344.866 11.5 3.524 3.147 2.64 4.173 5.534 4.96 9.081 2.355-3.384 6.167-4.98 10.552-3.62 4.33 1.342 4.877 5.76 4.677 9.732 3.49-2.894 7.683-4.301 12.236-1.564 3.78 2.274 4.597 5.926 4.754 9.895 3.106-1.849 6.32-.016 6.57 4.232.023.435-.192.718-.49.855" transform="translate(-.8)"/>
        <path fill="#FFF" d="M446.97 89.957c0 18.48 50.152 21.887 52.756 0 2.605-21.889-52.757-27.743-52.757 0M42.047 374.186c0 18.481 62.064 22.054 64.313 0 2.774-27.188-64.313-32.361-64.313 0M506.8 364.533c0 21.917 73.605 26.154 76.273 0 3.29-32.244-76.273-38.378-76.273 0M36.8 91.261c0 12.066 34.211 14.398 35.452 0 1.53-17.75-35.451-21.126-35.451 0" transform="translate(-.8)"/>
        <path fill="#F4F7FB" d="M232.842 306.136c1.02-5.131-6.573-9.847-12.423-7.955.954-3.519-.133-6.713-5.319-8.286-2.161-.655-4.758-.648-7.04-.031 4.092-8.152.284-17.435-12.358-19.353-13.746-2.088-29.002 4.656-31.73 15.507-11.178-10.98-34.865 2.175-27.873 14.812-4.319-.686-8.769 1.759-9.031 5.39-4.373-1.484-7.818 2.971-5.122 6.81.197.28.6.453 1.002.453H239.62c.297 0 .53-.073.71-.187.184-.106.332-.265.408-.485 1.329-3.783-3.564-7.37-7.896-6.675M470.26 319.921c.454-2.27-2.906-4.354-5.493-3.519.424-1.557-.059-2.968-2.351-3.664-.958-.287-2.104-.285-3.112-.013 1.807-3.604.123-7.71-5.467-8.557-6.079-.925-12.824 2.06-14.032 6.858-4.943-4.858-15.416.96-12.324 6.548-1.91-.304-3.88.778-3.996 2.384-1.934-.656-3.457 1.315-2.262 3.01.086.124.263.203.442.203h51.592c.13 0 .236-.033.315-.084.081-.048.147-.118.178-.216.59-1.67-1.572-3.26-3.49-2.95M442.324 182.848c.102.062.224.098.375.098h71.734c.32 0 .638-.222.71-.538.786-3.41-3.16-6.089-5.824-4.782-.375-1.733-2.093-2.929-3.887-2.706.984-3.112-.378-6.265-3.65-7.78-3.008-1.396-5.81-.246-7.594 2.029-1.027-5.28-5.584-9.844-11.13-10.224-3.017-.206-6.21.644-8.555 2.618-2.342 1.967-3.105 4.12-3.69 6.755-1.752-2.513-4.588-3.703-7.85-2.692-3.22 1-3.627 4.287-3.479 7.241-2.597-2.153-5.714-3.199-9.1-1.163-2.813 1.69-3.421 4.407-3.538 7.36-2.31-1.376-4.702-.011-4.886 3.147-.018.325.142.535.364.637M255.335 54.08c.072.042.15.068.253.068h48.48c.215 0 .43-.15.479-.367.531-2.301-2.135-4.113-3.937-3.23-.252-1.17-1.411-1.979-2.627-1.83.667-2.101-.252-4.232-2.465-5.256-2.033-.942-3.924-.167-5.132 1.372-.694-3.568-3.774-6.654-7.523-6.91-2.04-.138-4.194.436-5.78 1.77-1.583 1.329-2.096 2.783-2.494 4.566-1.183-1.7-3.1-2.503-5.306-1.82-2.177.674-2.45 2.896-2.349 4.893-1.756-1.456-3.862-2.16-6.153-.786-1.9 1.14-2.309 2.978-2.389 4.972-1.56-.928-3.175-.007-3.302 2.128-.012.22.096.361.245.43" transform="translate(-.8)"/>
    </g>
</svg>
