<?xml version="1.0" encoding="UTF-8"?>
<svg width="25px" height="19px" viewBox="0 0 25 19" version="1.1" xmlns="http://www.w3.org/2000/svg" xmlns:xlink="http://www.w3.org/1999/xlink">
    <!-- Generator: Sketch 61.2 (89653) - https://sketch.com -->
    <title>eye-off</title>
    <desc>Created with Sketch.</desc>
    <g id="Symbols" stroke="none" stroke-width="1" fill="none" fill-rule="evenodd">
        <g id="eye-off" transform="translate(0.000000, 0.000000)" fill="#767676" fill-rule="nonzero">
            <path d="M15.4458984,6.42880859 C15.2427734,6.22568359 14.9125488,6.22568359 14.7094238,6.42880859 C14.5062988,6.63193359 14.5062988,6.96318359 14.7094238,7.1652832 C15.2990234,7.75488281 15.6250488,8.53925781 15.6250488,9.3746582 C15.6250488,11.0975586 14.2229492,12.4996582 12.5000488,12.4996582 C11.6646484,12.4996582 10.8802734,12.1746582 10.2906738,11.5840332 C10.0875488,11.3809082 9.75732422,11.3809082 9.55419922,11.5840332 C9.35107422,11.7861328 9.35107422,12.1173828 9.55419922,12.3205078 C10.3395996,13.1080078 11.3864746,13.5413574 12.5000488,13.5413574 C14.7979492,13.5413574 16.6666992,11.6726074 16.6666992,9.37470703 C16.6666992,8.26108398 16.2333984,7.21420898 15.4458984,6.42880859 Z" id="Path"></path>
            <path d="M13.2260742,5.27983398 C12.9895996,5.23818359 12.7479492,5.20795898 12.5000488,5.20795898 C10.2021484,5.20795898 8.33339844,7.07670898 8.33339844,9.37460937 C8.33339844,9.62250977 8.36362305,9.86420898 8.40629883,10.1006348 C8.45107422,10.3527344 8.67089844,10.5308594 8.91777344,10.5308594 C8.94799805,10.5308594 8.97817383,10.5287598 9.00942383,10.5225098 C9.29169922,10.4725098 9.48129883,10.2016602 9.43129883,9.91938477 C9.39902344,9.74228516 9.37504883,9.56210938 9.37504883,9.37460937 C9.37504883,7.65170898 10.7771484,6.24960937 12.5000488,6.24960937 C12.6875488,6.24960937 12.8677734,6.27358398 13.0448242,6.30483398 C13.3219238,6.36108398 13.5979492,6.16523437 13.6479492,5.88295898 C13.6979492,5.60068359 13.5083984,5.32983398 13.2260742,5.27983398 Z" id="Path"></path>
            <path d="M24.8760742,9.03818359 C24.7583496,8.89858398 21.9406738,5.61005859 18.0541992,3.5965332 C17.8020996,3.46425781 17.4844238,3.56425781 17.3520996,3.82050781 C17.2198242,4.07573242 17.3198242,4.3902832 17.5760742,4.52260742 C20.5698242,6.07260742 22.9614746,8.49135742 23.7791992,9.37470703 C22.5375488,10.7194824 17.6510742,15.624707 12.5000488,15.624707 C10.7521484,15.624707 8.99067383,15.202832 7.26254883,14.3694824 C7.00629883,14.243457 6.69277344,14.352832 6.56777344,14.612207 C6.44174805,14.8705566 6.55112305,15.1819824 6.81049805,15.3069824 C8.68027344,16.2101074 10.594873,16.6663574 12.5000977,16.6663574 C18.9178223,16.6663574 24.6365723,9.99550781 24.8771973,9.71113281 C25.0416992,9.51733398 25.0406738,9.23295898 24.8760742,9.03818359 Z" id="Path"></path>
            <path d="M15.9177734,2.68295898 C14.732373,2.28398438 13.582373,2.08295898 12.5000488,2.08295898 C6.08232422,2.08295898 0.363574219,8.75380859 0.122949219,9.03818359 C-0.0291503906,9.21733398 -0.0416503906,9.4777832 0.0937988281,9.67255859 C0.165673828,9.77568359 1.88754883,12.220459 4.87192383,14.2027832 C4.96044922,14.2621582 5.05942383,14.2902832 5.15942383,14.2902832 C5.32714844,14.2902832 5.49277344,14.2090332 5.59277344,14.0559082 C5.75214844,13.8173828 5.68652344,13.4934082 5.44692383,13.3350586 C3.25527344,11.8777832 1.75527344,10.1184082 1.19379883,9.4027832 C2.39277344,8.10068359 7.31152344,3.1246582 12.5000488,3.1246582 C13.4698242,3.1246582 14.5083984,3.30800781 15.5854492,3.66943359 C15.8583496,3.76733398 16.1541992,3.61630859 16.2448242,3.34233398 C16.3365234,3.06943359 16.1906738,2.7746582 15.9177734,2.68295898 Z" id="Path"></path>
            <path d="M21.7219238,0.152734375 C21.5187988,-0.050390625 21.1885742,-0.050390625 20.9854492,0.152734375 L3.27714844,17.861084 C3.07402344,18.064209 3.07402344,18.3944336 3.27714844,18.5975586 C3.37924805,18.698584 3.51254883,18.7496582 3.64589844,18.7496582 C3.77924805,18.7496582 3.91254883,18.6986328 4.01362305,18.5975586 L21.7219238,0.889208984 C21.9250488,0.686083984 21.9250488,0.355859375 21.7219238,0.152734375 Z" id="Path"></path>
        </g>
    </g>
</svg>