<svg width="272" height="115" viewBox="0 0 272 115" fill="none" xmlns="http://www.w3.org/2000/svg">
<path fill-rule="evenodd" clip-rule="evenodd" d="M74.958 115H210.053C216.346 115 221.447 109.851 221.447 103.5C221.447 97.1487 216.346 92 210.053 92C210.053 92 200.287 86.8513 200.287 80.5C200.287 74.1487 206.719 69 214.653 69H231.213C237.505 69 242.606 63.8513 242.606 57.5C242.606 51.1487 237.505 46 231.213 46H195.404C201.697 46 206.798 40.8513 206.798 34.5C206.798 28.1487 201.697 23 195.404 23H260.511C266.803 23 271.904 17.8513 271.904 11.5C271.904 5.14873 266.803 0 260.511 0H101C94.708 0 89.6069 5.14873 89.6069 11.5C89.6069 17.8513 94.708 23 101 23H35.8943C29.6018 23 24.5007 28.1487 24.5007 34.5C24.5007 40.8513 29.6018 46 35.8943 46H76.5857C82.8782 46 87.9792 51.1487 87.9792 57.5C87.9792 63.8513 82.8782 69 76.5857 69H11.4795C5.18702 69 0.0859375 74.1487 0.0859375 80.5C0.0859375 86.8513 5.18702 92 11.4795 92H74.958C68.6655 92 63.5644 97.1487 63.5644 103.5C63.5644 109.851 68.6655 115 74.958 115ZM248.911 57.5033C248.911 63.8546 254.059 69.0033 260.411 69.0033C266.762 69.0033 271.911 63.8546 271.911 57.5033C271.911 51.152 266.762 46.0033 260.411 46.0033C254.059 46.0033 248.911 51.152 248.911 57.5033Z" fill="#EAEDE2"/>
<path d="M82.0273 55.8131C82.0273 84.012 99.1753 98.683 107.749 102.494L109.655 104.399L107.749 82.4876H96.3173L100.128 70.103H97.27L95.3646 69.1503L94.412 67.245V61.529L102.033 47.2391L109.655 40.5704H117.276L122.992 41.5231L135.377 51.0497L144.903 45.3337L147.761 43.4284L152.524 42.4757H156.335L160.146 44.3811L163.956 45.3337L167.767 47.2391L171.578 51.0497L177.294 68.1977V70.103L176.341 72.961H172.53L170.625 72.0083C170.625 72.0083 166.086 51.0497 164.909 57.7184C163.732 64.387 161.123 102.227 161.098 104.399C161.074 106.571 180.764 88.5191 183.962 79.6296C188.091 72.961 192.917 53.3362 179.199 28.1859C165.481 3.03552 134.741 3.09903 121.087 6.27458C108.067 11.0379 82.0273 27.6143 82.0273 55.8131Z" fill="white"/>
<mask id="mask0_3960_47166" style="mask-type:luminance" maskUnits="userSpaceOnUse" x="80" y="2" width="111" height="111">
<path d="M190.633 2.46338H80.1238V112.972H190.633V2.46338Z" fill="white"/>
</mask>
<g mask="url(#mask0_3960_47166)">
<circle cx="116.63" cy="31.0767" r="8.88019" fill="#E1EEC9"/>
<circle cx="154.126" cy="31.0767" r="8.88019" fill="#E1EEC9"/>
<circle cx="135.378" cy="59.6916" r="7.8935" fill="#E1EEC9"/>
<path d="M84.4666 36.211C87.2495 29.6317 91.2327 23.7222 96.3081 18.6478C101.382 13.5743 107.291 9.59013 113.871 6.80629C120.683 3.92584 127.92 2.46484 135.379 2.46484C142.837 2.46484 150.072 3.926 156.887 6.80816C163.466 9.59107 169.375 13.5743 174.45 18.6496C179.523 23.7231 183.508 29.6324 186.291 36.2128C189.172 43.0254 190.633 50.2611 190.633 57.7192C190.633 77.9985 179.553 96.616 161.716 106.305C161.16 106.606 160.484 106.58 159.953 106.236C159.423 105.893 159.122 105.286 159.171 104.655L162.948 55.3483C163.011 54.5279 163.643 53.867 164.458 53.7668C165.275 53.6647 166.047 54.1551 166.309 54.9344L171.38 70.1485C171.568 70.7109 171.964 71.164 172.5 71.4228C173.034 71.6817 173.635 71.7127 174.192 71.5103C175.314 71.1038 175.896 69.8988 175.519 68.7685L170.514 53.7712C169.657 51.2043 167.724 49.1507 165.21 48.1389C162.531 47.0596 158.467 45.3541 153.915 43.2075C150.887 44.6167 148.444 45.5173 146.444 46.2529C143.072 47.4935 140.845 48.3139 138.266 50.5353L138.143 50.6411L138.022 50.7104C138.302 50.9501 138.581 51.188 138.858 51.4213C141.658 53.7887 144.554 56.236 144.554 60.5749C144.554 63.5109 143.2 66.137 141.083 67.8617C146.579 70.2234 150.445 75.7318 150.445 82.1241V88.6397C150.445 91.1627 148.393 93.2145 145.87 93.2145H143.832L143.002 108.963C146.136 108.501 149.217 107.754 152.217 106.723C153.118 106.412 154.101 106.894 154.411 107.795C154.72 108.697 154.24 109.679 153.339 109.989C149.466 111.32 145.468 112.207 141.396 112.648C141.381 112.65 141.368 112.653 141.354 112.654C141.31 112.659 141.265 112.664 141.223 112.668C141.128 112.678 141.032 112.687 140.937 112.697C140.673 112.724 140.408 112.748 140.142 112.771C140.064 112.777 139.988 112.786 139.911 112.791C139.597 112.817 139.282 112.839 138.968 112.859C138.862 112.865 138.755 112.872 138.649 112.878C138.379 112.893 138.107 112.908 137.836 112.92C137.771 112.923 137.707 112.926 137.643 112.929C137.317 112.942 136.992 112.951 136.666 112.959C136.577 112.961 136.485 112.963 136.396 112.964C136.052 112.971 135.714 112.975 135.378 112.975C135.051 112.975 134.723 112.971 134.394 112.965C134.291 112.963 134.187 112.961 134.083 112.959C133.848 112.953 133.612 112.947 133.378 112.938C133.272 112.934 133.166 112.932 133.06 112.927C132.748 112.913 132.437 112.9 132.127 112.88C132.028 112.875 131.93 112.867 131.833 112.861C131.601 112.847 131.369 112.83 131.137 112.813C131.018 112.804 130.902 112.796 130.784 112.786C130.533 112.765 130.284 112.743 130.035 112.718C129.96 112.711 129.884 112.705 129.81 112.697C129.529 112.67 129.248 112.639 128.967 112.607C128.957 112.606 128.946 112.603 128.936 112.602C125.231 112.17 121.588 111.369 118.048 110.202C117.143 109.904 116.652 108.926 116.95 108.02C117.248 107.115 118.225 106.624 119.131 106.922C121.8 107.802 124.532 108.461 127.307 108.894L126.287 93.2155H125.336C122.262 93.2155 119.762 90.7143 119.762 87.6416V81.9766C119.762 77.8692 121.364 74.0089 124.274 71.1095C125.705 69.6839 127.366 68.5756 129.174 67.8189C127.089 66.0934 125.759 63.4882 125.759 60.576C125.759 57.6619 127.581 54.5873 131.176 51.438C131.609 51.0589 132.04 50.7025 132.459 50.3716C127.27 45.7538 123.677 43.0549 116.13 41.7596C111.806 42.4834 108.774 43.5389 106.378 45.1422C103.97 46.7547 102.019 49.0709 100.066 52.6458L95.5648 64.8912L95.5593 64.9067C95.0963 66.1309 95.6778 67.4889 96.8829 67.9986C97.4936 68.2556 98.1663 68.2556 98.7761 67.9967C99.1817 67.8245 99.5217 67.5501 99.776 67.2055L105.234 52.5931C105.568 51.6998 106.562 51.2458 107.457 51.5804C108.35 51.914 108.804 52.9084 108.469 53.8026L104.347 64.8274C104.349 65.0389 104.315 65.254 104.233 65.4636L103.311 67.8692C103.19 68.1865 103.041 68.4891 102.871 68.7753L98.4371 80.6331H108.373C109.267 80.6331 110.012 81.3149 110.092 82.2055L112.124 104.924C112.181 105.554 111.888 106.165 111.361 106.516C111.073 106.708 110.738 106.805 110.404 106.805C110.128 106.805 109.851 106.739 109.598 106.606C100.849 101.983 93.4803 95.0805 88.2883 86.6445C82.9467 77.9641 80.123 67.9628 80.123 57.721C80.123 50.2629 81.5841 43.0272 84.4663 36.2128L84.4666 36.211ZM153.913 39.3749C157.089 37.7652 161.847 34.6041 161.847 30.1222C161.847 25.9583 158.459 22.5704 154.295 22.5704C150.132 22.5704 146.744 25.9586 146.744 30.1222C146.743 32.2442 147.69 36.2222 153.914 39.3749H153.913ZM123.209 81.975V87.64C123.209 88.8095 124.161 89.7611 125.33 89.7611H127.899C128.81 89.7611 129.564 90.4675 129.622 91.3754L130.79 109.318C130.853 109.323 130.919 109.33 130.983 109.335C131.195 109.352 131.406 109.37 131.618 109.383C131.754 109.393 131.891 109.403 132.027 109.413C132.26 109.427 132.491 109.44 132.724 109.451C132.843 109.456 132.963 109.463 133.082 109.468C133.331 109.479 133.581 109.487 133.83 109.495C133.935 109.498 134.042 109.501 134.147 109.505C134.408 109.511 134.669 109.514 134.932 109.516C135.027 109.516 135.124 109.517 135.219 109.519C135.473 109.52 135.727 109.517 135.982 109.515C136.092 109.514 136.202 109.514 136.312 109.511C136.562 109.506 136.812 109.499 137.063 109.491C137.177 109.487 137.29 109.485 137.403 109.481C137.646 109.472 137.888 109.459 138.131 109.446C138.251 109.44 138.373 109.435 138.494 109.427C138.726 109.413 138.958 109.396 139.189 109.38C139.299 109.372 139.408 109.364 139.517 109.357L140.464 91.3973C140.513 90.4803 141.27 89.762 142.188 89.762H145.865C146.484 89.762 146.987 89.2589 146.987 88.64V82.1244C146.987 75.5104 141.673 70.1098 135.14 70.0879H135.098C131.93 70.0879 128.951 71.3193 126.706 73.5552C124.452 75.8002 123.209 78.7917 123.209 81.9748L123.209 81.975ZM129.207 60.5735C129.207 63.8513 131.873 66.5192 135.153 66.5192C138.431 66.5192 141.097 63.8529 141.097 60.5735C141.097 57.9702 139.397 56.4005 136.626 54.057C136.116 53.6258 135.591 53.181 135.068 52.7143C132.377 54.7752 129.207 57.8533 129.207 60.5735L129.207 60.5735ZM116.506 38.1993C120.798 37.5503 123.682 34.3036 123.682 30.1196C123.682 25.9558 120.294 22.5678 116.131 22.5678C111.967 22.5678 108.579 25.956 108.579 30.1196C108.579 34.3036 111.463 37.5504 115.755 38.1993C115.881 38.2185 116.006 38.2376 116.13 38.2577C116.255 38.2385 116.379 38.2185 116.506 38.1993H116.506ZM91.2297 84.8317C95.5294 91.8183 101.422 97.684 108.392 101.945L106.794 84.0861H95.9479C95.3818 84.0861 94.8513 83.809 94.5286 83.3432C94.206 82.8783 94.1321 82.2849 94.3299 81.7544L98.1127 71.6393C98.0152 71.6438 97.9195 71.6466 97.822 71.6466C97.0472 71.6466 96.2715 71.4907 95.5331 71.178C92.6135 69.9438 91.2043 66.6569 92.3209 63.6918L96.9066 51.2149L96.9659 51.1046C100.323 44.919 103.99 41.5574 110.074 39.6266C109.309 39.1052 108.608 38.4954 107.986 37.799C106.114 35.7035 105.125 33.0483 105.125 30.1205C105.125 24.0516 110.062 19.1148 116.13 19.1148C122.198 19.1148 127.136 24.0525 127.136 30.1205C127.136 33.0483 126.147 35.7036 124.275 37.799C123.628 38.5237 122.896 39.1536 122.094 39.6895C127.485 41.5126 130.995 44.4258 135.334 48.3115C135.697 48.0782 135.973 47.9095 136.13 47.8157C139.134 45.2626 141.838 44.2671 145.249 43.012C146.692 42.4805 148.258 41.9035 150.076 41.1342C148.591 40.1553 147.31 39.0496 146.293 37.8655C144.3 35.5402 143.289 32.9341 143.289 30.122C143.289 24.0531 148.227 19.1164 154.295 19.1164C160.363 19.1164 165.3 24.0541 165.3 30.122C165.3 34.2785 162.645 38.1315 157.749 41.1797C161.257 42.7785 164.336 44.0637 166.498 44.9352C169.954 46.328 172.611 49.1493 173.788 52.6787L178.793 67.676C179.261 69.0779 179.164 70.5837 178.521 71.9136C177.876 73.2444 176.757 74.2543 175.367 74.7583C173.926 75.2797 172.372 75.1995 170.993 74.5313C169.613 73.8641 168.587 72.6946 168.101 71.2416L165.737 64.1473L162.865 101.639C177.941 92.1907 187.178 75.6467 187.178 57.7186C187.178 50.7244 185.809 43.941 183.108 37.5559C180.499 31.3876 176.764 25.8474 172.007 21.0904C167.249 16.3331 161.708 12.5977 155.541 9.98907C149.154 7.28737 142.372 5.91831 135.378 5.91831C128.384 5.91831 121.6 7.28741 115.215 9.98814C109.047 12.597 103.506 16.3324 98.7494 21.0895C93.9921 25.8467 90.2567 31.3878 87.6481 37.555C84.9473 43.9401 83.5783 50.7247 83.5783 57.7177C83.5764 67.3213 86.2235 76.6963 91.2295 84.8327L91.2297 84.8317Z" fill="#194742"/>
</g>
</svg>
