<svg xmlns="http://www.w3.org/2000/svg" width="101" height="23" viewBox="0 0 101 23">
    <g fill="none" fill-rule="evenodd">
        <g>
            <g>
                <g>
                    <g>
                        <g>
                            <path fill="#FFF" fill-rule="nonzero" d="M41.65 22.202c-.532 0-.933-.41-.933-.953v-8.682H35.65c-.136 0-.274 0-.414-.004l-4.24 8.998c-.175.42-.49.64-.929.64h-.505c-.308 0-.577-.154-.721-.412-.147-.264-.137-.59.027-.872l4.146-8.713c-2.602-.802-4.028-2.837-4.028-5.769 0-3.897 2.43-6.132 6.665-6.132h6.326c.531 0 .933.409.933.951V21.25c0 .543-.402.952-.933.952h-.327zm-6-19.724c-3.01 0-4.472 1.294-4.472 3.957 0 2.662 1.463 3.956 4.473 3.956h5.066V2.478h-5.066z" transform="translate(-375 -3323) translate(0 2581) translate(0 662) translate(375 80)"/>
                            <path d="M2.192 9.55L3.712 9.55 2.192 6.157zM10.428 11.962L7.198 11.962 8.817 15.598zM51.443 9.55L55.085 9.55 53.276 4.388zM13.894 9.55L15.414 9.55 15.414 6.156zM56.685 14.118L55.93 11.962 50.587 11.962 49.821 14.118z" transform="translate(-375 -3323) translate(0 2581) translate(0 662) translate(375 80)"/>
                            <path fill="#FFF" fill-rule="nonzero" d="M56.685 14.118h-6.864l.766-2.156h-2.305l-3.237 9.083c-.093.287-.056.58.103.805.158.223.416.352.708.352h.386c.327 0 .762-.127.984-.731l1.838-5.178h8.402l1.813 5.184c.22.599.655.724.981.724h.416c.292 0 .55-.128.709-.352.16-.228.196-.517.097-.819l-3.205-9.068H55.93l.755 2.156zM53.276 4.388l1.809 5.162h2.338l-3.005-8.502c-.156-.474-.495-.745-.93-.745H53.1c-.435 0-.773.268-.923.729L49.14 9.55h2.302l1.833-5.162zM76.486 1.587c.165-.28.176-.606.029-.871-.144-.259-.414-.413-.722-.413h-.505c-.574 0-.821.42-.903.559l-4.486 7.69L65.438.86c-.081-.138-.329-.557-.902-.557h-.534c-.309 0-.579.154-.723.413-.147.265-.136.59.028.871l4.669 7.963h3.842l4.668-7.963zM62.624 20.917c-.164.281-.175.607-.027.872.143.258.413.413.721.413h.505c.575 0 .821-.42.903-.56l5.17-8.844 5.143 8.847c.081.137.328.557.902.557h.535c.31 0 .579-.155.721-.413.148-.265.137-.59-.028-.872l-5.257-8.954h-4.03l-5.258 8.954zM82.397 1.254c0-.543-.401-.951-.933-.951h-.326c-.532 0-.933.408-.933.95V9.55h2.191l.001-8.296zM80.205 21.25c0 .543.401.952.933.952h.327c.532 0 .933-.41.933-.952v-9.288h-2.192v9.288zM90.549 9.003c-.996-.645-1.44-1.522-1.44-2.841 0-2.46 1.725-3.987 4.502-3.987 1.582 0 3.088.446 4.604 1.363.167.102.341.154.518.154.28 0 .536-.132.725-.374l.203-.265c.176-.223.246-.493.2-.761-.046-.258-.196-.482-.397-.604C97.944.63 95.779 0 93.67 0c-4.166 0-6.754 2.396-6.754 6.253 0 1.285.343 2.391 1.012 3.297h3.464l-.844-.547zM93.171 12.137l.893.121c4.133.55 4.703 2.2 4.703 3.902 0 2.571-1.975 4.169-5.156 4.169-1.923 0-3.985-.73-5.512-1.948-.183-.15-.392-.23-.605-.23-.27 0-.522.127-.683.335l-.212.244c-.167.17-.26.397-.259.639 0 .263.11.52.323.736 1.317 1.155 3.997 2.398 6.77 2.398 4.713 0 7.527-2.405 7.527-6.435 0-1.727-.566-3.103-1.682-4.106h-7.08c.343.074.665.133.973.175zM24.586 1.254c0-.543-.401-.951-.933-.951h-.327c-.532 0-.933.408-.933.95V9.55h2.192V1.254zM22.394 21.25c0 .543.4.952.932.952h.327c.532 0 .933-.41.933-.952v-9.288h-2.192v9.288zM15.414 6.156V9.55h2.192V1.254c0-.543-.4-.951-.933-.951h-.415c-.419 0-.79.263-.966.683L11.498 9.55h2.397l1.52-3.394zM2.192 6.157l1.52 3.393h2.413L2.32.998c-.18-.429-.553-.695-.97-.695H.933C.4.303 0 .712 0 1.254V9.55h2.192V6.157zM8.817 15.598l-1.619-3.636H4.792L7.67 18.39c.227.463.548.66 1.073.66h.119c.532 0 .844-.195 1.083-.682l2.868-6.406h-2.386l-1.611 3.636zM15.414 21.25c0 .543.401.952.933.952h.327c.531 0 .932-.41.932-.952v-9.288h-2.192v9.288zM0 21.25c0 .543.401.952.933.952h.327c.532 0 .933-.41.933-.952v-9.288H0v9.288z" transform="translate(-375 -3323) translate(0 2581) translate(0 662) translate(375 80)"/>
                        </g>
                    </g>
                </g>
            </g>
        </g>
    </g>
</svg>
