<svg xmlns="http://www.w3.org/2000/svg" width="187" height="53" viewBox="0 0 187 53">
    <defs>
        <linearGradient id="kt2tnsarsa" x1="50%" x2="50%" y1="0%" y2="100%">
            <stop offset="0%" stop-color="#1E79AF"/>
            <stop offset="100%" stop-color="#63FFD3"/>
        </linearGradient>
        <linearGradient id="jlxwrqo8xb" x1="84.718%" x2="5.244%" y1="28.878%" y2="77.661%">
            <stop offset="0%" stop-color="#DC4057"/>
            <stop offset="100%" stop-color="#9E36BB"/>
        </linearGradient>
        <linearGradient id="tyhelz9ayc" x1="50%" x2="50%" y1="0%" y2="97.826%">
            <stop offset="0%" stop-color="#FF9676"/>
            <stop offset="100%" stop-color="#FFD074"/>
        </linearGradient>
        <linearGradient id="942x6tnd7d" x1="17.444%" x2="100%" y1="20.298%" y2="79.702%">
            <stop offset="0%" stop-color="#51C6AD"/>
            <stop offset="100%" stop-color="#D5FFA1"/>
        </linearGradient>
    </defs>
    <g fill="none" fill-rule="evenodd">
        <path fill="#000" d="M6.6 0C2.956 0 0 2.959 0 6.591v39.068c0 3.64 2.956 6.591 6.6 6.591h173.8c3.645 0 6.6-2.959 6.6-6.591V6.591C187 2.951 184.044 0 180.4 0H6.6z"/>
        <g>
            <path fill="url(#kt2tnsarsa)" d="M.964.943c-.434.137-.715.58-.715 1.25l.003 21.09c0 .662.272 1.098.693 1.244l11.703-11.801L.964.943" transform="translate(22.508 9.374)"/>
            <path fill="url(#jlxwrqo8xb)" d="M.945 24.527c.304.104.684.055 1.099-.174l14.28-7.92-3.676-3.707L.945 24.527" transform="translate(22.508 9.374)"/>
            <path fill="url(#tyhelz9ayc)" d="M16.326 16.433l4.87-2.7c.987-.549.987-1.443 0-1.991l-4.888-2.71-3.66 3.692 3.678 3.71" transform="translate(22.508 9.374)"/>
            <path fill="url(#942x6tnd7d)" d="M16.308 9.032L2.044 1.122C1.639.9 1.266.849.964.943l11.684 11.782 3.66-3.692" transform="translate(22.508 9.374)"/>
        </g>
        <path fill="#FFF" d="M105.65 28.449l-1.446.822h-1.401c.518.43 1.599 1.341 1.599 3.07 0 1.684-.942 2.478-1.892 3.23-.292.296-.633.617-.633 1.113 0 .504.341.777.587.98l.815.635c.99.843 1.893 1.616 1.893 3.187 0 2.14-2.053 4.298-5.934 4.298-3.269 0-4.85-1.57-4.85-3.254 0-.819.405-1.979 1.74-2.774 1.398-.862 3.293-.977 4.307-1.045-.316-.412-.678-.844-.678-1.55 0-.385.115-.615.226-.886-.247.023-.496.048-.721.048-2.393 0-3.745-1.8-3.745-3.574 0-1.046.473-2.207 1.445-3.048 1.286-1.068 2.82-1.252 4.038-1.252h4.65zm-4.816 10.898h-.15c-.204 0-1.422.044-2.366.363-.5.184-1.943.728-1.943 2.344 0 1.613 1.558 2.776 3.969 2.776 2.166 0 3.316-1.047 3.316-2.457 0-1.16-.744-1.772-2.456-3.002-.139-.019-.236-.023-.37-.024zm49.799-10.973l3.856 9.326 3.818-9.326h1.291l-5.482 13.02c-.57 1.342-1.464 1.987-2.694 1.987-.369 0-.855-.066-1.14-.154l.196-1.062c.244.11.66.177.924.177.698 0 1.184-.288 1.62-1.304l.833-1.902-4.495-10.762h1.273zm-20.394-.266c2.83 0 4.735 2.164 4.735 5.591 0 3.404-1.906 5.614-4.735 5.614-1.49 0-2.824-.775-3.68-1.99v5.795h-1.14V28.374h1.14v1.68c.744-1.086 2.102-1.946 3.68-1.946zm-66.393-4.48c1.141 0 2.239.17 3.239.445 1.585.449 2.326 1.002 2.79 1.327l-1.757 1.682-.74.167.527-.848c-.715-.705-2.03-2.005-4.525-2.005-3.337 0-5.854 2.558-5.854 6.292 0 4.01 2.874 7.783 7.483 7.783 1.355 0 2.052-.275 2.685-.531v-3.438l-3.193.173 1.692-.917h4.482l-.548.532c-.148.127-.168.17-.21.34-.022.194-.042.812-.042 1.029v2.6l-3.025.698c-1.225.195-2.325.366-3.49.366-5.834 0-8.057-4.33-8.057-7.719 0-4.138 3.15-7.975 8.543-7.975zm80.173 4.475c1.244 0 2.251.302 3.01.905.758.596 1.138 1.458 1.138 2.586v5.265c0 .378.018.743.065 1.1.048.356.125.712.227 1.056h-1.314c-.077-.37-.134-.696-.176-.968-.035-.272-.055-.55-.055-.832-.391.579-.945 1.06-1.653 1.44-.709.383-1.382.57-2.305.57-1.112 0-1.975-.276-2.59-.835-.614-.56-.923-1.316-.923-2.274 0-.957.447-1.733 1.339-2.327.891-.597 2.044-.894 3.47-.894h2.662V31.57c0-.763-.258-1.364-.774-1.8-.517-.436-1.243-.656-2.184-.656-.86 0-1.559.201-2.09.594-.527.4-.792.896-.792 1.494h-1.168l-.024-.057c-.042-.806.323-1.513 1.1-2.124.775-.61 1.79-.917 3.037-.917zm-28.11.052c.813 0 1.646.205 2.324.637 1.127.752 1.419 1.728 1.58 2.252l-5.303 2.16-1.737.136c.563 2.892 2.503 4.574 4.646 4.574 1.071 0 1.866-.352 2.596-.716 0 0 .146-.076.042.029l-1.08 1.026c-.249.139-.497.3-.744.413-.75.343-1.511.43-2.189.43-.72 0-1.85-.048-3.003-.888-1.6-1.138-2.3-3.093-2.3-4.796 0-3.527 2.847-5.257 5.169-5.257zm-38.758 0c3.314 0 5.39 2.618 5.39 5.367 0 2.685-2.051 5.526-5.73 5.526-3.587 0-5.502-2.816-5.502-5.365 0-2.98 2.412-5.528 5.842-5.528zm12.003 0c3.317 0 5.394 2.618 5.394 5.367 0 2.685-2.053 5.526-5.732 5.526-3.586 0-5.504-2.816-5.504-5.365 0-2.98 2.412-5.528 5.842-5.528zm48.52-3.852v14.744h-1.141V24.303h1.14zm-27.702-1.608c-.7.409-.909.657-.998 1.453l-.006 12.903c0 .884.157 1.021.898 1.09.386.046.771.067 1.153.112l-.835.501h-3.975c.521-.682.61-.75.61-1.204v-.508l-.008-13.526h-1.756l1.69-.821h3.227zm-33.408 6.166c-.746 0-1.488.293-2.03.772-.882.796-1.038 1.796-1.038 2.778 0 2.247 1.106 5.954 3.836 5.954.88 0 1.78-.43 2.3-1.157.542-.728.677-1.637.677-2.523 0-2.003-.95-5.824-3.745-5.824zm12.007 0c-.744 0-1.494.293-2.034.772-.88.796-1.038 1.796-1.038 2.778 0 2.247 1.102 5.954 3.836 5.954.882 0 1.783-.43 2.302-1.157.546-.728.678-1.637.678-2.523 0-2.003-.947-5.824-3.744-5.824zm41.475.286c-1.47 0-2.876 1.164-3.487 2.18v4.72c.611 1.018 2.017 2.225 3.487 2.225 2.367 0 3.702-1.986 3.702-4.573 0-2.583-1.335-4.552-3.702-4.552zm16.868 4.662h-2.674c-1.022 0-1.867.228-2.532.688-.667.458-1.005 1.013-1.005 1.658 0 .609.214 1.095.64 1.464.426.373 1.009.558 1.752.558.97 0 1.666-.219 2.378-.65.708-.43 1.189-.99 1.44-1.669v-2.05zM99.577 29.2c-.585 0-1.219.296-1.578.754-.382.474-.496 1.089-.496 1.68 0 1.523.88 4.05 2.819 4.05.565 0 1.174-.277 1.53-.637.522-.525.568-1.25.568-1.662 0-1.637-.968-4.185-2.843-4.185zm15.699-.296c-.902 0-2.594.708-2.594 3.166 0 .384.046.792.069 1.2l4.106-1.797c.43-.157.655-.294.655-.61 0-.91-1.02-1.959-2.236-1.959zM59.035 8.383c1.418 0 2.344.677 2.923 1.505l-1.036.6c-.393-.545-1.08-.97-1.887-.97-1.439 0-2.508 1.09-2.508 2.628 0 1.515 1.07 2.627 2.508 2.627.742 0 1.396-.337 1.723-.653v-1.124h-2.18v-1.123h3.445v2.715c-.708.797-1.734 1.33-2.988 1.33-2.116 0-3.817-1.493-3.817-3.772 0-2.29 1.701-3.763 3.817-3.763zm37.136 0c2.169 0 3.718 1.593 3.718 3.763s-1.55 3.762-3.718 3.762c-2.182 0-3.719-1.592-3.719-3.762s1.537-3.763 3.719-3.763zm-27.587.12v1.124h-3.708v1.875h3.632v1.124h-3.632v2.028h3.708v1.123h-4.983V8.503h4.983zm7.009 0v1.124H73.39v6.15h-1.276v-6.15h-2.202V8.503h5.68zm5.71 0v7.274h-1.276V8.503h1.275zm7.03 0v1.124h-2.202v6.15h-1.276v-6.15h-2.202V8.503h5.68zm14.355 0l3.718 5.039V8.503h1.276v7.274h-1.233l-3.795-5.201v5.201h-1.275V8.503h1.309zM96.17 9.518c-1.473 0-2.41 1.123-2.41 2.628 0 1.493.937 2.627 2.41 2.627 1.46 0 2.41-1.134 2.41-2.627 0-1.505-.95-2.628-2.41-2.628z"/>
    </g>
</svg>
