<svg width="31" height="30" viewBox="0 0 31 30" fill="none" xmlns="http://www.w3.org/2000/svg">
<path fill-rule="evenodd" clip-rule="evenodd" d="M19.5344 19H11.5344V13C11.5344 10.334 13.5344 9 15.5334 9H15.5354C17.5344 9 19.5344 10.334 19.5344 13V19ZM16.5344 22C16.5344 22.552 16.0864 23 15.5344 23C14.9824 23 14.5344 22.552 14.5344 22V21H16.5344V22ZM21.5344 18V13C21.5344 9.447 19.1664 7.475 16.5344 7.079V5H14.5344V7.079C11.9024 7.475 9.53442 9.447 9.53442 13V18C9.53442 18.552 9.08642 19 8.53442 19C7.98242 19 7.53442 19.448 7.53442 20C7.53442 20.552 7.98242 21 8.53442 21H12.5344V22C12.5344 23.657 13.8774 25 15.5344 25C17.1914 25 18.5344 23.657 18.5344 22V21H22.5344C23.0864 21 23.5344 20.552 23.5344 20C23.5344 19.448 23.0864 19 22.5344 19C21.9824 19 21.5344 18.552 21.5344 18Z" fill="#AAB5C5"/>
<mask id="mask0_4880_164" style="mask-type:luminance" maskUnits="userSpaceOnUse" x="7" y="5" width="17" height="20">
<path fill-rule="evenodd" clip-rule="evenodd" d="M19.5344 19H11.5344V13C11.5344 10.334 13.5344 9 15.5334 9H15.5354C17.5344 9 19.5344 10.334 19.5344 13V19ZM16.5344 22C16.5344 22.552 16.0864 23 15.5344 23C14.9824 23 14.5344 22.552 14.5344 22V21H16.5344V22ZM21.5344 18V13C21.5344 9.447 19.1664 7.475 16.5344 7.079V5H14.5344V7.079C11.9024 7.475 9.53442 9.447 9.53442 13V18C9.53442 18.552 9.08642 19 8.53442 19C7.98242 19 7.53442 19.448 7.53442 20C7.53442 20.552 7.98242 21 8.53442 21H12.5344V22C12.5344 23.657 13.8774 25 15.5344 25C17.1914 25 18.5344 23.657 18.5344 22V21H22.5344C23.0864 21 23.5344 20.552 23.5344 20C23.5344 19.448 23.0864 19 22.5344 19C21.9824 19 21.5344 18.552 21.5344 18Z" fill="white"/>
</mask>
<g mask="url(#mask0_4880_164)">
<rect x="3.53442" y="3" width="24" height="24" fill="#668A90"/>
</g>
<circle cx="24.5344" cy="6" r="6" fill="#EE4F4F"/>
<circle cx="24.5344" cy="6" r="2" fill="white"/>
</svg>
