<svg xmlns="http://www.w3.org/2000/svg" width="80" height="80" viewBox="0 0 80 80">
    <g fill="none" fill-rule="evenodd">
        <g>
            <g>
                <g>
                    <path fill="#E3EDC3" d="M3 43H14V78H3z" transform="translate(-763 -235) translate(255 185) translate(508 50)"/>
                    <g>
                        <path fill="#E3EDC3" d="M35 34H69V79H35z" transform="translate(-763 -235) translate(255 185) translate(508 50)"/>
                        <path fill="#274642" fill-rule="nonzero" d="M78.667 77.333h-8v-44c0-.736-.597-1.333-1.334-1.333H50.667V1.333C50.667.597 50.07 0 49.333 0H14.667c-.737 0-1.334.597-1.334 1.333v76h-12C.597 77.333 0 77.93 0 78.667 0 79.403.597 80 1.333 80h77.334c.736 0 1.333-.597 1.333-1.333 0-.737-.597-1.334-1.333-1.334zm-50.667 0h-5.333v-12c0-.736.597-1.333 1.333-1.333h2.667c.736 0 1.333.597 1.333 1.333v12zm5.333-44v44h-2.666v-12c0-2.209-1.791-4-4-4H24c-2.21 0-4 1.791-4 4v12h-4V2.667h32V32H34.667c-.737 0-1.334.597-1.334 1.333zm34.667 44H36V34.667h32v42.666z" transform="translate(-763 -235) translate(255 185) translate(508 50)"/>
                        <path fill="#274642" fill-rule="nonzero" stroke="#FFF" stroke-width=".5" d="M42.667 18.667h-8c-.737 0-1.334.597-1.334 1.333v8c0 .736.597 1.333 1.334 1.333h8c.736 0 1.333-.597 1.333-1.333v-8c0-.736-.597-1.333-1.333-1.333zm-1.334 8H36v-5.334h5.333v5.334zM42.667 5.333h-8c-.737 0-1.334.597-1.334 1.334v8c0 .736.597 1.333 1.334 1.333h8c.736 0 1.333-.597 1.333-1.333v-8c0-.737-.597-1.334-1.333-1.334zm-1.334 8H36V8h5.333v5.333zM29.333 18.667h-8c-.736 0-1.333.597-1.333 1.333v8c0 .736.597 1.333 1.333 1.333h8c.737 0 1.334-.597 1.334-1.333v-8c0-.736-.597-1.333-1.334-1.333zm-1.333 8h-5.333v-5.334H28v5.334zM29.333 5.333h-8c-.736 0-1.333.597-1.333 1.334v8c0 .736.597 1.333 1.333 1.333h8c.737 0 1.334-.597 1.334-1.333v-8c0-.737-.597-1.334-1.334-1.334zm-1.333 8h-5.333V8H28v5.333zM29.333 32h-8c-.736 0-1.333.597-1.333 1.333v8c0 .737.597 1.334 1.333 1.334h8c.737 0 1.334-.597 1.334-1.334v-8c0-.736-.597-1.333-1.334-1.333zM28 40h-5.333v-5.333H28V40zM29.333 45.333h-8c-.736 0-1.333.597-1.333 1.334v8c0 .736.597 1.333 1.333 1.333h8c.737 0 1.334-.597 1.334-1.333v-8c0-.737-.597-1.334-1.334-1.334zm-1.333 8h-5.333V48H28v5.333z" transform="translate(-763 -235) translate(255 185) translate(508 50)"/>
                        <path fill="#274642" fill-rule="nonzero" stroke="#E3EDC3" stroke-width=".5" d="M54.667 61.333h8c.736 0 1.333-.597 1.333-1.333v-8c0-.736-.597-1.333-1.333-1.333h-8c-.737 0-1.334.597-1.334 1.333v8c0 .736.597 1.333 1.334 1.333zm1.333-8h5.333v5.334H56v-5.334zM54.667 48h8c.736 0 1.333-.597 1.333-1.333v-8c0-.737-.597-1.334-1.333-1.334h-8c-.737 0-1.334.597-1.334 1.334v8c0 .736.597 1.333 1.334 1.333zM56 40h5.333v5.333H56V40zM54.667 74.667h8c.736 0 1.333-.597 1.333-1.334v-8c0-.736-.597-1.333-1.333-1.333h-8c-.737 0-1.334.597-1.334 1.333v8c0 .737.597 1.334 1.334 1.334zm1.333-8h5.333V72H56v-5.333zM41.333 61.333h8c.737 0 1.334-.597 1.334-1.333v-8c0-.736-.597-1.333-1.334-1.333h-8c-.736 0-1.333.597-1.333 1.333v8c0 .736.597 1.333 1.333 1.333zm1.334-8H48v5.334h-5.333v-5.334zM41.333 48h8c.737 0 1.334-.597 1.334-1.333v-8c0-.737-.597-1.334-1.334-1.334h-8c-.736 0-1.333.597-1.333 1.334v8c0 .736.597 1.333 1.333 1.333zm1.334-8H48v5.333h-5.333V40zM41.333 74.667h8c.737 0 1.334-.597 1.334-1.334v-8c0-.736-.597-1.333-1.334-1.333h-8c-.736 0-1.333.597-1.333 1.333v8c0 .737.597 1.334 1.333 1.334zm1.334-8H48V72h-5.333v-5.333z" transform="translate(-763 -235) translate(255 185) translate(508 50)"/>
                    </g>
                    <path fill="#274642" fill-rule="nonzero" d="M13.505 41.417L13.505 43.917 3.755 43.916 3.755 77.333 1.255 77.333 1.255 41.417z" transform="translate(-763 -235) translate(255 185) translate(508 50)"/>
                </g>
            </g>
        </g>
    </g>
</svg>
