<svg xmlns="http://www.w3.org/2000/svg" width="80" height="80" viewBox="0 0 80 80">
    <g fill="none" fill-rule="evenodd">
        <g>
            <g>
                <g>
                    <path fill="#E3EDC3" d="M61.333 26.667H77.333V77.334H61.333z" transform="translate(-398 -265) translate(255 185) translate(143 80)"/>
                    <path fill="#274642" fill-rule="nonzero" d="M78.667 24H61.333V1.333C61.333.596 60.736 0 60 0H20c-.736 0-1.333.596-1.333 1.333V24H1.333C.597 24 0 24.596 0 25.333v53.334C0 79.404.597 80 1.333 80h77.334c.736 0 1.333-.596 1.333-1.333V25.333c0-.737-.597-1.333-1.333-1.333zm-76 2.667h16v50.666h-16V26.667zM44 64v13.333h-8V64h8zm14.667 13.333h-12V64h2.666v-2.667H30.667V64h2.666v13.333h-12V2.667h37.334v74.666zm18.666 0h-16V26.667h16v50.666z" transform="translate(-398 -265) translate(255 185) translate(143 80)"/>
                    <path fill="#E3EDC3" d="M36 64H44V77.333H36z" transform="translate(-398 -265) translate(255 185) translate(143 80)"/>
                    <path fill="#274642" fill-rule="nonzero" stroke="#E3EDC3" stroke-width=".5" d="M65.333 40h8c.736 0 1.334-.596 1.334-1.333v-8c0-.738-.598-1.334-1.334-1.334h-8c-.736 0-1.333.596-1.333 1.334v8c0 .737.597 1.333 1.333 1.333zm1.334-8H72v5.333h-5.333V32zM65.333 53.333h8c.736 0 1.334-.596 1.334-1.333v-8c0-.737-.598-1.333-1.334-1.333h-8c-.736 0-1.333.596-1.333 1.333v8c0 .737.597 1.333 1.333 1.333zm1.334-8H72v5.334h-5.333v-5.334zM65.333 66.667h8c.736 0 1.334-.596 1.334-1.334v-8c0-.737-.598-1.333-1.334-1.333h-8c-.736 0-1.333.596-1.333 1.333v8c0 .738.597 1.334 1.333 1.334zm1.334-8H72V64h-5.333v-5.333z" transform="translate(-398 -265) translate(255 185) translate(143 80)"/>
                    <path fill="#E3EDC3" d="M2.667 26.667H18.667V77.334H2.667z" transform="translate(-398 -265) translate(255 185) translate(143 80)"/>
                    <path fill="#274642" fill-rule="nonzero" stroke="#E3EDC3" stroke-width=".5" d="M14.667 29.333h-8c-.736 0-1.334.596-1.334 1.334v8c0 .737.598 1.333 1.334 1.333h8c.736 0 1.333-.596 1.333-1.333v-8c0-.738-.597-1.334-1.333-1.334zm-1.334 8H8V32h5.333v5.333z" transform="translate(-398 -265) translate(255 185) translate(143 80)"/>
                    <path fill="#274642" fill-rule="nonzero" stroke="#F9FCEE" stroke-width=".5" d="M25.333 34.667h5.334c.736 0 1.333-.596 1.333-1.334V28c0-.737-.597-1.333-1.333-1.333h-5.334c-.736 0-1.333.596-1.333 1.333v5.333c0 .738.597 1.334 1.333 1.334zm1.334-5.334h2.666V32h-2.666v-2.667zM42.667 26.667h-5.334c-.736 0-1.333.596-1.333 1.333v5.333c0 .738.597 1.334 1.333 1.334h5.334c.736 0 1.333-.596 1.333-1.334V28c0-.737-.597-1.333-1.333-1.333zM41.333 32h-2.666v-2.667h2.666V32zM48 28v5.333c0 .738.597 1.334 1.333 1.334h5.334c.736 0 1.333-.596 1.333-1.334V28c0-.737-.597-1.333-1.333-1.333h-5.334c-.736 0-1.333.596-1.333 1.333zm2.667 1.333h2.666V32h-2.666v-2.667zM25.333 45.333h5.334c.736 0 1.333-.596 1.333-1.333v-5.333c0-.738-.597-1.334-1.333-1.334h-5.334c-.736 0-1.333.596-1.333 1.334V44c0 .737.597 1.333 1.333 1.333zM26.667 40h2.666v2.667h-2.666V40zM42.667 37.333h-5.334c-.736 0-1.333.596-1.333 1.334V44c0 .737.597 1.333 1.333 1.333h5.334c.736 0 1.333-.596 1.333-1.333v-5.333c0-.738-.597-1.334-1.333-1.334zm-1.334 5.334h-2.666V40h2.666v2.667zM54.667 37.333h-5.334c-.736 0-1.333.596-1.333 1.334V44c0 .737.597 1.333 1.333 1.333h5.334c.736 0 1.333-.596 1.333-1.333v-5.333c0-.738-.597-1.334-1.333-1.334zm-1.334 5.334h-2.666V40h2.666v2.667zM25.333 56h5.334c.736 0 1.333-.596 1.333-1.333v-5.334c0-.737-.597-1.333-1.333-1.333h-5.334c-.736 0-1.333.596-1.333 1.333v5.334c0 .737.597 1.333 1.333 1.333zm1.334-5.333h2.666v2.666h-2.666v-2.666zM42.667 48h-5.334c-.736 0-1.333.596-1.333 1.333v5.334c0 .737.597 1.333 1.333 1.333h5.334c.736 0 1.333-.596 1.333-1.333v-5.334c0-.737-.597-1.333-1.333-1.333zm-1.334 5.333h-2.666v-2.666h2.666v2.666zM54.667 48h-5.334c-.736 0-1.333.596-1.333 1.333v5.334c0 .737.597 1.333 1.333 1.333h5.334c.736 0 1.333-.596 1.333-1.333v-5.334c0-.737-.597-1.333-1.333-1.333zm-1.334 5.333h-2.666v-2.666h2.666v2.666z" transform="translate(-398 -265) translate(255 185) translate(143 80)"/>
                    <path fill="#274642" fill-rule="nonzero" stroke="#E3EDC3" stroke-width=".5" d="M14.667 42.667h-8c-.736 0-1.334.596-1.334 1.333v8c0 .737.598 1.333 1.334 1.333h8c.736 0 1.333-.596 1.333-1.333v-8c0-.737-.597-1.333-1.333-1.333zm-1.334 8H8v-5.334h5.333v5.334zM14.667 56h-8c-.736 0-1.334.596-1.334 1.333v8c0 .738.598 1.334 1.334 1.334h8c.736 0 1.333-.596 1.333-1.334v-8c0-.737-.597-1.333-1.333-1.333zm-1.334 8H8v-5.333h5.333V64z" transform="translate(-398 -265) translate(255 185) translate(143 80)"/>
                    <path fill="#274642" fill-rule="nonzero" stroke="#F9FCEE" stroke-width=".5" d="M32 18.667h4v4c0 .737.597 1.333 1.333 1.333h5.334c.736 0 1.333-.596 1.333-1.333v-4h4c.736 0 1.333-.596 1.333-1.334V12c0-.737-.597-1.333-1.333-1.333h-4v-4c0-.738-.597-1.334-1.333-1.334h-5.334c-.736 0-1.333.596-1.333 1.334v4h-4c-.736 0-1.333.596-1.333 1.333v5.333c0 .738.597 1.334 1.333 1.334zm1.333-5.334h4c.736 0 1.334-.596 1.334-1.333V8h2.666v4c0 .737.598 1.333 1.334 1.333h4V16h-4c-.736 0-1.334.596-1.334 1.333v4h-2.666v-4c0-.737-.598-1.333-1.334-1.333h-4v-2.667z" transform="translate(-398 -265) translate(255 185) translate(143 80)"/>
                    <path fill="#274642" fill-rule="nonzero" d="M53.333 72L56 72 56 74.667 53.333 74.667zM53.333 66.667L56 66.667 56 69.333 53.333 69.333zM53.333 61.333L56 61.333 56 64 53.333 64z" transform="translate(-398 -265) translate(255 185) translate(143 80)"/>
                </g>
            </g>
        </g>
    </g>
</svg>
