<svg xmlns="http://www.w3.org/2000/svg" width="80" height="79" viewBox="0 0 80 79">
    <g fill="none" fill-rule="evenodd">
        <g>
            <g>
                <g>
                    <path fill="#E3EDC3" d="M10 39H32V77H10zM41 60H62V76H41z" transform="translate(-1123 -265) translate(255 185) translate(868 80)"/>
                    <g fill="#274642" fill-rule="nonzero">
                        <path d="M78.08 75.52H70.4v-64c0-.707-.573-1.28-1.28-1.28h-3.84V6.4c0-.707-.573-1.28-1.28-1.28H46.08V3.84c0-.707-.573-1.28-1.28-1.28-.707 0-1.28.573-1.28 1.28v1.28h-1.28V1.28c0-.707-.573-1.28-1.28-1.28-.707 0-1.28.573-1.28 1.28v3.84H38.4c-.707 0-1.28.573-1.28 1.28v3.84h-3.84c-.707 0-1.28.573-1.28 1.28v25.6H19.2v-2.56c0-.707-.573-1.28-1.28-1.28-.707 0-1.28.573-1.28 1.28v2.56h-1.28v-6.4c0-.707-.573-1.28-1.28-1.28-.707 0-1.28.573-1.28 1.28v6.4h-2.56c-.707 0-1.28.573-1.28 1.28v37.12H1.28c-.707 0-1.28.573-1.28 1.28 0 .707.573 1.28 1.28 1.28h76.8c.707 0 1.28-.573 1.28-1.28 0-.707-.573-1.28-1.28-1.28zM32 64H17.92v-5.12H32V64zm0-12.8H17.92v-5.12H32v5.12zm0-7.68H16.64c-.707 0-1.28.573-1.28 1.28v7.68c0 .707.573 1.28 1.28 1.28H32v2.56H16.64c-.707 0-1.28.573-1.28 1.28v7.68c0 .707.573 1.28 1.28 1.28H32v8.96H11.52V39.68H32v3.84zm7.68-35.84h23.04v2.56H39.68V7.68zm10.24 67.84h-7.68V61.44h7.68v14.08zm10.24 0h-7.68V61.44h7.68v14.08zm7.68 0h-5.12V60.16c0-.707-.573-1.28-1.28-1.28H40.96c-.707 0-1.28.573-1.28 1.28v15.36h-5.12V12.8h33.28v62.72z" transform="translate(-1123 -265) translate(255 185) translate(868 80)"/>
                        <path stroke="#FFF" stroke-width=".5" d="M47.36 43.36h-7.68c-.707 0-1.28.573-1.28 1.28v7.68c0 .707.573 1.28 1.28 1.28h7.68c.707 0 1.28-.573 1.28-1.28v-7.68c0-.707-.573-1.28-1.28-1.28zm-1.28 7.68h-5.12v-5.12h5.12v5.12zM62.72 43.36h-7.68c-.707 0-1.28.573-1.28 1.28v7.68c0 .707.573 1.28 1.28 1.28h7.68c.707 0 1.28-.573 1.28-1.28v-7.68c0-.707-.573-1.28-1.28-1.28zm-1.28 7.68h-5.12v-5.12h5.12v5.12zM47.36 30.56h-7.68c-.707 0-1.28.573-1.28 1.28v7.68c0 .707.573 1.28 1.28 1.28h7.68c.707 0 1.28-.573 1.28-1.28v-7.68c0-.707-.573-1.28-1.28-1.28zm-1.28 7.68h-5.12v-5.12h5.12v5.12zM62.72 30.56h-7.68c-.707 0-1.28.573-1.28 1.28v7.68c0 .707.573 1.28 1.28 1.28h7.68c.707 0 1.28-.573 1.28-1.28v-7.68c0-.707-.573-1.28-1.28-1.28zm-1.28 7.68h-5.12v-5.12h5.12v5.12zM47.36 17.76h-7.68c-.707 0-1.28.573-1.28 1.28v7.68c0 .707.573 1.28 1.28 1.28h7.68c.707 0 1.28-.573 1.28-1.28v-7.68c0-.707-.573-1.28-1.28-1.28zm-1.28 7.68h-5.12v-5.12h5.12v5.12zM62.72 17.76h-7.68c-.707 0-1.28.573-1.28 1.28v7.68c0 .707.573 1.28 1.28 1.28h7.68c.707 0 1.28-.573 1.28-1.28v-7.68c0-.707-.573-1.28-1.28-1.28zm-1.28 7.68h-5.12v-5.12h5.12v5.12z" transform="translate(-1123 -265) translate(255 185) translate(868 80)"/>
                    </g>
                </g>
            </g>
        </g>
    </g>
</svg>
