<svg width="100" height="100" viewBox="0 0 100 100" fill="none" xmlns="http://www.w3.org/2000/svg">
<path d="M40.9999 62.4998C40.9999 64.4998 42.3333 68.9998 42.9999 70.9998L45.5 73.5C43.9646 71.0433 45.1267 69.3419 46 67.5C46.5486 66.3429 45.259 63.9197 48.5 65C56.9 67.8 62.3333 59.8332 64 55.4998C65 49.6665 63.7999 37.8998 50.9999 37.4998C38.1999 37.0998 36.3333 49.3331 36.9999 55.4998C38.3333 56.9998 40.9999 60.4998 40.9999 62.4998Z" fill="#E3EDC3"/>
<path d="M76.0347 44.5353C76.0347 35.4124 71.1679 26.9812 63.2672 22.4213C55.3667 17.8596 45.6316 17.8596 37.7322 22.4213C29.8311 26.9825 24.9642 35.413 24.9642 44.5353C23.0323 44.814 21.2652 45.7791 19.9865 47.2539C18.7077 48.7288 18.0025 50.6148 18 52.5669V58.3707C18 60.5256 18.856 62.5924 20.3799 64.1156C21.9037 65.6395 23.9705 66.4955 26.1254 66.4955C26.433 66.4955 26.7284 66.3735 26.9459 66.1554C27.1634 65.9379 27.286 65.6425 27.286 65.3349V45.6021C27.286 37.3089 31.7105 29.6449 38.8929 25.4991C46.0753 21.3521 54.9238 21.3521 62.1079 25.4991C69.2903 29.6462 73.7149 37.3095 73.7149 45.6021V65.3349C73.7161 65.6511 73.846 65.9526 74.0745 66.1707C71.8553 69.8152 68.8767 72.9388 65.3413 75.3286C61.8065 77.7182 57.7973 79.3175 53.5879 80.0179C53.0817 79.0381 52.1406 78.3567 51.0524 78.1803C49.9636 78.0038 48.8557 78.3531 48.0653 79.1227C47.2755 79.8922 46.8969 80.9902 47.0439 82.0834C47.1916 83.1758 47.8484 84.1348 48.8141 84.6667C49.7797 85.1991 50.9409 85.2426 51.9439 84.7837C52.9463 84.3248 53.6729 83.4185 53.9015 82.3395C58.6635 81.5583 63.1867 79.7085 67.1309 76.9279C71.0756 74.1473 74.3384 70.5096 76.6742 66.2866C78.4694 65.8791 80.073 64.8737 81.2225 63.4355C82.3719 61.9975 82.9987 60.2119 83 58.3707V52.567C82.9982 50.6149 82.2929 48.7288 81.0142 47.254C79.7354 45.7792 77.9683 44.8141 76.0358 44.5353L76.0347 44.5353ZM24.9631 64.0579C23.6525 63.7901 22.4742 63.0781 21.628 62.0419C20.7818 61.0052 20.3198 59.708 20.3204 58.3705V52.5667C20.3198 51.2292 20.7818 49.932 21.628 48.8959C22.4742 47.8592 23.6524 47.1473 24.9631 46.8795V64.0579ZM50.4981 82.746C50.0288 82.746 49.6054 82.4629 49.4259 82.0291C49.2463 81.5959 49.3456 81.0966 49.6777 80.7645C50.0098 80.4324 50.5086 80.3331 50.9424 80.5126C51.3762 80.6928 51.6593 81.1156 51.6593 81.5849C51.6593 81.8931 51.5367 82.1884 51.3192 82.406C51.1017 82.6235 50.8063 82.746 50.4981 82.746ZM80.6762 58.3718C80.6762 59.7093 80.2142 61.0065 79.368 62.0432C78.5224 63.0793 77.3442 63.7914 76.0329 64.0591V46.88C77.3441 47.1477 78.5224 47.8597 79.368 48.8964C80.2142 49.9325 80.6762 51.2297 80.6762 52.5672V58.3718Z" fill="#274642"/>
<path d="M29.6076 45.6018C28.9661 45.6018 28.4465 46.122 28.4465 46.7629V64.1742C28.4465 64.8152 28.9661 65.3347 29.6076 65.3347C30.2486 65.3347 30.7682 64.8152 30.7682 64.1742V46.7629C30.7682 46.4547 30.6456 46.16 30.4281 45.9419C30.2106 45.7244 29.9152 45.6018 29.6076 45.6018L29.6076 45.6018Z" fill="#274642"/>
<path d="M72.554 64.1741V46.7628C72.554 46.1219 72.0338 45.6017 71.3929 45.6017C70.752 45.6017 70.2324 46.1219 70.2324 46.7628V64.1741C70.2324 64.815 70.752 65.3346 71.3929 65.3346C72.0338 65.3346 72.554 64.815 72.554 64.1741Z" fill="#274642"/>
<path d="M48.0512 66.2979C48.8612 66.4272 49.6804 66.4934 50.5002 66.4952C55.1986 66.5044 59.633 64.3243 62.495 60.5983C65.3571 56.8723 66.3203 52.0256 65.1003 47.4883C63.881 42.951 60.6169 39.241 56.2727 37.453C51.9279 35.6645 46.9979 36.0021 42.9379 38.3654C38.8773 40.7292 36.1495 44.8493 35.5594 49.5103C34.9687 54.1714 36.5833 58.8415 39.9263 62.1429C39.3988 66.8046 41.2793 71.4141 44.9176 74.3766C45.1229 74.536 45.3765 74.6217 45.6369 74.6205C45.879 74.6187 46.1143 74.5415 46.3103 74.3999C46.7319 74.0979 46.9028 73.5532 46.7282 73.0648C45.969 70.7322 46.4696 68.1727 48.0511 66.2978L48.0512 66.2979ZM44.0812 70.0705H44.0818C42.493 67.6803 41.8588 64.7808 42.3056 61.9451C42.3711 61.553 42.2308 61.1541 41.9343 60.8894C38.9582 58.2063 37.4142 54.2811 37.7646 50.2898C38.1151 46.2979 40.3191 42.7024 43.7173 40.5787C47.1155 38.455 51.3139 38.05 55.0552 39.4849C58.7966 40.9193 61.6475 44.0277 62.7541 47.8788C63.8613 51.7298 63.0966 55.8773 60.688 59.08C58.2794 62.2828 54.5074 64.1687 50.5001 64.1743C49.619 64.1719 48.7403 64.0824 47.877 63.9072C47.4965 63.8245 47.1001 63.9378 46.8207 64.2087C45.2423 65.7766 44.2717 67.8537 44.0817 70.0706L44.0812 70.0705Z" fill="#274642"/>
</svg>
