<?xml version="1.0" encoding="UTF-8"?>
<svg width="16px" height="16px" viewBox="0 0 16 16" version="1.1" xmlns="http://www.w3.org/2000/svg" xmlns:xlink="http://www.w3.org/1999/xlink">
    <!-- Generator: Sketch 63.1 (92452) - https://sketch.com -->
    <title>ico_admin</title>
    <desc>Created with Sketch.</desc>
    <g id="Page-1" stroke="none" stroke-width="1" fill="none" fill-rule="evenodd">
        <g id="Admin-Menu-v2" transform="translate(-146.000000, -132.000000)" fill="#D3D8D7">
            <path d="M155.569979,137.101992 C156.587401,137.679764 157.235791,138.764379 157.235791,139.970987 C157.235791,141.230527 156.502273,142.398152 155.367061,142.945659 L155.367061,142.945659 L155.102929,143.07307 L155.102929,147.941973 L152.767679,147.941973 L152.767679,143.073102 L152.503547,142.94569 C151.368335,142.398152 150.634817,141.230527 150.634817,139.970987 C150.634817,138.764379 151.283207,137.679764 152.300629,137.101992 L152.300629,137.101992 L152.300629,139.261382 L153.935304,140.569122 L155.569979,139.261382 Z M155.999727,132 L156.19128,134.298882 C156.740998,134.517306 157.252449,134.813136 157.718035,135.181887 L157.718035,135.181887 L159.806154,134.197657 L161.870608,137.77333 L159.974478,139.089383 C160.016731,139.381009 160.038091,139.676371 160.038091,139.970987 C160.038091,140.265602 160.016731,140.560964 159.974447,140.852559 L159.974447,140.852559 L161.870608,142.168613 L159.806154,145.744347 L157.718066,144.760117 C157.208546,145.163835 156.645159,145.479001 156.037029,145.701472 L156.037029,145.701472 L156.037029,143.647978 C156.629373,143.308993 157.132323,142.831325 157.502912,142.253055 C157.939261,141.572159 158.169891,140.783062 158.169891,139.970987 C158.169891,138.13165 156.995509,136.513384 155.247559,135.944082 L155.247559,135.944082 L154.635879,135.744869 L154.635879,138.812422 L153.935304,139.372882 L153.234729,138.812422 L153.234729,135.744869 L152.623049,135.944082 C150.875099,136.513384 149.700717,138.13165 149.700717,139.970987 C149.700717,140.783062 149.931347,141.572159 150.367665,142.253086 C150.738253,142.831325 151.241204,143.309024 151.833548,143.648009 L151.833548,143.648009 L151.833548,145.701503 C151.225449,145.479032 150.662062,145.163866 150.15251,144.760148 L150.15251,144.760148 L148.064423,145.744347 L146,142.168644 L147.89613,140.85259 C147.853877,140.560964 147.832517,140.265602 147.832517,139.970987 C147.832517,139.676371 147.853877,139.381009 147.89613,139.089383 L147.89613,139.089383 L146,137.77333 L148.064423,134.197657 L150.152542,135.181887 C150.618128,134.813136 151.12961,134.517306 151.679297,134.298882 L151.679297,134.298882 L151.870881,132 L155.999727,132 Z" id="ico_admin"></path>
        </g>
    </g>
</svg>