<?xml version="1.0" encoding="UTF-8"?>
<svg width="84px" height="84px" viewBox="0 0 84 84" version="1.1" xmlns="http://www.w3.org/2000/svg" xmlns:xlink="http://www.w3.org/1999/xlink">
    <!-- Generator: Sketch 63.1 (92452) - https://sketch.com -->
    <title>Icon/Menu/Timesheet</title>
    <desc>Created with Sketch.</desc>
    <g id="Icon/Menu/Timesheet" stroke="none" stroke-width="1" fill="none" fill-rule="evenodd">
        <g id="Icon/Menu/Preferences">
            <rect id="bound" x="0" y="0" width="84" height="84"></rect>
            <g id="Icon" transform="translate(13.000000, 13.000000)" fill-rule="nonzero">
                <path d="M28.3499992,48.6978248 C17.1078256,48.6978248 8.0021737,39.5921729 8.0021737,28.3499992 C8.0021737,17.1078256 17.1078256,8.0021737 28.3499992,8.0021737 L28.3499992,23.2630429 C25.5394558,23.2630429 23.2630429,25.5394558 23.2630429,28.3499992 C23.2630429,31.1605427 25.5394558,33.4369556 28.3499992,33.4369556 C31.1605427,33.4369556 33.4369556,31.1605427 33.4369556,28.3499992 L48.6978248,28.3499992 C48.6978248,39.5921729 39.5921729,48.6978248 28.3499992,48.6978248 Z" id="Path" fill="#E3EDC3"></path>
                <g id="Group" fill="#274642">
                    <path d="M28.7999992,0 C44.6804961,0 57.5999985,12.9198902 57.5999985,28.7999992 C57.5999985,44.6809381 44.6809381,57.5999985 28.7999992,57.5999985 C12.9198902,57.5999985 0,44.6804961 0,28.7999992 C0,12.9203321 12.9203321,0 28.7999992,0 Z M28.7999992,1.64347822 C13.8247324,1.64347822 1.64347822,13.8247324 1.64347822,28.7999992 C1.64347822,43.77443 13.825168,55.9565203 28.7999992,55.9565203 C43.7739944,55.9565203 55.9565203,43.7739944 55.9565203,28.7999992 C55.9565203,13.825168 43.77443,1.64347822 28.7999992,1.64347822 Z M28.7999992,7.63043458 C40.4727534,7.63043458 49.9695639,17.1272451 49.9695639,28.7999992 C49.9695639,40.4727534 40.4727534,49.9695639 28.7999992,49.9695639 C17.1272451,49.9695639 7.63043458,40.4727534 7.63043458,28.7999992 C7.63043458,17.1272451 17.1272451,7.63043458 28.7999992,7.63043458 Z M27.9782601,9.30790961 L27.4984542,9.33975968 L27.1753239,9.36389023 C17.7181199,10.1487492 10.1526317,17.6939151 9.36421755,27.1713728 L9.36421755,27.1713728 L9.30386596,27.9782601 L16.0826083,27.9782601 L16.1783735,27.9837937 C16.5868108,28.0313045 16.9043474,28.3789182 16.9043474,28.7999992 C16.9043474,29.2239373 16.5807789,29.5779181 16.1621809,29.6179577 L16.1621809,29.6179577 L16.0612198,29.6222469 L9.30791387,29.6217383 L9.33975942,30.1015403 L9.36388874,30.4246971 C10.1487075,39.8826596 17.6934624,47.4473577 27.1713741,48.2357815 L27.1713741,48.2357815 L27.9782601,48.2961318 L27.9782601,41.5173902 L27.9837865,41.421484 C28.0312369,41.0125298 28.3784456,40.6956511 28.7999992,40.6956511 C29.2244007,40.6956511 29.5779305,41.0185484 29.6179519,41.4375577 L29.6179519,41.4375577 L29.6222453,41.538744 L29.6217383,48.2920846 L30.1015403,48.2602391 L30.4247124,48.236109 C39.8831136,47.4512782 47.4473985,39.9073059 48.2357819,30.4286615 L48.2357819,30.4286615 L48.2961271,29.6217383 L34.6627942,29.6217383 L34.5893334,29.9817753 L34.5415415,30.1956587 C33.9051082,32.8142673 31.5418268,34.7086947 28.7999992,34.7086947 C25.5423427,34.7086947 22.8913037,32.0576558 22.8913037,28.7999992 C22.8913037,26.0585784 24.7848311,23.6893481 27.4176064,23.0552747 L27.4176064,23.0552747 L27.9782601,22.9306771 L27.9782601,9.30790961 Z M28.7999992,24.534782 C26.4480146,24.534782 24.534782,26.4480146 24.534782,28.7999992 C24.534782,31.1519838 26.4480146,33.0652165 28.7999992,33.0652165 C31.1519838,33.0652165 33.0652165,31.1519838 33.0652165,28.7999992 C33.0652165,26.4480146 31.1519838,24.534782 28.7999992,24.534782 Z M29.6217383,9.30791387 L29.6217383,22.937222 L29.9817961,23.0106693 L30.2112684,23.0623028 C32.3375029,23.5858396 34.0209552,25.2665116 34.5412161,27.4030837 L34.5412161,27.4030837 L34.6697775,27.9782601 L48.2920889,27.9782601 L48.2602388,27.4984542 L48.2360768,27.1749159 C47.4412537,17.5983842 39.7217283,9.97827317 30.1015403,9.33975942 L30.1015403,9.33975942 L29.6217383,9.30791387 Z" id="Combined-Shape"></path>
                </g>
            </g>
        </g>
    </g>
</svg>