<?xml version="1.0" encoding="UTF-8"?>
<svg width="16px" height="16px" viewBox="0 0 16 16" version="1.1" xmlns="http://www.w3.org/2000/svg" xmlns:xlink="http://www.w3.org/1999/xlink">
    <!-- Generator: Sketch 61.2 (89653) - https://sketch.com -->
    <title>ico-invitation-declined</title>
    <desc>Created with Sketch.</desc>
    <g id="Page-1" stroke="none" stroke-width="1" fill="none" fill-rule="evenodd">
        <g id="200617_staff_listing" transform="translate(-881.000000, -796.000000)" fill="#FF0017" fill-rule="nonzero">
            <g id="Group-10-Copy-5" transform="translate(814.000000, 563.000000)">
                <g id="Group-3-Copy" transform="translate(67.000000, 233.000000)">
                    <g id="invitation">
                        <path d="M8.39857126,0.612834053 L8.47079381,0.647868353 L8.53097953,0.689810063 L10.4989712,2.31908565 L13.3414968,2.3193704 C13.5223612,2.3193704 13.6815918,2.42314232 13.759135,2.58201874 L13.7842673,2.64408537 L13.8010376,2.71074772 L13.8072958,2.78516939 L13.8068568,5.05714272 L15.7116497,6.63402504 L15.7633035,6.68627621 L15.7895341,6.71919127 L15.8078907,6.74896153 L15.8346566,6.79954612 C15.846272,6.82588865 15.8553973,6.85322586 15.8621634,6.88329256 L15.8705596,6.93065658 L15.8742853,6.98803595 L15.8742853,15.4054628 C15.875483,15.5298027 15.8269549,15.6494716 15.739473,15.7378284 C15.6872253,15.7905985 15.6234581,15.8297831 15.5503056,15.8530804 L15.4741038,15.8709968 L15.4084506,15.8759004 L1.04865654,15.8759004 C0.845184163,15.8759004 0.66909161,15.7445641 0.60588568,15.5511855 L0.589115316,15.4845231 L0.582857127,15.4101015 L0.582857127,6.98985066 C0.582857127,6.96105118 0.58549726,6.93237399 0.591379606,6.90215867 L0.602710047,6.85547452 L0.626266929,6.79360585 L0.653076304,6.7440858 L0.675656607,6.70986743 L0.700089761,6.68120748 L0.752611601,6.62932891 L2.65097136,5.05782844 L2.65162607,2.78516939 C2.65162607,2.60430506 2.755398,2.44507436 2.91427442,2.3675312 L2.97634104,2.3423989 L3.0430034,2.32562857 L3.11742506,2.3193704 L5.9595427,2.31908565 L7.93705086,0.689781119 C8.06768349,0.5816907 8.24439136,0.554582336 8.39857126,0.612834053 Z M14.9423996,7.91451408 L13.7080278,8.83085558 C13.6848627,8.86106461 13.6581444,8.8882393 13.6260669,8.91317912 L13.5737055,8.94901262 L13.5300117,8.96867878 L8.50686848,12.7142596 C8.38667326,12.8038212 8.23261406,12.8289483 8.08754175,12.7834787 L8.01595289,12.7548323 L7.95025377,12.7142708 L2.9535166,8.98768438 C2.91797917,8.97403515 2.88434414,8.95611831 2.85133274,8.9324285 L2.80212352,8.89237588 L2.7708856,8.8560586 L1.5140571,7.9158855 L1.5140571,14.943771 L14.9423996,14.9403425 L14.9423996,7.91451408 Z M12.8756568,3.25028563 L3.58285705,3.25028563 L3.58285705,8.29508549 L8.22925692,11.759314 L12.8756568,8.29508549 L12.8756568,3.25028563 Z M8.59240279,5.40437608 L8.69525993,5.50723322 L8.69485691,6.71999982 L9.90806697,6.72004027 L10.0109241,6.82289741 L10.0109241,7.5487811 L9.90806697,7.65163824 L8.69485691,7.6511998 L8.69525993,8.86444529 L8.59240279,8.96730243 L7.8665191,8.96730243 L7.76366196,8.86444529 L7.76365694,7.6511998 L6.55085491,7.65163824 L6.44799777,7.5487811 L6.44799777,6.82289741 L6.55085491,6.72004027 L7.76365694,6.71999982 L7.76366196,5.50723322 L7.8665191,5.40437608 L8.59240279,5.40437608 Z M2.65097136,6.27017126 L1.80274281,6.97234267 L2.65097136,7.60457123 L2.65097136,6.27017126 Z M13.8068568,6.26948555 L13.8068568,7.60182837 L14.655771,6.9689141 L13.8068568,6.26948555 Z M8.22925692,1.6484571 L7.42422837,2.31908565 L9.03428547,2.31908565 L8.22925692,1.6484571 Z" id="ico-invitation-declined"></path>
                    </g>
                </g>
            </g>
        </g>
    </g>
</svg>