<svg xmlns="http://www.w3.org/2000/svg" width="36" height="36" viewBox="0 0 36 36">
    <g fill="none" transform="translate(1 1)">
        <circle cx="16.8" cy="16.8" r="16.8" stroke="#E5E7DF" stroke-width=".843"/>
        <path fill="#8CAEB4" d="M23.453 11.349h-3.317v-.882c0-1.118-.909-2.027-2.026-2.027h-3.366c-1.118 0-2.028.909-2.028 2.027v.882H9.4c-1.206 0-2.188.981-2.188 2.187v9.22c0 1.206.982 2.188 2.188 2.188h14.053c1.206 0 2.188-.982 2.188-2.188v-9.22c0-1.206-.982-2.187-2.188-2.187zm-9.279-.882c0-.314.256-.569.57-.569h3.366c.313 0 .568.255.568.569v.882h-4.504v-.882zM9.4 12.807h14.053c.402 0 .73.327.73.73v2.713H8.67v-2.714c0-.402.327-.729.73-.729zm6.18 4.902h1.694v1.584H15.58v-1.584zm7.873 5.776H9.4c-.402 0-.729-.327-.729-.729v-5.047h5.45v1.879c0 .641.522 1.164 1.164 1.164h2.284c.642 0 1.164-.523 1.164-1.164v-1.88h5.45v5.048c0 .402-.328.73-.73.73z"/>
    </g>
</svg>
