<svg xmlns="http://www.w3.org/2000/svg" width="36" height="36" viewBox="0 0 36 36">
    <g fill="none" transform="translate(1 1)">
        <circle cx="16.8" cy="16.8" r="16.8" stroke="#E5E7DF" stroke-width=".843"/>
        <path fill="#8CAEB4" d="M18.433 8c.22 0 .417.118.525.303l.046.098.028.104.009.104-.044 1.955.087.027.336.118.329.136.318.151v.05l1.415-1.42c.045-.046.098-.086.157-.116l.093-.039.094-.022.093-.008c.098 0 .194.024.281.07l.084.052.067.059 2.03 2.03c.177.178.222.444.123.67l-.052.095-.074.091-1.42 1.352.04.075.153.319.135.328.118.336-.033.04 2.021.002c.22 0 .417.117.525.302l.047.099.027.103.009.104v2.865c0 .258-.162.483-.398.57l-.106.029-.104.009-1.963-.044-.027.092-.118.338-.133.328-.15.316-.048-.004 1.421 1.415c.047.046.086.098.117.157l.038.093.023.094.007.093c0 .098-.023.194-.069.281l-.052.084-.06.067-2.022 2.023c-.115.118-.272.185-.437.185-.098 0-.194-.023-.281-.069l-.084-.052-.068-.06-3.236-3.29-.08.027c-.13.04-.26.072-.39.098l-.196.035-.292.033-.292.011c-2.368 0-4.292-1.924-4.292-4.292 0-.465.08-.928.236-1.382.065-.202.23-.355.435-.406.13-.032.266-.02.39.035l.09.05.094.075 1.887 1.923 1.238-.167.234-1.235-1.942-1.941c-.07-.072-.122-.159-.15-.256l-.021-.1-.004-.1.017-.117c.05-.204.203-.37.397-.431.462-.16.925-.24 1.391-.24 2.368 0 4.292 1.924 4.292 4.292 0 .29-.033.582-.1.876l-.077.297-.041.015.709.795.263.263.052-.108.109-.28.093-.284.08-.293c.05-.2.199-.356.391-.423l.1-.025.097-.008 1.816.06.06-1.71h-1.879c-.174 0-.336-.076-.45-.204l-.062-.082-.046-.09-.03-.093c-.136-.572-.36-1.114-.66-1.601-.104-.167-.119-.37-.044-.552l.055-.106.072-.09 1.324-1.24-1.163-1.249-1.312 1.32c-.112.116-.263.182-.422.186l-.12-.008-.114-.031-.102-.05c-.493-.304-1.029-.526-1.591-.66-.206-.047-.369-.194-.44-.39l-.026-.102-.01-.1.062-1.817-1.712-.06.001 1.88c-.001.173-.076.335-.204.45l-.083.062-.09.046-.092.029c-.567.136-1.103.358-1.595.66-.172.107-.383.12-.565.041l-.105-.058-.085-.073-1.232-1.324-1.25 1.163 1.333 1.332c.107.113.166.26.167.415l-.01.116-.031.11-.05.098c-.3.489-.523 1.03-.66 1.598-.045.205-.193.368-.39.438l-.1.027-.1.01-1.818-.062-.06 1.71 1.877.001c.171 0 .331.072.446.197l.064.082.048.09.033.094c.136.572.36 1.114.66 1.601.104.168.119.371.044.552l-.055.106-.072.09-1.325 1.239 1.162 1.248 1.314-1.318c.112-.116.263-.182.422-.186l.12.008.114.031.102.05c.493.304 1.029.526 1.591.66.21.048.376.2.444.399l.025.103.006.097-.061 1.816 1.71.06.001-1.87c-.002-.109.026-.214.08-.309l.062-.09.075-.076.084-.059c.19-.11.424-.11.613 0 .125.073.219.187.267.323l.027.105.008.1v2.424c0 .258-.162.483-.399.57l-.105.029-.104.009h-2.866c-.258 0-.482-.162-.57-.398l-.029-.106-.009-.104.044-1.964-.087-.025-.336-.118-.329-.136-.319-.151v-.051l-1.414 1.42c-.045.048-.098.087-.157.117l-.093.04-.094.022-.093.007c-.098 0-.194-.024-.281-.07l-.084-.052-.067-.059-2.03-2.029c-.177-.18-.222-.444-.123-.671l.052-.095.074-.09 1.42-1.355L11 20.06l-.152-.318-.135-.327-.118-.333.032-.04h-2.02c-.22 0-.417-.117-.525-.303l-.047-.098-.027-.103L8 18.433v-2.865c0-.259.162-.483.398-.57l.106-.03.104-.008 1.962.042.026-.086.119-.335.135-.329.152-.318.05-.002-1.432-1.426c-.148-.15-.205-.36-.16-.561l.031-.1.056-.105.074-.09 2.023-2.023c.115-.119.272-.186.437-.186.098 0 .194.024.281.07l.084.052.068.06 1.347 1.412.073-.04.319-.15.328-.136.336-.118.042.031V8.616c-.003-.185.077-.355.22-.473l.093-.064.104-.046.117-.03.042-.003h2.898zm-1.36 5.925l1.305 1.305c.083.083.14.188.165.303l.014.119-.008.111-.331 1.942c-.028.187-.14.348-.302.44l-.102.047-.1.024-1.952.333c-.116.02-.234.005-.342-.042l-.104-.057-.085-.07-.776-.862-.532-.532V17c0 1.564 1.165 2.862 2.687 3.052l.2.019.19.006c.393 0 .781-.079 1.156-.232.155-.064.328-.06.48.006l.11.063.075.064 3.054 3.147 1.25-1.163-3.147-3.14c-.124-.124-.188-.293-.178-.466l.014-.103.03-.094c.154-.377.232-.766.232-1.159 0-1.633-1.267-2.966-2.873-3.07l-.13-.005z"/>
    </g>
</svg>
