<svg xmlns="http://www.w3.org/2000/svg" width="36" height="36" viewBox="0 0 36 36">
    <g fill="none" transform="translate(1 1)">
        <circle cx="16.8" cy="16.8" r="16.8" stroke="#E5E7DF" stroke-width=".843"/>
        <path fill="#8CAEB4" stroke="#FFF" stroke-width=".5" d="M17 9.8c-3.97 0-7.2 3.23-7.2 7.2s3.23 7.2 7.2 7.2 7.2-3.23 7.2-7.2-3.23-7.2-7.2-7.2zM17 26c-4.97 0-9-4.03-9-9s4.03-9 9-9 9 4.03 9 9-4.03 9-9 9zm4.5-7.2h-4.15c-.995 0-1.25-.478-1.25-1.472V12.5c0-.497.403-.9.9-.9s.9.403.9.9v3.778c0 .495.21.722.705.722H21.5c.497 0 .9.403.9.9s-.403.9-.9.9z"/>
    </g>
</svg>
