<svg xmlns="http://www.w3.org/2000/svg" width="36" height="36" viewBox="0 0 36 36">
    <g fill="none" transform="translate(1 1)">
        <circle cx="16.8" cy="16.8" r="16.8" stroke="#E5E7DF" stroke-width=".843"/>
        <path fill="#8CAEB4" stroke="#FFF" stroke-width=".5" d="M24.174 15.2H9.797v-2.726c0-.482.391-.874.873-.874h.924v1.8h1.797v-1.8h7.189v1.8h1.797v-1.8h.899c.496 0 .898.403.898.9v2.7zm0 8.1c0 .495-.404.9-.898.9h-12.58c-.496 0-.899-.403-.899-.9V17h14.377v6.3zm-16.116.685c0 .994.861 2.015 1.853 2.015h14.377c.993 0 1.712-.919 1.712-2.015 0-.35-.029-11.161-.029-11.748 0-1.874-.252-2.437-3.594-2.437V8H20.58v1.8H13.39V8h-1.797v1.8H9.797C8.81 9.8 8 10.61 8 11.6l.058 12.385z"/>
    </g>
</svg>
