<svg width="36" height="36" viewBox="0 0 36 36" xmlns="http://www.w3.org/2000/svg">
    <g transform="translate(1 1)" fill-rule="nonzero" fill="none">
        <circle stroke="#E5E7DF" stroke-width=".843" cx="16.8" cy="16.8" r="16.8"/>
        <path d="m15.61 14.07.238.01c1.27.092 2.437.73 3.2 1.75a.732.732 0 0 1-1.171.877 2.924 2.924 0 0 0-4.268-.45l-.142.134-2.185 2.186a2.928 2.928 0 0 0 .036 4.102 2.922 2.922 0 0 0 3.956.167l.134-.122 1.25-1.251a.73.73 0 0 1 1.105.952l-.07.083-1.26 1.26a4.384 4.384 0 0 1-6.15-.054 4.394 4.394 0 0 1-.191-6.003l.147-.16 2.193-2.195a4.385 4.385 0 0 1 3.179-1.286zm8.106-3.784a4.394 4.394 0 0 1 .192 6.003l-.147.16-2.193 2.195a4.385 4.385 0 0 1-6.616-.474.732.732 0 0 1 1.171-.877 2.924 2.924 0 0 0 4.268.45l.142-.134 2.185-2.186a2.928 2.928 0 0 0-.036-4.102 2.922 2.922 0 0 0-3.957-.166l-.135.123-1.257 1.25a.73.73 0 0 1-1.102-.955l.07-.082 1.266-1.259a4.384 4.384 0 0 1 6.15.054z" fill="#8CAEB4"/>
    </g>
</svg>
