<svg width="85" height="84" viewBox="0 0 85 84" fill="none" xmlns="http://www.w3.org/2000/svg">
<path fill-rule="evenodd" clip-rule="evenodd" d="M68.332 32V63.316C68.332 65.903 66.2399 68 63.6593 68H22.0048C19.424 68 17.332 65.9028 17.332 63.316V32H68.332ZM60.332 44.0006C60.3323 41.8173 58.5818 40.0369 56.3987 40.0006C54.1899 39.9637 52.3694 41.7245 52.3326 43.9333C52.2957 46.1422 54.0565 47.9626 56.2654 47.9994C58.4742 48.0363 60.2948 46.2755 60.3315 44.0667C60.3319 44.0446 60.332 44.0226 60.332 44.0006ZM56.4688 52.0006C58.6397 52.0384 60.3692 53.829 60.3314 56.0003C60.3314 58.2093 58.5409 60 56.332 60C54.1385 59.9638 52.3688 58.1941 52.3326 56.0003C52.3318 55.9548 52.3318 55.9091 52.3326 55.8635C52.3704 53.6924 54.1609 51.9628 56.332 52.0006C56.3776 51.9998 56.4232 51.9998 56.4688 52.0006ZM46.332 44.0006C46.3323 41.8173 44.5818 40.0369 42.3987 40.0006C40.1899 39.9637 38.3695 41.7245 38.3326 43.9333C38.2957 46.1422 40.0565 47.9626 42.2654 47.9994C44.4742 48.0363 46.2946 46.2755 46.3315 44.0667L46.3319 44.0315L46.332 44.0006ZM43.4688 52.0006C45.6397 52.0384 47.3692 53.829 47.3314 56.0003C47.3314 58.2093 45.5409 60 43.332 60C41.1385 59.9638 39.3689 58.1941 39.3326 56.0003C39.3318 55.9548 39.3318 55.9091 39.3326 55.8635C39.3704 53.6924 41.1609 51.9628 43.332 52.0006C43.3776 51.9998 43.4232 51.9998 43.4688 52.0006ZM32.332 44C32.332 41.7908 30.5411 40 28.332 40C26.123 40 24.332 41.7909 24.332 44C24.332 46.2092 26.123 48 28.3322 48C30.5413 48 32.332 46.2092 32.332 44ZM28.3304 52C30.5396 51.9991 32.3311 53.7896 32.332 55.9992C32.332 58.2088 30.5412 60 28.332 60C26.1381 59.9638 24.3684 58.1937 24.332 55.9992C24.3329 53.7909 26.1226 52.0009 28.3304 52Z" fill="#E3EDC3"/>
<path d="M55.6593 20.1152H64.3167C66.9729 20.1152 69.1262 22.2686 69.1262 24.9248V32.2079H16.6328V24.9248C16.6328 22.2685 18.7862 20.1152 21.4424 20.1152H55.6593Z" fill="white"/>
<circle cx="57.1006" cy="44.438" r="4.05374" fill="white"/>
<circle cx="57.1006" cy="56.5308" r="4.05374" fill="white"/>
<circle cx="42.878" cy="44.438" r="4.05374" fill="white"/>
<circle cx="42.878" cy="56.5308" r="4.05374" fill="white"/>
<circle cx="28.6553" cy="44.438" r="4.05374" fill="white"/>
<circle cx="28.6553" cy="56.5308" r="4.05374" fill="white"/>
<path fill-rule="evenodd" clip-rule="evenodd" d="M55.4561 14C54.9642 14 54.5588 14.3702 54.5034 14.8472L54.497 14.9591V18.8783H30.3058L30.3063 14.98L30.3008 14.8605C30.2514 14.3741 29.8398 14 29.3467 14C28.8549 14 28.4495 14.3702 28.3941 14.8472L28.3876 14.9591V18.8783L20.7434 18.8772C17.7976 18.9189 15.4025 21.2864 15.3329 24.2415L15.332 64.1029C15.3746 67.0091 17.6526 69.3849 20.5332 69.5686L20.7618 69.5785L64.057 69.5786C66.9627 69.5028 69.3125 67.1981 69.464 64.3165L69.4714 64.0878L69.4697 63.8797L69.4708 24.2887C69.4291 21.3427 67.0616 18.9476 64.1071 18.8781L56.4151 18.8783L56.4157 14.98L56.4102 14.8605C56.3608 14.3741 55.9492 14 55.4561 14ZM67.5511 63.8736L67.5512 32.4771H17.2508V63.8798L17.248 63.9836L17.2488 64.0991C17.2918 66.0342 18.8402 67.5954 20.7667 67.6603L20.9616 67.6616L63.9429 67.6623L64.0588 67.6594L64.258 67.6455C66.1034 67.4668 67.5295 65.9295 67.5539 64.0685L67.5511 63.8736ZM28.1793 51.0342C25.4108 51.0339 23.1663 53.2781 23.166 56.0466C23.1658 58.7404 25.2902 60.938 27.9573 61.0551L28.2476 61.0604C30.9044 61.0602 33.0716 58.9645 33.1866 56.3316L33.1918 56.0475C33.192 53.2789 30.9479 51.0344 28.1793 51.0342ZM37.3887 56.0466C37.3889 53.2781 39.6334 51.0339 42.402 51.0342C45.1706 51.0344 47.4147 53.2789 47.4145 56.0475L47.4093 56.3338C47.2943 58.9645 45.127 61.0602 42.4703 61.0604L42.18 61.0551C39.5129 60.938 37.3884 58.7404 37.3887 56.0466ZM56.6246 51.0342C53.8561 51.0339 51.6116 53.2781 51.6113 56.0466C51.6111 58.7404 53.7355 60.938 56.4026 61.0551L56.6929 61.0604C59.3497 61.0602 61.5169 58.9645 61.6319 56.3316L61.6371 56.0475C61.6374 53.2789 59.3932 51.0344 56.6246 51.0342ZM42.552 53.021L42.4712 53.02L42.2197 53.0261C40.5951 53.1202 39.3067 54.4675 39.3067 56.1157C39.3067 57.8249 40.6923 59.2105 42.4015 59.2105C44.1108 59.2105 45.4963 57.825 45.4963 56.1157C45.5407 54.4561 44.2226 53.0657 42.552 53.021ZM28.2485 53.02L28.3293 53.021C29.9999 53.0657 31.318 54.4561 31.2736 56.1157C31.2736 57.825 29.8881 59.2105 28.1788 59.2105C26.4696 59.2105 25.084 57.8249 25.084 56.1157C25.084 54.4675 26.3724 53.1202 27.997 53.0261L28.2485 53.02ZM56.7746 53.0211L56.6938 53.02L56.4422 53.0262C54.8177 53.1203 53.5293 54.4675 53.5293 56.1157C53.5293 57.8249 54.9148 59.2105 56.6241 59.2105C58.3333 59.2105 59.7189 57.825 59.7189 56.1157C59.7632 54.4561 58.4451 53.0657 56.7746 53.0211ZM28.1788 38.9415C25.4103 38.9415 23.166 41.1858 23.166 43.9543C23.166 46.7228 25.4103 48.9671 28.1788 48.9671C30.9474 48.9671 33.1917 46.7228 33.1917 43.9543C33.1917 41.1859 30.9473 38.9415 28.1788 38.9415ZM51.6114 43.9543C51.6114 41.1859 53.8558 38.9415 56.6242 38.9415C59.3927 38.9415 61.637 41.1858 61.637 43.9543C61.637 46.7227 59.3927 48.9671 56.6242 48.9671C53.8557 48.9671 51.6114 46.7228 51.6114 43.9543ZM42.4015 38.9415C39.6331 38.9415 37.3887 41.1859 37.3887 43.9543C37.3887 46.7228 39.633 48.9671 42.4015 48.9671C45.17 48.9671 47.4143 46.7228 47.4143 43.9543C47.4143 41.1859 45.17 38.9415 42.4015 38.9415ZM31.2734 43.9542C31.2732 42.2449 29.8877 40.8594 28.1786 40.8594C26.5422 40.8594 25.1913 42.1332 25.0899 43.7588L25.084 43.9413L25.0892 44.1244C25.1832 45.7606 26.5304 47.049 28.1786 47.049C29.8878 47.049 31.2734 45.6634 31.2734 43.9542ZM56.6239 40.8594C58.333 40.8594 59.7185 42.2449 59.7187 43.9542C59.7187 45.6634 58.3331 47.049 56.6239 47.049C54.9757 47.049 53.6285 45.7606 53.5345 44.1244L53.5293 43.9413L53.5352 43.7588C53.6366 42.1332 54.9875 40.8594 56.6239 40.8594ZM45.4959 43.9544C45.4959 42.2449 44.1104 40.8594 42.4012 40.8594C40.7648 40.8594 39.414 42.1332 39.3125 43.7588L39.3066 43.9413L39.312 44.1245C39.4068 45.7607 40.7547 47.0484 42.4028 47.0475C44.1107 47.0466 45.495 45.6623 45.4959 43.9544ZM20.9639 20.7963L20.871 20.7935L20.7697 20.7936L20.6643 20.7968C18.7696 20.8812 17.2734 22.43 17.248 24.3182L17.251 24.516L17.2509 30.5587H67.5514V24.5095L67.5543 24.4165C67.5552 24.3513 67.5542 24.2805 67.551 24.2098C67.47 22.3921 66.0376 20.9307 64.2369 20.8024L64.0415 20.7939L63.8318 20.7965L56.4148 20.7965V24.6469L56.4084 24.7588C56.353 25.2358 55.9476 25.606 55.4557 25.606C54.9626 25.606 54.551 25.2319 54.5016 24.7455L54.4961 24.626L54.4967 20.7965H30.3055V24.6468L30.2991 24.7587C30.2437 25.2357 29.8383 25.6059 29.3464 25.6059C28.8533 25.6059 28.4417 25.2318 28.3923 24.7454L28.3868 24.6259L28.3873 20.7963H20.9639Z" fill="#274642"/>
</svg>
