<svg xmlns="http://www.w3.org/2000/svg" width="18" height="18" viewBox="0 0 18 18">
    <g fill="none">
        <path fill="#F5F8EF" d="M11.571.43H1.286c-.474 0-.857.384-.857.857v.137C.427.951.81.566 1.284.565c.141 0 .28.034.405.1l6.428 2.95c.28.148.455.44.454.758v10.2h3c.474 0 .857-.384.857-.858V1.287c0-.473-.383-.857-.857-.857z"/>
        <g fill="#587E85">
            <path d="M17.875 6.983L15.732 4.84c-.18-.154-.45-.133-.604.047-.137.16-.137.397 0 .557l1.41 1.414h-3.681v-5.57C12.857.576 12.28 0 11.57 0H1.286C.576.001 0 .577 0 1.287v12.711c0 .528.323 1.002.814 1.196l6.429 2.293c.66.26 1.407-.065 1.667-.725.06-.151.09-.312.09-.475V15h2.571c.71 0 1.286-.576 1.286-1.286v-6h3.681l-1.41 1.41c-.18.154-.2.425-.046.605.153.18.424.2.604.046.016-.014.032-.03.046-.046l2.143-2.143c.167-.168.167-.437 0-.604zm-9.732 9.304c-.002.236-.194.427-.431.426-.055 0-.11-.011-.16-.032l-6.43-2.288c-.159-.066-.264-.222-.265-.395V1.424c0-.236.192-.428.429-.428.08 0 .157.021.227.06l6.407 2.94c.14.074.227.219.227.377l-.004 11.914zM12 13.715c0 .237-.192.429-.429.429H9V4.373c0-.486-.274-.93-.707-1.149L3.128.86h8.443c.237 0 .429.192.429.428v12.428z"/>
            <path d="M6.566 9.88L5.28 9.45c-.225-.074-.468.047-.542.272-.075.225.047.468.272.543l1.286.428c.225.075.467-.047.542-.272.074-.225-.047-.468-.272-.542z"/>
        </g>
    </g>
</svg>
