<svg xmlns="http://www.w3.org/2000/svg" width="143" height="28" viewBox="0 0 143 28">
    <path fill="#587E85" d="M3.256 27V3.888h.072L11.86 27h2.304L22.66 3.888h.072V27h2.448V1.08h-3.708L13.12 23.94h-.072L4.552 1.08H.808V27h2.448zm30.532 0V1.08H31.34V27h2.448zm8.68 0V15.228h7.703c.6 0 1.182.036 1.746.108.564.072 1.074.216 1.53.432.456.216.846.534 1.17.954.324.42.558.978.702 1.674.096.504.162 1.152.198 1.944.036.792.084 1.608.144 2.448.06.84.144 1.644.252 2.412.108.768.294 1.368.558 1.8h2.7v-.252c-.168-.12-.312-.294-.432-.522-.12-.228-.222-.546-.306-.954-.084-.408-.156-.936-.216-1.584s-.102-1.464-.126-2.448c-.024-.672-.066-1.368-.126-2.088s-.198-1.404-.414-2.052c-.216-.648-.54-1.224-.972-1.728-.432-.504-1.032-.888-1.8-1.152 1.488-.672 2.562-1.488 3.222-2.448.66-.96.99-2.256.99-3.888 0-2.4-.756-4.134-2.268-5.202-1.512-1.068-3.696-1.602-6.552-1.602H40.02V27h2.448zm7.631-13.86h-7.632V3.168h7.776c.816 0 1.602.072 2.358.216.756.144 1.428.396 2.016.756.588.36 1.056.852 1.404 1.476.348.624.522 1.416.522 2.376 0 .912-.168 1.692-.504 2.34-.336.648-.792 1.182-1.368 1.602-.576.42-1.254.726-2.034.918-.78.192-1.626.288-2.538.288zM67.297 27l1.793-5.326h9.545L80.305 27h5.87L77 1.09h-6.117L61.637 27h5.66zm9.826-9.791H70.55l3.34-10.195 3.234 10.195zM93.165 27l5.204-8.824L103.29 27h6.575l-8.42-13.412 7.928-12.498h-6.258l-4.746 8.42-4.623-8.42h-6.47l7.929 12.709L86.873 27h6.292zm24.41 0V1.09h-5.379V27h5.379zm14.232.668c3.304 0 5.862-.782 7.673-2.347 1.81-1.564 2.715-3.53 2.715-5.897 0-2.309-.773-4.072-2.32-5.291-.996-.785-2.473-1.412-4.43-1.881l-4.464-1.072c-1.723-.41-2.848-.768-3.375-1.073-.82-.457-1.23-1.148-1.23-2.074 0-1.008.415-1.793 1.247-2.355.832-.563 1.945-.844 3.34-.844 1.254 0 2.303.217 3.146.65 1.266.657 1.946 1.764 2.04 3.323h5.203c-.094-2.754-1.105-4.855-3.033-6.302-1.927-1.447-4.256-2.171-6.987-2.171-3.27 0-5.748.768-7.435 2.303-1.688 1.535-2.532 3.463-2.532 5.783 0 2.543.873 4.412 2.62 5.607 1.03.715 2.894 1.377 5.59 1.987l2.742.615c1.605.351 2.783.756 3.533 1.213.75.469 1.125 1.13 1.125 1.986 0 1.465-.756 2.467-2.268 3.006-.797.281-1.834.422-3.111.422-2.133 0-3.639-.533-4.518-1.6-.48-.586-.803-1.47-.967-2.654h-5.168c0 2.695.967 4.813 2.9 6.354 1.934 1.541 4.589 2.312 7.964 2.312z"/>
</svg>
