<svg xmlns="http://www.w3.org/2000/svg" width="32" height="32" viewBox="0 0 32 32">
    <g fill="none" fill-rule="evenodd">
        <g>
            <g>
                <g>
                    <g>
                        <path fill="#E3EDC3" fill-rule="nonzero" d="M31.304 29.913v.696c0 .382-.313.695-.695.695H1.39c-.382 0-.695-.313-.695-.695v-.696l12.911-9.391L16 22.26l2.393-1.74 12.911 9.392z" transform="translate(-475 -1215) translate(475 1215)"/>
                        <path fill="#FFF" d="M0.696 10.987L6 7.387 6 0.768 25.763 0.768 25.763 7.241 31.304 10.418 30.609 11.897 30.919 29.458 18.472 20.415 16 22.261 13.23 20.522 0.696 29.458z" transform="translate(-475 -1215) translate(475 1215)"/>
                        <g fill="#274642" fill-rule="nonzero">
                            <path d="M31.678 9.848l-5.243-3.336V.696c0-.384-.312-.696-.696-.696H6.261c-.384 0-.696.312-.696.696v5.816L.322 9.848c-.021.014-.033.035-.053.05-.037.03-.071.062-.102.099-.029.034-.052.07-.073.108-.021.038-.038.077-.052.119-.015.046-.023.091-.028.14-.002.024-.014.046-.014.07V30.61C0 31.376.624 32 1.391 32H30.61c.767 0 1.391-.624 1.391-1.391V10.435c0-.238-.122-.46-.322-.587zm-5.53 5.893l4.46-3.244v16.05L19.576 20.52l6.573-4.78zm4.43-4.943l-4.143 3.015V8.16l4.144 2.637zM6.958 1.39h18.086v13.434L16 21.401l-9.043-6.576V1.391zM1.39 12.497l4.46 3.245 6.574 4.78-11.034 8.025v-16.05zm4.174 1.316l-4.144-3.015L5.565 8.16v5.652zM30.61 30.609H1.39v-.342l12.217-8.885 1.983 1.442c.122.089.265.133.409.133.144 0 .287-.044.409-.133l1.983-1.442 12.217 8.885v.342z" transform="translate(-475 -1215) translate(475 1215)"/>
                            <path d="M10.435 5.565h11.13c.384 0 .696-.311.696-.695 0-.384-.312-.696-.696-.696h-11.13c-.384 0-.696.312-.696.696 0 .384.312.695.696.695zM22.26 9.043c0-.384-.31-.695-.695-.695h-11.13c-.384 0-.696.311-.696.695 0 .384.312.696.696.696h11.13c.384 0 .696-.312.696-.696zM21.565 13.913c.384 0 .696-.312.696-.696 0-.384-.312-.695-.696-.695H16c-.384 0-.696.311-.696.695 0 .384.312.696.696.696h5.565z" transform="translate(-475 -1215) translate(475 1215)"/>
                        </g>
                    </g>
                </g>
            </g>
        </g>
    </g>
</svg>
