<svg width="30" height="30" viewBox="0 0 30 30" fill="none" xmlns="http://www.w3.org/2000/svg">
<path fill-rule="evenodd" clip-rule="evenodd" d="M19 19H11V13C11 10.334 13 9 14.999 9H15.001C17 9 19 10.334 19 13V19ZM16 22C16 22.552 15.552 23 15 23C14.448 23 14 22.552 14 22V21H16V22ZM21 18V13C21 9.447 18.632 7.475 16 7.079V5H14V7.079C11.368 7.475 9 9.447 9 13V18C9 18.552 8.552 19 8 19C7.448 19 7 19.448 7 20C7 20.552 7.448 21 8 21H12V22C12 23.657 13.343 25 15 25C16.657 25 18 23.657 18 22V21H22C22.552 21 23 20.552 23 20C23 19.448 22.552 19 22 19C21.448 19 21 18.552 21 18Z" fill="#AAB5C5"/>
<mask id="mask0_1729_135609" style="mask-type:alpha" maskUnits="userSpaceOnUse" x="7" y="5" width="16" height="20">
<path fill-rule="evenodd" clip-rule="evenodd" d="M19 19H11V13C11 10.334 13 9 14.999 9H15.001C17 9 19 10.334 19 13V19ZM16 22C16 22.552 15.552 23 15 23C14.448 23 14 22.552 14 22V21H16V22ZM21 18V13C21 9.447 18.632 7.475 16 7.079V5H14V7.079C11.368 7.475 9 9.447 9 13V18C9 18.552 8.552 19 8 19C7.448 19 7 19.448 7 20C7 20.552 7.448 21 8 21H12V22C12 23.657 13.343 25 15 25C16.657 25 18 23.657 18 22V21H22C22.552 21 23 20.552 23 20C23 19.448 22.552 19 22 19C21.448 19 21 18.552 21 18Z" fill="white"/>
</mask>
<g mask="url(#mask0_1729_135609)">
<rect x="3" y="3" width="24" height="24" fill="#668A90"/>
</g>
</svg>
