<svg width="220" height="107" viewBox="0 0 220 107" fill="none" xmlns="http://www.w3.org/2000/svg">
<path opacity="0.3" fill-rule="evenodd" clip-rule="evenodd" d="M60.5988 99.4754H169.94C175.033 99.4754 179.162 95.3082 179.162 90.1677C179.162 85.0272 175.033 80.86 169.94 80.86C169.94 80.86 162.036 76.6928 162.036 71.5523C162.036 66.4118 167.242 62.2446 173.663 62.2446H187.066C192.159 62.2446 196.287 58.0774 196.287 52.9369C196.287 47.7964 192.159 43.6292 187.066 43.6292H158.084C163.177 43.6292 167.305 39.462 167.305 34.3215C167.305 29.181 163.177 25.0138 158.084 25.0138H210.778C215.871 25.0138 220 20.8466 220 15.7061C220 10.5656 215.871 6.39844 210.778 6.39844H81.6766C76.5837 6.39844 72.4551 10.5656 72.4551 15.7061C72.4551 20.8466 76.5837 25.0138 81.6766 25.0138H28.982C23.8891 25.0138 19.7605 29.181 19.7605 34.3215C19.7605 39.462 23.8891 43.6292 28.982 43.6292H61.9162C67.0091 43.6292 71.1377 47.7964 71.1377 52.9369C71.1377 58.0774 67.0091 62.2446 61.9162 62.2446H9.22156C4.12863 62.2446 0 66.4118 0 71.5523C0 76.6928 4.12863 80.86 9.22156 80.86H60.5988C55.5059 80.86 51.3772 85.0272 51.3772 90.1677C51.3772 95.3082 55.5059 99.4754 60.5988 99.4754ZM201.385 52.9369C201.385 58.0774 205.552 62.2446 210.692 62.2446C215.833 62.2446 220 58.0774 220 52.9369C220 47.7964 215.833 43.6292 210.692 43.6292C205.552 43.6292 201.385 47.7964 201.385 52.9369Z" fill="#EAEDE2"/>
<path d="M94.6773 86.0014L148.074 63.43C151.35 62.0458 155.128 63.5789 156.514 66.8547L159.023 72.7879L93.7595 100.375L91.2511 94.444C89.8661 91.1665 91.4 87.3869 94.6773 86.0014Z" fill="#E1EEC9"/>
<path d="M81.7086 54.6365C82.0443 55.8904 82.4666 57.1193 82.9727 58.3146L94.6777 86.0005L146.096 64.2663L146.095 64.2643L134.39 36.5784C128.871 23.5187 114.437 16.6723 100.832 20.6602C99.8056 20.9595 98.798 21.3189 97.8141 21.7364C96.8278 22.153 95.8659 22.6253 94.9333 23.1511C83.8732 29.4135 78.4376 42.3548 81.7086 54.6365Z" fill="#E1EEC9"/>
<path opacity="0.5" d="M148.074 63.43C151.35 62.0458 155.128 63.5789 156.514 66.8547L159.023 72.7879L153.889 74.9581L151.411 69.0994C150.026 65.8235 146.248 64.2904 142.971 65.6747L148.074 63.43Z" fill="#C0CEA6"/>
<path opacity="0.5" d="M95.7294 22.9049C95.4638 22.9823 95.1987 23.0643 94.934 23.1507C95.8664 22.625 96.828 22.1528 97.8141 21.7364C98.798 21.3189 99.8056 20.9595 100.832 20.6602C114.437 16.6723 128.871 23.5187 134.39 36.5784L146.095 64.2643L146.096 64.2663L140.962 66.4362L129.288 38.823C123.769 25.7634 109.335 18.9169 95.7294 22.9049Z" fill="#C0CEA6"/>
<path d="M119.278 29.4781C118.986 29.5567 118.674 29.5276 118.401 29.3962C117.682 29.0517 116.939 28.7348 116.193 28.457C113.45 27.4319 110.558 26.8667 107.631 26.7843C106.932 26.7604 106.384 26.177 106.403 25.4782C106.423 24.7794 107.003 24.2274 107.702 24.2425C110.908 24.3329 114.078 24.9519 117.082 26.0748C117.9 26.38 118.713 26.7261 119.5 27.1032C119.98 27.3332 120.266 27.8377 120.216 28.3675C120.167 28.8973 119.793 29.3404 119.279 29.4779L119.278 29.4781Z" fill="#004842"/>
<path d="M122.248 30.0792C122.446 29.806 122.744 29.6226 123.077 29.5692C123.41 29.5159 123.751 29.597 124.024 29.7947C124.468 30.1164 124.911 30.4566 125.338 30.8042C125.696 31.0891 125.874 31.5444 125.803 31.9965C125.732 32.4485 125.423 32.8275 124.995 32.9888C124.567 33.1502 124.085 33.069 123.733 32.7762C123.343 32.4584 122.939 32.1481 122.533 31.8547C122.26 31.657 122.076 31.3589 122.023 31.0259C121.97 30.6929 122.051 30.3524 122.248 30.0792Z" fill="#004842"/>
<path fill-rule="evenodd" clip-rule="evenodd" d="M81.8025 58.8098L93.0531 85.4238C89.8756 87.4461 88.6201 91.4655 90.0818 94.9369L92.5772 100.84C92.6453 101.009 92.7477 101.163 92.878 101.291C93.1998 101.6 93.6593 101.718 94.0899 101.603C94.1465 101.588 94.2019 101.568 94.2558 101.546L118.822 91.1606C121.023 96.0424 126.72 98.2723 131.65 96.1812C136.576 94.0962 138.939 88.4624 136.975 83.4873L159.518 73.9575C160.164 73.6842 160.467 72.9384 160.194 72.2916L157.743 66.4942C156.962 64.601 155.477 63.0847 153.601 62.2648C151.679 61.4406 149.503 61.4382 147.579 62.2581L146.772 62.599L135.563 36.0831C129.892 22.6682 115.301 15.6917 101.592 19.1355L99.8619 15.0441C99.2498 13.5467 97.8798 12.4941 96.2753 12.2882C94.6708 12.0823 93.0795 12.7551 92.1092 14.0494C91.1389 15.3438 90.9394 17.0599 91.587 18.5423L93.3156 22.6314C81.0895 30.208 76.2038 45.5607 81.8025 58.8098ZM95.9633 14.8356C96.6603 14.9254 97.255 15.3833 97.5199 16.0342L99.1408 19.8687C98.5306 20.0803 97.9214 20.3122 97.3196 20.5665C96.7177 20.8207 96.1283 21.0952 95.5496 21.3858L93.929 17.5523C93.6467 16.9088 93.7326 16.1631 94.1538 15.6006C94.575 15.0381 95.2664 14.7458 95.9633 14.8356ZM130.658 93.8398C134.292 92.302 136.05 88.1595 134.633 84.4776L121.165 90.1705C122.824 93.7518 127.022 95.3745 130.658 93.8398ZM94.4369 98.7092L92.4241 93.9473C91.3165 91.3176 92.5462 88.2876 95.1732 87.1735L132.35 71.4574C132.99 71.1795 133.286 70.4385 133.015 69.7963C132.743 69.1541 132.005 68.8504 131.36 69.1154L95.3539 84.3355L84.1446 57.8202C80.4259 49.0512 81.6718 38.964 87.4124 31.3633C93.153 23.7627 102.515 19.8051 111.966 20.9834C121.418 22.1616 129.522 28.2964 133.221 37.0738L144.43 63.5899L139.223 65.7914C138.888 65.9329 138.63 66.2109 138.513 66.5552C138.397 66.8994 138.433 67.2771 138.613 67.5927C138.933 68.1519 139.62 68.3841 140.213 68.1334L148.569 64.6001C149.891 64.0374 151.388 64.0536 152.697 64.6446C153.916 65.2065 154.876 66.2085 155.386 67.4494L157.357 72.1109L94.4369 98.7092Z" fill="#004842"/>
</svg>
