<svg xmlns="http://www.w3.org/2000/svg" width="56" height="80" viewBox="0 0 56 80">
    <g fill="none" fill-rule="evenodd">
        <g fill-rule="nonzero">
            <g>
                <g>
                    <g>
                        <g>
                            <path fill="#587E85" d="M6.992 47.508c-1.865-.005-3.326-1.455-3.159-3.135l2.305-23.194c.83-8.347 9.733-14.776 20.426-14.747 10.766.03 20.16 6.697 20.848 15.112l1.918 23.345c.136 1.67-1.797 2.956-3.649 2.95l-38.689-.33z" transform="translate(-929 -3113) translate(430 2909) translate(335 154) translate(164 50) translate(.107 1.098)"/>
                            <path fill="#A9CF3D" d="M39.672 54.198c7.529 0 13.632 6.104 13.632 13.632v8.173c0 .95-.772 1.723-1.723 1.723H1.752c-.95 0-1.723-.773-1.723-1.723V67.83c0-7.528 6.104-13.632 13.633-13.632h26.01z" transform="translate(-929 -3113) translate(430 2909) translate(335 154) translate(164 50) translate(.107 1.098)"/>
                            <path fill="#FCFFF2" d="M14.61 54.104c-.079-.055-.07-.174.017-.217l3.999-2.565c.785-.392 1.736-1.194 1.736-2.07v-6.936l12.254.194v6.742c0 .876.495 1.678 1.28 2.07l5.564 2.782c.085.043.095.161.018.217l-10.723 8.655c-.723.525-2.893.518-3.622 0L14.61 54.104z" transform="translate(-929 -3113) translate(430 2909) translate(335 154) translate(164 50) translate(.107 1.098)"/>
                            <path fill="#E9EEDA" d="M28.293 62.435l-.729.53c-.723.525-1.702.53-2.431.01l-10.135-8.628c-.079-.057-.07-.176.017-.218l3.611-2.806c.784-.393 1.28-1.196 1.28-2.07v-6.937l3.922.06v6.876c0 .875-.496 1.678-1.28 2.07l-3.431 1.715c-1.076.538-1.19 2.027-.212 2.725l9.388 6.673z" transform="translate(-929 -3113) translate(430 2909) translate(335 154) translate(164 50) translate(.107 1.098)"/>
                            <g>
                                <path fill="#FCFFF2" d="M19.517.264C15.445 4.97 4.085 7.51 4.085 7.51l-.028 10.693c-.016 5.722 4.608 10.375 10.332 10.39l3.21.008c5.722.016 10.374-4.61 10.39-10.332l.033-12.152C24.09 5.994 21.484 2.11 20.508.365c-.206-.37-.714-.421-.99-.101z" transform="translate(-929 -3113) translate(430 2909) translate(335 154) translate(164 50) translate(.107 1.098) translate(10.196 16)"/>
                                <path fill="#E9EEDA" d="M4.236 19.922c-2.277 0-4.124-1.847-4.124-4.124 0-2.267 1.832-4.109 4.097-4.124l.027 8.248z" transform="translate(-929 -3113) translate(430 2909) translate(335 154) translate(164 50) translate(.107 1.098) translate(10.196 16)"/>
                                <path fill="#FCFFF2" d="M27.947 19.63c2.3 0 4.167-1.867 4.167-4.168 0-2.3-1.867-4.167-4.167-4.167v8.334z" transform="translate(-929 -3113) translate(430 2909) translate(335 154) translate(164 50) translate(.107 1.098) translate(10.196 16)"/>
                            </g>
                            <path fill="#A9CF3D" d="M35.856 9.805H16.613c-.617 0-1.16-.412-1.325-1.007l-1.944-6.973C13.1.948 13.76.079 14.67.079H37.8c.91 0 1.57.869 1.325 1.746l-1.943 6.973c-.166.595-.708 1.007-1.326 1.007z" transform="translate(-929 -3113) translate(430 2909) translate(335 154) translate(164 50) translate(.107 1.098)"/>
                            <path fill="#E9EEDA" d="M28.293 44.59c-.164.008-.33.011-.498.011l-3.21-.008c-5.724-.015-10.348-4.668-10.332-10.39l.028-10.693s11.36-2.54 15.432-7.246c.276-.32.784-.268.991.1.243.435.589 1.003 1.03 1.613-3.621 2.658-9.254 4.403-11.967 5.137-.924.25-1.566 1.087-1.569 2.044l-.024 9.045c-.015 5.65 4.494 10.259 10.12 10.387z" transform="translate(-929 -3113) translate(430 2909) translate(335 154) translate(164 50) translate(.107 1.098)"/>
                        </g>
                        <path fill="#587E85" d="M35.741 51.367c-.388-.193-.63-.583-.63-1.017v-.494l11.68.03h.012c1.266 0 2.465-.513 3.291-1.407.76-.822 1.128-1.871 1.04-2.955L49.249 22.44c-.36-4.413-2.792-8.496-6.85-11.498-.79-.584-1.636-1.12-2.525-1.604l1.7-6.1c.216-.775.061-1.588-.426-2.23C40.662.369 39.92 0 39.116 0H31.87c-.65 0-1.176.527-1.176 1.177s.527 1.176 1.177 1.176h7.243c.066 0 .12.026.16.079.027.036.055.095.033.174l-1.944 6.976c-.023.084-.102.144-.191.144l-19.242.002c-.09 0-.168-.06-.193-.146l-1.944-6.973c-.022-.079.006-.139.033-.175.04-.052.093-.078.16-.078l16.545-.002c.65 0 1.176-.527 1.176-1.177S33.182 0 32.532 0L15.986.003c-.805 0-1.546.368-2.033 1.01-.487.64-.642 1.453-.425 2.228l1.748 6.27c-5.226 2.947-8.49 7.511-8.999 12.65L3.981 45.355c-.108 1.09.248 2.15 1.003 2.986.825.913 2.032 1.438 3.312 1.441l11.752.032v.536c0 .434-.24.824-.63 1.018l-5.592 2.796C6.197 54.755.17 61.151.17 68.93V77.1c0 1.599 1.301 2.9 2.9 2.9h5.7c.65 0 1.176-.528 1.176-1.177 0-.65-.527-1.177-1.177-1.177H3.071c-.302 0-.547-.245-.547-.546V68.93c0-6.869 5.588-12.457 12.456-12.457h.81c1.124.98 2.296 2.305 3.432 3.591 2.61 2.954 5.308 6.01 8.331 6.01 2.96 0 5.496-2.95 8.18-6.073 1.073-1.25 2.18-2.537 3.252-3.527h2.007c6.868 0 12.455 5.587 12.455 12.456V77.1c0 .301-.245.546-.547.546H8.004c-.65 0-1.176.527-1.176 1.177S7.354 80 8.004 80H52.9c1.6 0 2.9-1.3 2.9-2.899V68.93c0-8.08-6.503-14.667-14.55-14.806l-5.509-2.756zm-16.32-9.559c-1.73-1.739-2.679-4.048-2.673-6.501l.026-9.694c3.453-.608 11.34-2.495 14.769-7.424 1.067 1.992 3.125 4.668 6.814 5.88l-.03 11.293c-.012 5.057-4.13 9.163-9.184 9.162h-.023l-3.21-.01c-2.454-.005-4.758-.966-6.488-2.706zm-6.93-8.89c0-1.26.8-2.338 1.918-2.758l-.014 5.14c0 .126.005.25.009.374-1.116-.42-1.914-1.495-1.914-2.756zm28.203-2.801c.435.142.834.383 1.168.716.557.557.863 1.297.863 2.084 0 .787-.306 1.527-.863 2.084-.34.339-.747.584-1.191.725.004-.12.01-.238.01-.358l.013-5.251zM8.303 47.429c-.619-.001-1.192-.244-1.573-.665-.305-.337-.45-.756-.408-1.178L8.62 22.393c.431-4.353 3.254-8.254 7.79-10.819.43.32.96.507 1.522.507l19.242-.003c.628 0 1.214-.232 1.667-.622.76.418 1.485.878 2.16 1.378 3.504 2.592 5.6 6.07 5.904 9.797l1.885 23.085c.035.42-.116.834-.423 1.166-.382.414-.95.65-1.562.65h-.006l-11.686-.03V45.21c2.55-1.548 4.456-4.056 5.211-7.02 2.668-.274 4.756-2.535 4.755-5.273 0-2.608-1.894-4.78-4.377-5.218l.009-3.663c.131-.146.228-.327.273-.533.138-.635-.265-1.262-.9-1.4-4.59-.997-6.47-4.762-7.064-6.335-.215-.566-.744-.943-1.348-.96-.61-.02-1.16.331-1.408.887-2.828 6.347-15.276 7.814-15.402 7.828-.645.072-1.11.653-1.038 1.299.043.393.052.699.373.878l-.006 1.999c-2.433.48-4.053 2.653-4.053 5.22 0 2.688 1.625 5.05 4.223 5.39.5 1.985 1.897 3.787 3.378 5.276.697.7.372 1.182 1.2 1.674v2.202l-10.635-.032zm19.252 16.29h-.001c-1.963 0-4.304-2.65-6.568-5.213-1.108-1.255-2.249-2.545-3.404-3.59l2.888-1.443c1.191-.595 1.931-1.792 1.931-3.123v-1.704V46.317c1.118.358 2.296.548 3.503.55l3.21.01h.029c1.262 0 2.477-.207 3.616-.584v4.057c0 1.331.74 2.528 1.93 3.122l2.628 1.314-.02.043c-1.139 1.066-2.26 2.37-3.349 3.637-2.116 2.463-4.515 5.254-6.393 5.254z" transform="translate(-929 -3113) translate(430 2909) translate(335 154) translate(164 50)"/>
                    </g>
                </g>
            </g>
        </g>
    </g>
</svg>
