<svg xmlns="http://www.w3.org/2000/svg" width="26" height="36" viewBox="0 0 26 36">
    <g fill="none" fill-rule="evenodd">
        <g fill-rule="nonzero">
            <g>
                <g>
                    <g>
                        <g>
                            <g>
                                <g>
                                    <g>
                                        <g>
                                            <g>
                                                <path fill="#F2F3EF" d="M3.14 21.33c-.838-.002-1.494-.653-1.419-1.408L2.756 9.51c.372-3.748 4.37-6.634 9.17-6.621 4.835.013 9.052 3.007 9.361 6.785l.861 10.481c.061.75-.807 1.327-1.638 1.325L3.14 21.33z" transform="translate(-1405 -2248) translate(160 1722) translate(815 99) translate(30 339) translate(0 88) translate(400) translate(.048 .493)"/>
                                                <path fill="#A9CF3D" d="M17.812 24.334c3.38 0 6.12 2.74 6.12 6.12v3.67c0 .427-.346.773-.773.773H.787c-.427 0-.774-.346-.774-.773v-3.67c0-3.38 2.74-6.12 6.12-6.12h11.679z" transform="translate(-1405 -2248) translate(160 1722) translate(815 99) translate(30 339) translate(0 88) translate(400) translate(.048 .493)"/>
                                                <path fill="#FFF" d="M6.56 24.292c-.036-.025-.032-.079.007-.098l1.795-1.151c.353-.177.78-.537.78-.93V19l5.502.087v3.027c0 .394.222.754.575.93l2.498 1.249c.038.019.042.072.008.097l-4.814 3.886c-.325.236-1.3.233-1.627 0L6.56 24.292z" transform="translate(-1405 -2248) translate(160 1722) translate(815 99) translate(30 339) translate(0 88) translate(400) translate(.048 .493)"/>
                                                <path fill="#E9EEDA" d="M12.703 28.032l-.327.238c-.325.236-.764.238-1.092.005L6.734 24.4c-.036-.026-.031-.08.007-.098l1.622-1.26c.352-.176.574-.537.574-.93V19l1.761.027v3.087c0 .393-.222.754-.575.93l-1.54.77c-.483.241-.534.91-.095 1.223l4.215 2.996z" transform="translate(-1405 -2248) translate(160 1722) translate(815 99) translate(30 339) translate(0 88) translate(400) translate(.048 .493)"/>
                                                <g>
                                                    <path fill="#FFF" d="M8.763.118C6.935 2.232 1.834 3.372 1.834 3.372l-.013 4.8c-.007 2.57 2.07 4.659 4.64 4.666l1.44.003c2.57.007 4.658-2.07 4.666-4.639l.014-5.456C10.816 2.691 9.646.947 9.208.164c-.093-.166-.321-.19-.445-.046z" transform="translate(-1405 -2248) translate(160 1722) translate(815 99) translate(30 339) translate(0 88) translate(400) translate(.048 .493) translate(4.578 7.184)"/>
                                                    <path fill="#E9EEDA" d="M1.902 8.945C.879 8.945.05 8.115.05 7.093c0-1.018.823-1.845 1.84-1.852l.012 3.704z" transform="translate(-1405 -2248) translate(160 1722) translate(815 99) translate(30 339) translate(0 88) translate(400) translate(.048 .493) translate(4.578 7.184)"/>
                                                    <path fill="#FCFFF2" d="M12.547 8.813c1.033 0 1.871-.838 1.871-1.87 0-1.034-.838-1.872-1.87-1.872v3.742z" transform="translate(-1405 -2248) translate(160 1722) translate(815 99) translate(30 339) translate(0 88) translate(400) translate(.048 .493) translate(4.578 7.184)"/>
                                                </g>
                                                <path fill="#A9CF3D" d="M16.099 4.402h-8.64c-.277 0-.52-.185-.595-.452L5.99.82c-.11-.394.187-.785.596-.785H16.97c.41 0 .705.39.596.784l-.873 3.131c-.075.267-.318.452-.595.452z" transform="translate(-1405 -2248) translate(160 1722) translate(815 99) translate(30 339) translate(0 88) translate(400) translate(.048 .493)"/>
                                                <path fill="#E9EEDA" d="M12.703 20.02c-.074.004-.148.005-.224.005l-1.44-.004c-2.57-.007-4.647-2.095-4.64-4.665l.013-4.8s5.1-1.14 6.929-3.254c.123-.143.352-.12.445.045.109.195.264.45.462.724-1.626 1.194-4.155 1.977-5.373 2.307-.415.112-.703.488-.704.918l-.011 4.06c-.007 2.537 2.018 4.606 4.543 4.664z" transform="translate(-1405 -2248) translate(160 1722) translate(815 99) translate(30 339) translate(0 88) translate(400) translate(.048 .493)"/>
                                            </g>
                                            <path fill="#587E85" d="M16.047 23.063c-.174-.087-.283-.262-.283-.457v-.222l5.245.014h.005c.568 0 1.106-.23 1.477-.632.341-.369.507-.84.467-1.326l-.846-10.365c-.162-1.981-1.254-3.814-3.076-5.162-.354-.262-.734-.504-1.133-.72l.763-2.739c.097-.348.027-.713-.191-1.001C18.256.165 17.924 0 17.562 0H14.31c-.292 0-.529.237-.529.528 0 .292.237.529.529.528h3.252c.03 0 .054.012.072.036.012.016.024.043.014.078l-.872 3.132c-.01.038-.046.065-.086.065H8.05c-.04 0-.075-.026-.086-.065l-.873-3.13c-.01-.036.003-.063.015-.079.018-.023.042-.035.072-.035l7.428-.001c.292 0 .528-.237.528-.529 0-.291-.236-.528-.528-.528L7.177.001c-.361 0-.694.165-.912.453-.219.288-.289.653-.191 1.001l.785 2.816C4.512 5.593 3.047 7.643 2.819 9.95L1.786 20.363c-.048.49.112.966.45 1.341.371.41.913.646 1.488.647l5.276.014v.241c0 .195-.108.37-.283.457l-2.51 1.256c-3.426.265-6.131 3.137-6.131 6.629v3.669c0 .718.584 1.301 1.302 1.301h2.559c.291 0 .528-.236.528-.528 0-.292-.237-.528-.528-.528H1.379c-.136 0-.246-.11-.246-.245v-3.67c0-3.083 2.51-5.592 5.593-5.592h.364c.504.44 1.03 1.034 1.54 1.612 1.172 1.327 2.383 2.698 3.74 2.698 1.33 0 2.468-1.324 3.673-2.726.482-.561.98-1.14 1.46-1.584h.901c3.084 0 5.593 2.509 5.593 5.593v3.669c0 .135-.11.245-.246.245H3.594c-.292 0-.529.236-.529.528 0 .292.237.528.529.528H23.75c.718 0 1.302-.583 1.302-1.301v-3.67c0-3.627-2.92-6.585-6.532-6.647l-2.474-1.237zM8.72 18.77c-.777-.78-1.203-1.817-1.2-2.919L7.53 11.5c1.55-.273 5.092-1.12 6.631-3.334.48.895 1.403 2.096 3.06 2.64l-.014 5.071c-.005 2.27-1.854 4.114-4.123 4.113h-.01l-1.442-.004c-1.102-.002-2.136-.434-2.913-1.215zM5.608 14.78c0-.565.36-1.05.861-1.238l-.006 2.308c0 .057.002.112.004.168-.501-.189-.86-.671-.86-1.238zm12.663-1.257c.195.063.374.172.524.321.25.25.388.583.388.936 0 .353-.138.686-.388.936-.152.152-.335.262-.535.325.002-.053.005-.106.005-.16l.006-2.358zM3.728 21.295c-.278 0-.535-.11-.706-.3-.137-.15-.202-.338-.183-.528l1.03-10.413C4.064 8.1 5.332 6.348 7.368 5.197c.193.143.431.227.684.227l8.639-.001c.282 0 .545-.104.748-.28.342.188.667.395.97.62 1.573 1.163 2.515 2.725 2.65 4.398l.847 10.365c.016.188-.052.374-.19.523-.171.186-.427.292-.701.292h-.003l-5.246-.013v-1.03c1.145-.695 2-1.82 2.34-3.152 1.197-.123 2.134-1.137 2.134-2.367 0-1.171-.85-2.146-1.965-2.343l.004-1.644c.059-.066.102-.147.122-.24.062-.285-.118-.566-.404-.628-2.06-.448-2.904-2.138-3.171-2.844-.097-.255-.334-.424-.605-.432-.275-.008-.521.15-.633.399-1.269 2.85-6.858 3.508-6.915 3.514-.29.033-.498.294-.466.584.02.176.023.313.168.394l-.003.897c-1.092.216-1.82 1.192-1.82 2.344 0 1.207.73 2.267 1.896 2.42.225.891.852 1.7 1.517 2.369.313.314.167.53.539.751v.989l-4.775-.014zm8.643 7.314c-.881 0-1.932-1.19-2.949-2.341-.497-.564-1.01-1.143-1.528-1.612l1.297-.648c.534-.267.867-.804.867-1.402v-.765-1.045c.502.16 1.03.245 1.572.247l1.441.004h.013c.567 0 1.113-.093 1.624-.262v1.821c0 .598.332 1.135.867 1.402l1.18.59-.01.019c-.51.479-1.014 1.064-1.503 1.633-.95 1.106-2.027 2.359-2.87 2.359z" transform="translate(-1405 -2248) translate(160 1722) translate(815 99) translate(30 339) translate(0 88) translate(400)"/>
                                        </g>
                                    </g>
                                </g>
                            </g>
                        </g>
                    </g>
                </g>
            </g>
        </g>
    </g>
</svg>
