<svg width="12" height="12" viewBox="0 0 12 12" fill="none" xmlns="http://www.w3.org/2000/svg">
<path fill-rule="evenodd" clip-rule="evenodd" d="M10.8038 0.397052C11.0974 0.179197 11.5141 0.203403 11.7803 0.46967L11.8529 0.553788C12.0708 0.8474 12.0466 1.26406 11.7803 1.53033L7.311 6L11.7803 10.4697L11.8529 10.5538C12.0708 10.8474 12.0466 11.2641 11.7803 11.5303C11.4874 11.8232 11.0126 11.8232 10.7197 11.5303L5.71967 6.53033L5.64705 6.44621C5.4292 6.1526 5.4534 5.73594 5.71967 5.46967L10.7197 0.46967L10.8038 0.397052ZM6.05379 0.397052C6.3474 0.179197 6.76406 0.203403 7.03033 0.46967L7.10295 0.553788C7.3208 0.8474 7.2966 1.26406 7.03033 1.53033L2.561 6L7.03033 10.4697L7.10295 10.5538C7.3208 10.8474 7.2966 11.2641 7.03033 11.5303C6.73744 11.8232 6.26256 11.8232 5.96967 11.5303L0.969669 6.53033L0.897052 6.44621C0.679197 6.1526 0.703403 5.73594 0.969669 5.46967L5.96967 0.46967L6.05379 0.397052Z" fill="white"/>
</svg>
