<svg width="12" height="12" viewBox="0 0 12 12" fill="none" xmlns="http://www.w3.org/2000/svg">
<path fill-rule="evenodd" clip-rule="evenodd" d="M1.19621 0.397052C0.9026 0.179197 0.485936 0.203403 0.21967 0.46967L0.147052 0.553788C-0.0708027 0.8474 -0.0465967 1.26406 0.21967 1.53033L4.689 6L0.21967 10.4697L0.147052 10.5538C-0.0708027 10.8474 -0.0465967 11.2641 0.21967 11.5303C0.512563 11.8232 0.987437 11.8232 1.28033 11.5303L6.28033 6.53033L6.35295 6.44621C6.5708 6.1526 6.5466 5.73594 6.28033 5.46967L1.28033 0.46967L1.19621 0.397052ZM5.94621 0.397052C5.6526 0.179197 5.23594 0.203403 4.96967 0.46967L4.89705 0.553788C4.6792 0.8474 4.7034 1.26406 4.96967 1.53033L9.439 6L4.96967 10.4697L4.89705 10.5538C4.6792 10.8474 4.7034 11.2641 4.96967 11.5303C5.26256 11.8232 5.73744 11.8232 6.03033 11.5303L11.0303 6.53033L11.1029 6.44621C11.3208 6.1526 11.2966 5.73594 11.0303 5.46967L6.03033 0.46967L5.94621 0.397052Z" fill="white"/>
</svg>
