<svg xmlns="http://www.w3.org/2000/svg" width="38" height="38" viewBox="0 0 38 38">
    <g fill="none" fill-rule="evenodd">
        <g fill-rule="nonzero">
            <g>
                <g>
                    <g>
                        <g>
                            <g>
                                <g>
                                    <path fill="#A9CF3D" d="M32.18 27.44v2.24c0 .088-.072.16-.16.16h-2.88c-.088 0-.16.072-.16.16v2.96c0 .088-.072.16-.16.16h-2.24c-.088 0-.16-.072-.16-.16V30c0-.088-.072-.16-.16-.16H23.3c-.088 0-.16-.072-.16-.16v-2.24c0-.088.072-.16.16-.16h2.96c.088 0 .16-.072.16-.16v-2.88c0-.088.072-.16.16-.16h2.24c.088 0 .16.072.16.16v2.88c0 .088.072.16.16.16h2.88c.088 0 .16.072.16.16z" transform="translate(-1005 -2344) translate(375 1810) translate(600 99) translate(29 217) translate(1 218)"/>
                                    <path fill="#FFF" d="M27.826 19.373c4.123 0 7.722 2.79 8.75 6.783 1.026 3.992-.779 8.174-4.389 10.164-3.61 1.99-8.11 1.284-10.937-1.716s-3.265-7.533-1.064-11.02c1.655-2.622 4.54-4.212 7.64-4.211zM32.18 29.68v-2.24c0-.088-.072-.16-.16-.16h-2.88c-.088 0-.16-.072-.16-.16v-2.88c0-.088-.072-.16-.16-.16h-2.24c-.088 0-.16.072-.16.16v2.88c0 .088-.072.16-.16.16H23.3c-.088 0-.16.072-.16.16v2.24c0 .088.072.16.16.16h2.96c.088 0 .16.072.16.16v2.96c0 .088.072.16.16.16h2.24c.088 0 .16-.072.16-.16V30c0-.088.072-.16.16-.16h2.88c.088 0 .16-.072.16-.16z" transform="translate(-1005 -2344) translate(375 1810) translate(600 99) translate(29 217) translate(1 218)"/>
                                    <path fill="#A9CF3D" d="M20.63 2.794c1.723 1.744 1.454 3.74 1.454 5.304 0 .452-.234 3.863-.497 4.21l-.049.004c-.062-.64-.488-4.566-1.681-5.758l-.079-.158c-1.186 2.61-2.628 2.176-4.35 2.057-1.029-.072 1.028 1.818 1.028 1.818-4.429.633-3.614-3.637-4.746-3.637-3.008 0-2.716 5.192-2.7 5.45l-.17.018c-.313-.779-.897-3.247-.908-3.712-.082-3.272 1.058-4.366 1.92-5.34 2.722-3.07 7.804-3.264 10.778-.256zM27.826 37.44H1.773C.966 37.44.58 36.36.58 35.554v-5.019c0-4.803 5.92-5.993 9.789-7.123l.011.038c0 1.36 1.658 4.19 4.884 4.19 1.813 0 3.117-.853 3.911-1.84-.822 2.736-.302 5.7 1.402 7.993s4.392 3.645 7.25 3.647z" transform="translate(-1005 -2344) translate(375 1810) translate(600 99) translate(29 217) translate(1 218)"/>
                                    <path fill="#FFF" d="M19.089 23.24c.347.118.715.232 1.097.345-.436.689-.776 1.434-1.01 2.215-.795.987-2.1 1.84-3.912 1.84-3.226 0-4.884-2.83-4.884-4.19l-.011-.038c.295-.086.578-.172.845-.26l.986-2.025.02-.111c.756.478 1.746.794 3.044.794 1.3 0 2.291-.31 3.046-.776h.001l.778 2.205z" transform="translate(-1005 -2344) translate(375 1810) translate(600 99) translate(29 217) translate(1 218)"/>
                                    <path fill="#FFF" d="M9.01 12.085c-.016-.26-.308-5.451 2.7-5.451 1.132 0 .317 4.27 4.746 3.637 0 0-2.057-1.89-1.028-1.818 1.722.119 3.164.553 4.35-2.057l.079.158c1.193 1.192 1.619 5.118 1.681 5.758l.05-.005c.862-.983 2.018-.11 1.698 1.248-.402 1.701-1.496 3.048-2.553 3.028-.003 0-.068 2.995-2.422 4.45v.001c-.756.467-1.746.776-3.047.776-1.298 0-2.288-.316-3.043-.794-2.315-1.462-2.421-4.433-2.425-4.433-1.058.02-2.152-1.327-2.554-3.028-.32-1.357.836-2.158 1.7-1.249-.042-.063-.076-.132-.102-.204l.17-.017z" transform="translate(-1005 -2344) translate(375 1810) translate(600 99) translate(29 217) translate(1 218)"/>
                                    <path fill="#587E85" d="M32.02 26.72h-2.5v-2.48c.004-.189-.067-.371-.2-.507-.13-.135-.311-.212-.5-.213h-2.24c-.401-.001-.73.319-.74.72v2.48H23.3c-.401-.001-.73.319-.74.72v2.24c.01.401.339.721.74.72h2.54v2.56c.01.401.339.721.74.72h2.24c.189-.001.37-.078.5-.213.133-.136.204-.318.2-.507V30.4h2.5c.189-.001.37-.078.5-.213.133-.136.204-.318.2-.507v-2.24c.004-.189-.067-.371-.2-.507-.13-.135-.311-.212-.5-.213zm-.42 2.56h-2.46c-.401-.001-.73.319-.74.72v2.56h-1.44V30c.004-.189-.067-.371-.2-.507-.13-.135-.311-.212-.5-.213h-2.58v-1.44h2.58c.189-.001.37-.078.5-.213.133-.136.204-.318.2-.507v-2.48h1.44v2.48c.01.401.339.721.74.72h2.46v1.44z" transform="translate(-1005 -2344) translate(375 1810) translate(600 99) translate(29 217) translate(1 218)"/>
                                    <path fill="#587E85" d="M27.826 18.813c-3.142-.008-6.088 1.531-7.876 4.116-.15-.046-.29-.09-.424-.134l-.544-1.542c1.685-1.26 2.143-3.224 2.267-4.177 1.13-.307 2.166-1.634 2.583-3.393.224-.951-.105-1.837-.818-2.204-.196-.103-.416-.156-.638-.155.037-.276.076-.614.115-1.028.094-.97.153-1.95.153-2.198 0-.176.004-.357.007-.55.03-1.531.067-3.438-1.623-5.147C19.512.867 17.365.02 15.139.083c-2.218.06-4.298 1.006-5.706 2.596l-.132.148c-.85.95-2.013 2.25-1.929 5.577.01.415.343 1.888.644 2.958-.188.018-.371.075-.538.166-.684.37-.998 1.236-.78 2.156.415 1.762 1.456 3.09 2.589 3.394.134.934.607 2.879 2.246 4.14l-.717 1.474c-.177.056-.374.115-.604.183-.342.1-.706.199-1.082.304C5.281 24.258 0 25.735 0 30.535v5.02C0 36.74.634 38 1.773 38H27.87c5.292-.022 9.567-4.324 9.555-9.616-.012-5.292-4.308-9.575-9.6-9.571zm-17.69-15.24l.136-.151c1.203-1.359 2.989-2.168 4.898-2.22 1.918-.054 3.762.672 5.062 1.986 1.357 1.373 1.327 2.949 1.3 4.339-.004.197-.008.384-.008.57 0 .12-.012.369-.032.684-.272-1.013-.65-1.984-1.17-2.552l-.041-.082c-.096-.194-.295-.315-.511-.311-.217.003-.412.131-.501.328-.902 1.985-1.796 1.905-3.277 1.773-.172-.015-.347-.03-.524-.043-.564-.04-.768.289-.83.432-.182.424.071.881.536 1.424-1.479-.176-1.853-1.258-2.19-2.233-.235-.677-.5-1.444-1.273-1.444-.748-.015-1.467.293-1.973.844-.578.615-.903 1.497-1.084 2.363-.073-.298-.127-.6-.162-.904-.073-2.884.84-3.903 1.644-4.802zm.22 12.987c-.014-.3-.26-.536-.56-.537H9.77c-.82 0-1.686-1.337-1.984-2.597-.114-.483.036-.812.223-.913.212-.115.438.087.525.179.19.192.489.224.714.075.226-.15.314-.437.21-.687h.112c0-.016 0-.032-.002-.048-.03-.608-.008-1.218.063-1.823.14-1.161.458-2.034.922-2.526.28-.308.674-.485 1.09-.49.084.122.196.447.28.69.416 1.2 1.188 3.432 4.611 2.942.214-.03.392-.182.456-.388.064-.207.003-.432-.156-.578-.271-.25-.529-.514-.771-.791 1.315.114 2.658.157 3.767-1.586.568 1.073.976 3.102 1.15 4.884l.007.078c.023.291.266.516.558.516l.044-.001c.208-.016.39-.147.471-.339.11-.11.28-.228.44-.145.206.105.354.467.24.951-.3 1.267-1.175 2.615-1.997 2.597-.148-.004-.291.052-.398.154-.107.101-.17.242-.173.39-.014.28-.194 2.777-2.156 3.99l-.013.008c-.74.454-1.663.684-2.74.684-1.079 0-2.002-.238-2.744-.707-1.885-1.19-2.133-3.526-2.164-3.982zm1.362 6.838l.776-1.596c.804.377 1.732.568 2.77.568 1.023 0 1.94-.182 2.735-.54l.562 1.595c.057.162.185.289.347.344.139.048.286.096.44.145-.273.516-.499 1.056-.673 1.613-.519.614-1.607 1.552-3.411 1.552-1.231.013-2.41-.498-3.242-1.406-.59-.634-.925-1.34-1.038-1.86.147-.045.28-.087.404-.128.145-.047.264-.15.33-.287zM1.773 36.88c-.357 0-.653-.713-.653-1.326v-5.019c0-3.95 4.614-5.24 8.313-6.278l.469-.13c.405 1.702 2.23 4.072 5.36 4.072 1.072.014 2.125-.286 3.03-.863-.436 3.914 1.562 7.697 5.04 9.544H1.772zm26.053 0c-3.087 0-5.93-1.678-7.422-4.381-1.49-2.704-1.393-6.004.255-8.615 2.172-3.443 6.485-4.855 10.273-3.363 3.787 1.492 5.978 5.466 5.22 9.465-.76 4-4.255 6.894-8.326 6.894z" transform="translate(-1005 -2344) translate(375 1810) translate(600 99) translate(29 217) translate(1 218)"/>
                                </g>
                            </g>
                        </g>
                    </g>
                </g>
            </g>
        </g>
    </g>
</svg>
