<svg xmlns="http://www.w3.org/2000/svg" width="35" height="38" viewBox="0 0 35 38">
    <g fill="none" fill-rule="evenodd">
        <g fill-rule="nonzero">
            <g>
                <g>
                    <g>
                        <g>
                            <g>
                                <g>
                                    <g>
                                        <g>
                                            <g>
                                                <path fill="#FFF" d="M22.542 24.215L22.542 17.136 1.065 17.136 1.065 29.262 12.985 29.262 15.007 29.262z" transform="translate(-1255 -2248) translate(160 1722) translate(815 99) translate(30 339) translate(0 88) translate(250)"/>
                                                <g>
                                                    <path fill="#FE73B1" d="M6.3 3.768l.003-.003-.004.003zM6.303 3.766zM6.295 3.77l.005-.003-.005.003zM6.273 3.783l-.013.008.007-.005.006-.003zM6.298 3.768l-.015.009.01-.006.005-.003z" transform="translate(-1255 -2248) translate(160 1722) translate(815 99) translate(30 339) translate(0 88) translate(250) translate(22.108 21.18)"/>
                                                    <path fill="#A9CF3D" d="M4.982.737l-.01.005-.008.005-.012.007-.005.003-.013.007.007-.004c-.174.1-1.647.83-4.845 2.677l5.267 8.49 4.192-2.42c1.918-1.108 2.832-3.266 2.46-5.313-.603-.485-1.152-2.008-2.125-2.718C8.3.314 6.142.066 4.982.736z" transform="translate(-1255 -2248) translate(160 1722) translate(815 99) translate(30 339) translate(0 88) translate(250) translate(22.108 21.18)"/>
                                                </g>
                                                <path fill="#FFF" d="M16.694 34.932c1.584 1.614 4.116 2.021 6.166.837l4.213-2.432-4.869-8.72-5.191 3.513c-.97.56-1.886 2.176-1.684 3.745.15 1.164 1.33 2.273 1.365 3.057zM21.723 14.91L18 9.874V6.971C14.192 2.808 11.114.726 8.764.726 7.477.726 4.65.602 4.052 1.852c-.248.52-.552 2.391 0 4.079.119.361.49.708 1.114 1.04v2.904L1.36 14.909c-.531.503-.819 1.115-.819 1.743v.484h22v-.484c0-.628-.288-1.24-.819-1.743z" transform="translate(-1255 -2248) translate(160 1722) translate(815 99) translate(30 339) translate(0 88) translate(250)"/>
                                                <path fill="#F2F3EF" d="M19.638 5.518v-3.34c0-.802-.65-1.452-1.453-1.452H10.78c-.802 0-1.452.65-1.452 1.452v3.34c0 .803.65 1.453 1.452 1.453h7.406c.803 0 1.453-.65 1.453-1.453z" transform="translate(-1255 -2248) translate(160 1722) translate(815 99) translate(30 339) translate(0 88) translate(250)"/>
                                                <path fill="#FFF" d="M15.075 29.263L.542 29.262v1.452c0 1.604 1.797 2.905 4.013 2.905H15.17l-.095-4.356z" transform="translate(-1255 -2248) translate(160 1722) translate(815 99) translate(30 339) translate(0 88) translate(250)"/>
                                                <path fill="#A9CF3D" d="M8.038 10.601c.4 0 .726-.325.726-.726 0-.4-.325-.726-.726-.726-.4 0-.726.325-.726.726 0 .4.325.726.726.726z" transform="translate(-1255 -2248) translate(160 1722) translate(815 99) translate(30 339) translate(0 88) translate(250)"/>
                                                <path fill="#587E85" d="M26.236 21.255l-2.95 1.702v-6.305c0-.78-.258-1.553-.726-2.178l-3.63-4.841V7.572c.845-.3 1.452-1.107 1.452-2.054v-3.34c0-1.2-.977-2.178-2.178-2.178H5.134C3.933 0 2.955.977 2.955 2.178v3.34c0 .947.607 1.754 1.453 2.054v2.061l-3.631 4.84c-.468.626-.726 1.4-.726 2.179v14.062c0 2.002 1.629 3.63 3.63 3.63h11.67c1.628 2.73 5.138 3.643 7.89 2.054l8.804-5.083c2.756-1.591 3.739-5.14 2.126-7.934-1.606-2.78-5.155-3.732-7.935-2.126zm-10.971 7.28H1.503V17.863h20.331v5.934l-4.402 2.541c-.918.53-1.66 1.285-2.167 2.199zM4.408 2.179c0-.4.325-.726.726-.726h13.07c.4 0 .726.326.726.726v3.34c0 .4-.326.726-.727.726H5.133c-.4 0-.725-.325-.725-.726v-3.34zm1.307 8.133c.094-.126.145-.279.145-.436V7.697h11.617v1.452h-6.534c-.401 0-.727.325-.727.726 0 .401.326.726.727.726h6.897l3.558 4.743c.233.31.377.682.42 1.066h-20.3c.044-.384.189-.755.42-1.065l3.777-5.034zM1.503 30.714v-.733h13.192c-.23.941-.228 1.947.035 2.912H3.681c-1.2 0-2.178-.978-2.178-2.179zm21.012 4.427c-2.084 1.203-4.746.491-5.95-1.594-1.21-2.105-.477-4.756 1.594-5.952l3.94-2.276 4.357 7.546-3.94 2.276zm8.803-5.083l-3.604 2.08-4.357-7.545 3.605-2.08c2.085-1.205 4.747-.492 5.95 1.594 1.21 2.095.475 4.756-1.594 5.95z" transform="translate(-1255 -2248) translate(160 1722) translate(815 99) translate(30 339) translate(0 88) translate(250)"/>
                                            </g>
                                            <g>
                                                <path fill="#A9CF3D" d="M8.025 3.144H6.41v-1.63c0-.46-.37-.832-.827-.832H3.95c-.457 0-.827.373-.827.833v1.63H1.508c-.456 0-.826.372-.826.832v1.648c0 .46.37.833.826.833h1.615v1.63c0 .46.37.832.827.832h1.633c.457 0 .827-.373.827-.833V6.458h1.615c.457 0 .827-.373.827-.833V3.977c0-.46-.37-.833-.827-.833z" transform="translate(-1255 -2248) translate(160 1722) translate(815 99) translate(30 339) translate(0 88) translate(250) translate(7.16 18.295)"/>
                                                <path fill="#587E85" d="M8.025 2.462h-.933v-.947C7.092.68 6.415 0 5.583 0H3.95c-.832 0-1.508.68-1.508 1.515v.947h-.934C.677 2.462 0 3.142 0 3.977v1.648C0 6.46.677 7.14 1.508 7.14h.934v.947c0 .836.676 1.515 1.508 1.515h1.633c.832 0 1.509-.68 1.509-1.515V7.14h.933c.832 0 1.508-.68 1.508-1.515V3.977c0-.835-.676-1.515-1.508-1.515zm.145 3.163c0 .083-.065.151-.145.151H6.41c-.377 0-.682.305-.682.682v1.63c0 .083-.065.15-.145.15H3.95c-.08 0-.145-.067-.145-.15v-1.63c0-.377-.305-.682-.682-.682H1.508c-.08 0-.144-.068-.144-.151V3.977c0-.083.065-.151.144-.151h1.615c.377 0 .682-.305.682-.682v-1.63c0-.083.065-.15.145-.15h1.633c.08 0 .145.067.145.15v1.63c0 .377.305.682.682.682h1.615c.08 0 .145.068.145.151v1.648z" transform="translate(-1255 -2248) translate(160 1722) translate(815 99) translate(30 339) translate(0 88) translate(250) translate(7.16 18.295)"/>
                                            </g>
                                        </g>
                                    </g>
                                </g>
                            </g>
                        </g>
                    </g>
                </g>
            </g>
        </g>
    </g>
</svg>
