<svg xmlns="http://www.w3.org/2000/svg" width="32" height="32" viewBox="0 0 32 32">
    <g fill="none" fill-rule="evenodd">
        <g>
            <g>
                <g>
                    <g>
                        <g>
                            <g>
                                <path fill="#E3EDC3" d="M11.6 10.32c.914-.638.914-1.551 0-2.738-.914-1.188-2.409-2.818-4.485-4.892-1.612-.307-2.711.02-3.298.983C2.937 5.116 1.25 6.29 1.25 7.582c0 1.291-.005 2.49.6 4.327.606 1.836 2.991 5.951 2.991 6.226 0 .276 2.39 3.99 3.086 4.607.696.618 5.175 5.011 7.64 6.011 2.467 1 6.798 3.18 9.12 1.795 1.547-.923 2.936-2.308 4.166-4.155.684-.92.586-1.7-.292-2.339-1.317-.959-4.485-4.158-4.485-4.158s-1.688-.69-3.473 1.078c-1.784 1.768-.97 2.763-2.786 1.768-1.211-.663-2.932-1.99-5.162-3.98l-3.617-4.71c-.347-.735-.246-1.356.305-1.862.55-.507 1.303-1.13 2.257-1.87z" transform="translate(-1075 -2901) translate(0 2581) translate(1075 240) translate(0 80)"/>
                                <path fill="#274642" fill-rule="nonzero" d="M25.28 19.815c-.655-.682-1.445-1.047-2.282-1.047-.83 0-1.627.358-2.309 1.04l-2.133 2.127c-.176-.095-.351-.183-.52-.27-.243-.122-.473-.237-.669-.358-1.998-1.27-3.814-2.923-5.556-5.064-.844-1.066-1.41-1.964-1.822-2.876.553-.506 1.066-1.032 1.566-1.539.189-.189.378-.385.567-.574 1.418-1.417 1.418-3.254 0-4.671L10.279 4.74c-.21-.21-.425-.426-.628-.642-.405-.418-.83-.85-1.27-1.255-.654-.649-1.437-.993-2.26-.993-.824 0-1.621.344-2.296.993l-.014.013-2.295 2.316C.652 6.036.159 7.089.051 8.31c-.162 1.971.419 3.808.864 5.01 1.094 2.95 2.728 5.684 5.165 8.614 2.957 3.53 6.514 6.319 10.579 8.283 1.552.736 3.625 1.607 5.94 1.755.142.007.29.014.426.014 1.56 0 2.87-.56 3.895-1.674.007-.014.02-.02.027-.034.351-.425.756-.81 1.182-1.222.29-.277.587-.567.877-.87.669-.696 1.02-1.506 1.02-2.337 0-.837-.358-1.64-1.04-2.315l-3.706-3.72zm2.417 7.109c-.007 0-.007.006 0 0-.264.283-.534.54-.824.823-.439.419-.884.858-1.303 1.35-.682.73-1.485 1.074-2.538 1.074-.102 0-.21 0-.31-.007-2.006-.128-3.87-.911-5.267-1.58-3.82-1.85-7.176-4.476-9.964-7.804-2.302-2.775-3.842-5.34-4.861-8.094-.628-1.681-.857-2.991-.756-4.227.067-.79.371-1.444.931-2.005l2.303-2.302c.33-.31.681-.479 1.026-.479.425 0 .77.257.985.473l.02.02c.412.385.804.783 1.216 1.208.21.216.425.432.641.655l1.843 1.843c.716.716.716 1.377 0 2.093-.196.196-.385.392-.58.58-.567.581-1.108 1.121-1.695 1.648-.013.013-.027.02-.034.034-.58.58-.472 1.147-.35 1.532l.02.06c.479 1.162 1.154 2.256 2.18 3.559l.007.006c1.863 2.296 3.828 4.085 5.995 5.455.277.176.56.318.83.453.243.121.473.236.669.357.027.014.054.034.08.048.23.114.446.168.669.168.56 0 .911-.35 1.026-.465l2.309-2.31c.23-.229.594-.506 1.02-.506.418 0 .762.264.972.493l.013.014 3.72 3.72c.695.688.695 1.397.007 2.113zM17.286 7.609c1.77.297 3.376 1.134 4.659 2.417 1.282 1.282 2.113 2.89 2.417 4.658.074.446.459.756.897.756.054 0 .102-.007.156-.013.5-.081.83-.554.75-1.054-.365-2.14-1.378-4.09-2.924-5.637-1.546-1.546-3.497-2.558-5.637-2.923-.5-.08-.966.25-1.053.743-.088.493.236.972.735 1.053zM31.95 14.11c-.601-3.524-2.262-6.73-4.814-9.283C24.584 2.276 21.378.615 17.854.014c-.493-.088-.96.25-1.047.743-.08.5.25.965.75 1.053 3.146.533 6.015 2.025 8.297 4.3 2.281 2.282 3.767 5.151 4.3 8.297.074.446.46.756.898.756.054 0 .101-.006.155-.013.493-.074.83-.547.743-1.04z" transform="translate(-1075 -2901) translate(0 2581) translate(1075 240) translate(0 80)"/>
                            </g>
                        </g>
                    </g>
                </g>
            </g>
        </g>
    </g>
</svg>
