<svg xmlns="http://www.w3.org/2000/svg" width="25" height="32" viewBox="0 0 25 32">
    <g fill="none" fill-rule="evenodd">
        <g>
            <g>
                <g>
                    <g>
                        <g>
                            <g transform="translate(-1075 -2981) translate(0 2581) translate(1075 240) translate(0 160)">
                                <path fill="#E3EDC3" d="M13.2 1.2c3.824.481 6.34 1.975 7.55 4.48 1.812 3.76 2.455 2.846 2.455 5.644s.443 5.78-6.265 12.723l-4.69 6.044-2.018-1.78-7.72-10.51-1.836-3.573.582-4.368 1.921-4.18c.424-.68.842-1.261 1.256-1.743.62-.723 2.446-1.983 3.306-2.36.573-.251 1.403-.377 2.491-.377H13.2z"/>
                                <circle cx="12.4" cy="12.4" r="5.2" fill="#FFF"/>
                                <path fill="#274642" fill-rule="nonzero" d="M23.847 8.385C22.706 4.7 19.742 1.712 16.113.588 12.248-.61 8.218.04 5.058 2.37 3.544 3.487 2.287 4.96 1.424 6.628.532 8.353.06 10.296.06 12.245c0 2.66.84 5.186 2.432 7.308L12.251 32l9.746-12.43.012-.017c2.382-3.175 3.052-7.246 1.838-11.168zM20.515 18.42L12.25 28.961l-8.263-10.54c-1.342-1.794-2.052-3.929-2.052-6.176 0-3.283 1.583-6.41 4.235-8.365 2.676-1.973 6.097-2.52 9.387-1.5 3.047.943 5.537 3.457 6.497 6.56 1.033 3.337.472 6.792-1.54 9.48z"/>
                                <path fill="#274642" fill-rule="nonzero" d="M12.251 5.68c-3.62 0-6.564 2.946-6.564 6.565 0 3.62 2.945 6.564 6.564 6.564 3.62 0 6.564-2.945 6.564-6.564 0-3.62-2.944-6.564-6.564-6.564zm0 11.254c-2.585 0-4.688-2.104-4.688-4.689s2.103-4.689 4.688-4.689c2.586 0 4.689 2.104 4.689 4.69 0 2.584-2.103 4.688-4.689 4.688z"/>
                            </g>
                        </g>
                    </g>
                </g>
            </g>
        </g>
    </g>
</svg>
