<svg width="100" height="100" xmlns="http://www.w3.org/2000/svg">
    <g fill="none" fill-rule="evenodd">
        <path d="M0 0h100v100H0z"/>
        <path d="M57.044 56.052h-1.2c-.452 0-.856-.281-1.011-.705a17.77 17.77 0 0 0-.43-1.03 1.076 1.076 0 0 1 .218-1.217l.856-.857a3.281 3.281 0 0 0-.006-4.626l-3.084-3.084a3.281 3.281 0 0 0-4.627 0l-.855.855a1.08 1.08 0 0 1-1.218.218c-.338-.154-.68-.297-1.03-.437a1.073 1.073 0 0 1-.709-1.012v-1.2a3.274 3.274 0 0 0-3.273-3.274H36.31a3.274 3.274 0 0 0-3.274 3.273v1.2c0 .452-.281.856-.705 1.011-.35.133-.691.276-1.03.43a1.08 1.08 0 0 1-1.217-.218l-.857-.856a3.282 3.282 0 0 0-4.626 0l-3.084 3.094a3.281 3.281 0 0 0 0 4.627l.855.856c.322.319.41.806.218 1.218-.154.338-.297.68-.431 1.03a1.073 1.073 0 0 1-1.018.704h-1.2a3.274 3.274 0 0 0-3.274 3.273v4.365a3.274 3.274 0 0 0 3.273 3.274h1.2c.452 0 .856.281 1.011.705.134.35.276.691.43 1.03.192.41.104.898-.218 1.217l-.855.857a3.282 3.282 0 0 0 0 4.626l3.083 3.084a3.281 3.281 0 0 0 4.627 0l.856-.855a1.08 1.08 0 0 1 1.218-.218c.338.154.68.297 1.03.436.428.153.715.558.714 1.013v1.2a3.274 3.274 0 0 0 3.274 3.274h4.365a3.274 3.274 0 0 0 3.273-3.273v-1.2c0-.452.281-.856.705-1.011.35-.134.691-.276 1.03-.43a1.08 1.08 0 0 1 1.217.218l.857.855a3.283 3.283 0 0 0 4.626-.005l3.084-3.084a3.281 3.281 0 0 0 0-4.627l-.855-.855a1.076 1.076 0 0 1-.218-1.218c.154-.339.297-.68.437-1.03.154-.427.559-.71 1.012-.709h1.2a3.274 3.274 0 0 0 3.274-3.274v-4.365a3.274 3.274 0 0 0-3.273-3.273z" fill="#E3EDC3"/>
        <path d="M46.533 61.801c0 .096-.008.191-.014.286a8.072 8.072 0 0 1-4.147 6.476 9.005 9.005 0 0 1-.424.209l-.096.046a8.312 8.312 0 0 1-2.099.635c-.05.008-.102.017-.154.024a8.187 8.187 0 0 1-.987.08h-.24a8.074 8.074 0 0 1-.816-.051l-.138-.016c-.316-.042-.63-.1-.94-.177a8.056 8.056 0 0 1-.008-15.606v-.001a8.333 8.333 0 0 1 2.022-.254c.329.002.658.025.984.067.087.01.174.027.26.04.249.038.495.088.738.15l.237.061a8.126 8.126 0 0 1 1.755.739c.088.052.175.106.262.16.182.115.358.23.532.361.093.068.187.135.277.207.226.18.442.373.648.576.082.083.157.173.236.26a7.99 7.99 0 0 1 .632.775c.115.166.23.339.333.514.058.095.116.188.174.286.149.273.28.555.396.844.046.115.085.23.127.345.074.212.139.426.195.642.03.115.061.218.085.33.068.31.116.625.147.942.007.084.007.169.012.253.016.265.021.53.01.797z" fill="#FFF"/>
        <path d="M58.056 55.754H56.79c-.476 0-.902-.296-1.066-.743-.14-.369-.291-.729-.453-1.086a1.135 1.135 0 0 1 .23-1.284l.902-.903a3.46 3.46 0 0 0-.006-4.879l-3.252-3.252a3.46 3.46 0 0 0-4.88 0l-.901.901a1.14 1.14 0 0 1-1.285.23 24.799 24.799 0 0 0-1.086-.46 1.131 1.131 0 0 1-.747-1.068v-1.266a3.452 3.452 0 0 0-3.452-3.452H36.19a3.452 3.452 0 0 0-3.452 3.452v1.266c.001.476-.296.902-.743 1.066-.369.14-.729.291-1.086.453-.434.201-.946.11-1.284-.23l-.903-.902a3.46 3.46 0 0 0-4.878 0l-3.253 3.262a3.46 3.46 0 0 0 0 4.88l.902.902c.34.337.431.85.23 1.284a19.27 19.27 0 0 0-.455 1.087c-.165.45-.595.747-1.074.742H18.93a3.452 3.452 0 0 0-3.453 3.452v4.604a3.452 3.452 0 0 0 3.453 3.452h1.265c.477-.001.903.296 1.066.743.14.369.291.729.453 1.086.202.433.11.947-.23 1.284l-.902.903a3.46 3.46 0 0 0 0 4.878l3.252 3.253a3.46 3.46 0 0 0 4.88 0l.902-.902a1.14 1.14 0 0 1 1.284-.23c.357.163.717.313 1.086.46.452.161.754.59.753 1.069v1.265a3.452 3.452 0 0 0 3.452 3.453h4.604a3.452 3.452 0 0 0 3.452-3.453v-1.265c0-.477.296-.903.743-1.066.369-.14.729-.291 1.086-.453.434-.201.947-.11 1.284.23l.903.902a3.462 3.462 0 0 0 4.879-.006l3.252-3.252a3.46 3.46 0 0 0 0-4.88l-.901-.902a1.135 1.135 0 0 1-.23-1.284c.162-.357.312-.717.46-1.086.162-.45.59-.749 1.068-.747h1.266a3.452 3.452 0 0 0 3.452-3.452v-4.604a3.452 3.452 0 0 0-3.452-3.452zm1.15 8.056a1.15 1.15 0 0 1-1.15 1.15H56.79c-1.43.006-2.711.89-3.223 2.226-.122.322-.253.64-.395.952a3.463 3.463 0 0 0 .69 3.862l.9.9c.45.45.45 1.179 0 1.628v.001l-3.252 3.252a1.15 1.15 0 0 1-1.627 0l-.903-.9a3.46 3.46 0 0 0-3.862-.691c-.312.141-.63.274-.95.396a3.463 3.463 0 0 0-2.224 3.22v1.265a1.15 1.15 0 0 1-1.15 1.151H36.19a1.15 1.15 0 0 1-1.15-1.15v-1.266a3.464 3.464 0 0 0-2.226-3.223c-.322-.122-.64-.254-.952-.396a3.464 3.464 0 0 0-3.862.69l-.9.9a1.15 1.15 0 0 1-1.628.002l-.001-.001-3.252-3.249a1.15 1.15 0 0 1 0-1.627l.9-.902a3.463 3.463 0 0 0 .691-3.862c-.141-.312-.274-.63-.396-.95a3.463 3.463 0 0 0-3.22-2.228H18.93a1.15 1.15 0 0 1-1.151-1.15v-4.604c0-.635.515-1.15 1.15-1.15h1.266a3.464 3.464 0 0 0 3.223-2.226c.122-.322.254-.64.396-.952a3.463 3.463 0 0 0-.69-3.862l-.905-.9a1.15 1.15 0 0 1-.001-1.628v-.001l3.253-3.252a1.15 1.15 0 0 1 1.627 0l.902.9a3.46 3.46 0 0 0 3.862.691c.312-.141.63-.274.95-.396a3.463 3.463 0 0 0 2.229-3.22v-1.266c0-.635.515-1.15 1.15-1.15h4.604c.635 0 1.15.515 1.15 1.15v1.266c.006 1.43.89 2.711 2.226 3.223.322.122.64.253.952.395a3.46 3.46 0 0 0 3.862-.69l.9-.9a1.158 1.158 0 0 1 1.63 0l3.251 3.252c.45.45.45 1.178 0 1.627l-.9.903a3.463 3.463 0 0 0-.691 3.862c.141.312.274.63.396.95a3.463 3.463 0 0 0 3.22 2.224h1.266c.635 0 1.15.515 1.15 1.15v4.604z" fill="#274642" fill-rule="nonzero"/>
        <path d="M48.826 61.048a10.393 10.393 0 0 0-.206-1.699c-.04-.188-.093-.373-.144-.56-.064-.236-.137-.47-.217-.7-.057-.16-.115-.319-.175-.477a10.252 10.252 0 0 0-.508-1.077c-.015-.026-.024-.055-.039-.081-.299-.533-.646-1.038-1.035-1.509-.034-.041-.072-.08-.106-.12a9.63 9.63 0 0 0-.494-.544c-.09-.093-.184-.18-.278-.27a10.887 10.887 0 0 0-.772-.666l-.19-.141a10.284 10.284 0 0 0-6.17-2.053c-.115 0-.23.017-.345.022a10.02 10.02 0 0 0-1.13.093c-.375.05-.748.119-1.115.208-5.542 1.432-8.873 7.085-7.441 12.626a10.363 10.363 0 0 0 7.449 7.443c.018 0 .038.006.057.01.398.1.8.176 1.206.23.268.034.537.04.806.053.18.01.345.036.533.036.328 0 .668-.022 1.016-.056.037 0 .073-.01.115-.015.28-.031.563-.073.851-.13.116-.022.223-.051.333-.076.203-.048.404-.097.611-.158.161-.048.318-.105.475-.16.158-.055.321-.115.485-.177.163-.062.3-.134.449-.203.193-.088.385-.176.575-.28h.007a13.621 13.621 0 0 0 2.95-2.13c.238-.222.446-.476.616-.754a12.285 12.285 0 0 0 1.812-5.401c.016-.208.027-.416.032-.623 0-.065.01-.127.01-.193 0-.162-.016-.312-.023-.468zm-2.293.753c0 .096-.008.191-.014.286a8.072 8.072 0 0 1-4.147 6.476 9.005 9.005 0 0 1-.424.209l-.096.046a8.312 8.312 0 0 1-2.099.635c-.05.008-.102.017-.154.024a8.187 8.187 0 0 1-.987.08h-.24a8.074 8.074 0 0 1-.816-.051l-.138-.016c-.316-.042-.63-.1-.94-.177a8.056 8.056 0 0 1-.008-15.606v-.001a8.333 8.333 0 0 1 2.022-.254c.329.002.658.025.984.067.087.01.174.027.26.04.249.038.495.088.738.15l.237.061a8.126 8.126 0 0 1 1.755.739c.088.052.175.106.262.16.182.115.358.23.532.361.093.068.187.135.277.207.226.18.442.373.648.576.082.083.157.173.236.26a7.99 7.99 0 0 1 .632.775c.115.166.23.339.333.514.058.095.116.188.174.286.149.273.28.555.396.844.046.115.085.23.127.345.074.212.139.426.195.642.03.115.061.218.085.33.068.31.116.625.147.942.007.084.007.169.012.253.016.265.021.53.01.797zM81.071 39.643h-3.619c-.482.005-.914-.3-1.072-.755a23.968 23.968 0 0 0-1.293-3.12 1.127 1.127 0 0 1 .221-1.3l2.567-2.569a3.452 3.452 0 0 0 0-4.88l-4.894-4.885a3.452 3.452 0 0 0-4.88 0l-2.565 2.563c-.34.346-.863.435-1.298.223a23.908 23.908 0 0 0-3.121-1.3 1.123 1.123 0 0 1-.76-1.072v-3.62a3.452 3.452 0 0 0-3.452-3.452H50a3.452 3.452 0 0 0-3.452 3.453v3.619c.005.482-.3.914-.755 1.072-1.07.36-2.112.793-3.12 1.298-.436.215-.96.126-1.3-.22l-2.57-2.567a3.46 3.46 0 0 0-4.88 0l-4.884 4.884a3.452 3.452 0 0 0 0 4.882l3.774 3.78a1.15 1.15 0 0 0 1.63-1.625l-3.776-3.779a1.15 1.15 0 0 1 0-1.627l4.884-4.884a1.15 1.15 0 0 1 1.627 0l2.57 2.566a3.421 3.421 0 0 0 3.955.65 21.773 21.773 0 0 1 2.82-1.173 3.424 3.424 0 0 0 2.326-3.257v-3.62c0-.635.515-1.15 1.151-1.15h6.905c.635 0 1.15.515 1.15 1.15v3.62a3.422 3.422 0 0 0 2.326 3.255c.967.325 1.91.717 2.822 1.174a3.43 3.43 0 0 0 3.953-.65l2.57-2.565a1.15 1.15 0 0 1 1.628 0l4.884 4.885a1.15 1.15 0 0 1 0 1.626l-2.566 2.571a3.425 3.425 0 0 0-.65 3.954c.457.912.85 1.854 1.173 2.82a3.422 3.422 0 0 0 3.257 2.326h3.62c.635 0 1.15.516 1.15 1.151V50a1.15 1.15 0 0 1-1.15 1.15h-3.62a3.422 3.422 0 0 0-3.255 2.327c-.325.967-.717 1.91-1.174 2.821a3.426 3.426 0 0 0 .65 3.953l2.566 2.571c.45.45.45 1.178 0 1.627l-4.886 4.884a1.15 1.15 0 0 1-1.626 0l-3.782-3.773a1.15 1.15 0 1 0-1.625 1.63l3.78 3.773a3.452 3.452 0 0 0 4.881 0l4.884-4.883a3.452 3.452 0 0 0 0-4.882l-2.563-2.567a1.128 1.128 0 0 1-.222-1.298c.507-1.009.94-2.051 1.3-3.121a1.123 1.123 0 0 1 1.072-.76h3.62A3.452 3.452 0 0 0 84.523 50v-6.905a3.452 3.452 0 0 0-3.453-3.452z" fill="#274642" fill-rule="nonzero"/>
        <path d="M64.03 35.97c-5.845-5.834-15.31-5.834-21.156 0a1.15 1.15 0 0 0 1.628 1.627c4.91-4.977 12.925-5.03 17.901-.12 4.977 4.91 5.03 12.925.12 17.902l-.12.12a1.15 1.15 0 1 0 1.627 1.627c5.834-5.846 5.834-15.31 0-21.156z" fill="#274642" fill-rule="nonzero"/>
    </g>
</svg>
