<svg xmlns="http://www.w3.org/2000/svg" width="16" height="16" viewBox="0 0 16 16">
    <path fill="#8CAEB4" d="M14.267 4.937l.2.073c.453.979.683 1.985.683 2.99 0 3.937-3.213 7.15-7.15 7.15-1.362 0-2.677-.394-3.838-1.147l-.189-.128-.04.021c-.426.195-.923.158-1.316-.092l-.126-.09-.108-.097c-.538-.539-.538-1.414 0-1.953.539-.538 1.414-.538 1.953 0 .35.35.48.853.36 1.32l-.007.023.147.098c.796.501 1.671.805 2.58.896l.305.022.279.007c3.325 0 6.03-2.705 6.03-6.03 0-.653-.118-1.311-.35-1.96l-.107-.278-.125-.284.075-.196.744-.345zm-11.091 7.52c-.102.1-.102.266 0 .367.101.102.266.102.368 0 .1-.101.1-.266 0-.368-.102-.1-.267-.1-.368 0zm7.695-8.298l.15.15v.82l-.15.15-.671-.001v1.081c0 .52-.18 1.008-.499 1.395l-.125.14L9.464 8l.132.127c.254.268.438.596.532.957l.04.183.025.187.008.188-.001 1.08h.671l.15.15v.82l-.15.15H5.13l-.15-.15v-.82l.15-.15h.67v-1.08c0-.52.182-1.008.5-1.395l.125-.14L6.535 8l-.13-.126c-.255-.268-.439-.596-.533-.957l-.04-.183-.025-.187-.008-.188V5.278h-.67l-.15-.15v-.82l.15-.15h5.742zM8 .85c1.362 0 2.677.394 3.838 1.147l.188.127.04-.02c.427-.194.924-.159 1.316.092l.127.09.108.097c.538.539.538 1.414 0 1.953-.539.538-1.414.538-1.953 0-.35-.35-.48-.853-.36-1.32l.006-.024-.146-.097c-.796-.501-1.671-.805-2.58-.896l-.305-.022L8 1.97C4.675 1.97 1.97 4.675 1.97 8c0 .653.118 1.311.35 1.96l.107.278.125.284-.075.196-.744.345-.2-.073C1.08 10.011.85 9.005.85 8 .85 4.063 4.063.85 8 .85zm0 7.71c-.515 0-.952.364-1.056.849l-.018.114-.006.118-.001 1.08H9.08v-1.08c0-.556-.422-1.016-.962-1.074L8 8.56zm1.08-3.282H6.919v1.081c0 .556.423 1.016.963 1.074L8 7.44c.515 0 .952-.364 1.056-.849l.018-.114.006-.118V5.278zm3.376-2.102c-.1.101-.1.266 0 .368.102.1.267.1.368 0 .102-.102.102-.267 0-.368-.101-.102-.266-.102-.368 0z"/>
</svg>
