<svg xmlns="http://www.w3.org/2000/svg" width="7" height="12" viewBox="0 0 7 12">
    <g fill="none" fill-rule="evenodd">
        <g fill="#A9CF3D" fill-rule="nonzero">
            <g>
                <g>
                    <g>
                        <g>
                            <g>
                                <g>
                                    <g>
                                        <g>
                                            <path d="M69.47 3.47c.266-.267.683-.29.976-.073l.084.073 5 5c.267.266.29.683.073.976l-.073.084-5 5c-.293.293-.767.293-1.06 0-.267-.266-.29-.683-.073-.976l.073-.084L73.939 9l-4.47-4.47c-.266-.266-.29-.683-.072-.976l.073-.084z" transform="translate(-1074 -2295) translate(160 1722) translate(815 99) translate(30 339) translate(0 88) translate(0 44)"/>
                                        </g>
                                    </g>
                                </g>
                            </g>
                        </g>
                    </g>
                </g>
            </g>
        </g>
    </g>
</svg>
