<svg width="72" height="72" viewBox="0 0 72 72" fill="none" xmlns="http://www.w3.org/2000/svg">
<g clip-path="url(#clip0_2860_7061)">
<rect width="72" height="72" rx="16" fill="#F2F3EF"/>
<rect x="21.0391" y="35.6572" width="11.0887" height="19.1531" fill="#E3EDC3"/>
<rect x="36.6641" y="46.2417" width="10.5847" height="8.06448" fill="#E3EDC3"/>
<path fill-rule="evenodd" clip-rule="evenodd" d="M51.4839 54.0644H55.3548C55.7112 54.0644 56 54.3532 56 54.7095C56 55.0658 55.7112 55.3547 55.3548 55.3547H16.6452C16.2888 55.3547 16 55.0658 16 54.7095C16 54.3532 16.2888 54.0644 16.6452 54.0644H20.5161V35.3548C20.5161 34.9984 20.805 34.7096 21.1613 34.7096H22.4516V31.4838C22.4516 31.1275 22.7405 30.8386 23.0968 30.8386C23.4531 30.8386 23.7419 31.1275 23.7419 31.4838V34.7096H24.3871V33.4193C24.3871 33.063 24.6759 32.7741 25.0323 32.7741C25.3886 32.7741 25.6774 33.063 25.6774 33.4193V34.7096H32.129V21.8064C32.129 21.4501 32.4179 21.1613 32.7742 21.1613H34.7097V19.2258C34.7097 18.8695 34.9985 18.5806 35.3548 18.5806H36V16.6452C36 16.2888 36.2888 16 36.6452 16C37.0015 16 37.2903 16.2888 37.2903 16.6452V18.5806H37.9355V17.9355C37.9355 17.5792 38.2243 17.2903 38.5806 17.2903C38.937 17.2903 39.2258 17.5792 39.2258 17.9355V18.5806H48.2581C48.6144 18.5806 48.9032 18.8695 48.9032 19.2258V21.1613H50.8387C51.195 21.1613 51.4839 21.4501 51.4839 21.8064V54.0644ZM25.0323 48.2579H32.129V45.6773H25.0323V48.2579ZM32.129 41.8063H25.0323V39.2257H32.129V41.8063ZM24.3869 37.9354H32.1288V35.9999H21.8062V54.0644H32.1288V49.5482H24.3869C24.0305 49.5482 23.7417 49.2594 23.7417 48.9031V45.0321C23.7417 44.6758 24.0305 44.387 24.3869 44.387H32.1288V43.0967H24.3869C24.0305 43.0967 23.7417 42.8078 23.7417 42.4515V38.5805C23.7417 38.2242 24.0305 37.9354 24.3869 37.9354ZM35.9998 19.8709H47.6127V21.1613H35.9998V19.8709ZM37.2903 46.9676V54.0644H41.1613V46.9676H37.2903ZM46.3228 54.0644H42.4518V46.9676H46.3228V54.0644ZM47.6127 54.0643H50.1933V22.4516H33.4191V54.0643H35.9998V46.3224C35.9998 45.9661 36.2886 45.6773 36.6449 45.6773H46.9675C47.3238 45.6773 47.6127 45.9661 47.6127 46.3224V54.0643Z" fill="#274642"/>
<path fill-rule="evenodd" clip-rule="evenodd" d="M36.0006 37.8545H39.8716C40.2279 37.8545 40.5168 38.1433 40.5168 38.4997V42.3706C40.5168 42.7269 40.2279 43.0158 39.8716 43.0158H36.0006C35.6443 43.0158 35.3555 42.7269 35.3555 42.3706V38.4997C35.3555 38.1433 35.6443 37.8545 36.0006 37.8545ZM36.6456 41.7254H39.2262V39.1448H36.6456V41.7254Z" fill="#274642"/>
<path d="M39.2262 41.7254V41.8514H39.3522V41.7254H39.2262ZM36.6456 41.7254H36.5196V41.8514H36.6456V41.7254ZM39.2262 39.1448H39.3522V39.0188H39.2262V39.1448ZM36.6456 39.1448V39.0188H36.5196V39.1448H36.6456ZM39.8716 37.7285H36.0006V37.9805H39.8716V37.7285ZM40.6428 38.4997C40.6428 38.0737 40.2975 37.7285 39.8716 37.7285V37.9805C40.1583 37.9805 40.3908 38.2129 40.3908 38.4997H40.6428ZM40.6428 42.3706V38.4997H40.3908V42.3706H40.6428ZM39.8716 43.1418C40.2975 43.1418 40.6428 42.7965 40.6428 42.3706H40.3908C40.3908 42.6573 40.1583 42.8898 39.8716 42.8898V43.1418ZM36.0006 43.1418H39.8716V42.8898H36.0006V43.1418ZM35.2295 42.3706C35.2295 42.7965 35.5747 43.1418 36.0006 43.1418V42.8898C35.7139 42.8898 35.4815 42.6573 35.4815 42.3706H35.2295ZM35.2295 38.4997V42.3706H35.4815V38.4997H35.2295ZM36.0006 37.7285C35.5747 37.7285 35.2295 38.0737 35.2295 38.4997H35.4815C35.4815 38.2129 35.7139 37.9805 36.0006 37.9805V37.7285ZM39.2262 41.5994H36.6456V41.8514H39.2262V41.5994ZM39.1002 39.1448V41.7254H39.3522V39.1448H39.1002ZM36.6456 39.2708H39.2262V39.0188H36.6456V39.2708ZM36.7716 41.7254V39.1448H36.5196V41.7254H36.7716Z" fill="white"/>
<path fill-rule="evenodd" clip-rule="evenodd" d="M43.7428 37.855H47.6138C47.9701 37.855 48.2589 38.1438 48.2589 38.5001V42.3711C48.2589 42.7274 47.9701 43.0162 47.6138 43.0162H43.7428C43.3865 43.0162 43.0977 42.7274 43.0977 42.3711V38.5001C43.0977 38.1438 43.3865 37.855 43.7428 37.855ZM44.3876 41.7259H46.9683V39.1453H44.3876V41.7259Z" fill="#274642"/>
<path d="M46.9683 41.7259V41.8519H47.0943V41.7259H46.9683ZM44.3876 41.7259H44.2616V41.8519H44.3876V41.7259ZM46.9683 39.1453H47.0943V39.0193H46.9683V39.1453ZM44.3876 39.1453V39.0193H44.2616V39.1453H44.3876ZM47.6138 37.729H43.7428V37.981H47.6138V37.729ZM48.385 38.5001C48.385 38.0742 48.0397 37.729 47.6138 37.729V37.981C47.9005 37.981 48.1329 38.2134 48.1329 38.5001H48.385ZM48.385 42.3711V38.5001H48.1329V42.3711H48.385ZM47.6138 43.1423C48.0397 43.1423 48.385 42.797 48.385 42.3711H48.1329C48.1329 42.6578 47.9005 42.8902 47.6138 42.8902V43.1423ZM43.7428 43.1423H47.6138V42.8902H43.7428V43.1423ZM42.9716 42.3711C42.9716 42.797 43.3169 43.1423 43.7428 43.1423V42.8902C43.4561 42.8902 43.2237 42.6578 43.2237 42.3711H42.9716ZM42.9716 38.5001V42.3711H43.2237V38.5001H42.9716ZM43.7428 37.729C43.3169 37.729 42.9716 38.0742 42.9716 38.5001H43.2237C43.2237 38.2134 43.4561 37.981 43.7428 37.981V37.729ZM46.9683 41.5999H44.3876V41.8519H46.9683V41.5999ZM46.8423 39.1453V41.7259H47.0943V39.1453H46.8423ZM44.3876 39.2713H46.9683V39.0193H44.3876V39.2713ZM44.5136 41.7259V39.1453H44.2616V41.7259H44.5136Z" fill="white"/>
<path fill-rule="evenodd" clip-rule="evenodd" d="M36.0006 31.4033H39.8716C40.2279 31.4033 40.5168 31.6922 40.5168 32.0485V35.9194C40.5168 36.2757 40.2279 36.5646 39.8716 36.5646H36.0006C35.6443 36.5646 35.3555 36.2757 35.3555 35.9194V32.0485C35.3555 31.6922 35.6443 31.4033 36.0006 31.4033ZM36.6456 35.2743H39.2262V32.6936H36.6456V35.2743Z" fill="#274642"/>
<path d="M39.2262 35.2743V35.4003H39.3522V35.2743H39.2262ZM36.6456 35.2743H36.5196V35.4003H36.6456V35.2743ZM39.2262 32.6936H39.3522V32.5676H39.2262V32.6936ZM36.6456 32.6936V32.5676H36.5196V32.6936H36.6456ZM39.8716 31.2773H36.0006V31.5293H39.8716V31.2773ZM40.6428 32.0485C40.6428 31.6226 40.2975 31.2773 39.8716 31.2773V31.5293C40.1583 31.5293 40.3908 31.7618 40.3908 32.0485H40.6428ZM40.6428 35.9194V32.0485H40.3908V35.9194H40.6428ZM39.8716 36.6906C40.2975 36.6906 40.6428 36.3453 40.6428 35.9194H40.3908C40.3908 36.2061 40.1583 36.4386 39.8716 36.4386V36.6906ZM36.0006 36.6906H39.8716V36.4386H36.0006V36.6906ZM35.2295 35.9194C35.2295 36.3453 35.5747 36.6906 36.0006 36.6906V36.4386C35.7139 36.4386 35.4815 36.2061 35.4815 35.9194H35.2295ZM35.2295 32.0485V35.9194H35.4815V32.0485H35.2295ZM36.0006 31.2773C35.5747 31.2773 35.2295 31.6226 35.2295 32.0485H35.4815C35.4815 31.7618 35.7139 31.5293 36.0006 31.5293V31.2773ZM39.2262 35.1483H36.6456V35.4003H39.2262V35.1483ZM39.1002 32.6936V35.2743H39.3522V32.6936H39.1002ZM36.6456 32.8196H39.2262V32.5676H36.6456V32.8196ZM36.7716 35.2743V32.6936H36.5196V35.2743H36.7716Z" fill="white"/>
<path fill-rule="evenodd" clip-rule="evenodd" d="M43.7428 31.4033H47.6138C47.9701 31.4033 48.2589 31.6922 48.2589 32.0485V35.9194C48.2589 36.2757 47.9701 36.5646 47.6138 36.5646H43.7428C43.3865 36.5646 43.0977 36.2757 43.0977 35.9194V32.0485C43.0977 31.6922 43.3865 31.4033 43.7428 31.4033ZM44.3876 35.2743H46.9683V32.6936H44.3876V35.2743Z" fill="#274642"/>
<path d="M46.9683 35.2743V35.4003H47.0943V35.2743H46.9683ZM44.3876 35.2743H44.2616V35.4003H44.3876V35.2743ZM46.9683 32.6936H47.0943V32.5676H46.9683V32.6936ZM44.3876 32.6936V32.5676H44.2616V32.6936H44.3876ZM47.6138 31.2773H43.7428V31.5293H47.6138V31.2773ZM48.385 32.0485C48.385 31.6226 48.0397 31.2773 47.6138 31.2773V31.5293C47.9005 31.5293 48.1329 31.7618 48.1329 32.0485H48.385ZM48.385 35.9194V32.0485H48.1329V35.9194H48.385ZM47.6138 36.6906C48.0397 36.6906 48.385 36.3453 48.385 35.9194H48.1329C48.1329 36.2061 47.9005 36.4386 47.6138 36.4386V36.6906ZM43.7428 36.6906H47.6138V36.4386H43.7428V36.6906ZM42.9716 35.9194C42.9716 36.3453 43.3169 36.6906 43.7428 36.6906V36.4386C43.4561 36.4386 43.2237 36.2061 43.2237 35.9194H42.9716ZM42.9716 32.0485V35.9194H43.2237V32.0485H42.9716ZM43.7428 31.2773C43.3169 31.2773 42.9716 31.6226 42.9716 32.0485H43.2237C43.2237 31.7618 43.4561 31.5293 43.7428 31.5293V31.2773ZM46.9683 35.1483H44.3876V35.4003H46.9683V35.1483ZM46.8423 32.6936V35.2743H47.0943V32.6936H46.8423ZM44.3876 32.8196H46.9683V32.5676H44.3876V32.8196ZM44.5136 35.2743V32.6936H44.2616V35.2743H44.5136Z" fill="white"/>
<path fill-rule="evenodd" clip-rule="evenodd" d="M36.0006 24.9517H39.8716C40.2279 24.9517 40.5168 25.2405 40.5168 25.5968V29.4678C40.5168 29.8241 40.2279 30.1129 39.8716 30.1129H36.0006C35.6443 30.1129 35.3555 29.8241 35.3555 29.4678V25.5968C35.3555 25.2405 35.6443 24.9517 36.0006 24.9517ZM36.6456 28.8226H39.2262V26.242H36.6456V28.8226Z" fill="#274642"/>
<path d="M39.2262 28.8226V28.9486H39.3522V28.8226H39.2262ZM36.6456 28.8226H36.5196V28.9486H36.6456V28.8226ZM39.2262 26.242H39.3522V26.116H39.2262V26.242ZM36.6456 26.242V26.116H36.5196V26.242H36.6456ZM39.8716 24.8257H36.0006V25.0777H39.8716V24.8257ZM40.6428 25.5968C40.6428 25.1709 40.2975 24.8257 39.8716 24.8257V25.0777C40.1583 25.0777 40.3908 25.3101 40.3908 25.5968H40.6428ZM40.6428 29.4678V25.5968H40.3908V29.4678H40.6428ZM39.8716 30.2389C40.2975 30.2389 40.6428 29.8937 40.6428 29.4678H40.3908C40.3908 29.7545 40.1583 29.9869 39.8716 29.9869V30.2389ZM36.0006 30.2389H39.8716V29.9869H36.0006V30.2389ZM35.2295 29.4678C35.2295 29.8937 35.5747 30.2389 36.0006 30.2389V29.9869C35.7139 29.9869 35.4815 29.7545 35.4815 29.4678H35.2295ZM35.2295 25.5968V29.4678H35.4815V25.5968H35.2295ZM36.0006 24.8257C35.5747 24.8257 35.2295 25.1709 35.2295 25.5968H35.4815C35.4815 25.3101 35.7139 25.0777 36.0006 25.0777V24.8257ZM39.2262 28.6966H36.6456V28.9486H39.2262V28.6966ZM39.1002 26.242V28.8226H39.3522V26.242H39.1002ZM36.6456 26.368H39.2262V26.116H36.6456V26.368ZM36.7716 28.8226V26.242H36.5196V28.8226H36.7716Z" fill="white"/>
<path fill-rule="evenodd" clip-rule="evenodd" d="M43.7428 24.9517H47.6138C47.9701 24.9517 48.2589 25.2405 48.2589 25.5968V29.4678C48.2589 29.8241 47.9701 30.1129 47.6138 30.1129H43.7428C43.3865 30.1129 43.0977 29.8241 43.0977 29.4678V25.5968C43.0977 25.2405 43.3865 24.9517 43.7428 24.9517ZM44.3876 28.8226H46.9683V26.242H44.3876V28.8226Z" fill="#274642"/>
<path d="M46.9683 28.8226V28.9486H47.0943V28.8226H46.9683ZM44.3876 28.8226H44.2616V28.9486H44.3876V28.8226ZM46.9683 26.242H47.0943V26.116H46.9683V26.242ZM44.3876 26.242V26.116H44.2616V26.242H44.3876ZM47.6138 24.8257H43.7428V25.0777H47.6138V24.8257ZM48.385 25.5968C48.385 25.1709 48.0397 24.8257 47.6138 24.8257V25.0777C47.9005 25.0777 48.1329 25.3101 48.1329 25.5968H48.385ZM48.385 29.4678V25.5968H48.1329V29.4678H48.385ZM47.6138 30.2389C48.0397 30.2389 48.385 29.8937 48.385 29.4678H48.1329C48.1329 29.7545 47.9005 29.9869 47.6138 29.9869V30.2389ZM43.7428 30.2389H47.6138V29.9869H43.7428V30.2389ZM42.9716 29.4678C42.9716 29.8937 43.3169 30.2389 43.7428 30.2389V29.9869C43.4561 29.9869 43.2237 29.7545 43.2237 29.4678H42.9716ZM42.9716 25.5968V29.4678H43.2237V25.5968H42.9716ZM43.7428 24.8257C43.3169 24.8257 42.9716 25.1709 42.9716 25.5968H43.2237C43.2237 25.3101 43.4561 25.0777 43.7428 25.0777V24.8257ZM46.9683 28.6966H44.3876V28.9486H46.9683V28.6966ZM46.8423 26.242V28.8226H47.0943V26.242H46.8423ZM44.3876 26.368H46.9683V26.116H44.3876V26.368ZM44.5136 28.8226V26.242H44.2616V28.8226H44.5136Z" fill="white"/>
</g>
<defs>
<clipPath id="clip0_2860_7061">
<rect width="72" height="72" fill="white"/>
</clipPath>
</defs>
</svg>
