<svg xmlns="http://www.w3.org/2000/svg" width="45" height="40" viewBox="0 0 45 40">
    <g fill="none" fill-rule="evenodd" opacity=".39">
        <g fill-rule="nonzero">
            <g>
                <g>
                    <g>
                        <g>
                            <g>
                                <path fill="#587E85" d="M19.73 7.886c.479 0 .866-.384.866-.857V4.286C20.596 1.923 18.656 0 16.27 0H4.327C1.94 0 0 1.923 0 4.286V14.57c0 2.364 1.941 4.286 4.327 4.286h5.598c-.197 6.403-2.65 9.732-7.482 10.168-.446.04-.787.41-.787.853V38.4c0 .236.098.461.271.623.161.15.374.234.595.234l.048-.001c5.963-.332 10.516-2.365 13.53-6.042 2.984-3.638 4.496-8.954 4.496-15.801v-3.07c0-.473-.387-.857-.865-.857s-.866.384-.866.857v3.07c0 12.57-5.065 19.143-15.478 20.065v-6.843c2.632-.405 4.667-1.618 6.058-3.613 1.476-2.117 2.224-5.152 2.224-9.023 0-.473-.387-.857-.865-.857H4.327c-1.432 0-2.596-1.154-2.596-2.572V4.286c0-1.418 1.164-2.572 2.596-2.572h11.942c1.432 0 2.596 1.154 2.596 2.572v2.743c0 .473.388.857.866.857zM39.98 0H28.039c-2.385 0-4.326 1.923-4.326 4.286V14.57c0 2.364 1.94 4.286 4.326 4.286h5.599c-.197 6.403-2.65 9.732-7.482 10.168-.446.04-.787.41-.787.853V38.4c0 .236.098.461.27.623.162.15.375.234.595.234l.049-.001c5.963-.332 10.515-2.365 13.53-6.042 2.983-3.638 4.496-8.954 4.496-15.801V4.286C44.308 1.923 42.367 0 39.98 0zm2.597 17.413c0 12.57-5.066 19.143-15.478 20.065v-6.843c2.631-.405 4.667-1.618 6.058-3.613 1.475-2.117 2.223-5.152 2.223-9.023 0-.473-.387-.857-.865-.857h-6.477c-1.431 0-2.596-1.154-2.596-2.572V4.286c0-1.418 1.165-2.572 2.596-2.572h10.385V8.06c0 .473.388.857.865.857.478 0 .866-.384.866-.857V1.72c1.35.09 2.423 1.206 2.423 2.566v13.127z" transform="translate(-1175 -4108) translate(0 2951) translate(0 918) translate(234 215) translate(455) translate(486 24)"/>
                                <path fill="#BECDD0" d="M39.288 10.179c-.477 0-.865.388-.865.861s.388.857.865.857c.478 0 .866-.384.866-.857v-.008c0-.474-.388-.853-.866-.853zM19.73 9.829c-.477 0-.865.383-.865.857v.018c0 .473.388.857.866.857s.865-.384.865-.857v-.018c0-.474-.387-.857-.865-.857z" transform="translate(-1175 -4108) translate(0 2951) translate(0 918) translate(234 215) translate(455) translate(486 24)"/>
                            </g>
                        </g>
                    </g>
                </g>
            </g>
        </g>
    </g>
</svg>
