<svg width="136" height="143" viewBox="0 0 136 143" fill="none" xmlns="http://www.w3.org/2000/svg">
<path d="M105.678 34.3711V78.9487L105.647 79.1005C104.609 78.989 103.564 78.938 102.52 78.9487C85.7512 78.9546 72.16 92.547 72.1541 109.315C72.1482 112.395 72.6203 115.458 73.5502 118.394L73.4897 118.425H15.2177C8.50871 118.427 3.06892 112.987 3.07129 106.278V34.3711H105.678Z" fill="white"/>
<path d="M78.0755 11.8398H93.5622C100.271 11.8375 105.71 17.2773 105.709 23.9863V34.3712H3.07129V23.9863C3.06892 17.2773 8.50871 11.8375 15.2177 11.8398H78.0755Z" fill="#E3EDC3"/>
<path d="M105.596 79.0542C120.703 80.6128 132.337 93.0914 132.833 108.271C133.33 123.45 122.537 136.663 107.563 139.206C92.5904 141.748 78.0408 132.84 73.4989 118.347C72.5678 115.412 72.0969 112.349 72.1016 109.268C72.1075 92.5006 85.6999 78.9083 102.468 78.9023C103.53 78.9023 104.564 78.9628 105.596 79.0542Z" fill="#E3EDC3"/>
<path d="M27.811 69.5654H74.8784C76.5557 69.5654 77.915 68.2049 77.915 66.5288C77.915 64.8515 76.5557 63.4922 74.8784 63.4922H27.811C26.1338 63.4922 24.7744 64.8515 24.7744 66.5288C24.7744 68.2049 26.1338 69.5654 27.811 69.5654Z" fill="#274642"/>
<path d="M55.9898 83.2305H27.811C26.1338 83.2305 24.7744 84.5898 24.7744 86.2671C24.7744 87.9431 26.1338 89.3037 27.811 89.3037H55.9898C57.667 89.3037 59.0264 87.9431 59.0264 86.2671C59.0264 84.5898 57.667 83.2305 55.9898 83.2305Z" fill="#274642"/>
<path fill-rule="evenodd" clip-rule="evenodd" d="M108.711 23.9892V76.4916C115.854 77.8142 122.357 81.4665 127.203 86.8778C136.097 96.6566 138.381 110.763 133.032 122.849C127.681 134.936 115.704 142.728 102.485 142.721C95.2913 142.747 88.2858 140.422 82.5352 136.1C77.545 132.339 73.6887 127.275 71.3911 121.464H15.183C6.79915 121.461 0.00355854 114.665 0 106.281V23.9892C0.00355854 15.6053 6.79915 8.80972 15.183 8.80616H27.6331V3.03661C27.6331 1.35936 28.9925 0 30.6697 0C32.347 0 33.7063 1.35936 33.7063 3.03661V8.80616H75.0042V3.03661C75.0042 1.35936 76.3635 0 78.0408 0C79.718 0 81.0774 1.35936 81.0774 3.03661V8.80616H93.5275C101.911 8.80972 108.708 15.6053 108.711 23.9892ZM27.6605 14.8789H15.2104C10.1846 14.8931 6.11482 18.9641 6.10059 23.9887V31.3371H102.665V23.9887C102.649 18.9641 98.5795 14.8931 93.5549 14.8789H81.1048V20.6793C81.1048 22.3554 79.7454 23.7159 78.0682 23.7159C76.3909 23.7159 75.0316 22.3554 75.0316 20.6793V14.8789H33.7337V20.6793C33.7337 22.3554 32.3743 23.7159 30.6971 23.7159C29.0198 23.7159 27.6605 22.3554 27.6605 20.6793V14.8789ZM6.10059 106.281V37.4102H102.634V75.9146H102.542C92.6249 75.93 83.2256 80.3437 76.8808 87.9673C70.5359 95.5896 67.9015 105.635 69.6866 115.39H15.2104C10.1846 115.376 6.11482 111.305 6.10059 106.281ZM86.2082 131.238C90.928 134.757 96.6596 136.653 102.545 136.644C117.097 136.67 129.113 125.28 129.867 110.748C130.62 96.2165 119.846 83.6466 105.37 82.1675C104.428 82.0761 103.487 82.0156 102.545 82.0156C90.7703 82.0109 80.3165 89.5526 76.6073 100.729C72.8982 111.905 76.7675 124.201 86.2082 131.238Z" fill="#274642"/>
<path fill-rule="evenodd" clip-rule="evenodd" d="M102.301 93.8672C100.649 93.8672 99.3086 95.2071 99.3086 96.8601C99.3086 98.513 100.649 99.8529 102.301 99.8529C103.954 99.8529 105.294 98.513 105.294 96.8601C105.294 95.2071 103.954 93.8672 102.301 93.8672ZM102.301 105.836C100.649 105.836 99.3086 107.176 99.3086 108.829V120.8C99.3086 122.453 100.649 123.793 102.301 123.793C103.954 123.793 105.294 122.453 105.294 120.8V108.829C105.294 107.176 103.954 105.836 102.301 105.836Z" fill="#274642"/>
</svg>
