<svg xmlns="http://www.w3.org/2000/svg" width="220" height="94" viewBox="0 0 220 94">
    <g fill="none" fill-rule="evenodd">
        <path fill="#EAEDE2" d="M210.778.593C215.871.593 220 4.76 220 9.9c0 5.14-4.129 9.308-9.222 9.308h-52.694c5.093 0 9.221 4.167 9.221 9.308 0 5.14-4.128 9.307-9.221 9.307h28.982c5.093 0 9.221 4.168 9.221 9.308s-4.128 9.308-9.221 9.308h-13.403c-6.421 0-11.627 4.167-11.627 9.307 0 3.427 2.635 6.53 7.904 9.308 5.093 0 9.222 4.167 9.222 9.308 0 5.14-4.129 9.308-9.222 9.308H60.6c-5.093 0-9.222-4.168-9.222-9.308s4.129-9.308 9.222-9.308H9.222C4.129 75.054 0 70.887 0 65.746c0-5.14 4.129-9.307 9.222-9.307h52.694c5.093 0 9.222-4.167 9.222-9.308 0-5.14-4.129-9.308-9.222-9.308H28.982c-5.093 0-9.222-4.167-9.222-9.307 0-5.14 4.13-9.308 9.222-9.308h52.695c-5.093 0-9.222-4.167-9.222-9.308 0-5.14 4.129-9.307 9.222-9.307h129.101zm-.086 37.23c5.14 0 9.308 4.168 9.308 9.308s-4.167 9.308-9.308 9.308c-5.14 0-9.307-4.167-9.307-9.308 0-5.14 4.167-9.308 9.307-9.308z"/>
        <g>
            <g fill-rule="nonzero">
                <path fill="#194742" stroke="#E9EDE1" d="M80.942 23.336v-6.959c0-8.852-7.125-16.029-15.914-16.029-8.79 0-15.915 7.177-15.915 16.03v6.958c0 8.853 7.126 16.029 15.915 16.029 8.79 0 15.914-7.176 15.914-16.029zm-27.635 0v-6.959c0-6.52 5.248-11.805 11.721-11.805s11.72 5.286 11.72 11.805v6.959c0 6.52-5.247 11.805-11.72 11.805-6.473 0-11.721-5.285-11.721-11.805zM39.374 82.862h51.308c1.158 0 2.097-.945 2.097-2.112v-4.846h35.124c1.158 0 2.097-.946 2.097-2.112V60.086c-.008-8.356-6.462-15.268-14.742-15.79-.043-.002-.085-.003-.128-.003-1.032 0-1.553.647-2.005 1.208-1.88 2.314-4.714 3.624-7.68 3.551-2.968-.073-5.735-1.521-7.5-3.924-.406-.554-1.054-.874-1.737-.856-2.723.061-5.383.842-7.712 2.264-3.112-3.62-7.534-5.833-12.278-6.143-.043-.002-.085-.004-.128-.004-1.032 0-1.557.651-2.058 1.273-2.206 2.714-5.532 4.251-9.014 4.165-3.482-.086-6.729-1.785-8.8-4.605-.404-.557-1.055-.877-1.74-.857-4.987.133-9.686 2.381-12.94 6.191-2.174-1.33-4.638-2.106-7.177-2.26l-.126-.003c-1.03 0-1.552.648-2.002 1.208-1.88 2.313-4.715 3.624-7.682 3.551-2.968-.073-5.736-1.521-7.502-3.924-.405-.554-1.054-.873-1.737-.856C6.794 44.488 0 51.504 0 60.086v13.706c0 1.166.939 2.112 2.097 2.112h35.18v4.846c0 1.167.939 2.112 2.097 2.112h0zm66.303-29.583c3.944.004 7.7-1.693 10.319-4.662 5.635.855 9.805 5.729 9.81 11.469V71.68H92.78V58.132c.003-2.811-.66-5.584-1.932-8.086 1.369-.803 2.89-1.309 4.465-1.483 2.61 3.014 6.394 4.735 10.365 4.716h0zm-52.104-8.627c2.933 3.42 7.194 5.391 11.682 5.402 4.487.012 8.759-1.938 11.708-5.345 3.8.54 7.196 2.675 9.344 5.878.004.008.009.015.014.021 1.48 2.226 2.269 4.845 2.265 7.523v20.507H41.47V58.132c-.002-6.956 5.228-12.784 12.1-13.48h.002zM4.193 71.68V60.086c.036-5.887 4.419-10.827 10.223-11.522 2.615 2.989 6.377 4.705 10.332 4.716 3.956.01 7.726-1.688 10.356-4.663 1.444.216 2.834.71 4.093 1.453-1.263 2.497-1.92 5.26-1.918 8.062V71.68H4.194z" transform="translate(53 5)"/>
                <path fill="#194742" stroke="#E9EDE1" d="M119.638 29.63v-6.093c0-7.895-6.353-14.294-14.191-14.294-7.838 0-14.192 6.4-14.192 14.294v6.092c0 7.895 6.354 14.294 14.192 14.294s14.191-6.4 14.191-14.294zm-24.19 0v-6.093c0-5.562 4.477-10.07 9.999-10.07s9.998 4.508 9.998 10.07v6.092c0 5.562-4.476 10.07-9.998 10.07-5.522 0-9.998-4.508-9.998-10.07h0zM38.745 29.63v-6.093c0-7.895-6.354-14.294-14.192-14.294s-14.191 6.4-14.191 14.294v6.092c0 7.895 6.353 14.294 14.191 14.294 7.838 0 14.192-6.4 14.192-14.294h0zm-24.19 0v-6.093c0-5.562 4.476-10.07 9.998-10.07 5.522 0 9.998 4.508 9.998 10.07v6.092c0 5.562-4.476 10.07-9.998 10.07-5.522 0-9.998-4.508-9.998-10.07h0z" transform="translate(53 5)"/>
                <path fill="#E0EEBE" d="M117.542 23.537v6.092c0 6.728-5.415 12.182-12.095 12.182-6.68 0-12.095-5.454-12.095-12.182v-6.092c0-6.728 5.415-12.182 12.095-12.182 6.68 0 12.095 5.454 12.095 12.182z" transform="translate(53 5)"/>
                <path fill="#FFF" d="M78.846 16.377v6.959c0 7.686-6.187 13.917-13.818 13.917-7.631 0-13.818-6.23-13.818-13.917v-6.959c0-7.686 6.187-13.917 13.818-13.917 7.631 0 13.818 6.231 13.818 13.917z" transform="translate(53 5)"/>
                <path fill="#E0EEBE" d="M36.648 23.537v6.092c0 6.728-5.415 12.182-12.095 12.182-6.68 0-12.095-5.454-12.095-12.182v-6.092c0-6.728 5.415-12.182 12.095-12.182 6.68 0 12.095 5.454 12.095 12.182z" transform="translate(53 5)"/>
                <path fill="#FFF" d="M127.903 60.086v13.706H90.682v-15.66c.005-3.102-.91-6.135-2.628-8.711 2.327-1.898 5.212-2.966 8.205-3.038 2.15 2.927 5.52 4.69 9.133 4.78 3.613.09 7.065-1.505 9.354-4.322.113-.158.242-.304.384-.436 7.178.446 12.772 6.438 12.773 13.68z" transform="translate(53 5)"/>
                <path fill="#DCEFB9" d="M88.054 49.421c1.718 2.576 2.633 5.609 2.628 8.711V80.75H39.374V58.132c-.003-8.496 6.723-15.443 15.156-15.655 2.455 3.344 6.305 5.36 10.434 5.462 4.128.102 8.072-1.72 10.688-4.938.13-.18.276-.347.436-.5 4.842.3 9.267 2.86 11.966 6.92z" transform="translate(53 5)"/>
                <path fill="#FFF" d="M41.408 49.002l.545.49c-1.686 2.56-2.583 5.567-2.58 8.64v15.66H2.098V60.086c0-7.435 5.886-13.515 13.265-13.703 2.15 2.927 5.52 4.69 9.134 4.78 3.614.09 7.066-1.505 9.356-4.322.113-.158.24-.304.381-.436 2.59.155 5.08 1.056 7.175 2.597z" transform="translate(53 5)"/>
            </g>
            <path stroke="#004842" stroke-width="1.3" d="M42.721 47.417c-1.758 2.437-2.874 4.747-3.347 6.93-.473 2.182-.683 8.664-.63 19.445M88.214 48.633c1.282 2.41 2.16 4.706 2.633 6.888.473 2.183.62 8.653.443 19.412" transform="translate(53 5)"/>
        </g>
        <path stroke="#004842" stroke-linecap="round" d="M141.054 73.435L141.054 81.218 133.942 81.218"/>
        <path stroke="#004A42" stroke-linecap="round" d="M68.977 58.546c5.62 2.57 11.483 2.57 17.587 0"/>
    </g>
</svg>
