<svg width="100" height="105" viewBox="0 0 100 105" xmlns="http://www.w3.org/2000/svg">
    <g fill-rule="nonzero" fill="none">
        <path d="M77.679 25.268v32.768l-.023.111a19.647 19.647 0 0 0-2.299-.111c-12.326.004-22.317 9.996-22.32 22.321a21.962 21.962 0 0 0 1.025 6.674l-.044.023H11.183a8.926 8.926 0 0 1-8.928-8.929V25.268h75.424z" fill="#FFF"/>
        <path d="M57.389 8.705h11.384a8.926 8.926 0 0 1 8.928 8.929v7.634H2.255v-7.634a8.926 8.926 0 0 1 8.928-8.929H57.39zM77.62 58.112c11.106 1.145 19.658 10.318 20.022 21.476.365 11.158-7.568 20.87-18.575 22.74-11.006 1.869-21.701-4.68-25.04-15.333A21.964 21.964 0 0 1 53 80.321C53.004 67.996 62.996 58.004 75.321 58c.782 0 1.541.044 2.3.112z" fill="#E3EDC3"/>
        <g fill="#274642">
            <path d="M20.447 51.139h34.598a2.233 2.233 0 0 0 0-4.465H20.447a2.232 2.232 0 1 0 0 4.465zM41.16 61.183H20.447a2.232 2.232 0 1 0 0 4.465H41.16a2.233 2.233 0 0 0 0-4.465z"/>
            <path d="M79.91 56.227V17.634c-.001-6.163-4.997-11.158-11.16-11.16h-9.152V2.231a2.232 2.232 0 1 0-4.464 0v4.241H24.777v-4.24a2.232 2.232 0 1 0-4.465 0v4.24h-9.151C4.998 6.476.003 11.471 0 17.633v60.492c.003 6.163 4.998 11.158 11.16 11.16h41.318a24.97 24.97 0 0 0 8.192 10.76 24.267 24.267 0 0 0 14.665 4.866 24.541 24.541 0 0 0 18.17-41.049 24.148 24.148 0 0 0-13.594-7.635zm-68.727-45.29h9.152v4.264a2.233 2.233 0 0 0 4.464 0v-4.264h30.358v4.264a2.233 2.233 0 0 0 4.464 0v-4.264h9.152a6.717 6.717 0 0 1 6.696 6.697v5.402H4.487v-5.402a6.716 6.716 0 0 1 6.696-6.697zM4.487 78.126V27.5h70.96v28.304h-.068A24.59 24.59 0 0 0 51.228 84.82H11.183a6.716 6.716 0 0 1-6.696-6.696zm70.892 22.321a20.041 20.041 0 0 1-12.009-3.973 20.083 20.083 0 0 1 12.01-36.182c.692 0 1.383.044 2.075.111 10.641 1.087 18.561 10.327 18.007 21.01-.553 10.681-9.386 19.054-20.083 19.034z"/>
            <path d="M75.2 69a2.2 2.2 0 1 1 0 4.4 2.2 2.2 0 0 1 0-4.4zm0 8.8a2.2 2.2 0 0 1 2.2 2.2v8.8a2.2 2.2 0 0 1-4.4 0V80a2.2 2.2 0 0 1 2.2-2.2z"/>
        </g>
    </g>
</svg>
