<svg width="36" height="24" viewBox="0 0 36 24" fill="none" xmlns="http://www.w3.org/2000/svg">
<path fill-rule="evenodd" clip-rule="evenodd" d="M0.918316 0.118164H34.7533C35.2611 0.118164 35.6716 0.529322 35.6716 1.03648V22.3175C35.6716 22.8247 35.2611 23.2358 34.7533 23.2358H0.918316C0.410526 23.2358 0 22.8247 0 22.3175V1.03648C0 0.529322 0.410526 0.118164 0.918316 0.118164ZM6.56905 7.10406H2.76189L2.73032 7.28469C5.69305 8.00216 7.65347 9.73522 8.46695 11.8182L7.63895 7.83606C7.49621 7.28722 7.08253 7.12364 6.56905 7.10406ZM7.36863 16.1862L5.16947 8.6729C6.75032 9.68469 8.09684 11.2902 8.57116 12.4074L8.82758 13.3352L11.2326 7.19059H13.8347L9.96758 16.1843L7.36863 16.1862ZM13.2916 16.1925H15.7472L17.2838 7.18111H14.8269L13.2916 16.1925ZM20.0204 16.3276C18.9196 16.3163 17.8592 16.0984 17.2844 15.8464L17.6299 13.8297L17.9463 13.9731C18.7528 14.3097 19.2752 14.4462 20.2585 14.4462C20.964 14.4462 21.72 14.1702 21.7269 13.5664C21.7314 13.1716 21.4105 12.89 20.4543 12.4478C19.5221 12.0171 18.288 11.2946 18.3032 10.0005C18.3164 8.24911 20.0267 7.02701 22.4539 7.02701C23.4051 7.02701 24.1674 7.2228 24.6537 7.40532L24.3221 9.3588L24.1004 9.25459C23.6482 9.07269 23.0665 8.89711 22.2625 8.90974C21.3013 8.90974 20.8554 9.31016 20.8554 9.68469C20.8503 10.1066 21.3758 10.3845 22.2347 10.8026C23.6514 11.4455 24.3063 12.2255 24.2975 13.2506C24.2785 15.1201 22.6029 16.3276 20.0204 16.3276ZM30.3638 14.846C30.4383 15.1605 30.6625 16.1963 30.6625 16.1963L32.9413 16.1956L30.9537 7.19059H29.0564C28.4678 7.19059 28.0288 7.35164 27.7699 7.93837L24.1238 16.1963H26.7025C26.7025 16.1963 27.1232 15.0853 27.2185 14.8422C27.351 14.8422 27.9754 14.843 28.6369 14.8439C29.3821 14.8449 30.1744 14.846 30.3638 14.846Z" fill="#006CBA"/>
</svg>
