<svg width="42" height="42" viewBox="0 0 42 42" fill="none" xmlns="http://www.w3.org/2000/svg">
<circle cx="16.4062" cy="13.7812" r="7.21875" fill="#A9CF3D"/>
<path fill-rule="evenodd" clip-rule="evenodd" d="M39.2048 24.4079L36.6036 18.1362C36.2359 17.2494 35.3778 16.6763 34.4177 16.6763H29.5095C29.3277 16.6763 29.1519 16.7012 28.9831 16.7437V13.6499C28.9831 13.196 28.6151 12.8281 28.1613 12.8281H25.2525C25.2706 13.057 25.2823 13.2876 25.2823 13.5212C25.2823 13.8424 25.2638 14.1594 25.2299 14.4716H27.3393V18.8462V31.1255H15.474C14.8851 29.8675 13.6107 28.9919 12.1325 28.9919C10.6542 28.9919 9.37957 29.8675 8.79072 31.1255H5.68259V14.4716H7.7917C7.75789 14.1591 7.73934 13.8424 7.73934 13.5212C7.73934 13.2878 7.75131 13.057 7.76916 12.8281H4.86082C4.40698 12.8281 4.03906 13.196 4.03906 13.6499V31.9472C4.03906 32.4011 4.40698 32.769 4.86082 32.769H8.44558C8.49184 34.7645 10.1262 36.3744 12.1325 36.3744C14.1387 36.3744 15.7731 34.7645 15.8194 32.769H28.1613H29.1267C29.173 34.7645 30.8074 36.3744 32.8136 36.3744C34.8199 36.3744 36.4543 34.7645 36.5005 32.769H36.9011C38.2058 32.769 39.2673 31.7075 39.2673 30.4028V24.7228C39.2673 24.6148 39.2459 24.5077 39.2048 24.4079ZM12.1322 34.7311C11.0031 34.7311 10.0844 33.8126 10.0844 32.6833C10.0844 31.554 11.0031 30.6355 12.1322 30.6355C13.2613 30.6355 14.1798 31.554 14.1798 32.6833C14.1798 33.8126 13.2616 34.7311 12.1322 34.7311ZM37.3124 24.1358H31.9466V21.5881C31.9466 20.7959 32.5908 20.1517 33.3828 20.1517H35.6598L37.3124 24.1358ZM32.8136 34.7311C31.6843 34.7311 30.7658 33.8126 30.7658 32.6833C30.7658 31.554 31.6843 30.6355 32.8136 30.6355C33.943 30.6355 34.8615 31.554 34.8615 32.6833C34.8615 33.8126 33.943 34.7311 32.8136 34.7311ZM37.6238 28.4747H37.1497C37.0016 28.4747 36.8809 28.354 36.8809 28.2056V27.4571C36.8809 27.3087 37.0016 27.1881 37.1497 27.1881H37.6238V28.4747ZM37.6238 26.0144H37.1497C36.3543 26.0144 35.7069 26.6617 35.7069 27.4574V28.2059C35.7069 29.0016 36.3543 29.6489 37.1497 29.6489H37.6238V30.403C37.6238 30.8015 37.2995 31.1257 36.9011 31.1257H36.1554C35.5665 29.8677 34.2919 28.9922 32.8136 28.9922C31.3354 28.9922 30.0607 29.8677 29.4719 31.1257H28.9828V18.8462C28.9828 18.556 29.219 18.3198 29.5092 18.3198H34.4175C34.7107 18.3198 34.9728 18.4948 35.085 18.7657L35.173 18.9777H33.3828C31.9435 18.9777 30.7726 20.1488 30.7726 21.5881V24.7228C30.7726 25.047 31.0353 25.3097 31.3596 25.3097H37.6238V26.0144Z" fill="#8CAEB4"/>
<path fill-rule="evenodd" clip-rule="evenodd" d="M16.5126 21.7054C21.0258 21.7054 24.6972 18.0336 24.6972 13.5207C24.6972 9.0078 21.0258 5.33594 16.5126 5.33594C11.9995 5.33594 8.32812 9.00757 8.32812 13.5207C8.32812 18.0338 11.9998 21.7054 16.5126 21.7054ZM16.5126 6.97946C20.1195 6.97946 23.0536 9.91386 23.0536 13.5205C23.0536 17.127 20.1192 20.0617 16.5126 20.0617C12.906 20.0617 9.97165 17.1273 9.97165 13.5205C9.97165 9.91362 12.906 6.97946 16.5126 6.97946Z" fill="#A9CF3D"/>
<path fill-rule="evenodd" clip-rule="evenodd" d="M12.7839 14.4676L15.2751 16.4677C15.4265 16.5891 15.6082 16.6488 15.789 16.6488C16.0139 16.6488 16.2375 16.557 16.399 16.3781L20.3364 12.0211C20.6407 11.6844 20.6144 11.1648 20.2777 10.8605C19.941 10.5562 19.4217 10.5825 19.1171 10.9192L15.6993 14.7007L13.8128 13.1861C13.4587 12.902 12.9412 12.9588 12.6576 13.3124C12.3733 13.6662 12.4301 14.1835 12.7839 14.4676Z" fill="white"/>
</svg>
