<svg xmlns="http://www.w3.org/2000/svg" width="18" height="33" viewBox="0 0 18 33">
    <g fill="none" fill-rule="evenodd">
        <g fill="#587E85" fill-rule="nonzero">
            <g>
                <g>
                    <g>
                        <g>
                            <path d="M-.603-.43c-.545.632-.53 1.586.057 2.202L12.449 15.36-.545 28.946c-.625.656-.603 1.692.05 2.318.309.296.716.456 1.135.456.443 0 .87-.179 1.183-.505l14.082-14.722c.606-.634.606-1.632 0-2.266L1.826-.494c-.63-.653-1.667-.678-2.32-.05l-.108.114z" transform="translate(-233 -4225) translate(0 2951) translate(0 918) translate(234 215) matrix(-1 0 0 1 16 142)"/>
                        </g>
                    </g>
                </g>
            </g>
        </g>
    </g>
</svg>
