<svg xmlns="http://www.w3.org/2000/svg" width="33" height="58" viewBox="0 0 33 58">
    <g fill="none" fill-rule="evenodd">
        <g>
            <g>
                <g>
                    <path fill="#111B45" d="M0 0h27c3.314 0 6 2.686 6 6v46c0 3.314-2.686 6-6 6H0V0z" opacity=".5" transform="translate(-287 -213) translate(0 112) matrix(-1 0 0 1 320 101)"/>
                    <path fill="#FFF" fill-rule="nonzero" d="M19.293 21.293c.39-.39 1.024-.39 1.414 0 .36.36.388.928.083 1.32l-.083.094L14.415 29l6.292 6.293c.36.36.388.928.083 1.32l-.083.094c-.36.36-.928.388-1.32.083l-.094-.083-7-7c-.36-.36-.388-.928-.083-1.32l.083-.094 7-7z" transform="translate(-287 -213) translate(0 112) matrix(-1 0 0 1 320 101)"/>
                </g>
            </g>
        </g>
    </g>
</svg>
