<?xml version="1.0" encoding="UTF-8"?>
<svg width="84px" height="84px" viewBox="0 0 84 84" version="1.1" xmlns="http://www.w3.org/2000/svg" xmlns:xlink="http://www.w3.org/1999/xlink">
    <!-- Generator: Sketch 63.1 (92452) - https://sketch.com -->
    <title>Icon/Menu/Staff Members</title>
    <desc>Created with Sketch.</desc>
    <g id="Icon/Menu/Staff-Members" stroke="none" stroke-width="1" fill="none" fill-rule="evenodd">
        <g id="Icon/Menu/Preferences">
            <rect id="bound" x="0" y="0" width="84" height="84"></rect>
        </g>
        <g id="Staff-Members" transform="translate(20.000000, 13.000000)" fill-rule="nonzero">
            <g id="Group" transform="translate(5.219072, 0.811856)">
                <path d="M33.108518,20.8049613 C33.6623196,21.3208376 33.9707088,22.0477964 33.9567912,22.8045619 C33.9571392,24.3540464 32.7185954,25.6194974 31.1694588,25.6524356 L31.1694588,19.9566881 C31.8967655,19.997049 32.5852191,20.2982474 33.108518,20.8049613 Z" id="Path" fill="#F6FDE2"></path>
                <path d="M31.6542526,51.5863531 C32.2902835,52.2061469 32.6412371,53.0616108 32.6237242,53.949549 C32.6272036,54.8347036 32.2784536,55.6849485 31.6542526,56.3127448 C31.0008247,56.9350902 30.132951,57.2822165 29.2305155,57.2822165 C27.3732216,57.0323969 26.0701933,55.3241366 26.3200129,53.4668428 C26.5237887,51.9518041 27.7154768,50.760116 29.2305155,50.5563402 C30.1401418,50.5787242 31.0068557,50.9470747 31.6542526,51.5863531 Z" id="Path" fill="#E3EDC3"></path>
                <path d="M31.2302452,7.59560567 L31.2302452,16.5028222 C20.9292912,21.6532345 14.74875,12.0794845 14.74875,12.0794845 C8.20472938,11.3524098 2.8119201,17.1693557 2.8119201,17.1693557 L2.8119201,11.4736082 L2.75137764,11.4736082 L2.75137764,7.59560567 C2.74975515,5.18613402 4.36418814,3.07496134 6.68992268,2.4451933 L15.1730026,0.32439433 C16.3454381,0.0216881443 17.5755155,0.0216881443 18.748067,0.32439433 L27.2916881,2.50573454 C29.6204381,3.09212629 31.246933,5.1941366 31.2302452,7.59560567 Z" id="Path" fill="#E3EDC3"></path>
                <path d="M2.81184937,25.6524356 L2.81184937,17.1693557 C2.81184937,17.1693557 8.20472938,11.3524098 14.74875,12.0794845 C14.74875,12.0794845 20.9292912,21.6532345 31.1695831,16.5028222 L31.1695831,25.6524356 L31.1695831,25.6524356 C31.173634,29.4168943 29.6930412,33.0311598 27.0491753,35.7109794 C25.6054639,37.1378737 23.8687887,38.2336469 21.9593041,38.9224485 C20.3757216,39.5378351 18.6894974,39.8463402 16.9906314,39.8313789 C15.4658505,39.8414691 13.950232,39.5957088 12.5067526,39.1043041 C6.70511598,37.1900644 2.79266753,31.7616495 2.81184937,25.6524356 Z" id="Path" fill="#FFFFFF"></path>
                <g transform="translate(0.000000, 19.948454)" id="Path">
                    <path d="M22.0805026,22.6700258 L22.0805026,22.7912242 L17.2936856,27.6386985 L12.4462113,22.7912242 L12.4462113,19.1556186 C13.8896907,19.6470232 15.4053093,19.8927835 16.9300902,19.8826933 C18.6289562,19.8976546 20.3151804,19.5892655 21.8987629,18.9737629 L22.0199613,19.3373582 L22.0805026,22.6700258 Z" fill="#E3EDC3"></path>
                    <path d="M2.8119201,0.0081185567 L2.8119201,5.70386598 C1.26278351,5.67092784 0.0242396907,4.4054768 0.0245876289,2.85599227 C0.0106701031,2.0992268 0.319175258,1.37226804 0.872860825,0.856391753 C1.39615979,0.349793814 2.0846134,0.0485953608 2.8119201,0.0081185567 Z" fill="#F6FDE2"></path>
                </g>
            </g>
            <g id="Group" fill="#274642">
                <path d="M20.5178675,0.291842575 C21.5680405,0.100224965 22.647451,0.102365681 23.7004353,0.299589614 L23.7004353,0.299589614 L24.0574521,0.374154053 L32.5339444,2.55404945 L32.76454,2.61912309 C35.2010557,3.3605404 36.8865824,5.60317119 36.9081294,8.16236853 L36.9081294,8.16236853 L36.9051911,8.40566914 L36.9051804,19.9808119 L37.0276269,20.1282595 L37.2578475,20.1787443 C37.8662573,20.3321591 38.4284224,20.6348042 38.8927126,21.0608086 C39.3600148,21.5588444 39.6819151,22.1890473 39.8131712,22.8705092 C40.1962403,24.8593931 38.8944968,26.7822025 36.9056126,27.1652716 L36.9056126,27.1652716 L36.7840864,27.306967 L36.764152,27.6984757 C36.5372899,31.2149842 35.032636,34.5328331 32.5261393,37.0222841 L32.5261393,37.0222841 L32.2198947,37.3324266 C31.0801582,38.4508794 29.756893,39.362044 28.3063917,40.0268516 L28.3063917,40.0268516 L27.9057703,40.2028512 L27.8161082,40.3401804 L27.8161082,42.8244588 L27.9661161,42.9744588 L34.3591895,42.9741253 L34.6751416,42.9760845 C40.1478871,43.0926854 44.5996969,47.4753082 44.7770737,52.9675232 L44.7770737,52.9675232 L44.7824111,53.2493295 L44.7824111,56.2760954 L44.7754553,56.3790715 C44.7251976,56.7494873 44.4076433,57.0350258 44.0234536,57.0350258 C43.6373143,57.0350258 43.313802,56.7449885 43.2696368,56.3647825 L43.2696368,56.3647825 L43.2642742,56.2674554 L43.2645232,53.246482 L43.2604468,52.986671 C43.1276093,48.7564718 39.7641066,45.1973294 35.5075217,44.5864471 L35.5075217,44.5864471 L35.0874356,44.5322864 L35.0874356,50.5198067 L35.2374356,50.6698067 L35.2979768,50.6698067 L35.5493828,50.7322379 C36.1332783,50.8968579 36.6952802,51.1930709 37.1752618,51.5990593 L37.1752618,51.5990593 L37.3789324,51.7825923 L37.4598876,51.8638366 L37.6095388,52.0264969 C39.0050572,53.6283012 38.918664,56.0630045 37.3748182,57.5622092 L37.3748182,57.5622092 L37.2187142,57.71858 C36.4723686,58.4255506 35.4809321,58.8118545 34.4525617,58.7922566 C33.3485252,58.7991647 32.2932832,58.3559566 31.5278498,57.5654746 C30.9710217,57.0129841 30.5855063,56.3154192 30.4147892,55.5531214 C29.9374778,53.4223558 31.2183661,51.294757 33.3147301,50.7157323 L33.3147301,50.7157323 L33.4538824,50.5258769 L33.480232,50.5198067 L33.4578824,50.5188769 L33.569,50.369 L33.5696907,44.6422036 L33.4196907,44.4922036 L27.7239433,44.4922036 L27.6215438,44.5325936 L23.0164665,48.8347328 L22.968866,48.9443428 L22.968866,56.2760954 L22.9619373,56.3790715 C22.9116795,56.7494873 22.5941253,57.0350258 22.2099356,57.0350258 C21.8237963,57.0350258 21.500284,56.7449885 21.4561187,56.3647825 L21.4561187,56.3647825 L21.4507561,56.2674554 L21.4510052,48.9443428 L21.4108687,48.8422154 L17.4116676,44.5400762 L17.3018041,44.4922036 L12.211933,44.4922036 L12.061933,44.6422036 L12.061933,46.3994072 L12.1854781,46.5470559 L12.4092952,46.5924015 C14.6275376,47.0943723 16.2375022,49.0395456 16.3020452,51.3255568 L16.3020452,51.3255568 L16.3034149,57.6697036 L16.2978656,57.7907183 C16.2647842,58.1420331 16.0857386,58.3842756 15.8129662,58.4227399 L15.8129662,58.4227399 L15.7160961,58.4289842 L13.545,58.428634 L13.4420239,58.4217053 C13.071608,58.3714476 12.7860696,58.0538933 12.7860696,57.6697036 C12.7860696,57.2835643 13.0761068,56.960052 13.4563128,56.9158868 L13.4563128,56.9158868 L13.55364,56.9105242 L14.6356701,56.9107732 L14.7856701,56.7607732 L14.7856701,51.5497036 L14.7806844,51.3628047 L14.7653236,51.1733116 C14.5753255,49.4186971 13.0914286,48.0670361 11.3030026,48.0670361 C9.45070419,48.0670361 7.92507543,49.5169684 7.82548509,51.3587493 L7.82548509,51.3587493 L7.82038957,51.5456599 L7.82033505,56.7607732 L7.97033505,56.9107732 L8.75806701,56.9107732 L8.86104314,56.9177019 C9.23145897,56.9679596 9.51699742,57.2855139 9.51699742,57.6697036 C9.51699742,58.0558429 9.22696019,58.3793552 8.8467542,58.4235204 L8.8467542,58.4235204 L8.74942702,58.4288831 L7.0008634,58.428634 L6.89616404,58.4138258 C6.58868873,58.3472476 6.34599366,58.08613 6.3078102,57.7612107 L6.3078102,57.7612107 L6.30234467,57.6611245 L6.30259021,51.5498196 L6.3063287,51.3220955 C6.39416477,49.0552757 7.98580505,47.1132625 10.2055539,46.5926303 L10.2055539,46.5926303 L10.4251548,46.5461514 L10.5440722,46.3994072 L10.5440722,44.6422036 L10.3909279,44.4922366 L10.1321933,44.5014004 C5.57805396,44.7287039 1.93255709,48.4066135 1.76667451,52.9813102 L1.76667451,52.9813102 L1.76102692,53.2432581 L1.76099227,56.2760954 L1.75406356,56.3790715 C1.70380583,56.7494873 1.38625157,57.0350258 1.00206186,57.0350258 C0.615922591,57.0350258 0.292410267,56.7449885 0.248245022,56.3647825 L0.248245022,56.3647825 L0.242882405,56.2674554 L0.243711338,53.185041 L0.25083036,52.9012266 C0.462020534,47.4326792 4.92098183,43.0573239 10.4154109,42.9749232 L10.4154109,42.9749232 L16.4534269,42.9744588 L16.6034149,42.8244588 L16.6034149,40.5219201 L16.5097712,40.3829094 L16.1947033,40.2509531 C10.9781519,37.9954925 7.50067513,32.9448824 7.27194118,27.2460075 L7.27194118,27.2460075 L7.1549894,27.1056819 L6.97088048,27.0589158 C5.45545703,26.6292854 4.41878899,25.2126874 4.48460106,23.6226206 L4.48460106,23.6226206 L4.49023401,23.4006895 C4.53955266,22.5168443 4.90850176,21.6838341 5.53184816,21.0559655 C5.94133959,20.6622161 6.43882281,20.3661945 6.98304048,20.1929746 L6.98304048,20.1929746 L7.22338192,20.1251624 L7.33259504,19.9792574 L7.21139658,8.28470842 L7.21023276,8.04302011 C7.25099938,5.47472835 8.98379499,3.23031263 11.4721623,2.55157538 L11.4721623,2.55157538 L20.1255319,0.372779013 Z M34.4550371,52.1269934 L34.3848263,52.1277449 C32.9634606,52.1633464 31.8403059,53.344089 31.8758975,54.7650446 C31.909714,56.1700924 33.0407839,57.3011622 34.4459785,57.3349823 C35.1491541,57.3426533 35.823181,57.0637806 36.3139319,56.5629314 C36.8082946,56.0992344 37.0890498,55.4441172 37.0838617,54.7601509 C37.0589325,54.0659791 36.7866165,53.4079009 36.3166932,52.901999 C35.8030945,52.4243704 35.1450757,52.152079 34.4550371,52.1269934 L34.4550371,52.1269934 Z M26.2983634,40.8103659 L26.1089239,40.8619917 L25.6010215,40.9911367 C24.4114571,41.2720908 23.1919207,41.4101929 21.9684207,41.4020523 C20.8881079,41.4127011 19.8122257,41.3060976 18.7572479,41.0842313 L18.7572479,41.0842313 L18.1212758,40.9401268 L18.1212758,42.885116 L22.4059321,47.2318988 L22.6196959,47.2317845 L26.2553016,43.5356376 L26.2983634,43.430451 L26.2983634,40.8103659 Z M18.7171785,13.5713234 C15.1517822,13.6061265 11.7191565,15.5358394 9.0439785,18.0336041 L9.0439785,18.0336041 L8.95817093,18.114406 L8.91102137,18.2258141 L9.03221983,26.4664971 L9.03219858,26.7850735 C9.0987072,32.4016924 12.6988047,37.3894422 18.0410433,39.2096394 C20.913449,40.1909675 24.0401496,40.125842 26.8692602,39.0257171 C31.9700837,37.0991885 35.3556041,32.2288069 35.3891925,26.7821556 L35.3891925,26.7821556 L35.387317,26.4634035 L35.3873196,18.6126774 L35.1844344,18.6891166 L34.727363,18.8523533 C33.348715,19.3179936 31.9050805,19.5666419 30.4482593,19.5884317 C25.7296565,19.5884149 21.9559225,16.9147356 19.5431106,13.6505668 L19.5431106,13.6505668 L19.431843,13.5900214 L19.0741376,13.5742086 Z M30.6927835,21.3425644 C31.1118996,21.3425644 31.4517139,21.6823788 31.4517139,22.1014948 L31.4517139,22.1014948 L31.4517139,22.7073711 L31.4466759,22.8879825 C31.3530507,24.5617671 29.9662238,25.8900387 28.2690464,25.8900387 C27.4262786,25.881172 26.6175013,25.5493704 26.010058,24.9626744 C25.4372898,24.353193 25.1065565,23.547045 25.0863358,22.7037753 L25.0863358,22.7037753 L25.0863358,22.1014948 L25.0933076,21.9985187 C25.1435653,21.6281029 25.4611196,21.3425644 25.8453093,21.3425644 C26.2644253,21.3425644 26.6042397,21.6823788 26.6042397,22.1014948 L26.6042397,22.1014948 L26.6042397,22.7073711 L26.6226812,22.8939312 C26.6760471,23.2631566 26.827501,23.6071922 27.0624651,23.8932494 C27.4109295,24.1959408 27.828701,24.3583801 28.2643233,24.3721035 C29.1885261,24.3721778 29.9338531,23.6268114 29.9338531,22.7073711 L29.9338531,22.7073711 L29.9338531,22.1014948 L29.9407818,21.9985187 C29.9910395,21.6281029 30.3085938,21.3425644 30.6927835,21.3425644 Z M18.5742139,21.3425644 C18.99333,21.3425644 19.3331443,21.6823788 19.3331443,22.1014948 L19.3331443,22.1014948 L19.3331443,22.7073711 L19.3280952,22.8879822 C19.2343703,24.5617637 17.8475438,25.8900387 16.1504768,25.8900387 C15.3077806,25.8811715 14.4988997,25.5493395 13.8914884,24.9626744 C13.3187202,24.353193 12.9879869,23.547045 12.9677662,22.7037753 L12.9677662,22.7037753 L12.9677662,22.1014948 L12.974738,21.9985187 C13.0249957,21.6281029 13.34255,21.3425644 13.7267397,21.3425644 C14.1458557,21.3425644 14.4856701,21.6823788 14.4856701,22.1014948 L14.4856701,22.1014948 L14.4856701,22.7073711 L14.5041116,22.8939312 C14.5574775,23.2631566 14.7089314,23.6071922 14.9438955,23.8932494 C15.2923599,24.1959408 15.7101314,24.3583801 16.1457537,24.3721035 C17.0699565,24.3721778 17.8152835,23.6268114 17.8152835,22.7073711 L17.8152835,22.7073711 L17.8152835,22.1014948 L17.8222122,21.9985187 C17.8724699,21.6281029 18.1900242,21.3425644 18.5742139,21.3425644 Z M36.9051804,21.672638 L36.9051804,25.656622 L37.1114151,25.5732223 L37.2669407,25.502842 C37.9747103,25.147124 38.4254376,24.4167487 38.4170407,23.6148469 C38.4198023,23.0781538 38.2078988,22.56016 37.8281627,22.1776686 C37.6541464,21.9484725 37.3872651,21.7786671 37.0874011,21.7127154 L37.0874011,21.7127154 L36.9051804,21.672638 Z M7.33271907,21.69277 L7.12390784,21.7817652 L7.00055633,21.8415233 C6.84039551,21.9288904 6.69814359,22.0465057 6.58193009,22.1882447 L6.58193009,22.1882447 L6.46447331,22.3174552 C6.16730086,22.6755295 6.00014304,23.1380461 6.00259217,23.6171842 C5.98586994,24.3438167 6.35261265,25.0292894 6.96700468,25.4213599 L6.96700468,25.4213599 L7.33271907,25.6346848 L7.33271907,21.69277 Z M23.1229037,1.70569079 C22.3710423,1.58864107 21.6023907,1.60788969 20.854304,1.76419913 L20.854304,1.76419913 L20.5392308,1.83853696 L12.1146485,3.95986274 L11.9050426,4.02362995 C10.1775608,4.59375487 8.93838931,6.12318023 8.74732999,7.93794681 L8.74732999,7.93794681 L8.72976174,8.15287283 L8.85507938,16.1698417 L9.41861974,15.7202272 C12.6729059,13.1860036 16.2672802,11.6993348 20.0110539,12.1313052 L20.0110539,12.1313052 L20.1243181,12.1440317 C20.3083871,12.1789317 20.4670249,12.281023 20.5716093,12.4314973 C20.8157964,12.7977112 21.1647441,13.2578156 21.6799419,13.8262213 C22.5031207,14.7344151 23.458484,15.572685 24.5415797,16.2675468 C27.595444,18.2267582 31.0884911,18.7086214 34.9578545,17.1122686 L34.9578545,17.1122686 L35.2961528,16.9676992 L35.3872036,16.829768 L35.3872036,8.40734536 L35.3892543,8.19800005 C35.3629668,6.32134547 34.1363057,4.65676493 32.3342893,4.08202803 L32.3342893,4.08202803 L32.1284328,4.02187537 L23.7623733,1.83938052 L23.4439932,1.76419753 Z M22.2098196,4.43706186 C22.5959589,4.43706186 22.9194712,4.72709909 22.9636364,5.10730508 L22.9636364,5.10730508 L22.968999,5.20463226 L22.96875,7.07439433 L23.11875,7.22439433 L24.9364948,7.22439433 L25.0394769,7.23132129 C25.4099104,7.28156652 25.6954253,7.59904475 25.6954253,7.98320876 C25.6954253,8.36934803 25.405388,8.69286035 25.025182,8.7370256 L25.025182,8.7370256 L24.9278549,8.74238821 L23.11875,8.74213918 L22.96875,8.89213918 L22.96875,10.6494588 L22.9618213,10.7524349 C22.9115636,11.1228507 22.5940093,11.4083892 22.2098196,11.4083892 C21.8236803,11.4083892 21.500168,11.1183519 21.4560028,10.7381459 L21.4560028,10.7381459 L21.4506401,10.6408188 L21.4508892,8.89225515 L21.3008892,8.74225515 L19.4831443,8.74225515 L19.3801682,8.73532645 C19.0097524,8.68506872 18.7242139,8.36751446 18.7242139,7.98332474 C18.7242139,7.59718548 19.0142512,7.27367315 19.3944571,7.22950791 L19.3944571,7.22950791 L19.4917843,7.22414529 L21.3008892,7.22439433 L21.4508892,7.07439433 L21.4508892,5.19599227 L21.4578179,5.09301613 C21.5080756,4.72260031 21.8256299,4.43706186 22.2098196,4.43706186 Z" id="Combined-Shape"></path>
            </g>
        </g>
    </g>
</svg>