<?xml version="1.0" encoding="UTF-8"?>
<svg width="32px" height="32px" viewBox="0 0 32 32" version="1.1" xmlns="http://www.w3.org/2000/svg" xmlns:xlink="http://www.w3.org/1999/xlink">
    <!-- Generator: sketchtool 63.1 (101010) - https://sketch.com -->
    <title>0F9A7D6E-88FB-437E-87E6-6214193C2AF2</title>
    <desc>Created with sketchtool.</desc>
    <g id="Page-1" stroke="none" stroke-width="1" fill="none" fill-rule="evenodd">
        <g id="200617_staff_listing" transform="translate(-379.000000, -366.000000)">
            <g id="Group-10" transform="translate(230.000000, 271.000000)">
                <g id="star" transform="translate(151.000000, 97.000000)">
                    <circle id="Oval" stroke="#FFFFFF" stroke-width="3.03333333" fill="#587E85" fill-rule="nonzero" cx="14" cy="14" r="14"></circle>
                    <path d="M14.0002928,6.06666667 C14.4701803,6.06666667 14.8961321,6.32967042 15.1148715,6.7915243 L15.1148715,6.7915243 L16.4934348,9.70053952 L16.5745701,9.85290292 C16.8381465,10.2949357 17.2790139,10.5981742 17.7826084,10.6741397 L17.7826084,10.6741397 L20.8646223,11.140441 L20.9943582,11.1670995 C21.919732,11.4090046 22.2653556,12.6489881 21.5523671,13.3732586 L21.5523671,13.3732586 L19.3220753,15.6378384 L19.1965403,15.779774 C18.883844,16.1744492 18.7493399,16.6930281 18.8334326,17.2025772 L18.8334326,17.2025772 L19.3593472,20.4005141 L19.3755469,20.5435493 C19.422164,21.2994447 18.8426137,21.9333333 18.1326471,21.9333333 C17.9373892,21.9333333 17.7425064,21.8832751 17.5572591,21.7816237 L17.5572591,21.7816237 L14.8000137,20.2715167 L14.6479738,20.1980377 C14.4416402,20.110617 14.2218303,20.0656167 14.0002928,20.0656167 C13.7226743,20.0656167 13.4484403,20.1358706 13.2001076,20.2713241 L13.2001076,20.2713241 L10.4434657,21.7815474 L10.3027777,21.848135 C10.1604603,21.9051152 10.0137515,21.9333333 9.86712187,21.9333333 C9.11278235,21.9333333 8.5056706,21.2177325 8.64040572,20.4006117 L8.64040572,20.4006117 L9.16716505,17.2025047 L9.18849354,17.0113743 C9.21842389,16.5019023 9.03449284,15.9996493 8.67758656,15.6377298 L8.67758656,15.6377298 L6.4473657,13.3732218 L6.35667828,13.2714216 C5.73911193,12.503521 6.15872385,11.2885069 7.13601226,11.1404336 L7.13601226,11.1404336 L10.218079,10.6741244 L10.3832033,10.6405092 C10.8707387,10.5151468 11.283502,10.1724023 11.5071446,9.70055271 L11.5071446,9.70055271 L12.8848974,6.7915245 L12.9652762,6.64500233 C13.1988957,6.27440117 13.5819645,6.06666667 14.0002928,6.06666667 Z M14.0002928,7.9914818 L12.8543363,10.4104886 L12.7545829,10.6047818 C12.26279,11.4917762 11.408817,12.0986061 10.4317081,12.2462006 L10.4317081,12.2462006 L7.88876095,12.631614 L9.72208742,14.4936387 L9.87881425,14.6644378 C10.5301903,15.4260342 10.818162,16.4592706 10.6511863,17.4746199 L10.6511863,17.4746199 L10.2155393,20.1163379 L12.5059711,18.8621078 L12.7061039,18.7615842 C13.112778,18.5752319 13.5559417,18.47755 14.0002928,18.47755 C14.5179834,18.47755 15.0347657,18.6105534 15.4937326,18.862072 L15.4937326,18.862072 L17.7840341,20.1163379 L17.3493964,17.4746014 L17.3187474,17.2401352 C17.2206051,16.2238706 17.5708171,15.2118548 18.2777142,14.4936055 L18.2777142,14.4936055 L20.1119984,12.6316136 L17.5681625,12.246216 L17.3607924,12.2076054 C16.4026346,11.9952142 15.5841809,11.3361929 15.1463024,10.4106007 L15.1463024,10.4106007 L14.0002928,7.9914818 Z" id="Combined-Shape" fill="#FFFFFF"></path>
                </g>
            </g>
        </g>
    </g>
</svg>