<svg xmlns="http://www.w3.org/2000/svg" width="36" height="36" viewBox="0 0 36 36">
    <g fill="none" fill-rule="evenodd">
        <g fill-rule="nonzero">
            <g>
                <g>
                    <g>
                        <g>
                            <g>
                                <g>
                                    <g>
                                        <g>
                                            <g>
                                                <path fill="#FFF" d="M27.6 27.966c-.001 2.823-2.092 5.209-4.89 5.58h-7.68c.142-3.922.964-7.79 2.43-11.43 1.668-.054 3.337.025 4.992.234 2.912.255 5.147 2.693 5.148 5.616z" transform="translate(-1121 -2248) translate(160 1722) translate(815 99) translate(30 339) translate(0 88) translate(116) translate(.6 .6)"/>
                                                <path fill="#A9CF3D" d="M18.486.96C17.902 1.727 18 2.384 18 3.438c-.174-.178-.377-.327-.6-.438-1.2-.6-1.8 0-3.6 0s-2.4-.6-3.6 0C9 3.6 8.4 5.4 8.4 6.6c-.073 1.021-.275 2.03-.6 3 0 .15 0 .294.006.438-.234-.186-.774-.564-1.206-.396 0 0-.696-5.514.6-7.242C9 0 13.8 0 13.8 0c1.608.026 3.197.352 4.686.96z" transform="translate(-1121 -2248) translate(160 1722) translate(815 99) translate(30 339) translate(0 88) translate(116) translate(.6 .6)"/>
                                                <path fill="#FFF" d="M7.806 10.038C7.392 9.708 6 8.766 6 11.358c0 2.466 1.572 2.934 2.172 3.024l-.366-4.344z" transform="translate(-1121 -2248) translate(160 1722) translate(815 99) translate(30 339) translate(0 88) translate(116) translate(.6 .6)"/>
                                                <path fill="#FCFFF2" d="M17.466 22.116S16.8 24 13.8 24s-3.66-1.884-3.66-1.884c.286-1.13.479-2.282.576-3.444 1.776 1.516 4.392 1.511 6.162-.012.102 1.166.299 2.322.588 3.456z" transform="translate(-1121 -2248) translate(160 1722) translate(815 99) translate(30 339) translate(0 88) translate(116) translate(.6 .6)"/>
                                                <path fill="#FFF" d="M19.374 14.166c-.165.7-.4 1.381-.702 2.034-.852 1.8-2.334 3.6-4.872 3.6-2.55 0-4.032-1.788-4.884-3.6C7.954 14.174 7.8 11.874 7.8 9.6c.325-.97.527-1.979.6-3 0-1.2.6-3 1.8-3.6 1.2-.6 1.8 0 3.6 0s2.4-.6 3.6 0c.223.111.426.26.6.438V12c0 .927.535 1.772 1.374 2.166z" transform="translate(-1121 -2248) translate(160 1722) translate(815 99) translate(30 339) translate(0 88) translate(116) translate(.6 .6)"/>
                                                <path fill="#FFF" d="M34.364 2.559v10.235c0 1.413-1.173 2.065-2.619 2.065-8.325 0-7.773-.052-8.024.122l-2.448 1.708v-1.19c0-.353-.293-.64-.655-.64-1.446 0-2.618-.652-2.618-2.065V2.559C18 1.146 19.172 0 20.618 0h11.127c1.446 0 2.619 1.146 2.619 2.559z" transform="translate(-1121 -2248) translate(160 1722) translate(815 99) translate(30 339) translate(0 88) translate(116) translate(.6 .6)"/>
                                                <path fill="#A9CF3D" d="M29.745 5.907h-1.661V4.23c0-.473-.38-.857-.85-.857h-1.68c-.47 0-.85.384-.85.857v1.676h-1.662c-.47 0-.85.383-.85.857v1.694c0 .474.38.857.85.857h1.662v1.676c0 .473.38.857.85.857h1.68c.47 0 .85-.384.85-.857V9.315h1.661c.47 0 .85-.383.85-.857V6.764c0-.474-.38-.857-.85-.857z" transform="translate(-1121 -2248) translate(160 1722) translate(815 99) translate(30 339) translate(0 88) translate(116) translate(.6 .6)"/>
                                                <path fill="#587E85" d="M29.745 5.205h-.96v-.974c0-.86-.696-1.558-1.551-1.558h-1.68c-.856 0-1.552.699-1.552 1.558v.974h-.96c-.855 0-1.551.7-1.551 1.559v1.694c0 .86.696 1.559 1.551 1.559h.96v.974c0 .86.696 1.558 1.552 1.558h1.68c.855 0 1.551-.699 1.551-1.558v-.974h.96c.856 0 1.552-.7 1.552-1.559V6.764c0-.86-.696-1.559-1.552-1.559zm.15 3.253c0 .086-.068.156-.15.156h-1.661c-.387 0-.701.314-.701.701v1.676c0 .086-.067.156-.15.156h-1.68c-.081 0-.148-.07-.148-.156V9.315c0-.387-.314-.701-.701-.701h-1.662c-.082 0-.148-.07-.148-.156V6.764c0-.086.066-.156.148-.156h1.662c.387 0 .7-.314.7-.701V4.23c0-.086.068-.156.15-.156h1.68c.082 0 .149.07.149.156v1.676c0 .387.314.701.7.701h1.662c.082 0 .15.07.15.156v1.694z" transform="translate(-1121 -2248) translate(160 1722) translate(815 99) translate(30 339) translate(0 88) translate(116) translate(.6 .6)"/>
                                                <path fill="#A9CF3D" d="M17.4 22.26c-1.575 3.994-2.389 8.247-2.4 12.54h-2.4c-.01-4.317-.832-8.593-2.424-12.606 1.094 2.383 6.005 2.44 7.224.066z" transform="translate(-1121 -2248) translate(160 1722) translate(815 99) translate(30 339) translate(0 88) translate(116) translate(.6 .6)"/>
                                                <g fill="#FFF">
                                                    <path d="M10.14.024C8.472-.03 6.803.048 5.148.258 2.286.507.07 2.868.004 5.74c-.066 2.872 2.039 5.333 4.886 5.714.236.746.928 1.253 1.71 1.254h6c-.017-4.345-.852-8.648-2.46-12.684zM20.652.258C17.499-.014 18.1.024 17.46.024c-.687 1.647-1.219 3.354-1.589 5.1-.567 2.488-.86 5.032-.871 7.584h6c.489 0 .957-.198 1.296-.55.34-.352.522-.827.504-1.316 2.209-1.166 3.385-3.648 2.888-6.096-.497-2.448-2.547-4.275-5.036-4.488z" transform="translate(-1121 -2248) translate(160 1722) translate(815 99) translate(30 339) translate(0 88) translate(116) translate(.6 .6) translate(0 22.092)"/>
                                                </g>
                                            </g>
                                            <g fill="#587E85">
                                                <path d="M5.696 22.352c-3.1.269-5.526 2.783-5.685 5.89-.158 3.108 2 5.856 5.057 6.438.405.807 1.23 1.317 2.132 1.32h14.4c.903-.003 1.727-.513 2.132-1.32 3.058-.58 5.219-3.329 5.06-6.438-.158-3.109-2.587-5.623-5.688-5.89-1.513-.202-3.039-.281-4.564-.236-.198-.863-.342-1.738-.431-2.62 1.09-1.098 1.875-2.464 2.275-3.96.202.043.409.064.616.064V18c0 .331.269.6.6.6.27 0 .016.127 4.392-3H33c1.656-.002 2.998-1.344 3-3V3c-.002-1.656-1.344-2.998-3-3H21c-.774.001-1.516.302-2.072.84C17.476.31 15.945.026 14.4 0c-.208 0-5.122.03-7.08 2.64-1.26 1.684-.893 6.034-.752 7.32-.564.566-.568 1.616-.568 2 0 2.63 1.597 3.36 2.405 3.561.394 1.508 1.18 2.883 2.28 3.986-.084.879-.225 1.75-.42 2.611-1.526-.04-3.054.038-4.569.234zM7.2 34.8c-.663 0-1.2-.537-1.2-1.2V30c0-.331-.269-.6-.6-.6-.331 0-.6.269-.6.6v3.384c-2.316-.69-3.815-2.928-3.57-5.332.243-2.404 2.162-4.295 4.57-4.504l2.495-.218c-.695.627-1.256 1.388-1.648 2.237-.065.154-.063.328.006.48.07.153.199.27.357.322.764.278 1.4.826 1.79 1.54-.393.34-.711.756-.937 1.223-.13.26-.055.574.177.748 1.615 1.21 3.262 3.614 4.09 4.92H7.2zm6.588 0c-.072-3.402-.629-6.775-1.652-10.02 1.456.564 3.071.564 4.528 0-1.023 3.245-1.58 6.619-1.652 10.02h-1.224zm-2.413-12.144c.187-.768.33-1.546.428-2.33 1.613.903 3.581.9 5.193-.007.1.786.244 1.566.435 2.335-1.035 1.803-5.022 1.812-6.056.002zm11.624.892c2.409.207 4.33 2.098 4.574 4.503.245 2.405-1.255 4.645-3.573 5.333V30c0-.331-.269-.6-.6-.6-.331 0-.6.269-.6.6v3.6c0 .663-.537 1.2-1.2 1.2h-4.93c.828-1.306 2.475-3.71 4.09-4.92.233-.173.309-.488.18-.748-.226-.468-.546-.885-.94-1.225.389-.715 1.027-1.263 1.793-1.538.158-.052.288-.169.357-.321.069-.153.071-.327.006-.48-.392-.85-.952-1.61-1.646-2.236l2.49.216zm-4.587-.11c.991.412 1.818 1.14 2.353 2.07-.983.558-1.739 1.444-2.134 2.502-.067.178-.043.378.065.535.107.156.285.25.475.252.182.118.334.276.444.463-1.272 1.172-2.394 2.498-3.34 3.946.236-3.342.956-6.632 2.137-9.768zM19.2 3c0-.994.806-1.8 1.8-1.8h12c.994 0 1.8.806 1.8 1.8v9.6c0 .994-.806 1.8-1.8 1.8-7.837 0-7.326-.048-7.549.112L22.2 16.834V15c0-.331-.269-.6-.6-.6H21c-.994 0-1.8-.806-1.8-1.8V3zM7.414 10.8c.145.01.284.062.398.152.008 1.049.093 2.095.255 3.13-1.19-.826-.895-3.073-.653-3.282zM8.4 7.2c-.054.846-.211 1.682-.47 2.49-.062-.022-.125-.04-.189-.054-.172-1.72-.315-5.138.54-6.276C9.877 1.23 14.356 1.2 14.4 1.2c1.302.028 2.592.25 3.827.66-.141.345-.216.714-.222 1.087-.662-.247-1.385-.283-2.068-.102-3.066.524-3.666-.653-5.405.217C9.147 3.755 8.4 5.712 8.4 7.2zm1.658 9.343C9.155 14.643 9 12.42 9 10.295c.333-1.002.534-2.042.6-3.095 0-1.125.59-2.624 1.468-3.063 1.228-.616 1.827.447 5.07-.108.63-.21 1.321-.105 1.86.28V12.6c.002.976.479 1.89 1.278 2.45-.696 2.483-2.259 4.75-4.876 4.75-1.865 0-3.325-1.095-4.342-3.257zm2.465 16.664c-.945-1.45-2.068-2.776-3.34-3.948.106-.18.248-.336.417-.459.193 0 .374-.093.486-.25.113-.156.144-.357.083-.54-.396-1.059-1.152-1.945-2.136-2.502.533-.933 1.362-1.661 2.355-2.07 1.183 3.135 1.902 6.426 2.135 9.769z" transform="translate(-1121 -2248) translate(160 1722) translate(815 99) translate(30 339) translate(0 88) translate(116)"/>
                                            </g>
                                        </g>
                                    </g>
                                </g>
                            </g>
                        </g>
                    </g>
                </g>
            </g>
        </g>
    </g>
</svg>
