<svg width="85" height="84" viewBox="0 0 85 84" fill="none" xmlns="http://www.w3.org/2000/svg">
<path d="M42.0197 61.6976C30.7775 61.6976 21.6719 52.592 21.6719 41.3498C21.6719 30.1076 30.7775 21.002 42.0197 21.002V36.2628C39.2092 36.2628 36.9327 38.5392 36.9327 41.3498C36.9327 44.1603 39.2092 46.4367 42.0197 46.4367C44.8302 46.4367 47.1067 44.1603 47.1067 41.3498H62.3675C62.3675 52.592 53.2619 61.6976 42.0197 61.6976Z" fill="#E3EDC3"/>
<path fill-rule="evenodd" clip-rule="evenodd" d="M42.468 13C26.5883 13 13.668 25.9203 13.668 41.8C13.668 57.6805 26.5879 70.6 42.468 70.6C58.3489 70.6 71.268 57.6809 71.268 41.8C71.268 25.9199 58.3485 13 42.468 13ZM69.6246 41.8001C69.6246 26.8252 57.4425 14.6436 42.468 14.6436C27.4928 14.6436 15.3115 26.8248 15.3115 41.8001C15.3115 56.7745 27.4932 68.9566 42.468 68.9566C57.442 68.9566 69.6246 56.7741 69.6246 41.8001ZM42.4674 20.6304C30.7947 20.6304 21.2979 30.1272 21.2979 41.7999C21.2979 53.4727 30.7947 62.9695 42.4674 62.9695C54.1402 62.9695 63.637 53.4727 63.637 41.7999C63.637 30.1272 54.1402 20.6304 42.4674 20.6304ZM41.6461 35.9309V22.3081L41.1663 22.34L40.8431 22.3641C31.3859 23.1489 23.8204 30.6941 23.032 40.1716L22.9717 40.9785H29.7504L29.8462 40.984C30.2546 41.0315 30.5722 41.3791 30.5722 41.8002C30.5722 42.2241 30.2486 42.5781 29.83 42.6182L29.729 42.6224L22.9757 42.6219L23.0076 43.1017L23.0317 43.4249C23.8165 52.8829 31.3613 60.4476 40.8392 61.236L41.6461 61.2963V54.5176L41.6516 54.4217C41.6991 54.0127 42.0463 53.6958 42.4678 53.6958C42.8922 53.6958 43.2457 54.0187 43.2858 54.4378L43.2901 54.5389L43.2896 61.2923L43.7694 61.2604L44.0925 61.2363C53.5509 60.4515 61.1152 52.9075 61.9036 43.4289L61.9639 42.6219H48.3306L48.2571 42.982L48.2094 43.1959C47.5729 45.8145 45.2096 47.7089 42.4678 47.7089C39.2102 47.7089 36.5591 45.0579 36.5591 41.8002C36.5591 39.0588 38.4526 36.6895 41.0854 36.0555L41.6461 35.9309ZM46.7326 41.7999C46.7326 39.4479 44.8194 37.5347 42.4674 37.5347C40.1154 37.5347 38.2021 39.4479 38.2021 41.7999C38.2021 44.1519 40.1154 46.0651 42.4674 46.0651C44.8194 46.0651 46.7326 44.1519 46.7326 41.7999ZM43.7689 22.34L43.2891 22.3081V35.9374L43.6491 36.0109L43.8786 36.0625C46.0048 36.586 47.6883 38.2667 48.2085 40.4033L48.3371 40.9785H61.9594L61.9276 40.4986L61.9034 40.1751C61.1086 30.5986 53.3891 22.9785 43.7689 22.34Z" fill="#274642"/>
</svg>
