<svg xmlns="http://www.w3.org/2000/svg" width="41" height="31" viewBox="0 0 41 31">
    <g fill="none" fill-rule="evenodd">
        <g>
            <g>
                <g>
                    <g>
                        <g>
                            <g>
                                <g>
                                    <g>
                                        <g>
                                            <g transform="translate(-1004 -2214) translate(375 1810) translate(600 99) translate(29 217) translate(0 88) translate(.701 .78)">
                                                <path fill="#FFF" fill-rule="nonzero" d="M31.117 5.8c-.928-2.697-2.824-4.68-5.202-5.443-3.326-1.067-6.216.602-8.075 1.91-.913.644-2.134.644-3.047 0C12.934.96 10.043-.71 6.718.358 4.34 1.119 2.444 3.103 1.516 5.8c-1.22 3.545.26 7.635 2.508 10.94.848 1.244 3.357 6.462 5.385 10.777.921 1.96 3.805 1.625 4.254-.493l1.834-8.645c.225-.838 1.413-.838 1.638 0l1.834 8.645c.45 2.118 3.333 2.453 4.254.493 2.028-4.315 4.538-9.533 5.385-10.777 2.25-3.305 3.73-7.395 2.509-10.94z"/>
                                                <path stroke="#587E85" stroke-linecap="round" stroke-width="1.6" d="M1.803 4.953C.8 7.451.8 9.948 1.803 12.445"/>
                                                <ellipse cx="30.142" cy="19.183" fill="#FFF" fill-rule="nonzero" rx="9.273" ry="9.347"/>
                                                <path fill="#A9CF3D" fill-rule="nonzero" d="M33.866 17.29H32.02v-1.862c0-.526-.423-.952-.945-.952H29.21c-.522 0-.945.426-.945.952v1.862h-1.846c-.522 0-.944.426-.944.952v1.883c0 .526.422.952.944.952h1.846v1.862c0 .526.423.952.945.952h1.867c.521 0 .944-.426.944-.952v-1.862h1.846c.522 0 .945-.426.945-.952v-1.883c0-.526-.423-.952-.945-.952z"/>
                                            </g>
                                            <g fill="#587E85" fill-rule="nonzero">
                                                <path d="M32.008 10.073c.097-1.33-.055-2.59-.453-3.748-1.009-2.93-3.087-5.093-5.7-5.93-3.634-1.166-6.74.591-8.762 2.015-.643.452-1.507.452-2.15 0C12.92.986 9.814-.77 6.18.394 3.812 1.154 1.9 2.971.797 5.511c-.172.395.01.854.404 1.025.394.172.853-.01 1.025-.404C3.148 4.01 4.721 2.5 6.657 1.878 9.57.944 12.19 2.393 13.94 3.61c.603 1.087 1.578 1.896 2.765 2.288.51.168 1.032.252 1.553.252.76 0 1.515-.178 2.214-.53.384-.193.539-.662.345-1.046-.193-.385-.662-.54-1.046-.346-.806.406-1.72.473-2.577.19-.157-.052-.31-.114-.455-.187.441-.095.868-.277 1.251-.547 1.75-1.231 4.418-2.758 7.388-1.806 2.142.687 3.856 2.493 4.703 4.955.32.927.447 1.942.38 3.023-.205-.013-.41-.02-.618-.02-5.542 0-10.052 4.543-10.052 10.127 0 2.75 1.094 5.247 2.866 7.073l-.437.929c-.334.71-.999.9-1.51.84-.51-.059-1.114-.396-1.277-1.163L17.6 18.996l-.01-.04c-.193-.721-.825-1.206-1.571-1.206-.747 0-1.378.485-1.572 1.206l-.01.04-1.834 8.646c-.162.767-.766 1.104-1.277 1.163-.511.06-1.176-.13-1.51-.84C6.91 21.782 5.079 18.12 4.37 17.08c-1.012-1.488-1.767-2.987-2.245-4.458-.132-.41-.572-.634-.981-.501-.41.133-.634.572-.501.982.523 1.611 1.343 3.244 2.439 4.854.643.944 2.533 4.734 5.323 10.67.512 1.088 1.56 1.746 2.732 1.746.121 0 .244-.007.367-.02 1.318-.153 2.348-1.09 2.623-2.389l1.828-8.62c.007-.02.02-.036.063-.036s.055.015.062.036l1.829 8.62c.275 1.298 1.304 2.236 2.623 2.388 1.318.153 2.534-.525 3.098-1.725l.245-.522c1.67 1.246 3.736 1.983 5.968 1.983 5.543 0 10.052-4.543 10.052-10.126 0-4.836-3.381-8.89-7.887-9.89zM29.843 28.53c-4.683 0-8.493-3.843-8.493-8.567 0-4.725 3.81-8.568 8.493-8.568 4.684 0 8.494 3.843 8.494 8.568 0 4.724-3.81 8.567-8.494 8.567z" transform="translate(-1004 -2214) translate(375 1810) translate(600 99) translate(29 217) translate(0 88) translate(1)"/>
                                                <path d="M33.567 17.29h-1.066v-1.083c0-.955-.774-1.731-1.724-1.731H28.91c-.95 0-1.724.776-1.724 1.731v1.083H26.12c-.95 0-1.723.776-1.723 1.731v1.883c0 .955.773 1.732 1.723 1.732h1.067v1.082c0 .955.774 1.732 1.724 1.732h1.867c.95 0 1.724-.777 1.724-1.732v-1.082h1.066c.95 0 1.724-.777 1.724-1.732v-1.883c0-.955-.773-1.731-1.724-1.731zm.166 3.614c0 .096-.075.173-.166.173h-1.846c-.43 0-.779.349-.779.78v1.861c0 .096-.074.173-.165.173H28.91c-.091 0-.165-.077-.165-.173v-1.862c0-.43-.35-.779-.78-.779H26.12c-.09 0-.165-.077-.165-.173v-1.883c0-.095.074-.173.165-.173h1.846c.43 0 .78-.349.78-.78v-1.861c0-.095.074-.173.165-.173h1.867c.09 0 .165.078.165.173v1.862c0 .43.349.78.78.78h1.845c.091 0 .166.077.166.172v1.883z" transform="translate(-1004 -2214) translate(375 1810) translate(600 99) translate(29 217) translate(0 88) translate(1)"/>
                                            </g>
                                        </g>
                                    </g>
                                </g>
                            </g>
                        </g>
                    </g>
                </g>
            </g>
        </g>
    </g>
</svg>
