<svg width="32" height="37" viewBox="0 0 32 37" fill="none" xmlns="http://www.w3.org/2000/svg">
<path fill-rule="evenodd" clip-rule="evenodd" d="M14.524 1.3209C15.4122 0.809701 16.5053 0.809701 17.3934 1.3209L30.2327 8.7336C31.1198 9.2478 31.6663 10.1951 31.6674 11.2204V26.0459C31.6664 27.0712 31.1199 28.0186 30.2327 28.5327L17.3934 35.9454C16.972 36.187 16.4961 36.3175 16.0104 36.3246L15.985 36.3273L15.9582 36.3299C15.9405 36.3299 15.9243 36.3246 15.9071 36.3246C15.4214 36.3175 14.9454 36.187 14.524 35.9454L1.68472 28.5327C0.797567 28.0186 0.251016 27.0712 0.25 26.0459V11.2204L0.259846 10.9854C0.33721 10.0519 0.865876 9.20825 1.68472 8.7336L14.524 1.3209ZM29.7516 11.7752L23.7736 15.2267L16.9152 19.185V34.0104L17.5 33.672L18.3499 33.1817L18.3505 33.1815L29.2762 26.8746C29.5709 26.7022 29.752 26.3868 29.7516 26.0459V11.7752ZM2.16582 11.7752V26.0459C2.16541 26.3868 2.34652 26.7022 2.64119 26.8737V26.8746L13.5655 33.1815L13.5675 33.1817L14.416 33.672L15.0022 34.0109V19.185L14.458 18.8715L8.14381 15.2267L2.16582 11.7752ZM25.1194 17.121C25.5635 16.8656 26.11 16.8656 26.5541 17.121C26.9972 17.3779 27.2703 17.8512 27.271 18.3634V21.1152C27.2704 21.6279 26.9972 22.1015 26.5536 22.3586L22.1007 24.9296C21.6567 25.186 21.1096 25.1859 20.6656 24.9294C20.2217 24.6729 19.9483 24.199 19.9487 23.6862V20.9344C19.9492 20.4218 20.2225 19.9481 20.666 19.691L25.1194 17.121ZM25.3585 19.1917L21.8621 21.2094V22.8565L25.3585 20.8378V19.1917ZM8.55127 6.9799L3.11896 10.1157L15.9587 17.5284L21.3901 14.3926L8.55127 6.9799ZM16.437 2.97943C16.141 2.80857 15.7764 2.80857 15.4805 2.97943L10.4642 5.87612L23.3035 13.2888L28.7985 10.1162L16.437 2.97943Z" fill="#8CAEB4"/>
</svg>
