<svg xmlns="http://www.w3.org/2000/svg" width="37" height="37" viewBox="0 0 37 37">
    <g fill="none" fill-rule="evenodd">
        <g fill-rule="nonzero">
            <g>
                <g>
                    <g>
                        <g>
                            <g>
                                <g>
                                    <path fill="#E4F2F9" d="M2.467 0.617L34.533 0.617 34.533 21.583 2.467 21.583z" transform="translate(-1121 -2379) translate(160 1722) translate(815 99) translate(30 339) translate(116 219)"/>
                                    <path fill="#A9CF3D" d="M3.083 21.583h30.834c1.362 0 2.466 1.105 2.466 2.467v12.333H.617V24.05c0-1.362 1.104-2.467 2.466-2.467z" transform="translate(-1121 -2379) translate(160 1722) translate(815 99) translate(30 339) translate(116 219)"/>
                                    <path fill="#FFF" d="M24.05 6.167c0 3.065-2.485 5.55-5.55 5.55s-5.55-2.485-5.55-5.55c0-3.066 2.485-5.55 5.55-5.55s5.55 2.484 5.55 5.55z" transform="translate(-1121 -2379) translate(160 1722) translate(815 99) translate(30 339) translate(116 219)"/>
                                    <path fill="#A9CF3D" d="M16.65 11.717h3.7c2.725 0 4.933 2.208 4.933 4.933v4.933H11.717V16.65c0-2.725 2.208-4.933 4.933-4.933z" transform="translate(-1121 -2379) translate(160 1722) translate(815 99) translate(30 339) translate(116 219)"/>
                                    <path fill="#E9EEDA" d="M16.65 11.717v9.866h-4.933V16.65c0-2.725 2.208-4.933 4.933-4.933zM25.283 21.583H20.35v-9.866c2.725 0 4.933 2.208 4.933 4.933v4.933z" transform="translate(-1121 -2379) translate(160 1722) translate(815 99) translate(30 339) translate(116 219)"/>
                                    <path fill="#CFDFE8" d="M16.65 15.417L20.35 15.417 20.35 21.583 16.65 21.583z" transform="translate(-1121 -2379) translate(160 1722) translate(815 99) translate(30 339) translate(116 219)"/>
                                    <path fill="#C1CFDB" d="M32.683 12.333h-7.4c-.34 0-.616-.276-.616-.616 0-.34.276-.617.616-.617h7.4c.34 0 .617.276.617.617 0 .34-.276.616-.617.616z" transform="translate(-1121 -2379) translate(160 1722) translate(815 99) translate(30 339) translate(116 219)"/>
                                    <g fill="#A9CF3D">
                                        <path d="M0 5.55L2.467 5.55 2.467 8.017 0 8.017zM3.083 0L5.55 0 5.55 2.467 3.083 2.467zM1.85 10.483L4.317 10.483 4.317 12.95 1.85 12.95zM22.817.617L25.283.617 25.283 3.083 22.817 3.083zM1.85 15.417L4.317 15.417 4.317 17.883 1.85 17.883zM22.817 15.417L25.283 15.417 25.283 17.883 22.817 17.883zM22.817 10.483L25.283 10.483 25.283 12.95 22.817 12.95z" transform="translate(-1121 -2379) translate(160 1722) translate(815 99) translate(30 339) translate(116 219) translate(4.933 3.7)"/>
                                    </g>
                                    <path fill="#FFF" d="M19.733 27.75L19.733 25.283 17.267 25.283 17.267 27.75 14.8 27.75 14.8 30.217 17.267 30.217 17.267 32.683 19.733 32.683 19.733 30.217 22.2 30.217 22.2 27.75z" transform="translate(-1121 -2379) translate(160 1722) translate(815 99) translate(30 339) translate(116 219)"/>
                                    <path fill="#C1CFDB" d="M12.333 7.4h-7.4c-.34 0-.616-.276-.616-.617 0-.34.276-.616.616-.616h7.4c.34 0 .617.276.617.616 0 .34-.276.617-.617.617zM11.1 12.333H4.933c-.34 0-.616-.276-.616-.616 0-.34.276-.617.616-.617H11.1c.34 0 .617.276.617.617 0 .34-.276.616-.617.616zM32.067 7.4h-7.4c-.34 0-.617-.276-.617-.617 0-.34.276-.616.617-.616h7.4c.34 0 .616.276.616.616 0 .34-.276.617-.616.617zM11.1 17.267H4.933c-.34 0-.616-.276-.616-.617 0-.34.276-.617.616-.617H11.1c.34 0 .617.276.617.617 0 .34-.276.617-.617.617zM32.067 17.267H25.9c-.34 0-.617-.276-.617-.617 0-.34.276-.617.617-.617h6.167c.34 0 .616.276.616.617 0 .34-.276.617-.616.617z" transform="translate(-1121 -2379) translate(160 1722) translate(815 99) translate(30 339) translate(116 219)"/>
                                    <path fill="#A9CF3D" d="M26.517 9.25L28.983 9.25 28.983 11.717 26.517 11.717z" transform="translate(-1121 -2379) translate(160 1722) translate(815 99) translate(30 339) translate(116 219)"/>
                                    <path fill="#587E85" d="M35.15 21.228V.617c0-.34-.276-.617-.617-.617H2.467c-.34 0-.617.276-.617.617v20.611C.728 21.718.002 22.825 0 24.05v12.333c0 .34.276.617.617.617h35.766c.34 0 .617-.276.617-.617V24.05c-.002-1.225-.728-2.332-1.85-2.822zm-1.233-.261h-3.084v-1.85c0-.34-.276-.617-.616-.617H27.75c-.34 0-.617.276-.617.617v1.85H25.9v-3.7h6.167c.34 0 .616-.276.616-.617 0-.34-.276-.617-.616-.617h-1.234v-1.85c0-.34-.276-.616-.616-.616H27.75c-.34 0-.617.276-.617.616v1.85H25.9l-.035.008c-.251-2.236-1.824-4.1-3.986-4.721.405-.265.777-.575 1.11-.925.792-.84 1.331-1.887 1.554-3.02.04.013.082.021.124.025h7.4c.34 0 .616-.276.616-.617 0-.34-.276-.616-.616-.616h-1.234v-1.85c0-.34-.276-.617-.616-.617H27.75c-.34 0-.617.276-.617.617v1.85h-2.472c0-.062.005-.124.003-.189-.06-1.877-.974-3.625-2.483-4.745h11.736v19.734zm-4.317 0h-1.233v-1.234H29.6v1.234zm-12.333 0v-4.934h2.466v4.934h-2.466zm-4.934 0V16.65c0-.142.008-.284.022-.422.004-.047.013-.091.018-.137.013-.092.025-.185.043-.275.01-.053.024-.105.036-.157.02-.08.04-.162.062-.241.016-.054.035-.107.054-.16.025-.075.051-.15.081-.223.022-.053.045-.105.069-.157.031-.07.065-.14.1-.21.027-.05.054-.1.083-.15.038-.066.078-.132.123-.197.03-.048.062-.095.094-.14.045-.062.092-.127.14-.186.034-.043.067-.086.102-.128.053-.061.108-.123.164-.179.035-.037.07-.076.107-.112.062-.062.127-.118.193-.176.034-.03.067-.062.102-.09.085-.069.172-.133.262-.195.02-.014.037-.03.058-.043.11-.075.224-.144.342-.208.03-.017.061-.03.092-.046.088-.046.177-.09.269-.13.045-.02.092-.035.138-.053.08-.032.159-.062.24-.088.053-.018.107-.031.16-.047.078-.021.155-.042.234-.061.058-.013.116-.023.174-.033.046-.01.094-.015.14-.022v8.583h-3.702zm6.018-19.734h.15c2.72.042 4.897 2.269 4.876 4.988-.021 2.72-2.231 4.913-4.95 4.913-2.72 0-4.93-2.194-4.951-4.913-.021-2.72 2.156-4.946 4.875-4.988zm-1.084 11.1h2.466V14.8h-2.466v-2.467zm3.7 3.084v-3.034c.047.006.094.013.14.021.059.01.117.02.174.034.08.017.157.038.234.061.054.016.108.03.16.047.081.026.161.056.24.088.046.018.093.034.139.053.092.04.18.084.269.13.03.016.061.029.092.045.118.065.232.134.342.209.02.013.038.028.058.043.09.061.177.123.261.195.035.028.069.062.103.09.066.057.13.115.193.176.037.036.071.074.107.112.056.059.11.118.163.18.036.04.069.084.102.127.049.062.096.123.14.185.034.046.062.093.094.14.042.065.083.131.124.198l.082.15c.036.069.069.139.1.21.024.052.048.104.07.157.029.073.056.148.08.223.02.053.038.106.054.16.024.08.043.16.062.24.012.053.026.105.037.158.017.09.03.185.042.275.006.046.014.09.019.136.013.14.021.28.021.423v4.316h-3.702v-5.548zm8.633.616h-1.233V14.8H29.6v1.233zm0-9.866h-1.233V4.933H29.6v1.234zM3.083 1.233h11.724c-.286.213-.552.45-.798.707-1.078 1.142-1.676 2.656-1.67 4.227H11.1V3.7c0-.34-.276-.617-.617-.617H8.017c-.34 0-.617.276-.617.617v2.467H4.933c-.34 0-.616.276-.616.616 0 .34.276.617.616.617h7.4c.042-.004.083-.013.124-.025.322 1.618 1.28 3.04 2.657 3.946-2.159.624-3.73 2.487-3.981 4.721l-.033-.009H9.867v-1.85c0-.34-.276-.616-.617-.616H6.783c-.34 0-.616.276-.616.616v1.85H4.933c-.34 0-.616.276-.616.617 0 .34.276.617.616.617H11.1v3.7H9.867v-1.85c0-.34-.276-.617-.617-.617H6.783c-.34 0-.616.276-.616.617v1.85H3.083V1.233zm5.55 4.317V4.317h1.234V5.55H8.633zm0 10.483H7.4V14.8h1.233v1.233zm0 4.934H7.4v-1.234h1.233v1.234zm27.134 14.8H1.233V24.05c0-1.022.829-1.85 1.85-1.85h30.834c1.021 0 1.85.828 1.85 1.85v11.717z" transform="translate(-1121 -2379) translate(160 1722) translate(815 99) translate(30 339) translate(116 219)"/>
                                    <path fill="#587E85" d="M29.6 11.1V9.25c0-.34-.276-.617-.617-.617h-2.466c-.34 0-.617.276-.617.617v1.85h-.617c-.34 0-.616.276-.616.617 0 .34.276.616.616.616h7.4c.34 0 .617-.276.617-.616 0-.34-.276-.617-.617-.617H29.6zm-2.467 0V9.867h1.234V11.1h-1.234zM4.933 12.333H11.1c.34 0 .617-.276.617-.616 0-.34-.276-.617-.617-.617H8.017V9.25c0-.34-.276-.617-.617-.617H4.933c-.34 0-.616.276-.616.617v2.467c0 .34.276.616.616.616zm.617-2.466h1.233V11.1H5.55V9.867zM22.2 27.133h-1.85v-1.85c0-.34-.276-.616-.617-.616h-2.466c-.34 0-.617.276-.617.616v1.85H14.8c-.34 0-.617.276-.617.617v2.467c0 .34.276.616.617.616h1.85v1.85c0 .34.276.617.617.617h2.466c.34 0 .617-.276.617-.617v-1.85h1.85c.34 0 .617-.276.617-.616V27.75c0-.34-.276-.617-.617-.617zm-.617 2.467h-1.85c-.34 0-.616.276-.616.617v1.85h-1.234v-1.85c0-.34-.276-.617-.616-.617h-1.85v-1.233h1.85c.34 0 .616-.276.616-.617V25.9h1.234v1.85c0 .34.276.617.616.617h1.85V29.6z" transform="translate(-1121 -2379) translate(160 1722) translate(815 99) translate(30 339) translate(116 219)"/>
                                </g>
                            </g>
                        </g>
                    </g>
                </g>
            </g>
        </g>
    </g>
</svg>
