<svg xmlns="http://www.w3.org/2000/svg" width="22" height="16" viewBox="0 0 22 16">
    <g fill="none" fill-rule="evenodd">
        <g fill="#FFF" fill-rule="nonzero">
            <g>
                <g>
                    <g>
                        <g>
                            <path d="M20.682 1.431C20.096.389 19.46.197 18.166.124 16.872.036 13.62 0 10.803 0 7.98 0 4.726.036 3.434.123 2.142.197 1.505.387.914 1.43.311 2.471 0 4.265 0 7.421v.011c0 3.143.31 4.949.914 5.979.591 1.042 1.227 1.231 2.52 1.319 1.292.075 4.546.12 7.369.12 2.817 0 6.07-.045 7.364-.119 1.295-.088 1.93-.277 2.516-1.319.61-1.03.917-2.836.917-5.979v-.007-.004c0-3.157-.308-4.95-.918-5.991zM8.1 11.475v-8.1l6.75 4.05-6.75 4.05z" transform="translate(-537 -3438) translate(0 2581) translate(0 662) translate(375 192) translate(162 3.6)"/>
                        </g>
                    </g>
                </g>
            </g>
        </g>
    </g>
</svg>
