<svg width="20" height="16" viewBox="0 0 20 16" fill="none" xmlns="http://www.w3.org/2000/svg">
<path d="M2 15.9996C1.45 15.9996 0.979333 15.804 0.588 15.4126C0.196 15.0206 0 14.5496 0 13.9996V1.99963C0 1.44963 0.196 0.978967 0.588 0.587634C0.979333 0.195634 1.45 -0.000366211 2 -0.000366211H18C18.55 -0.000366211 19.021 0.195634 19.413 0.587634C19.8043 0.978967 20 1.44963 20 1.99963V13.9996C20 14.5496 19.8043 15.0206 19.413 15.4126C19.021 15.804 18.55 15.9996 18 15.9996H2ZM10 8.99963L2 3.99963V13.9996H18V3.99963L10 8.99963ZM10 6.99963L18 1.99963H2L10 6.99963ZM2 3.99963V1.99963V13.9996V3.99963Z" fill="#587E85"/>
</svg>
