<svg width="16" height="16" viewBox="0 0 16 16" xmlns="http://www.w3.org/2000/svg">
    <g fill="none" fill-rule="evenodd">
        <path d="M0 0h16v16H0z"/>
        <path d="M7.931 1.333c.675 0 1.3.353 1.652.932l5.355 8.94a1.93 1.93 0 0 1-1.657 2.895H2.575A1.93 1.93 0 0 1 .93 11.196l5.351-8.934a1.93 1.93 0 0 1 1.65-.929zm0 1.334a.595.595 0 0 0-.508.284L2.08 11.87a.596.596 0 0 0 .503.896h10.692a.596.596 0 0 0 .515-.886L8.441 2.954a.596.596 0 0 0-.51-.287zm.007 7.573a.667.667 0 0 1 .077 1.33l-.077.004a.667.667 0 0 1-.084-1.329l.084-.005zM7.93 5.188c.342 0 .624.257.663.589l.004.077v2.527a.667.667 0 0 1-1.329.077l-.004-.077V5.854c0-.368.298-.666.666-.666z" fill="#8CAEB4"/>
    </g>
</svg>
