<svg width="16" height="16" viewBox="0 0 16 16" xmlns="http://www.w3.org/2000/svg">
    <g fill="none" fill-rule="evenodd">
        <path d="M0 0h16v16H0z"/>
        <path d="M0 0h16v16H0z"/>
        <path d="M5.18 10c.273 0 .5.187.6.447.22.56.787.953 1.887.953.213 0 .403-.015.57-.043.152.424.375.816.654 1.16l-.049.013-.175.037V13c0 .553-.447 1-1 1-.554 0-1-.447-1-1v-.447c-1-.213-1.887-.76-2.267-1.686A.636.636 0 0 1 4.993 10zm2.487-8c.553 0 1 .447 1 1v.46c1.04.253 1.693.907 1.973 1.693a.632.632 0 0 1-.6.847h-.2c-.28 0-.5-.2-.58-.467-.173-.573-.647-.933-1.593-.933-1.127 0-1.8.507-1.8 1.233 0 .634.486 1.04 2 1.434.322.083.648.178.963.295-.286.37-.508.791-.65 1.248a6.484 6.484 0 0 0-.713-.21c-1.86-.447-3.134-1.213-3.134-2.753 0-1.287 1.04-2.127 2.334-2.407V3c0-.553.446-1 1-1z" fill="#8CAEB4"/>
        <path d="M12 6.667a3.335 3.335 0 0 0 0 6.666 3.335 3.335 0 0 0 0-6.666zm1.333 4.666a.33.33 0 0 1-.473 0l-1.1-1.1a.34.34 0 0 1-.1-.233V8.333A.33.33 0 0 1 11.993 8a.33.33 0 0 1 .334.333V9.86l1 1c.14.133.14.34.006.473z" fill="#8CAEB4"/>
    </g>
</svg>
