<svg width="16" height="16" viewBox="0 0 16 16" xmlns="http://www.w3.org/2000/svg">
    <g fill="none" fill-rule="evenodd">
        <path d="M0 0h16v16H0z"/>
        <path d="M7.993 1.333A6.663 6.663 0 0 0 1.333 8c0 3.68 2.98 6.667 6.66 6.667A6.67 6.67 0 0 0 14.667 8a6.67 6.67 0 0 0-6.674-6.667zm.007 12A5.332 5.332 0 0 1 2.667 8 5.332 5.332 0 0 1 8 2.667 5.332 5.332 0 0 1 13.333 8 5.332 5.332 0 0 1 8 13.333zm-.147-8.666h-.04a.478.478 0 0 0-.48.48v3.146c0 .234.12.454.327.574l2.767 1.66c.226.133.52.066.653-.16a.474.474 0 0 0-.167-.66l-2.58-1.534V5.147a.478.478 0 0 0-.48-.48z" fill="#8CAEB4"/>
    </g>
</svg>
