<?xml version="1.0" encoding="UTF-8"?>
<svg width="12px" height="12px" viewBox="0 0 12 12" version="1.1" xmlns="http://www.w3.org/2000/svg" xmlns:xlink="http://www.w3.org/1999/xlink">
    <!-- Generator: Sketch 63.1 (92452) - https://sketch.com -->
    <title>Icon Request Approvals</title>
    <desc>Created with Sketch.</desc>
    <g id="PHASE-II" stroke="none" stroke-width="1" fill="none" fill-rule="evenodd">
        <g id="200615_my_offices_listing_22" transform="translate(-630.000000, -375.000000)" fill="#8CAEB4">
            <g id="Group-6" transform="translate(230.000000, 191.000000)">
                <g id="Group-10-Copy-3" transform="translate(390.000000, 0.000000)">
                    <g id="Group-61" transform="translate(8.000000, 182.000000)">
                        <g id="Icon/Office/Request-Approvals">
                            <path d="M8.13339942,2.02353264 L8.19007624,2.05102299 L8.23730712,2.08393339 L9.78169301,3.36237675 L12.0123715,3.36260018 C12.1543052,3.36260018 12.2792618,3.44402688 12.340114,3.56869241 L12.3598366,3.61739422 L12.3729972,3.66970215 L12.3779083,3.72809858 L12.3775638,5.51084746 L13.8723543,6.74817941 L13.9128898,6.78917933 L13.9334743,6.81500678 L13.9478797,6.8383666 L13.9688843,6.8780588 C13.9779995,6.89872899 13.9851606,6.92017968 13.9904703,6.94377211 L13.9970592,6.98093722 L13.999983,7.02596108 L13.999983,13.6308618 C14.0009229,13.7284276 13.9628403,13.8223282 13.8941887,13.891659 C13.8531873,13.9330661 13.8031458,13.9638131 13.7457392,13.9820938 L13.6859397,13.9961523 L13.6344182,14 L2.36553715,14 C2.20586174,14 2.06767271,13.8969443 2.01807171,13.745206 L2.00491113,13.6928981 L2,13.6345016 L2,7.02738503 C2,7.00478694 2.00207185,6.98228483 2.00668803,6.95857577 L2.01557962,6.92194413 L2.03406594,6.87339765 L2.05510466,6.83454077 L2.0728246,6.80769064 L2.09199858,6.78520204 L2.13321521,6.7444945 L3.62295734,5.51138552 L3.62347113,3.72809858 C3.62347113,3.58617981 3.70490638,3.46123629 3.82958502,3.4003905 L3.87829194,3.38066995 L3.93060537,3.36751078 L3.98900794,3.36260018 L6.21936622,3.36237675 L7.77122025,2.08391068 C7.8737345,1.99909539 8.0124064,1.97782427 8.13339942,2.02353264 Z M13.2686836,7.75294049 L12.3000075,8.47196601 C12.2818286,8.49567012 12.2608614,8.51699328 12.2356885,8.5365628 L12.1945978,8.56468027 L12.160309,8.58011171 L8.21838592,11.5191559 C8.12406245,11.5894321 8.00316414,11.6091487 7.88931831,11.5734701 L7.83313879,11.5509921 L7.78158126,11.5191647 L3.86038041,8.59502483 C3.83249233,8.58431469 3.80609716,8.57025589 3.78019139,8.55166721 L3.74157434,8.52023913 L3.71706031,8.49174205 L2.7307613,7.75401661 L2.7307613,13.2685862 L13.2686836,13.2658959 L13.2686836,7.75294049 Z M11.6468025,4.09306126 L4.35425675,4.09306126 L4.35425675,8.0515634 L8.00052962,10.7698389 L11.6468025,8.0515634 L11.6468025,4.09306126 Z M8.28550916,5.783311 L8.36622653,5.86401989 L8.36591026,6.81564122 L9.31797962,6.81567296 L9.39869699,6.89638185 L9.39869699,7.46596087 L9.31797962,7.54666976 L8.36591026,7.54632573 L8.36622653,8.49832283 L8.28550916,8.57903173 L7.71587028,8.57903173 L7.63515291,8.49832283 L7.63514897,7.54632573 L6.68339982,7.54666976 L6.60268245,7.46596087 L6.60268245,6.89638185 L6.68339982,6.81567296 L7.63514897,6.81564122 L7.63515291,5.86401989 L7.71587028,5.783311 L8.28550916,5.783311 Z M3.62295734,6.46267434 L2.95730806,7.01364704 L3.62295734,7.5097377 L3.62295734,6.46267434 Z M12.3775638,6.46213628 L12.3775638,7.50758546 L13.0437512,7.01095674 L12.3775638,6.46213628 Z M8.00052962,2.83615477 L7.36878163,3.36237675 L8.6322776,3.36237675 L8.00052962,2.83615477 Z" id="Combined-Shape"></path>
                        </g>
                    </g>
                </g>
            </g>
        </g>
    </g>
</svg>