<svg width="16" height="16" viewBox="0 0 16 16" xmlns="http://www.w3.org/2000/svg">
    <g fill="none" fill-rule="evenodd">
        <path d="M0 0h16v16H0z"/>
        <path d="M8 1.333c.77 0 1.422.51 1.671 1.212h2.477c.652 0 1.185.546 1.185 1.213v9.697c0 .666-.533 1.212-1.185 1.212H3.852c-.652 0-1.185-.546-1.185-1.212V3.758c0-.667.533-1.213 1.185-1.213h2.477c.249-.703.9-1.212 1.671-1.212zM5.037 3.758h-.593a.601.601 0 0 0-.592.606v8.484c0 .334.267.607.592.607h7.112a.601.601 0 0 0 .592-.607V4.364a.601.601 0 0 0-.592-.606h-.593v.606c0 .666-.533 1.212-1.185 1.212H6.222c-.652 0-1.185-.546-1.185-1.212v-.606zm5.037 6.06a.495.495 0 0 1 .062.988l-.062.004h-3.95a.495.495 0 0 1-.062-.988l.061-.004h3.951zm0-1.818a.495.495 0 0 1 .062.988l-.062.004h-3.95a.495.495 0 0 1-.062-.988L6.123 8h3.951zM8 2.545a.601.601 0 0 0-.593.607c0 .333.267.606.593.606a.601.601 0 0 0 .593-.606A.601.601 0 0 0 8 2.545z" fill="#8CAEB4"/>
    </g>
</svg>
